<?xml version="1.0" encoding="utf-8"?>
<!-- Generator: Adobe Illustrator 24.0.1, SVG Export Plug-In . SVG Version: 6.00 Build 0)  -->
<svg version="1.1" id="Ebene_1" xmlns="http://www.w3.org/2000/svg" xmlns:xlink="http://www.w3.org/1999/xlink" x="0px" y="0px"
	 viewBox="0 0 180.4 110" style="enable-background:new 0 0 180.4 110;" xml:space="preserve">
<style type="text/css">
	.st0{fill-rule:evenodd;clip-rule:evenodd;fill:#004D9F;stroke:#FFFFFF;stroke-width:2;}
	
		.st1{opacity:0.75;fill-rule:evenodd;clip-rule:evenodd;fill:#7A9CAE;stroke:#FEFEFE;stroke-width:2;stroke-miterlimit:10;enable-background:new    ;}
	.st2{fill-rule:evenodd;clip-rule:evenodd;fill:#EE7D0A;fill-opacity:0.75;stroke:#FFFFFF;stroke-width:2;}
</style>
<title>icon/desktop_ZWH/stars</title>
<desc>Created with Sketch.</desc>
<g>
	<path id="Combined-Shape" class="st0" d="M91.6,38c17.3,3.1,12.1,17.6,10.4,27.6c-1.2,6.7,0.2,13.1,4.2,19.2l0,0l-15.3-2.7
		c0,0.6,0,1.3-0.1,1.9c-0.7,4.1-4.6,6.9-8.6,6.2s-6.7-4.6-6-8.7c0.1-0.6,0.3-1.3,0.6-1.8L61.9,77c5.9-4.4,9.4-10,10.5-16.6
		C74.2,50.4,74.3,34.9,91.6,38z M64.5,77.2l39.6,7"/>
	<path id="Combined-Shape_1_" class="st1" d="M85.1,21.9c11.9,6.9,4.2,16.1,0.3,23c-2.6,4.6-3.3,9.6-2,15.2l0,0L72.8,54
		c-0.1,0.5-0.3,0.9-0.6,1.4c-1.6,2.8-5.2,3.8-8,2.2c-2.8-1.6-3.7-5.2-2.1-8c0.3-0.4,0.6-0.8,0.9-1.2l-10.2-5.9
		c5.5-1.7,9.5-4.8,12.2-9.4C69,26.3,73.2,15,85.1,21.9z M54.8,43.4L81.9,59"/>
	<path id="Combined-Shape_2_" class="st2" d="M97.4,54.3c11.1-6.4,15,4.1,18.7,10.5c2.5,4.3,6.2,7.2,11.4,8.7l0,0l-9.8,5.7
		c0.3,0.3,0.6,0.7,0.8,1.1c1.5,2.6,0.7,6-1.9,7.5c-2.6,1.5-5.9,0.6-7.4-2.1c-0.2-0.4-0.4-0.8-0.5-1.3l-9.5,5.5
		c1.2-5.2,0.6-9.9-1.9-14.2C93.5,69.3,86.3,60.7,97.4,54.3z M100.7,88.8L126,74.2"/>
</g>
</svg>
