<?xml version="1.0" encoding="UTF-8"?>
<svg viewBox="0 0 93 85" version="1.1" xmlns="http://www.w3.org/2000/svg" xmlns:xlink="http://www.w3.org/1999/xlink">
    <title>icon/4.0/desktop_ZWH/news</title>
    <g id="icon/4.0/desktop_ZWH/news" stroke="none" stroke-width="1" fill="none" fill-rule="evenodd">
        <g id="Group" transform="translate(6.000000, 0.000000)" stroke="#FFFFFF" stroke-width="2">
            <g id="Group-3">
                <path d="M37.7598512,24.5044895 C52.5500855,24.5044895 53.0767262,35.2316895 52.8666212,44.6716255 L52.8505433,45.3435552 C52.8109566,46.9055263 52.7598512,48.4237941 52.7598512,49.8427359 C52.7598512,56.5996016 55.2598512,62.6654242 60.2598512,68.0402037 L60.2598512,68.0402037 L44.7165971,68.0396933 C44.869336,68.6448418 44.9505728,69.2792743 44.9505728,69.9330609 C44.9505728,74.1146454 41.6273256,77.5044895 37.5278924,77.5044895 C33.4284592,77.5044895 30.105212,74.1146454 30.105212,69.9330609 C30.105212,69.2792743 30.1864488,68.6448418 30.3391877,68.0396933 L15.2598512,68.0402037 C20.2598512,62.6654242 22.7598512,56.5996016 22.7598512,49.8427359 C22.7598512,48.4237941 22.7087457,46.9055263 22.669159,45.3435552 L22.6530812,44.6716255 C22.4429762,35.2316895 22.9696168,24.5044895 37.7598512,24.5044895 Z M17.90691,67.8035966 L58.0767099,67.8035966" id="Combined-Shape" fill="#004D9F" transform="translate(37.759851, 51.004489) rotate(10.000000) translate(-37.759851, -51.004489) "></path>
                <path d="M25.5252473,6.00374616 C39.2544652,6.00374616 37.2213531,17.8580986 37.2213531,25.7610002 C37.2213531,31.0296013 39.170704,35.7593682 43.069406,39.9503009 L43.069406,39.9503009 L30.9497098,39.9499294 C31.0688021,40.4217802 31.1321433,40.9164638 31.1321433,41.426238 C31.1321433,44.6867884 28.5408733,47.3299867 25.3443796,47.3299867 C22.147886,47.3299867 19.5566159,44.6867884 19.5566159,41.426238 C19.5566159,40.9164638 19.6199572,40.4217802 19.7390495,39.9499294 L7.98108855,39.9503009 C11.8797905,35.7593682 13.8291415,31.0296013 13.8291415,25.7610002 C13.8291415,24.496536 13.7770938,23.1309146 13.7458886,21.7288766 L13.7310143,20.9368162 C13.625579,13.7813868 14.4045807,6.00374616 25.5252473,6.00374616 Z M10.0451072,39.7658087 L41.3671225,39.7658087" id="Combined-Shape" fill-opacity="0.75" fill="#7A9CAF" transform="translate(25.525247, 26.666866) rotate(30.000000) translate(-25.525247, -26.666866) "></path>
                <path d="M57.834174,38.605992 C68.2180853,38.605992 68.9454774,45.8683561 68.8470272,52.5497311 L68.8383571,53.0434671 C68.8102653,54.4387059 68.7554011,55.7998226 68.7554011,57.0543081 C68.7554011,61.9738591 70.5756056,66.3902742 74.2160146,70.3035534 L74.2160146,70.3035534 L62.8991338,70.302705 C63.0104179,70.7434461 63.0696076,71.2055264 63.0696076,71.6817082 C63.0696076,74.7262438 60.6500118,77.1943276 57.6652891,77.1943276 C54.6805664,77.1943276 52.2609705,74.7262438 52.2609705,71.6817082 C52.2609705,71.2055264 52.3201603,70.7434461 52.4314443,70.302705 L41.4523334,70.3035534 C45.0927425,66.3902742 46.912947,61.9738591 46.912947,57.0543081 C46.912947,49.6749817 45.0145305,38.605992 57.834174,38.605992 Z M43.3796088,70.131284 L72.6265092,70.131284" id="Combined-Shape" fill-opacity="0.75" fill="#F17D00" transform="translate(57.834174, 57.900160) rotate(-30.000000) translate(-57.834174, -57.900160) "></path>
            </g>
        </g>
    </g>
</svg>
