<?xml version="1.0" encoding="utf-8"?>
<!-- Generator: Adobe Illustrator 23.0.1, SVG Export Plug-In . SVG Version: 6.00 Build 0)  -->
<svg version="1.1" id="Ebene_1" xmlns="http://www.w3.org/2000/svg" xmlns:xlink="http://www.w3.org/1999/xlink" x="0px" y="0px"
	 viewBox="0 0 180.4 110" style="enable-background:new 0 0 180.4 110;" xml:space="preserve">
<style type="text/css">
	.st0{opacity:0.5;fill-rule:evenodd;clip-rule:evenodd;fill:#FFFFFF;enable-background:new    ;}
	.st1{fill-rule:evenodd;clip-rule:evenodd;fill:#004DA1;}
	.st2{fill-rule:evenodd;clip-rule:evenodd;fill:#FEFEFE;}
	.st3{fill-rule:evenodd;clip-rule:evenodd;fill:#F17D00;}
	.st4{fill-rule:evenodd;clip-rule:evenodd;fill:#7A9CAF;}
</style>
<title>icon/desktop_ZWH/stars</title>
<desc>Created with Sketch.</desc>
<g>
	<path id="Fill-1" class="st0" d="M114.9,27.4c0.7,1,1.9,1.7,3.3,1.7c2.2,0,4-1.8,4-4c0-1.6-0.9-3-2.3-3.6l12.6-12.6L180.2,49v57.4
		L103.4,41L114.9,27.4z"/>
	<path id="Fill-4" class="st0" d="M75.5,53.6c0.8,0.8,2,1.3,3.2,1.3c2.6,0,4.6-2.1,4.6-4.6c0-1.3-0.5-2.4-1.3-3.2L96.9,30l83.2,71.7
		v9.5h-74.9L59.8,69.5L75.5,53.6z"/>
	<path id="Fill-7" class="st0" d="M118.3,72.1c0.6,0.4,1.4,0.7,2.3,0.7c2.2,0,4-1.8,4-4c0-1.6-1-3-2.4-3.7l7.5-13.5l50.5,43.5v15.9
		h-42.6l-26.9-25.4L118.3,72.1z"/>
	<path id="Fill-10" class="st1" d="M96.8,43c0-0.1-0.1-0.3-0.1-0.4C96.4,42,96.6,41.4,97,41l0.1-0.1c1.2-1.2,1.9-2.9,1.9-4.6
		c0-1.7-0.7-3.4-1.9-4.6c-1.2-1.2-2.9-1.9-4.6-1.9c-1.7,0-3.4,0.7-4.6,1.9l-0.1,0.1c-0.4,0.4-1,0.5-1.5,0.3
		c-0.5-0.2-0.9-0.7-0.9-1.3v-0.2c0-3.6-2.9-6.5-6.5-6.5c-3.6,0-6.5,2.9-6.5,6.5v0.4c0,0.5-0.2,0.9-0.6,1.2c-0.1,0-0.3,0.1-0.4,0.1
		c-0.5,0.2-1.2,0.1-1.6-0.3l-0.1-0.1c-1.2-1.2-2.9-1.9-4.6-1.9c-1.7,0-3.4,0.7-4.6,1.9c-1.2,1.2-1.9,2.9-1.9,4.6
		c0,1.7,0.7,3.4,1.9,4.6l0.1,0.1c0.4,0.4,0.5,1,0.3,1.5c-0.3,0.7-0.8,1-1.5,1.1c-3.6,0-6.5,2.9-6.5,6.5c0,3.6,2.9,6.5,6.5,6.5h0.4
		c0.6,0,1.1,0.3,1.3,0.9c0.2,0.6,0.1,1.2-0.3,1.6l-0.1,0.1c-1.2,1.2-1.9,2.9-1.9,4.6c0,1.7,0.7,3.4,1.9,4.6c1.2,1.2,2.9,1.9,4.6,1.9
		c1.7,0,3.4-0.7,4.6-1.9l0.1-0.1c0.4-0.4,1-0.5,1.5-0.3c0.7,0.3,1,0.8,1.1,1.5c0,3.6,2.9,6.5,6.5,6.5c3.6,0,6.5-2.9,6.5-6.5v-0.4
		c0-0.6,0.3-1.1,0.9-1.3c0.6-0.2,1.2-0.1,1.6,0.3l0.1,0.1c1.2,1.2,2.9,1.9,4.6,1.9c1.7,0,3.4-0.7,4.6-1.9c1.2-1.2,1.9-2.9,1.9-4.6
		c0-1.7-0.7-3.4-1.9-4.6l-0.1-0.1c-0.4-0.4-0.5-1-0.3-1.6c0.2-0.5,0.7-0.9,1.3-0.9h0.2c3.6,0,6.5-2.9,6.5-6.5c0-3.6-2.9-6.5-6.5-6.5
		H98C97.5,43.6,97.1,43.4,96.8,43 M83.7,50.6c0,2.9-2.3,5.2-5.2,5.2c-2.9,0-5.2-2.3-5.2-5.2s2.3-5.2,5.2-5.2
		C81.4,45.4,83.7,47.7,83.7,50.6"/>
	<path id="Fill-13" class="st2" d="M72.1,35.5c-2.2,0.8-4.6,0.2-6.3-1.4L65.6,34c-0.4-0.4-1-0.7-1.6-0.7c-0.6,0-1.2,0.2-1.6,0.7
		c-0.4,0.4-0.7,1-0.7,1.6s0.2,1.2,0.7,1.6l0.2,0.2c1.8,1.8,2.2,4.5,1.3,6.6c-0.9,2.4-3.1,4-5.7,4h-0.2c-1.3,0-2.3,1-2.3,2.3
		c0,1.3,1,2.3,2.3,2.3h0.4c2.4,0,4.7,1.5,5.6,3.7c1,2.3,0.5,5-1.2,6.8l-0.1,0.1c-0.4,0.4-0.7,1-0.7,1.6c0,0.6,0.2,1.2,0.7,1.6
		c0.4,0.4,1,0.7,1.6,0.7c0.6,0,1.2-0.2,1.6-0.7l0.2-0.2c1.8-1.8,4.5-2.2,6.6-1.3c2.4,0.9,4,3.1,4,5.7v0.2c0,1.3,1,2.3,2.3,2.3
		c1.3,0,2.3-1,2.3-2.3v-0.4c0-2.4,1.5-4.7,3.7-5.6c2.3-1,5-0.5,6.8,1.2l0.1,0.1c0.4,0.4,1,0.7,1.6,0.7c0.6,0,1.2-0.2,1.6-0.7
		c0.4-0.4,0.7-1,0.7-1.6c0-0.6-0.2-1.2-0.7-1.6L95,63c-1.8-1.8-2.2-4.5-1.2-6.8c1-2.2,3.2-3.7,5.6-3.7h0.2c1.3,0,2.3-1,2.3-2.3
		c0-1.3-1-2.3-2.3-2.3h-0.4c-2.4,0-4.7-1.5-5.6-3.7c-0.1-0.2-0.1-0.4-0.2-0.6c-0.8-2.2-0.2-4.6,1.4-6.3l0.1-0.1
		c0.4-0.4,0.7-1,0.7-1.6c0-0.6-0.2-1.2-0.7-1.6c-0.4-0.4-1-0.7-1.6-0.7c-0.6,0-1.2,0.2-1.6,0.7l-0.2,0.2c-1.8,1.8-4.5,2.2-6.8,1.2
		c-2.3-1-3.7-3.2-3.7-5.6v-0.2c0-1.3-1-2.3-2.3-2.3c-1.3,0-2.3,1-2.3,2.3v0.4c0,2.4-1.5,4.7-3.7,5.6C72.5,35.4,72.3,35.5,72.1,35.5
		 M97.6,42.7c0.3,0.4,0.7,0.6,1.2,0.6h0.4c3.8,0,6.8,3.1,6.8,6.8c0,3.8-3.1,6.8-6.8,6.8H99c-0.6,0-1.1,0.4-1.4,0.9
		c-0.3,0.6-0.1,1.2,0.3,1.6l0.1,0.1c1.3,1.3,2,3,2,4.8c0,1.8-0.7,3.5-2,4.8c-1.3,1.3-3,2-4.8,2c-1.8,0-3.5-0.7-4.8-2l-0.1-0.1
		c-0.4-0.4-1.1-0.5-1.7-0.3c-0.5,0.2-0.9,0.8-0.9,1.3v0.4c0,3.8-3.1,6.8-6.8,6.8c-3.8,0-6.8-3.1-6.8-6.8c0-0.8-0.4-1.3-1.1-1.6
		c-0.6-0.2-1.2-0.1-1.6,0.3l-0.1,0.1c-1.3,1.3-3,2-4.8,2c-1.8,0-3.5-0.7-4.8-2c-1.3-1.3-2-3-2-4.8c0-1.8,0.7-3.5,2-4.8l0.1-0.1
		c0.4-0.4,0.5-1.1,0.3-1.7c-0.2-0.5-0.8-0.9-1.3-0.9h-0.4c-3.8,0-6.8-3.1-6.8-6.8c0-3.8,3.1-6.8,6.8-6.8c0.8,0,1.3-0.4,1.6-1.1
		c0.2-0.6,0.1-1.2-0.3-1.6l-0.1-0.1c-1.3-1.3-2-3-2-4.8s0.7-3.5,2-4.8c1.3-1.3,3-2,4.8-2c1.8,0,3.5,0.7,4.8,2l0.1,0.1
		c0.4,0.4,1.1,0.5,1.6,0.3c0.1-0.1,0.3-0.1,0.5-0.1c0.4-0.3,0.6-0.7,0.6-1.2v-0.4c0-3.8,3.1-6.8,6.8-6.8c3.8,0,6.8,3.1,6.8,6.8v0.2
		c0,0.6,0.4,1.1,0.9,1.4c0.6,0.2,1.2,0.1,1.6-0.3l0.1-0.1c1.3-1.3,3-2,4.8-2c1.8,0,3.5,0.7,4.8,2c1.3,1.3,2,3,2,4.8
		c0,1.8-0.7,3.5-2,4.8l-0.1,0.1c-0.4,0.4-0.5,1.1-0.3,1.6C97.5,42.4,97.5,42.5,97.6,42.7"/>
	<path id="Fill-16" class="st2" d="M78.8,54.1c2.3,0,4.1-1.8,4.1-4.1c0-2.3-1.8-4.1-4.1-4.1c-2.3,0-4.1,1.8-4.1,4.1
		C74.7,52.2,76.5,54.1,78.8,54.1 M78.8,58.2c-4.5,0-8.2-3.7-8.2-8.2c0-4.5,3.7-8.2,8.2-8.2c4.5,0,8.2,3.7,8.2,8.2
		C86.9,54.5,83.3,58.2,78.8,58.2"/>
	<path id="Fill-18" class="st3" d="M131.3,19.6c0-0.1-0.1-0.2-0.1-0.3c-0.2-0.4-0.1-0.8,0.2-1.1l0.1-0.1c0.9-0.9,1.4-2.1,1.4-3.4
		c0-1.3-0.5-2.5-1.4-3.3c-0.9-0.9-2.1-1.4-3.4-1.4c-1.3,0-2.5,0.5-3.3,1.4l-0.1,0.1c-0.3,0.3-0.7,0.4-1.1,0.2
		c-0.4-0.2-0.6-0.5-0.6-0.9l0-0.1c0-2.6-2.2-4.7-4.8-4.7c-2.6,0-4.7,2.2-4.7,4.8l0,0.3c0,0.3-0.2,0.7-0.4,0.8
		c-0.1,0-0.2,0.1-0.3,0.1c-0.4,0.2-0.8,0.1-1.1-0.2l-0.1-0.1c-0.9-0.9-2.1-1.4-3.4-1.4s-2.5,0.5-3.3,1.4c-0.9,0.9-1.4,2.1-1.4,3.4
		c0,1.3,0.5,2.5,1.4,3.3l0.1,0.1c0.3,0.3,0.4,0.7,0.2,1.1c-0.2,0.5-0.5,0.8-1.1,0.8c-2.6,0-4.7,2.2-4.7,4.8c0,2.6,2.2,4.7,4.8,4.7
		l0.3,0c0.4,0,0.8,0.2,0.9,0.6c0.2,0.4,0.1,0.8-0.2,1.1l-0.1,0.1c-0.9,0.9-1.4,2.1-1.4,3.4c0,1.3,0.5,2.5,1.4,3.3
		c0.9,0.9,2.1,1.4,3.4,1.4c1.3,0,2.5-0.5,3.3-1.4l0.1-0.1c0.3-0.3,0.7-0.4,1.1-0.2c0.5,0.2,0.8,0.6,0.8,1.1c0,2.6,2.2,4.7,4.8,4.7
		c2.6,0,4.7-2.2,4.7-4.8l0-0.3c0-0.4,0.2-0.8,0.6-0.9c0.4-0.2,0.8-0.1,1.2,0.2l0.1,0.1c0.9,0.9,2.1,1.4,3.4,1.4
		c1.3,0,2.5-0.5,3.3-1.4c0.9-0.9,1.4-2.1,1.4-3.4c0-1.3-0.5-2.5-1.4-3.3l-0.1-0.1c-0.3-0.3-0.4-0.7-0.2-1.1c0.2-0.4,0.5-0.6,0.9-0.6
		l0.1,0c2.6,0,4.7-2.2,4.7-4.8c0-2.6-2.2-4.7-4.8-4.7l-0.3,0C131.8,20.1,131.5,19.9,131.3,19.6 M121.9,25.2c0,2.1-1.7,3.8-3.7,3.8
		c-2.1,0-3.8-1.7-3.8-3.7c0-2.1,1.7-3.8,3.7-3.8C120.1,21.4,121.8,23.1,121.9,25.2"/>
	<path id="Fill-20" class="st2" d="M112.7,13.4c-1.8,0.6-3.7,0.2-5.1-1.1l-0.1-0.1c-0.3-0.3-0.8-0.5-1.3-0.5c-0.5,0-1,0.2-1.3,0.5
		c-0.3,0.3-0.5,0.8-0.5,1.3s0.2,1,0.5,1.3l0.1,0.1c1.4,1.4,1.8,3.6,1,5.3c-0.7,1.9-2.5,3.2-4.5,3.2h-0.2c-1,0-1.9,0.8-1.9,1.9
		c0,1,0.8,1.9,1.9,1.9h0.3c2,0,3.7,1.2,4.5,3c0.8,1.8,0.4,4-1,5.4l-0.1,0.1c-0.3,0.3-0.5,0.8-0.5,1.3c0,0.5,0.2,1,0.5,1.3
		c0.3,0.3,0.8,0.5,1.3,0.5c0.5,0,1-0.2,1.3-0.5l0.1-0.1c1.4-1.4,3.6-1.8,5.3-1c1.9,0.7,3.2,2.5,3.2,4.5v0.2c0,1,0.8,1.9,1.9,1.9
		c1,0,1.9-0.8,1.9-1.9v-0.3c0-2,1.2-3.7,3-4.5c1.8-0.8,4-0.4,5.4,1l0.1,0.1c0.3,0.3,0.8,0.5,1.3,0.5s1-0.2,1.3-0.5
		c0.4-0.3,0.5-0.8,0.5-1.3c0-0.5-0.2-1-0.5-1.3l-0.1-0.1c-1.4-1.4-1.8-3.6-1-5.4c0.8-1.8,2.5-3,4.5-3h0.2c1,0,1.9-0.8,1.9-1.9
		s-0.8-1.9-1.9-1.9h-0.3c-2,0-3.7-1.2-4.5-3c-0.1-0.2-0.1-0.3-0.1-0.5c-0.6-1.8-0.2-3.7,1.1-5.1l0.1-0.1c0.3-0.3,0.5-0.8,0.5-1.3
		c0-0.5-0.2-1-0.5-1.3c-0.4-0.3-0.8-0.5-1.3-0.5c-0.5,0-1,0.2-1.3,0.5l-0.1,0.1c-1.4,1.4-3.6,1.8-5.4,1c-1.8-0.8-3-2.5-3-4.5V8.4
		c0-1-0.8-1.9-1.9-1.9s-1.9,0.8-1.9,1.9v0.3c0,2-1.2,3.7-3,4.5C113,13.3,112.9,13.3,112.7,13.4 M133.1,19.1c0.2,0.3,0.6,0.5,1,0.5
		h0.3c3,0,5.5,2.4,5.5,5.5c0,3-2.4,5.5-5.5,5.5h-0.2c-0.5,0-0.9,0.3-1.1,0.7c-0.2,0.5-0.1,1,0.2,1.3l0.1,0.1c1,1,1.6,2.4,1.6,3.9
		c0,1.4-0.6,2.8-1.6,3.9c-1,1-2.4,1.6-3.9,1.6s-2.8-0.6-3.9-1.6l-0.1-0.1c-0.3-0.3-0.9-0.4-1.3-0.2c-0.4,0.2-0.7,0.6-0.7,1.1v0.3
		c0,3-2.4,5.5-5.5,5.5c-3,0-5.5-2.4-5.5-5.5c0-0.6-0.3-1-0.9-1.2c-0.4-0.2-1-0.1-1.3,0.2l-0.1,0.1c-1,1-2.4,1.6-3.9,1.6
		s-2.8-0.6-3.9-1.6c-1-1-1.6-2.4-1.6-3.9c0-1.4,0.6-2.8,1.6-3.9l0.1-0.1c0.3-0.3,0.4-0.9,0.2-1.3c-0.2-0.4-0.6-0.7-1.1-0.7h-0.3
		c-3,0-5.5-2.4-5.5-5.5s2.4-5.5,5.5-5.5c0.6,0,1-0.3,1.2-0.9c0.2-0.4,0.1-1-0.2-1.3l-0.1-0.1c-1-1-1.6-2.4-1.6-3.9s0.6-2.8,1.6-3.9
		c1-1,2.4-1.6,3.9-1.6c1.4,0,2.8,0.6,3.9,1.6l0.1,0.1c0.3,0.3,0.9,0.4,1.3,0.2c0.1-0.1,0.2-0.1,0.4-0.1c0.3-0.2,0.5-0.6,0.5-1V8.7
		c0-3,2.4-5.5,5.5-5.5c3,0,5.5,2.4,5.5,5.5v0.2c0,0.5,0.3,0.9,0.7,1.1c0.4,0.2,1,0.1,1.3-0.2l0.1-0.1c1-1,2.4-1.6,3.9-1.6
		c1.4,0,2.8,0.6,3.9,1.6c1,1,1.6,2.4,1.6,3.9c0,1.4-0.6,2.8-1.6,3.9l-0.1,0.1c-0.3,0.3-0.4,0.9-0.2,1.3C133,18.9,133,19,133.1,19.1"
		/>
	<path id="Fill-22" class="st2" d="M118,28.2c1.8,0,3.3-1.5,3.3-3.3c0-1.8-1.5-3.3-3.3-3.3c-1.8,0-3.3,1.5-3.3,3.3
		C114.7,26.7,116.2,28.2,118,28.2 M118,31.5c-3.6,0-6.5-2.9-6.5-6.5c0-3.6,2.9-6.5,6.5-6.5c3.6,0,6.5,2.9,6.5,6.5
		C124.6,28.5,121.6,31.5,118,31.5"/>
	<path id="Fill-24" class="st4" d="M134.1,69.5c0-0.1,0-0.2,0-0.3c0-0.4,0.3-0.8,0.7-0.9l0.1,0c1.2-0.4,2.1-1.3,2.6-2.4
		c0.5-1.1,0.6-2.4,0.2-3.5c-0.4-1.2-1.3-2.1-2.4-2.6c-1.1-0.5-2.4-0.6-3.5-0.2l-0.1,0c-0.4,0.1-0.8,0-1.1-0.3
		c-0.3-0.3-0.3-0.7-0.2-1.1l0.1-0.1c1.1-2.3,0.1-5.1-2.2-6.2c-2.3-1.1-5.1-0.1-6.2,2.2l-0.1,0.2c-0.1,0.3-0.4,0.5-0.7,0.5
		c-0.1,0-0.2,0-0.3,0c-0.4,0-0.8-0.3-0.9-0.7l0-0.1c-0.4-1.2-1.3-2.1-2.4-2.6c-1.1-0.5-2.4-0.6-3.5-0.2c-1.2,0.4-2.1,1.3-2.6,2.4
		c-0.5,1.1-0.6,2.4-0.2,3.5l0,0.1c0.1,0.4,0,0.8-0.3,1.1c-0.4,0.4-0.8,0.4-1.3,0.2c-2.3-1.1-5.1-0.1-6.2,2.2
		c-1.1,2.3-0.1,5.1,2.2,6.2l0.2,0.1c0.4,0.2,0.6,0.5,0.6,0.9c0,0.4-0.3,0.8-0.7,0.9l-0.1,0c-1.2,0.4-2.1,1.3-2.6,2.4
		c-0.5,1.1-0.6,2.4-0.2,3.5c0.4,1.2,1.3,2.1,2.4,2.6c1.1,0.5,2.4,0.6,3.5,0.2l0.1,0c0.4-0.1,0.8,0,1.1,0.3c0.4,0.4,0.4,0.8,0.2,1.3
		c-1.1,2.3-0.1,5.1,2.2,6.2c2.3,1.1,5.1,0.1,6.2-2.2l0.1-0.2c0.2-0.4,0.5-0.6,0.9-0.6c0.4,0,0.8,0.3,0.9,0.7l0,0.1
		c0.4,1.2,1.3,2.1,2.4,2.6c1.1,0.5,2.4,0.6,3.5,0.2c1.2-0.4,2.1-1.3,2.6-2.4c0.5-1.1,0.6-2.4,0.2-3.5l0-0.1c-0.1-0.4,0-0.8,0.3-1.1
		c0.3-0.3,0.7-0.3,1.1-0.2l0.1,0.1c2.3,1.1,5.1,0.1,6.2-2.2c1.1-2.3,0.1-5.1-2.2-6.2l-0.2-0.1C134.4,70.1,134.2,69.8,134.1,69.5
		 M123.5,70.3c-0.9,1.8-3.1,2.6-4.9,1.7c-1.8-0.9-2.6-3.1-1.7-4.9c0.9-1.8,3.1-2.6,4.9-1.7C123.6,66.3,124.3,68.5,123.5,70.3"/>
	<path id="Fill-26" class="st2" d="M120.5,57.1c-1.7-0.2-3.1-1.3-3.7-2.9l0-0.1c-0.1-0.4-0.4-0.8-0.8-1c-0.4-0.2-0.9-0.2-1.3-0.1
		c-0.4,0.1-0.8,0.4-1,0.8c-0.2,0.4-0.2,0.9-0.1,1.3l0.1,0.2c0.6,1.7,0,3.6-1.3,4.7c-1.3,1.3-3.3,1.6-4.9,0.8l-0.1-0.1
		c-0.8-0.4-1.8-0.1-2.2,0.8c-0.4,0.8-0.1,1.8,0.8,2.2l0.3,0.1c1.6,0.8,2.5,2.4,2.5,4.2c-0.1,1.8-1.2,3.4-3,4l-0.1,0
		c-0.4,0.1-0.8,0.4-1,0.8c-0.2,0.4-0.2,0.9-0.1,1.3c0.1,0.4,0.4,0.8,0.8,1c0.4,0.2,0.9,0.2,1.3,0.1l0.2-0.1c1.7-0.6,3.6,0,4.7,1.3
		c1.3,1.3,1.6,3.3,0.8,4.9l-0.1,0.1c-0.4,0.8-0.1,1.8,0.8,2.2c0.8,0.4,1.8,0.1,2.2-0.8l0.1-0.3c0.8-1.6,2.4-2.5,4.2-2.5
		c1.8,0.1,3.4,1.2,4,2.9l0,0.1c0.1,0.4,0.4,0.8,0.8,1c0.4,0.2,0.9,0.2,1.3,0.1c0.4-0.1,0.8-0.4,1-0.8c0.2-0.4,0.2-0.9,0.1-1.3
		l-0.1-0.2c-0.6-1.7,0-3.6,1.3-4.8c1.3-1.1,3.2-1.4,4.8-0.6l0.1,0.1c0.8,0.4,1.8,0.1,2.2-0.8c0.4-0.8,0.1-1.8-0.8-2.2l-0.3-0.1
		c-1.6-0.8-2.5-2.4-2.5-4.2c0-0.2,0-0.3,0.1-0.5c0.2-1.7,1.3-3.1,2.9-3.7l0.1,0c0.4-0.1,0.8-0.4,1-0.8c0.2-0.4,0.2-0.9,0.1-1.3
		c-0.1-0.4-0.4-0.8-0.8-1c-0.4-0.2-0.9-0.2-1.3-0.1l-0.2,0.1c-1.7,0.6-3.6,0-4.8-1.3c-1.2-1.3-1.4-3.2-0.6-4.8l0.1-0.1
		c0.4-0.8,0.1-1.8-0.8-2.2c-0.8-0.4-1.8-0.1-2.2,0.8l-0.1,0.3c-0.8,1.6-2.4,2.5-4.2,2.5C120.8,57.2,120.6,57.2,120.5,57.1
		 M134.7,69.8c0.1,0.3,0.3,0.6,0.6,0.8l0.3,0.1c2.4,1.2,3.4,4.1,2.3,6.6c-1.2,2.4-4.1,3.4-6.6,2.3l-0.1-0.1
		c-0.4-0.2-0.8-0.1-1.2,0.2c-0.3,0.3-0.5,0.7-0.3,1.1l0,0.1c0.4,1.2,0.3,2.6-0.2,3.8c-0.6,1.2-1.6,2.1-2.8,2.5
		c-1.2,0.4-2.6,0.3-3.8-0.2c-1.2-0.6-2.1-1.6-2.5-2.8l0-0.1c-0.1-0.4-0.5-0.7-1-0.7c-0.4,0-0.8,0.2-1,0.6l-0.1,0.2
		c-1.2,2.4-4.1,3.4-6.6,2.3c-2.4-1.2-3.4-4.1-2.3-6.6c0.2-0.5,0.2-1-0.2-1.4c-0.3-0.3-0.7-0.5-1.1-0.3l-0.1,0
		c-1.2,0.4-2.6,0.3-3.8-0.2c-1.2-0.6-2.1-1.6-2.5-2.8c-0.4-1.2-0.3-2.6,0.2-3.8c0.6-1.2,1.6-2.1,2.8-2.5l0.1,0
		c0.4-0.1,0.7-0.5,0.7-1c0-0.4-0.2-0.8-0.6-1l-0.2-0.1c-2.4-1.2-3.4-4.1-2.3-6.6c1.2-2.4,4.1-3.4,6.6-2.3c0.5,0.2,1,0.2,1.4-0.2
		c0.3-0.3,0.5-0.7,0.3-1.1l0-0.1c-0.4-1.2-0.3-2.6,0.2-3.8c0.6-1.2,1.6-2.1,2.8-2.5c1.2-0.4,2.6-0.3,3.8,0.2
		c1.2,0.6,2.1,1.6,2.5,2.8l0,0.1c0.1,0.4,0.5,0.7,1,0.7c0.1,0,0.2,0,0.3,0c0.3-0.1,0.6-0.3,0.8-0.6l0.1-0.2c1.2-2.4,4.1-3.4,6.6-2.3
		c2.4,1.2,3.4,4.1,2.3,6.6l-0.1,0.1c-0.2,0.4-0.1,0.8,0.2,1.2c0.3,0.3,0.7,0.5,1.1,0.3l0.1,0c1.2-0.4,2.6-0.3,3.8,0.2
		c1.2,0.6,2.1,1.6,2.5,2.8c0.4,1.2,0.3,2.6-0.2,3.8c-0.6,1.2-1.6,2.1-2.8,2.5l-0.1,0c-0.4,0.1-0.7,0.5-0.7,1
		C134.8,69.6,134.8,69.7,134.7,69.8"/>
	<path id="Fill-28" class="st2" d="M119,71.2c1.5,0.7,3.2,0.1,3.9-1.4c0.7-1.5,0.1-3.2-1.4-3.9c-1.5-0.7-3.2-0.1-3.9,1.4
		C116.9,68.8,117.5,70.5,119,71.2 M117.7,73.9c-2.9-1.4-4.1-5-2.7-7.9c1.4-2.9,5-4.1,7.9-2.7c2.9,1.4,4.1,5,2.7,7.9
		C124.1,74.1,120.6,75.3,117.7,73.9"/>
</g>
</svg>
