<?xml version="1.0" encoding="utf-8"?>
<!-- Generator: Adobe Illustrator 24.0.1, SVG Export Plug-In . SVG Version: 6.00 Build 0)  -->
<svg version="1.1" id="Ebene_1" xmlns="http://www.w3.org/2000/svg" xmlns:xlink="http://www.w3.org/1999/xlink" x="0px" y="0px"
	 viewBox="0 0 180.4 110" style="enable-background:new 0 0 180.4 110;" xml:space="preserve">
<style type="text/css">
	.st0{fill-rule:evenodd;clip-rule:evenodd;fill:#004DA1;stroke:#FFFFFF;stroke-width:2;}
	.st1{opacity:0.75;fill-rule:evenodd;clip-rule:evenodd;fill:#7A9CAF;}
	.st2{fill:none;stroke:#FFFFFF;stroke-width:2;}
	.st3{opacity:0.75;fill-rule:evenodd;clip-rule:evenodd;fill:#F17D00;}
</style>
<title>icon/desktop_ZWH/stars</title>
<desc>Created with Sketch.</desc>
<g id="icon_x2F_4.0_x2F_desktop_x5F_ZWH_x2F_stars">
	<g id="Group-10" transform="translate(2.000000, 2.000000)">
		<path id="_x30_3-blau" class="st0" d="M80.2,30.8l12.9,1.3c1.6,0.2,2.7,1.6,2.6,3.1c-0.1,0.8-0.5,1.5-1.1,2l-10.4,8.1
			c-0.3,0.2-0.4,0.6-0.3,1l3.3,14.5c0.4,1.5-0.6,3.1-2.2,3.4c-0.8,0.2-1.7,0-2.3-0.5l-11.7-8.6c-0.3-0.2-0.8-0.2-1.1,0l-11.7,8.6
			c-1.3,0.9-3.1,0.7-4-0.6c-0.5-0.7-0.7-1.5-0.5-2.3l3.3-14.5c0.1-0.4-0.1-0.7-0.3-1l-10.4-8.1c-1.3-1-1.5-2.8-0.5-4
			c0.5-0.6,1.2-1,2-1.1l13-1.3c0.3,0,0.6-0.3,0.8-0.6l6.3-14.9c0.6-1.5,2.3-2.1,3.8-1.5c0.7,0.3,1.2,0.8,1.5,1.5l6.4,14.9
			C79.5,30.5,79.8,30.7,80.2,30.8z"/>
		<g id="Group-2" transform="translate(19.000000, 15.026161)">
			<path id="_x30_2-gr端n" class="st1" d="M79.2,31.1l12.9,1.3c1.1,0.1,1.8,1,1.7,2.1c-0.1,0.5-0.3,1-0.7,1.3l-10.4,8.1
				c-0.6,0.5-0.9,1.2-0.7,1.9l3.3,14.5c0.2,1-0.4,2.1-1.4,2.3c-0.5,0.1-1.1,0-1.6-0.3l-11.7-8.6c-0.7-0.5-1.6-0.5-2.3,0l-11.7,8.6
				c-0.9,0.6-2.1,0.4-2.7-0.4c-0.3-0.4-0.4-1-0.3-1.6L57,45.8c0.2-0.7-0.1-1.5-0.7-1.9l-10.4-8.1c-0.8-0.6-1-1.9-0.3-2.7
				c0.3-0.4,0.8-0.7,1.3-0.7l13-1.3c0.7-0.1,1.3-0.5,1.6-1.2L67.8,15c0.4-1,1.5-1.4,2.5-1c0.5,0.2,0.8,0.6,1,1l6.4,14.9
				C77.9,30.6,78.5,31,79.2,31.1z"/>
			<path id="_x30_2-gr端n_1_" class="st2" d="M79.3,30.1l12.9,1.3c1.6,0.2,2.7,1.6,2.6,3.1c-0.1,0.8-0.5,1.5-1.1,2l-10.4,8.1
				c-0.3,0.2-0.4,0.6-0.3,1l3.3,14.5c0.4,1.5-0.6,3.1-2.2,3.4c-0.8,0.2-1.7,0-2.3-0.5l-11.7-8.6c-0.3-0.2-0.8-0.2-1.1,0l-11.7,8.6
				c-1.3,0.9-3.1,0.7-4-0.6c-0.5-0.7-0.7-1.5-0.5-2.3l3.3-14.5c0.1-0.4-0.1-0.7-0.3-1l-10.4-8.1c-1.3-1-1.5-2.8-0.5-4
				c0.5-0.6,1.2-1,2-1.1l13-1.3c0.3,0,0.6-0.3,0.8-0.6l6.3-14.9c0.6-1.5,2.3-2.1,3.8-1.5c0.7,0.3,1.2,0.8,1.5,1.5l6.4,14.9
				C78.7,29.9,79,30.1,79.3,30.1z"/>
		</g>
		<g id="Group" transform="translate(38.000000, 30.026161)">
			<path id="_x30_1-t端rkis" class="st3" d="M78.4,30.4l12.9,1.3c1.1,0.1,1.8,1,1.7,2.1c-0.1,0.5-0.3,1-0.7,1.3l-10.4,8.1
				c-0.6,0.5-0.9,1.2-0.7,1.9l3.3,14.5c0.2,1-0.4,2.1-1.4,2.3c-0.5,0.1-1.1,0-1.6-0.3L69.8,53c-0.7-0.5-1.6-0.5-2.3,0l-11.7,8.6
				c-0.9,0.6-2.1,0.4-2.7-0.4c-0.3-0.4-0.4-1-0.3-1.6l3.3-14.5c0.2-0.7-0.1-1.5-0.7-1.9l-10.4-8.1c-0.8-0.6-1-1.9-0.3-2.7
				c0.3-0.4,0.8-0.7,1.3-0.7l13-1.3c0.7-0.1,1.3-0.5,1.6-1.2l6.3-14.9c0.4-1,1.5-1.4,2.5-1c0.5,0.2,0.8,0.6,1,1l6.4,14.9
				C77.1,29.9,77.7,30.4,78.4,30.4z"/>
			<path id="_x30_1-t端rkis_1_" class="st2" d="M78.5,29.5l12.9,1.3c1.6,0.2,2.7,1.6,2.6,3.1c-0.1,0.8-0.5,1.5-1.1,2L82.5,44
				c-0.3,0.2-0.4,0.6-0.3,1l3.3,14.5c0.4,1.5-0.6,3.1-2.2,3.4c-0.8,0.2-1.7,0-2.3-0.5l-11.7-8.6c-0.3-0.2-0.8-0.2-1.1,0l-11.7,8.6
				c-1.3,0.9-3.1,0.7-4-0.6c-0.5-0.7-0.7-1.5-0.5-2.3l3.3-14.5c0.1-0.4-0.1-0.7-0.3-1l-10.4-8.1c-1.3-1-1.5-2.8-0.5-4
				c0.5-0.6,1.2-1,2-1.1l13-1.3c0.3,0,0.6-0.3,0.8-0.6L66.1,14c0.6-1.5,2.3-2.1,3.8-1.5c0.7,0.3,1.2,0.8,1.5,1.5l6.4,14.9
				C77.9,29.2,78.2,29.4,78.5,29.5z"/>
		</g>
	</g>
</g>
</svg>
