<?xml version="1.0" encoding="utf-8"?>
<!-- Generator: Adobe Illustrator 23.0.1, SVG Export Plug-In . SVG Version: 6.00 Build 0)  -->
<svg version="1.1" id="Ebene_1" xmlns="http://www.w3.org/2000/svg" xmlns:xlink="http://www.w3.org/1999/xlink" x="0px" y="0px"
	 viewBox="0 0 180.4 110" style="enable-background:new 0 0 180.4 110;" xml:space="preserve">
<style type="text/css">
	.st0{fill:none;stroke:#FFFFFF;stroke-width:3;}
	.st1{opacity:0.5;fill-rule:evenodd;clip-rule:evenodd;fill:#FFFFFF;enable-background:new    ;}
	.st2{fill-rule:evenodd;clip-rule:evenodd;fill:#004DA1;}
	.st3{opacity:0.75;fill-rule:evenodd;clip-rule:evenodd;fill:#7A9CAF;enable-background:new    ;}
	.st4{opacity:0.75;fill-rule:evenodd;clip-rule:evenodd;fill:#F17D00;enable-background:new    ;}
</style>
<title>icon/desktop_ZWH/stars</title>
<desc>Created with Sketch.</desc>
<g>
	<g id="Group-20" transform="translate(1.000000, 0.000000)">
		<path id="Stroke-3" class="st0" d="M100.3,74.8l-8.4,6.1c-1.3,1-3.2,0.7-4.2-0.7c-0.5-0.7-0.7-1.6-0.5-2.4l3.1-13.4
			c0.3-1.1-0.2-2.3-1.1-3.1l-3.6-2.8l-8.7,6.3c-1.3,1-3.2,0.7-4.2-0.7c-0.5-0.7-0.7-1.6-0.5-2.4l3.1-13.4c0.3-1.1-0.2-2.3-1.1-3
			l-9.5-7.3c-1.3-1-1.6-2.9-0.5-4.2c0.5-0.7,1.3-1.1,2.1-1.2l11.9-1.2c1.1-0.1,2-0.8,2.5-1.8l6.1-14.3c0.7-1.5,2.4-2.2,3.9-1.6
			c0.7,0.3,1.3,0.9,1.6,1.6l6.2,14.3c0.4,1,1.4,1.7,2.5,1.8l0.8,0.1l0.1-0.2c0.7-1.5,2.4-2.2,3.9-1.6c0.7,0.3,1.3,0.9,1.6,1.6
			l0.3,0.8l5.1,0.5c1.6,0.2,2.9,1.6,2.7,3.3c-0.1,0.8-0.5,1.6-1.2,2.1l-3.1,2.4l2.3,5.3c0.4,1,1.4,1.7,2.5,1.8l4.3,0.4
			c0.8-0.4,1.7-0.4,2.5-0.1c0.2,0.1,0.5,0.2,0.7,0.4l4.4,0.4c1.6,0.2,2.9,1.6,2.7,3.3c-0.1,0.8-0.5,1.6-1.2,2.1l-2.3,1.7l3.4,7.9
			c0.4,1,1.4,1.7,2.5,1.8l11.8,1.2c1.6,0.2,2.9,1.6,2.7,3.3c-0.1,0.8-0.5,1.6-1.2,2.1l-9.5,7.3c-0.9,0.7-1.4,1.9-1.1,3.1l3.1,13.4
			c0.4,1.6-0.6,3.2-2.2,3.6c-0.8,0.2-1.7,0-2.4-0.5l-10.8-7.9c-1.1-0.8-2.5-0.8-3.5,0l-10.8,7.9c-1.3,1-3.2,0.7-4.2-0.7
			c-0.5-0.7-0.7-1.6-0.5-2.4l3.1-13.4c0.3-1.1-0.2-2.3-1.1-3.1L100.3,74.8z"/>
		<polygon id="Fill-5" class="st1" points="179.4,85.3 179.4,110.6 121.4,110.6 72.6,66.2 92,12.9 		"/>
		<polygon id="Fill-8" class="st1" points="179.4,89.7 179.4,110.6 117.3,110.6 86.8,81.7 106.7,28.6 		"/>
		<polygon id="Fill-11" class="st1" points="103.9,99.9 123.4,46.5 179.4,95.3 179.4,110.6 116.1,110.6 		"/>
		<path id="Fill-14" class="st2" d="M99.5,32.1l13.5,1.3c1.1,0.1,1.9,1.1,1.8,2.2c-0.1,0.5-0.3,1-0.8,1.4l-10.9,8.5
			c-0.6,0.5-0.9,1.3-0.7,2l3.5,15.2c0.2,1.1-0.4,2.1-1.5,2.4c-0.6,0.1-1.2,0-1.6-0.3l-12.2-9c-0.7-0.5-1.7-0.5-2.4,0l-12.2,9
			c-0.9,0.7-2.1,0.5-2.8-0.4c-0.3-0.5-0.5-1.1-0.3-1.6l3.5-15.2c0.2-0.8-0.1-1.6-0.7-2L64.6,37c-0.9-0.7-1-1.9-0.4-2.8
			c0.3-0.4,0.8-0.7,1.4-0.8l13.6-1.3c0.7-0.1,1.4-0.5,1.6-1.2l6.6-15.5c0.4-1,1.6-1.5,2.6-1.1c0.5,0.2,0.9,0.6,1.1,1.1l6.7,15.5
			C98.1,31.6,98.8,32.1,99.5,32.1"/>
		<path id="Fill-16" class="st3" d="M114.6,48l13.5,1.3c1.1,0.1,1.9,1.1,1.8,2.2c-0.1,0.5-0.3,1-0.8,1.4l-10.9,8.5
			c-0.6,0.5-0.9,1.3-0.7,2l3.5,15.2c0.2,1.1-0.4,2.1-1.5,2.4c-0.6,0.1-1.2,0-1.6-0.3l-12.2-9c-0.7-0.5-1.7-0.5-2.4,0l-12.2,9
			c-0.9,0.7-2.1,0.5-2.8-0.4c-0.3-0.5-0.5-1.1-0.3-1.6l3.5-15.2c0.2-0.8-0.1-1.6-0.7-2l-10.9-8.5c-0.9-0.7-1-1.9-0.4-2.8
			c0.3-0.4,0.8-0.7,1.4-0.8L94.4,48c0.7-0.1,1.4-0.5,1.6-1.2l6.6-15.5c0.4-1,1.6-1.5,2.6-1.1c0.5,0.2,0.9,0.6,1.1,1.1l6.7,15.5
			C113.2,47.5,113.9,48,114.6,48"/>
		<path id="Fill-18" class="st4" d="M131.6,66.1l13.5,1.3c1.1,0.1,1.9,1.1,1.8,2.2c-0.1,0.5-0.3,1-0.8,1.4l-10.9,8.5
			c-0.6,0.5-0.9,1.3-0.7,2l3.5,15.2c0.2,1.1-0.4,2.1-1.5,2.4c-0.6,0.1-1.2,0-1.6-0.3l-12.2-9c-0.7-0.5-1.7-0.5-2.4,0l-12.2,9
			c-0.9,0.7-2.1,0.5-2.8-0.4c-0.3-0.5-0.5-1.1-0.3-1.6l3.5-15.2c0.2-0.8-0.1-1.6-0.7-2L96.7,71c-0.9-0.7-1-1.9-0.4-2.8
			c0.3-0.4,0.8-0.7,1.4-0.8l13.6-1.3c0.7-0.1,1.4-0.5,1.6-1.2l6.6-15.5c0.4-1,1.6-1.5,2.6-1.1c0.5,0.2,0.9,0.6,1.1,1.1l6.7,15.5
			C130.2,65.6,130.9,66.1,131.6,66.1"/>
	</g>
</g>
</svg>
