<?xml version="1.0" encoding="utf-8"?>
<!-- Generator: Adobe Illustrator 23.0.1, SVG Export Plug-In . SVG Version: 6.00 Build 0)  -->
<svg version="1.1" id="Ebene_1" xmlns="http://www.w3.org/2000/svg" xmlns:xlink="http://www.w3.org/1999/xlink" x="0px" y="0px"
	 viewBox="0 0 180.4 110" style="enable-background:new 0 0 180.4 110;" xml:space="preserve">
<style type="text/css">
	.st0{fill-rule:evenodd;clip-rule:evenodd;fill:#FFFFFF;fill-opacity:0.5;}
	.st1{fill-rule:evenodd;clip-rule:evenodd;fill:#FFFFFF;}
	.st2{filter:url(#Adobe_OpacityMaskFilter);}
	.st3{mask:url(#mask-6_2_);fill-rule:evenodd;clip-rule:evenodd;fill:#064E9D;}
	.st4{fill:none;stroke:#FEFEFE;stroke-width:3;}
	.st5{filter:url(#Adobe_OpacityMaskFilter_1_);}
	.st6{opacity:0.75;mask:url(#mask-8_2_);fill-rule:evenodd;clip-rule:evenodd;fill:#7A9CAE;enable-background:new    ;}
	.st7{filter:url(#Adobe_OpacityMaskFilter_2_);}
	.st8{mask:url(#mask-10_2_);fill-rule:evenodd;clip-rule:evenodd;fill:#EE7D0A;fill-opacity:0.75;}
</style>
<title>icon/desktop_ZWH/stars</title>
<desc>Created with Sketch.</desc>
<g>
	<g id="Clip-8">
		<polygon class="st0" points="102.2,95.5 120,110 180.4,110 180.4,106.2 140.5,73.7 		"/>
	</g>
	<g id="Clip-2">
		<polygon class="st0" points="63.4,57.2 127.3,110 180.4,110 180.4,89.4 92.9,17.9 		"/>
	</g>
	<polygon id="Path" class="st0" points="64.2,75.9 58.8,78.8 96.2,110 180.4,110 180.4,99 107,37.7 	"/>
	<path class="st1" d="M66.4,29.6c-3,5-7.5,8.5-13.7,10.3l11.5,6.5c-0.4,0.4-0.7,0.8-1,1.3c-1.8,3.1-0.8,7.1,2.3,8.8
		c3.1,1.8,7.1,0.7,9-2.4c0.3-0.5,0.5-1,0.7-1.5l11.8,6.7c-1.4-6.1-0.7-11.7,2.3-16.8c4.4-7.5,13.1-17.7-0.3-25.3
		c-2.9-1.7-5.4-2.4-7.6-2.4C73.5,14.8,69.8,23.7,66.4,29.6z"/>
	<g id="Blau" transform="translate(13.000000, 29.830000)">
		<g id="Clip-16">
		</g>
		<defs>
			<filter id="Adobe_OpacityMaskFilter" filterUnits="userSpaceOnUse" x="41.4" y="-5.5" width="73.3" height="78.9">
				<feColorMatrix  type="matrix" values="1 0 0 0 0  0 1 0 0 0  0 0 1 0 0  0 0 0 1 0"/>
			</filter>
		</defs>
		<mask maskUnits="userSpaceOnUse" x="41.4" y="-5.5" width="73.3" height="78.9" id="mask-6_2_">
			<g class="st2">
				<path id="path-5_2_" class="st1" d="M61.6,29.8c-1.3,7.3-5.3,13.4-11.9,18.3L66.5,51c-0.3,0.6-0.5,1.3-0.6,2
					c-0.8,4.5,2.2,8.9,6.7,9.6c4.5,0.8,8.9-2.3,9.7-6.8c0.1-0.7,0.2-1.4,0.1-2.1l17.2,3c-4.5-6.8-6.1-13.9-4.8-21.2
					c2-11,7.8-27-11.7-30.4c-1.7-0.3-3.3-0.4-4.7-0.4C63.7,4.7,63.4,19.7,61.6,29.8z"/>
			</g>
		</mask>
		<polygon id="Fill-15" class="st3" points="53.7,-5.5 114.7,5 102.3,73.3 41.4,62.8 		"/>
	</g>
	<path id="Stroke-18" class="st4" d="M95.4,83.5c0.1,0.7,0,1.4-0.1,2.1c-0.8,4.5-5.2,7.6-9.7,6.8s-7.6-5.1-6.7-9.6
		c0.1-0.7,0.3-1.4,0.6-2l-16.7-2.9c6.6-4.9,10.5-11,11.9-18.3c2-11,2.1-28,21.6-24.6c19.5,3.4,13.7,19.4,11.7,30.4
		c-1.3,7.3,0.3,14.4,4.8,21.2L95.4,83.5z M65.7,78.2l44.5,7.7L65.7,78.2z"/>
	<g id="Grau" transform="translate(4.000000, 11.830000)">
		<g id="Clip-21">
		</g>
		<defs>
			<filter id="Adobe_OpacityMaskFilter_1_" filterUnits="userSpaceOnUse" x="36.8" y="-11.8" width="72.8" height="73.8">
				<feColorMatrix  type="matrix" values="1 0 0 0 0  0 1 0 0 0  0 0 1 0 0  0 0 0 1 0"/>
			</filter>
		</defs>
		<mask maskUnits="userSpaceOnUse" x="36.8" y="-11.8" width="72.8" height="73.8" id="mask-8_2_">
			<g class="st5">
				<path id="path-7_2_" class="st1" d="M71.1,40.7c-0.1,0.5-0.4,1-0.7,1.5c-1.8,3.1-5.8,4.2-9,2.4c-3.1-1.8-4.2-5.7-2.3-8.8
					c0.3-0.5,0.6-0.9,1-1.3l-11.5-6.5c6.2-1.9,10.7-5.3,13.7-10.3c4.4-7.5,9.1-20,22.5-12.4s4.7,17.8,0.3,25.3
					c-3,5-3.7,10.6-2.3,16.8L71.1,40.7z M50.8,29.1l30.5,17.3L50.8,29.1z"/>
			</g>
		</mask>
		<polygon id="Fill-20" class="st6" points="65.7,-11.8 109.7,13 80.8,62 36.8,37.2 		"/>
	</g>
	<g id="Orange" transform="translate(43.000000, 44.830000)">
		<g id="Clip-24">
		</g>
		<defs>
			<filter id="Adobe_OpacityMaskFilter_2_" filterUnits="userSpaceOnUse" x="36.1" y="-8.5" width="69" height="69.9">
				<feColorMatrix  type="matrix" values="1 0 0 0 0  0 1 0 0 0  0 0 1 0 0  0 0 0 1 0"/>
			</filter>
		</defs>
		<mask maskUnits="userSpaceOnUse" x="36.1" y="-8.5" width="69" height="69.9" id="mask-10_2_">
			<g class="st7">
				<path id="path-9_2_" class="st1" d="M82.5,35.5c0.4,0.4,0.7,0.8,0.9,1.2c1.7,2.9,0.7,6.6-2.2,8.2c-2.9,1.6-6.7,0.6-8.4-2.3
					c-0.3-0.5-0.5-0.9-0.6-1.4l-10.7,6c1.3-5.7,0.6-11-2.1-15.7c-4.2-7-12.2-16.6,0.3-23.6s16.9,4.5,21,11.6c2.8,4.7,7,7.9,12.8,9.6
					L82.5,35.5z"/>
			</g>
		</mask>
		<polygon id="Fill-23" class="st8" points="36.1,15.1 77.8,-8.5 105.1,37.9 63.4,61.5 		"/>
	</g>
	<path id="Stroke-26" class="st4" d="M75.1,52.6c-0.1,0.5-0.4,1-0.7,1.5c-1.8,3.1-5.8,4.2-9,2.4c-3.1-1.8-4.2-5.7-2.3-8.8
		c0.3-0.5,0.6-0.9,1-1.3l-11.5-6.5c6.2-1.9,10.7-5.3,13.7-10.3c4.4-7.5,9.1-20,22.5-12.4s4.7,17.8,0.3,25.3c-3,5-3.7,10.6-2.3,16.8
		L75.1,52.6z M54.8,40.9l30.5,17.3L54.8,40.9z"/>
	<path id="Stroke-28" class="st4" d="M125.5,80.4c0.4,0.4,0.7,0.8,0.9,1.2c1.7,2.9,0.7,6.6-2.2,8.2c-2.9,1.6-6.7,0.6-8.4-2.3
		c-0.3-0.5-0.5-0.9-0.6-1.4l-10.7,6c1.3-5.7,0.6-11-2.1-15.7c-4.2-7-12.2-16.6,0.3-23.6c12.5-7.1,16.9,4.5,21,11.6
		c2.8,4.7,7,7.9,12.8,9.6L125.5,80.4z M106.4,91l28.5-16.1L106.4,91z"/>
</g>
</svg>
