<?xml version="1.0" encoding="utf-8"?>
<!-- Generator: Adobe Illustrator 23.0.1, SVG Export Plug-In . SVG Version: 6.00 Build 0)  -->
<svg version="1.1" id="Ebene_1" xmlns="http://www.w3.org/2000/svg" xmlns:xlink="http://www.w3.org/1999/xlink" x="0px" y="0px"
	 viewBox="0 0 164 99" style="enable-background:new 0 0 164 99;" xml:space="preserve">
<style type="text/css">
	.st0{opacity:0.5;fill-rule:evenodd;clip-rule:evenodd;fill:#FFFFFF;enable-background:new    ;}
	.st1{fill-rule:evenodd;clip-rule:evenodd;fill:#004DA1;}
	.st2{fill:none;stroke:#FFFFFF;stroke-width:3;}
</style>
<title>icon/desktop_ZWH/content</title>
<desc>Created with Sketch.</desc>
<g>
	<polygon id="Fill-1" class="st0" points="63.9,29.3 90.6,11.7 92.8,11.7 96.7,14.8 103.5,16.9 114.3,15.9 163.9,60.7 163.9,99.7 
		76.9,99.7 53.9,79.7 57.5,75.9 90.6,75.9 89.4,70.3 85.3,67.4 73.4,65.6 	"/>
	<path id="Fill-4" class="st1" d="M92.8,9.8l3-1.1l2,4c9.2-1.1,18.8,4.5,21.8,13.2l1.1,3.2L83.5,41.7l-1.1-3.2
		c-2.4-7-1.2-14.4,2.4-18.8l-0.2-0.4l-18.9,9.9l9.2,34.3c9.5,0.2,17.8,4.7,17.8,10.6v3.7H55.5v-3.7c0-4.7,5.2-8.4,12.3-9.9
		l-8.5-31.6L56.9,34L54,28.5l3.9-2.1l-1.3-5l6.9-1.7l0.8,3.2L91.8,8L92.8,9.8z"/>
	<path id="Path" class="st2" d="M92.9,10l2.9-1.3l2,4c9.2-1.1,18.8,4.5,21.8,13.2l1.1,3.2L83.5,41.7l-1.1-3.2
		c-2.4-7-1.4-15.8,4.4-19.8l-0.3-0.7L65.7,29.3l9.2,34.3c9.5,0.2,17.8,4.7,17.8,10.6v3.7H55.5v-3.7c0-4.7,5.2-8.4,12.3-9.9
		l-8.5-31.6L56.9,34L54,28.5l3.9-2.1l-1.3-5l6.9-1.7l0.8,3.2L91.8,8L92.9,10z"/>
	<polygon id="Fill-8" class="st0" points="86.3,79.4 164,79.4 164,71.8 120.5,29.7 85,41.3 	"/>
</g>
</svg>
