<?xml version="1.0" encoding="utf-8"?>
<!-- Generator: Adobe Illustrator 24.0.1, SVG Export Plug-In . SVG Version: 6.00 Build 0)  -->
<svg version="1.1" id="Ebene_1" xmlns="http://www.w3.org/2000/svg" xmlns:xlink="http://www.w3.org/1999/xlink" x="0px" y="0px"
	 viewBox="0 0 164 99" style="enable-background:new 0 0 164 99;" xml:space="preserve">
<style type="text/css">
	.st0{opacity:0.75;fill-rule:evenodd;clip-rule:evenodd;fill:#004DA1;}
	.st1{fill:none;stroke:#FFFFFF;stroke-width:3;}
	.st2{fill-rule:evenodd;clip-rule:evenodd;fill:#004DA1;stroke:#FFFFFF;stroke-width:3;}
	.st3{fill-rule:evenodd;clip-rule:evenodd;fill:#FFFFFF;}
	.st4{opacity:0.75;fill-rule:evenodd;clip-rule:evenodd;fill:#FFFFFF;}
	.st5{fill-rule:evenodd;clip-rule:evenodd;fill:#7A9CAF;stroke:#FFFFFF;stroke-width:2;}
</style>
<title>icon/desktop_ZWH/content</title>
<desc>Created with Sketch.</desc>
<g id="Group-5" transform="translate(0.000000, 7.000000)">
	<g id="Rectangle">
		<path class="st0" d="M67.6,43.7h39.5c1.9,0,3.4,1.5,3.4,3.4V65c0,1.2-0.6,2.3-1.6,2.9c-7.4,4.6-14.5,6.9-21.5,6.9
			c-7,0-14.2-2.3-21.5-6.9c-1-0.6-1.6-1.7-1.6-2.9V47.1C64.2,45.2,65.7,43.7,67.6,43.7z"/>
		<path class="st1" d="M67.6,43.7h39.5c1.9,0,3.4,1.5,3.4,3.4V65c0,1.2-0.6,2.3-1.6,2.9c-7.4,4.6-14.5,6.9-21.5,6.9
			c-7,0-14.2-2.3-21.5-6.9c-1-0.6-1.6-1.7-1.6-2.9V47.1C64.2,45.2,65.7,43.7,67.6,43.7z"/>
	</g>
	<path id="Rectangle_1_" class="st2" d="M47.6,39.5l38.1-11.3c0.3-0.1,0.6-0.1,1,0l38.1,11.3c0.9,0.3,1.4,1.2,1.1,2.1
		c-0.1,0.5-0.5,0.9-1,1.1L86.8,57.3c-0.4,0.1-0.8,0.1-1.2,0L47.5,42.7c-0.9-0.3-1.3-1.3-1-2.2C46.7,40,47.1,39.6,47.6,39.5z"/>
	<polyline id="Path-5" class="st1" points="85.1,39.8 97.5,51.8 97.5,60.6 	"/>
	<path id="Rectangle_2_" class="st3" d="M97.2,60.1c1.7,0,3.1,1.4,3.1,3.1v3.7l0,0h-6.2v-3.7C94.1,61.4,95.5,60.1,97.2,60.1z"/>
</g>
<g id="Group" transform="translate(18.000000, 18.000000)">
	<g id="Combined-Shape">
		<path class="st4" d="M85.6,23.3v-3.6l0,0c0-5.3-7.2-7.3-7.2-14s5.5-13,13.2-13l0.2,0c7.6,0.1,12.9,6.3,12.9,13
			c0,6.8-7.2,8.7-7.2,14l0,0v3.6H85.6z"/>
		<path class="st1" d="M85.6,23.3v-3.6l0,0c0-5.3-7.2-7.3-7.2-14s5.5-13,13.2-13l0.2,0c7.6,0.1,12.9,6.3,12.9,13
			c0,6.8-7.2,8.7-7.2,14l0,0v3.6H85.6z"/>
	</g>
	<path id="Rectangle_3_" class="st5" d="M87.3,27.1c0,0,8.9,0,8.9,0c0,0.6,0,1.1,0,1.7c0,1.1-0.9,1.9-1.9,1.9h-5.1
		c-1.1,0-1.9-0.9-1.9-1.9C87.3,28.2,87.3,27.7,87.3,27.1z"/>
	<path id="Rectangle_4_" class="st5" d="M85.3,21.4h12.6c0.9,0,1.6,0.7,1.6,1.6l0,0c0,0.9-0.7,1.6-1.6,1.6H85.3
		c-0.9,0-1.6-0.7-1.6-1.6l0,0C83.6,22.1,84.4,21.4,85.3,21.4z"/>
	<path id="Rectangle_5_" class="st5" d="M86.6,24.6h9.9c0.9,0,1.6,0.7,1.6,1.6l0,0c0,0.9-0.7,1.6-1.6,1.6h-9.9
		c-0.9,0-1.6-0.7-1.6-1.6l0,0C85,25.3,85.7,24.6,86.6,24.6z"/>
</g>
</svg>
