<?xml version="1.0" encoding="utf-8"?>
<!-- Generator: Adobe Illustrator 16.0.0, SVG Export Plug-In . SVG Version: 6.00 Build 0)  -->
<!DOCTYPE svg PUBLIC "-//W3C//DTD SVG 1.1//EN" "http://www.w3.org/Graphics/SVG/1.1/DTD/svg11.dtd">
<svg version="1.1" id="Layer_1" xmlns="http://www.w3.org/2000/svg" xmlns:xlink="http://www.w3.org/1999/xlink" x="0px" y="0px"
	 width="32px" height="32px" viewBox="0 0 32 32" enable-background="new 0 0 32 32" xml:space="preserve">
<g>
	<circle fill="#FFFFFF" cx="16.003" cy="16" r="2.317"/>
	<path fill="#FFFFFF" d="M25.017,6.984l-1.965,1.969c1.805,1.806,2.924,4.3,2.924,7.049s-1.119,5.244-2.926,7.048l1.967,1.967
		c2.311-2.311,3.74-5.498,3.74-9.015C28.757,12.482,27.325,9.295,25.017,6.984z"/>
	<path fill="#FFFFFF" d="M8.951,8.952l-1.966-1.97C4.675,9.295,3.244,12.48,3.244,16c0,3.515,1.435,6.705,3.741,9.013l1.966-1.965
		C7.144,21.242,6.026,18.75,6.026,16S7.146,10.757,8.951,8.952z"/>
	<path fill="#FFFFFF" d="M21.472,10.531l-1.967,1.966c0.896,0.896,1.453,2.136,1.453,3.503c0,1.367-0.559,2.603-1.453,3.503
		l1.965,1.965c1.4-1.396,2.27-3.336,2.27-5.468C23.739,13.866,22.87,11.933,21.472,10.531z"/>
	<path fill="#FFFFFF" d="M10.531,10.531C9.132,11.93,8.261,13.866,8.261,16c0,2.132,0.868,4.068,2.27,5.468l1.966-1.967
		c-0.896-0.896-1.45-2.135-1.45-3.501c0-1.367,0.556-2.606,1.45-3.503L10.531,10.531z"/>
</g>
</svg>
