<?xml version="1.0" encoding="utf-8"?>
<!-- Generator: Adobe Illustrator 16.0.0, SVG Export Plug-In . SVG Version: 6.00 Build 0)  -->
<!DOCTYPE svg PUBLIC "-//W3C//DTD SVG 1.1//EN" "http://www.w3.org/Graphics/SVG/1.1/DTD/svg11.dtd">
<svg version="1.1" id="Ebene_1" xmlns="http://www.w3.org/2000/svg" xmlns:xlink="http://www.w3.org/1999/xlink" x="0px" y="0px"
	 width="50px" height="50px" viewBox="0 0 50 50" enable-background="new 0 0 50 50" xml:space="preserve">
<path fill="#FFFFFF" d="M37.182,27.709c-0.908-4.192-2.596-11.958-2.602-11.93c-1.469-2.751-5.371-3.163-6.951,0
	c-0.08,1.545-0.156,3.075-0.236,4.602c-1.287-1.147-3.551-1.109-4.785,0.104c-0.083-1.561-0.163-3.126-0.242-4.706
	c-1.581-3.163-5.48-2.751-6.948,0c-0.006-0.028-1.734,7.917-2.637,12.074c-0.324,0.693-0.506,1.465-0.506,2.281
	c0,0.012,0,0.023,0,0.037c-0.019,0.098-0.03,0.15-0.03,0.15c0.012-0.021,0.022-0.043,0.033-0.064
	c0.067,2.932,2.472,5.299,5.421,5.299c2.993,0,5.423-2.434,5.423-5.422c0-0.354-0.035-0.697-0.097-1.031
	c-0.01-0.172-0.018-0.342-0.026-0.514c1.14-0.941,2.829-0.969,4.003-0.086c-0.016,0.314-0.033,0.623-0.047,0.936
	c-0.029,0.229-0.045,0.457-0.045,0.695c0,2.988,2.432,5.422,5.424,5.422c2.99,0,5.422-2.434,5.422-5.422
	C37.756,29.264,37.551,28.439,37.182,27.709z M17.725,26.383c2.076,0,3.767,1.689,3.767,3.766c0,2.074-1.69,3.766-3.767,3.766
	c-2.075,0-3.765-1.691-3.765-3.766C13.96,28.072,15.65,26.383,17.725,26.383z M32.24,26.383c2.076,0,3.764,1.689,3.764,3.766
	c0,2.074-1.688,3.766-3.764,3.766c-2.074,0-3.768-1.691-3.768-3.766C28.473,28.072,30.166,26.383,32.24,26.383z"/>
</svg>
