<?xml version="1.0" encoding="UTF-8"?>
<svg width="27px" height="23px" viewBox="0 0 27 23" version="1.1" xmlns="http://www.w3.org/2000/svg" xmlns:xlink="http://www.w3.org/1999/xlink">
    <!-- Generator: Sketch 51.3 (57544) - http://www.bohemiancoding.com/sketch -->
    <title>icon_iass</title>
    <desc>Created with Sketch.</desc>
    <defs></defs>
    <g id="Page-1" stroke="none" stroke-width="1" fill="none" fill-rule="evenodd">
        <g id="icon_lass" fill="#FFFFFF">
            <path d="M22.9309401,0 C22.3309401,0 21.8309401,0.1 21.8309401,0.1 C21.8309401,0.1 18.8309401,2.9 15.8309401,5.2 C16.5309401,5.3 17.4309401,5.5 18.5309401,6.8 C19.3309401,7.8 19.3309401,9 19.1309401,9.7 C22.6309401,7.4 25.9309401,6 25.9309401,6 C26.3309401,5.7 26.7309401,4.8 26.7309401,3.8 L26.7309401,3.7 C26.7309401,3 26.5309401,2.3 26.1309401,1.7 C25.3309401,0.3 23.9309401,0 22.9309401,0 M2.03094011,13 C0.730940108,13.6 0.330940108,14.5 0.230940108,15.1 C0.0309401077,15.9 -0.169059892,17.1 0.230940108,18.3 C0.930940108,20.4 2.73094011,21.6 3.93094011,21.2 C4.43094011,21 4.73094011,20.6 5.03094011,20 C5.23094011,19.5 5.23094011,18.4 5.03094011,17.6 C4.63094011,16.3 3.83094011,15.4 2.83094011,15.5 C2.13094011,15.7 1.53094011,16.2 2.03094011,17.5 C2.13094011,17.1 2.13094011,16.5 2.83094011,16.5 C4.23094011,16.5 4.73094011,19.1 3.83094011,19.6 C3.23094011,19.9 2.13094011,19.7 1.43094011,18.1 C0.930940108,16.5 0.930940108,14.8 2.23094011,14.4 C3.93094011,13.8 4.83094011,15.5 5.23094011,16 C5.63094011,16.5 7.23094011,19.1 6.03094011,22.7 C6.03094011,22.7 11.8309401,14.7 17.5309401,10.7 C17.6309401,10 17.5309401,8.8 16.5309401,7.4 C15.8309401,6.5 15.0309401,6.2 14.2309401,6.1 C12.0309401,7.6 3.33094011,12.4 2.03094011,13" id="Fill-1"></path>
        </g>
    </g>
</svg>