<?xml version="1.0" encoding="utf-8"?>
<!-- Generator: Adobe Illustrator 16.0.0, SVG Export Plug-In . SVG Version: 6.00 Build 0)  -->
<!DOCTYPE svg PUBLIC "-//W3C//DTD SVG 1.1//EN" "http://www.w3.org/Graphics/SVG/1.1/DTD/svg11.dtd">
<svg version="1.1" id="Layer_1" xmlns="http://www.w3.org/2000/svg" xmlns:xlink="http://www.w3.org/1999/xlink" x="0px" y="0px"
	 width="32px" height="32px" viewBox="0 0 32 32" enable-background="new 0 0 32 32" xml:space="preserve">
<g>
	<g>
		<path fill="#FFFFFF" d="M28.756,25.922c0,1.559-1.275,2.834-2.834,2.834H6.078c-1.559,0-2.834-1.275-2.834-2.834V6.079
			c0-1.559,1.275-2.834,2.834-2.834h19.844c1.559,0,2.834,1.275,2.834,2.834V25.922z"/>
	</g>
	<g>
		<g id="bar_chart_icon_2_">
			<path fill="#FFFFFF" d="M11.662,22.697h-5.42V12.049h5.42V22.697z M18.707,6.409h-5.419v16.291h5.419V6.409z M25.75,16.813
				h-5.416v5.883h5.416V16.813z"/>
		</g>
		<g>
			<line fill="#FFFFFF" x1="6.076" y1="24.689" x2="25.918" y2="24.689"/>
			<rect x="6.076" y="23.789" fill="#FFFFFF" width="19.842" height="1.803"/>
		</g>
	</g>
</g>
</svg>
