<?xml version="1.0" encoding="utf-8"?>
<!-- Generator: Adobe Illustrator 16.0.0, SVG Export Plug-In . SVG Version: 6.00 Build 0)  -->
<!DOCTYPE svg PUBLIC "-//W3C//DTD SVG 1.1//EN" "http://www.w3.org/Graphics/SVG/1.1/DTD/svg11.dtd">
<svg version="1.1" id="Layer_1" xmlns="http://www.w3.org/2000/svg" xmlns:xlink="http://www.w3.org/1999/xlink" x="0px" y="0px"
	 width="32px" height="32px" viewBox="0 0 32 32" enable-background="new 0 0 32 32" xml:space="preserve">
<g>
	<g>
		<path fill="#FFFFFF" d="M22.301,25.924h6.458V6.07H22.09c-1.211,0.109-1.51,1.133-0.688,1.981c0.422,0.442,0.98,0.812,0.98,1.892
			c0,1.197-1.183,2.729-3.188,2.729c-2.014,0-3.189-1.531-3.189-2.729c0-1.08,0.561-1.447,0.979-1.892
			c0.818-0.852,0.523-1.871-0.688-1.981H9.62v6.709c0,1.451-1.062,1.835-1.928,0.933c-0.422-0.436-0.772-1.016-1.813-1.016
			c-1.156,0-2.64,1.223-2.64,3.307c0,2.088,1.48,3.313,2.64,3.313c1.039,0,1.393-0.58,1.813-1.021
			c0.866-0.897,1.928-0.518,1.928,0.937v6.696h6.459L22.301,25.924L22.301,25.924z"/>
	</g>
</g>
</svg>
