<?xml version="1.0" encoding="utf-8"?>
<!-- Generator: Adobe Illustrator 16.0.0, SVG Export Plug-In . SVG Version: 6.00 Build 0)  -->
<!DOCTYPE svg PUBLIC "-//W3C//DTD SVG 1.1//EN" "http://www.w3.org/Graphics/SVG/1.1/DTD/svg11.dtd">
<svg version="1.1" id="Ebene_1" xmlns="http://www.w3.org/2000/svg" xmlns:xlink="http://www.w3.org/1999/xlink" x="0px" y="0px"
	 width="50px" height="50px" viewBox="0 0 50 50" enable-background="new 0 0 50 50" xml:space="preserve">
<g>
	<g>
		<path fill="#FFFFFF" d="M29.238,22.646c0-0.008-0.006-0.012-0.006-0.018c0-1.028,1.434-1.977,2.221-2.422l-1.317-3.162
			c-0.871,0.242-2.549,0.582-3.278-0.145c-0.731-0.731-0.382-2.427-0.139-3.294l-3.164-1.302c-0.442,0.784-1.395,2.221-2.428,2.221
			c-1.028,0-1.976-1.432-2.424-2.223l-3.162,1.317c0.243,0.878,0.583,2.553-0.144,3.281c-0.729,0.728-2.428,0.386-3.271,0.155
			l-1.299,3.151c0.765,0.438,2.199,1.396,2.199,2.422c0,0.007-0.005,0.009-0.005,0.017c-0.013,1.014-1.399,1.943-2.188,2.392
			l1.319,3.172c0.885-0.243,2.527-0.565,3.248,0.151c0.716,0.719,0.393,2.361,0.153,3.241l3.177,1.31
			c0.456-0.795,1.387-2.178,2.4-2.178c1.017,0,1.954,1.396,2.404,2.188l3.171-1.319c-0.242-0.872-0.564-2.521,0.156-3.242
			c0.723-0.723,2.388-0.391,3.263-0.148l1.307-3.172C30.645,24.597,29.256,23.661,29.238,22.646z M21.127,26.259
			c-1.994,0-3.613-1.618-3.613-3.612c0-1.996,1.619-3.613,3.613-3.613c1.997,0,3.612,1.617,3.612,3.613
			C24.739,24.641,23.124,26.259,21.127,26.259z"/>
	</g>
	<g>
		<path fill="#FFFFFF" d="M38.056,32.51c0-0.002-0.001-0.008-0.001-0.009c-0.002-0.52,0.722-0.998,1.118-1.223l-0.664-1.597
			c-0.442,0.123-1.287,0.293-1.654-0.073c-0.37-0.369-0.194-1.223-0.071-1.661l-1.598-0.66c-0.225,0.397-0.704,1.123-1.223,1.123
			c-0.522,0-1.001-0.723-1.223-1.123l-1.6,0.669c0.124,0.44,0.295,1.284-0.071,1.653c-0.368,0.369-1.226,0.195-1.654,0.078
			L28.76,31.28c0.389,0.222,1.112,0.702,1.112,1.222c0,0.006-0.001,0.006-0.001,0.008c-0.009,0.512-0.71,0.98-1.108,1.209
			l0.669,1.597c0.443-0.121,1.277-0.285,1.638,0.081c0.364,0.358,0.2,1.191,0.081,1.634l1.602,0.663
			c0.228-0.401,0.698-1.102,1.211-1.102s0.986,0.705,1.214,1.105l1.6-0.667c-0.121-0.439-0.283-1.271,0.079-1.634
			c0.364-0.368,1.206-0.201,1.647-0.076l0.657-1.602C38.767,33.494,38.062,33.021,38.056,32.51z M33.963,34.334
			c-1.008,0-1.825-0.817-1.825-1.824s0.817-1.825,1.825-1.825c1.007,0,1.821,0.818,1.821,1.825S34.97,34.334,33.963,34.334z"/>
	</g>
</g>
</svg>
