<?xml version="1.0" encoding="utf-8"?>
<!-- Generator: Adobe Illustrator 16.0.0, SVG Export Plug-In . SVG Version: 6.00 Build 0)  -->
<!DOCTYPE svg PUBLIC "-//W3C//DTD SVG 1.1//EN" "http://www.w3.org/Graphics/SVG/1.1/DTD/svg11.dtd">
<svg version="1.1" id="Ebene_1" xmlns="http://www.w3.org/2000/svg" xmlns:xlink="http://www.w3.org/1999/xlink" x="0px" y="0px"
	 width="50px" height="50px" viewBox="0 0 50 50" enable-background="new 0 0 50 50" xml:space="preserve">
<g>
	<path fill="#FFFFFF" d="M35.115,15.333h-1.361v-1.639c0-0.62-0.502-1.125-1.123-1.125c-0.619,0-1.127,0.505-1.127,1.125v1.639
		h-1.357H19.913h-1.359v-1.642c0-0.624-0.503-1.125-1.125-1.125c-0.62,0-1.125,0.501-1.125,1.125v1.642h-1.359h-2.7v22.228h25.512
		V15.333H35.115z M35.277,35.085H14.722V21.31h20.555V35.085z"/>
	<path fill="#FFFFFF" d="M28.586,31.656l-2.109-3.373l1.988-3.164c0.088-0.141,0.137-0.27,0.148-0.405
		c0.023-0.229-0.084-0.435-0.281-0.554c-0.107-0.065-0.244-0.108-0.406-0.126c-0.219-0.025-0.625-0.025-0.834-0.007
		c-0.133,0.015-0.236,0.04-0.33,0.077c-0.107,0.045-0.193,0.1-0.25,0.165c-0.055,0.053-0.104,0.109-0.143,0.172l-1.3,2.099
		l-1.273-2.075c-0.042-0.076-0.09-0.142-0.148-0.199c-0.081-0.083-0.188-0.145-0.323-0.186c-0.073-0.021-0.177-0.039-0.313-0.053
		c-0.221-0.018-0.665-0.019-0.881,0.007c-0.188,0.019-0.334,0.068-0.454,0.15c-0.179,0.125-0.274,0.317-0.264,0.529
		c0.008,0.128,0.047,0.255,0.138,0.409l2.002,3.2l-2.122,3.331c-0.096,0.146-0.142,0.277-0.149,0.415
		c-0.01,0.211,0.086,0.403,0.256,0.52c0.111,0.077,0.248,0.126,0.428,0.149c0.224,0.031,0.656,0.031,0.848,0.011
		c0.137-0.011,0.247-0.034,0.317-0.058c0.13-0.039,0.236-0.103,0.31-0.175c0.064-0.06,0.113-0.127,0.161-0.201l1.357-2.26
		l1.363,2.253c0.049,0.078,0.104,0.148,0.143,0.187c0.086,0.091,0.197,0.155,0.307,0.187c0.096,0.035,0.211,0.057,0.338,0.065
		c0.107,0.012,0.25,0.016,0.434,0.016c0.191,0,0.346-0.008,0.465-0.024c0.178-0.021,0.316-0.067,0.42-0.132
		c0.188-0.114,0.295-0.305,0.295-0.517C28.721,31.956,28.682,31.818,28.586,31.656z"/>
</g>
</svg>
