<?xml version="1.0" encoding="utf-8"?>
<!-- Generator: Adobe Illustrator 16.0.0, SVG Export Plug-In . SVG Version: 6.00 Build 0)  -->
<!DOCTYPE svg PUBLIC "-//W3C//DTD SVG 1.1//EN" "http://www.w3.org/Graphics/SVG/1.1/DTD/svg11.dtd">
<svg version="1.1" id="Ebene_1" xmlns="http://www.w3.org/2000/svg" xmlns:xlink="http://www.w3.org/1999/xlink" x="0px" y="0px"
	 width="50px" height="50px" viewBox="0 0 50 50" enable-background="new 0 0 50 50" xml:space="preserve">
<path fill="#FFFFFF" d="M37.561,19.916l-0.006-0.254l-0.083-0.238c-1.636-4.588-6.477-7.67-12.05-7.67
	c-7.335,0-13.303,5.967-13.303,13.302c0,7.289,5.892,13.229,13.162,13.307h0.141c2.228-0.024,4.419-0.607,6.351-1.688l-1.503-2.688
	c-1.494,0.836-3.195,1.283-4.918,1.296c-5.604-0.039-10.153-4.613-10.153-10.227c0-5.638,4.588-10.223,10.224-10.223
	c4.111,0,7.795,2.209,9.063,5.4c0.016,0.985,0.067,4.508,0.067,6.936c0,1.151-1.623,1.185-1.808,1.185
	c-0.681,0-1.966-0.272-1.972-1.415l-0.105-1.486l0.019-2.08c0-1.408-0.144-2.376-0.433-2.905c-0.289-0.525-0.788-0.963-1.494-1.301
	c-0.71-0.347-1.79-0.517-3.233-0.517c-1.593,0-2.795,0.282-3.604,0.854c-0.809,0.569-1.378,1.447-1.707,2.629l2.944,0.534
	c0.201-0.569,0.46-0.966,0.783-1.194c0.324-0.228,0.774-0.343,1.353-0.343c0.854,0,1.435,0.133,1.742,0.397
	c0.308,0.269,0.464,0.71,0.464,1.336v0.322c-0.587,0.247-1.639,0.512-3.153,0.798c-1.125,0.215-1.986,0.469-2.583,0.758
	c-0.597,0.288-1.058,0.702-1.39,1.246c-0.332,0.54-0.496,1.16-0.496,1.851c0,1.046,0.364,1.913,1.09,2.6
	c0.727,0.685,1.725,1.027,2.985,1.027c0.717,0,1.389-0.137,2.021-0.402c0.632-0.268,1.223-0.672,1.78-1.214l0.616-0.572
	c0.276,0.432,0.619,0.83,1.065,1.151c0.898,0.649,2.074,1.006,3.308,1.006c2.833,0,4.887-1.793,4.887-4.265
	C37.631,24.301,37.561,19.916,37.561,19.916z M27.501,25.947c0,0.779-0.044,1.301-0.128,1.58c-0.124,0.424-0.382,0.782-0.775,1.075
	c-0.529,0.384-1.089,0.577-1.672,0.577c-0.525,0-0.956-0.167-1.296-0.498c-0.337-0.329-0.506-0.724-0.506-1.179
	c0-0.459,0.211-0.839,0.635-1.142c0.274-0.186,0.867-0.373,1.767-0.565c0.899-0.193,1.562-0.359,1.976-0.494V25.947z"/>
</svg>
