<?xml version="1.0" encoding="utf-8"?>
<!-- Generator: Adobe Illustrator 16.0.0, SVG Export Plug-In . SVG Version: 6.00 Build 0)  -->
<!DOCTYPE svg PUBLIC "-//W3C//DTD SVG 1.1//EN" "http://www.w3.org/Graphics/SVG/1.1/DTD/svg11.dtd">
<svg version="1.1" id="Layer_1" xmlns="http://www.w3.org/2000/svg" xmlns:xlink="http://www.w3.org/1999/xlink" x="0px" y="0px"
	 width="32px" height="32px" viewBox="0 0 32 32" enable-background="new 0 0 32 32" xml:space="preserve">
<g>
	<path fill="#FFFFFF" d="M9.896,10.888v0.021H4.474c-1.016,0-1.839,0.823-1.839,1.839v6.501c0,1.017,0.823,1.841,1.839,1.841h5.423
		v0.021l8.195,4.719V6.17L9.896,10.888z"/>
	<g>
		<path fill="#FFFFFF" d="M25.625,6.978L23.66,8.946c1.805,1.806,2.924,4.3,2.924,7.05s-1.119,5.244-2.926,7.049l1.967,1.967
			c2.311-2.311,3.74-5.498,3.74-9.016C29.365,12.476,27.934,9.288,25.625,6.978z"/>
		<path fill="#FFFFFF" d="M22.08,10.524l-1.967,1.966c0.896,0.896,1.452,2.137,1.452,3.503c0,1.368-0.559,2.604-1.452,3.505
			l1.965,1.965c1.399-1.397,2.27-3.336,2.27-5.47S23.479,11.926,22.08,10.524z"/>
	</g>
</g>
</svg>
