<?xml version="1.0" encoding="utf-8"?>
<!-- Generator: Adobe Illustrator 16.0.0, SVG Export Plug-In . SVG Version: 6.00 Build 0)  -->
<!DOCTYPE svg PUBLIC "-//W3C//DTD SVG 1.1//EN" "http://www.w3.org/Graphics/SVG/1.1/DTD/svg11.dtd">
<svg version="1.1" id="Layer_1" xmlns="http://www.w3.org/2000/svg" xmlns:xlink="http://www.w3.org/1999/xlink" x="0px" y="0px"
	 width="32px" height="32px" viewBox="0 0 32 32" enable-background="new 0 0 32 32" xml:space="preserve">
<g>
	<rect x="8.441" y="15.862" fill="none" width="17.005" height="10.645"/>
	<g>
		<polygon fill="#FFFFFF" points="10.598,19.659 12.069,19.659 11.326,17.658 		"/>
		<path fill="#FFFFFF" d="M14.948,7.643v0.002c-5.235,0-5.056,0-5.573,0c-1.486,0-1.486-2.173,0-2.173c0.854,0,9.107,0,16.067,0
			l0.004-2.392H8.75c-1.734,0-3.146,1.406-3.146,3.148v19.628c0,1.742,1.408,3.15,3.146,3.15h16.696V7.643c0,0-1.729,0-4.186,0
			H14.948z M13.124,22.407l-0.025-0.064l-0.537-1.398h-2.436l-0.532,1.463H7.997l0.054-0.135l2.534-6.509h1.511l0.025,0.063
			l2.635,6.581H13.124z M17.675,20.688H15.05v-1.434h2.625V20.688z M23.61,21.122v1.285h-5.434v-1.309l0.021-0.027l3.253-4.015
			H18.56v-1.293h4.914v1.149l-0.022,0.027l-3.396,4.183H23.61z"/>
	</g>
</g>
</svg>
