<?xml version="1.0" encoding="UTF-8"?>
<svg width="30px" height="29px" viewBox="0 0 30 29" version="1.1" xmlns="http://www.w3.org/2000/svg" xmlns:xlink="http://www.w3.org/1999/xlink">
    <!-- Generator: Sketch 51.3 (57544) - http://www.bohemiancoding.com/sketch -->
    <title>icon_xavc</title>
    <desc>Created with Sketch.</desc>
    <defs></defs>
    <g id="Page-1" stroke="none" stroke-width="1" fill="none" fill-rule="evenodd">
        <g id="icon_xavc" fill="#FFFFFF" fill-rule="nonzero">
            <path d="M3.05544444,2.6067 C3.05544444,1.1671 4.31574444,0 5.87034444,0 C7.42504444,0 8.68524444,1.1671 8.68524444,2.6067 C8.68524444,4.0463 7.42504444,5.2134 5.87034444,5.2134 C4.31574444,5.2134 3.05544444,4.0463 3.05544444,2.6067 Z M0.0240444444,12.3997 C0.0240444444,12.3997 -0.0300555556,7.8924 0.0240444444,6.5347 C0.403044444,5.1771 3.48854444,4.5798 4.78774444,6.3175 C5.54554444,6.3718 6.35754444,6.3175 6.79064444,6.3175 C7.33194444,5.3943 9.98444444,4.5255 11.3377444,6.4261 C11.2836444,7.6752 11.3377444,11.0421 11.3377444,12.3454 C11.3377444,12.3454 9.87614444,12.3997 9.17244444,12.3454 C9.17244444,11.911 9.11834444,10.2275 9.11834444,8.9242 C8.68524444,8.2725 8.41224444,8.9299 8.29414444,9.1177 C8.27784444,10.1725 8.29414444,11.7429 8.29414444,12.4118 L3.11764444,12.4118 C3.11764444,11.7722 3.11764444,9.9232 3.11764444,9 C2.68464444,8.4027 2.35174444,8.5983 2.13524444,9.0328 L2.13524444,12.3997 L0.0240444444,12.3997 Z M12.2319444,18.9008 C12.2319444,17.4612 13.4922444,16.2942 15.0468444,16.2942 C16.6015444,16.2942 17.8617444,17.4612 17.8617444,18.9008 C17.8617444,20.3404 16.6015444,21.5075 15.0468444,21.5075 C13.4922444,21.5075 12.2319444,20.3404 12.2319444,18.9008 Z M9.20054444,28.6938 C9.20054444,28.6938 9.14644444,24.1865 9.20054444,22.8289 C9.57944444,21.4712 12.6650444,20.8739 13.9642444,22.6116 C14.7220444,22.6659 15.5340444,22.6116 15.9671444,22.6116 C16.5084444,21.6885 19.1609444,20.8196 20.5142444,22.7203 C20.4601444,23.9693 20.5142444,27.3362 20.5142444,28.6395 C20.5142444,28.6395 19.0526444,28.6938 18.3489444,28.6395 C18.3489444,28.2051 18.2948444,26.5216 18.2948444,25.2183 C17.8617444,24.5666 17.5887444,25.224 17.4706444,25.4118 C17.4543444,26.4666 17.4706444,28.037 17.4706444,28.7059 L12.2941444,28.7059 C12.2941444,28.0663 12.2941444,26.2174 12.2941444,25.2942 C11.8610444,24.6968 11.5282444,24.8925 11.3117444,25.3269 L11.3117444,28.6938 L9.20054444,28.6938 Z M21.4084444,2.6067 C21.4084444,1.1671 22.6687444,0 24.2233444,0 C25.7779444,0 27.0382444,1.1671 27.0382444,2.6067 C27.0382444,4.0463 25.7779444,5.2134 24.2233444,5.2134 C22.6687444,5.2134 21.4084444,4.0463 21.4084444,2.6067 Z M18.3770444,12.3997 C18.3770444,12.3997 18.3228444,7.8924 18.3770444,6.5347 C18.7559444,5.1771 21.8414444,4.5798 23.1406444,6.3175 C23.8985444,6.3718 24.7105444,6.3175 25.1435444,6.3175 C25.6849444,5.3943 28.3374444,4.5255 29.6907444,6.4261 C29.6365444,7.6752 29.6907444,11.0421 29.6907444,12.3454 C29.6907444,12.3454 28.2291444,12.3997 27.5253444,12.3454 C27.5253444,11.911 27.4712444,10.2275 27.4712444,8.9242 C27.0382444,8.2725 26.7652444,8.9299 26.6470444,9.1177 C26.6308444,10.1725 26.6470444,11.7429 26.6470444,12.4118 L21.4706444,12.4118 C21.4706444,11.7722 21.4706444,9.9232 21.4706444,9 C21.0375444,8.4027 20.7047444,8.5983 20.4881444,9.0328 L20.4881444,12.3997 L18.3770444,12.3997 Z" id="path-1"></path>
        </g>
    </g>
</svg>