<?xml version="1.0" encoding="utf-8"?>
<!-- Generator: Adobe Illustrator 16.0.0, SVG Export Plug-In . SVG Version: 6.00 Build 0)  -->
<!DOCTYPE svg PUBLIC "-//W3C//DTD SVG 1.1//EN" "http://www.w3.org/Graphics/SVG/1.1/DTD/svg11.dtd">
<svg version="1.1" id="Ebene_1" xmlns="http://www.w3.org/2000/svg" xmlns:xlink="http://www.w3.org/1999/xlink" x="0px" y="0px"
	 width="50px" height="50px" viewBox="0 0 50 50" enable-background="new 0 0 50 50" xml:space="preserve">
<g>
	<g>
		<g>
			<g>
				<defs>
					<path id="SVGID_1_" d="M17.558,17.978c-2.172,0-3.934,1.731-3.934,3.86c0,2.138,1.762,3.867,3.934,3.867
						c2.168,0,3.93-1.729,3.93-3.867C21.487,19.709,19.726,17.978,17.558,17.978z"/>
				</defs>
				<use xlink:href="#SVGID_1_"  overflow="visible" fill="#FFFFFF"/>
				<clipPath id="SVGID_2_">
					<use xlink:href="#SVGID_1_"  overflow="visible"/>
				</clipPath>
			</g>
			<path fill="#FFFFFF" d="M21.385,26.378c-0.114,0-0.23,0.007-0.339,0.02c-0.109-0.011-0.223-0.02-0.334-0.02h-6.416
				c-0.104,0-0.204,0.002-0.305,0.009c-0.086-0.007-0.173-0.009-0.264-0.009c-1.602,0-2.9,1.276-2.9,2.852v2.793h13.459v-2.793
				C24.286,27.654,22.987,26.378,21.385,26.378z"/>
		</g>
	</g>
	<g>
		<g>
			<g>
				<defs>
					<path id="SVGID_3_" d="M32.446,17.978c-2.173,0-3.932,1.731-3.932,3.86c0,2.138,1.759,3.867,3.932,3.867
						c2.168,0,3.931-1.729,3.931-3.867C36.377,19.709,34.614,17.978,32.446,17.978z"/>
				</defs>
				<use xlink:href="#SVGID_3_"  overflow="visible" fill="#FFFFFF"/>
				<clipPath id="SVGID_4_">
					<use xlink:href="#SVGID_3_"  overflow="visible"/>
				</clipPath>
			</g>
			<path fill="#FFFFFF" d="M36.272,26.378c-0.112,0-0.229,0.007-0.339,0.02c-0.108-0.011-0.221-0.02-0.333-0.02h-6.417
				c-0.103,0-0.202,0.002-0.304,0.009c-0.088-0.007-0.176-0.009-0.265-0.009c-1.601,0-2.9,1.276-2.9,2.852v2.793h13.458v-2.793
				C39.173,27.654,37.876,26.378,36.272,26.378z"/>
		</g>
	</g>
</g>
</svg>
