<?xml version="1.0" encoding="UTF-8"?>
<svg width="118px" height="99px" viewBox="0 0 118 99" version="1.1" xmlns="http://www.w3.org/2000/svg" xmlns:xlink="http://www.w3.org/1999/xlink">
    <!-- Generator: Sketch 51.3 (57544) - http://www.bohemiancoding.com/sketch -->
    <title>icon/desktop_ZWH/lock</title>
    <desc>Created with Sketch.</desc>
    <defs>
        <path d="M20.674749,45.2784348 C19.011329,44.4203986 17.8725512,42.6742772 17.8725512,40.6597702 C17.8725512,37.7967769 20.1726268,35.4758622 23.0099139,35.4758622 C25.8472009,35.4758622 28.1472765,37.7967769 28.1472765,40.6597702 C28.1472765,42.6742772 27.0084988,44.4203986 25.3450787,45.2784348 L25.3450787,53.3839082 L20.674749,53.3839082 L20.674749,45.2784348 Z M8.5318919,24.1655174 L8.5318919,15.2184953 C8.5318919,7.14619296 15.0170294,0.602298975 23.0168519,0.602298975 C31.0166745,0.602298975 37.501812,7.14619296 37.501812,15.2184953 L37.501812,24.1655174 L38.8120947,24.1655174 C42.5825878,24.1655174 45.6391764,28.2271181 45.6391764,33.2373564 L45.6391764,54.404981 C45.6391764,59.4152193 42.5825878,63.47682 38.8120947,63.47682 L6.95238018,63.47682 C3.18188708,63.47682 0.125298498,59.4152193 0.125298498,54.404981 L0.125298498,33.2373564 C0.125298498,28.2271181 3.18188708,24.1655174 6.95238018,24.1655174 L8.5318919,24.1655174 Z M13.3602119,24.1655174 L32.6734919,24.1655174 L32.6734919,15.2184953 C32.6734919,9.8369604 28.3500669,5.47436441 23.0168519,5.47436441 C17.6836369,5.47436441 13.3602119,9.8369604 13.3602119,15.2184953 L13.3602119,24.1655174 Z M9.60606773,28.878161 C6.43346495,28.878161 3.86156223,32.0917352 3.86156223,36.0558799 L3.86156223,52.8038905 C3.86156223,56.7680351 6.43346495,59.9816093 9.60606773,59.9816093 L36.41376,59.9816093 C39.5863628,59.9816093 42.1582655,56.7680351 42.1582655,52.8038905 L42.1582655,36.0558799 C42.1582655,32.0917352 39.5863628,28.878161 36.41376,28.878161 L9.60606773,28.878161 Z" id="path-1"></path>
    </defs>
    <g id="icon/desktop_ZWH/lock" stroke="none" stroke-width="1" fill="none" fill-rule="evenodd">
        <path d="M31.2792806,19.9001775 L32.7446289,16.8173828 L118.025391,78 L118.025391,99 L35.6142578,99 L4.79785156,75.6117155 L6.44703124,72.142177 L6.44703124,75.1425413 L45.8127221,75.1425413 L45.8127221,46.045977 L31.4605587,46.045977 L37.3772169,45.3848879 L37.3772169,37.2350355 L37.3772169,32.0487658 L37.3772169,26.8624961 L35.1669115,23.1580177 L31.2792806,19.9001775 Z" id="Combined-Shape" fill-opacity="0.5" fill="#FFFFFF"></path>
        <polygon id="Path-4" fill="#004DA1" fill-rule="nonzero" points="7.66666667 42 5 43.8918919 5 72.2702703 6.33333333 76.0540541 41.6666667 77 45 73.2162162 44.3333333 45.7837838 42.3333333 42"></polygon>
        <g id="lock" transform="translate(2.000000, 14.000000)">
            <polygon id="Combined-Shape" fill-opacity="0.5" fill="#FFFFFF" points="26.210743 36.612156 91.1679658 85 65.0900059 85 20.688443 53.3930103"></polygon>
            <mask id="mask-2" fill="white">
                <use xlink:href="#path-1"></use>
            </mask>
            <use id="Combined-Shape" fill="#FFFFFF" xlink:href="#path-1"></use>
        </g>
    </g>
</svg>