<?xml version="1.0" encoding="utf-8"?>
<!-- Generator: Adobe Illustrator 22.0.1, SVG Export Plug-In . SVG Version: 6.00 Build 0)  -->
<svg version="1.1" xmlns="http://www.w3.org/2000/svg" xmlns:xlink="http://www.w3.org/1999/xlink" x="0px" y="0px"
	 viewBox="0 0 32 32" style="enable-background:new 0 0 32 32;" xml:space="preserve">
<style type="text/css">
	.st0{fill:none;}
	.st1{fill:none;stroke:#FFFFFF;stroke-miterlimit:10;}
	.st2{clip-path:url(#SVGID_2_);fill:#FFFFFF;}
	.st3{clip-path:url(#SVGID_4_);fill:#FFFFFF;}
	.st4{clip-path:url(#SVGID_6_);fill:#FFFFFF;}
	.st5{fill:#FFFFFF;}
	.st6{fill:none;stroke:url(#SVGID_7_);stroke-miterlimit:10;}
</style>
<g id="Ebene_2">
</g>
<g id="Layer_1">
	<rect x="2" y="0.2" class="st0" width="30.8" height="30.8"/>
	<path class="st1" d="M6.3,4.1c0,0-0.5,0-0.5,0.5v20.2c0,0,0,0.5,0.5,0.5h16.3c0,0,0.5,0,0.5-0.5V4.6c0,0,0-0.5-0.5-0.5H6.3z"/>
	<g>
		<defs>
			<rect id="SVGID_1_" x="9.7" y="7.9" width="8.6" height="1.9"/>
		</defs>
		<use xlink:href="#SVGID_1_"  style="overflow:visible;fill:#FFFFFF;"/>
		<clipPath id="SVGID_2_">
			<use xlink:href="#SVGID_1_"  style="overflow:visible;"/>
		</clipPath>
		<rect x="9.7" y="7.9" class="st2" width="8.6" height="1.9"/>
	</g>
	<g>
		<defs>
			<rect id="SVGID_3_" x="9.7" y="11.8" width="6.7" height="1.9"/>
		</defs>
		<use xlink:href="#SVGID_3_"  style="overflow:visible;fill:#FFFFFF;"/>
		<clipPath id="SVGID_4_">
			<use xlink:href="#SVGID_3_"  style="overflow:visible;"/>
		</clipPath>
		<rect x="9.7" y="11.8" class="st3" width="6.7" height="1.9"/>
	</g>
	<g>
		<defs>
			<rect id="SVGID_5_" x="9.7" y="15.6" width="3.8" height="1.9"/>
		</defs>
		<use xlink:href="#SVGID_5_"  style="overflow:visible;fill:#FFFFFF;"/>
		<clipPath id="SVGID_6_">
			<use xlink:href="#SVGID_5_"  style="overflow:visible;"/>
		</clipPath>
		<rect x="9.7" y="15.6" class="st4" width="3.8" height="1.9"/>
	</g>
	<path class="st5" d="M15.5,20.4c0,3.7,3,6.7,6.7,6.7s6.7-3,6.7-6.7c0-3.7-3-6.7-6.7-6.7S15.5,16.7,15.5,20.4"/>
	<linearGradient id="SVGID_7_" gradientUnits="userSpaceOnUse" x1="21.6797" y1="19.6933" x2="26.247" y2="19.6933">
		<stop  offset="0" style="stop-color:#536387"/>
		<stop  offset="1.980000e-02" style="stop-color:#536387"/>
		<stop  offset="1" style="stop-color:#6276A2"/>
	</linearGradient>
	<polyline class="st6" points="22.2,16.6 22.2,20.4 26,22.4 	"/>
</g>
</svg>
