<?xml version="1.0" encoding="utf-8"?>
<!-- Generator: Adobe Illustrator 22.0.0, SVG Export Plug-In . SVG Version: 6.00 Build 0)  -->
<svg version="1.1" id="Layer_1" xmlns="http://www.w3.org/2000/svg" xmlns:xlink="http://www.w3.org/1999/xlink" x="0px" y="0px"
	 viewBox="0 0 36.5 34.6" style="enable-background:new 0 0 36.5 34.6;" xml:space="preserve">
<style type="text/css">
	.st0{fill:none;stroke:url(#SVGID_1_);stroke-miterlimit:10;}
	.st1{fill:none;stroke:url(#SVGID_2_);stroke-miterlimit:10;}
	.st2{fill:none;stroke:#7C655E;stroke-miterlimit:10;}
	.st3{fill:none;stroke:#DCB496;stroke-miterlimit:10;}
	.st4{fill:none;stroke:url(#SVGID_3_);stroke-miterlimit:10;}
	.st5{fill:none;stroke:url(#SVGID_4_);stroke-miterlimit:10;}
</style>
<linearGradient id="SVGID_1_" gradientUnits="userSpaceOnUse" x1="2.5833" y1="21.8644" x2="12.5833" y2="21.8644">
	<stop  offset="0" style="stop-color:#4B823C"/>
	<stop  offset="1.983430e-02" style="stop-color:#4B823C"/>
	<stop  offset="1" style="stop-color:#6EA03C"/>
</linearGradient>
<path class="st0" d="M7.6,18.8c-0.9,0-1.7-0.3-2.3-0.7C4,18.6,3.1,19.8,3.1,21v4.8h9V21c0-1.2-0.9-2.3-2.2-2.9
	C9.3,18.5,8.5,18.8,7.6,18.8"/>
<linearGradient id="SVGID_2_" gradientUnits="userSpaceOnUse" x1="3.9833" y1="13.95" x2="11.1833" y2="13.95">
	<stop  offset="0" style="stop-color:#DCB496"/>
	<stop  offset="1.983430e-02" style="stop-color:#DCB496"/>
	<stop  offset="1" style="stop-color:#EBC3A5"/>
</linearGradient>
<path class="st1" d="M4.5,13.9c0,1.9,1.4,3.4,3.1,3.4s3.1-1.5,3.1-3.4s-1.4-3.4-3.1-3.4S4.5,12.1,4.5,13.9"/>
<path class="st2" d="M28.6,17.4c1.7,0,3.1-1.5,3.1-3.4s-1.4-3.4-3.1-3.4s-3.1,1.5-3.1,3.4S26.9,17.4,28.6,17.4"/>
<path class="st3" d="M18.1,12.9c1.7,0,3.1-1.5,3.1-3.4s-1.4-3.4-3.1-3.4S15,7.6,15,9.5S16.4,12.9,18.1,12.9"/>
<linearGradient id="SVGID_3_" gradientUnits="userSpaceOnUse" x1="13.0833" y1="17.3644" x2="23.0833" y2="17.3644">
	<stop  offset="0" style="stop-color:#4C6586"/>
	<stop  offset="1.983430e-02" style="stop-color:#4C6586"/>
	<stop  offset="1" style="stop-color:#5A78A0"/>
</linearGradient>
<path class="st4" d="M18.1,14.2c-0.9,0-1.7-0.3-2.3-0.7c-1.3,0.6-2.2,1.7-2.2,2.9v4.8h9v-4.8c0-1.2-0.9-2.3-2.2-2.9
	C19.8,13.9,19,14.2,18.1,14.2"/>
<linearGradient id="SVGID_4_" gradientUnits="userSpaceOnUse" x1="23.5833" y1="21.8644" x2="33.5833" y2="21.8644">
	<stop  offset="0" style="stop-color:#FF8F1E"/>
	<stop  offset="1.000000e-02" style="stop-color:#FF8F1E"/>
	<stop  offset="1" style="stop-color:#E6700F"/>
</linearGradient>
<path class="st5" d="M28.6,18.8c-0.9,0-1.7-0.3-2.3-0.7c-1.3,0.6-2.2,1.7-2.2,2.9v4.8h9V21c0-1.2-0.9-2.3-2.2-2.9
	C30.3,18.5,29.5,18.8,28.6,18.8"/>
</svg>
