<?xml version="1.0" encoding="utf-8"?>
<!-- Generator: Adobe Illustrator 22.1.0, SVG Export Plug-In . SVG Version: 6.00 Build 0)  -->
<svg version="1.1" id="Ebene_1" xmlns="http://www.w3.org/2000/svg" xmlns:xlink="http://www.w3.org/1999/xlink" x="0px" y="0px"
	 viewBox="0 0 250 250" style="enable-background:new 0 0 250 250;" xml:space="preserve">
<style type="text/css">
	.st0{opacity:0.74;}
	.st1{fill:#FFFFFF;}
</style>
<g class="st0">
	<g>
		<path class="st1" d="M187.1,214.6c-0.8,0-1.7-0.3-2.4-0.8L129,173.3l-55.7,40.5c-1.4,1-3.3,1-4.7,0c-1.4-1-2-2.9-1.5-4.5
			l21.3-65.5l-55.7-40.5c-1.4-1-2-2.9-1.5-4.5c0.5-1.7,2.1-2.8,3.8-2.8h68.9l21.3-65.5c0.5-1.7,2.1-2.8,3.8-2.8l0,0
			c1.7,0,3.3,1.1,3.8,2.8l21.3,65.5H223c1.7,0,3.3,1.1,3.8,2.8c0.5,1.7,0,3.5-1.5,4.5l-55.7,40.5l21.3,65.5c0.5,1.7-0.1,3.5-1.5,4.5
			C188.7,214.3,187.9,214.6,187.1,214.6L187.1,214.6z M47.5,104.1l48,34.9c1.4,1,2,2.8,1.5,4.5L78.6,200l48-34.9c1.4-1,3.3-1,4.7,0
			l48,34.9l-18.3-56.4c-0.5-1.7,0-3.5,1.5-4.5l48-34.9h-59.4c-1.8,0-3.3-1.1-3.8-2.8L129,44.9l-18.3,56.4c-0.5,1.7-2.1,2.8-3.8,2.8
			H47.5L47.5,104.1z"/>
	</g>
</g>
</svg>
