<?xml version="1.0" encoding="utf-8"?>
<!-- Generator: Adobe Illustrator 21.1.0, SVG Export Plug-In . SVG Version: 6.00 Build 0)  -->
<svg version="1.1" id="Ebene_1" xmlns="http://www.w3.org/2000/svg" xmlns:xlink="http://www.w3.org/1999/xlink" x="0px" y="0px"
	 viewBox="0 0 212.6 223.3" style="enable-background:new 0 0 212.6 223.3;" xml:space="preserve">
<style type="text/css">
	.st0{stroke:#000000;stroke-miterlimit:10;}
	.st1{fill:#FFFFFF;}
	.st2{fill:none;stroke:#FFFFFF;stroke-miterlimit:10;}
	.st3{fill:#FFFFFF;stroke:#FFFFFF;stroke-miterlimit:10;}
</style>
<path class="st0" d="M172.6,43.2"/>
<circle class="st1" cx="167.7" cy="62.9" r="3.9"/>
<g>
	<g>
		<g>
			<path class="st1" d="M162.3,195.6H12.5c-6.6,0-12-5.4-12-12v-81.8c0-6.6,5.4-12,12-12h149.8c6.6,0,12,5.4,12,12v81.8
				C174.3,190.2,168.9,195.6,162.3,195.6z"/>
		</g>
		<g>
			<path class="st2" d="M162.3,195.6H12.5c-6.6,0-12-5.4-12-12v-81.8c0-6.6,5.4-12,12-12h149.8c6.6,0,12,5.4,12,12v81.8
				C174.3,190.2,168.9,195.6,162.3,195.6z"/>
		</g>
	</g>
	<path class="st3" d="M13,219.3H6c-3,0-5.5-2.5-5.5-5.5l0-71c0-3,2.5-5.5,5.5-5.5h7c3,0,5.5,2.5,5.5,5.5v71
		C18.5,216.9,16.1,219.3,13,219.3z"/>
	<path class="st3" d="M59.1,220.5l-9.3,2.1c-3,0.7-5.9-1.2-6.6-4.2l-16.1-71.3c-0.7-3,1.2-5.9,4.2-6.6l9.3-2.1
		c3-0.7,5.9,1.2,6.6,4.2L63.2,214C63.9,216.9,62,219.9,59.1,220.5z"/>
	<path class="st3" d="M136,219.3h-7c-3,0-5.5-2.5-5.5-5.5V156c0-3,2.5-5.5,5.5-5.5h7c3,0,5.5,2.5,5.5,5.5v57.8
		C141.5,216.9,139,219.3,136,219.3z"/>
	<path class="st3" d="M168.8,219.3h-7c-3,0-5.5-2.5-5.5-5.5v-85.7c0-3,2.5-5.5,5.5-5.5h7c3,0,5.5,2.5,5.5,5.5v85.7
		C174.3,216.9,171.8,219.3,168.8,219.3z"/>
	<path class="st3" d="M182.2,55.5c-0.8-2.1-1.8-4.2-3.2-6.1c-1.6-2.3-3.7-4.3-6.1-5.9l-5.1-3.5c-11.2-7.6-26.7-4.6-34.4,6.7
		L99.1,97.5c-7.6,11.3-4.7,26.8,6.5,34.4l5.1,3.5c11.2,7.6,26.7,4.6,34.4-6.7l21.3-31.5l30.8,14l14.8-18L182.2,55.5z M164.4,76.7
		c-7.2,0-13.1-5.9-13.1-13.1s5.9-13.1,13.1-13.1c7.2,0,13.1,5.9,13.1,13.1S171.7,76.7,164.4,76.7z"/>
	<g>
		<path class="st3" d="M60.7,86.1c-3.1-20.9-21.2-37-43-37v-9.8c27.2,0,49.7,20.5,52.9,46.9"/>
		<path class="st3" d="M92,57.4C78.8,29.6,50.5,10.3,17.7,10.3V0.5C52.2,0.5,82.3,19.9,98,48"/>
		<path class="st3" d="M85.5,66.5C75,39.2,48.6,19.8,17.7,19.8v9.8c29.4,0,53.9,22.1,60.6,49.5l1.8-4.1c1.3-2.1,2.7-4.3,4-6.4
			L85.5,66.5z"/>
	</g>
	<path class="st3" d="M100.5,86.6l30-43.4c5.4-8,13.8-12.5,21.2-12.3c8.6,0.2,17,3,24.2,8.1l1.6,1.6l6.6-27.9h-45.9l0.4,0.1
		c-7.4-0.2-15.8,4.3-21.2,12.3L83.5,75.2c-2.5,3.8-3.6,7.4-4.3,11.3H100.5z"/>
</g>
</svg>
