<?xml version="1.0" encoding="utf-8"?>
<!-- Generator: Adobe Illustrator 21.1.0, SVG Export Plug-In . SVG Version: 6.00 Build 0)  -->
<svg version="1.1" id="Ebene_1" xmlns="http://www.w3.org/2000/svg" xmlns:xlink="http://www.w3.org/1999/xlink" x="0px" y="0px"
	 viewBox="0 0 286 286" style="enable-background:new 0 0 286 286;" xml:space="preserve">
<style type="text/css">
	.st0{fill:#FFFFFF;}
	.st1{fill:none;stroke:#FFFFFF;stroke-miterlimit:10;}
	.st2{fill:#FFFFFF;stroke:#FFFFFF;stroke-miterlimit:10;}
	.st3{stroke:#000000;stroke-miterlimit:10;}
</style>
<g>
	<g>
		<path class="st0" d="M196.8,207.5H81.4c-6.6,0-12-5.4-12-12v-60.8c0-6.6,5.4-12,12-12h115.4c6.6,0,12,5.4,12,12v60.8
			C208.8,202.1,203.4,207.5,196.8,207.5z"/>
	</g>
	<g>
		<path class="st1" d="M196.8,207.5H81.4c-6.6,0-12-5.4-12-12v-60.8c0-6.6,5.4-12,12-12h115.4c6.6,0,12,5.4,12,12v60.8
			C208.8,202.1,203.4,207.5,196.8,207.5z"/>
	</g>
</g>
<path class="st2" d="M78.4,226.5h-3.5c-3,0-5.5-2.5-5.5-5.5v-54.7c0-3,2.5-5.5,5.5-5.5h3.5c3,0,5.5,2.5,5.5,5.5V221
	C83.9,224,81.4,226.5,78.4,226.5z"/>
<path class="st2" d="M115.3,227.7l-5.3,1.2c-3,0.7-5.9-1.2-6.6-4.2l-12.4-55c-0.7-3,1.2-5.9,4.2-6.6l5.3-1.2c3-0.7,5.9,1.2,6.6,4.2
	l12.4,55C120.2,224.1,118.3,227.1,115.3,227.7z"/>
<path class="st2" d="M177,226.5h-3.5c-3,0-5.5-2.5-5.5-5.5v-44.2c0-3,2.5-5.5,5.5-5.5h3.5c3,0,5.5,2.5,5.5,5.5V221
	C182.5,224,180,226.5,177,226.5z"/>
<path class="st2" d="M203.3,226.5h-3.5c-3,0-5.5-2.5-5.5-5.5v-66.6c0-3,2.5-5.5,5.5-5.5h3.5c3,0,5.5,2.5,5.5,5.5V221
	C208.8,224,206.3,226.5,203.3,226.5z"/>
<path class="st3" d="M201.5,77.8"/>
<path class="st2" d="M216.5,95.5c-1-2-2.8-3.7-3.9-5.2c-1.3-1.8-2.9-3.4-4.9-4.7l-4.1-2.8c-9-6.1-21.4-3.7-27.6,5.4l-27.5,40.6
	c-6.1,9.1-3.8,21.5,5.2,27.6l4.1,2.8c9,6.1,21.4,3.7,27.6-5.4l17.1-25.2l24.7,11.2l11.8-14.5L216.5,95.5z M200.9,112.1
	c-5.8,0-10.5-4.7-10.5-10.5s4.7-10.5,10.5-10.5c5.8,0,10.5,4.7,10.5,10.5S206.7,112.1,200.9,112.1z"/>
<circle class="st0" cx="203.5" cy="101.6" r="3.2"/>
<g>
	<path class="st2" d="M117.7,119.6c-2.5-16.8-17-29.7-34.5-29.7V82c21.8,0,39.9,16.4,42.4,37.6"/>
	<path class="st2" d="M142.8,96.7c-10.6-22.3-33.3-37.8-59.6-37.8V51c27.7,0,51.8,15.5,64.4,38.1"/>
	<path class="st2" d="M137.6,103.9c-8.4-21.9-29.6-37.4-54.4-37.4v7.9c23.6,0,43.2,17.7,48.6,39.7l1.4-3.3c1.1-1.7,2.1-3.4,3.2-5.1
		L137.6,103.9z"/>
</g>
<path class="st2" d="M149.6,120l24.1-34.8c4.4-6.4,11-10.1,17-9.9c6.9,0.1,13.6,2.4,19.4,6.5l1.3,1.3l5.3-22.4h-36.8l0.3,0.1
	c-6-0.2-12.6,3.4-17,9.9L136,110.9c-2,3-2.9,5.9-3.5,9.1H149.6z"/>
</svg>
