<?xml version="1.0" encoding="utf-8"?>
<!-- Generator: Adobe Illustrator 22.1.0, SVG Export Plug-In . SVG Version: 6.00 Build 0)  -->
<svg version="1.1" id="Ebene_1" xmlns="http://www.w3.org/2000/svg" xmlns:xlink="http://www.w3.org/1999/xlink" x="0px" y="0px"
	 viewBox="0 0 250 250" style="enable-background:new 0 0 250 250;" xml:space="preserve">
<style type="text/css">
	.st0{opacity:0.74;}
	.st1{fill:#FFFFFF;}
</style>
<g class="st0">
	<g>
		<path class="st1" d="M129,196c-48.7,0-91.2-29.8-105.7-74.3c-0.3-1-0.3-2,0-3c14.5-44.4,57-74.3,105.7-74.3
			c48.7,0,91.2,29.9,105.7,74.3c0.3,1,0.3,2,0,3C220.3,166.2,177.8,196,129,196L129,196z M33,120.2c13.7,39.6,52.1,66.1,96.1,66.1
			c44,0,82.4-26.5,96.1-66.1c-13.7-39.6-52.1-66.1-96.1-66.1C85,54.1,46.6,80.6,33,120.2L33,120.2z"/>
	</g>
	<g>
		<path class="st1" d="M129,167.6c-26.1,0-47.3-21.2-47.3-47.3c0-2.7,2.2-4.8,4.8-4.8c2.7,0,4.8,2.2,4.8,4.8
			c0,20.8,16.9,37.7,37.7,37.7c20.8,0,37.7-16.9,37.7-37.7c0-20.8-16.9-37.7-37.7-37.7c-2.7,0-4.8-2.2-4.8-4.8
			c0-2.7,2.2-4.8,4.8-4.8c26.1,0,47.3,21.2,47.3,47.3C176.3,146.3,155.1,167.6,129,167.6L129,167.6z"/>
	</g>
</g>
</svg>
