<?xml version="1.0" encoding="utf-8"?>
<!-- Generator: Adobe Illustrator 23.0.2, SVG Export Plug-In . SVG Version: 6.00 Build 0)  -->
<svg version="1.1" xmlns="http://www.w3.org/2000/svg" xmlns:xlink="http://www.w3.org/1999/xlink" x="0px" y="0px"
	 viewBox="0 0 180.4 110" style="enable-background:new 0 0 180.4 110;" xml:space="preserve">
<style type="text/css">
	.st0{opacity:0.5;fill-rule:evenodd;clip-rule:evenodd;fill:#FFFFFF;enable-background:new    ;}
	.st1{opacity:0.53;fill-rule:evenodd;clip-rule:evenodd;fill:#FFFFFF;enable-background:new    ;}
	.st2{fill:#004DA1;stroke:#FFFFFF;stroke-width:3;stroke-miterlimit:10;}
</style>
<g id="Ebene_1">
	<title>icon/desktop_ZWH/stars</title>
	<desc>Created with Sketch.</desc>
	<path id="Fill-1_2_" class="st0" d="M128.8,39.4"/>
	<polygon id="Fill-1_3_" class="st0" points="128.8,39.4 180.4,78.6 180.4,110 110.1,110 67.6,79.4 122.1,68.3 122.5,39.5 	"/>
	<polyline class="st1" points="130.2,81 173.2,110 108.5,110 67.6,81.4 	"/>
</g>
<g id="Ebene_2">
	<path class="st2" d="M70.3,75.9c-1.3,0-1.3,1.3-1.3,1.3v2.6c0,1.3,1.3,1.3,1.3,1.3H130c1.3,0,1.3-1.3,1.3-1.3v-2.6
		c0-1.3-1.3-1.3-1.3-1.3H70.3z"/>
	<path class="st2" d="M113.1,42.1c0,0-1.3,0-1.3,1.3v24.4c0,0,0,0,0,0.3h-6.5c0,0,0,0,0-0.3V43.4c0,0,0-1.3-1.3-1.3h-7.8
		c0,0-1.3,0-1.3,1.3v24.4c0,0,0,0,0,0.3h-6.5c0,0,0,0,0-0.3V43.4c0,0,0-1.3-1.3-1.3h-7.8c0,0-1.3,0-1.3,1.3v24.4c0,0,0,0,0,0.3h-3.9
		c-1.3,0-1.3,1.3-1.3,1.3V72c0,1.3,1.3,1.3,1.3,1.3h51.9c1.3,0,1.3-1.3,1.3-1.3v-2.6c0-1.3-1.3-1.3-1.3-1.3h-3.9c0,0,0,0,0-0.3V43.4
		c0,0,0-1.3-1.3-1.3H113.1z"/>
	<path class="st2" d="M100.2,19.6c-1.3,0-2.1,0.5-2.1,0.5L71.1,38c-2.1,1.6,0.5,1.6,0.5,1.6h57.1c2.6,0,0.5-1.6,0.5-1.6l-27-17.6
		C101.7,19.8,100.9,19.6,100.2,19.6C100.4,19.6,100.2,19.6,100.2,19.6z"/>
</g>
</svg>
