<?xml version="1.0" encoding="utf-8"?>
<!-- Generator: Adobe Illustrator 23.0.2, SVG Export Plug-In . SVG Version: 6.00 Build 0)  -->
<svg version="1.1" id="Ebene_1" xmlns="http://www.w3.org/2000/svg" xmlns:xlink="http://www.w3.org/1999/xlink" x="0px" y="0px"
	 viewBox="0 0 180.4 110" style="enable-background:new 0 0 180.4 110;" xml:space="preserve">
<style type="text/css">
	.st0{opacity:0.5;clip-path:url(#SVGID_2_);fill:#FFFFFF;}
	.st1{opacity:0.5;clip-path:url(#SVGID_4_);fill:#FFFFFF;}
	.st2{opacity:0.5;clip-path:url(#SVGID_6_);fill:#FFFFFF;}
	.st3{clip-path:url(#SVGID_8_);enable-background:new    ;}
	.st4{clip-path:url(#SVGID_10_);}
	.st5{clip-path:url(#SVGID_12_);fill:#FFFFFF;}
	.st6{clip-path:url(#SVGID_14_);enable-background:new    ;}
	.st7{clip-path:url(#SVGID_16_);}
	.st8{clip-path:url(#SVGID_18_);fill:#FFFFFF;}
	.st9{clip-path:url(#SVGID_20_);enable-background:new    ;}
	.st10{clip-path:url(#SVGID_22_);}
	.st11{clip-path:url(#SVGID_24_);fill:#FFFFFF;}
	.st12{clip-path:url(#SVGID_26_);enable-background:new    ;}
	.st13{clip-path:url(#SVGID_28_);}
	.st14{clip-path:url(#SVGID_30_);}
	.st15{clip-path:url(#SVGID_32_);fill:#004D9F;}
	.st16{clip-path:url(#SVGID_34_);}
	.st17{clip-path:url(#SVGID_36_);fill:#FEFEFE;}
	.st18{clip-path:url(#SVGID_38_);enable-background:new    ;}
	.st19{clip-path:url(#SVGID_40_);}
	.st20{clip-path:url(#SVGID_42_);fill:#FEFEFE;}
	.st21{clip-path:url(#SVGID_44_);}
	.st22{clip-path:url(#SVGID_46_);fill:#FFFFFF;}
	.st23{clip-path:url(#SVGID_48_);enable-background:new    ;}
	.st24{clip-path:url(#SVGID_50_);}
	.st25{clip-path:url(#SVGID_52_);fill:#FFFFFF;}
	.st26{clip-path:url(#SVGID_54_);}
	.st27{clip-path:url(#SVGID_56_);fill:#B0D0C5;}
	.st28{clip-path:url(#SVGID_58_);fill:#FEFEFE;}
	.st29{clip-path:url(#SVGID_60_);enable-background:new    ;}
	.st30{clip-path:url(#SVGID_62_);}
	.st31{clip-path:url(#SVGID_64_);fill:#FEFEFE;}
	.st32{clip-path:url(#SVGID_66_);}
	.st33{clip-path:url(#SVGID_68_);fill:#FFFFFF;}
	.st34{clip-path:url(#SVGID_70_);enable-background:new    ;}
	.st35{clip-path:url(#SVGID_72_);}
	.st36{clip-path:url(#SVGID_74_);}
	.st37{opacity:0.5;clip-path:url(#SVGID_76_);enable-background:new    ;}
	.st38{clip-path:url(#SVGID_78_);}
	.st39{clip-path:url(#SVGID_80_);}
	.st40{clip-path:url(#SVGID_82_);fill:#017C8E;}
	.st41{clip-path:url(#SVGID_84_);}
	.st42{clip-path:url(#SVGID_86_);fill:#FEFEFE;}
	.st43{clip-path:url(#SVGID_88_);enable-background:new    ;}
	.st44{clip-path:url(#SVGID_90_);}
	.st45{clip-path:url(#SVGID_92_);fill:#FEFEFE;}
	.st46{clip-path:url(#SVGID_94_);}
	.st47{clip-path:url(#SVGID_96_);}
	.st48{clip-path:url(#SVGID_98_);fill:#FFFFFF;}
</style>
<title>icon/desktop_ZWH/stars</title>
<desc>Created with Sketch.</desc>
<g>
	<defs>
		<path id="SVGID_1_" d="M120.6,33.1c0.7,0.9,1.8,1.5,3,1.5c2,0,3.7-1.6,3.7-3.7c0-1.5-0.8-2.7-2.1-3.3l6.5-7.8l48.7,40.6v45.1
			L110,45.6L120.6,33.1z"/>
	</defs>
	<clipPath id="SVGID_2_">
		<use xlink:href="#SVGID_1_"  style="overflow:visible;"/>
	</clipPath>
	<rect x="105" y="14.9" class="st0" width="80.4" height="95.7"/>
</g>
<g>
	<defs>
		<path id="SVGID_3_" d="M84.5,57.2c0.8,0.7,1.8,1.2,2.9,1.2c2.3,0,4.2-1.9,4.2-4.2c0-1.2-0.5-2.2-1.2-3l11.2-11.3l78.7,67.4v2.7
			h-68.7L70,71.7L84.5,57.2z"/>
	</defs>
	<clipPath id="SVGID_4_">
		<use xlink:href="#SVGID_3_"  style="overflow:visible;"/>
	</clipPath>
	<rect x="65" y="34.9" class="st1" width="120.4" height="80"/>
</g>
<g>
	<defs>
		<path id="SVGID_5_" d="M123.7,74.1c0.6,0.4,1.3,0.6,2.1,0.6c2,0,3.7-1.6,3.7-3.7c0-1.5-0.9-2.8-2.2-3.4l6.9-12.3l46.3,39.9V110
			h-39l-24.7-23.4L123.7,74.1z"/>
	</defs>
	<clipPath id="SVGID_6_">
		<use xlink:href="#SVGID_5_"  style="overflow:visible;"/>
	</clipPath>
	<rect x="111.7" y="50.4" class="st2" width="73.7" height="64.6"/>
</g>
<g>
	<defs>
		<path id="SVGID_7_" d="M88,60.3c2.4,0,5.6-3.2,5.6-5.6c0-2.4-3.2-5.6-5.6-5.6s-5.6,3.2-5.6,5.6C82.4,57,85.6,60.3,88,60.3z
			 M104.7,47.2c0.2,0.4,0.7,0.6,1.1,0.6h0.4c3.5,0,6.3,2.8,6.3,6.2c0,3.5-2.8,6.2-6.3,6.2H106c-0.5,0-1,0.3-1.2,0.8
			c-0.2,0.5-0.1,1.1,0.2,1.5l0.1,0.1c1.2,1.2,1.8,2.8,1.8,4.4c0,1.7-0.7,3.2-1.8,4.4c-1.2,1.2-2.8,1.8-4.4,1.8s-3.2-0.7-4.4-1.8
			l-0.1-0.1c-0.4-0.4-1-0.5-1.5-0.3c-0.5,0.2-0.8,0.7-0.8,1.2v0.4c0,3.5-2.8,6.2-6.3,6.2s-6.2-2.8-6.2-6.2c0-0.7-0.4-1.2-1-1.4
			c-0.5-0.2-1.1-0.1-1.5,0.3l-0.1,0.1c-1.2,1.2-2.8,1.8-4.4,1.8s-3.2-0.7-4.4-1.8c-1.2-1.2-1.8-2.8-1.8-4.4c0-1.7,0.7-3.2,1.8-4.4
			l0.1-0.1c0.4-0.4,0.5-1,0.3-1.5c-0.2-0.5-0.7-0.8-1.2-0.8h-0.4c-3.5,0-6.2-2.8-6.2-6.2c0-3.5,2.8-6.2,6.2-6.2c0.7,0,1.2-0.4,1.4-1
			c0.2-0.5,0.1-1.1-0.3-1.5l-0.1-0.1c-1.2-1.2-1.8-2.8-1.8-4.4c0-1.7,0.7-3.2,1.8-4.4c1.2-1.2,2.8-1.8,4.4-1.8s3.2,0.7,4.4,1.8
			l0.1,0.1c0.4,0.4,1,0.5,1.5,0.3c0.1-0.1,0.3-0.1,0.4-0.1c0.4-0.2,0.6-0.7,0.6-1.1v-0.4c0-3.5,2.8-6.2,6.2-6.2
			c3.5,0,6.2,2.8,6.2,6.2v0.2c0,0.5,0.3,1,0.8,1.2c0.5,0.2,1.1,0.1,1.5-0.3l0.1-0.1c1.2-1.2,2.8-1.8,4.4-1.8c1.7,0,3.3,0.7,4.4,1.8
			c1.2,1.2,1.8,2.8,1.8,4.4c0,1.7-0.7,3.2-1.8,4.4l-0.1,0.1c-0.4,0.4-0.5,1-0.3,1.5C104.6,46.9,104.7,47,104.7,47.2z"/>
	</defs>
	<clipPath id="SVGID_8_">
		<use xlink:href="#SVGID_7_"  style="overflow:visible;"/>
	</clipPath>
	<g class="st3">
		<g>
			<defs>
				<rect id="SVGID_9_" x="57.4" y="24" width="61" height="61"/>
			</defs>
			<clipPath id="SVGID_10_">
				<use xlink:href="#SVGID_9_"  style="overflow:visible;"/>
			</clipPath>
			<g class="st4">
				<defs>
					<rect id="SVGID_11_" x="62.4" y="29" width="51" height="51"/>
				</defs>
				<clipPath id="SVGID_12_">
					<use xlink:href="#SVGID_11_"  style="overflow:visible;"/>
				</clipPath>
				<rect x="57.4" y="24" class="st5" width="60" height="60"/>
			</g>
		</g>
	</g>
</g>
<g>
	<defs>
		<path id="SVGID_13_" d="M123.8,75.2c1.6,0.8,4.7-0.3,5.4-1.9s-0.3-4.7-1.9-5.4c-1.6-0.8-4.7,0.3-5.4,1.9
			C121.2,71.4,122.3,74.5,123.8,75.2z M138.7,72c0,0.3,0.2,0.6,0.5,0.7l0.2,0.1c2.2,1.1,3.2,3.8,2.1,6c-1.1,2.2-3.8,3.2-6,2.1
			l-0.1-0.1c-0.3-0.2-0.8-0.1-1.1,0.1c-0.3,0.3-0.4,0.7-0.3,1l0,0.1c0.4,1.1,0.3,2.4-0.2,3.4c-0.5,1.1-1.5,1.9-2.6,2.3
			c-1.1,0.4-2.4,0.3-3.4-0.2c-1.1-0.5-1.9-1.5-2.3-2.6l0-0.1c-0.1-0.4-0.5-0.6-0.9-0.6c-0.4,0-0.8,0.2-0.9,0.5l-0.1,0.2
			c-1.1,2.2-3.8,3.2-6,2.1c-2.2-1.1-3.2-3.8-2.1-6c0.2-0.5,0.1-0.9-0.2-1.2c-0.3-0.3-0.7-0.4-1-0.3l-0.1,0c-1.1,0.4-2.4,0.3-3.4-0.2
			c-1.1-0.5-1.9-1.5-2.3-2.6c-0.4-1.1-0.3-2.4,0.2-3.4c0.5-1.1,1.5-1.9,2.6-2.3l0.1,0c0.4-0.1,0.6-0.5,0.6-0.9
			c0-0.4-0.2-0.8-0.5-0.9l-0.2-0.1c-2.2-1.1-3.2-3.8-2.1-6c1.1-2.2,3.8-3.2,6-2.1c0.5,0.2,0.9,0.1,1.2-0.2c0.3-0.3,0.4-0.7,0.3-1
			l0-0.1c-0.4-1.1-0.3-2.4,0.2-3.4c0.5-1.1,1.5-1.9,2.6-2.3c1.1-0.4,2.4-0.3,3.4,0.2c1.1,0.5,1.9,1.5,2.3,2.6l0,0.1
			c0.1,0.4,0.5,0.6,0.9,0.6c0.1,0,0.2,0,0.3,0c0.3,0,0.6-0.2,0.7-0.5l0.1-0.2c1.1-2.2,3.8-3.2,6-2.1c2.2,1.1,3.2,3.8,2.1,6l-0.1,0.1
			c-0.2,0.4-0.1,0.8,0.2,1.1c0.3,0.3,0.7,0.4,1,0.3l0.1,0c1.1-0.4,2.4-0.3,3.4,0.2c1.1,0.5,1.9,1.5,2.3,2.6c0.4,1.1,0.3,2.4-0.2,3.4
			c-0.5,1.1-1.5,1.9-2.6,2.3l-0.1,0c-0.4,0.1-0.6,0.5-0.6,0.9C138.8,71.8,138.8,71.9,138.7,72z"/>
	</defs>
	<clipPath id="SVGID_14_">
		<use xlink:href="#SVGID_13_"  style="overflow:visible;"/>
	</clipPath>
	<g class="st6">
		<g>
			<defs>
				<rect id="SVGID_15_" x="94.4" y="40" width="62" height="62"/>
			</defs>
			<clipPath id="SVGID_16_">
				<use xlink:href="#SVGID_15_"  style="overflow:visible;"/>
			</clipPath>
			<g class="st7">
				<defs>
					<rect id="SVGID_17_" x="107.4" y="53" width="36" height="36"/>
				</defs>
				<clipPath id="SVGID_18_">
					<use xlink:href="#SVGID_17_"  style="overflow:visible;"/>
				</clipPath>
				<rect x="102.4" y="48" transform="matrix(0.4384 -0.8988 0.8988 0.4384 6.6137 152.5847)" class="st8" width="46" height="46"/>
			</g>
		</g>
	</g>
</g>
<g>
	<defs>
		<path id="SVGID_19_" d="M123.9,36c1.9,0,4.5-2.6,4.5-4.5s-2.6-4.5-4.5-4.5s-4.5,2.6-4.5,4.5S122,36,123.9,36 M137.2,25.5
			c0.2,0.3,0.5,0.5,0.9,0.5h0.3c2.8,0,5,2.2,5,5c0,2.8-2.2,5-5,5h-0.1c-0.4,0-0.8,0.3-1,0.7c-0.2,0.4-0.1,0.9,0.2,1.2l0.1,0.1
			c0.9,0.9,1.5,2.2,1.5,3.5c0,1.3-0.5,2.6-1.5,3.5c-0.9,0.9-2.2,1.5-3.5,1.5c-1.3,0-2.6-0.5-3.5-1.5l-0.1-0.1
			c-0.3-0.3-0.8-0.4-1.2-0.2c-0.4,0.2-0.7,0.6-0.7,1V46c0,2.8-2.2,5-5,5c-2.8,0-5-2.2-5-5c0-0.6-0.3-1-0.8-1.1
			c-0.4-0.2-0.9-0.1-1.2,0.2l-0.1,0.1c-0.9,0.9-2.2,1.5-3.5,1.5c-1.3,0-2.6-0.5-3.5-1.5c-0.9-0.9-1.5-2.2-1.5-3.5
			c0-1.3,0.5-2.6,1.5-3.5l0.1-0.1c0.3-0.3,0.4-0.8,0.2-1.2c-0.2-0.4-0.6-0.7-1-0.7h-0.3c-2.8,0-5-2.2-5-5s2.2-5,5-5
			c0.6,0,0.9-0.3,1.1-0.8c0.2-0.4,0.1-0.9-0.2-1.2l-0.1-0.1c-0.9-0.9-1.5-2.2-1.5-3.5c0-1.3,0.5-2.6,1.5-3.5
			c0.9-0.9,2.2-1.5,3.5-1.5s2.6,0.5,3.5,1.5l0.1,0.1c0.3,0.3,0.8,0.4,1.2,0.2c0.1,0,0.2-0.1,0.3-0.1c0.3-0.2,0.5-0.5,0.5-0.9V16
			c0-2.8,2.2-5,5-5c2.8,0,5,2.2,5,5v0.1c0,0.4,0.3,0.8,0.7,1c0.4,0.2,0.9,0.1,1.2-0.2l0.1-0.1c0.9-0.9,2.2-1.5,3.5-1.5
			c1.3,0,2.6,0.5,3.5,1.5c0.9,0.9,1.5,2.2,1.5,3.5c0,1.3-0.5,2.6-1.5,3.5l-0.1,0.1c-0.3,0.3-0.4,0.8-0.2,1.2
			C137.2,25.3,137.2,25.4,137.2,25.5"/>
	</defs>
	<clipPath id="SVGID_20_">
		<use xlink:href="#SVGID_19_"  style="overflow:visible;"/>
	</clipPath>
	<g class="st9">
		<g>
			<defs>
				<rect id="SVGID_21_" x="98.4" y="6" width="51" height="51"/>
			</defs>
			<clipPath id="SVGID_22_">
				<use xlink:href="#SVGID_21_"  style="overflow:visible;"/>
			</clipPath>
			<g class="st10">
				<defs>
					<rect id="SVGID_23_" x="103.4" y="11" width="41" height="41"/>
				</defs>
				<clipPath id="SVGID_24_">
					<use xlink:href="#SVGID_23_"  style="overflow:visible;"/>
				</clipPath>
				<rect x="98.4" y="6" class="st11" width="50" height="50"/>
			</g>
		</g>
	</g>
</g>
<g>
	<defs>
		<path id="SVGID_25_" d="M88,60.3c2.4,0,5.6-3.2,5.6-5.6S90.4,49,88,49c-2.4,0-5.6,3.2-5.6,5.6S85.6,60.3,88,60.3 M104.7,47.2
			c0.2,0.4,0.7,0.6,1.1,0.6h0.4c3.5,0,6.2,2.8,6.2,6.2c0,3.5-2.8,6.2-6.2,6.2H106c-0.5,0-1,0.3-1.2,0.8c-0.2,0.5-0.1,1.1,0.2,1.5
			l0.1,0.1c1.2,1.2,1.8,2.8,1.8,4.4c0,1.7-0.7,3.2-1.8,4.4c-1.2,1.2-2.8,1.8-4.4,1.8s-3.2-0.7-4.4-1.8l-0.1-0.1
			c-0.4-0.4-1-0.5-1.5-0.3c-0.5,0.2-0.8,0.7-0.8,1.2v0.4c0,3.5-2.8,6.2-6.3,6.2c-3.5,0-6.2-2.8-6.2-6.2c0-0.7-0.4-1.2-1-1.4
			c-0.5-0.2-1.1-0.1-1.5,0.3l-0.1,0.1c-1.2,1.2-2.8,1.8-4.4,1.8c-1.7,0-3.2-0.7-4.4-1.8c-1.2-1.2-1.8-2.8-1.8-4.4
			c0-1.7,0.7-3.2,1.8-4.4l0.1-0.1c0.4-0.4,0.5-1,0.3-1.5c-0.2-0.5-0.7-0.8-1.2-0.8h-0.4c-3.5,0-6.2-2.8-6.2-6.2
			c0-3.5,2.8-6.2,6.2-6.2c0.7,0,1.2-0.4,1.4-1c0.2-0.5,0.1-1.1-0.3-1.5l-0.1-0.1c-1.2-1.2-1.8-2.8-1.8-4.4c0-1.7,0.7-3.2,1.8-4.4
			c1.2-1.2,2.8-1.8,4.4-1.8c1.7,0,3.2,0.7,4.4,1.8l0.1,0.1c0.4,0.4,1,0.5,1.5,0.3c0.1-0.1,0.3-0.1,0.4-0.1c0.4-0.2,0.6-0.7,0.6-1.1
			v-0.4c0-3.5,2.8-6.2,6.2-6.2c3.5,0,6.2,2.8,6.2,6.2v0.2c0,0.5,0.3,1,0.8,1.2c0.5,0.2,1.1,0.1,1.5-0.3l0.1-0.1
			c1.2-1.2,2.8-1.8,4.4-1.8c1.7,0,3.3,0.7,4.4,1.8c1.2,1.2,1.8,2.8,1.8,4.4c0,1.7-0.7,3.2-1.8,4.4l-0.1,0.1c-0.4,0.4-0.5,1-0.3,1.5
			C104.6,46.9,104.7,47,104.7,47.2"/>
	</defs>
	<clipPath id="SVGID_26_">
		<use xlink:href="#SVGID_25_"  style="overflow:visible;"/>
	</clipPath>
	<g class="st12">
		<g>
			<defs>
				<rect id="SVGID_27_" x="60.4" y="29" width="53" height="51"/>
			</defs>
			<clipPath id="SVGID_28_">
				<use xlink:href="#SVGID_27_"  style="overflow:visible;"/>
			</clipPath>
			<g class="st13">
				<defs>
					<rect id="SVGID_29_" x="61.1" y="29" width="51" height="50"/>
				</defs>
				<clipPath id="SVGID_30_">
					<use xlink:href="#SVGID_29_"  style="overflow:visible;"/>
				</clipPath>
				<g class="st14">
					<defs>
						<rect id="SVGID_31_" x="62.4" y="29" width="50" height="50"/>
					</defs>
					<clipPath id="SVGID_32_">
						<use xlink:href="#SVGID_31_"  style="overflow:visible;"/>
					</clipPath>
					<rect x="56.1" y="24" class="st15" width="61" height="60"/>
				</g>
			</g>
			<g class="st13">
				<defs>
					<path id="SVGID_33_" d="M81.3,40.6c-2,0.7-4.3,0.2-5.8-1.3l-0.1-0.1c-0.4-0.4-0.9-0.6-1.5-0.6s-1.1,0.2-1.5,0.6
						c-0.4,0.4-0.6,0.9-0.6,1.5s0.2,1.1,0.6,1.5l0.1,0.1c1.6,1.6,2.1,4.1,1.2,6.1c-0.8,2.2-2.8,3.6-5.2,3.7h-0.2
						c-1.2,0-2.1,1-2.1,2.1c0,1.2,1,2.1,2.1,2.1h0.4c2.2,0,4.3,1.3,5.1,3.4c0.9,2.1,0.5,4.6-1.1,6.2l-0.1,0.1
						c-0.4,0.4-0.6,0.9-0.6,1.5s0.2,1.1,0.6,1.5c0.4,0.4,0.9,0.6,1.5,0.6c0.6,0,1.1-0.2,1.5-0.6l0.1-0.1c1.6-1.6,4.1-2.1,6.1-1.2
						c2.2,0.8,3.6,2.8,3.7,5.2v0.2c0,1.2,1,2.1,2.1,2.1c1.2,0,2.1-1,2.1-2.1v-0.4c0-2.2,1.3-4.3,3.4-5.1c2.1-0.9,4.6-0.5,6.2,1.1
						l0.1,0.1c0.4,0.4,0.9,0.6,1.5,0.6c0.6,0,1.1-0.2,1.5-0.6c0.4-0.4,0.6-0.9,0.6-1.5c0-0.6-0.2-1.1-0.6-1.5l-0.1-0.1
						c-1.6-1.6-2.1-4.1-1.1-6.2c0.9-2,2.9-3.4,5.2-3.4h0.2c1.2,0,2.1-1,2.1-2.1c0-1.2-1-2.1-2.1-2.1h-0.4c-2.2,0-4.3-1.3-5.2-3.4
						c-0.1-0.2-0.1-0.4-0.2-0.6c-0.7-2-0.2-4.3,1.3-5.8l0.1-0.1c0.4-0.4,0.6-0.9,0.6-1.5c0-0.6-0.2-1.1-0.6-1.5
						c-0.4-0.4-0.9-0.6-1.5-0.6c-0.6,0-1.1,0.2-1.5,0.6l-0.1,0.1c-1.6,1.6-4.1,2.1-6.2,1.1c-2.1-0.9-3.4-2.9-3.4-5.2v-0.2
						c0-1.2-1-2.1-2.1-2.1s-2.1,1-2.1,2.1v0.4c0,2.2-1.3,4.3-3.4,5.2C81.7,40.5,81.5,40.6,81.3,40.6 M104.7,47.2
						c0.2,0.4,0.7,0.6,1.1,0.6h0.4c3.5,0,6.2,2.8,6.2,6.2c0,3.5-2.8,6.2-6.2,6.2H106c-0.5,0-1,0.3-1.2,0.8c-0.2,0.5-0.1,1.1,0.2,1.5
						l0.1,0.1c1.2,1.2,1.8,2.8,1.8,4.4c0,1.7-0.7,3.2-1.8,4.4c-1.2,1.2-2.8,1.8-4.4,1.8s-3.2-0.7-4.4-1.8l-0.1-0.1
						c-0.4-0.4-1-0.5-1.5-0.3c-0.5,0.2-0.8,0.7-0.8,1.2v0.4c0,3.5-2.8,6.2-6.3,6.2c-3.5,0-6.2-2.8-6.2-6.2c0-0.7-0.4-1.2-1-1.4
						c-0.5-0.2-1.1-0.1-1.5,0.3l-0.1,0.1c-1.2,1.2-2.8,1.8-4.4,1.8c-1.7,0-3.2-0.7-4.4-1.8c-1.2-1.2-1.8-2.8-1.8-4.4
						c0-1.7,0.7-3.2,1.8-4.4l0.1-0.1c0.4-0.4,0.5-1,0.3-1.5c-0.2-0.5-0.7-0.8-1.2-0.8h-0.4c-3.5,0-6.2-2.8-6.2-6.2
						c0-3.5,2.8-6.2,6.2-6.2c0.7,0,1.2-0.4,1.4-1c0.2-0.5,0.1-1.1-0.3-1.5l-0.1-0.1c-1.2-1.2-1.8-2.8-1.8-4.4c0-1.7,0.7-3.2,1.8-4.4
						c1.2-1.2,2.8-1.8,4.4-1.8c1.7,0,3.2,0.7,4.4,1.8l0.1,0.1c0.4,0.4,1,0.5,1.5,0.3c0.1-0.1,0.3-0.1,0.4-0.1
						c0.4-0.2,0.6-0.7,0.6-1.1v-0.4c0-3.5,2.8-6.2,6.2-6.2c3.5,0,6.2,2.8,6.2,6.2v0.2c0,0.5,0.3,1,0.8,1.2c0.5,0.2,1.1,0.1,1.5-0.3
						l0.1-0.1c1.2-1.2,2.8-1.8,4.4-1.8c1.7,0,3.3,0.7,4.4,1.8c1.2,1.2,1.8,2.8,1.8,4.4c0,1.7-0.7,3.2-1.8,4.4l-0.1,0.1
						c-0.4,0.4-0.5,1-0.3,1.5C104.6,46.9,104.7,47,104.7,47.2"/>
				</defs>
				<clipPath id="SVGID_34_">
					<use xlink:href="#SVGID_33_"  style="overflow:visible;"/>
				</clipPath>
				<g class="st16">
					<defs>
						<rect id="SVGID_35_" x="62.4" y="29" width="51" height="51"/>
					</defs>
					<clipPath id="SVGID_36_">
						<use xlink:href="#SVGID_35_"  style="overflow:visible;"/>
					</clipPath>
					<rect x="57.4" y="24" class="st17" width="60" height="60"/>
				</g>
			</g>
		</g>
	</g>
</g>
<g>
	<defs>
		<path id="SVGID_37_" d="M87.4,57.6c2.1,0,3.8-1.7,3.8-3.8c0-2.1-1.7-3.7-3.8-3.7c-2.1,0-3.8,1.7-3.8,3.7
			C83.7,55.9,85.4,57.6,87.4,57.6z M87.4,61.3c-4.1,0-7.5-3.4-7.5-7.5s3.4-7.5,7.5-7.5c4.1,0,7.5,3.4,7.5,7.5S91.6,61.3,87.4,61.3z"
			/>
	</defs>
	<clipPath id="SVGID_38_">
		<use xlink:href="#SVGID_37_"  style="overflow:visible;"/>
	</clipPath>
	<g class="st18">
		<g>
			<defs>
				<rect id="SVGID_39_" x="60.4" y="29" width="52" height="50"/>
			</defs>
			<clipPath id="SVGID_40_">
				<use xlink:href="#SVGID_39_"  style="overflow:visible;"/>
			</clipPath>
			<g class="st19">
				<defs>
					<rect id="SVGID_41_" x="79.4" y="46" width="16" height="16"/>
				</defs>
				<clipPath id="SVGID_42_">
					<use xlink:href="#SVGID_41_"  style="overflow:visible;"/>
				</clipPath>
				<rect x="74.9" y="41.3" class="st20" width="25" height="25"/>
			</g>
			<g class="st19">
				<defs>
					<rect id="SVGID_43_" x="61.1" y="29" width="51" height="50"/>
				</defs>
				<clipPath id="SVGID_44_">
					<use xlink:href="#SVGID_43_"  style="overflow:visible;"/>
				</clipPath>
				<g class="st21">
					<defs>
						<rect id="SVGID_45_" x="79.4" y="46" width="16" height="16"/>
					</defs>
					<clipPath id="SVGID_46_">
						<use xlink:href="#SVGID_45_"  style="overflow:visible;"/>
					</clipPath>
					<rect x="56.1" y="24" class="st22" width="61" height="60"/>
				</g>
			</g>
		</g>
	</g>
</g>
<g>
	<defs>
		<path id="SVGID_47_" d="M123.9,36c1.9,0,4.5-2.6,4.5-4.5s-2.6-4.5-4.5-4.5s-4.5,2.6-4.5,4.5S122,36,123.9,36 M137.2,25.5
			c0.2,0.3,0.5,0.5,0.9,0.5h0.3c2.8,0,5,2.2,5,5c0,2.8-2.2,5-5,5h-0.1c-0.4,0-0.8,0.3-1,0.7c-0.2,0.4-0.1,0.9,0.2,1.2l0.1,0.1
			c0.9,0.9,1.5,2.2,1.5,3.5c0,1.3-0.5,2.6-1.5,3.5c-0.9,0.9-2.2,1.5-3.5,1.5c-1.3,0-2.6-0.5-3.5-1.5l-0.1-0.1
			c-0.3-0.3-0.8-0.4-1.2-0.2c-0.4,0.2-0.7,0.6-0.7,1V46c0,2.8-2.2,5-5,5c-2.8,0-5-2.2-5-5c0-0.6-0.3-1-0.8-1.1
			c-0.4-0.2-0.9-0.1-1.2,0.2l-0.1,0.1c-0.9,0.9-2.2,1.5-3.5,1.5c-1.3,0-2.6-0.5-3.5-1.5c-0.9-0.9-1.5-2.2-1.5-3.5
			c0-1.3,0.5-2.6,1.5-3.5l0.1-0.1c0.3-0.3,0.4-0.8,0.2-1.2c-0.2-0.4-0.6-0.7-1-0.7h-0.3c-2.8,0-5-2.2-5-5s2.2-5,5-5
			c0.6,0,0.9-0.3,1.1-0.8c0.2-0.4,0.1-0.9-0.2-1.2l-0.1-0.1c-0.9-0.9-1.5-2.2-1.5-3.5c0-1.3,0.5-2.6,1.5-3.5
			c0.9-0.9,2.2-1.5,3.5-1.5s2.6,0.5,3.5,1.5l0.1,0.1c0.3,0.3,0.8,0.4,1.2,0.2c0.1,0,0.2-0.1,0.3-0.1c0.3-0.2,0.5-0.5,0.5-0.9V16
			c0-2.8,2.2-5,5-5c2.8,0,5,2.2,5,5v0.1c0,0.4,0.3,0.8,0.7,1c0.4,0.2,0.9,0.1,1.2-0.2l0.1-0.1c0.9-0.9,2.2-1.5,3.5-1.5
			c1.3,0,2.6,0.5,3.5,1.5c0.9,0.9,1.5,2.2,1.5,3.5c0,1.3-0.5,2.6-1.5,3.5l-0.1,0.1c-0.3,0.3-0.4,0.8-0.2,1.2
			C137.2,25.3,137.2,25.4,137.2,25.5"/>
	</defs>
	<clipPath id="SVGID_48_">
		<use xlink:href="#SVGID_47_"  style="overflow:visible;"/>
	</clipPath>
	<g class="st23">
		<g>
			<defs>
				<rect id="SVGID_49_" x="98.4" y="6" width="51" height="51"/>
			</defs>
			<clipPath id="SVGID_50_">
				<use xlink:href="#SVGID_49_"  style="overflow:visible;"/>
			</clipPath>
			<g class="st24">
				<defs>
					<rect id="SVGID_51_" x="103.4" y="11" width="41" height="41"/>
				</defs>
				<clipPath id="SVGID_52_">
					<use xlink:href="#SVGID_51_"  style="overflow:visible;"/>
				</clipPath>
				<rect x="98.4" y="6" class="st25" width="50" height="50"/>
			</g>
			<g class="st24">
				<defs>
					<rect id="SVGID_53_" x="102.4" y="11" width="41" height="40"/>
				</defs>
				<clipPath id="SVGID_54_">
					<use xlink:href="#SVGID_53_"  style="overflow:visible;"/>
				</clipPath>
				<g class="st26">
					<defs>
						<rect id="SVGID_55_" x="103.4" y="11" width="40" height="40"/>
					</defs>
					<clipPath id="SVGID_56_">
						<use xlink:href="#SVGID_55_"  style="overflow:visible;"/>
					</clipPath>
					<rect x="97.4" y="6" class="st27" width="51" height="50"/>
				</g>
			</g>
		</g>
	</g>
</g>
<g>
	<defs>
		<path id="SVGID_57_" d="M118.6,20.3c-1.6,0.6-3.4,0.2-4.7-1l-0.1-0.1c-0.3-0.3-0.8-0.5-1.2-0.5s-0.9,0.2-1.2,0.5
			c-0.3,0.3-0.5,0.8-0.5,1.2s0.2,0.9,0.5,1.2l0.1,0.1c1.3,1.3,1.6,3.3,0.9,4.9c-0.6,1.7-2.3,2.9-4.2,2.9h-0.2
			c-0.9,0-1.7,0.8-1.7,1.7c0,0.9,0.8,1.7,1.7,1.7h0.3c1.8,0,3.4,1.1,4.1,2.7c0.7,1.7,0.4,3.7-0.9,5l-0.1,0.1
			c-0.3,0.3-0.5,0.8-0.5,1.2c0,0.5,0.2,0.9,0.5,1.2c0.3,0.3,0.8,0.5,1.2,0.5c0.5,0,0.9-0.2,1.2-0.5L114,43c1.3-1.3,3.3-1.6,4.9-0.9
			c1.7,0.6,2.9,2.3,2.9,4.2v0.2c0,0.9,0.8,1.7,1.7,1.7s1.7-0.8,1.7-1.7V46c0-1.8,1.1-3.4,2.7-4.1c1.7-0.7,3.7-0.4,5,0.9l0.1,0.1
			c0.3,0.3,0.8,0.5,1.2,0.5c0.5,0,0.9-0.2,1.2-0.5c0.3-0.3,0.5-0.8,0.5-1.2c0-0.5-0.2-0.9-0.5-1.2l-0.1-0.1c-1.3-1.3-1.6-3.3-0.9-5
			c0.7-1.6,2.3-2.7,4.1-2.7h0.2c0.9,0,1.7-0.8,1.7-1.7c0-0.9-0.8-1.7-1.7-1.7h-0.3c-1.8,0-3.4-1.1-4.1-2.7c-0.1-0.1-0.1-0.3-0.1-0.5
			c-0.6-1.6-0.2-3.4,1-4.7l0.1-0.1c0.3-0.3,0.5-0.8,0.5-1.2c0-0.5-0.2-0.9-0.5-1.2c-0.3-0.3-0.8-0.5-1.2-0.5c-0.5,0-0.9,0.2-1.2,0.5
			l-0.1,0.1c-1.3,1.3-3.3,1.6-5,0.9c-1.7-0.7-2.7-2.3-2.7-4.1v-0.2c0-0.9-0.8-1.7-1.7-1.7c-0.9,0-1.7,0.8-1.7,1.7V16
			c0,1.8-1.1,3.4-2.7,4.1C118.9,20.2,118.7,20.3,118.6,20.3 M137.2,25.5c0.2,0.3,0.5,0.5,0.9,0.5h0.3c2.8,0,5,2.2,5,5
			c0,2.8-2.2,5-5,5h-0.1c-0.4,0-0.8,0.3-1,0.7c-0.2,0.4-0.1,0.9,0.2,1.2l0.1,0.1c0.9,0.9,1.5,2.2,1.5,3.5c0,1.3-0.5,2.6-1.5,3.5
			c-0.9,0.9-2.2,1.5-3.5,1.5c-1.3,0-2.6-0.5-3.5-1.5l-0.1-0.1c-0.3-0.3-0.8-0.4-1.2-0.2c-0.4,0.2-0.7,0.6-0.7,1V46c0,2.8-2.2,5-5,5
			c-2.8,0-5-2.2-5-5c0-0.6-0.3-1-0.8-1.1c-0.4-0.2-0.9-0.1-1.2,0.2l-0.1,0.1c-0.9,0.9-2.2,1.5-3.5,1.5c-1.3,0-2.6-0.5-3.5-1.5
			c-0.9-0.9-1.5-2.2-1.5-3.5c0-1.3,0.5-2.6,1.5-3.5l0.1-0.1c0.3-0.3,0.4-0.8,0.2-1.2c-0.2-0.4-0.6-0.7-1-0.7h-0.3c-2.8,0-5-2.2-5-5
			s2.2-5,5-5c0.6,0,0.9-0.3,1.1-0.8c0.2-0.4,0.1-0.9-0.2-1.2l-0.1-0.1c-0.9-0.9-1.5-2.2-1.5-3.5c0-1.3,0.5-2.6,1.5-3.5
			c0.9-0.9,2.2-1.5,3.5-1.5s2.6,0.5,3.5,1.5l0.1,0.1c0.3,0.3,0.8,0.4,1.2,0.2c0.1,0,0.2-0.1,0.3-0.1c0.3-0.2,0.5-0.5,0.5-0.9V16
			c0-2.8,2.2-5,5-5c2.8,0,5,2.2,5,5v0.1c0,0.4,0.3,0.8,0.7,1c0.4,0.2,0.9,0.1,1.2-0.2l0.1-0.1c0.9-0.9,2.2-1.5,3.5-1.5
			c1.3,0,2.6,0.5,3.5,1.5c0.9,0.9,1.5,2.2,1.5,3.5c0,1.3-0.5,2.6-1.5,3.5l-0.1,0.1c-0.3,0.3-0.4,0.8-0.2,1.2
			C137.2,25.3,137.2,25.4,137.2,25.5"/>
	</defs>
	<clipPath id="SVGID_58_">
		<use xlink:href="#SVGID_57_"  style="overflow:visible;"/>
	</clipPath>
	<rect x="98.4" y="6" class="st28" width="50" height="50"/>
</g>
<g>
	<defs>
		<path id="SVGID_59_" d="M123.4,33.9c1.7,0,3-1.3,3-3c0-1.7-1.3-3-3-3c-1.7,0-3,1.3-3,3C120.4,32.5,121.8,33.9,123.4,33.9z
			 M123.4,36.9c-3.3,0-6-2.7-6-6s2.7-6,6-6c3.3,0,6,2.7,6,6S126.7,36.9,123.4,36.9z"/>
	</defs>
	<clipPath id="SVGID_60_">
		<use xlink:href="#SVGID_59_"  style="overflow:visible;"/>
	</clipPath>
	<g class="st29">
		<g>
			<defs>
				<rect id="SVGID_61_" x="101.4" y="11" width="42" height="40"/>
			</defs>
			<clipPath id="SVGID_62_">
				<use xlink:href="#SVGID_61_"  style="overflow:visible;"/>
			</clipPath>
			<g class="st30">
				<defs>
					<rect id="SVGID_63_" x="117.4" y="24" width="13" height="13"/>
				</defs>
				<clipPath id="SVGID_64_">
					<use xlink:href="#SVGID_63_"  style="overflow:visible;"/>
				</clipPath>
				<rect x="112.4" y="19.9" class="st31" width="22" height="22"/>
			</g>
			<g class="st30">
				<defs>
					<rect id="SVGID_65_" x="102.4" y="11" width="41" height="40"/>
				</defs>
				<clipPath id="SVGID_66_">
					<use xlink:href="#SVGID_65_"  style="overflow:visible;"/>
				</clipPath>
				<g class="st32">
					<defs>
						<rect id="SVGID_67_" x="117.4" y="24" width="13" height="13"/>
					</defs>
					<clipPath id="SVGID_68_">
						<use xlink:href="#SVGID_67_"  style="overflow:visible;"/>
					</clipPath>
					<rect x="97.4" y="6" class="st33" width="51" height="50"/>
				</g>
			</g>
		</g>
	</g>
</g>
<g>
	<defs>
		<path id="SVGID_69_" d="M123.8,75.2c1.6,0.8,4.7-0.3,5.4-1.9s-0.3-4.7-1.9-5.4c-1.6-0.8-4.7,0.3-5.4,1.9
			C121.2,71.4,122.3,74.5,123.8,75.2 M138.7,72c0,0.3,0.2,0.6,0.5,0.7l0.2,0.1c2.2,1.1,3.2,3.8,2.1,6c-1.1,2.2-3.8,3.2-6,2.1
			l-0.1-0.1c-0.3-0.2-0.8-0.1-1.1,0.1c-0.3,0.3-0.4,0.7-0.3,1l0,0.1c0.4,1.1,0.3,2.4-0.2,3.4c-0.5,1.1-1.5,1.9-2.6,2.3
			c-1.1,0.4-2.4,0.3-3.4-0.2s-1.9-1.5-2.3-2.6l0-0.1c-0.1-0.4-0.5-0.6-0.9-0.6c-0.4,0-0.8,0.2-0.9,0.5l-0.1,0.2
			c-1.1,2.2-3.8,3.2-6,2.1c-2.2-1.1-3.2-3.8-2.1-6c0.2-0.5,0.1-0.9-0.2-1.2c-0.3-0.3-0.7-0.4-1-0.3l-0.1,0c-1.1,0.4-2.4,0.3-3.4-0.2
			c-1.1-0.5-1.9-1.5-2.3-2.6c-0.4-1.1-0.3-2.4,0.2-3.4c0.5-1.1,1.5-1.9,2.6-2.3l0.1,0c0.4-0.1,0.6-0.5,0.6-0.9
			c0-0.4-0.2-0.8-0.5-0.9l-0.2-0.1c-2.2-1.1-3.2-3.8-2.1-6c1.1-2.2,3.8-3.2,6-2.1c0.5,0.2,0.9,0.1,1.2-0.2c0.3-0.3,0.4-0.7,0.3-1
			l0-0.1c-0.4-1.1-0.3-2.4,0.2-3.4s1.5-1.9,2.6-2.3c1.1-0.4,2.4-0.3,3.4,0.2c1.1,0.5,1.9,1.5,2.3,2.6l0,0.1c0.1,0.4,0.5,0.6,0.9,0.6
			c0.1,0,0.2,0,0.3,0c0.3,0,0.6-0.2,0.7-0.5l0.1-0.2c1.1-2.2,3.8-3.2,6-2.1c2.2,1.1,3.2,3.8,2.1,6l-0.1,0.1
			c-0.2,0.4-0.1,0.8,0.2,1.1c0.3,0.3,0.7,0.4,1,0.3l0.1,0c1.1-0.4,2.4-0.3,3.4,0.2c1.1,0.5,1.9,1.5,2.3,2.6c0.4,1.1,0.3,2.4-0.2,3.4
			c-0.5,1.1-1.5,1.9-2.6,2.3l-0.1,0c-0.4,0.1-0.6,0.5-0.6,0.9C138.8,71.8,138.8,71.9,138.7,72"/>
	</defs>
	<clipPath id="SVGID_70_">
		<use xlink:href="#SVGID_69_"  style="overflow:visible;"/>
	</clipPath>
	<g class="st34">
		<g>
			<defs>
				<rect id="SVGID_71_" x="100.4" y="46" width="50" height="50"/>
			</defs>
			<clipPath id="SVGID_72_">
				<use xlink:href="#SVGID_71_"  style="overflow:visible;"/>
			</clipPath>
			<g class="st35">
				<defs>
					
						<rect id="SVGID_73_" x="107" y="52.4" transform="matrix(0.4384 -0.8988 0.8988 0.4384 6.564 152.1101)" width="36" height="36.9"/>
				</defs>
				<clipPath id="SVGID_74_">
					<use xlink:href="#SVGID_73_"  style="overflow:visible;"/>
				</clipPath>
				<g class="st36">
					<defs>
						<rect id="SVGID_75_" x="107.4" y="53" width="36" height="36"/>
					</defs>
					<clipPath id="SVGID_76_">
						<use xlink:href="#SVGID_75_"  style="overflow:visible;"/>
					</clipPath>
					<g class="st37">
						<g>
							<defs>
								<rect id="SVGID_77_" x="100.4" y="46" width="50" height="50"/>
							</defs>
							<clipPath id="SVGID_78_">
								<use xlink:href="#SVGID_77_"  style="overflow:visible;"/>
							</clipPath>
							<g class="st38">
								<defs>
									
										<rect id="SVGID_79_" x="107" y="52.3" transform="matrix(0.4384 -0.8988 0.8988 0.4384 6.5696 152.1628)" width="36" height="37"/>
								</defs>
								<clipPath id="SVGID_80_">
									<use xlink:href="#SVGID_79_"  style="overflow:visible;"/>
								</clipPath>
								<g class="st39">
									<defs>
										<rect id="SVGID_81_" x="107.4" y="53" width="36" height="36"/>
									</defs>
									<clipPath id="SVGID_82_">
										<use xlink:href="#SVGID_81_"  style="overflow:visible;"/>
									</clipPath>
									
										<rect x="102" y="47.3" transform="matrix(0.4384 -0.8988 0.8988 0.4384 6.5696 152.1628)" class="st40" width="46" height="47"/>
								</g>
							</g>
						</g>
					</g>
				</g>
			</g>
			<g class="st35">
				<defs>
					<path id="SVGID_83_" d="M125.7,60.4c-1.5-0.2-2.8-1.2-3.4-2.7l0-0.1c-0.1-0.4-0.4-0.7-0.8-0.9c-0.4-0.2-0.8-0.2-1.2-0.1
						c-0.4,0.1-0.7,0.4-0.9,0.8c-0.2,0.4-0.2,0.8-0.1,1.2l0,0.1c0.5,1.6,0,3.3-1.2,4.3c-1.2,1.2-3,1.5-4.5,0.7l-0.1-0.1
						c-0.8-0.4-1.7-0.1-2,0.7c-0.4,0.8-0.1,1.7,0.7,2l0.2,0.1c1.4,0.7,2.3,2.2,2.3,3.8c-0.1,1.7-1.1,3.1-2.7,3.7l-0.1,0
						c-0.4,0.1-0.7,0.4-0.9,0.8c-0.2,0.4-0.2,0.8-0.1,1.2c0.1,0.4,0.4,0.7,0.8,0.9c0.4,0.2,0.8,0.2,1.2,0.1l0.1,0
						c1.6-0.5,3.3,0,4.3,1.2c1.2,1.2,1.5,3,0.7,4.5l-0.1,0.1c-0.4,0.8-0.1,1.7,0.7,2s1.7,0.1,2-0.7l0.1-0.2c0.7-1.4,2.2-2.3,3.8-2.3
						c1.7,0.1,3.1,1.1,3.7,2.7l0,0.1c0.1,0.4,0.4,0.7,0.8,0.9c0.4,0.2,0.8,0.2,1.2,0.1c0.4-0.1,0.7-0.4,0.9-0.8
						c0.2-0.4,0.2-0.8,0.1-1.2l0-0.1c-0.5-1.6,0-3.3,1.2-4.4c1.2-1,2.9-1.3,4.4-0.6l0.1,0.1c0.8,0.4,1.7,0.1,2-0.7
						c0.4-0.8,0.1-1.7-0.7-2l-0.2-0.1c-1.4-0.7-2.3-2.2-2.3-3.8c0-0.1,0-0.3,0.1-0.4c0.2-1.5,1.2-2.8,2.7-3.4l0.1,0
						c0.4-0.1,0.7-0.4,0.9-0.8c0.2-0.4,0.2-0.8,0.1-1.2c-0.1-0.4-0.4-0.7-0.8-0.9c-0.4-0.2-0.8-0.2-1.2-0.1l-0.1,0
						c-1.6,0.5-3.3,0-4.4-1.2c-1.1-1.2-1.3-3-0.6-4.4l0.1-0.1c0.4-0.8,0.1-1.7-0.7-2c-0.8-0.4-1.7-0.1-2,0.7l-0.1,0.2
						c-0.7,1.4-2.2,2.3-3.8,2.3C126,60.5,125.8,60.5,125.7,60.4 M138.7,72c0,0.3,0.2,0.6,0.5,0.7l0.2,0.1c2.2,1.1,3.2,3.8,2.1,6
						c-1.1,2.2-3.8,3.2-6,2.1l-0.1-0.1c-0.3-0.2-0.8-0.1-1.1,0.1c-0.3,0.3-0.4,0.7-0.3,1l0,0.1c0.4,1.1,0.3,2.4-0.2,3.4
						c-0.5,1.1-1.5,1.9-2.6,2.3c-1.1,0.4-2.4,0.3-3.4-0.2s-1.9-1.5-2.3-2.6l0-0.1c-0.1-0.4-0.5-0.6-0.9-0.6c-0.4,0-0.8,0.2-0.9,0.5
						l-0.1,0.2c-1.1,2.2-3.8,3.2-6,2.1c-2.2-1.1-3.2-3.8-2.1-6c0.2-0.5,0.1-0.9-0.2-1.2c-0.3-0.3-0.7-0.4-1-0.3l-0.1,0
						c-1.1,0.4-2.4,0.3-3.4-0.2c-1.1-0.5-1.9-1.5-2.3-2.6c-0.4-1.1-0.3-2.4,0.2-3.4c0.5-1.1,1.5-1.9,2.6-2.3l0.1,0
						c0.4-0.1,0.6-0.5,0.6-0.9c0-0.4-0.2-0.8-0.5-0.9l-0.2-0.1c-2.2-1.1-3.2-3.8-2.1-6c1.1-2.2,3.8-3.2,6-2.1
						c0.5,0.2,0.9,0.1,1.2-0.2c0.3-0.3,0.4-0.7,0.3-1l0-0.1c-0.4-1.1-0.3-2.4,0.2-3.4s1.5-1.9,2.6-2.3c1.1-0.4,2.4-0.3,3.4,0.2
						c1.1,0.5,1.9,1.5,2.3,2.6l0,0.1c0.1,0.4,0.5,0.6,0.9,0.6c0.1,0,0.2,0,0.3,0c0.3,0,0.6-0.2,0.7-0.5l0.1-0.2
						c1.1-2.2,3.8-3.2,6-2.1c2.2,1.1,3.2,3.8,2.1,6l-0.1,0.1c-0.2,0.4-0.1,0.8,0.2,1.1c0.3,0.3,0.7,0.4,1,0.3l0.1,0
						c1.1-0.4,2.4-0.3,3.4,0.2c1.1,0.5,1.9,1.5,2.3,2.6c0.4,1.1,0.3,2.4-0.2,3.4c-0.5,1.1-1.5,1.9-2.6,2.3l-0.1,0
						c-0.4,0.1-0.6,0.5-0.6,0.9C138.8,71.8,138.8,71.9,138.7,72"/>
				</defs>
				<clipPath id="SVGID_84_">
					<use xlink:href="#SVGID_83_"  style="overflow:visible;"/>
				</clipPath>
				<g class="st41">
					<defs>
						<rect id="SVGID_85_" x="107.4" y="53" width="36" height="36"/>
					</defs>
					<clipPath id="SVGID_86_">
						<use xlink:href="#SVGID_85_"  style="overflow:visible;"/>
					</clipPath>
					
						<rect x="102.4" y="48" transform="matrix(0.4384 -0.8988 0.8988 0.4384 6.6136 152.5845)" class="st42" width="46" height="46"/>
				</g>
			</g>
		</g>
	</g>
</g>
<g>
	<defs>
		<path id="SVGID_87_" d="M124.3,73.3c1.3,0.7,3,0.1,3.6-1.2c0.7-1.3,0.1-3-1.2-3.6c-1.3-0.7-3-0.1-3.6,1.2
			C122.4,71.1,122.9,72.7,124.3,73.3z M123.1,75.8c-2.7-1.3-3.8-4.5-2.5-7.2c1.3-2.7,4.5-3.8,7.2-2.5c2.7,1.3,3.8,4.5,2.5,7.2
			C129,76,125.8,77.1,123.1,75.8z"/>
	</defs>
	<clipPath id="SVGID_88_">
		<use xlink:href="#SVGID_87_"  style="overflow:visible;"/>
	</clipPath>
	<g class="st43">
		<g>
			<defs>
				<rect id="SVGID_89_" x="100.4" y="46" width="50" height="50"/>
			</defs>
			<clipPath id="SVGID_90_">
				<use xlink:href="#SVGID_89_"  style="overflow:visible;"/>
			</clipPath>
			<g class="st44">
				<defs>
					<rect id="SVGID_91_" x="118.4" y="64" width="14" height="14"/>
				</defs>
				<clipPath id="SVGID_92_">
					<use xlink:href="#SVGID_91_"  style="overflow:visible;"/>
				</clipPath>
				
					<rect x="115.1" y="60.5" transform="matrix(0.4384 -0.8988 0.8988 0.4384 6.7323 152.6008)" class="st45" width="20.8" height="20.8"/>
			</g>
			<g class="st44">
				<defs>
					
						<rect id="SVGID_93_" x="107" y="52.4" transform="matrix(0.4384 -0.8988 0.8988 0.4384 6.564 152.1101)" width="36" height="36.9"/>
				</defs>
				<clipPath id="SVGID_94_">
					<use xlink:href="#SVGID_93_"  style="overflow:visible;"/>
				</clipPath>
				<g class="st46">
					<defs>
						
							<rect id="SVGID_95_" x="107" y="52.3" transform="matrix(0.4384 -0.8988 0.8988 0.4384 6.5696 152.1628)" width="36" height="37"/>
					</defs>
					<clipPath id="SVGID_96_">
						<use xlink:href="#SVGID_95_"  style="overflow:visible;"/>
					</clipPath>
					<g class="st47">
						<defs>
							<rect id="SVGID_97_" x="118.4" y="64" width="14" height="14"/>
						</defs>
						<clipPath id="SVGID_98_">
							<use xlink:href="#SVGID_97_"  style="overflow:visible;"/>
						</clipPath>
						
							<rect x="102" y="47.3" transform="matrix(0.4384 -0.8988 0.8988 0.4384 6.5696 152.1628)" class="st48" width="46" height="47"/>
					</g>
				</g>
			</g>
		</g>
	</g>
</g>
</svg>
