<?xml version="1.0" encoding="utf-8"?>
<!-- Generator: Adobe Illustrator 24.0.0, SVG Export Plug-In . SVG Version: 6.00 Build 0)  -->
<svg version="1.1" id="Ebene_1" xmlns="http://www.w3.org/2000/svg" xmlns:xlink="http://www.w3.org/1999/xlink" x="0px" y="0px"
	 viewBox="0 0 180.4 110" style="enable-background:new 0 0 180.4 110;" xml:space="preserve">
<style type="text/css">
	.st0{clip-path:url(#SVGID_2_);enable-background:new    ;}
	.st1{clip-path:url(#SVGID_4_);}
	.st2{clip-path:url(#SVGID_6_);fill:#FFFFFF;}
	.st3{clip-path:url(#SVGID_8_);enable-background:new    ;}
	.st4{clip-path:url(#SVGID_10_);}
	.st5{clip-path:url(#SVGID_12_);fill:#FFFFFF;}
	.st6{clip-path:url(#SVGID_14_);enable-background:new    ;}
	.st7{clip-path:url(#SVGID_16_);}
	.st8{clip-path:url(#SVGID_18_);fill:#FFFFFF;}
	.st9{clip-path:url(#SVGID_20_);enable-background:new    ;}
	.st10{clip-path:url(#SVGID_22_);}
	.st11{clip-path:url(#SVGID_24_);}
	.st12{clip-path:url(#SVGID_26_);fill:#004D9F;}
	.st13{clip-path:url(#SVGID_28_);}
	.st14{clip-path:url(#SVGID_30_);}
	.st15{clip-path:url(#SVGID_32_);fill:#FEFEFE;}
	.st16{clip-path:url(#SVGID_34_);enable-background:new    ;}
	.st17{clip-path:url(#SVGID_36_);}
	.st18{clip-path:url(#SVGID_38_);fill:#FEFEFE;}
	.st19{clip-path:url(#SVGID_40_);}
	.st20{clip-path:url(#SVGID_42_);}
	.st21{clip-path:url(#SVGID_44_);fill:#FFFFFF;}
	.st22{clip-path:url(#SVGID_46_);enable-background:new    ;}
	.st23{clip-path:url(#SVGID_48_);}
	.st24{clip-path:url(#SVGID_50_);fill:#FFFFFF;}
	.st25{clip-path:url(#SVGID_52_);}
	.st26{clip-path:url(#SVGID_54_);}
	.st27{clip-path:url(#SVGID_56_);fill:#B0D0C5;}
	.st28{clip-path:url(#SVGID_58_);fill:#FEFEFE;}
	.st29{clip-path:url(#SVGID_60_);enable-background:new    ;}
	.st30{clip-path:url(#SVGID_62_);}
	.st31{clip-path:url(#SVGID_64_);fill:#FEFEFE;}
	.st32{clip-path:url(#SVGID_66_);}
	.st33{clip-path:url(#SVGID_68_);}
	.st34{clip-path:url(#SVGID_70_);fill:#FFFFFF;}
	.st35{clip-path:url(#SVGID_72_);enable-background:new    ;}
	.st36{clip-path:url(#SVGID_74_);}
	.st37{clip-path:url(#SVGID_76_);}
	.st38{opacity:0.5;clip-path:url(#SVGID_78_);enable-background:new    ;}
	.st39{clip-path:url(#SVGID_80_);}
	.st40{clip-path:url(#SVGID_82_);}
	.st41{clip-path:url(#SVGID_84_);fill:#017C8E;}
	.st42{clip-path:url(#SVGID_86_);}
	.st43{clip-path:url(#SVGID_88_);}
	.st44{clip-path:url(#SVGID_90_);fill:#FEFEFE;}
	.st45{clip-path:url(#SVGID_92_);enable-background:new    ;}
	.st46{clip-path:url(#SVGID_94_);}
	.st47{clip-path:url(#SVGID_96_);fill:#FEFEFE;}
	.st48{clip-path:url(#SVGID_98_);}
	.st49{clip-path:url(#SVGID_100_);}
	.st50{clip-path:url(#SVGID_102_);}
	.st51{clip-path:url(#SVGID_104_);fill:#FFFFFF;}
</style>
<title>icon/desktop_ZWH/stars</title>
<desc>Created with Sketch.</desc>
<g>
	<g>
		<defs>
			<path id="SVGID_1_" d="M75,65.9c2.4,0,5.6-3.2,5.6-5.6c0-2.4-3.2-5.6-5.6-5.6s-5.6,3.2-5.6,5.6C69.4,62.6,72.6,65.9,75,65.9z
				 M91.7,52.8c0.2,0.4,0.7,0.6,1.1,0.6h0.4c3.5,0,6.3,2.8,6.3,6.2c0,3.5-2.8,6.2-6.3,6.2H93c-0.5,0-1,0.3-1.2,0.8s-0.1,1.1,0.2,1.5
				l0.1,0.1c1.2,1.2,1.8,2.8,1.8,4.4c0,1.7-0.7,3.2-1.8,4.4c-1.2,1.2-2.8,1.8-4.4,1.8s-3.2-0.7-4.4-1.8l-0.1-0.1
				c-0.4-0.4-1-0.5-1.5-0.3s-0.8,0.7-0.8,1.2v0.4c0,3.5-2.8,6.2-6.3,6.2s-6.2-2.8-6.2-6.2c0-0.7-0.4-1.2-1-1.4
				c-0.5-0.2-1.1-0.1-1.5,0.3l-0.1,0.1C64.6,78.4,63,79,61.4,79s-3.2-0.7-4.4-1.8c-1.2-1.2-1.8-2.8-1.8-4.4c0-1.7,0.7-3.2,1.8-4.4
				l0.1-0.1c0.4-0.4,0.5-1,0.3-1.5S56.7,66,56.2,66h-0.4c-3.5,0-6.2-2.8-6.2-6.2c0-3.5,2.8-6.2,6.2-6.2c0.7,0,1.2-0.4,1.4-1
				c0.2-0.5,0.1-1.1-0.3-1.5L56.8,51c-1.2-1.2-1.8-2.8-1.8-4.4c0-1.7,0.7-3.2,1.8-4.4c1.2-1.2,2.8-1.8,4.4-1.8s3.2,0.7,4.4,1.8
				l0.1,0.1c0.4,0.4,1,0.5,1.5,0.3c0.1-0.1,0.3-0.1,0.4-0.1c0.4-0.2,0.6-0.7,0.6-1.1V41c0-3.5,2.8-6.2,6.2-6.2
				c3.5,0,6.2,2.8,6.2,6.2v0.2c0,0.5,0.3,1,0.8,1.2s1.1,0.1,1.5-0.3L83,42c1.2-1.2,2.8-1.8,4.4-1.8c1.7,0,3.3,0.7,4.4,1.8
				c1.2,1.2,1.8,2.8,1.8,4.4c0,1.7-0.7,3.2-1.8,4.4l-0.1,0.1c-0.4,0.4-0.5,1-0.3,1.5C91.6,52.5,91.7,52.6,91.7,52.8z"/>
		</defs>
		<clipPath id="SVGID_2_">
			<use xlink:href="#SVGID_1_"  style="overflow:visible;"/>
		</clipPath>
		<g class="st0">
			<g>
				<g>
					<defs>
						<rect id="SVGID_3_" x="44.4" y="29.6" width="61" height="61"/>
					</defs>
					<clipPath id="SVGID_4_">
						<use xlink:href="#SVGID_3_"  style="overflow:visible;"/>
					</clipPath>
					<g class="st1">
						<g>
							<defs>
								<rect id="SVGID_5_" x="49.4" y="34.6" width="51" height="51"/>
							</defs>
							<clipPath id="SVGID_6_">
								<use xlink:href="#SVGID_5_"  style="overflow:visible;"/>
							</clipPath>
							<rect x="44.4" y="29.6" class="st2" width="60" height="60"/>
						</g>
					</g>
				</g>
			</g>
		</g>
	</g>
</g>
<g>
	<g>
		<defs>
			<path id="SVGID_7_" d="M110.8,80.8c1.6,0.8,4.7-0.3,5.4-1.9s-0.3-4.7-1.9-5.4c-1.6-0.8-4.7,0.3-5.4,1.9
				C108.2,77,109.3,80.1,110.8,80.8z M125.7,77.6c0,0.3,0.2,0.6,0.5,0.7l0.2,0.1c2.2,1.1,3.2,3.8,2.1,6c-1.1,2.2-3.8,3.2-6,2.1
				l-0.1-0.1c-0.3-0.2-0.8-0.1-1.1,0.1c-0.3,0.3-0.4,0.7-0.3,1v0.1c0.4,1.1,0.3,2.4-0.2,3.4c-0.5,1.1-1.5,1.9-2.6,2.3
				s-2.4,0.3-3.4-0.2c-1.1-0.5-1.9-1.5-2.3-2.6v-0.1c-0.1-0.4-0.5-0.6-0.9-0.6s-0.8,0.2-0.9,0.5l-0.1,0.2c-1.1,2.2-3.8,3.2-6,2.1
				s-3.2-3.8-2.1-6c0.2-0.5,0.1-0.9-0.2-1.2c-0.3-0.3-0.7-0.4-1-0.3h-0.1c-1.1,0.4-2.4,0.3-3.4-0.2c-1.1-0.5-1.9-1.5-2.3-2.6
				s-0.3-2.4,0.2-3.4c0.5-1.1,1.5-1.9,2.6-2.3h0.1c0.4-0.1,0.6-0.5,0.6-0.9s-0.2-0.8-0.5-0.9l-0.2-0.1c-2.2-1.1-3.2-3.8-2.1-6
				s3.8-3.2,6-2.1c0.5,0.2,0.9,0.1,1.2-0.2c0.3-0.3,0.4-0.7,0.3-1v-0.1c-0.4-1.1-0.3-2.4,0.2-3.4c0.5-1.1,1.5-1.9,2.6-2.3
				c1.1-0.4,2.4-0.3,3.4,0.2c1.1,0.5,1.9,1.5,2.3,2.6v0.1c0.1,0.4,0.5,0.6,0.9,0.6c0.1,0,0.2,0,0.3,0c0.3,0,0.6-0.2,0.7-0.5l0.1-0.2
				c1.1-2.2,3.8-3.2,6-2.1c2.2,1.1,3.2,3.8,2.1,6l-0.1,0.1c-0.2,0.4-0.1,0.8,0.2,1.1c0.3,0.3,0.7,0.4,1,0.3h0.1
				c1.1-0.4,2.4-0.3,3.4,0.2c1.1,0.5,1.9,1.5,2.3,2.6c0.4,1.1,0.3,2.4-0.2,3.4c-0.5,1.1-1.5,1.9-2.6,2.3h-0.1
				c-0.4,0.1-0.6,0.5-0.6,0.9C125.8,77.4,125.8,77.5,125.7,77.6z"/>
		</defs>
		<clipPath id="SVGID_8_">
			<use xlink:href="#SVGID_7_"  style="overflow:visible;"/>
		</clipPath>
		<g class="st3">
			<g>
				<g>
					<defs>
						<rect id="SVGID_9_" x="81.4" y="45.6" width="62" height="62"/>
					</defs>
					<clipPath id="SVGID_10_">
						<use xlink:href="#SVGID_9_"  style="overflow:visible;"/>
					</clipPath>
					<g class="st4">
						<g>
							<defs>
								
									<rect id="SVGID_11_" x="94.4" y="58.6" transform="matrix(0.4384 -0.8988 0.8988 0.4384 -5.7759 144.0317)" width="36" height="36"/>
							</defs>
							<clipPath id="SVGID_12_">
								<use xlink:href="#SVGID_11_"  style="overflow:visible;"/>
							</clipPath>
							
								<rect x="89.4" y="53.6" transform="matrix(0.4384 -0.8988 0.8988 0.4384 -5.7759 144.0317)" class="st5" width="46" height="46"/>
						</g>
					</g>
				</g>
			</g>
		</g>
	</g>
</g>
<g>
	<g>
		<defs>
			<path id="SVGID_13_" d="M110.9,41.6c1.9,0,4.5-2.6,4.5-4.5s-2.6-4.5-4.5-4.5s-4.5,2.6-4.5,4.5C106.4,39,109,41.6,110.9,41.6
				 M124.2,31.1c0.2,0.3,0.5,0.5,0.9,0.5h0.3c2.8,0,5,2.2,5,5s-2.2,5-5,5h-0.1c-0.4,0-0.8,0.3-1,0.7s-0.1,0.9,0.2,1.2l0.1,0.1
				c0.9,0.9,1.5,2.2,1.5,3.5s-0.5,2.6-1.5,3.5c-0.9,0.9-2.2,1.5-3.5,1.5s-2.6-0.5-3.5-1.5l-0.1-0.1c-0.3-0.3-0.8-0.4-1.2-0.2
				s-0.7,0.6-0.7,1v0.3c0,2.8-2.2,5-5,5s-5-2.2-5-5c0-0.6-0.3-1-0.8-1.1c-0.4-0.2-0.9-0.1-1.2,0.2l-0.1,0.1
				c-0.9,0.9-2.2,1.5-3.5,1.5s-2.6-0.5-3.5-1.5c-0.9-0.9-1.5-2.2-1.5-3.5s0.5-2.6,1.5-3.5l0.1-0.1c0.3-0.3,0.4-0.8,0.2-1.2
				c-0.2-0.4-0.6-0.7-1-0.7h-0.3c-2.8,0-5-2.2-5-5s2.2-5,5-5c0.6,0,0.9-0.3,1.1-0.8c0.2-0.4,0.1-0.9-0.2-1.2l-0.1-0.1
				c-0.9-0.9-1.5-2.2-1.5-3.5s0.5-2.6,1.5-3.5c0.9-0.9,2.2-1.5,3.5-1.5s2.6,0.5,3.5,1.5l0.1,0.1c0.3,0.3,0.8,0.4,1.2,0.2
				c0.1,0,0.2-0.1,0.3-0.1c0.3-0.2,0.5-0.5,0.5-0.9v-0.4c0-2.8,2.2-5,5-5s5,2.2,5,5v0.1c0,0.4,0.3,0.8,0.7,1s0.9,0.1,1.2-0.2
				l0.1-0.1c0.9-0.9,2.2-1.5,3.5-1.5s2.6,0.5,3.5,1.5c0.9,0.9,1.5,2.2,1.5,3.5s-0.5,2.6-1.5,3.5l-0.1,0.1c-0.3,0.3-0.4,0.8-0.2,1.2
				C124.2,30.9,124.2,31,124.2,31.1"/>
		</defs>
		<clipPath id="SVGID_14_">
			<use xlink:href="#SVGID_13_"  style="overflow:visible;"/>
		</clipPath>
		<g class="st6">
			<g>
				<g>
					<defs>
						<rect id="SVGID_15_" x="85.4" y="11.6" width="51" height="51"/>
					</defs>
					<clipPath id="SVGID_16_">
						<use xlink:href="#SVGID_15_"  style="overflow:visible;"/>
					</clipPath>
					<g class="st7">
						<g>
							<defs>
								<rect id="SVGID_17_" x="90.4" y="16.6" width="41" height="41"/>
							</defs>
							<clipPath id="SVGID_18_">
								<use xlink:href="#SVGID_17_"  style="overflow:visible;"/>
							</clipPath>
							<rect x="85.4" y="11.6" class="st8" width="50" height="50"/>
						</g>
					</g>
				</g>
			</g>
		</g>
	</g>
</g>
<g>
	<g>
		<defs>
			<path id="SVGID_19_" d="M75,65.9c2.4,0,5.6-3.2,5.6-5.6s-3.2-5.7-5.6-5.7s-5.6,3.2-5.6,5.6S72.6,65.9,75,65.9 M91.7,52.8
				c0.2,0.4,0.7,0.6,1.1,0.6h0.4c3.5,0,6.2,2.8,6.2,6.2c0,3.5-2.8,6.2-6.2,6.2H93c-0.5,0-1,0.3-1.2,0.8s-0.1,1.1,0.2,1.5l0.1,0.1
				c1.2,1.2,1.8,2.8,1.8,4.4c0,1.7-0.7,3.2-1.8,4.4c-1.2,1.2-2.8,1.8-4.4,1.8s-3.2-0.7-4.4-1.8l-0.1-0.1c-0.4-0.4-1-0.5-1.5-0.3
				s-0.8,0.7-0.8,1.2v0.4c0,3.5-2.8,6.2-6.3,6.2s-6.2-2.8-6.2-6.2c0-0.7-0.4-1.2-1-1.4c-0.5-0.2-1.1-0.1-1.5,0.3l-0.1,0.1
				C64.6,78.4,63,79,61.4,79c-1.7,0-3.2-0.7-4.4-1.8c-1.2-1.2-1.8-2.8-1.8-4.4c0-1.7,0.7-3.2,1.8-4.4l0.1-0.1c0.4-0.4,0.5-1,0.3-1.5
				S56.7,66,56.2,66h-0.4c-3.5,0-6.2-2.8-6.2-6.2c0-3.5,2.8-6.2,6.2-6.2c0.7,0,1.2-0.4,1.4-1c0.2-0.5,0.1-1.1-0.3-1.5L56.8,51
				c-1.2-1.2-1.8-2.8-1.8-4.4c0-1.7,0.7-3.2,1.8-4.4c1.2-1.2,2.8-1.8,4.4-1.8c1.7,0,3.2,0.7,4.4,1.8l0.1,0.1c0.4,0.4,1,0.5,1.5,0.3
				c0.1-0.1,0.3-0.1,0.4-0.1c0.4-0.2,0.6-0.7,0.6-1.1V41c0-3.5,2.8-6.2,6.2-6.2c3.5,0,6.2,2.8,6.2,6.2v0.2c0,0.5,0.3,1,0.8,1.2
				s1.1,0.1,1.5-0.3L83,42c1.2-1.2,2.8-1.8,4.4-1.8c1.7,0,3.3,0.7,4.4,1.8c1.2,1.2,1.8,2.8,1.8,4.4c0,1.7-0.7,3.2-1.8,4.4l-0.1,0.1
				c-0.4,0.4-0.5,1-0.3,1.5C91.6,52.5,91.7,52.6,91.7,52.8"/>
		</defs>
		<clipPath id="SVGID_20_">
			<use xlink:href="#SVGID_19_"  style="overflow:visible;"/>
		</clipPath>
		<g class="st9">
			<g>
				<g>
					<defs>
						<rect id="SVGID_21_" x="47.4" y="34.6" width="53" height="51"/>
					</defs>
					<clipPath id="SVGID_22_">
						<use xlink:href="#SVGID_21_"  style="overflow:visible;"/>
					</clipPath>
					<g class="st10">
						<g>
							<defs>
								<rect id="SVGID_23_" x="48.1" y="34.6" width="51" height="50"/>
							</defs>
							<clipPath id="SVGID_24_">
								<use xlink:href="#SVGID_23_"  style="overflow:visible;"/>
							</clipPath>
							<g class="st11">
								<g>
									<defs>
										<rect id="SVGID_25_" x="49.4" y="34.6" width="50" height="50"/>
									</defs>
									<clipPath id="SVGID_26_">
										<use xlink:href="#SVGID_25_"  style="overflow:visible;"/>
									</clipPath>
									<rect x="43.1" y="29.6" class="st12" width="61" height="60"/>
								</g>
							</g>
						</g>
					</g>
				</g>
				<g>
					<defs>
						<rect id="SVGID_27_" x="47.4" y="34.6" width="53" height="51"/>
					</defs>
					<clipPath id="SVGID_28_">
						<use xlink:href="#SVGID_27_"  style="overflow:visible;"/>
					</clipPath>
					<g class="st13">
						<g>
							<defs>
								<path id="SVGID_29_" d="M68.3,46.2c-2,0.7-4.3,0.2-5.8-1.3l-0.1-0.1c-0.4-0.4-0.9-0.6-1.5-0.6s-1.1,0.2-1.5,0.6
									c-0.4,0.4-0.6,0.9-0.6,1.5s0.2,1.1,0.6,1.5l0.1,0.1c1.6,1.6,2.1,4.1,1.2,6.1c-0.8,2.2-2.8,3.6-5.2,3.7h-0.2
									c-1.2,0-2.1,1-2.1,2.1c0,1.2,1,2.1,2.1,2.1h0.4c2.2,0,4.3,1.3,5.1,3.4c0.9,2.1,0.5,4.6-1.1,6.2l-0.1,0.1
									C59.2,72,59,72.5,59,73.1s0.2,1.1,0.6,1.5s0.9,0.6,1.5,0.6s1.1-0.2,1.5-0.6l0.1-0.1c1.6-1.6,4.1-2.1,6.1-1.2
									c2.2,0.8,3.6,2.8,3.7,5.2v0.2c0,1.2,1,2.1,2.1,2.1c1.2,0,2.1-1,2.1-2.1v-0.4c0-2.2,1.3-4.3,3.4-5.1c2.1-0.9,4.6-0.5,6.2,1.1
									l0.1,0.1c0.4,0.4,0.9,0.6,1.5,0.6s1.1-0.2,1.5-0.6s0.6-0.9,0.6-1.5s-0.2-1.1-0.6-1.5l-0.1-0.1c-1.6-1.6-2.1-4.1-1.1-6.2
									c0.9-2,2.9-3.4,5.2-3.4h0.2c1.2,0,2.1-1,2.1-2.1c0-1.2-1-2.1-2.1-2.1h-0.4c-2.2,0-4.3-1.3-5.2-3.4c-0.1-0.2-0.1-0.4-0.2-0.6
									c-0.7-2-0.2-4.3,1.3-5.8l0.1-0.1c0.4-0.4,0.6-0.9,0.6-1.5s-0.2-1.1-0.6-1.5S88.3,44,87.7,44s-1.1,0.2-1.5,0.6l-0.1,0.1
									c-1.6,1.6-4.1,2.1-6.2,1.1c-2.1-0.9-3.4-2.9-3.4-5.2v-0.2c0-1.2-1-2.1-2.1-2.1s-2.1,1-2.1,2.1v0.4c0,2.2-1.3,4.3-3.4,5.2
									C68.7,46.1,68.5,46.2,68.3,46.2 M91.7,52.8c0.2,0.4,0.7,0.6,1.1,0.6h0.4c3.5,0,6.2,2.8,6.2,6.2c0,3.5-2.8,6.2-6.2,6.2H93
									c-0.5,0-1,0.3-1.2,0.8s-0.1,1.1,0.2,1.5l0.1,0.1c1.2,1.2,1.8,2.8,1.8,4.4c0,1.7-0.7,3.2-1.8,4.4c-1.2,1.2-2.8,1.8-4.4,1.8
									s-3.2-0.7-4.4-1.8l-0.1-0.1c-0.4-0.4-1-0.5-1.5-0.3s-0.8,0.7-0.8,1.2v0.4c0,3.5-2.8,6.2-6.3,6.2s-6.2-2.8-6.2-6.2
									c0-0.7-0.4-1.2-1-1.4c-0.5-0.2-1.1-0.1-1.5,0.3l-0.1,0.1C64.6,78.4,63,79,61.4,79c-1.7,0-3.2-0.7-4.4-1.8
									c-1.2-1.2-1.8-2.8-1.8-4.4c0-1.7,0.7-3.2,1.8-4.4l0.1-0.1c0.4-0.4,0.5-1,0.3-1.5S56.7,66,56.2,66h-0.4
									c-3.5,0-6.2-2.8-6.2-6.2c0-3.5,2.8-6.2,6.2-6.2c0.7,0,1.2-0.4,1.4-1c0.2-0.5,0.1-1.1-0.3-1.5L56.8,51
									c-1.2-1.2-1.8-2.8-1.8-4.4c0-1.7,0.7-3.2,1.8-4.4c1.2-1.2,2.8-1.8,4.4-1.8c1.7,0,3.2,0.7,4.4,1.8l0.1,0.1
									c0.4,0.4,1,0.5,1.5,0.3c0.1-0.1,0.3-0.1,0.4-0.1c0.4-0.2,0.6-0.7,0.6-1.1V41c0-3.5,2.8-6.2,6.2-6.2c3.5,0,6.2,2.8,6.2,6.2
									v0.2c0,0.5,0.3,1,0.8,1.2s1.1,0.1,1.5-0.3L83,42c1.2-1.2,2.8-1.8,4.4-1.8c1.7,0,3.3,0.7,4.4,1.8c1.2,1.2,1.8,2.8,1.8,4.4
									c0,1.7-0.7,3.2-1.8,4.4l-0.1,0.1c-0.4,0.4-0.5,1-0.3,1.5C91.6,52.5,91.7,52.6,91.7,52.8"/>
							</defs>
							<clipPath id="SVGID_30_">
								<use xlink:href="#SVGID_29_"  style="overflow:visible;"/>
							</clipPath>
							<g class="st14">
								<g>
									<defs>
										<rect id="SVGID_31_" x="49.4" y="34.6" width="51" height="51"/>
									</defs>
									<clipPath id="SVGID_32_">
										<use xlink:href="#SVGID_31_"  style="overflow:visible;"/>
									</clipPath>
									<rect x="44.4" y="29.6" class="st15" width="60" height="60"/>
								</g>
							</g>
						</g>
					</g>
				</g>
			</g>
		</g>
	</g>
</g>
<g>
	<g>
		<defs>
			<path id="SVGID_33_" d="M74.4,63.2c2.1,0,3.8-1.7,3.8-3.8s-1.7-3.7-3.8-3.7c-2.1,0-3.8,1.7-3.8,3.7
				C70.7,61.5,72.4,63.2,74.4,63.2z M74.4,66.9c-4.1,0-7.5-3.4-7.5-7.5s3.4-7.5,7.5-7.5s7.5,3.4,7.5,7.5S78.6,66.9,74.4,66.9z"/>
		</defs>
		<clipPath id="SVGID_34_">
			<use xlink:href="#SVGID_33_"  style="overflow:visible;"/>
		</clipPath>
		<g class="st16">
			<g>
				<g>
					<defs>
						<rect id="SVGID_35_" x="47.4" y="34.6" width="52" height="50"/>
					</defs>
					<clipPath id="SVGID_36_">
						<use xlink:href="#SVGID_35_"  style="overflow:visible;"/>
					</clipPath>
					<g class="st17">
						<g>
							<defs>
								<rect id="SVGID_37_" x="66.4" y="51.6" width="16" height="16"/>
							</defs>
							<clipPath id="SVGID_38_">
								<use xlink:href="#SVGID_37_"  style="overflow:visible;"/>
							</clipPath>
							<rect x="61.9" y="46.9" class="st18" width="25" height="25"/>
						</g>
					</g>
				</g>
				<g>
					<defs>
						<rect id="SVGID_39_" x="47.4" y="34.6" width="52" height="50"/>
					</defs>
					<clipPath id="SVGID_40_">
						<use xlink:href="#SVGID_39_"  style="overflow:visible;"/>
					</clipPath>
					<g class="st19">
						<g>
							<defs>
								<rect id="SVGID_41_" x="48.1" y="34.6" width="51" height="50"/>
							</defs>
							<clipPath id="SVGID_42_">
								<use xlink:href="#SVGID_41_"  style="overflow:visible;"/>
							</clipPath>
							<g class="st20">
								<g>
									<defs>
										<rect id="SVGID_43_" x="66.4" y="51.6" width="16" height="16"/>
									</defs>
									<clipPath id="SVGID_44_">
										<use xlink:href="#SVGID_43_"  style="overflow:visible;"/>
									</clipPath>
									<rect x="43.1" y="29.6" class="st21" width="61" height="60"/>
								</g>
							</g>
						</g>
					</g>
				</g>
			</g>
		</g>
	</g>
</g>
<g>
	<g>
		<defs>
			<path id="SVGID_45_" d="M110.9,41.6c1.9,0,4.5-2.6,4.5-4.5s-2.6-4.5-4.5-4.5s-4.5,2.6-4.5,4.5C106.4,39,109,41.6,110.9,41.6
				 M124.2,31.1c0.2,0.3,0.5,0.5,0.9,0.5h0.3c2.8,0,5,2.2,5,5s-2.2,5-5,5h-0.1c-0.4,0-0.8,0.3-1,0.7s-0.1,0.9,0.2,1.2l0.1,0.1
				c0.9,0.9,1.5,2.2,1.5,3.5s-0.5,2.6-1.5,3.5c-0.9,0.9-2.2,1.5-3.5,1.5s-2.6-0.5-3.5-1.5l-0.1-0.1c-0.3-0.3-0.8-0.4-1.2-0.2
				s-0.7,0.6-0.7,1v0.3c0,2.8-2.2,5-5,5s-5-2.2-5-5c0-0.6-0.3-1-0.8-1.1c-0.4-0.2-0.9-0.1-1.2,0.2l-0.1,0.1
				c-0.9,0.9-2.2,1.5-3.5,1.5s-2.6-0.5-3.5-1.5c-0.9-0.9-1.5-2.2-1.5-3.5s0.5-2.6,1.5-3.5l0.1-0.1c0.3-0.3,0.4-0.8,0.2-1.2
				c-0.2-0.4-0.6-0.7-1-0.7h-0.3c-2.8,0-5-2.2-5-5s2.2-5,5-5c0.6,0,0.9-0.3,1.1-0.8c0.2-0.4,0.1-0.9-0.2-1.2l-0.1-0.1
				c-0.9-0.9-1.5-2.2-1.5-3.5s0.5-2.6,1.5-3.5c0.9-0.9,2.2-1.5,3.5-1.5s2.6,0.5,3.5,1.5l0.1,0.1c0.3,0.3,0.8,0.4,1.2,0.2
				c0.1,0,0.2-0.1,0.3-0.1c0.3-0.2,0.5-0.5,0.5-0.9v-0.4c0-2.8,2.2-5,5-5s5,2.2,5,5v0.1c0,0.4,0.3,0.8,0.7,1s0.9,0.1,1.2-0.2
				l0.1-0.1c0.9-0.9,2.2-1.5,3.5-1.5s2.6,0.5,3.5,1.5c0.9,0.9,1.5,2.2,1.5,3.5s-0.5,2.6-1.5,3.5l-0.1,0.1c-0.3,0.3-0.4,0.8-0.2,1.2
				C124.2,30.9,124.2,31,124.2,31.1"/>
		</defs>
		<clipPath id="SVGID_46_">
			<use xlink:href="#SVGID_45_"  style="overflow:visible;"/>
		</clipPath>
		<g class="st22">
			<g>
				<g>
					<defs>
						<rect id="SVGID_47_" x="85.4" y="11.6" width="51" height="51"/>
					</defs>
					<clipPath id="SVGID_48_">
						<use xlink:href="#SVGID_47_"  style="overflow:visible;"/>
					</clipPath>
					<g class="st23">
						<g>
							<defs>
								<rect id="SVGID_49_" x="90.4" y="16.6" width="41" height="41"/>
							</defs>
							<clipPath id="SVGID_50_">
								<use xlink:href="#SVGID_49_"  style="overflow:visible;"/>
							</clipPath>
							<rect x="85.4" y="11.6" class="st24" width="50" height="50"/>
						</g>
					</g>
				</g>
				<g>
					<defs>
						<rect id="SVGID_51_" x="85.4" y="11.6" width="51" height="51"/>
					</defs>
					<clipPath id="SVGID_52_">
						<use xlink:href="#SVGID_51_"  style="overflow:visible;"/>
					</clipPath>
					<g class="st25">
						<g>
							<defs>
								<rect id="SVGID_53_" x="89.4" y="16.6" width="41" height="40"/>
							</defs>
							<clipPath id="SVGID_54_">
								<use xlink:href="#SVGID_53_"  style="overflow:visible;"/>
							</clipPath>
							<g class="st26">
								<g>
									<defs>
										<rect id="SVGID_55_" x="90.4" y="16.6" width="40" height="40"/>
									</defs>
									<clipPath id="SVGID_56_">
										<use xlink:href="#SVGID_55_"  style="overflow:visible;"/>
									</clipPath>
									<rect x="84.4" y="11.6" class="st27" width="51" height="50"/>
								</g>
							</g>
						</g>
					</g>
				</g>
			</g>
		</g>
	</g>
</g>
<g>
	<g>
		<defs>
			<path id="SVGID_57_" d="M105.6,25.9c-1.6,0.6-3.4,0.2-4.7-1l-0.1-0.1c-0.3-0.3-0.8-0.5-1.2-0.5s-0.9,0.2-1.2,0.5
				c-0.3,0.3-0.5,0.8-0.5,1.2s0.2,0.9,0.5,1.2l0.1,0.1c1.3,1.3,1.6,3.3,0.9,4.9c-0.6,1.7-2.3,2.9-4.2,2.9H95c-0.9,0-1.7,0.8-1.7,1.7
				s0.8,1.7,1.7,1.7h0.3c1.8,0,3.4,1.1,4.1,2.7c0.7,1.7,0.4,3.7-0.9,5l-0.1,0.1c-0.3,0.3-0.5,0.8-0.5,1.2c0,0.5,0.2,0.9,0.5,1.2
				s0.8,0.5,1.2,0.5c0.5,0,0.9-0.2,1.2-0.5l0.2-0.1c1.3-1.3,3.3-1.6,4.9-0.9c1.7,0.6,2.9,2.3,2.9,4.2v0.2c0,0.9,0.8,1.7,1.7,1.7
				s1.7-0.8,1.7-1.7v-0.5c0-1.8,1.1-3.4,2.7-4.1c1.7-0.7,3.7-0.4,5,0.9l0.1,0.1c0.3,0.3,0.8,0.5,1.2,0.5c0.5,0,0.9-0.2,1.2-0.5
				s0.5-0.8,0.5-1.2c0-0.5-0.2-0.9-0.5-1.2l-0.1-0.1c-1.3-1.3-1.6-3.3-0.9-5c0.7-1.6,2.3-2.7,4.1-2.7h0.2c0.9,0,1.7-0.8,1.7-1.7
				c0-0.9-0.8-1.7-1.7-1.7h-0.3c-1.8,0-3.4-1.1-4.1-2.7c-0.1-0.1-0.1-0.3-0.1-0.5c-0.6-1.6-0.2-3.4,1-4.7l0.1-0.1
				c0.3-0.3,0.5-0.8,0.5-1.2c0-0.5-0.2-0.9-0.5-1.2c-0.3-0.3-0.8-0.5-1.2-0.5c-0.5,0-0.9,0.2-1.2,0.5l-0.1,0.1
				c-1.3,1.3-3.3,1.6-5,0.9s-2.7-2.3-2.7-4.1v-0.2c0-0.9-0.8-1.7-1.7-1.7c-0.9,0-1.7,0.8-1.7,1.7v0.4c0,1.8-1.1,3.4-2.7,4.1
				C105.9,25.8,105.7,25.9,105.6,25.9 M124.2,31.1c0.2,0.3,0.5,0.5,0.9,0.5h0.3c2.8,0,5,2.2,5,5s-2.2,5-5,5h-0.1
				c-0.4,0-0.8,0.3-1,0.7s-0.1,0.9,0.2,1.2l0.1,0.1c0.9,0.9,1.5,2.2,1.5,3.5s-0.5,2.6-1.5,3.5c-0.9,0.9-2.2,1.5-3.5,1.5
				s-2.6-0.5-3.5-1.5l-0.1-0.1c-0.3-0.3-0.8-0.4-1.2-0.2s-0.7,0.6-0.7,1v0.3c0,2.8-2.2,5-5,5s-5-2.2-5-5c0-0.6-0.3-1-0.8-1.1
				c-0.4-0.2-0.9-0.1-1.2,0.2l-0.1,0.1c-0.9,0.9-2.2,1.5-3.5,1.5s-2.6-0.5-3.5-1.5c-0.9-0.9-1.5-2.2-1.5-3.5s0.5-2.6,1.5-3.5
				l0.1-0.1c0.3-0.3,0.4-0.8,0.2-1.2c-0.2-0.4-0.6-0.7-1-0.7h-0.3c-2.8,0-5-2.2-5-5s2.2-5,5-5c0.6,0,0.9-0.3,1.1-0.8
				c0.2-0.4,0.1-0.9-0.2-1.2l-0.1-0.1c-0.9-0.9-1.5-2.2-1.5-3.5s0.5-2.6,1.5-3.5c0.9-0.9,2.2-1.5,3.5-1.5s2.6,0.5,3.5,1.5l0.1,0.1
				c0.3,0.3,0.8,0.4,1.2,0.2c0.1,0,0.2-0.1,0.3-0.1c0.3-0.2,0.5-0.5,0.5-0.9v-0.4c0-2.8,2.2-5,5-5s5,2.2,5,5v0.1
				c0,0.4,0.3,0.8,0.7,1s0.9,0.1,1.2-0.2l0.1-0.1c0.9-0.9,2.2-1.5,3.5-1.5s2.6,0.5,3.5,1.5c0.9,0.9,1.5,2.2,1.5,3.5
				s-0.5,2.6-1.5,3.5l-0.1,0.1c-0.3,0.3-0.4,0.8-0.2,1.2C124.2,30.9,124.2,31,124.2,31.1"/>
		</defs>
		<clipPath id="SVGID_58_">
			<use xlink:href="#SVGID_57_"  style="overflow:visible;"/>
		</clipPath>
		<rect x="85.4" y="11.6" class="st28" width="50" height="50"/>
	</g>
</g>
<g>
	<g>
		<defs>
			<path id="SVGID_59_" d="M110.4,39.5c1.7,0,3-1.3,3-3s-1.3-3-3-3s-3,1.3-3,3C107.4,38.1,108.8,39.5,110.4,39.5z M110.4,42.5
				c-3.3,0-6-2.7-6-6s2.7-6,6-6s6,2.7,6,6S113.7,42.5,110.4,42.5z"/>
		</defs>
		<clipPath id="SVGID_60_">
			<use xlink:href="#SVGID_59_"  style="overflow:visible;"/>
		</clipPath>
		<g class="st29">
			<g>
				<g>
					<defs>
						<rect id="SVGID_61_" x="88.4" y="16.6" width="42" height="40"/>
					</defs>
					<clipPath id="SVGID_62_">
						<use xlink:href="#SVGID_61_"  style="overflow:visible;"/>
					</clipPath>
					<g class="st30">
						<g>
							<defs>
								<rect id="SVGID_63_" x="104.4" y="29.6" width="13" height="13"/>
							</defs>
							<clipPath id="SVGID_64_">
								<use xlink:href="#SVGID_63_"  style="overflow:visible;"/>
							</clipPath>
							<rect x="99.4" y="25.5" class="st31" width="22" height="22"/>
						</g>
					</g>
				</g>
				<g>
					<defs>
						<rect id="SVGID_65_" x="88.4" y="16.6" width="42" height="40"/>
					</defs>
					<clipPath id="SVGID_66_">
						<use xlink:href="#SVGID_65_"  style="overflow:visible;"/>
					</clipPath>
					<g class="st32">
						<g>
							<defs>
								<rect id="SVGID_67_" x="89.4" y="16.6" width="41" height="40"/>
							</defs>
							<clipPath id="SVGID_68_">
								<use xlink:href="#SVGID_67_"  style="overflow:visible;"/>
							</clipPath>
							<g class="st33">
								<g>
									<defs>
										<rect id="SVGID_69_" x="104.4" y="29.6" width="13" height="13"/>
									</defs>
									<clipPath id="SVGID_70_">
										<use xlink:href="#SVGID_69_"  style="overflow:visible;"/>
									</clipPath>
									<rect x="84.4" y="11.6" class="st34" width="51" height="50"/>
								</g>
							</g>
						</g>
					</g>
				</g>
			</g>
		</g>
	</g>
</g>
<g>
	<g>
		<defs>
			<path id="SVGID_71_" d="M110.8,80.8c1.6,0.8,4.7-0.3,5.4-1.9s-0.3-4.7-1.9-5.4c-1.6-0.8-4.7,0.3-5.4,1.9
				C108.2,77,109.3,80.1,110.8,80.8 M125.7,77.6c0,0.3,0.2,0.6,0.5,0.7l0.2,0.1c2.2,1.1,3.2,3.8,2.1,6c-1.1,2.2-3.8,3.2-6,2.1
				l-0.1-0.1c-0.3-0.2-0.8-0.1-1.1,0.1c-0.3,0.3-0.4,0.7-0.3,1v0.1c0.4,1.1,0.3,2.4-0.2,3.4c-0.5,1.1-1.5,1.9-2.6,2.3
				s-2.4,0.3-3.4-0.2s-1.9-1.5-2.3-2.6v-0.1c-0.1-0.4-0.5-0.6-0.9-0.6s-0.8,0.2-0.9,0.5l-0.1,0.2c-1.1,2.2-3.8,3.2-6,2.1
				s-3.2-3.8-2.1-6c0.2-0.5,0.1-0.9-0.2-1.2c-0.3-0.3-0.7-0.4-1-0.3h-0.1c-1.1,0.4-2.4,0.3-3.4-0.2c-1.1-0.5-1.9-1.5-2.3-2.6
				s-0.3-2.4,0.2-3.4c0.5-1.1,1.5-1.9,2.6-2.3h0.1c0.4-0.1,0.6-0.5,0.6-0.9s-0.2-0.8-0.5-0.9l-0.2-0.1c-2.2-1.1-3.2-3.8-2.1-6
				s3.8-3.2,6-2.1c0.5,0.2,0.9,0.1,1.2-0.2c0.3-0.3,0.4-0.7,0.3-1v-0.1c-0.4-1.1-0.3-2.4,0.2-3.4s1.5-1.9,2.6-2.3
				c1.1-0.4,2.4-0.3,3.4,0.2c1.1,0.5,1.9,1.5,2.3,2.6v0.1c0.1,0.4,0.5,0.6,0.9,0.6c0.1,0,0.2,0,0.3,0c0.3,0,0.6-0.2,0.7-0.5l0.1-0.2
				c1.1-2.2,3.8-3.2,6-2.1c2.2,1.1,3.2,3.8,2.1,6l-0.1,0.1c-0.2,0.4-0.1,0.8,0.2,1.1c0.3,0.3,0.7,0.4,1,0.3h0.1
				c1.1-0.4,2.4-0.3,3.4,0.2c1.1,0.5,1.9,1.5,2.3,2.6c0.4,1.1,0.3,2.4-0.2,3.4c-0.5,1.1-1.5,1.9-2.6,2.3h-0.1
				c-0.4,0.1-0.6,0.5-0.6,0.9C125.8,77.4,125.8,77.5,125.7,77.6"/>
		</defs>
		<clipPath id="SVGID_72_">
			<use xlink:href="#SVGID_71_"  style="overflow:visible;"/>
		</clipPath>
		<g class="st35">
			<g>
				<g>
					<defs>
						<rect id="SVGID_73_" x="87.4" y="51.6" width="50" height="50"/>
					</defs>
					<clipPath id="SVGID_74_">
						<use xlink:href="#SVGID_73_"  style="overflow:visible;"/>
					</clipPath>
					<g class="st36">
						<g>
							<defs>
								
									<rect id="SVGID_75_" x="94" y="58" transform="matrix(0.4384 -0.8988 0.8988 0.4384 -5.8155 143.6067)" width="36" height="36.9"/>
							</defs>
							<clipPath id="SVGID_76_">
								<use xlink:href="#SVGID_75_"  style="overflow:visible;"/>
							</clipPath>
							<g class="st37">
								<g>
									<defs>
										<rect id="SVGID_77_" x="94.4" y="58.6" width="36" height="36"/>
									</defs>
									<clipPath id="SVGID_78_">
										<use xlink:href="#SVGID_77_"  style="overflow:visible;"/>
									</clipPath>
									<g class="st38">
										<g>
											<g>
												<defs>
													<rect id="SVGID_79_" x="87.4" y="51.6" width="50" height="50"/>
												</defs>
												<clipPath id="SVGID_80_">
													<use xlink:href="#SVGID_79_"  style="overflow:visible;"/>
												</clipPath>
												<g class="st39">
													<g>
														<defs>
															
																<rect id="SVGID_81_" x="94" y="58" transform="matrix(0.4384 -0.8988 0.8988 0.4384 -5.8652 143.5886)" width="36" height="37"/>
														</defs>
														<clipPath id="SVGID_82_">
															<use xlink:href="#SVGID_81_"  style="overflow:visible;"/>
														</clipPath>
														<g class="st40">
															<g>
																<defs>
																	
																		<rect id="SVGID_83_" x="94.3" y="58.2" transform="matrix(0.4384 -0.8988 0.8988 0.4384 -5.4215 143.7551)" width="36" height="36"/>
																</defs>
																<clipPath id="SVGID_84_">
																	<use xlink:href="#SVGID_83_"  style="overflow:visible;"/>
																</clipPath>
																
																	<rect x="89" y="53" transform="matrix(0.4384 -0.8988 0.8988 0.4384 -5.8652 143.5886)" class="st41" width="46" height="47"/>
															</g>
														</g>
													</g>
												</g>
											</g>
										</g>
									</g>
								</g>
							</g>
						</g>
					</g>
				</g>
				<g>
					<defs>
						<rect id="SVGID_85_" x="87.4" y="51.6" width="50" height="50"/>
					</defs>
					<clipPath id="SVGID_86_">
						<use xlink:href="#SVGID_85_"  style="overflow:visible;"/>
					</clipPath>
					<g class="st42">
						<g>
							<defs>
								<path id="SVGID_87_" d="M112.7,66c-1.5-0.2-2.8-1.2-3.4-2.7v-0.1c-0.1-0.4-0.4-0.7-0.8-0.9s-0.8-0.2-1.2-0.1
									c-0.4,0.1-0.7,0.4-0.9,0.8c-0.2,0.4-0.2,0.8-0.1,1.2v0.1c0.5,1.6,0,3.3-1.2,4.3c-1.2,1.2-3,1.5-4.5,0.7l-0.1-0.1
									c-0.8-0.4-1.7-0.1-2,0.7c-0.4,0.8-0.1,1.7,0.7,2l0.2,0.1c1.4,0.7,2.3,2.2,2.3,3.8c-0.1,1.7-1.1,3.1-2.7,3.7h-0.1
									c-0.4,0.1-0.7,0.4-0.9,0.8c-0.2,0.4-0.2,0.8-0.1,1.2c0.1,0.4,0.4,0.7,0.8,0.9c0.4,0.2,0.8,0.2,1.2,0.1h0.1
									c1.6-0.5,3.3,0,4.3,1.2c1.2,1.2,1.5,3,0.7,4.5l-0.1,0.1c-0.4,0.8-0.1,1.7,0.7,2s1.7,0.1,2-0.7l0.1-0.2
									c0.7-1.4,2.2-2.3,3.8-2.3c1.7,0.1,3.1,1.1,3.7,2.7v0.1c0.1,0.4,0.4,0.7,0.8,0.9c0.4,0.2,0.8,0.2,1.2,0.1s0.7-0.4,0.9-0.8
									s0.2-0.8,0.1-1.2v-0.1c-0.5-1.6,0-3.3,1.2-4.4c1.2-1,2.9-1.3,4.4-0.6l0.1,0.1c0.8,0.4,1.7,0.1,2-0.7c0.4-0.8,0.1-1.7-0.7-2
									l-0.2-0.1c-1.4-0.7-2.3-2.2-2.3-3.8c0-0.1,0-0.3,0.1-0.4c0.2-1.5,1.2-2.8,2.7-3.4h0.1c0.4-0.1,0.7-0.4,0.9-0.8
									s0.2-0.8,0.1-1.2c-0.1-0.4-0.4-0.7-0.8-0.9c-0.4-0.2-0.8-0.2-1.2-0.1h-0.1c-1.6,0.5-3.3,0-4.4-1.2c-1.1-1.2-1.3-3-0.6-4.4
									l0.1-0.1c0.4-0.8,0.1-1.7-0.7-2c-0.8-0.4-1.7-0.1-2,0.7l-0.1,0.2c-0.7,1.4-2.2,2.3-3.8,2.3C113,66.1,112.8,66.1,112.7,66
									 M125.7,77.6c0,0.3,0.2,0.6,0.5,0.7l0.2,0.1c2.2,1.1,3.2,3.8,2.1,6c-1.1,2.2-3.8,3.2-6,2.1l-0.1-0.1
									c-0.3-0.2-0.8-0.1-1.1,0.1c-0.3,0.3-0.4,0.7-0.3,1v0.1c0.4,1.1,0.3,2.4-0.2,3.4c-0.5,1.1-1.5,1.9-2.6,2.3s-2.4,0.3-3.4-0.2
									s-1.9-1.5-2.3-2.6v-0.1c-0.1-0.4-0.5-0.6-0.9-0.6s-0.8,0.2-0.9,0.5l-0.1,0.2c-1.1,2.2-3.8,3.2-6,2.1s-3.2-3.8-2.1-6
									c0.2-0.5,0.1-0.9-0.2-1.2c-0.3-0.3-0.7-0.4-1-0.3h-0.1c-1.1,0.4-2.4,0.3-3.4-0.2c-1.1-0.5-1.9-1.5-2.3-2.6s-0.3-2.4,0.2-3.4
									c0.5-1.1,1.5-1.9,2.6-2.3h0.1c0.4-0.1,0.6-0.5,0.6-0.9s-0.2-0.8-0.5-0.9l-0.2-0.1c-2.2-1.1-3.2-3.8-2.1-6s3.8-3.2,6-2.1
									c0.5,0.2,0.9,0.1,1.2-0.2c0.3-0.3,0.4-0.7,0.3-1v-0.1c-0.4-1.1-0.3-2.4,0.2-3.4s1.5-1.9,2.6-2.3c1.1-0.4,2.4-0.3,3.4,0.2
									c1.1,0.5,1.9,1.5,2.3,2.6v0.1c0.1,0.4,0.5,0.6,0.9,0.6c0.1,0,0.2,0,0.3,0c0.3,0,0.6-0.2,0.7-0.5l0.1-0.2
									c1.1-2.2,3.8-3.2,6-2.1c2.2,1.1,3.2,3.8,2.1,6l-0.1,0.1c-0.2,0.4-0.1,0.8,0.2,1.1c0.3,0.3,0.7,0.4,1,0.3h0.1
									c1.1-0.4,2.4-0.3,3.4,0.2c1.1,0.5,1.9,1.5,2.3,2.6c0.4,1.1,0.3,2.4-0.2,3.4c-0.5,1.1-1.5,1.9-2.6,2.3h-0.1
									c-0.4,0.1-0.6,0.5-0.6,0.9C125.8,77.4,125.8,77.5,125.7,77.6"/>
							</defs>
							<clipPath id="SVGID_88_">
								<use xlink:href="#SVGID_87_"  style="overflow:visible;"/>
							</clipPath>
							<g class="st43">
								<g>
									<defs>
										
											<rect id="SVGID_89_" x="94.4" y="58.6" transform="matrix(0.4384 -0.8988 0.8988 0.4384 -5.7758 144.0315)" width="36" height="36"/>
									</defs>
									<clipPath id="SVGID_90_">
										<use xlink:href="#SVGID_89_"  style="overflow:visible;"/>
									</clipPath>
									
										<rect x="89.4" y="53.6" transform="matrix(0.4384 -0.8988 0.8988 0.4384 -5.7758 144.0315)" class="st44" width="46" height="46"/>
								</g>
							</g>
						</g>
					</g>
				</g>
			</g>
		</g>
	</g>
</g>
<g>
	<g>
		<defs>
			<path id="SVGID_91_" d="M111.3,78.9c1.3,0.7,3,0.1,3.6-1.2c0.7-1.3,0.1-3-1.2-3.6c-1.3-0.7-3-0.1-3.6,1.2
				C109.4,76.7,109.9,78.3,111.3,78.9z M110.1,81.4c-2.7-1.3-3.8-4.5-2.5-7.2s4.5-3.8,7.2-2.5c2.7,1.3,3.8,4.5,2.5,7.2
				C116,81.6,112.8,82.7,110.1,81.4z"/>
		</defs>
		<clipPath id="SVGID_92_">
			<use xlink:href="#SVGID_91_"  style="overflow:visible;"/>
		</clipPath>
		<g class="st45">
			<g>
				<g>
					<defs>
						<rect id="SVGID_93_" x="87.4" y="51.6" width="50" height="50"/>
					</defs>
					<clipPath id="SVGID_94_">
						<use xlink:href="#SVGID_93_"  style="overflow:visible;"/>
					</clipPath>
					<g class="st46">
						<g>
							<defs>
								
									<rect id="SVGID_95_" x="105.5" y="69.7" transform="matrix(0.4384 -0.8988 0.8988 0.4384 -5.7237 144.1474)" width="14" height="14"/>
							</defs>
							<clipPath id="SVGID_96_">
								<use xlink:href="#SVGID_95_"  style="overflow:visible;"/>
							</clipPath>
							
								<rect x="102" y="66.1" transform="matrix(0.4384 -0.8988 0.8988 0.4384 -5.6294 144.0309)" class="st47" width="20.8" height="20.8"/>
						</g>
					</g>
				</g>
				<g>
					<defs>
						<rect id="SVGID_97_" x="87.4" y="51.6" width="50" height="50"/>
					</defs>
					<clipPath id="SVGID_98_">
						<use xlink:href="#SVGID_97_"  style="overflow:visible;"/>
					</clipPath>
					<g class="st48">
						<g>
							<defs>
								
									<rect id="SVGID_99_" x="94" y="58" transform="matrix(0.4384 -0.8988 0.8988 0.4384 -5.8155 143.6067)" width="36" height="36.9"/>
							</defs>
							<clipPath id="SVGID_100_">
								<use xlink:href="#SVGID_99_"  style="overflow:visible;"/>
							</clipPath>
							<g class="st49">
								<g>
									<defs>
										
											<rect id="SVGID_101_" x="94" y="58" transform="matrix(0.4384 -0.8988 0.8988 0.4384 -5.8652 143.5886)" width="36" height="37"/>
									</defs>
									<clipPath id="SVGID_102_">
										<use xlink:href="#SVGID_101_"  style="overflow:visible;"/>
									</clipPath>
									<g class="st50">
										<g>
											<defs>
												
													<rect id="SVGID_103_" x="105.3" y="69.2" transform="matrix(0.4384 -0.8988 0.8988 0.4384 -5.4215 143.7551)" width="14" height="14"/>
											</defs>
											<clipPath id="SVGID_104_">
												<use xlink:href="#SVGID_103_"  style="overflow:visible;"/>
											</clipPath>
											
												<rect x="89" y="53" transform="matrix(0.4384 -0.8988 0.8988 0.4384 -5.8652 143.5886)" class="st51" width="46" height="47"/>
										</g>
									</g>
								</g>
							</g>
						</g>
					</g>
				</g>
			</g>
		</g>
	</g>
</g>
</svg>
