<?xml version="1.0" encoding="utf-8"?>
<!-- Generator: Adobe Illustrator 23.0.2, SVG Export Plug-In . SVG Version: 6.00 Build 0)  -->
<svg version="1.1" id="Ebene_1" xmlns="http://www.w3.org/2000/svg" xmlns:xlink="http://www.w3.org/1999/xlink" x="0px" y="0px"
	 viewBox="0 0 180.4 110" style="enable-background:new 0 0 180.4 110;" xml:space="preserve">
<style type="text/css">
	.st0{display:none;}
	.st1{display:inline;fill-rule:evenodd;clip-rule:evenodd;fill:#FFFFFF;}
	.st2{display:inline;}
	.st3{display:inline;fill-rule:evenodd;clip-rule:evenodd;fill:#064E9D;}
	.st4{display:inline;fill:none;stroke:#FEFEFE;stroke-width:3;}
	.st5{display:inline;opacity:0.75;fill-rule:evenodd;clip-rule:evenodd;fill:#7A9CAE;enable-background:new    ;}
	.st6{display:inline;fill-rule:evenodd;clip-rule:evenodd;fill:#EE7D0A;fill-opacity:0.75;}
	.st7{display:inline;fill:none;stroke:#FFFFFF;stroke-width:3;}
	.st8{display:inline;opacity:0.5;fill-rule:evenodd;clip-rule:evenodd;fill:#FFFFFF;enable-background:new    ;}
	.st9{display:inline;fill-rule:evenodd;clip-rule:evenodd;fill:#004D9F;}
	.st10{display:inline;opacity:0.75;fill-rule:evenodd;clip-rule:evenodd;fill:#017C8E;enable-background:new    ;}
	.st11{display:inline;opacity:0.75;fill-rule:evenodd;clip-rule:evenodd;fill:#5FBBBA;enable-background:new    ;}
	.st12{fill-rule:evenodd;clip-rule:evenodd;fill:#FFFFFF;fill-opacity:0.5;}
	.st13{fill:#004D9F;}
	.st14{fill:none;stroke:#FFFFFF;stroke-width:3;stroke-miterlimit:10;}
	.st15{opacity:0.75;enable-background:new    ;}
	.st16{clip-path:url(#SVGID_2_);}
	.st17{clip-path:url(#SVGID_4_);}
	.st18{clip-path:url(#SVGID_6_);fill:#B0D0C5;}
	.st19{clip-path:url(#SVGID_8_);}
	.st20{clip-path:url(#SVGID_10_);fill:none;stroke:#FFFFFF;stroke-width:3;stroke-miterlimit:10;}
	.st21{clip-path:url(#SVGID_12_);}
	.st22{clip-path:url(#SVGID_14_);}
	.st23{clip-path:url(#SVGID_16_);fill:#5FBBBA;}
	.st24{clip-path:url(#SVGID_18_);}
	.st25{clip-path:url(#SVGID_20_);fill:none;stroke:#FFFFFF;stroke-width:3;stroke-miterlimit:10;}
</style>
<g class="st0">
	<title>icon/desktop_ZWH/stars</title>
	<desc>Created with Sketch.</desc>
	<path class="st1" d="M66.4,29.6c-3,5-7.5,8.5-13.7,10.3l11.5,6.5c-0.4,0.4-0.7,0.8-1,1.3c-1.8,3.1-0.8,7.1,2.3,8.8
		c3.1,1.8,7.1,0.7,9-2.4c0.3-0.5,0.5-1,0.7-1.5L87,59.3c-1.4-6.1-0.7-11.7,2.3-16.8c4.4-7.5,13.1-17.7-0.3-25.3
		c-2.9-1.7-5.4-2.4-7.6-2.4C73.5,14.8,69.8,23.7,66.4,29.6z"/>
	<g id="Clip-16" class="st2">
	</g>
	<polygon id="Fill-15" class="st3" points="66.7,24.3 127.7,34.8 115.3,103.1 54.4,92.6 	"/>
	<path id="Stroke-18" class="st4" d="M95.4,83.5c0.1,0.7,0,1.4-0.1,2.1c-0.8,4.5-5.2,7.6-9.7,6.8s-7.6-5.1-6.7-9.6
		c0.1-0.7,0.3-1.4,0.6-2l-16.7-2.9c6.6-4.9,10.5-11,11.9-18.3c2-11,2.1-28,21.6-24.6c19.5,3.4,13.7,19.4,11.7,30.4
		c-1.3,7.3,0.3,14.4,4.8,21.2L95.4,83.5z M65.7,78.2l44.5,7.7L65.7,78.2z"/>
	<g id="Clip-21" class="st2">
	</g>
	<polygon id="Fill-20" class="st5" points="69.7,0 113.7,24.8 84.8,73.8 40.8,49 	"/>
	<g id="Clip-24" class="st2">
	</g>
	<polygon id="Fill-23" class="st6" points="79.1,59.9 120.8,36.3 148.1,82.7 106.4,106.3 	"/>
	<path id="Stroke-26" class="st4" d="M75.1,52.6c-0.1,0.5-0.4,1-0.7,1.5c-1.8,3.1-5.8,4.2-9,2.4c-3.1-1.8-4.2-5.7-2.3-8.8
		c0.3-0.5,0.6-0.9,1-1.3l-11.5-6.5c6.2-1.9,10.7-5.3,13.7-10.3c4.4-7.5,9.1-20,22.5-12.4s4.7,17.8,0.3,25.3c-3,5-3.7,10.6-2.3,16.8
		L75.1,52.6z M54.8,40.9l30.5,17.3L54.8,40.9z"/>
	<path id="Stroke-28" class="st4" d="M125.5,80.4c0.4,0.4,0.7,0.8,0.9,1.2c1.7,2.9,0.7,6.6-2.2,8.2c-2.9,1.6-6.7,0.6-8.4-2.3
		c-0.3-0.5-0.5-0.9-0.6-1.4l-10.7,6c1.3-5.7,0.6-11-2.1-15.7c-4.2-7-12.2-16.6,0.3-23.6c12.5-7.1,16.9,4.5,21,11.6
		c2.8,4.7,7,7.9,12.8,9.6L125.5,80.4z M106.4,91l28.5-16.1L106.4,91z"/>
	<path id="Stroke-3" class="st7" d="M-372.4,13.1l-8.4,6.1c-1.3,1-3.2,0.7-4.2-0.7c-0.5-0.7-0.7-1.6-0.5-2.4l3.1-13.4
		c0.3-1.1-0.2-2.3-1.1-3.1l-3.6-2.8l-8.7,6.3c-1.3,1-3.2,0.7-4.2-0.7c-0.5-0.7-0.7-1.6-0.5-2.4l3.1-13.4c0.3-1.1-0.2-2.3-1.1-3
		l-9.5-7.3c-1.3-1-1.6-2.9-0.5-4.2c0.5-0.7,1.3-1.1,2.1-1.2l11.9-1.2c1.1-0.1,2-0.8,2.5-1.8l6.1-14.3c0.7-1.5,2.4-2.2,3.9-1.6
		c0.7,0.3,1.3,0.9,1.6,1.6l6.2,14.3c0.4,1,1.4,1.7,2.5,1.8l0.8,0.1l0.1-0.2c0.7-1.5,2.4-2.2,3.9-1.6c0.7,0.3,1.3,0.9,1.6,1.6
		l0.3,0.8l5.1,0.5c1.6,0.2,2.9,1.6,2.7,3.3c-0.1,0.8-0.5,1.6-1.2,2.1l-3.1,2.4l2.3,5.3c0.4,1,1.4,1.7,2.5,1.8l4.3,0.4
		c0.8-0.4,1.7-0.4,2.5-0.1c0.2,0.1,0.5,0.2,0.7,0.4l4.4,0.4c1.6,0.2,2.9,1.6,2.7,3.3c-0.1,0.8-0.5,1.6-1.2,2.1l-2.3,1.7l3.4,7.9
		c0.4,1,1.4,1.7,2.5,1.8l11.8,1.2c1.6,0.2,2.9,1.6,2.7,3.3c-0.1,0.8-0.5,1.6-1.2,2.1l-9.5,7.3c-0.9,0.7-1.4,1.9-1.1,3.1l3.1,13.4
		c0.4,1.6-0.6,3.2-2.2,3.6c-0.8,0.2-1.7,0-2.4-0.5l-10.8-7.9c-1.1-0.8-2.5-0.8-3.5,0l-10.8,7.9c-1.3,1-3.2,0.7-4.2-0.7
		c-0.5-0.7-0.7-1.6-0.5-2.4l3.1-13.4c0.3-1.1-0.2-2.3-1.1-3.1L-372.4,13.1z"/>
	<polygon id="Fill-5" class="st8" points="-293.3,23.6 -293.3,48.9 -351.3,48.9 -400.1,4.5 -380.7,-48.8 	"/>
	<polygon id="Fill-8" class="st8" points="-293.3,28 -293.3,48.9 -355.4,48.9 -385.9,20 -366,-33.1 	"/>
	<polygon id="Fill-11" class="st8" points="-368.8,38.2 -349.3,-15.2 -293.3,33.6 -293.3,48.9 -356.6,48.9 	"/>
	<path id="Fill-14" class="st9" d="M-373.2-29.6l13.5,1.3c1.1,0.1,1.9,1.1,1.8,2.2c-0.1,0.5-0.3,1-0.8,1.4l-10.9,8.5
		c-0.6,0.5-0.9,1.3-0.7,2l3.5,15.2c0.2,1.1-0.4,2.1-1.5,2.4c-0.6,0.1-1.2,0-1.6-0.3l-12.2-9c-0.7-0.5-1.7-0.5-2.4,0l-12.2,9
		c-0.9,0.7-2.1,0.5-2.8-0.4c-0.3-0.5-0.5-1.1-0.3-1.6l3.5-15.2c0.2-0.8-0.1-1.6-0.7-2l-11.1-8.6c-0.9-0.7-1-1.9-0.4-2.8
		c0.3-0.4,0.8-0.7,1.4-0.8l13.6-1.3c0.7-0.1,1.4-0.5,1.6-1.2l6.6-15.5c0.4-1,1.6-1.5,2.6-1.1c0.5,0.2,0.9,0.6,1.1,1.1l6.7,15.5
		C-374.6-30.1-373.9-29.6-373.2-29.6"/>
	<path id="Fill-16" class="st10" d="M-358.1-13.7l13.5,1.3c1.1,0.1,1.9,1.1,1.8,2.2c-0.1,0.5-0.3,1-0.8,1.4l-10.9,8.5
		c-0.6,0.5-0.9,1.3-0.7,2l3.5,15.2c0.2,1.1-0.4,2.1-1.5,2.4c-0.6,0.1-1.2,0-1.6-0.3l-12.2-9c-0.7-0.5-1.7-0.5-2.4,0l-12.2,9
		c-0.9,0.7-2.1,0.5-2.8-0.4c-0.3-0.5-0.5-1.1-0.3-1.6l3.5-15.2c0.2-0.8-0.1-1.6-0.7-2l-10.9-8.5c-0.9-0.7-1-1.9-0.4-2.8
		c0.3-0.4,0.8-0.7,1.4-0.8l13.5-1.4c0.7-0.1,1.4-0.5,1.6-1.2l6.6-15.5c0.4-1,1.6-1.5,2.6-1.1c0.5,0.2,0.9,0.6,1.1,1.1l6.7,15.5
		C-359.5-14.2-358.8-13.7-358.1-13.7"/>
	<path id="Fill-18" class="st11" d="M-341.1,4.4l13.5,1.3c1.1,0.1,1.9,1.1,1.8,2.2c-0.1,0.5-0.3,1-0.8,1.4l-10.9,8.5
		c-0.6,0.5-0.9,1.3-0.7,2l3.5,15.2c0.2,1.1-0.4,2.1-1.5,2.4c-0.6,0.1-1.2,0-1.6-0.3l-12.2-9c-0.7-0.5-1.7-0.5-2.4,0l-12.2,9
		c-0.9,0.7-2.1,0.5-2.8-0.4c-0.3-0.5-0.5-1.1-0.3-1.6l3.5-15.2c0.2-0.8-0.1-1.6-0.7-2L-376,9.3c-0.9-0.7-1-1.9-0.4-2.8
		c0.3-0.4,0.8-0.7,1.4-0.8l13.6-1.3c0.7-0.1,1.4-0.5,1.6-1.2l6.6-15.5c0.4-1,1.6-1.5,2.6-1.1c0.5,0.2,0.9,0.6,1.1,1.1l6.7,15.5
		C-342.5,3.9-341.8,4.4-341.1,4.4"/>
</g>
<g id="Ebene_3">
	<polygon class="st12" points="102.2,95.5 120,110 180.4,110 180.4,106.2 140.5,73.7 	"/>
	<polygon id="Path" class="st12" points="64.2,75.9 58.8,78.8 96.2,110 180.4,110 180.4,99 107,37.7 	"/>
	<polygon class="st12" points="63.4,57.2 127.3,110 180.4,110 180.4,89.4 92.9,17.9 	"/>
</g>
<path class="st13" d="M67,77.2l42.5,7.5 M95.4,82.5c0,0.7,0,1.4-0.1,2c-0.8,4.4-4.9,7.4-9.3,6.6c-4.3-0.8-7.2-5-6.4-9.4
	c0.1-0.7,0.3-1.3,0.6-2l-16-2.8c6.3-4.8,10.1-10.7,11.3-17.9c1.9-10.7,2-27.3,20.6-24s13,18.9,11.1,29.6c-1.3,7.2,0.3,14,4.5,20.7
	L95.4,82.5z"/>
<path class="st14" d="M66.7,77.2l42.5,7.5 M95.1,82.5c0,0.7,0,1.4-0.1,2c-0.8,4.4-4.9,7.4-9.3,6.6c-4.3-0.8-7.2-5-6.4-9.4
	c0.1-0.7,0.3-1.3,0.6-2l-16-2.8C70.2,72.1,74,66.2,75.2,59c1.9-10.7,2-27.3,20.6-24s13,18.9,11.1,29.6c-1.3,7.2,0.3,14,4.5,20.7
	L95.1,82.5z"/>
<g class="st15">
	<g>
		<g>
			<defs>
				<rect id="SVGID_1_" x="48.1" y="-12.1" width="60.2" height="93.5"/>
			</defs>
			<clipPath id="SVGID_2_">
				<use xlink:href="#SVGID_1_"  style="overflow:visible;"/>
			</clipPath>
			<g class="st16">
				<g>
					<defs>
						<path id="SVGID_3_" d="M56.3,40.9l29.2,16.8 M75.6,52.3c-0.1,0.5-0.3,1-0.6,1.5c-1.8,3-5.6,4.1-8.6,2.4c-3-1.7-4-5.6-2.2-8.6
							c0.3-0.5,0.6-0.9,1-1.3L54.3,40c5.9-1.8,10.2-5.2,13.1-10.1c4.2-7.4,8.7-19.5,21.5-12.1s4.5,17.3,0.3,24.7
							c-2.8,4.9-3.6,10.4-2.2,16.4L75.6,52.3z"/>
					</defs>
					<clipPath id="SVGID_4_">
						<use xlink:href="#SVGID_3_"  style="overflow:visible;"/>
					</clipPath>
					<g class="st17">
						<g>
							<defs>
								<rect id="SVGID_5_" x="53.5" y="8.8" transform="matrix(0.5 -0.866 0.866 0.5 9.5043 91.0215)" width="60.2" height="57"/>
							</defs>
							<clipPath id="SVGID_6_">
								<use xlink:href="#SVGID_5_"  style="overflow:visible;"/>
							</clipPath>
							<rect x="50.2" y="12.8" transform="matrix(0.5 -0.866 0.866 0.5 6.8044 85.8716)" class="st18" width="55.2" height="48.5"/>
						</g>
					</g>
				</g>
			</g>
		</g>
		<g>
			<defs>
				<rect id="SVGID_7_" x="48.1" y="-12.1" width="60.2" height="93.5"/>
			</defs>
			<clipPath id="SVGID_8_">
				<use xlink:href="#SVGID_7_"  style="overflow:visible;"/>
			</clipPath>
			<g class="st19">
				<g>
					<defs>
						<rect id="SVGID_9_" x="50.3" y="13.7" width="60.2" height="57"/>
					</defs>
					<clipPath id="SVGID_10_">
						<use xlink:href="#SVGID_9_"  style="overflow:visible;"/>
					</clipPath>
					<path class="st20" d="M56.3,40.9l29.2,16.8 M75.6,52.3c-0.1,0.5-0.3,1-0.6,1.5c-1.8,3-5.6,4.1-8.6,2.4c-3-1.7-4-5.6-2.2-8.6
						c0.3-0.5,0.6-0.9,1-1.3L54.3,40c5.9-1.8,10.2-5.2,13.1-10.1c4.2-7.4,8.7-19.5,21.5-12.1s4.5,17.3,0.3,24.7
						c-2.8,4.9-3.6,10.4-2.2,16.4L75.6,52.3z"/>
				</g>
			</g>
		</g>
	</g>
</g>
<g class="st15">
	<g>
		<g>
			<defs>
				<rect id="SVGID_11_" x="67.5" y="39.5" width="89.2" height="58"/>
			</defs>
			<clipPath id="SVGID_12_">
				<use xlink:href="#SVGID_11_"  style="overflow:visible;"/>
			</clipPath>
			<g class="st21">
				<g>
					<defs>
						<path id="SVGID_13_" d="M105.6,89.7L132.8,74 M123.8,79.4c0.3,0.4,0.6,0.7,0.9,1.2c1.6,2.8,0.7,6.4-2.1,8s-6.4,0.6-8-2.2
							c-0.3-0.4-0.4-0.9-0.6-1.4l-10.2,5.9c1.3-5.6,0.6-10.7-2-15.3c-4-6.9-11.7-16.2,0.3-23c11.9-6.9,16.1,4.4,20.1,11.3
							c2.6,4.6,6.7,7.7,12.2,9.4L123.8,79.4z"/>
					</defs>
					<clipPath id="SVGID_14_">
						<use xlink:href="#SVGID_13_"  style="overflow:visible;"/>
					</clipPath>
					<g class="st22">
						<g>
							<defs>
								
									<rect id="SVGID_15_" x="80.9" y="41" transform="matrix(0.866 -0.5 0.5 0.866 -19.6067 63.6085)" width="55.9" height="54.8"/>
							</defs>
							<clipPath id="SVGID_16_">
								<use xlink:href="#SVGID_15_"  style="overflow:visible;"/>
							</clipPath>
							<rect x="89.5" y="44.4" transform="matrix(0.866 -0.5 0.5 0.866 -20.174 65.6766)" class="st23" width="46" height="52.2"/>
						</g>
					</g>
				</g>
			</g>
		</g>
		<g>
			<defs>
				<rect id="SVGID_17_" x="67.5" y="39.5" width="89.2" height="58"/>
			</defs>
			<clipPath id="SVGID_18_">
				<use xlink:href="#SVGID_17_"  style="overflow:visible;"/>
			</clipPath>
			<g class="st24">
				<g>
					<defs>
						<rect id="SVGID_19_" x="82.5" y="39.5" width="55.9" height="54.8"/>
					</defs>
					<clipPath id="SVGID_20_">
						<use xlink:href="#SVGID_19_"  style="overflow:visible;"/>
					</clipPath>
					<path class="st25" d="M105.6,89.7L132.8,74 M123.8,79.4c0.3,0.4,0.6,0.7,0.9,1.2c1.6,2.8,0.7,6.4-2.1,8c-2.8,1.6-6.4,0.6-8-2.2
						c-0.3-0.4-0.4-0.9-0.6-1.4l-10.2,5.9c1.3-5.6,0.6-10.7-2-15.3c-4-6.9-11.7-16.2,0.3-23s16.1,4.4,20.1,11.3
						c2.6,4.6,6.7,7.7,12.2,9.4L123.8,79.4z"/>
				</g>
			</g>
		</g>
	</g>
</g>
</svg>
