<?xml version="1.0" encoding="utf-8"?>
<!-- Generator: Adobe Illustrator 24.0.0, SVG Export Plug-In . SVG Version: 6.00 Build 0)  -->
<svg version="1.1" id="Ebene_1" xmlns="http://www.w3.org/2000/svg" xmlns:xlink="http://www.w3.org/1999/xlink" x="0px" y="0px"
	 viewBox="0 0 164 99" style="enable-background:new 0 0 164 99;" xml:space="preserve">
<style type="text/css">
	.st0{opacity:0.75;fill:#5FBBBA;stroke:#FFFFFF;stroke-width:2;stroke-miterlimit:10;enable-background:new    ;}
	.st1{clip-path:url(#SVGID_4_);fill:none;stroke:#FFFFFF;stroke-miterlimit:10;}
	.st2{fill:none;stroke:#FFFFFF;stroke-miterlimit:10;}
</style>
<path class="st0" d="M110.4,49.5H53.6v5.7h15.1L57.6,79.6c-0.6,1.4,0,3.1,1.4,3.7c0.3,0.3,0.6,0.3,0.9,0.3c1.1,0,2-0.6,2.6-1.7
	l4.3-9.4h30.4l4.3,9.4c0.6,1.1,1.4,1.7,2.6,1.7c0.3,0,0.9,0,1.1-0.3c1.4-0.6,2-2.3,1.4-3.7L95.4,55.2h15.1V49.5z M89.4,55.8
	l5.1,11.4H69.2l5.1-11.4c0-0.3,0-0.3,0-0.6h14.5C89.4,55.5,89.4,55.5,89.4,55.8z"/>
<rect id="SVGID_1_" x="53.6" y="15.4" class="st0" width="56.9" height="39.8"/>
<title>icon/desktop_ZWH/content</title>
<desc>Created with Sketch.</desc>
<rect x="53.6" y="49.5" class="st0" width="56.9" height="5.7"/>
<g>
	<g>
		<g>
			<g>
				<defs>
					<rect id="SVGID_3_" x="53.6" y="15.4" width="56.9" height="39.8"/>
				</defs>
				<clipPath id="SVGID_4_">
					<use xlink:href="#SVGID_3_"  style="overflow:visible;"/>
				</clipPath>
				<rect x="53.6" y="15.4" class="st1" width="56.9" height="39.8"/>
			</g>
		</g>
	</g>
	<g>
		<rect id="SVGID_2_" x="53.6" y="15.4" class="st2" width="56.9" height="39.8"/>
	</g>
</g>
</svg>
