<?xml version="1.0" encoding="utf-8"?>
<!-- Generator: Adobe Illustrator 24.0.0, SVG Export Plug-In . SVG Version: 6.00 Build 0)  -->
<svg version="1.1" id="Ebene_1" xmlns="http://www.w3.org/2000/svg" xmlns:xlink="http://www.w3.org/1999/xlink" x="0px" y="0px"
	 viewBox="0 0 180.4 110" style="enable-background:new 0 0 180.4 110;" xml:space="preserve">
<style type="text/css">
	.st0{opacity:0.75;enable-background:new    ;}
	.st1{fill:#5FBBBA;stroke:#FFFFFF;stroke-width:2;stroke-miterlimit:10;}
</style>
<g id="Ebene_2_1_" class="st0">
	<path class="st1" d="M60.3,80.5c-1.3,0-1.3,1.3-1.3,1.3v2.6c0,1.3,1.3,1.3,1.3,1.3H120c1.3,0,1.3-1.3,1.3-1.3v-2.6
		c0-1.3-1.3-1.3-1.3-1.3H60.3z"/>
	<path class="st1" d="M103.1,46.7c0,0-1.3,0-1.3,1.3v24.4c0,0,0,0,0,0.3h-6.5c0,0,0,0,0-0.3V48c0,0,0-1.3-1.3-1.3h-7.8
		c0,0-1.3,0-1.3,1.3v24.4c0,0,0,0,0,0.3h-6.5c0,0,0,0,0-0.3V48c0,0,0-1.3-1.3-1.3h-7.8c0,0-1.3,0-1.3,1.3v24.4c0,0,0,0,0,0.3h-3.9
		c-1.3,0-1.3,1.3-1.3,1.3v2.6c0,1.3,1.3,1.3,1.3,1.3H116c1.3,0,1.3-1.3,1.3-1.3V74c0-1.3-1.3-1.3-1.3-1.3h-3.9c0,0,0,0,0-0.3V48
		c0,0,0-1.3-1.3-1.3C110.8,46.8,103.1,46.8,103.1,46.7z"/>
	<path class="st1" d="M90.2,24.2c-1.3,0-2.1,0.5-2.1,0.5l-27,17.9c-2.1,1.6,0.5,1.6,0.5,1.6h57.1c2.6,0,0.5-1.6,0.5-1.6L92.2,25
		C91.7,24.4,90.9,24.2,90.2,24.2C90.4,24.2,90.2,24.2,90.2,24.2z"/>
</g>
</svg>
