<?xml version="1.0" encoding="UTF-8"?>
<svg width="93px" height="85px" viewBox="0 0 93 85" version="1.1" xmlns="http://www.w3.org/2000/svg" xmlns:xlink="http://www.w3.org/1999/xlink">
    <title>icon/4.0/desktop_IQ/stars</title>
    <g id="icon/4.0/desktop_IQ/stars" stroke="none" stroke-width="1" fill="none" fill-rule="evenodd">
        <g id="Group-10" transform="translate(2.000000, 2.000000)">
            <path d="M24.3857421,-0.755811662 C25.0978427,-1.04282867 25.9194367,-1.05818843 26.6817377,-0.733860542 C27.392439,-0.431486249 27.9591407,0.133339545 28.2638697,0.843034384 L28.2638697,0.843034384 L34.934996,16.3796714 C35.0068319,16.5469728 35.1212999,16.6881376 35.263105,16.7919666 C35.40491,16.8957957 35.5740521,16.9622891 35.7552362,16.9802478 L35.7552362,16.9802478 L49.2719621,18.3200103 C50.0963495,18.4017227 50.8095718,18.8098483 51.2962691,19.4036427 C51.7829664,19.9974372 52.0431388,20.7769004 51.9614264,21.6012878 C51.8801334,22.4214443 51.4650048,23.1720351 50.8135082,23.6768296 L50.8135082,23.6768296 L39.9017166,32.1315362 C39.7477251,32.2508524 39.6353935,32.4094563 39.5724531,32.585699 C39.5095127,32.7619418 39.4959637,32.9558232 39.5395372,33.1456945 L39.5395372,33.1456945 L43.0186322,48.3058146 C43.2039311,49.1132524 43.0444088,49.9193573 42.6367025,50.5699275 C42.2289961,51.2204977 41.5731055,51.7155332 40.7656677,51.9008321 C39.9149179,52.0960706 39.0213209,51.9111003 38.317986,51.3941735 L38.317986,51.3941735 L26.0910249,42.4077826 C25.914851,42.2783009 25.7068288,42.2135601 25.4988065,42.2135601 C25.2907843,42.2135601 25.082762,42.2783009 24.9065881,42.4077826 L24.9065881,42.4077826 L12.6796271,51.3941735 C12.0120992,51.8847833 11.2089071,52.058378 10.4499446,51.9424382 C9.69098215,51.8264984 8.97624919,51.4210242 8.4856394,50.7534963 C7.96871265,50.0501613 7.78374231,49.1565644 7.97898083,48.3058146 L7.97898083,48.3058146 L11.4580758,33.1456945 C11.5016494,32.9558232 11.4881003,32.7619418 11.4251599,32.585699 C11.3622196,32.4094563 11.2498879,32.2508524 11.0958964,32.1315362 L11.0958964,32.1315362 L0.186457943,23.6786529 C-0.468399459,23.1712544 -0.855597672,22.4464578 -0.952231897,21.6847965 C-1.04886612,20.9231352 -0.85493636,20.1246092 -0.347537815,19.4697518 C0.15751677,18.8179195 0.908607858,18.4027139 1.72922001,18.3217133 L1.72922001,18.3217133 L15.319771,16.9802229 C15.5016261,16.9622725 15.6713422,16.8954323 15.8134801,16.7910417 C15.955618,16.6866511 16.0701776,16.54471 16.1417196,16.3765576 L16.1417196,16.3765576 L22.7467062,0.852180655 C23.0710341,0.089879584 23.6736414,-0.468794659 24.3857421,-0.755811662 Z" id="03-blau" stroke="#FFFFFF" stroke-width="2" fill="#004D9F"></path>
            <g id="Group-2" transform="translate(19.000000, 15.026161)">
                <path d="M35.6327845,17.9492109 L49.1495105,19.2889734 C50.2486937,19.3979232 51.0514365,20.3773085 50.9424867,21.4764917 C50.8882914,22.0232627 50.611539,22.5236566 50.1772079,22.8601863 L39.2654163,31.3148928 C38.6494501,31.7921576 38.3667633,32.5837244 38.5410574,33.3432095 L42.0201524,48.5033295 C42.2672176,49.5799133 41.5947599,50.6529427 40.5181761,50.9000079 C39.9510096,51.0301669 39.3552783,50.9068533 38.8863883,50.5622355 L26.6594273,41.5758446 C25.9547317,41.0579178 24.9952492,41.0579178 24.2905536,41.5758446 L12.0635926,50.5622355 C11.1735553,51.2163819 9.92174718,51.0251546 9.26760079,50.1351173 C8.92298296,49.6662274 8.7996694,49.0704961 8.92982841,48.5033295 L12.4089234,33.3432095 C12.5832176,32.5837244 12.3005308,31.7921576 11.6845645,31.3148928 L0.775126077,22.8620095 C-0.0980171257,22.1854782 -0.257402489,20.9292187 0.419128905,20.0560755 C0.755831962,19.6215206 1.25655935,19.3447169 1.80363412,19.2907165 L15.3941851,17.9492261 C16.1216054,17.8774242 16.7519144,17.4145052 17.0380823,16.7418955 L23.6430689,1.2175185 C24.0755061,0.201117076 25.2500218,-0.272279478 26.2664233,0.160157706 C26.7402241,0.361740567 27.1180252,0.738291097 27.3211779,1.21142099 L33.9923042,16.748058 C34.279648,17.4172639 34.9080482,17.8773759 35.6327845,17.9492109 Z" id="02-gr端n" fill-opacity="0.75" fill="#017C8E"></path>
                <path d="M24.361926,-0.781972207 C25.0740266,-1.06898921 25.8956206,-1.08434897 26.6579217,-0.760021086 C27.3686229,-0.457646793 27.9353246,0.107179001 28.2400536,0.816873839 L28.2400536,0.816873839 L34.9111799,16.3535108 C34.9830158,16.5208123 35.0974838,16.661977 35.2392889,16.7658061 C35.3810939,16.8696352 35.550236,16.9361285 35.7314201,16.9540873 L35.7314201,16.9540873 L49.248146,18.2938498 C50.0725334,18.3755621 50.7857557,18.7836878 51.272453,19.3774822 C51.7591503,19.9712766 52.0193227,20.7507398 51.9376103,21.5751272 C51.8563174,22.3952838 51.4411887,23.1458746 50.7896921,23.6506691 L50.7896921,23.6506691 L39.8779006,32.1053757 C39.723909,32.2246919 39.6115774,32.3832958 39.548637,32.5595385 C39.4856966,32.7357812 39.4721476,32.9296627 39.5157211,33.119534 L39.5157211,33.119534 L42.9948161,48.279654 C43.180115,49.0870918 43.0205928,49.8931968 42.6128864,50.543767 C42.20518,51.1943372 41.5492894,51.6893727 40.7418516,51.8746715 C39.8911018,52.0699101 38.9975048,51.8849397 38.2941699,51.368013 L38.2941699,51.368013 L26.0672088,42.381622 C25.891035,42.2521404 25.6830127,42.1873995 25.4749904,42.1873995 C25.2669682,42.1873995 25.0589459,42.2521404 24.882772,42.381622 L24.882772,42.381622 L12.655811,51.368013 C11.9882831,51.8586228 11.185091,52.0322174 10.4261286,51.9162777 C9.66716606,51.8003379 8.9524331,51.3948637 8.4618233,50.7273358 C7.94489656,50.0240008 7.75992622,49.1304038 7.95516474,48.279654 L7.95516474,48.279654 L11.4342597,33.119534 C11.4778333,32.9296627 11.4642842,32.7357812 11.4013439,32.5595385 C11.3384035,32.3832958 11.2260719,32.2246919 11.0720803,32.1053757 L11.0720803,32.1053757 L0.162641852,23.6524924 C-0.49221555,23.1450938 -0.879413762,22.4202972 -0.976047987,21.6586359 C-1.07268221,20.8969747 -0.878752451,20.0984487 -0.371353906,19.4435912 C0.13370068,18.791759 0.884791768,18.3765534 1.70540392,18.2955528 L1.70540392,18.2955528 L15.2959549,16.9540624 C15.47781,16.9361119 15.6475261,16.8692718 15.789664,16.7648812 C15.9318019,16.6604906 16.0463615,16.5185495 16.1179035,16.3503971 L16.1179035,16.3503971 L22.7228901,0.82602011 C23.047218,0.0637190397 23.6498253,-0.494955203 24.361926,-0.781972207 Z" id="02-gr端n" stroke="#FFFFFF" stroke-width="2"></path>
            </g>
            <g id="Group" transform="translate(38.000000, 30.026161)">
                <path d="M35.6327845,17.9492109 L49.1495105,19.2889734 C50.2486937,19.3979232 51.0514365,20.3773085 50.9424867,21.4764917 C50.8882914,22.0232627 50.611539,22.5236566 50.1772079,22.8601863 L39.2654163,31.3148928 C38.6494501,31.7921576 38.3667633,32.5837244 38.5410574,33.3432095 L42.0201524,48.5033295 C42.2672176,49.5799133 41.5947599,50.6529427 40.5181761,50.9000079 C39.9510096,51.0301669 39.3552783,50.9068533 38.8863883,50.5622355 L26.6594273,41.5758446 C25.9547317,41.0579178 24.9952492,41.0579178 24.2905536,41.5758446 L12.0635926,50.5622355 C11.1735553,51.2163819 9.92174718,51.0251546 9.26760079,50.1351173 C8.92298296,49.6662274 8.7996694,49.0704961 8.92982841,48.5033295 L12.4089234,33.3432095 C12.5832176,32.5837244 12.3005308,31.7921576 11.6845645,31.3148928 L0.775126077,22.8620095 C-0.0980171257,22.1854782 -0.257402489,20.9292187 0.419128905,20.0560755 C0.755831962,19.6215206 1.25655935,19.3447169 1.80363412,19.2907165 L15.3941851,17.9492261 C16.1216054,17.8774242 16.7519144,17.4145052 17.0380823,16.7418955 L23.6430689,1.2175185 C24.0755061,0.201117076 25.2500218,-0.272279478 26.2664233,0.160157706 C26.7402241,0.361740567 27.1180252,0.738291097 27.3211779,1.21142099 L33.9923042,16.748058 C34.279648,17.4172639 34.9080482,17.8773759 35.6327845,17.9492109 Z" id="01-t端rkis" fill-opacity="0.75" fill="#5FBBBA"></path>
                <path d="M24.361926,-0.781972207 C25.0740266,-1.06898921 25.8956206,-1.08434897 26.6579217,-0.760021086 C27.3686229,-0.457646793 27.9353246,0.107179001 28.2400536,0.816873839 L28.2400536,0.816873839 L34.9111799,16.3535108 C34.9830158,16.5208123 35.0974838,16.661977 35.2392889,16.7658061 C35.3810939,16.8696352 35.550236,16.9361285 35.7314201,16.9540873 L35.7314201,16.9540873 L49.248146,18.2938498 C50.0725334,18.3755621 50.7857557,18.7836878 51.272453,19.3774822 C51.7591503,19.9712766 52.0193227,20.7507398 51.9376103,21.5751272 C51.8563174,22.3952838 51.4411887,23.1458746 50.7896921,23.6506691 L50.7896921,23.6506691 L39.8779006,32.1053757 C39.723909,32.2246919 39.6115774,32.3832958 39.548637,32.5595385 C39.4856966,32.7357812 39.4721476,32.9296627 39.5157211,33.119534 L39.5157211,33.119534 L42.9948161,48.279654 C43.180115,49.0870918 43.0205928,49.8931968 42.6128864,50.543767 C42.20518,51.1943372 41.5492894,51.6893727 40.7418516,51.8746715 C39.8911018,52.0699101 38.9975048,51.8849397 38.2941699,51.368013 L38.2941699,51.368013 L26.0672088,42.381622 C25.891035,42.2521404 25.6830127,42.1873995 25.4749904,42.1873995 C25.2669682,42.1873995 25.0589459,42.2521404 24.882772,42.381622 L24.882772,42.381622 L12.655811,51.368013 C11.9882831,51.8586228 11.185091,52.0322174 10.4261286,51.9162777 C9.66716606,51.8003379 8.9524331,51.3948637 8.4618233,50.7273358 C7.94489656,50.0240008 7.75992622,49.1304038 7.95516474,48.279654 L7.95516474,48.279654 L11.4342597,33.119534 C11.4778333,32.9296627 11.4642842,32.7357812 11.4013439,32.5595385 C11.3384035,32.3832958 11.2260719,32.2246919 11.0720803,32.1053757 L11.0720803,32.1053757 L0.162641852,23.6524924 C-0.49221555,23.1450938 -0.879413762,22.4202972 -0.976047987,21.6586359 C-1.07268221,20.8969747 -0.878752451,20.0984487 -0.371353906,19.4435912 C0.13370068,18.791759 0.884791768,18.3765534 1.70540392,18.2955528 L1.70540392,18.2955528 L15.2959549,16.9540624 C15.47781,16.9361119 15.6475261,16.8692718 15.789664,16.7648812 C15.9318019,16.6604906 16.0463615,16.5185495 16.1179035,16.3503971 L16.1179035,16.3503971 L22.7228901,0.82602011 C23.047218,0.0637190397 23.6498253,-0.494955203 24.361926,-0.781972207 Z" id="01-t端rkis" stroke="#FFFFFF" stroke-width="2"></path>
            </g>
        </g>
    </g>
</svg>