<?xml version="1.0" encoding="UTF-8" standalone="no"?>
<!DOCTYPE svg PUBLIC "-//W3C//DTD SVG 1.1//EN" "http://www.w3.org/Graphics/SVG/1.1/DTD/svg11.dtd">
<svg width="100%" height="100%" viewBox="0 0 256 256" version="1.1" xmlns="http://www.w3.org/2000/svg" xmlns:xlink="http://www.w3.org/1999/xlink" xml:space="preserve" xmlns:serif="http://www.serif.com/" style="fill-rule:evenodd;clip-rule:evenodd;">
    <g transform="matrix(3.14189,0,0,3.08938,8.03442e-07,-2.22799e-07)">
        <g id="icon-4.0-desktop_IQ-news" serif:id="icon/4.0/desktop_IQ/news">
            <g id="Group">
                <g id="Group-3">
                    <g id="Combined-Shape" transform="matrix(0.984808,0.173648,-0.173648,0.984808,9.43049,-5.78206)">
                        <path d="M37.76,24.504C52.55,24.504 53.077,35.232 52.867,44.672L52.851,45.344C52.811,46.906 52.76,48.424 52.76,49.843C52.76,56.6 55.26,62.665 60.26,68.04L44.717,68.04C44.869,68.645 44.951,69.279 44.951,69.933C44.951,74.115 41.627,77.504 37.528,77.504C33.428,77.504 30.105,74.115 30.105,69.933C30.105,69.279 30.186,68.645 30.339,68.04L15.26,68.04C20.26,62.665 22.76,56.6 22.76,49.843C22.76,48.424 22.709,46.906 22.669,45.344L22.653,44.672C22.443,35.232 22.97,24.504 37.76,24.504ZM17.907,67.804L58.077,67.804" style="fill:rgb(0,77,159);stroke:white;stroke-width:2px;"/>
                    </g>
                    <g id="Combined-Shape1" serif:id="Combined-Shape" transform="matrix(0.866025,0.5,-0.5,0.866025,16.7532,-9.18994)">
                        <path d="M25.525,6.004C39.254,6.004 37.221,17.858 37.221,25.761C37.221,31.03 39.171,35.759 43.069,39.95L30.95,39.95C31.069,40.422 31.132,40.916 31.132,41.426C31.132,44.687 28.541,47.33 25.344,47.33C22.148,47.33 19.557,44.687 19.557,41.426C19.557,40.916 19.62,40.422 19.739,39.95L7.981,39.95C11.88,35.759 13.829,31.03 13.829,25.761C13.829,24.497 13.777,23.131 13.746,21.729L13.731,20.937C13.626,13.781 14.405,6.004 25.525,6.004ZM10.045,39.766L41.367,39.766" style="fill:rgb(176,208,197);fill-opacity:0.75;stroke:white;stroke-width:2px;"/>
                    </g>
                    <g id="Combined-Shape2" serif:id="Combined-Shape" transform="matrix(0.866025,-0.5,0.5,0.866025,-21.2018,36.6742)">
                        <path d="M57.834,38.606C68.218,38.606 68.945,45.868 68.847,52.55L68.838,53.043C68.81,54.439 68.755,55.8 68.755,57.054C68.755,61.974 70.576,66.39 74.216,70.304L62.899,70.303C63.01,70.743 63.07,71.206 63.07,71.682C63.07,74.726 60.65,77.194 57.665,77.194C54.681,77.194 52.261,74.726 52.261,71.682C52.261,71.206 52.32,70.743 52.431,70.303L41.452,70.304C45.093,66.39 46.913,61.974 46.913,57.054C46.913,49.675 45.015,38.606 57.834,38.606ZM43.38,70.131L72.627,70.131" style="fill:rgb(95,187,186);fill-opacity:0.75;stroke:white;stroke-width:2px;"/>
                    </g>
                </g>
            </g>
        </g>
    </g>
</svg>
