<?xml version="1.0" encoding="UTF-8"?>
<svg width="26px" height="31px" viewBox="0 0 26 31" version="1.1" xmlns="http://www.w3.org/2000/svg" xmlns:xlink="http://www.w3.org/1999/xlink">
    <!-- Generator: Sketch 51.3 (57544) - http://www.bohemiancoding.com/sketch -->
    <title>icon_xvid</title>
    <desc>Created with Sketch.</desc>
    <defs></defs>
    <g id="Page-1" stroke="none" stroke-width="1" fill="none" fill-rule="evenodd">
        <g id="icon_xvid" fill="#FFFFFF" fill-rule="nonzero">
            <path d="M21.1336706,23.5898747 L21.1336706,27.3988006 L24.1878854,27.3988006 L24.1878854,23.5898747 L21.1336706,23.5898747 Z M1.76861351,23.5898747 L1.76861351,27.3988006 L4.82282836,27.3988006 L4.82282836,23.5898747 L1.76861351,23.5898747 Z M0.80829688,0.994091976 L25.2013178,0.994091976 L25.2013178,30.994092 L0.80829688,30.994092 L0.80829688,0.994091976 Z M5.82416611,2.31947506 L5.82416611,14.0654955 L20.1355895,14.0654955 L20.1355895,2.31947506 L5.82416611,2.31947506 Z M5.82416611,17.367132 L5.82416611,29.1131524 L20.1355895,29.1131524 L20.1355895,17.367132 L5.82416611,17.367132 Z M1.76861351,3.74804832 L1.76861351,7.55697429 L4.82282836,7.55697429 L4.82282836,3.74804832 L1.76861351,3.74804832 Z M1.76861351,8.70850491 L1.76861351,12.5174309 L4.82282836,12.5174309 L4.82282836,8.70850491 L1.76861351,8.70850491 Z M1.76861351,13.7576012 L1.76861351,17.5665272 L4.82282836,17.5665272 L4.82282836,13.7576012 L1.76861351,13.7576012 Z M1.76861351,18.7180001 L1.76861351,22.526926 L4.82282836,22.526926 L4.82282836,18.7180001 L1.76861351,18.7180001 Z M21.1336706,3.74804832 L21.1336706,7.55697429 L24.1878854,7.55697429 L24.1878854,3.74804832 L21.1336706,3.74804832 Z M21.1336706,8.70850491 L21.1336706,12.5174309 L24.1878854,12.5174309 L24.1878854,8.70850491 L21.1336706,8.70850491 Z M21.1336706,13.7576012 L21.1336706,17.5665272 L24.1878854,17.5665272 L24.1878854,13.7576012 L21.1336706,13.7576012 Z M21.1336706,18.7180001 L21.1336706,22.526926 L24.1878854,22.526926 L24.1878854,18.7180001 L21.1336706,18.7180001 Z" id="path-2"></path>
        </g>
    </g>
</svg>