<?xml version="1.0" encoding="utf-8"?>
<!-- Generator: Adobe Illustrator 16.0.0, SVG Export Plug-In . SVG Version: 6.00 Build 0)  -->
<!DOCTYPE svg PUBLIC "-//W3C//DTD SVG 1.1//EN" "http://www.w3.org/Graphics/SVG/1.1/DTD/svg11.dtd">
<svg version="1.1" id="Layer_1" xmlns="http://www.w3.org/2000/svg" xmlns:xlink="http://www.w3.org/1999/xlink" x="0px" y="0px"
	 width="32px" height="32px" viewBox="0 0 32 32" enable-background="new 0 0 32 32" xml:space="preserve">
<g>
	<g>
		<path fill="#FFFFFF" d="M28.756,25.92c0,1.561-1.275,2.836-2.835,2.836H6.077c-1.559,0-2.834-1.275-2.834-2.836V6.079
			c0-1.56,1.275-2.835,2.834-2.835h19.844c1.56,0,2.835,1.275,2.835,2.835V25.92z"/>
	</g>
	<g>
		<g>
			<path fill="#FFFFFF" d="M19.864,23.717h5.022V8.279H19.7c-0.94,0.085-1.173,0.882-0.534,1.541
				c0.328,0.345,0.762,0.632,0.762,1.471c0,0.931-0.919,2.122-2.479,2.122c-1.566,0-2.481-1.191-2.481-2.122
				c0-0.839,0.436-1.125,0.762-1.471c0.637-0.662,0.407-1.455-0.535-1.541h-5.19v5.218c0,1.127-0.825,1.426-1.499,0.725
				c-0.328-0.339-0.601-0.79-1.409-0.79c-0.899,0-2.053,0.95-2.053,2.572c0,1.622,1.151,2.577,2.053,2.577
				c0.808,0,1.083-0.451,1.409-0.795c0.674-0.697,1.499-0.4,1.499,0.729v5.207h5.022L19.864,23.717L19.864,23.717z"/>
		</g>
	</g>
</g>
</svg>
