<?xml version="1.0" encoding="utf-8"?>
<!-- Generator: Adobe Illustrator 16.0.0, SVG Export Plug-In . SVG Version: 6.00 Build 0)  -->
<!DOCTYPE svg PUBLIC "-//W3C//DTD SVG 1.1//EN" "http://www.w3.org/Graphics/SVG/1.1/DTD/svg11.dtd">
<svg version="1.1" id="Layer_1" xmlns="http://www.w3.org/2000/svg" xmlns:xlink="http://www.w3.org/1999/xlink" x="0px" y="0px"
	 width="32px" height="32px" viewBox="0 0 32 32" enable-background="new 0 0 32 32" xml:space="preserve">
<g>
	<g>
		<path fill="#FFFFFF" d="M4.487,13.908c2.944-2.958,7.021-4.794,11.512-4.794c4.494,0,8.568,1.836,11.515,4.794l2.121-2.121
			c-3.488-3.502-8.314-5.674-13.636-5.674c-5.319,0-10.145,2.172-13.633,5.674L4.487,13.908z"/>
	</g>
	<g>
		<path fill="#FFFFFF" d="M9.081,18.504c1.771-1.777,4.218-2.887,6.916-2.887c2.701,0,5.148,1.105,6.916,2.887l2.25-2.25
			c-2.344-2.355-5.586-3.819-9.166-3.819c-3.58,0-6.819,1.463-9.166,3.819L9.081,18.504z"/>
	</g>
	<g>
		<path fill="#FFFFFF" d="M15.997,19.154c-1.729,0-3.293,0.707-4.419,1.848l4.419,4.42l4.419-4.42
			C19.289,19.861,17.729,19.154,15.997,19.154z"/>
	</g>
</g>
</svg>
