<?xml version="1.0" encoding="utf-8"?>
<!-- Generator: Adobe Illustrator 16.0.0, SVG Export Plug-In . SVG Version: 6.00 Build 0)  -->
<!DOCTYPE svg PUBLIC "-//W3C//DTD SVG 1.1//EN" "http://www.w3.org/Graphics/SVG/1.1/DTD/svg11.dtd">
<svg version="1.1" id="Layer_1" xmlns="http://www.w3.org/2000/svg" xmlns:xlink="http://www.w3.org/1999/xlink" x="0px" y="0px"
	 width="32px" height="32px" viewBox="0 0 32 32" enable-background="new 0 0 32 32" xml:space="preserve">
<g>
	<path fill="#FFFFFF" d="M13.849,20.549h-3.199c-0.008-0.461-0.013-0.742-0.013-0.842c0-1.035,0.171-1.889,0.515-2.561
		c0.343-0.667,1.029-1.421,2.058-2.259c1.029-0.834,1.646-1.383,1.846-1.643c0.31-0.41,0.464-0.862,0.464-1.355
		c0-0.686-0.274-1.271-0.822-1.763c-0.548-0.489-1.286-0.733-2.214-0.733c-0.896,0-1.645,0.256-2.246,0.767
		s-1.016,1.288-1.242,2.333l-3.235-0.401c0.092-1.497,0.729-2.769,1.913-3.813c1.183-1.046,2.735-1.569,4.659-1.569
		c2.024,0,3.636,0.53,4.829,1.587c1.198,1.061,1.795,2.291,1.795,3.695c0,0.776-0.219,1.514-0.656,2.208
		c-0.44,0.692-1.38,1.639-2.816,2.835c-0.745,0.619-1.207,1.115-1.387,1.494C13.912,18.906,13.831,19.578,13.849,20.549z
		 M10.649,25.291v-3.527h3.525v3.527H10.649z"/>
	<path fill="#FFFFFF" d="M23.347,20.549l-0.917-9.335V6.899h3.813v4.314l-0.901,9.335H23.347z M22.579,25.291v-3.527h3.526v3.527
		H22.579z"/>
</g>
</svg>
