<?xml version="1.0" encoding="UTF-8"?>
<svg width="118px" height="99px" viewBox="0 0 118 99" version="1.1" xmlns="http://www.w3.org/2000/svg" xmlns:xlink="http://www.w3.org/1999/xlink">
    <!-- Generator: Sketch 51.3 (57544) - http://www.bohemiancoding.com/sketch -->
    <title>icon/desktop_ZWH/info</title>
    <desc>Created with Sketch.</desc>
    <defs>
        <polygon id="path-1" points="16.0422 21.1714 118.179 21.1714 118.179 99.1564 16.0422 99.1564"></polygon>
        <polygon id="path-3" points="32.5915 35.4495 118.179 35.4495 118.179 99.1565 32.5915 99.1565"></polygon>
        <polygon id="path-5" points="33.1198 43.9809 108.2788 43.9809 108.2788 99.1565 33.1198 99.1565"></polygon>
    </defs>
    <g id="icon/desktop_ZWH/info" stroke="none" stroke-width="1" fill="none" fill-rule="evenodd">
        <mask id="mask-2" fill="white">
            <use xlink:href="#path-1"></use>
        </mask>
        <g id="Clip-2"></g>
        <polygon id="Fill-1" fill="#FFFFFF" opacity="0.5" mask="url(#mask-2)" points="16.0422 71.5084 52.8532 21.1714 118.1792 70.8524 118.1792 99.1564 54.4922 99.1564"></polygon>
        <path d="M34.1667,17.1666 C50.1827,17.1666 63.1667,30.1506 63.1667,46.1666 C63.1667,62.1836 50.1827,75.1666 34.1667,75.1666 C18.1507,75.1666 5.1667,62.1836 5.1667,46.1666 C5.1667,30.1506 18.1507,17.1666 34.1667,17.1666" id="Fill-4" fill="#004DA1"></path>
        <path d="M32.1633,39.67 C31.0573,38.564 31.0573,36.77 32.1633,35.663 C33.2693,34.557 35.0633,34.557 36.1703,35.663 C37.2763,36.77 37.2763,38.564 36.1703,39.67 C35.0633,40.776 33.2693,40.776 32.1633,39.67 Z M37.0003,57.5 C37.0003,59.065 35.7313,60.334 34.1663,60.334 C32.6013,60.334 31.3333,59.065 31.3333,57.5 L31.3333,46.167 C31.3333,44.602 32.6013,43.333 34.1663,43.333 C35.7313,43.333 37.0003,44.602 37.0003,46.167 L37.0003,57.5 Z M34.1663,72.834 C48.8943,72.834 60.8333,60.894 60.8333,46.167 C60.8333,31.439 48.8943,19.5 34.1663,19.5 C19.4393,19.5 7.5003,31.439 7.5003,46.167 C7.5003,60.894 19.4393,72.834 34.1663,72.834 Z M34.1663,77.334 C16.9543,77.334 3.0003,63.379 3.0003,46.167 C3.0003,28.954 16.9543,15 34.1663,15 C51.3793,15 65.3333,28.954 65.3333,46.167 C65.3333,63.379 51.3793,77.334 34.1663,77.334 Z" id="Fill-6" fill="#FFFFFF"></path>
        <mask id="mask-4" fill="white">
            <use xlink:href="#path-3"></use>
        </mask>
        <g id="Clip-9"></g>
        <polygon id="Fill-8" fill="#FFFFFF" opacity="0.5" mask="url(#mask-4)" points="32.5915 39.9615 35.8825 35.4495 118.1795 98.1565 118.1795 99.1565 110.1975 99.1565"></polygon>
        <mask id="mask-6" fill="white">
            <use xlink:href="#path-5"></use>
        </mask>
        <g id="Clip-12"></g>
        <polygon id="Fill-11" fill="#FFFFFF" opacity="0.5" mask="url(#mask-6)" points="33.1198 60.1569 35.8678 43.9809 108.2788 99.1569 85.0298 99.1569"></polygon>
    </g>
</svg>