<?xml version="1.0" encoding="utf-8"?>
<!-- Generator: Adobe Illustrator 22.0.1, SVG Export Plug-In . SVG Version: 6.00 Build 0)  -->
<svg version="1.1" xmlns="http://www.w3.org/2000/svg" xmlns:xlink="http://www.w3.org/1999/xlink" x="0px" y="0px"
	 viewBox="0 0 32 32" style="enable-background:new 0 0 32 32;" xml:space="preserve">
<style type="text/css">
	.st0{fill:url(#SVGID_1_);}
</style>
<g id="Ebene_2">
</g>
<g id="Layer_1">
	<linearGradient id="SVGID_1_" gradientUnits="userSpaceOnUse" x1="3.5" y1="16" x2="28.5" y2="16">
		<stop  offset="0" style="stop-color:#5CC1D9"/>
		<stop  offset="1.980000e-02" style="stop-color:#5CC1D9"/>
		<stop  offset="1" style="stop-color:#69CCF9"/>
	</linearGradient>
	<path class="st0" d="M16,3.5C9.1,3.5,3.5,9.1,3.5,16c0,6.9,5.6,12.5,12.5,12.5c6.9,0,12.5-5.6,12.5-12.5C28.5,9.1,22.9,3.5,16,3.5z
		 M12,20c-1.3,2.3-1.4,1.9-1.8,0.5c-0.5-1.8-2.4-4.3-1.5-5.4c1-1.1,4.3-1.3,4.1,0.8C12.7,18.3,12.8,18.7,12,20z M19.2,19.7
		c0-4.6-4.6-4.6-4.6-6.9c0-2.3,2.3,0,4.6-2.3c1.6-1.6,4.6,2.3,4.6,4.6S19.2,22,19.2,19.7z"/>
</g>
</svg>
