<?xml version="1.0" encoding="utf-8"?>
<!-- Generator: Adobe Illustrator 24.0.0, SVG Export Plug-In . SVG Version: 6.00 Build 0)  -->
<svg version="1.1" xmlns="http://www.w3.org/2000/svg" xmlns:xlink="http://www.w3.org/1999/xlink" x="0px" y="0px"
	 viewBox="0 0 32 32" style="enable-background:new 0 0 32 32;" xml:space="preserve">
<style type="text/css">
	.st0{opacity:0.75;fill:#5FBBBA;stroke:#FFFFFF;stroke-width:0.75;stroke-miterlimit:10;enable-background:new    ;}
	.st1{clip-path:url(#SVGID_4_);fill:none;stroke:#FFFFFF;stroke-width:0.75;stroke-miterlimit:10;}
	.st2{fill:none;stroke:#FFFFFF;stroke-width:0.75;stroke-miterlimit:10;}
</style>
<g id="Ebene_2">
</g>
<g id="Layer_1">
	<path class="st0" d="M26.8,15.7H7.9v1.9h5l-3.7,8.1c-0.2,0.5,0,1,0.5,1.2C9.8,27,9.9,27,10,27c0.4,0,0.7-0.2,0.9-0.6l1.4-3.1h10.1
		l1.4,3.1c0.2,0.4,0.5,0.6,0.9,0.6c0.1,0,0.3,0,0.4-0.1c0.5-0.2,0.7-0.8,0.5-1.2l-3.7-8.1h5L26.8,15.7L26.8,15.7z M19.8,17.8
		l1.7,3.8h-8.4l1.7-3.8c0-0.1,0-0.1,0-0.2h4.8C19.8,17.7,19.8,17.7,19.8,17.8z"/>
	<rect id="SVGID_1_" x="7.9" y="4.3" class="st0" width="18.9" height="13.2"/>
	<rect x="7.9" y="15.7" class="st0" width="18.9" height="1.9"/>
	<g>
		<g>
			<g>
				<g>
					<g>
						<defs>
							<rect id="SVGID_3_" x="7.9" y="4.3" width="18.9" height="13.2"/>
						</defs>
						<clipPath id="SVGID_4_">
							<use xlink:href="#SVGID_3_"  style="overflow:visible;"/>
						</clipPath>
						<rect x="7.9" y="4.3" class="st1" width="18.9" height="13.2"/>
					</g>
				</g>
			</g>
		</g>
		<g>
			<rect id="SVGID_2_" x="7.9" y="4.3" class="st2" width="18.9" height="13.2"/>
		</g>
	</g>
</g>
</svg>
