<?xml version="1.0" ?><svg fill="none" height="100" viewBox="0 0 100 100" width="100" xmlns="http://www.w3.org/2000/svg"><path d="M0.6671 16.4302H3.40962C3.78023 16.4302 4.07672 16.1301 4.07672 15.755V0.675214C4.07672 0.300095 3.78023 0 3.40962 0H0.6671C0.296489 0 0 0.300095 0 0.675214V15.755C0.0741222 16.1301 0.370611 16.4302 0.6671 16.4302ZM2.81665 10.7284H1.3342V4.4264H2.81665V10.7284ZM1.3342 15.0798V12.0038H2.81665V15.0798H1.3342ZM2.81665 1.2754V3.07597H1.3342V1.2754H2.81665Z" fill="black" transform="translate(43.0507 14.4264)"/><path d="M3.27991 11.9288L4.61411 16.1301C4.68823 16.2802 4.76235 16.4302 4.9106 16.5052C4.98472 16.5802 5.13296 16.5802 5.20709 16.5802C5.28121 16.5802 5.35533 16.5802 5.42945 16.5802L8.02373 15.755C8.17198 15.68 8.32022 15.6049 8.39434 15.4549C8.46847 15.3048 8.46846 15.1548 8.46846 14.9297L7.13426 10.6534L3.87288 0.450142C3.79876 0.300095 3.72464 0.150047 3.5764 0.0750237C3.42815 -7.26662e-08 3.27991 0 3.05754 0L0.463263 0.900285C0.0926517 0.975309 -0.0555916 1.35043 0.0185306 1.72555L3.27991 11.9288ZM5.72594 10.4283L4.31762 10.8784L2.39044 4.87654L3.79876 4.4264L5.72594 10.4283ZM5.65182 15.0798L4.68823 12.1538L6.09655 11.7037L7.06014 14.6296L5.65182 15.0798ZM2.83517 1.50047L3.35403 3.22602L1.94571 3.67616L1.42685 1.95062L2.83517 1.50047Z" fill="black" transform="translate(47.8501 14.3514)"/><path d="M0.667101 16.4302H3.40962C3.78023 16.4302 4.07672 16.1301 4.07672 15.755V0.675214C4.07672 0.300095 3.78023 0 3.40962 0H0.667101C0.29649 0 0 0.300095 0 0.675214V15.755C0.0741222 16.1301 0.370612 16.4302 0.667101 16.4302ZM2.81665 10.7284H1.3342V4.4264H2.81665V10.7284ZM1.3342 15.0798V12.0038H2.81665V15.0798H1.3342ZM2.81665 1.2754V3.07597H1.3342V1.2754H2.81665Z" fill="black" transform="translate(38.1587 14.4264)"/><path d="M0.667101 16.4302H3.40962C3.78023 16.4302 4.07672 16.1301 4.07672 15.755V0.675214C4.07672 0.300095 3.78023 0 3.40962 0H0.667101C0.296489 0 0 0.300095 0 0.675214V15.755C0.0741222 16.1301 0.296489 16.4302 0.667101 16.4302ZM2.81665 10.7284H1.3342V4.4264H2.81665V10.7284ZM1.3342 15.0798V12.0038H2.81665V15.0798H1.3342ZM2.81665 1.2754V3.07597H1.3342V1.2754H2.81665Z" fill="black" transform="translate(33.2666 14.4264)"/><path d="M0.667101 0C0.29649 0 0 0.30009 0 0.675209V15.755C0 16.1301 0.29649 16.4302 0.667101 16.4302H3.40962C3.78023 16.4302 4.07672 16.1301 4.07672 15.755V0.675209C4.07672 0.30009 3.78023 0 3.40962 0H0.667101ZM1.3342 4.4264H2.81664V10.7284H1.3342V4.4264ZM2.81664 1.35042V3.15099H1.3342V1.35042H2.81664ZM1.3342 15.0798V12.0038H2.81664V15.0798H1.3342Z" fill="black" transform="translate(57.5787 63.1168)"/><path d="M5.44163 0.018756C5.07101 -0.0562677 4.77453 0.0937786 4.62628 0.468897L1.3649 10.6721L0.0307027 14.7984C-0.0434196 14.9485 0.0307015 15.1735 0.104824 15.3236C0.178946 15.4736 0.32719 15.6237 0.475435 15.6237L3.06971 16.4489C3.14384 16.4489 3.21796 16.4489 3.29208 16.4489C3.58857 16.4489 3.81094 16.2989 3.88506 15.9988L8.48064 1.66928C8.55476 1.51923 8.48064 1.29416 8.40652 1.14411C8.33239 0.994065 8.18415 0.844016 8.0359 0.844016L5.44163 0.018756ZM5.58987 1.4442L6.99819 1.89435L6.47934 3.61989L5.07101 3.16975L5.58987 1.4442ZM4.18155 10.8972L2.77323 10.4471L4.7004 4.44515L6.10873 4.8953L4.18155 10.8972ZM2.84735 15.0235L1.43902 14.5734L2.40261 11.6474L3.81094 12.0976L2.84735 15.0235Z" fill="black" transform="translate(48.4309 63.0981)"/><path d="M0.667101 0C0.29649 0 0 0.30009 0 0.675209V15.755C0 16.1301 0.29649 16.4302 0.667101 16.4302H3.40962C3.78024 16.4302 4.07672 16.1301 4.07672 15.755V0.675209C4.07672 0.30009 3.78024 0 3.40962 0H0.667101ZM1.3342 4.4264H2.81665V10.7284H1.3342V4.4264ZM2.81665 1.35042V3.15099H1.3342V1.35042H2.81665ZM1.3342 15.0798V12.0038H2.81665V15.0798H1.3342Z" fill="black" transform="translate(62.4708 63.1168)"/><path d="M0.667098 0C0.296487 0 0 0.30009 0 0.675209V15.755C0 16.1301 0.296487 16.4302 0.667098 16.4302H3.40962C3.78024 16.4302 4.07672 16.1301 4.07672 15.755V0.675209C4.07672 0.30009 3.78024 0 3.40962 0H0.667098ZM1.3342 4.4264H2.81664V10.7284H1.3342V4.4264ZM2.81664 1.35042V3.15099H1.3342V1.35042H2.81664ZM1.3342 15.0798V12.0038H2.81664V15.0798H1.3342Z" fill="black" transform="translate(67.3628 63.1168)"/><path d="M0.6671 0.0750226C0.296489 0.0750226 0 0.375119 0 0.750237V15.83C0 16.2051 0.296489 16.5052 0.6671 16.5052H3.40962C3.78023 16.5052 4.07672 16.2051 4.07672 15.83V0.675212C4.07672 0.300093 3.78023 0 3.40962 0H0.6671V0.0750226ZM1.26008 4.50142H2.74252V10.7284H1.26008V4.50142ZM2.74252 1.35043V3.151H1.26008V1.35043H2.74252ZM1.26008 15.1548V12.0788H2.74252V15.1548H1.26008Z" fill="black" transform="translate(34.3784 38.2839)"/><path d="M0.6671 0.0750226C0.296489 0.0750226 0 0.375119 0 0.750237V15.83C0 16.2051 0.296489 16.5052 0.6671 16.5052H3.40962C3.78023 16.5052 4.07672 16.2051 4.07672 15.83V0.675212C4.07672 0.300093 3.78023 0 3.40962 0H0.6671V0.0750226ZM1.26008 4.50142H2.74252V10.7284H1.26008V4.50142ZM2.74252 1.35043V3.151H1.26008V1.35043H2.74252ZM1.26008 15.1548V12.0788H2.74252V15.1548H1.26008Z" fill="black" transform="translate(29.4864 38.2839)"/><path d="M0.667101 0.0750226C0.29649 0.0750226 0 0.375119 0 0.750237V15.83C0 16.2051 0.29649 16.5052 0.667101 16.5052H3.40962C3.78024 16.5052 4.07673 16.2051 4.07673 15.83V0.675212C4.07673 0.300093 3.78024 0 3.40962 0H0.667101V0.0750226ZM1.3342 4.50142H2.81664V10.7284H1.3342V4.50142ZM2.81664 1.35043V3.151H1.3342V1.35043H2.81664ZM1.3342 15.1548V12.0788H2.81664V15.1548H1.3342Z" fill="black" transform="translate(66.3251 38.2839)"/><path d="M0.667098 0.0750226C0.296487 0.0750226 0 0.375119 0 0.750237V15.83C0 16.2051 0.296487 16.5052 0.667098 16.5052H3.40962C3.78023 16.5052 4.07672 16.2051 4.07672 15.83V0.675212C4.07672 0.300093 3.78023 0 3.40962 0H0.667098V0.0750226ZM1.3342 4.50142H2.81664V10.7284H1.3342V4.50142ZM2.74252 1.35043V3.151H1.26008V1.35043H2.74252ZM1.3342 15.1548V12.0788H2.81664V15.1548H1.3342Z" fill="black" transform="translate(61.433 38.2839)"/><path d="M0.667101 0.0750226C0.29649 0.0750226 0 0.375119 0 0.750237V15.83C0 16.2051 0.29649 16.5052 0.667101 16.5052H3.40962C3.78024 16.5052 4.07672 16.2051 4.07672 15.83V0.675212C4.07672 0.300093 3.78024 0 3.40962 0H0.667101V0.0750226ZM1.26008 4.50142H2.74252V10.7284H1.26008V4.50142ZM2.74252 1.35043V3.151H1.26008V1.35043H2.74252ZM1.26008 15.1548V12.0788H2.74252V15.1548H1.26008Z" fill="black" transform="translate(56.541 38.2839)"/><path d="M56.2588 0H0.6671C0.296489 0 0 0.300095 0 0.675214V74.2735C0 74.6486 0.296489 74.9487 0.6671 74.9487H4.37321V78.3248C4.37321 78.6999 4.6697 79 5.04031 79C5.41092 79 5.70741 78.6999 5.70741 78.3248V74.9487H51.2926V78.3248C51.2926 78.6999 51.5891 79 51.9597 79C52.3303 79 52.6268 78.6999 52.6268 78.3248V74.9487H56.3329C56.7035 74.9487 57 74.6486 57 74.2735V0.675214C56.8518 0.300095 56.5553 0 56.2588 0ZM55.5917 73.5983H1.26008V1.2754H55.5917V73.5983Z" fill="black" transform="translate(22 10)"/><path d="M0.592978 18.906H50.922C51.2926 18.906 51.5891 18.6059 51.5891 18.2308V0.675214C51.5891 0.300095 51.2926 0 50.922 0C50.5514 0 50.2549 0.300095 50.2549 0.675214V17.6306H1.26008V0.675214C1.26008 0.300095 0.963589 0 0.592978 0C0.222367 0 0 0.300095 0 0.675214V18.3058C0 18.6809 0.296489 18.906 0.592978 18.906Z" fill="black" transform="translate(24.6684 15.1766)"/><path d="M0.6671 18.981H50.9961C51.3667 18.981 51.6632 18.6809 51.6632 18.3058V0.675215C51.6632 0.300096 51.3667 0 50.9961 0C50.6255 0 50.329 0.300096 50.329 0.675215V17.6306H1.3342V0.675215C1.3342 0.300096 1.03771 0 0.6671 0C0.296489 0 0 0.300096 0 0.675215V18.3058C0.0741222 18.6809 0.370611 18.981 0.6671 18.981Z" fill="black" transform="translate(24.5943 39.4843)"/><path d="M0.6671 18.981H50.9961C51.3667 18.981 51.6632 18.6809 51.6632 18.3058V0.675215C51.6632 0.300096 51.3667 0 50.9961 0C50.6255 0 50.329 0.300096 50.329 0.675215V17.6306H1.3342V0.675215C1.3342 0.300096 1.03771 0 0.6671 0C0.296489 0 0 0.300096 0 0.675215V18.3058C0.0741222 18.6809 0.370611 18.981 0.6671 18.981Z" fill="black" transform="translate(24.5943 63.7921)"/></svg>