<?xml version="1.0" ?><svg data-name="Layer 1" id="Layer_1" viewBox="0 0 128 128" xmlns="http://www.w3.org/2000/svg"><title/><path d="M63.86,110.37H25.1a1,1,0,0,1-.49-.13,6,6,0,0,1-3-4.37c-.16-2.17,1.19-4.37,4-6.55l.08-.07c6-4.63,9.61-7.43,10.64-28.3.36-7.28,1.32-26.62,16.35-33.47a1,1,0,1,1,.83,1.82C41.09,45,38.93,60.14,38.39,71,37.32,92.85,33.2,96,27,100.84l-.08.06c-2.22,1.71-3.34,3.38-3.24,4.82a3.87,3.87,0,0,0,1.74,2.66H63.86a1,1,0,0,1,0,2Z"/><path d="M102.9,110.37H64.14a1,1,0,0,1,0-2h38.47a3.87,3.87,0,0,0,1.74-2.66c.1-1.44-1-3.1-3.24-4.82l-.08-.06C94.8,96,90.68,92.85,89.61,71c-.7-14.25-4.11-33.27-25.5-34a1,1,0,0,1-1-1,1,1,0,0,1,1-1c25.7.86,27,27.22,27.43,35.88,1,20.88,4.65,23.67,10.64,28.3l.08.07c2.82,2.18,4.17,4.38,4,6.55a6,6,0,0,1-3,4.37A1,1,0,0,1,102.9,110.37Z"/><path d="M89.69,96.88H32.19a1,1,0,0,1,0-2h57.5a1,1,0,0,1,0,2Z"/><path d="M64,120.88A10.89,10.89,0,0,1,53.13,110a1,1,0,0,1,2,0,8.88,8.88,0,0,0,17.75,0,1,1,0,0,1,2,0A10.89,10.89,0,0,1,64,120.88Z"/><path d="M47.44,63.88a1,1,0,0,1-1-1C46.18,49.59,58,45,58.09,44.94a1,1,0,0,1,.71,1.87,16.85,16.85,0,0,0-10.36,16,1,1,0,0,1-1,1Z"/><path d="M69.63,37.67h-.06a1,1,0,0,1-.94-1.06l1.25-21.67A5.88,5.88,0,0,0,58.13,15l1,21.62a1,1,0,0,1-1,1,1,1,0,0,1-1-1L56.13,15a7.87,7.87,0,1,1,15.75,0L70.62,36.73A1,1,0,0,1,69.63,37.67Z"/></svg>