<?xml version="1.0" ?><!DOCTYPE svg  PUBLIC '-//W3C//DTD SVG 1.1//EN'  'http://www.w3.org/Graphics/SVG/1.1/DTD/svg11.dtd'><svg id="Layer_1" style="enable-background:new 0 0 100 100;" version="1.1" viewBox="0 0 100 100" xml:space="preserve" xmlns="http://www.w3.org/2000/svg" xmlns:xlink="http://www.w3.org/1999/xlink"><g><path d="M74.791,35.706H24.92c-0.553,0-1-0.448-1-1s0.447-1,1-1h49.871c0.553,0,1,0.448,1,1   S75.344,35.706,74.791,35.706z" style="fill:#231F20;"/><path d="M74.791,51.855H24.92c-0.553,0-1-0.448-1-1s0.447-1,1-1h49.871c0.553,0,1,0.448,1,1   S75.344,51.855,74.791,51.855z" style="fill:#231F20;"/><path d="M74.791,68.003H24.92c-0.553,0-1-0.448-1-1s0.447-1,1-1h49.871c0.553,0,1,0.448,1,1   S75.344,68.003,74.791,68.003z" style="fill:#231F20;"/></g></svg>