<?xml version="1.0" ?><svg version="1.1" viewBox="0 0 48 48" xmlns="http://www.w3.org/2000/svg" xmlns:xlink="http://www.w3.org/1999/xlink"><path d="M17.7549,0c-2.11621,0 -4.10645,0.824219 -5.60352,2.32129l-7.78644,7.78644c0.457581,-0.0639039 0.919861,-0.107727 1.38995,-0.107727c0.0419922,0 0.083374,0.0059814 0.125305,0.0065308l6.97821,-6.97821c1.30762,-1.30762 3.04688,-2.02832 4.89648,-2.02832c3.81836,0 6.9248,3.10645 6.9248,6.9248c0,1.84961 -0.720703,3.58887 -2.02832,4.89648l-12.1504,12.1504c-1.30762,1.30762 -3.04688,2.02832 -4.89648,2.02832c-1.85059,0 -3.58984,-0.720703 -4.89746,-2.0293l-0.707031,0.707031c1.49609,1.49707 3.48633,2.32227 5.60449,2.32227c2.11621,0 4.10645,-0.824219 5.60352,-2.32129l12.1504,-12.1504c1.49707,-1.49707 2.32129,-3.4873 2.32129,-5.60352c0,-4.37012 -3.55469,-7.9248 -7.9248,-7.9248Z" transform="translate(18.3203, 4)"/><path d="M19.7988,17.9941l-6.97754,6.97754c-1.30811,1.30762 -3.04687,2.02832 -4.89648,2.02832c-3.81836,0 -6.9248,-3.10645 -6.9248,-6.9248c0,-1.84961 0.720215,-3.58887 2.02832,-4.89648l12.1504,-12.1504c1.30762,-1.30762 3.04688,-2.02832 4.89648,-2.02832c1.84961,0 3.58887,0.720703 4.89648,2.02832l0.707031,-0.707031c-1.49707,-1.49707 -3.4873,-2.32129 -5.60352,-2.32129c-2.11621,0 -4.10645,0.824219 -5.60352,2.32129l-12.1504,12.1504c-1.49707,1.49707 -2.32129,3.4873 -2.32129,5.60352c0,4.37012 3.55518,7.9248 7.9248,7.9248c2.1167,0 4.10645,-0.824219 5.60352,-2.32129l7.7865,-7.7865c-0.45758,0.0639038 -0.919922,0.107788 -1.39001,0.107788c-0.0422363,0 -0.0838013,-0.0053101 -0.125977,-0.0058594Z" transform="translate(4, 16)"/></svg>