<?xml version="1.0" ?><!DOCTYPE svg  PUBLIC '-//W3C//DTD SVG 1.1//EN'  'http://www.w3.org/Graphics/SVG/1.1/DTD/svg11.dtd'><svg height="512px" style="enable-background:new 0 0 512 512;" version="1.1" viewBox="0 0 512 512" width="512px" xml:space="preserve" xmlns="http://www.w3.org/2000/svg" xmlns:xlink="http://www.w3.org/1999/xlink"><g id="_x35_35-_location__x2C__map_pointer__x2C__pointer__x2C_"><g><g><path d="M256.447,405.613c-1.304,0-2.518-0.666-3.218-1.766c-0.273-0.428-27.614-43.463-54.586-97.487     c-36.358-72.821-54.792-129.897-54.792-169.644c0-62.108,50.511-112.636,112.597-112.636     c62.068,0,112.563,50.528,112.563,112.636c0,38.939-18.428,95.77-54.771,168.911c-26.961,54.257-54.289,97.77-54.563,98.202     c-0.697,1.107-1.912,1.779-3.219,1.783C256.453,405.613,256.45,405.613,256.447,405.613z M256.447,31.714     c-57.877,0-104.964,47.104-104.964,105.003c0,83.083,86.932,228.579,104.946,257.831     c17.961-29.475,104.948-176.447,104.948-257.831C361.377,78.818,314.306,31.714,256.447,31.714z"/></g><g><path d="M256.447,488.814c-56.343,0-109.197-7.858-148.824-22.127c-45.743-16.471-69.922-40.175-69.922-68.549     c0-22.245,14.103-41.467,41.916-57.129c23.148-13.036,51.809-21.168,71.775-25.694c2.055-0.465,4.1,0.823,4.565,2.878     c0.466,2.057-0.822,4.101-2.878,4.567c-40.24,9.122-107.746,31.045-107.746,75.378c0,31.414,35.279,50.711,64.875,61.367     c38.256,13.775,91.557,21.675,146.237,21.675c54.653,0,107.95-7.906,146.224-21.691c29.602-10.661,64.888-29.96,64.888-61.351     c0-34.067-36.459-59.427-108.365-75.375c-2.057-0.456-3.356-2.494-2.899-4.553c0.456-2.058,2.492-3.354,4.553-2.899     c75.874,16.828,114.346,44.694,114.346,82.827c0,28.355-24.184,52.055-69.935,68.532     C365.612,480.949,312.764,488.814,256.447,488.814z"/></g><g><path d="M256.559,191.591c-30.356,0-55.053-24.677-55.053-55.009c0-29.868,24.697-54.168,55.053-54.168     c14.303,0,27.856,5.681,38.165,15.995c10.307,10.312,15.982,23.869,15.982,38.174     C310.706,166.914,286.416,191.591,256.559,191.591z M256.559,90.047c-26.147,0-47.42,20.875-47.42,46.535     c0,26.123,21.272,47.376,47.42,47.376c25.648,0,46.514-21.253,46.514-47.376C303.072,111.357,281.771,90.047,256.559,90.047z"/></g></g></g><g id="Layer_1"/></svg>