<?xml version="1.0" encoding="utf-8"?>
<!-- Generator: Adobe Illustrator 23.0.4, SVG Export Plug-In . SVG Version: 6.00 Build 0)  -->
<svg version="1.1" id="Layer_1" xmlns="http://www.w3.org/2000/svg" xmlns:xlink="http://www.w3.org/1999/xlink" x="0px" y="0px"
	 viewBox="0 0 100 100" style="enable-background:new 0 0 100 100;" xml:space="preserve">
<title></title>
<path d="M80.6,21.6v40.5c0,0.6-0.4,1-1,1H55.4c-0.6,0-1-0.4-1-1s0.4-1,1-1h23.2V22.6H21.4v38.5h28.3c0.1,0,0.1,0,0.2,0
	c0.1,0,0.1,0,0.2,0c0.6,0,1,0.4,1,1v5.6L64.3,81c0.4,0.4,0.3,1.1-0.1,1.4c-0.4,0.3-0.9,0.3-1.3,0L50,69.5l-13,13
	c-0.4,0.4-1.1,0.3-1.4-0.1c-0.3-0.4-0.3-0.9,0-1.3L49,67.7v-4.6H20.4c-0.6,0-1-0.4-1-1V21.6c0-0.6,0.4-1,1-1h28.5v-2.5
	c0-0.6,0.4-1,1-1s1,0.4,1,1v2.5h28.7C80.2,20.6,80.6,21.1,80.6,21.6z M64.6,37.6c0-0.6-0.4-1-1-1H36.2c-0.6,0-1,0.4-1,1s0.4,1,1,1
	h27.3C64.1,38.6,64.6,38.2,64.6,37.6L64.6,37.6z M36.3,44.6c-0.6,0-1,0.4-1,1s0.4,1,1,1h12.3c0.6,0,1-0.4,1-1s-0.4-1-1-1H36.3
	L36.3,44.6z"/>
</svg>
