<?xml version="1.0" ?><!DOCTYPE svg  PUBLIC '-//W3C//DTD SVG 1.1//EN'  'http://www.w3.org/Graphics/SVG/1.1/DTD/svg11.dtd'><svg enable-background="new 0 0 512 512" height="512px" id="Слой_1" version="1.1" viewBox="0 0 512 512" width="512px" xml:space="preserve" xmlns="http://www.w3.org/2000/svg" xmlns:xlink="http://www.w3.org/1999/xlink"><g><g><g><path d="M256.447,450.742h-0.911c-33.492-0.23-67.869-3.199-102.164-8.824      c-8.623-1.422-14.895-3.646-19.179-6.805c-0.122-0.084-0.239-0.182-0.353-0.279c-3.386-2.951-6.977-8.303-4.867-17.031      l0.939-3.336c10.43-34.613,25.875-53.814,45.935-57.174c0.125-0.021,0.251-0.037,0.378-0.051      c3.074-0.494,6.241-0.984,9.498-1.471c2.977-0.455,5.771,1.613,6.217,4.604c0.446,2.986-1.616,5.771-4.604,6.217      c-3.31,0.492-6.524,0.988-9.642,1.496c-0.1,0.016-0.199,0.027-0.299,0.037c-15.49,2.756-27.93,19.373-36.978,49.398      l-0.867,3.064c-0.78,3.246,0.136,4.77,1.315,5.855c2.011,1.418,6.102,3.33,14.283,4.684      c33.729,5.531,67.536,8.453,100.478,8.676h0.729c32.957-0.223,66.766-3.145,100.502-8.678      c8.178-1.352,12.266-3.264,14.275-4.682c1.179-1.086,2.094-2.615,1.259-6.07l-0.839-2.951      c-9.024-29.941-21.473-46.563-36.975-49.303c-0.094-0.008-0.186-0.021-0.271-0.031c-3.119-0.508-6.334-1.004-9.645-1.496      c-2.987-0.445-5.05-3.229-4.604-6.217c0.445-2.99,3.224-5.059,6.217-4.604c3.271,0.488,6.449,0.98,9.535,1.477      c0.119,0.014,0.233,0.027,0.341,0.045c20.059,3.359,35.505,22.561,45.906,57.072l0.912,3.23      c2.165,8.938-1.428,14.287-4.812,17.24c-0.113,0.096-0.23,0.189-0.351,0.277c-4.283,3.158-10.555,5.379-19.173,6.805      C324.333,447.543,289.954,450.512,256.447,450.742z M253.565,367.34c-0.167,0-0.36-0.002-0.561-0.006      c-17.157-0.465-32.582-7.467-45.873-20.822c-4.248-4.26-8.349-9.254-12.188-14.846c-9.199-12.904-15.556-27.779-18.837-44.135      c-1.884-9.379-2.794-19.441-2.704-29.904c0.07-11.84,1.978-22.862,5.67-32.881c0.898-2.399,1.907-4.762,3.007-7.045l0.222-0.506      c3.722-7.695,8.576-14.809,14.486-21.258l0.356-0.366c0.703-0.774,1.569-1.69,2.448-2.581      c15.282-15.041,33.469-22.839,54.115-23.234c0.76-0.011,1.485-0.011,2.221-0.001c0.509-0.006,1.144-0.006,1.775,0      c1.16,0.028,2.29,0.025,3.456,0.074c5.622,0.338,11.039,1.23,16.193,2.653l1.277,0.354c0.737,0.211,1.47,0.43,2.199,0.66      c11.481,3.758,22.005,10.341,31.33,19.584c0.82,0.786,1.694,1.659,2.558,2.56l0.125,0.124      c9.66,10.529,16.398,22.489,20.194,35.722c0.253,0.884,0.495,1.773,0.722,2.674c0.178,0.671,0.348,1.347,0.507,2.026      c1.531,6.742,2.359,13.885,2.471,21.271c0.001,10.676-0.98,20.734-2.917,30.107c-3.32,16.098-9.574,30.758-18.591,43.59      c-0.133,0.287-0.29,0.564-0.471,0.824c-3.821,5.467-7.897,10.365-12.113,14.555c-14.042,13.953-30.474,20.932-48.552,20.801      h-2.143C253.856,367.34,253.722,367.34,253.565,367.34z M255.864,356.397h0.273c15.404,0.127,28.732-5.639,40.793-17.621      c3.554-3.535,7.018-7.662,10.306-12.279c0.142-0.313,0.316-0.617,0.522-0.902c8.431-11.771,14.266-25.309,17.345-40.24      c1.787-8.648,2.692-17.961,2.691-27.678c-0.099-6.682-0.836-13.065-2.189-19.027c-0.131-0.556-0.278-1.146-0.434-1.733      c-0.005-0.017-0.01-0.033-0.014-0.051c-0.2-0.795-0.414-1.581-0.638-2.362c-3.324-11.59-9.239-22.079-17.578-31.175      l-0.041-0.035c-0.839-0.872-1.606-1.638-2.381-2.382c-8.169-8.096-17.246-13.795-27.042-17.001      c-0.578-0.183-1.213-0.373-1.852-0.554l-1.16-0.323c-4.447-1.228-9.105-1.992-13.873-2.279c-1.191-0.051-2.61-0.065-3.843-0.065      c-0.279,0-0.554,0.001-0.826,0.005c-0.771-0.008-1.411-0.008-2.048,0c-17.964,0.345-33.204,6.898-46.552,20.033      c-0.724,0.736-1.497,1.553-2.262,2.391l-0.36,0.37c-5.038,5.504-9.292,11.732-12.496,18.354l-0.169,0.387      c-1.058,2.207-1.936,4.263-2.708,6.328c-3.243,8.798-4.922,18.569-4.985,29.015c-0.083,9.863,0.754,19.168,2.491,27.809      c2.977,14.834,8.721,28.299,17.075,40.018c3.518,5.121,7.191,9.604,10.975,13.395c11.403,11.459,23.961,17.217,38.392,17.605      H255.864z M170.498,352.293h-0.979c-33.491-0.229-67.869-3.199-102.165-8.822c-8.625-1.424-14.896-3.648-19.179-6.805      c-0.12-0.088-0.238-0.182-0.351-0.277c-3.386-2.955-6.979-8.307-4.867-17.033l0.938-3.336      c10.431-34.613,25.877-53.814,45.938-57.174c0.123-0.021,0.249-0.039,0.373-0.051c4.012-0.646,8.178-1.297,12.5-1.947      c2.99-0.449,5.774,1.605,6.225,4.594c0.451,2.984-1.605,5.773-4.593,6.221c-4.381,0.664-8.603,1.32-12.662,1.977      c-0.097,0.014-0.196,0.027-0.295,0.037c-15.489,2.758-27.932,19.373-36.98,49.398l-0.864,3.061      c-0.782,3.25,0.135,4.775,1.314,5.859c2.01,1.418,6.099,3.33,14.281,4.684c33.73,5.531,67.538,8.453,100.478,8.678h0.807      c3.678-0.023,7.351-0.092,11.028-0.203c3.087-0.125,5.54,2.285,5.63,5.303c0.091,3.021-2.285,5.543-5.305,5.631      C178.007,352.198,174.249,352.27,170.498,352.293z M342.465,352.293h-0.972c-3.742-0.023-7.5-0.096-11.263-0.207      c-3.02-0.088-5.396-2.609-5.305-5.631c0.09-3.018,2.547-5.428,5.631-5.303c3.677,0.111,7.349,0.18,11.018,0.203h0.8      c32.958-0.225,66.766-3.146,100.501-8.68c8.176-1.352,12.265-3.264,14.276-4.682c1.179-1.084,2.093-2.617,1.259-6.07      l-0.84-2.951c-9.023-29.939-21.472-46.557-36.971-49.301c-0.097-0.008-0.188-0.021-0.275-0.033      c-4.059-0.656-8.278-1.313-12.662-1.977c-2.987-0.447-5.044-3.236-4.592-6.221c0.449-2.988,3.24-5.042,6.225-4.594      c4.333,0.652,8.511,1.303,12.531,1.951c0.12,0.014,0.236,0.027,0.344,0.047c20.06,3.359,35.505,22.561,45.905,57.072      l0.912,3.223c2.166,8.941-1.425,14.293-4.811,17.244c-0.113,0.1-0.23,0.195-0.353,0.281c-4.283,3.156-10.556,5.381-19.172,6.805      C410.35,349.094,375.973,352.065,342.465,352.293z M362.803,265.537c-2.247,0-4.354-1.395-5.151-3.631      c-1.016-2.848,0.47-5.976,3.315-6.99c7.878-2.807,15.335-7.709,22.163-14.568c3.786-3.797,7.46-8.278,10.923-13.32      c13.263-18.609,19.846-41.378,19.621-67.754c-0.063-10.598-1.743-20.369-4.995-29.195c-0.764-2.037-1.641-4.093-2.599-6.081      l-0.325-0.725c-3.148-6.502-7.403-12.73-12.593-18.396l-0.052-0.045c-0.922-1.002-1.694-1.818-2.478-2.613      c-13.289-13.077-28.529-19.63-46.534-19.976c-0.593-0.005-1.236-0.007-1.882,0.001c-0.679-0.008-1.229-0.008-1.78,0      c-1.084,0-2.1,0.021-3.108,0.064c-4.673,0.283-9.331,1.048-13.753,2.269l-1.186,0.33c-0.639,0.182-1.273,0.371-1.903,0.57      c-9.744,3.19-18.821,8.889-26.926,16.923c-0.839,0.805-1.606,1.571-2.365,2.362l-0.286,0.287      c-8.174,8.925-14.089,19.413-17.413,31.003c-0.224,0.782-0.438,1.568-0.638,2.363c-0.169,0.638-0.317,1.229-0.457,1.824      c-0.385,1.691-0.729,3.484-1.018,5.287c-0.479,2.981-3.293,5.004-6.267,4.537c-2.983-0.478-5.015-3.281-4.537-6.265      c0.325-2.035,0.717-4.063,1.163-6.023c0.171-0.728,0.343-1.411,0.521-2.093c0.217-0.855,0.46-1.754,0.716-2.647      c3.796-13.231,10.534-25.191,20.029-35.55l0.37-0.376c0.783-0.819,1.657-1.692,2.542-2.54      c9.261-9.182,19.784-15.765,31.214-19.506c0.781-0.247,1.514-0.466,2.251-0.677l1.303-0.36      c5.129-1.417,10.546-2.309,16.073-2.643c1.26-0.055,2.432-0.079,3.612-0.079c0.567-0.009,1.201-0.006,1.839,0      c0.608-0.008,1.334-0.008,2.055,0c20.686,0.397,38.874,8.195,54.097,23.177c0.938,0.949,1.805,1.865,2.663,2.804l0.048,0.041      c6.062,6.61,10.916,13.724,14.582,21.3l0.378,0.843c1,2.065,2.009,4.428,2.898,6.799c3.701,10.048,5.608,21.069,5.68,32.787      c0.244,28.855-7.022,53.792-21.596,74.24c-3.785,5.513-7.887,10.508-12.137,14.771c-7.985,8.022-16.815,13.795-26.242,17.151      C364.033,265.436,363.413,265.537,362.803,265.537z M149.197,265.537c-0.609,0-1.229-0.102-1.836-0.318      c-9.428-3.355-18.258-9.13-26.246-17.155c-4.249-4.26-8.35-9.255-12.189-14.846c-14.52-20.37-21.786-45.307-21.541-74.038      c0.072-11.847,1.98-22.87,5.671-32.883c0.896-2.399,1.906-4.762,3.009-7.048l0.232-0.53c3.71-7.668,8.564-14.78,14.471-21.229      l0.373-0.379c0.685-0.761,1.553-1.678,2.433-2.569c15.282-15.041,33.47-22.839,54.115-23.234      c0.761-0.012,1.488-0.011,2.221-0.001c0.512-0.005,1.144-0.005,1.775,0c1.151,0.011,2.293,0.025,3.457,0.075      c5.621,0.337,11.039,1.229,16.195,2.653l1.275,0.354c0.737,0.211,1.471,0.43,2.2,0.661c11.482,3.757,22.006,10.34,31.332,19.583      c0.819,0.785,1.691,1.657,2.554,2.557l0.141,0.139c9.646,10.515,16.385,22.476,20.181,35.71c0.258,0.89,0.502,1.793,0.731,2.705      c0.161,0.612,0.333,1.296,0.497,1.984c0.456,2.021,0.848,4.046,1.172,6.073c0.478,2.983-1.554,5.787-4.537,6.265      c-2.985,0.467-5.788-1.556-6.267-4.537c-0.287-1.797-0.633-3.591-1.026-5.33c-0.129-0.542-0.275-1.133-0.432-1.72      c-0.217-0.859-0.429-1.64-0.651-2.416c-3.328-11.6-9.242-22.088-17.581-31.183l-0.053-0.047      c-0.824-0.857-1.592-1.625-2.368-2.37c-8.169-8.095-17.246-13.795-27.043-17.001c-0.579-0.183-1.213-0.373-1.851-0.554      l-1.163-0.323c-4.444-1.227-9.104-1.992-13.87-2.279c-1.19-0.051-2.607-0.064-3.844-0.065c-0.279,0-0.551,0.001-0.825,0.005      c-0.772-0.008-1.413-0.008-2.049,0c-17.963,0.344-33.204,6.898-46.552,20.033c-0.722,0.734-1.494,1.551-2.258,2.387      l-0.378,0.386c-5.022,5.493-9.279,11.723-12.481,18.341l-0.17,0.388c-1.059,2.209-1.936,4.263-2.707,6.325      c-3.242,8.796-4.924,18.567-4.988,29.019c-0.224,26.527,6.358,49.296,19.566,67.826c3.518,5.121,7.191,9.603,10.975,13.396      c6.831,6.863,14.288,11.764,22.167,14.572c2.846,1.014,4.331,4.142,3.316,6.99C153.552,264.143,151.445,265.537,149.197,265.537      z" fill="#333333"/></g></g></g></svg>