<?xml version="1.0" encoding="utf-8"?>
<!-- Generator: Adobe Illustrator 22.1.0, SVG Export Plug-In . SVG Version: 6.00 Build 0)  -->
<svg version="1.1" id="Ebene_1" xmlns="http://www.w3.org/2000/svg" xmlns:xlink="http://www.w3.org/1999/xlink" x="0px" y="0px"
	 viewBox="0 0 1586 1072.5" style="enable-background:new 0 0 1586 1072.5;" xml:space="preserve">
<style type="text/css">
	.st0{fill:#FFFFFF;}
</style>
<g id="Y3bZ1y.tif">
	<g>
		<path class="st0" d="M1586,367.2c-24.6,0.7-49.2,1.3-73.8,2.1c-24.4,0.9-48.9,1.1-73.3,3.2c-38.9,3.5-77.8,7.7-116.5,12.7
			c-52.8,6.8-105.6,13.6-158.1,22.3c-54.8,9.1-109.4,20.1-163.9,31.3c-35.2,7.2-70.3,15.4-105.1,24.6
			c-39.8,10.5-79.2,22.3-118.6,34.2c-29.8,9-59.7,18-88.9,28.8c-39.8,14.7-79.3,30.4-118.4,46.9c-29.9,12.6-58.9,27.3-88.6,40.4
			c-12.4,5.5-20.5,14.5-26,26.3c-9.4,20.2-18.7,40.5-27.9,60.8c-9,19.9-18.1,39.7-26.9,59.7c-11.4,25.9-22.9,51.8-33.9,77.9
			c-18.5,43.9-36.7,87.9-55,131.9c-7.3,17.5-14.3,35.2-22,52.5c-2.1,4.8-5.9,9.4-10.1,12.5c-7,5.2-17.8-0.5-17.8-9.3
			c0-4.8,0.9-10,2.8-14.5c14.8-35.5,29.9-70.9,44.9-106.3c13.4-31.6,26.5-63.3,40.1-94.8c10.2-23.5,20.6-47,31.4-70.2
			c14.4-30.8,29.2-61.3,43.9-92c0.4-0.9,0.6-1.8,1.4-4c-4.3,1.8-7.6,3.1-10.8,4.7c-52.4,26.7-103.2,56.3-153.8,86.3
			c-43.5,25.8-87.4,51.1-130.5,77.7c-25.6,15.8-50,33.7-74.9,50.7c-4.2,2.9-8.3,5.3-13.7,4.9c-4-0.3-7.3-1.3-9.1-4.9
			c-1.9-3.8-2-8.1,1-11.3c5.1-5.4,10.3-11,16.4-15.2c19.8-13.8,39.7-27.5,60.1-40.4c28-17.8,56.2-35.2,84.7-52.1
			c28.6-17,57.7-33.3,86.6-49.8c46.1-26.3,92.6-52.2,140.8-74.7c18.3-8.5,27.8-23.7,36.8-40.3c29.4-54.1,58-108.7,91.8-160.4
			c27.4-42,56.7-82.6,88.6-121.4c19.1-23.2,38.7-46.1,58.7-68.6c16.3-18.4,33.2-36.4,50.1-54.2c17.6-18.4,35.3-36.8,53.6-54.5
			c21.6-20.8,43.9-40.8,65.9-61c3-2.8,5.1-5.1,2.7-9.7c-1.8-3.5-1.2-7.7,2.4-10.3c4.8-3.5,9.6-7.2,14.9-9.9
			c23.4-11.5,47.5-21.1,72.6-28.2c3.2-0.9,6.6-1.1,9.9-1.6c0.2,0.6,0.5,1.2,0.7,1.7c-4.1,3.7-8.2,7.5-12.4,11.2
			c-23.5,20.3-47.3,40.3-70.6,60.9c-17.7,15.6-34.9,31.8-52,48.1c-20.3,19.2-40.8,38.3-60.2,58.4C753,204,730.4,228,709.1,253.1
			c-28.1,33-55.9,66.5-82,101.2c-21.4,28.4-40.7,58.6-59.9,88.6c-25.5,39.8-50.1,80.2-75,120.5c-4.4,7.2-8,14.9-11.9,22.4
			c0.3,0.4,0.6,0.8,0.9,1.2c4.2-1.7,8.4-3.3,12.6-5.1c50.9-22.1,101.2-45.4,152.7-65.9c39.1-15.5,79.6-27.7,119.6-40.8
			c24.4-8,48.9-15.6,73.7-22.1c33.7-8.8,67.6-16.8,101.5-24.4c35.7-8,71.6-15.7,107.6-22.7c37.9-7.4,76-14.1,114-20.6
			c33.5-5.7,67-10.8,100.6-15.7c24.9-3.6,49.8-6.5,74.7-9.5c23.4-2.8,46.9-5.3,70.4-7.8c11.2-1.2,22.5-2,33.8-2.8
			c3.4-0.3,5.2-1.5,5.8-5.3c1.1-8.1,8-10.7,17.6-9.6c34.5,4,67.7,14.2,101.2,23.2c6.4,1.7,12.6,4.3,18.9,6.5
			C1586,365.2,1586,366.2,1586,367.2z"/>
		<path class="st0" d="M0,456.2c3-4.7,7.2-6.7,12.7-6.1c19.1,2.3,38.4,3.7,57.4,7.1c31.5,5.6,62.9,11.7,94,19.1
			c59.3,14,116.7,34,172.4,58.8c23.5,10.5,45.9,23.5,68.8,35.4c1.4,0.7,2.9,1.4,5.4,1.3c-3.1-7-6.1-14.2-9.5-21.1
			c-13-26.5-25.6-53.2-39.2-79.3c-22.2-42.6-47.4-83.4-78.5-120.2C271,336.6,258.1,322.2,245,308c-12.2-13.4-25-26.3-37.4-39.5
			c-7.4-7.9-14.6-15.9-21.9-23.9c-5.1-5.6-6.3-12-3.2-15.8c4.1-4.9,11.9-5.7,18.1-1.1c6.4,4.7,12.7,9.8,18.4,15.3
			c9.4,9,18.3,18.4,27.4,27.7c2,2,3.8,4.2,5.8,6.2c29.5,29.1,54.9,61.5,78.6,95.4c32.3,46.3,60.1,95.2,84.2,146.2
			c10.3,21.7,20.6,43.4,26.7,66.7c0.9,3.5,1.3,7.2,1.2,10.8c-0.3,8-7.5,14-15.1,11.6c-8.6-2.7-17.3-6.1-25.1-10.6
			c-41.7-24-85.2-44-130.4-60.5c-36.8-13.5-74-25.6-112.3-34.1c-40.7-9-81.6-16.8-122.3-25.1c-10.3-2.1-20.6-4.2-30.7-6.7
			c-2.5-0.6-4.7-2.9-7-4.4C0,462.9,0,459.5,0,456.2z"/>
		<path class="st0" d="M489.1,667.7c2.5,6.9,4.6,13.2,6.9,19.3c13.3,34.7,26.4,69.6,34.5,105.9c7.7,34.8,14.5,69.8,20.1,105
			c3.9,24.8,6.1,49.9,7.3,75c1.4,28.9,0.9,57.9,1.1,86.9c0,4.7-1.1,9.4-5.9,11.2c-8.1,3.1-15.2,1.5-16-8.9
			c-0.6-7.3-0.9-14.6-1.1-21.9c-0.7-24.8-0.7-49.6-2.2-74.4c-2.6-41.5-4.8-83.1-13.8-123.9c-9.1-41.2-21.1-81.6-35.2-121.4
			c-6.5-18.4-13.2-36.7-19.7-55c-0.7-2-1.2-4.2-1.7-6.3c-1.8-6.8-2.8-13.7,3.4-19c6.7-5.7,14.2-4.4,21.1-0.7
			c11.5,6.3,23,12.7,34.1,19.9c29.7,19.1,58,40.3,85,63.1c18.4,15.5,36.2,31.9,54.2,48c15.6,14,31.4,27.9,46.3,42.6
			c12,11.9,23.1,24.9,34.1,37.8c19,22.5,37.5,45.4,56.2,68.2c1.4,1.7,2.6,3.5,3.6,5.4c3.1,5.4,2.6,8.7-1.9,12.9
			c-3.9,3.7-7.1,4.2-12,0.2c-5.3-4.4-10.2-9.5-14.8-14.7c-21.5-24.5-42.2-49.8-64.4-73.7c-19.4-21-40-41-60.7-60.8
			c-32.8-31.2-67.7-60.2-104.3-86.9c-15.7-11.5-32.4-21.6-48.7-32.3c-0.8-0.5-1.7-1-2.7-1.4C491.4,667.7,490.9,667.8,489.1,667.7z"
			/>
		<path class="st0" d="M1116.2,187.5c6.6,0.6,13.3,0.8,19.8,2c21.4,4,36.9,23.1,38.3,45.4c1.1,18.4-5.2,32.9-20.1,43.6
			c-4,2.9-3.5,4.7-0.4,8c14.1,15,27.9,30.3,41.8,45.6c1.9,2.1,3.3,4.6,4.8,7c1.8,3,1.1,5.2-2.5,5.8c-6.2,1.1-12.5,2.4-18.7,2.8
			c-2.1,0.1-4.8-2-6.4-3.8c-12.3-13.3-24.2-27-36.7-40.1c-11.9-12.5-12.2-12.3-29.1-9.1c-1.8,0.3-3.6,0.6-5.4,0.9
			c-8.8,1.6-9.3,2.4-7.7,11.2c3,16,5.8,32.1,8.9,48.1c0.8,4.3-0.7,6.3-4.7,7.1c-3.9,0.8-7.8,1.8-11.7,2.6c-5.9,1.2-7.2,0.5-8.4-5.3
			c-3.6-16.8-7.1-33.6-10.4-50.4c-6.6-33.7-13-67.3-19.7-101c-0.9-4.4,0.6-6.4,4.5-7.8C1072.8,192.5,1094,188.1,1116.2,187.5z
			 M1114,211.5c0-0.4-0.1-0.9-0.1-1.3c-11.1,1.7-22.3,3.5-33.4,5.3c-2.7,0.4-4.6,1.6-4,5c3.3,17,6.5,34,10,50.9
			c0.3,1.5,3.4,3.7,4.8,3.5c14.2-2.3,28.7-4.1,41.8-10.8c15.3-7.9,18.9-31.1,7.2-43.9C1133.2,212.2,1124.2,210.4,1114,211.5z"/>
		<path class="st0" d="M740.8,449.2c-3.7,0-7.8,0.2-11.7-0.1c-5.2-0.3-7.2-2.4-7.1-7.7c0.1-3.8,0.6-7.6,0.9-11.4
			c0.3-3.4,2.6-3.9,5.3-3.9c6.8,0,13.7-0.1,20.5-0.1c13.2-0.1,25.2-4.2,36.4-10.8c8.1-4.8,12-11.9,10.5-21.4
			c-1.6-10.2-5.1-19.6-16.8-21.6c-11.3-1.9-22.8-2.5-34.1-4c-8.6-1.1-17.4-1.6-25.6-4c-15.4-4.5-24.9-15.4-28.7-31.1
			c-3.6-15-1.8-28.8,8.9-40.7c7.1-7.8,15.8-13.4,25.5-17.1c14.7-5.7,30-9.1,45.9-8.4c1.3,0.1,2.7,0,4,0.2c7.5,0.9,8.3,1.8,8.3,9.4
			c0,13.3-1.1,14.6-14.4,14.5c-11.7-0.1-23.4,0.1-34.2,5.5c-4.7,2.4-9.2,5.3-13.2,8.8c-12.2,10.7-3.6,30.1,6.9,33
			c8,2.2,16.2,3.3,24.4,4.5c9.7,1.3,19.6,1.7,29.2,3.3c30.9,5,49.1,37.9,36.5,65.9c-6.5,14.5-18.5,23.3-32.9,29
			C771.2,446.8,756.5,450.2,740.8,449.2z"/>
		<path class="st0" d="M1253.6,205.2c9.7-0.7,19,0.3,27.2,6.2c10.2,7.4,15.4,18,17.1,30c3.5,24.5,6.1,49.2,9.4,73.8
			c1.7,12.7,1.9,11.6-10.9,15c-16.3,4.4-32.6,8.5-49.6,8c-9.9-0.2-19.2-2.4-26.7-9.4c-20.9-19.5-16.5-51.5,9-65.2
			c10.2-5.5,21.1-7.7,32.7-7.6c14,0.1,14.5-0.8,9.8-14.8c-3.4-10.3-14-16.4-24.6-14.4c-9.3,1.8-18.4,4.4-27.5,7.1
			c-6.3,1.9-7.4,1.6-9.7-4.5c-4.7-12.9-4.4-13.5,8.5-18.3C1229.8,206.9,1241.4,204.4,1253.6,205.2z M1268.3,276.1
			c-5,0.5-9.9,0.9-14.9,1.7c-6.2,1-11.8,3.5-16.1,8.3c-5.2,5.8-4.9,12.3-2.3,19.1c3,7.9,9.5,10.8,17,10.7c7.9-0.1,15.8-1.8,23.7-2.7
			c3.9-0.4,5.6-2.4,5.2-6.3c-0.7-7.1-1.4-14.2-2.2-21.3C1277.8,276.5,1277.5,276.3,1268.3,276.1z"/>
		<path class="st0" d="M982.2,388.3c-23.2,0-40.9-13.6-47-35.6c-6.8-24.5-12.7-49.4-18.8-74.1c-1.5-6.1-0.4-7.6,5.7-9.3
			c3.5-0.9,7.2-1.5,10.7-2.5c3.7-1,5.7,0.3,6.6,3.9c2.9,11.1,5.8,22.2,8.7,33.4c3.3,12.7,6.4,25.5,10.2,38.1
			c1.5,4.8,4.2,9.4,7.2,13.6c6.1,8.5,15.2,9.6,24.7,7.9c5.7-1,11.3-3,16.9-4.5c4.8-1.2,6.1-3.9,5.1-8.9
			c-5.8-29.1-11.4-58.2-16.9-87.3c-1.9-9.9-1.7-9.9,8.1-12.2c13.3-3.1,13.5-3.2,16.1,10c6.8,33.5,13.3,67,19.9,100.5
			c1.7,8.8,1.6,9-6.5,12.4C1015.9,381,998.4,387.4,982.2,388.3z"/>
		<path class="st0" d="M881.1,412.4c-17.2,0-30-8.9-35.4-25.7c-4.8-14.9-8.9-30-12.8-45.2c-6.3-24.2-12.3-48.4-18.3-72.7
			c-1.8-7.3-1.3-7.8,5.6-11.2c3-1.5,6.1-2.6,9.1-4.1c4.4-2.1,6.5-0.2,7.6,4c2.2,8.4,4.7,16.7,6.7,25.1c1,4.3,2.8,5.4,7,4.4
			c11.7-2.8,23.4-5.3,35-8.1c3.7-0.9,5.7,0.2,6.5,3.9c0.7,2.9,1.6,5.8,2.2,8.7c1.3,5.8,0.7,6.9-5.2,8.5c-10.5,2.8-21,5.4-31.4,8.3
			c-5.7,1.6-6.6,3-5.2,8.7c4.7,18.4,9.5,36.8,14.3,55.1c0.3,1.1,0.7,2.2,1.2,3.3c5.7,11.9,10,15,25.3,11.9c5.7-1.2,11-4.5,16.4-7.1
			c5.5-2.6,6.5-2.4,9.5,2.8c7.2,12.7,6.6,14.7-6.5,21.3C902.8,409.3,892.3,412.9,881.1,412.4z"/>
		<path class="st0" d="M1456.9,409.2c3.5,0,7-0.1,10.5,0c4.7,0.2,7.7,2.3,8.1,7.6c1.1,12.4,2.6,24.8,3.5,37.2
			c0.7,9.9,1.1,19.9,1.2,29.8c0.1,11.1-7,17.5-16.3,21.1c-10.3,4-21.1,4.2-32,2.7c-6.1-0.8-4.9-5.1-5-9c-0.1-4.4,2.8-4.4,6-4.6
			c7.6-0.3,15.3-0.3,22.8-1.5c6.4-1.1,9.8-5.9,10.1-11.4c0.2-3.5-0.7-4.8-4.6-3.8c-4.3,1.1-8.8,1.7-13.2,2.1
			c-18.3,1.7-32.5-13.3-33.1-31.6c0-1.2,0-2.3-0.1-3.5c-0.2-21,12.4-34.2,33.6-35.1c2.8-0.1,5.7,0,8.5,0
			C1456.9,409.1,1456.9,409.2,1456.9,409.2z M1452.4,422.4c-3.9,1.2-8.2,1.6-11.6,3.6c-9.9,5.8-12.6,19.4-6.6,29.9
			c6.4,11.3,18,11.4,27.2,6.6c1.6-0.8,2.9-4,2.8-6c-0.4-8.1-1.6-16.2-2.2-24.3C1461.3,423.5,1461.1,423.2,1452.4,422.4z"/>
		<path class="st0" d="M1220.4,441.6c7.3-1.3,13.7-2.8,20.2-3.4c14.7-1.3,24.9,5.9,29.9,19.2c5.5,14.8,7.3,29.9-3.3,43.6
			c-7.7,9.9-19,12.2-30.7,13.2c-3.3,0.3-6.7,0.1-10,0.1c-8.5,0-9-0.3-10.5-8.5c-3.4-18.8-6.8-37.7-10-56.5
			c-1.7-9.7-3.2-19.4-4.7-29.1c-1-6.4,2.3-10.9,8.8-10.8c1.5,0,3.9,2.4,4.3,4c1.9,7.8,3.2,15.7,4.7,23.5
			C1219.5,438.7,1220,440.5,1220.4,441.6z M1259.6,478.7c-1.2-4.6-1.9-9.5-3.5-13.9c-4.9-13.1-18.6-17-29.9-8.5
			c-1.3,1-2.7,3.3-2.4,4.8c1.6,11.7,3.5,23.4,5.6,35c0.3,1.5,2.3,3.6,3.7,3.8C1246.9,501.4,1259.6,493.9,1259.6,478.7z"/>
		<path class="st0" d="M1131.7,457.1c20.9-1.5,30,16.1,30.5,32.2c0.1,3.7-2.1,4.8-5.2,5.4c-11.9,2.4-23.8,4.9-35.7,7.4
			c-5.3,1.1-5.7,2.4-2.8,7.1c4.2,6.7,11.5,10.1,19.3,8.4c5.3-1.2,10.6-3,15.8-4.7c3.3-1.1,6-0.8,7.5,2.5c1.6,3.4,2.3,7.3-1.6,9.3
			c-13.1,6.8-26.9,11.3-41,4.3c-13.3-6.6-19.2-18.9-20.4-33.3c-1.2-14.1,3.3-25.8,15.6-34C1119.3,457.9,1125.4,456.7,1131.7,457.1z
			 M1116,489.6c8.4-1.8,15.7-3.2,23-5c4.7-1.2,5.2-3.1,2.3-7.2c-3.5-5-10-7.5-15.2-5.9c-7.1,2.1-12.4,8.2-12.4,14.6
			C1113.8,487.3,1115.3,488.5,1116,489.6z"/>
		<path class="st0" d="M810.2,608.4c-7.1,0.9-13-3.4-17.7-9.7c-2-2.6-3.8-5.6-4.9-8.7c-4.4-13.1-8.5-26.3-12.8-39.4
			c-1.6-4.7,1.1-6.3,4.8-7.5c3.8-1.3,7.3-1.8,8.9,3.1c1.9,5.7,3.9,11.4,5.8,17c1.9,5.7,3.7,11.4,5.7,17.1
			c5.8,16.3,14.6,16.4,28.2,9.7c3.4-1.7,3-4.5,2.1-7.3c-2.9-9.9-5.9-19.8-8.9-29.7c-1.6-5.3-3-10.6-4.6-15.8c-1-3.1-0.2-4.9,3-6.2
			c11.6-4.8,12.7-4.4,16,7.7c4.4,16.4,8.5,32.9,12.9,49.3c1.3,5-0.2,8.2-4.9,10.4C833.4,603.4,823.3,608.4,810.2,608.4z"/>
		<path class="st0" d="M1319.9,499.4c-17.3,0-26-6.5-29.7-23.3c-2.9-13.3-4.9-26.8-6.9-40.3c-0.2-1.5,2-3.5,3.2-5.1
			c0.2-0.3,0.9-0.3,1.4-0.4c11-2.5,11.6-2.2,13.4,9c1.6,10.2,3,20.4,4.8,30.6c0.6,3.2,1.4,6.7,3.1,9.4c1.6,2.4,4.5,5.1,7,5.4
			c5.2,0.6,10.6,0.1,15.8-0.9c1.5-0.3,3.5-3.7,3.3-5.4c-1.5-15.1-3.4-30.1-5.2-45.1c-0.5-4-1.4-8.1,4.5-9.3c6.7-1.5,8.9-0.5,9.8,6.5
			c2.5,19.1,4.6,38.3,7,57.4c0.5,3.6-1.4,5.4-4.3,6.2c-8.9,2.4-17.9,4.5-26.9,6.7C1320.1,500.3,1320,499.8,1319.9,499.4z"/>
		<path class="st0" d="M894.4,512.8c6.2-0.4,14.2,4,17.5,13.6c5.3,15.6,9.3,31.5,13.6,47.4c1.2,4.4-2.8,5.1-5.8,5.9
			c-3.3,0.9-6.8,1.5-8.2-3c-1.7-5.9-3.3-11.9-5-17.8c-1.9-6.9-3.7-13.8-5.9-20.6c-3.1-9.7-7.8-12.4-17.8-10.7
			c-12.1,2.1-13.1,3.6-10.2,15.4c3.2,12.8,6.4,25.5,9.5,38.3c1.6,6.7-3,11.5-9.7,9.7c-1.5-0.4-3.3-2.4-3.7-4
			c-5.1-19.3-10-38.7-14.9-58c-0.8-3.3,0.4-5.5,3.3-6.9C867.7,517.2,878.5,513.2,894.4,512.8z"/>
		<path class="st0" d="M988.7,471.9c0.1-10.5,5.3-19,15.3-22.3c6.2-2.1,13-2.5,19.5-3.4c3.9-0.5,5.9,1.7,6,5.6
			c0,3.7-0.7,6.9-5.3,7.7c-4.5,0.8-9.3,1.4-13.5,3.2c-6.1,2.6-9,11.1-5.9,16.9c0.8,1.5,4.2,2.4,6.2,2.1c5.1-0.6,10.1-2,15.2-3
			c3.7-0.8,6.7-0.1,7.7,4.2c0.9,4.1,0,7.2-4.7,8.2c-5.2,1.2-10.3,2.6-15.5,3.9c-3.6,0.9-4.7,2.8-3.8,6.6
			c3.7,15.4,7.2,30.8,10.6,46.2c1.2,5.5,0.2,6.9-5,8.1c-5.6,1.3-7.9,0.4-9.1-4.6c-5.7-24-11.2-48-16.8-72
			C988.9,476.9,988.9,474.3,988.7,471.9z"/>
		<path class="st0" d="M1079.2,466.3c4.6,0.4,7.3,2,7.8,6.7c0.5,5.1-0.7,6.9-5.9,8c-4.2,0.9-8.5,1.6-12.7,2.4
			c-4.6,0.9-5.7,3.5-4.9,8c2.8,14.5,5.4,29.1,8,43.7c1.2,6.7,0.3,8.2-5.5,9.3c-6.1,1.2-7.9-0.1-9.3-6.5
			c-3.4-16.8-6.9-33.6-10.3-50.4c-1.9-9.4-0.9-11.3,8.3-14.4C1062.9,470.5,1071.1,468.5,1079.2,466.3z"/>
		<path class="st0" d="M1394.9,416c1,0,2,0,3,0c3.7,0,7.2-0.1,7.2,5.2c0,6.1-1.4,7.8-7.2,8.2c-3.8,0.3-7.6,0.6-11.4,1.2
			c-5.6,0.8-6.9,2.4-6.3,8c1.3,11.6,2.9,23.1,4.3,34.7c0.4,3.6,0.7,7.3,1.2,10.9c0.5,3.6-0.1,6.3-4.3,7c-6.6,1.1-9.3,0.1-10.1-4.7
			c-1.6-10.9-3-21.8-4.4-32.7c-1-7.4-1.7-14.9-2.7-22.3c-0.8-6.3,0.7-9.3,6.6-11c7.8-2.2,15.8-3.7,23.7-5.5
			C1394.7,415.3,1394.8,415.7,1394.9,416z"/>
		<path class="st0" d="M607.8,1025.3c-13.6,0.1-13.8,0-10.7-13.2c2.5-11.2,5.7-22.2,8.5-33.4c1.2-4.7,4-7,9-6.7
			c3.8,0.2,7.7-0.1,11.5,0.1c10.3,0.6,17.6,8.1,18.1,18.4c1,20.9-11.8,34.5-32.8,34.8C610.2,1025.3,609,1025.3,607.8,1025.3z
			 M634,994c0.1-8.1-3.2-11.7-11.8-13.3c-4.2-0.8-6.9,0.5-7.9,4.7c-2.1,8.6-4,17.2-6.2,25.7c-1.1,4.4,0.9,5.2,4.6,4.9
			C625.3,1015.3,633.8,1006.6,634,994z"/>
		<path class="st0" d="M1554.9,1023.3c-3.8,0-6.5,0.2-9.1,0c-6.5-0.6-10.3-4.4-10.9-10.9c-1.4-15.1,9.7-27.8,24.9-28.3
			c14.2-0.5,15.2,0.5,12.2,14.3c-2,9.3-4.4,18.4-7,27.6c-1.9,6.5-6.4,11.2-13,12.5c-5.1,1-10.6,0.6-15.8,0.2c-3.4-0.3-6-2.5-5.2-6.5
			c0.9-3.9,4.1-3.2,6.9-2.7c5.4,0.9,10.6,1.6,14.9-2.9C1553.5,1026,1553.8,1025.2,1554.9,1023.3z M1562.6,993.4
			c-9.9,0.4-17,6.6-17.4,13.7c-0.2,3,0.4,5.9,3.9,6.6c3.4,0.8,7.3,0.8,8.7-2.8C1559.8,1005.5,1560.9,999.7,1562.6,993.4z"/>
		<path class="st0" d="M1108.9,1010.8c0.1-14.5,8.6-24.6,23.1-26.7c4.6-0.7,7-2.5,8-7.2c0.7-3.3,2.5-6.4,4.4-9.2
			c0.8-1.1,3.5-1.9,4.8-1.5c1.1,0.4,2,3,1.8,4.5c-0.7,5.6-1.9,11.1-2.9,16.7c-2,10.9-4.1,21.9-6,32.8c-0.6,3.4-2.2,5-5.6,5
			c-4.1,0-8.2-0.1-12.3,0.1C1114.2,1025.8,1108.8,1020.7,1108.9,1010.8z M1134.7,993.1c-9.6,1-16.6,9-15.4,17.4
			c0.3,1.9,2.1,4.9,3.5,5.1c2.4,0.3,6.4-0.5,7.3-2.2C1133.5,1007.4,1134.8,1000.6,1134.7,993.1z"/>
		<path class="st0" d="M905.9,1010.6c0.1-14.3,8.7-24.5,22.8-26.5c4.8-0.7,7.3-2.5,8.4-7.4c0.7-3.4,2.9-6.6,4.9-9.5
			c0.7-1,3.3-1.6,4.4-1c1,0.5,1.8,2.8,1.7,4.2c-0.6,5.1-1.6,10.2-2.6,15.2c-2.1,11.6-4.4,23.2-6.4,34.8c-0.6,3.4-2.4,4.9-5.7,4.9
			c-3.9,0-7.9-0.1-11.8,0.1C911.3,1025.9,905.8,1020.8,905.9,1010.6z M931.6,993.3c-9.2,0.3-16.7,8.8-15.3,17.4
			c0.3,1.9,2.2,4.7,3.7,4.9c2.2,0.4,6.1-0.4,7-2C930.4,1007.5,931.9,1000.6,931.6,993.3z"/>
		<path class="st0" d="M946.7,572.3c-0.7-0.8-2.8-2.1-3.3-3.9c-5.2-20-10.1-40-15.1-60c-1.3-5.3,2.2-6.6,6.2-7.6
			c4-1.1,6.7-0.5,7.8,4.1c4.7,19.1,9.7,38.1,14.4,57.1C958.5,569.4,955.9,572.4,946.7,572.3z"/>
		<path class="st0" d="M1197.6,514.2c0,4.4-2.6,5.8-6.2,6c-3.5,0.2-7.7,1.5-8.6-4.1c-3.3-20-6.7-40-9.8-60.1
			c-0.8-5.4,0.7-6.6,6.6-7.7c4.6-0.8,6.9,0.9,7.6,5.4C1190.6,473.9,1194.1,494,1197.6,514.2z"/>
		<path class="st0" d="M809.3,1026.9c-3.7-0.7-7.6-1.1-11.1-2.4c-1.4-0.5-3.1-3.2-2.8-4.4c0.5-1.6,2.6-3.2,4.3-3.8
			c1.5-0.6,3.6,0.3,5.4,0.3c3.1,0.1,6.5,0.8,9.4-0.2c2.5-0.8,5.5-3.3,6-5.5c0.5-1.8-1.9-4.9-3.8-6.7c-2.1-2.1-4.8-3.5-7.4-5.1
			c-5.2-3.2-6.9-7.9-6.2-13.7c0.7-5.9,3.4-11,9.3-12.4c5.8-1.4,12.1-1.4,18.1-1.4c3.1,0,6,1.9,5.3,5.8c-0.7,3.9-3.8,3.8-7.1,3.5
			c-3.6-0.3-7.4-0.8-10.8,0.1c-5.5,1.4-6.2,6.6-1.8,10.2c2.1,1.7,4.5,2.9,6.7,4.3c7.3,4.8,9.8,10.6,8.1,18.2
			c-1.5,6.3-8.5,11.8-16,12.4c-1.8,0.2-3.7,0-5.5,0C809.3,1026.5,809.3,1026.7,809.3,1026.9z"/>
		<path class="st0" d="M1395.7,1012.3c4.2,4.9,8.2,3.7,12.1,3.3c2.6-0.2,6-2,7.1,2c1.1,4.2-1.9,6.5-5.4,6.9
			c-4.7,0.5-9.7,0.7-14.3-0.3c-7.1-1.7-9.6-6.9-9.4-16.1c0.4-14,11.1-24.5,24.5-24.1c5.9,0.2,9.9,2.7,11.3,7.3
			c1.8,5.5,0,11.6-5.2,14.3c-4.3,2.2-9.4,3.1-14.1,4.6C1400.5,1010.9,1398.5,1011.5,1395.7,1012.3z M1399.1,999.9
			c0.2,0.5,0.4,1.1,0.6,1.6c3.2-0.9,6.6-1.6,9.7-2.8c1-0.4,1.3-2.3,2-3.5c-1.3-0.6-2.6-1.7-3.8-1.6
			C1403.4,993.7,1400.7,996.2,1399.1,999.9z"/>
		<path class="st0" d="M1040,1012.4c3.4,4.8,7.3,3.6,11,3.4c3-0.1,7.2-2.8,7.9,2.6c0.7,4.9-3.5,6.1-7.1,6.6c-3.3,0.5-6.7,0.4-10,0
			c-7.4-1-11.7-6-12-13.6c-0.4-10.1,3-18.2,11.5-24.1c5.3-3.7,11.2-4.1,17.2-2.7c4.2,1,6.9,4,7.5,8.4c0.8,5.4-0.7,10.3-5.7,12.8
			c-4.4,2.1-9.4,3-14.2,4.5C1044.3,1010.9,1042.4,1011.6,1040,1012.4z M1042.4,1001.8c4.5-1.3,7.9-2,11.1-3.3c0.9-0.3,2-2.6,1.7-3.1
			c-0.7-1-2.3-2-3.4-2C1047.5,993.7,1044.6,996.1,1042.4,1001.8z"/>
		<path class="st0" d="M974,1012.4c3.4,4.8,7.3,3.6,11,3.4c3-0.1,7.2-2.8,7.9,2.6c0.7,4.9-3.5,6.1-7.1,6.6c-3.3,0.5-6.7,0.4-10,0
			c-7.4-1-11.7-6-12-13.6c-0.6-16.1,9.7-27.7,24.2-27.4c6.2,0.1,10.3,2.8,11.7,7.5c1.7,5.8-0.3,11.8-5.9,14.5
			c-4.3,2.1-9.1,2.8-13.7,4.2C978.3,1010.9,976.4,1011.6,974,1012.4z M977.1,999.9c0.2,0.5,0.4,1.1,0.6,1.6c3.2-0.9,6.6-1.6,9.7-2.8
			c1-0.4,1.3-2.3,2-3.5c-1.3-0.6-2.6-1.7-3.8-1.6C981.4,993.7,978.7,996.2,977.1,999.9z"/>
		<path class="st0" d="M752.7,1012.4c4.3,4.7,8.4,3.6,12.2,3.2c2.7-0.3,6-2,7,2.2c1,4.2-2,6.4-5.5,6.8c-4.6,0.5-9.4,0.7-13.8-0.2
			c-6.2-1.3-9.3-6-9.7-12.4c-0.6-10.4,2.9-18.9,11.7-24.9c5.3-3.6,11.3-3.9,17.3-2.4c4,1,6.5,4,7.1,8.2c0.8,5.4-0.6,10.3-5.6,12.8
			c-4.4,2.2-9.4,3.1-14.1,4.5C757.4,1010.9,755.5,1011.5,752.7,1012.4z M755.4,1001.8c4.5-1.3,7.9-2,11.1-3.3c0.9-0.3,2-2.6,1.7-3.1
			c-0.7-1-2.3-2-3.4-2C760.5,993.7,757.6,996.1,755.4,1001.8z"/>
		<path class="st0" d="M655.8,1012.2c3.9,5,8,3.8,11.9,3.5c2.8-0.2,6.4-2.2,7.3,2.3c0.9,4.3-2.3,6.3-5.7,6.7
			c-4.4,0.5-9,0.6-13.3-0.2c-6.2-1.2-9.6-5.9-9.9-12.2c-0.7-10.4,2.7-19,11.5-25c5.3-3.7,11.2-4,17.2-2.6c4.2,1,6.8,4,7.4,8.5
			c0.7,5.4-0.8,10.3-5.8,12.7c-4.3,2.1-9.1,3-13.7,4.4C660.6,1010.8,658.6,1011.4,655.8,1012.2z M658.5,998.9
			c0.4,0.9,0.8,1.7,1.3,2.6c3.1-0.8,6.3-1.4,9.2-2.6c1.1-0.5,1.6-2.5,2.4-3.8c-1.4-0.6-3.3-1.9-4.2-1.5
			C664,995,661.3,997.1,658.5,998.9z"/>
		<path class="st0" d="M1158.7,1012.4c4.2,4.8,8.3,3.6,12.1,3.3c2.6-0.2,6-2,7.1,2.1c1.1,4.2-1.9,6.5-5.4,6.9
			c-4.7,0.5-9.7,0.7-14.3-0.4c-7.3-1.8-9.9-7.3-9.3-17.1c0.8-13.4,11.4-23.5,24.5-23.1c5.9,0.2,9.9,2.8,11.3,7.3
			c1.7,5.5,0,11.6-5.3,14.3c-4.3,2.2-9.4,3.1-14.1,4.6C1163.4,1010.9,1161.5,1011.5,1158.7,1012.4z M1161.5,998.9
			c0.4,0.9,0.8,1.7,1.3,2.6c3.1-0.8,6.3-1.4,9.2-2.6c1.1-0.5,1.6-2.5,2.4-3.8c-1.4-0.6-3.3-1.9-4.2-1.5
			C1167,995,1164.3,997.1,1161.5,998.9z"/>
		<path class="st0" d="M1272.7,1012.3c4.1,5,8.1,3.7,12,3.4c2.8-0.2,6.4-2.1,7.2,2.5c0.8,4.3-2.5,6.2-5.9,6.6
			c-4.4,0.5-9,0.6-13.3-0.3c-6.2-1.2-9.5-6-9.9-12.2c-0.6-10.4,2.8-19,11.6-25c5.3-3.6,11.2-4,17.2-2.5c4,1,6.6,3.9,7.3,8
			c0.8,5.4-0.4,10.4-5.4,12.9c-4.4,2.2-9.4,3.1-14.1,4.6C1277.5,1010.9,1275.6,1011.4,1272.7,1012.3z M1276.7,1001.5
			c3.4-1.1,6.9-2,10.2-3.3c0.8-0.3,1.4-2.2,1.2-3.3c-0.1-0.7-1.8-1.5-2.8-1.5C1280.7,993.4,1277.8,996,1276.7,1001.5z"/>
		<path class="st0" d="M1463.1,984.7c5.2,0.1,6.3,1.9,5.6,5.2c-1.4,6.2-2.8,12.3-4.1,18.5c-0.6,2.8-1.1,6.1,2.4,7.2
			c3.7,1.1,6.7-0.9,7.9-4.3c2.2-6.3,3.8-12.7,5.8-19.1c0.5-1.6,0.7-3.8,1.8-4.5c2-1.3,4.6-2,6.9-2.1c0.5,0,2,3.4,1.8,5.1
			c-1.5,10.2-3.4,20.3-5.2,30.4c-0.8,4.1-3.7,4.4-7.2,4c-2.7-0.4-5.5-0.6-8.1-0.1c-10.7,2.2-17.5-2.7-16.5-13.6
			c0.6-7.5,2.7-15,4.8-22.3C1459.4,987,1462.1,985.6,1463.1,984.7z"/>
		<path class="st0" d="M875,984.7c5.2,0.1,6.4,1.9,5.6,5.2c-1.3,5.8-2.7,11.7-3.8,17.5c-0.7,3.2-2,7.2,2.7,8.2
			c4.2,0.9,6.9-1.8,8.1-5.8c1.8-6,3.5-12.1,5.3-18.2c0.4-1.4,0.6-3.5,1.6-4.1c2.1-1.2,4.6-2,6.9-2.1c0.5,0,2,3.4,1.8,5.1
			c-1.5,10.2-3.4,20.3-5.2,30.4c-0.8,4.1-3.7,4.5-7.2,4c-2.7-0.4-5.5-0.6-8.1-0.1c-10.7,2.2-17.5-2.7-16.5-13.5
			c0.6-7.5,2.7-15,4.8-22.3C871.4,987,874.1,985.6,875,984.7z"/>
		<path class="st0" d="M723,984.1c13.9-1,17.6,7,15.9,18.3c-0.9,6.1-2.4,12.1-4.2,17.9c-0.6,2-2.8,4.2-4.8,4.8
			c-4.5,1.3-6.2-0.7-5.2-5.3c1.3-6.2,2.7-12.3,4.2-18.5c1-4,0-6.8-4.3-8c-4.5-1.2-6,1.6-6.9,5.1c-2.1,7.5-3.9,15.1-6.4,22.5
			c-0.6,1.8-2.8,3.8-4.6,4.2c-3.5,0.8-5.9-0.7-4.9-5c1.9-8.1,3.6-16.2,5.7-24.3C710.1,985.1,711.7,984.1,723,984.1z"/>
		<path class="st0" d="M1088.4,984.1c13.3,0,18.2,5.3,16.5,17.6c-0.9,6.4-2.8,12.7-4.3,19c-0.7,3.1-2.6,4.8-6.1,4.8
			c-3.4-0.1-5-1.4-4.2-4.9c1.5-6.3,2.8-12.6,4.4-18.9c1-4.3,0-7.2-4.6-8.3c-4.6-1.1-5.8,2-6.7,5.4c-2,7.4-4.1,14.7-6.1,22.1
			c-0.9,3.2-2.7,4.8-6.1,4.6c-2.9-0.2-4.5-1.4-3.7-4.5c2.5-10.3,4.8-20.7,7.8-30.9C1077.4,983,1083.9,984.4,1088.4,984.1z"/>
		<path class="st0" d="M1207.8,984.1c14.4-1.1,17.8,7.4,16,18.7c-0.9,5.9-2.3,11.8-4.2,17.4c-0.7,2.1-3.1,4.4-5.2,4.9
			c-4.2,1.1-5.8-0.8-4.9-5.2c1.3-6.3,2.8-12.7,4.3-19c1-4.3-0.6-6.7-4.8-7.7c-4.3-1-5.6,1.7-6.5,5c-2.1,7.5-3.9,15.1-6.4,22.5
			c-0.6,1.9-3.1,3.9-5,4.3c-3.4,0.8-5.4-0.9-4.5-4.8c1.9-8.1,3.5-16.2,5.6-24.3C1195.1,985.2,1196.7,984.1,1207.8,984.1z"/>
		<path class="st0" d="M1531.9,998.5c-1.9,7.7-3.6,15.5-5.7,23.2c-1.1,3.9-4.5,4.3-7.7,3.4c-3.7-0.9-2.2-3.9-1.7-6.2
			c1.3-6.2,2.7-12.3,4.2-18.5c1-4.2-1.1-6.3-4.9-7.2c-3.9-0.9-5.5,1.4-6.3,4.6c-2.1,7.7-4,15.5-6.5,23c-0.6,1.9-3.1,3.9-5,4.3
			c-3.4,0.8-5.4-1-4.5-4.9c2.4-9.8,4.8-19.7,7.3-29.5c0.4-1.5,1.2-3.5,2.5-4.2c6.8-4,14.2-3.5,21.2-1.1
			C1530.2,987.4,1531.3,992.8,1531.9,998.5z"/>
		<path class="st0" d="M1243.4,1009.4c3.2-5.8,6.4-11.5,9.5-17.3c0.9-1.6,1.3-4,2.6-4.7c2.2-1.2,5-1.5,7.6-1.5
			c0.5,0,1.9,4.1,1.2,5.4c-5.8,10.5-11.7,20.8-18.1,30.9c-1.1,1.8-4.5,2.6-7,3c-3.4,0.6-5.9-1.1-6.3-4.8c-1.1-10.1-2.1-20.2-3-30.3
			c-0.3-2.7,0.5-4.9,4-5.1c3.1-0.1,5.2,0.7,5.5,4.2c0.5,5.1,1.1,10.3,1.7,15.4c0.2,1.4,0.4,2.8,0.6,4.3
			C1242.2,1009.1,1242.8,1009.2,1243.4,1009.4z"/>
		<path class="st0" d="M849.5,1026.3c-9.9,0-13.9-3.5-12.4-13.3c1.8-11.6,5-23,7.8-34.4c0.5-1.9,2.2-3.9,3.9-4.9
			c3.3-1.9,6.6,0.2,6.1,4.2c-0.6,4.5,0.6,6.2,5.2,6.8c1.8,0.2,4.4,2.8,4.6,4.4c0.3,3.2-2.6,4-5.5,4.2c-7.5,0.5-7.8,0.7-9.6,8
			c-0.8,3.4-1.6,6.8-2.2,10.2c-0.6,3.4,0.6,5.5,4.4,5.5c0.2,0,0.3,0,0.5,0c2.9,0.5,7.6-1.7,7.6,3.6c0,5.3-4.7,5.1-8.4,5.6
			C850.8,1026.4,850.2,1026.3,849.5,1026.3z"/>
		<path class="st0" d="M1342.3,1026.3c-9.7,0-13.6-3.4-12.2-12.9c1.8-11.6,5-23,7.7-34.5c0.3-1.4,1.1-3.1,2.2-3.8
			c1.7-1,4-1.7,5.8-1.3c1,0.2,2.3,3,2.1,4.4c-0.7,4.2,0.5,6.2,4.9,6.4c2.7,0.2,6,1.3,4.8,4.7c-0.6,1.8-3.8,4-5.7,3.9
			c-6-0.2-8.5,2.6-9.4,8c-0.5,3.3-1.4,6.5-2.1,9.7c-0.9,4.1,0.4,6.3,5,6.3c3,0,7.5-1.7,7.5,3.8c0,4.7-4.2,4.9-7.7,5.3
			C1344.3,1026.4,1343.3,1026.3,1342.3,1026.3z"/>
		<path class="st0" d="M1437.6,1026.3c-10,0.1-14-3.4-12.5-13.2c1.8-11.5,4.9-22.8,7.6-34.1c0.3-1.4,1.1-3.2,2.2-3.8
			c1.7-1,4-1.8,5.8-1.4c1,0.2,2.3,2.9,2.2,4.3c-0.6,4.1,0.3,6.3,4.9,6.5c2.7,0.1,5.6,1.1,5.1,4.8c-0.5,3.4-3.1,4.3-5.9,4
			c-6-0.6-8.4,2.5-9.3,7.9c-0.6,3.4-1.5,6.8-2.2,10.3c-0.7,3.7,0.7,5.8,4.7,5.6c0.2,0,0.3,0,0.5,0c2.9,0.4,7.2-1.5,7.3,3.5
			c0.2,5.1-4.2,5.2-7.8,5.7C1439.3,1026.4,1438.4,1026.3,1437.6,1026.3z"/>
		<path class="st0" d="M1363,1026.1c-4.2-0.8-6.3-1.8-5.4-5.5c2.5-10.3,4.9-20.7,8-30.9c0.6-2.2,3.7-4.6,6-5.1
			c4.2-0.9,8.6-0.8,12.9-0.2c1.6,0.2,4.1,2.9,4,4.3c-0.2,1.6-2.9,4.5-4.2,4.3c-8.6-1.3-10.8,3.8-12.2,10.7
			c-1.2,5.9-2.9,11.6-4.8,17.3C1366.5,1022.9,1364.4,1024.4,1363,1026.1z"/>
		<path class="st0" d="M1006.9,1026.1c-4.2-0.7-6.2-1.9-5.3-5.6c2.5-10.2,5-20.4,7.6-30.5c0.9-3.6,3.6-5.6,7.3-5.8
			c3.8-0.2,7.7-0.6,11.4,0c1.8,0.3,3.2,2.6,4.8,4c-1.5,1.6-3.3,4.8-4.6,4.7c-8.7-1.3-10.8,4-12.2,10.8c-1.2,5.9-2.9,11.6-4.8,17.3
			C1010.5,1023,1008.4,1024.4,1006.9,1026.1z"/>
		<path class="st0" d="M1305.9,1026.1c-4.2-0.8-6.2-1.9-5.3-5.6c2.5-10.2,5-20.4,7.6-30.5c0.9-3.6,3.6-5.6,7.3-5.8
			c3.8-0.2,7.7-0.6,11.4,0c1.8,0.3,3.2,2.6,4.8,4c-1.5,1.6-3.3,4.8-4.6,4.7c-8.7-1.3-10.8,4-12.2,10.8c-1.2,5.9-2.9,11.6-4.8,17.3
			C1309.5,1023,1307.4,1024.4,1305.9,1026.1z"/>
		<path class="st0" d="M962.3,988.3c-2.9,12-5.4,22.6-8.2,33.2c-1,3.9-4.4,4.7-7.6,3.4c-1.2-0.5-2.1-3.8-1.7-5.6
			c2-9.9,4.5-19.7,6.8-29.6c0.7-3.2,2.7-5.2,6-4.5C959.3,985.6,960.7,987.2,962.3,988.3z"/>
		<path class="st0" d="M699.9,989.7c-2.6,10.5-5.1,21-7.7,31.4c-1,3.8-4,4.8-7.4,4c-4.1-0.9-2.5-4.1-1.9-6.5
			c2.2-9.7,4.5-19.4,6.9-29.1c0.7-2.9,2.4-4.6,5.6-4.5C698.3,985.2,700.2,986.2,699.9,989.7z"/>
		<path class="st0" d="M928.8,472.7c4.6-0.1,9.2,4.4,9.3,9.2c0.1,4.8-4.2,9.2-9.1,9.3c-4.8,0-9-4.3-9.1-9.4
			C919.9,477.6,924.5,472.8,928.8,472.7z"/>
		<path class="st0" d="M1184.5,429.4c0,5.1-3.7,9-8.7,9c-5.3,0-9.3-3.9-9.3-9.1c0-4.7,4.1-9,8.8-9.1
			C1180.4,420,1184.5,424.1,1184.5,429.4z"/>
		<path class="st0" d="M958.7,980.6c-1-1.4-3.2-3.1-3.5-5.2c-0.5-3.6,2-5.9,5.6-6.2c3.1-0.2,5.1,1.6,5.2,4.8
			C966,977.7,963.8,979.7,958.7,980.6z"/>
		<path class="st0" d="M704.5,973.3c-1.2,5-3.3,7.2-7.1,6.8c-3.2-0.3-4.7-2.5-4.3-5.6c0.5-3.6,3-6,6.5-5.2
			C701.6,969.8,703.2,972.2,704.5,973.3z"/>
	</g>
</g>
</svg>
