<?xml version="1.0" encoding="utf-8"?>
<!-- Generator: Adobe Illustrator 23.0.1, SVG Export Plug-In . SVG Version: 6.00 Build 0)  -->
<svg version="1.1" id="Ebene_1" xmlns="http://www.w3.org/2000/svg" xmlns:xlink="http://www.w3.org/1999/xlink" x="0px" y="0px"
	 viewBox="0 0 40 40" style="enable-background:new 0 0 40 40;" xml:space="preserve">
<title>icon/folder</title>
<desc>Created with Sketch.</desc>
<path d="M30.6,26.2c-2-2.1-2.9-4.3-2.9-6.9c0-0.4,0-0.7,0-1.5c0-0.9,0-1.4,0-1.9c0-2.3-0.4-4-1.3-5.3c-1.1-1.7-3.1-2.6-6-2.6
	s-4.8,0.9-6,2.6c-0.9,1.3-1.2,3-1.3,5.3c0,0.5,0,1,0,1.9c0,0.8,0,1.1,0,1.5c0,2.6-1,4.8-2.9,6.9L9,27.7h7.4c0.1,2.2,1.8,3.9,4,3.9
	s3.9-1.7,4-3.9H32L30.6,26.2z M15.1,19.3c0-0.4,0-0.7,0-1.5c0-0.9,0-1.3,0-1.9c0-2,0.3-3.4,1-4.4c0.8-1.2,2.2-1.8,4.5-1.8
	s3.7,0.6,4.5,1.8c0.7,1,0.9,2.4,1,4.4c0,0.5,0,1,0,1.9c0,0.8,0,1.1,0,1.5c0,2.4,0.7,4.5,2.1,6.5H13C14.4,23.9,15.1,21.7,15.1,19.3z
	 M20.4,29.8c-1.2,0-2.2-1-2.2-2.2h4.5C22.6,28.8,21.6,29.8,20.4,29.8z"/>
</svg>
