<?xml version="1.0" encoding="utf-8"?>
<!-- Generator: Adobe Illustrator 16.0.0, SVG Export Plug-In . SVG Version: 6.00 Build 0)  -->
<!DOCTYPE svg PUBLIC "-//W3C//DTD SVG 1.1//EN" "http://www.w3.org/Graphics/SVG/1.1/DTD/svg11.dtd">
<svg version="1.1" id="Ebene_1" xmlns="http://www.w3.org/2000/svg" xmlns:xlink="http://www.w3.org/1999/xlink" x="0px" y="0px"
	 width="1019px" height="1019px" viewBox="0 0 1019 1019" enable-background="new 0 0 1019 1019" xml:space="preserve"
     style="width: 100%; padding-top: 6%; height: 1px; overflow: visible">
<g>
	<g>
		<circle fill="#FFFFFF" cx="505.444" cy="505.289" r="449.289"/>
	</g>
</g>
<g>
	<path fill="#07529A" d="M506.795,406.758c40.433-47.608,63.187-86.672,81.369-134.659H276.547v269.218
		C338.197,532.999,424.644,503.476,506.795,406.758"/>
	<rect x="276.598" y="622.768" fill="#EAB90C" width="487.836" height="137.134"/>
	<path fill="#909085" d="M764.393,272.1H608.549c-18.654,50.755-47.003,102.103-90.076,152.817
		c-84.798,99.852-178.721,129.917-241.926,138.244v37.878h487.846V272.1z"/>
	<path fill="#FFFFFF" d="M346.389,689.668c13.276,1.135,17.738,9.432,17.738,23.481c0,18.116-8.292,22.973-28.846,22.973
		c-16.075,0-24.502-0.135-35.09-1.024v-88.051c9.445-0.896,17.108-1.033,31.141-1.033c22.2,0,30.115,4.86,30.115,22.971
		c0,12.64-4.336,19.146-15.059,20.171V689.668z M315.889,658.902v24.763h15.947c10.721,0,14.301-2.554,14.301-12.634
		c0-9.822-3.831-12.129-15.577-12.129H315.889z M332.602,723.233c11.872,0,15.568-2.438,15.568-13.025
		c0-11.73-3.949-14.804-16.073-14.923h-16.208v27.813L332.602,723.233z"/>
	<path fill="#FFFFFF" d="M449.858,691.072c0,34.949-9.428,45.688-36.366,45.688c-26.787,0-36.239-10.739-36.239-45.688
		c0-34.972,9.452-45.698,36.239-45.698C440.431,645.374,449.858,656.101,449.858,691.072 M394.1,691.072
		c0,24.496,4.595,32.026,19.393,32.026c14.932,0,19.528-7.53,19.528-32.026c0-24.507-4.597-32.035-19.528-32.035
		C398.694,659.037,394.1,666.565,394.1,691.072"/>
	<path fill="#FFFFFF" d="M538.026,729.231c0,3.814-2.043,5.866-5.874,5.866h-12.621c-3.452,0-5.242-1.529-6.645-4.84l-24.755-53.991
		c-1.655-3.571-4.344-9.059-5.235-13.146h-1.527c0.638,4.467,0.771,8.933,0.771,13.269v58.709h-15.696v-82.189
		c0-3.819,2.169-5.871,5.983-5.871h12.385c3.446,0,5.102,1.534,6.639,4.854l23.989,52.437c1.655,3.848,4.209,9.209,6.124,13.931
		h1.531c-0.387-4.855-0.64-9.579-0.64-14.301v-56.92h15.57V729.231z"/>
	<path fill="#FFFFFF" d="M629.253,729.231c0,3.814-2.033,5.866-5.882,5.866h-12.62c-3.454,0-5.234-1.529-6.639-4.84l-24.763-53.991
		c-1.654-3.571-4.334-9.059-5.219-13.146h-1.545c0.639,4.467,0.766,8.933,0.766,13.269v58.709h-15.688v-82.189
		c0-3.819,2.168-5.871,5.991-5.871h12.378c3.461,0,5.107,1.534,6.638,4.854l23.987,52.437c1.657,3.848,4.22,9.209,6.135,13.931
		h1.539c-0.388-4.855-0.656-9.579-0.656-14.301v-56.92h15.578V729.231z"/>
	<g>
		<path fill="#636362" d="M226.082,715.449c16.646,0,22.991,5.516,22.991,20.604c0,15.582-6.346,21.273-22.991,21.273h-34.95v-8.247
			h34.95c11.697,0,15.658-3.212,15.658-12.695c0-9.315-3.961-12.695-15.658-12.695h-34.95v-8.24H226.082z"/>
		<path fill="#636362" d="M244.788,657.469c2.148,0,3.223,1.075,3.223,3.051v7.827c0,1.817-0.825,2.806-2.562,3.55l-38.742,17.723
			c-2.138,0.988-5.52,2.725-7.911,3.375v1.162c2.635-0.337,5.36-0.413,7.911-0.413l41.304-0.001v8.243h-53.669
			c-2.145,0-3.21-1.157-3.21-3.132v-7.585c0-1.816,0.815-2.799,2.548-3.628l37.763-17.227c2.3-1.074,5.599-2.723,8.484-3.96v-1.236
			c-2.961,0.249-5.858,0.412-8.82,0.412l-39.975,0.001v-8.162H244.788z"/>
		<rect x="191.128" y="635.348" fill="#636362" width="56.872" height="8.245"/>
		<path fill="#636362" d="M245.701,596.013c1.311,0.412,2.31,1.649,2.31,3.138v8.07c0,1.494-0.999,2.725-2.31,3.137l-54.569,16.818
			v-8.49l44.261-12.862c2.061-0.576,4.199-1.075,6.261-1.564v-2.229c-2.062-0.413-4.2-0.993-6.261-1.567l-44.261-12.777v-8.489
			L245.701,596.013z"/>
		<path fill="#636362" d="M247.512,535.642c0.662,7.51,0.662,16.238,0.662,24.403c0,7.085-3.959,11.371-10.232,11.458h-36.754
			c-6.269-0.087-10.229-4.448-10.229-11.458c0-8.165,0-16.894,0.663-24.401l6.431,0.411v22.586c0,3.304,1.4,4.534,5.274,4.534
			l11.376-0.002v-23.983h6.683v23.983h14.506c3.873,0,5.272-1.229,5.272-4.532v-22.587L247.512,535.642z"/>
		<path fill="#636362" d="M248.011,492.75l-17.728,4.862c-4.126,1.324-5.698,3.547-5.698,7.171l-0.064,11.713h23.49v8.153h-56.879
			c-0.664-6.258-0.747-10.545-0.747-19.866c0-13.357,3.711-18.792,16.489-18.792c8.981,0,13.521,2.885,14.512,10.471h0.398
			c0.836-2.805,3.311-5.936,8.248-7.173l17.979-5.359V492.75z M217.508,504.951c-0.089-7.99-2.313-10.634-10.141-10.634
			c-7.833,0-9.887,2.644-9.887,10.634c0,4.455,0,8.41,0.076,11.546l19.951-0.001V504.951z"/>
		<path fill="#636362" d="M191.868,440.212l6.023,0.494c-0.17,4.779-0.414,10.965-0.414,16.324c0,7.748,0.323,10.715,7.91,10.715
			c5.852,0,7.424-2.062,8.655-6.843l3.133-11.293c2.389-8.821,7.67-11.536,16.156-11.536c13.105,0,15.666,5.687,15.666,19.371
			c0,3.623-0.162,9.969-1.66,17.88l-6.087-0.575c0.325-10.296,0.413-13.189,0.413-17.47c-0.088-8.333-1.325-10.8-8.41-10.8
			c-6.184,0-7.508,2.142-8.733,6.759l-3.224,11.54c-2.31,8.327-7.502,11.295-16.158,11.295c-13.189,0-15.003-5.859-15.003-18.711
			C190.136,451.997,190.468,445.985,191.868,440.212"/>
		<rect x="191.128" y="418.843" fill="#636362" width="56.872" height="8.241"/>
		<polygon fill="#636362" points="198.466,383.715 248.011,383.715 248.011,392.038 198.466,392.038 198.466,409.93 191.132,409.93
			191.132,365.66 198.466,365.66 		"/>
		<path fill="#636362" d="M230.855,354.007l17.155,5.285v8.484l-54.656-17.882c-1.405-0.336-2.227-1.573-2.227-2.973v-8.409
			c0-1.476,0.821-2.638,2.227-3.05l54.656-17.886v8.491l-17.155,5.272V354.007z M184.946,351.289c0,1.491-0.662,2.147-2.226,2.147
			h-4.453c-1.316,0-2.227-0.656-2.227-2.147v-2.631c0-1.487,0.91-2.149,2.227-2.149h4.453c1.563,0,2.226,0.662,2.226,2.149V351.289z
			 M202.095,340.249c-1.489,0.412-3.14,0.987-4.617,1.318v2.219c1.478,0.499,3.128,0.998,4.617,1.41l21.589,6.592v-18.213
			L202.095,340.249z M184.946,336.699c0,1.487-0.662,2.149-2.226,2.149h-4.453c-1.316,0-2.227-0.663-2.227-2.149v-2.635
			c0-1.4,0.91-2.225,2.227-2.225h4.453c1.563,0,2.226,0.825,2.226,2.225V336.699z"/>
		<polygon fill="#636362" points="198.466,293.488 248.011,293.488 248.011,301.811 198.466,301.811 198.466,319.697
			191.132,319.697 191.132,275.434 198.466,275.434 		"/>
	</g>
</g>
</svg>
