<?xml version="1.0" encoding="utf-8"?>
<!-- Generator: Adobe Illustrator 23.0.4, SVG Export Plug-In . SVG Version: 6.00 Build 0)  -->
<svg version="1.1" id="b4980d38-c3ea-476b-b1ec-d56f2c042a2a"
	 xmlns="http://www.w3.org/2000/svg" xmlns:xlink="http://www.w3.org/1999/xlink" x="0px" y="0px" viewBox="0 0 6337.5 1869.3"
	 style="enable-background:new 0 0 6337.5 1869.3;" xml:space="preserve">
<style type="text/css">
	.st0{fill:url(#SVGID_1_);}
	.st1{fill:#FFFFFF;}
</style>
<title>vwa_background</title>
<linearGradient id="SVGID_1_" gradientUnits="userSpaceOnUse" x1="0" y1="1580.0405" x2="6337.4541" y2="1580.0405" gradientTransform="matrix(1 0 0 -1 0 2898.8142)">
	<stop  offset="0" style="stop-color:#FBBA00"/>
	<stop  offset="1" style="stop-color:#FFED00"/>
</linearGradient>
<polygon class="st0" points="6337.5,140.7 0,1270.1 0,2496.8 6337.5,2496.8 "/>
<polygon class="st1" points="2800.6,866.6 2706.5,1024.7 2550.2,1024.7 2644.4,866.6 2550.2,708.6 2706.5,708.6 "/>
<polygon class="st1" points="3052,866.6 2957.9,1024.7 2801.6,1024.7 2895.8,866.6 2801.6,708.6 2957.9,708.6 "/>
<g>
	<g>
		<path d="M3391.1,500.9c-2.7,0-4.7,2.2-4.7,4.9c0,2.7,2,4.8,4.7,4.8c2.8,0,4.7-2.1,4.7-4.8C3395.9,503.1,3393.9,500.9,3391.1,500.9
			"/>
	</g>
</g>
</svg>
