<?xml version="1.0" encoding="utf-8"?>
<!-- Generator: Adobe Illustrator 23.0.4, SVG Export Plug-In . SVG Version: 6.00 Build 0)  -->
<svg version="1.1" id="b4980d38-c3ea-476b-b1ec-d56f2c042a2a"
	 xmlns="http://www.w3.org/2000/svg" xmlns:xlink="http://www.w3.org/1999/xlink" x="0px" y="0px" viewBox="0 0 6337.5 2453.4"
	 style="enable-background:new 0 0 6337.5 2453.4;" xml:space="preserve">
<style type="text/css">
	.st0{fill:url(#SVGID_1_);}
	.st1{fill:#FFFFFF;}
	.st2{fill:#FFED00;}
	.st3{clip-path:url(#SVGID_3_);}
</style>
<title>vwa_background</title>
<linearGradient id="SVGID_1_" gradientUnits="userSpaceOnUse" x1="0" y1="1580.0405" x2="6337.4541" y2="1580.0405" gradientTransform="matrix(1 0 0 -1 0 2898.8142)">
	<stop  offset="0" style="stop-color:#FBBA00"/>
	<stop  offset="1" style="stop-color:#FFED00"/>
</linearGradient>
<polygon class="st0" points="6337.5,140.7 0,1270.1 0,2496.8 6337.5,2496.8 "/>
<polygon class="st1" points="2800.6,866.6 2706.5,1024.7 2550.2,1024.7 2644.4,866.6 2550.2,708.6 2706.5,708.6 "/>
<polygon class="st1" points="3052,866.6 2957.9,1024.7 2801.6,1024.7 2895.8,866.6 2801.6,708.6 2957.9,708.6 "/>
<g>
	<polygon class="st2" points="3368,113.7 3339.7,174.4 3322.9,174.4 3351.3,113.7 3213.1,113.7 3184.7,174.4 3168,174.4 
		3196.3,113.7 3095.3,113.7 3095.3,299.3 3109.6,299.3 3113.9,290.2 3130.6,290.2 3126.4,299.3 3264.6,299.3 3268.8,290.2 
		3285.6,290.2 3281.3,299.3 3395.4,299.3 3395.4,113.7 	"/>
	<g>
		<defs>
			<rect id="SVGID_2_" x="2794.6" width="748.3" height="629.6"/>
		</defs>
		<clipPath id="SVGID_3_">
			<use xlink:href="#SVGID_2_"  style="overflow:visible;"/>
		</clipPath>
		<path class="st3" d="M3158.6,478h13.3v-6.1h-13.3v-21.1h21.2v-6h-27.6v64.7h28.7v-6h-22.3V478z M3134.7,416h-23.2v-14h14.7v-13.1
			h-14.7v-11.1h22.5v-13.2h-37.9v64.7h38.5V416z M3185.1,384.2c0-14.4-8.4-19.7-20.1-19.7h-22.4v64.7h15.2v-24.8h4.2l7.6,24.8h16.4
			l-9.4-28C3181.8,398.1,3185.1,392.6,3185.1,384.2 M3163.6,392.6h-5.8v-15.8h6.1c4.3,0,5.8,2.5,5.8,7.9
			C3169.7,390,3168.1,392.6,3163.6,392.6 M3046.5,490.2c0,9.3-3.3,14.4-10.2,14.4c-6.9,0-10.6-5.2-10.6-14.5v-45.2h-6.4v45.4
			c0,12.9,6.1,20.3,16.7,20.3c10.7,0,16.9-7.5,16.9-20.4v-45.3h-6.5V490.2z M3127.3,472.9c-8.4-5.9-10.1-9.6-10.1-14.8
			c0-4.1,2.4-8.2,7.6-8.2c4.7,0,7.2,2.9,9.8,7.9l5.5-3.1c-3.1-6.7-7.1-10.8-15.1-10.8c-8.7,0-14.3,6.3-14.3,14.7
			c0,8.5,3.3,13.2,12.5,19.7c8.5,6,11.2,11.1,11.2,17.4c0,5.4-3.4,9-9,9c-4.7,0-7.7-3.2-10.2-9.5l-5.9,2.7c2.8,8,7.8,12.8,15.9,12.8
			c9.7,0,15.6-6.6,15.6-15.7C3140.9,485.9,3137.1,479.6,3127.3,472.9 M2942.2,429.2h15.6v-64.7h-15.6V429.2z M3063.7,384.2
			c0-14.4-8.4-19.7-20.1-19.7h-22.4v64.7h15.2v-24.8h4.2l7.6,24.8h16.4l-9.4-28C3060.5,398.1,3063.7,392.6,3063.7,384.2
			 M3042.3,392.6h-5.8v-15.8h6.1c4.3,0,5.8,2.5,5.8,7.9C3048.4,390,3046.7,392.6,3042.3,392.6 M3093.1,482c0,3.9,0.1,10.2,0.2,12.6
			c-1.5-3.6-4.2-10.1-6.7-15.9l-14.7-33.8h-6.3v64.7h6.1v-38.8c0-3.9-0.1-10.1-0.1-12.6c1.6,4.1,4.3,10.5,6.7,15.9l15.5,35.5h5.5
			v-64.7h-6.1V482z M2996.3,388.6h-13v-24.1h-15.6v64.7h15.6v-27.1h13v27.1h15.6v-64.7h-15.6V388.6z M3358.6,444.9h-6.5v64.7h27.1
			v-6h-20.6V444.9z M3373.8,404.7v-10.2h-22.1v11.8h7.5v2.7c-0.4,5.2-1.8,8.1-6.8,8.1c-5.6,0-7.9-4.3-7.9-20.3
			c0-14.9,1.8-20.1,7.2-20.1c3.9,0,5,3.2,6.4,10.3l14.8-4.2c-2.8-12.2-7.5-19.3-21.1-19.3c-15.6,0-23.3,11.8-23.3,33.4
			c0,22.5,8.4,33.4,23,33.4C3366.6,430.2,3373.8,420.4,3373.8,404.7 M3319.7,478h13.3v-6.1h-13.3v-21.1h21.2v-6h-27.6v64.7h28.7v-6
			h-22.3V478z M3391.1,500.9c-2.7,0-4.7,2.2-4.7,4.9c0,2.7,2,4.8,4.7,4.8c2.8,0,4.7-2.1,4.7-4.8
			C3395.9,503.1,3393.9,500.9,3391.1,500.9 M3293.4,509.6h6.5v-64.7h-6.5V509.6z M3395.9,421.3c0-5.2-3.7-8.8-8.9-8.8
			c-5.2,0-9,3.6-9,8.8c0,5.2,3.8,8.9,9,8.9C3392.2,430.2,3395.9,426.5,3395.9,421.3 M3223.1,462.2c0-11.7-7.2-17.3-16.5-17.3H3191
			v64.7h6.5v-29.3c1.2,0,8.1,0,9-0.1l9.7,29.4h7.1l-10.2-31C3219.1,476.1,3223.1,470.7,3223.1,462.2 M3205.9,474.4h-8.4v-23.6h8.8
			c6.6,0,10.3,4.1,10.3,11.6C3216.6,470.3,3212.9,474.4,3205.9,474.4 M3325.1,415.7h-20.1v-51.2h-15.5v64.7h35.7V415.7z
			 M3193.6,429.2h15.4v-26.9h15.2v-13.2H3209v-11.3h23.4v-13.3h-38.8V429.2z M3281.7,396.8c0-22.7-8.6-33.3-23.1-33.3
			c-14.5,0-23.2,10.6-23.2,33.5c0,22.8,8.5,33.3,23,33.3C3273,430.2,3281.7,419.6,3281.7,396.8 M3251.3,396.8c0-15.6,2.3-20,7.2-20
			c4.8,0,7.3,4.5,7.3,20.1c0,15.6-2.4,20-7.2,20S3251.3,412.4,3251.3,396.8 M3252.4,450.8h22.9c-0.6,1.2-1.2,2.4-1.9,4l-22.5,49.2
			v5.6h31v-5.9h-24.4c0.6-1.2,1.3-2.6,1.9-4l22.5-49.2v-5.6h-29.5V450.8z M3184.7,174.4H3168l-37.2,79.9v-79.9h-27.3v115.8h27.3
			L3184.7,174.4z M3322.7,290.2l37.2-79.9v47.1h-14.4l-5.5,12.9h19.9v19.8h27.3V174.4h-27.3l-54,115.8H3322.7z M3322.9,174.4
			l-37.2,79.9v-79.9h-27.3v0.2l-37.1,79.6v-79.9H3194v115.8h27.3l37.1-79.6v79.6h27.3l54-115.8H3322.9z"/>
	</g>
</g>
</svg>
