<?xml version="1.0" encoding="UTF-8"?>
<svg width="40px" height="40px" viewBox="0 0 40 40" version="1.1" xmlns="http://www.w3.org/2000/svg" xmlns:xlink="http://www.w3.org/1999/xlink">
    <title>icon/bin</title>
    <defs>
        <path d="M22.8216216,5.77777778 C25.1591295,5.77777778 27.0540541,7.67270232 27.0540541,10.0102102 L27.0540541,10.0102102 L27.0537027,12.2047778 L31.4275676,12.2048048 C32.0875698,12.2048048 32.6299582,12.7643212 32.6914848,13.4797451 L32.6972973,13.6156156 C32.6972973,14.3947849 32.1288199,15.0264264 31.4275676,15.0264264 L31.4275676,15.0264264 L29.8747027,15.0257778 L29.8756757,31.0156156 C29.8756757,33.0263751 28.3228629,34.6686989 26.3689798,34.7725629 L26.1722973,34.7777778 L13.8277027,34.7777778 C11.7823833,34.7777778 10.1243243,33.0934004 10.1243243,31.0156156 L10.1243243,31.0156156 L10.1237027,15.0257778 L8.57243243,15.0264264 C7.91243021,15.0264264 7.37004182,14.4669101 7.30851517,13.7514861 L7.3027027,13.6156156 C7.3027027,12.8364463 7.87118007,12.2048048 8.57243243,12.2048048 L8.57243243,12.2048048 L12.9457027,12.2047778 L12.9459459,10.0102102 C12.9459459,7.7435359 14.7277666,5.8930281 16.9671373,5.78295754 L17.1783784,5.77777778 Z M27.4067027,15.0257778 L12.5927027,15.0257778 L12.5932432,31.0156156 C12.5932432,31.6649234 13.0790027,32.198975 13.7014864,32.2631951 L13.8277027,32.2696697 L26.1722973,32.2696697 C26.8540704,32.2696697 27.4067568,31.7082105 27.4067568,31.0156156 L27.4067568,31.0156156 L27.4067027,15.0257778 Z M17.1783784,17.848048 C17.9575477,17.848048 18.5891892,18.4007344 18.5891892,19.0825075 L18.5891892,19.0825075 L18.5891892,26.4892643 C18.5891892,27.1710374 17.9575477,27.7237237 17.1783784,27.7237237 C16.3992091,27.7237237 15.7675676,27.1710374 15.7675676,26.4892643 L15.7675676,26.4892643 L15.7675676,19.0825075 C15.7675676,18.4007344 16.3992091,17.848048 17.1783784,17.848048 Z M22.8216216,17.848048 C23.6007909,17.848048 24.2324324,18.4007344 24.2324324,19.0825075 L24.2324324,19.0825075 L24.2324324,26.4892643 C24.2324324,27.1710374 23.6007909,27.7237237 22.8216216,27.7237237 C22.0424523,27.7237237 21.4108108,27.1710374 21.4108108,26.4892643 L21.4108108,26.4892643 L21.4108108,19.0825075 C21.4108108,18.4007344 22.0424523,17.848048 22.8216216,17.848048 Z M22.8216216,8.5993994 L17.1783784,8.5993994 C16.3992091,8.5993994 15.7675676,9.23104091 15.7675676,10.0102102 L15.7675676,10.0102102 L15.7667027,12.2047778 L24.2317027,12.2047778 L24.2324324,10.0102102 C24.2324324,9.2768744 23.6729161,8.67422064 22.9574921,8.60585769 L22.8216216,8.5993994 Z" id="path-1"></path>
    </defs>
    <g id="icon/bin" stroke="none" stroke-width="1" fill="none" fill-rule="evenodd">
        <mask id="mask-2" fill="white">
            <use xlink:href="#path-1"></use>
        </mask>
        <use id="Combined-Shape" fill-rule="nonzero" xlink:href="#path-1"></use>
        <g id="Group" mask="url(#mask-2)" style="fill: currentColor">
            <g id="🎨Color">
                <rect id="Rectangle" x="0" y="0" width="39" height="39"></rect>
            </g>
        </g>
    </g>
</svg>
