<?xml version="1.0" encoding="utf-8"?>
<!-- Generator: Adobe Illustrator 23.0.1, SVG Export Plug-In . SVG Version: 6.00 Build 0)  -->
<svg version="1.1" id="Ebene_1" xmlns="http://www.w3.org/2000/svg" xmlns:xlink="http://www.w3.org/1999/xlink" x="0px" y="0px"
	 viewBox="0 0 1000 972.8" style="enable-background:new 0 0 1000 972.8;" xml:space="preserve">
<style type="text/css">
	.st0{opacity:0.1;}
	.st1{fill:#4A668B;}
	.st2{opacity:0.25;}
	.st3{opacity:0.5;}
	.st4{opacity:0.75;}
	.st5{fill:#577FAA;}
	.st6{clip-path:url(#SVGID_5_);}
	.st7{fill:#384F68;}
	.st8{fill:#577FAA;stroke:#384F68;stroke-width:3;stroke-miterlimit:10;}
	.st9{fill:#FFFFFF;}
	.st10{clip-path:url(#SVGID_7_);}
	.st11{fill:#CFEEE4;}
	.st12{fill:#231F20;}
	.st13{fill:#40BEAA;}
</style>
<g>
	<g class="st0">
		<path class="st1" d="M-18.5,1244.6v-161.9h1072.1l228.2,114.1c0,0-411.9,30.3-533.4,104.8c-140.7,86.2-204.3,80.9-355.6,15.9
			c-142-61-258.9-7.9-364.9-181.8L-18.5,1244.6z"/>
	</g>
	<g class="st2">
		<path class="st1" d="M1727.7,1521.9c0,0-312.2-276.3-467.1-211c-169.8,71.7-309.2,130-402,96.9c-123-43.9-240.5-152.8-311.8-143.3
			c-139.2,18.6-234.2,229.6-354.3,156.6C78.9,1352,0.1,1257.9,0.1,1257.9v-98.2l1732.9-13.3L1727.7,1521.9z"/>
	</g>
	<g class="st3">
		<path class="st1" d="M1706.5,1256.5c0,0-284,136.7-448.5,171.2s-269.4-38.5-509.5-134c-193.2-76.8-237.1-67.4-360.9,0
			c-104.8,57.1-399.4,297.2-510.9,83.6c-70.3-134.9,82.3-171.2,82.3-171.2l142-111.5l1608.2-15.9L1706.5,1256.5z"/>
	</g>
	<g class="st4">
		<path class="st1" d="M1358.8,1503.4c0,0-397.6-400.3-548-325.1c-10.6,5.3-309.2-2.7-376.8-55.7
			c-23.2-18.2-228.2,175.2-287.9,230.9c-72.7,67.9-169.8,119.4-249.5,51.7c-101-85.9-156.6-131.4-156.6-131.4l15.9-175.2
			l1608.2-15.9L1358.8,1503.4z"/>
	</g>
	<g>
		<path class="st1" d="M1342.9,1328.2c0,0-92.9-110.1-257.4-75.6s-212.7,48.8-363.6-8c-144.6-54.4-245.2-32.3-351.6,19.9
			c-73,35.8-154.6,76.5-284-5.3c-65-41.1-126.1-34.5-126.1-34.5l8-200.4l1374.7-13.3V1328.2z"/>
	</g>
</g>
<path class="st1" d="M-762.2,1601.2c37,0,72.8-13.7,100.3-38.5c11.9,19.1,36.9,24.9,56,13.1c4.8-3,9-7,12.2-11.7
	c50.6,30.6,116.4,15.1,147.9-34.9c16.9,15.6,43.3,14.6,58.9-2.3c0.6-0.6,1.1-1.2,1.6-1.8c93.5,49.8,209.7,16.7,262.9-74.8
	c8.2,2.2,16.9,1.7,24.8-1.5c23.7,30.4,67.5,35.8,97.9,12.2c6.2-4.9,11.6-10.8,15.9-17.4c43.1,20.8,94.7,9.6,125.4-27.1
	c9.9,25.3,38.5,37.8,63.8,27.8c12.4-4.9,22.2-14.5,27.4-26.7c11.9,7.4,27.2,6.4,38-2.5c5.8,15.9,23.3,24.1,39.2,18.3
	c1.8-0.6,3.5-1.4,5.1-2.4c46,51.1,124.6,55.9,176.4,10.6c17.5,20.5,47,26,70.7,13c-5.7,21.4,7,43.3,28.4,49s43.3-7,49-28.4
	c14,6.6,30.6,0.6,37.2-13.4c0.1-0.1,0.1-0.2,0.2-0.4c34.6,31.1,87.8,28.3,118.9-6.2c7.1-7.8,12.6-17,16.3-26.8
	c18.9,22.4,50.9,28.3,76.6,14.1c49.5,63.3,141,74.5,204.3,25c14.3-11.2,26.4-25,35.7-40.6c18.5,14.8,45.5,12,60.6-6.2
	c40.5,24.6,93.1,13.2,119.9-25.9c7.8,5.1,16.8,7.8,26.1,7.8h0.6c19.5,38,66.2,53,104.2,33.5c0.6-0.3,1.1-0.6,1.7-0.9
	c65.5,68.7,170.2,82.1,250.9,32.2c11.1,9.2,25,14.3,39.5,14.2h1.8c7.8,48,53.1,80.6,101.1,72.7c48-7.8,80.6-53.1,72.7-101.1
	c-3.6-22.3-15.7-42.4-33.8-56l79.2-0.1l-0.5-382.8l-212.1,0.3l0.2,152.7c-71.4-84.9-198-95.9-282.9-24.6
	c-44.3,37.2-70.4,91.8-71.6,149.7c-12.7,3.1-24.5,9.4-34.1,18.4c-11-4.3-23.2-4.2-34.1,0c-18.7-45.6-70.8-67.3-116.3-48.6
	c-28.9,11.8-49.4,37.9-54.2,68.7c-12-79.5-86.2-134.2-165.7-122.2c-44.5,6.7-83.4,33.7-105.4,73v-20.4l-374.1,0.5
	c-46.7-51.6-126.4-55.5-178-8.7c-15.5,14-27.2,31.7-34.2,51.4l-136.8-5C125.9,1249,62.6,1230.4,12,1258c-15.3,8.3-28.2,20.4-37.6,35
	l-79.4-2.9c-33.7-103.4-144.8-159.9-248.2-126.3c-75.6,24.6-129,92.3-135.3,171.5l-176.6,0.3c-63.6-53.5-158.6-45.2-212,18.4
	c-53.5,63.6-45.2,158.6,18.4,212C-831.9,1588.7-797.6,1601.2-762.2,1601.2L-762.2,1601.2z"/>
<g>
	<polyline class="st1" points="-1412.4,571.1 -1412.4,-5.9 -412.4,-5.9 -412.4,571.1 	"/>
</g>
<g>
	<g>
		<g>
			<g>
				<rect id="SVGID_3_" x="-1384.6" y="222" class="st5" width="159.2" height="111.4"/>
			</g>
			<g>
				<defs>
					<rect id="SVGID_4_" x="-1384.6" y="222" width="159.2" height="111.4"/>
				</defs>
				<clipPath id="SVGID_5_">
					<use xlink:href="#SVGID_4_"  style="overflow:visible;"/>
				</clipPath>
				<g class="st6">
					<rect x="-1383.1" y="223.5" class="st5" width="156.2" height="108.4"/>
					<path class="st7" d="M-1228.4,225v105.4h-153.2V225H-1228.4 M-1225.4,222h-159.2v111.4h159.2V222L-1225.4,222z"/>
				</g>
			</g>
		</g>
		<g>
			<g id="SVGID_2_">
				<rect x="-1383.1" y="223.5" class="st5" width="156.2" height="108.4"/>
				<path class="st7" d="M-1228.4,225v105.4h-153.2V225H-1228.4 M-1225.4,222h-159.2v111.4h159.2V222L-1225.4,222z"/>
			</g>
		</g>
	</g>
	<g id="SVGID_1_">
		<rect x="-1383.1" y="223.5" class="st5" width="156.2" height="108.4"/>
		<path class="st7" d="M-1228.4,225v105.4h-153.2V225H-1228.4 M-1225.4,222h-159.2v111.4h159.2V222L-1225.4,222z"/>
	</g>
	<g>
		<path class="st5" d="M-1243.7,411.5c-2.6,0-4.5-1.3-5.8-3.9l-12.3-27.1h-87.1l-12.3,27.1c-1.3,2.6-3.2,3.9-5.8,3.9
			c-0.7,0-1,0-1.3-0.4l-0.2-0.2l-0.3-0.1c-3.1-1.2-4.5-5-3.1-8.4l32-70.5h-43V319h156.2v12.9h-43l32,70.6c1.3,3.3-0.1,7.1-3.2,8.3
			l-0.3,0.1l-0.2,0.2C-1241.8,411.4-1242.5,411.5-1243.7,411.5z M-1343.1,368.3h75.5l-15.2-33.7c-0.1-1.4-0.9-1.8-2.4-2.6l-0.3-0.2
			h-42.5v2.8L-1343.1,368.3z"/>
		<path class="st7" d="M-1228.4,320.5v9.9h-39.2h-4.7l1.9,4.2l31,68.4c0.5,1.2,0.5,2.6,0,3.9c-0.4,1.2-1.3,2.1-2.4,2.5l-0.6,0.2
			l-0.3,0.3c-0.3,0.1-1,0.1-1.2,0.1c-1.4,0-3.1-0.4-4.5-3.1l-11.9-26.2l-0.8-1.8h-1.9h-85h-1.9l-0.8,1.8l-11.9,26.2
			c-1.4,2.7-3.1,3.1-4.5,3.1c-0.1,0-0.2,0-0.4,0l-0.3-0.3l-0.6-0.2c-1.1-0.4-1.9-1.3-2.4-2.5c-0.4-1.2-0.4-2.6,0-3.9l31-68.4
			l1.9-4.2h-4.5h-39.2v-9.9h153.2 M-1329.5,334.4l-14.1,31.2l-1.9,4.2h4.6h70.8h4.6l-1.9-4.2l-14.1-31.3c-0.3-2.1-1.6-2.7-3.2-3.5
			l-0.6-0.3h-0.7h-40.5h-3v3V334.4 M-1225.4,317.5h-159.2v15.9h42.2l-31,68.4c-1.6,4,0,8.8,4,10.3c0.8,0.8,1.6,0.8,2.4,0.8
			c3.2,0,5.6-1.6,7.2-4.8l11.8-26.1h85.2l11.9,26.3c1.6,3.2,4,4.8,7.2,4.8c0.8,0,2.4,0,3.2-0.8c4-1.6,5.6-6.4,4-10.3l-31-68.4h42.1
			V317.5L-1225.4,317.5z M-1340.8,366.8l14.3-31.8c0-0.8,0-0.8,0-1.6h40.6c1.6,0.8,1.6,0.8,1.6,1.6l14.3,31.8H-1340.8L-1340.8,366.8
			z"/>
	</g>
</g>
<g>
	<g>
		<path class="st5" d="M-552.8,388l-2.3-14.5l-14.1-3l-2.2-14.1l-14.1-3l-2.2-14.1l-13.3-2.8l-20.3-21.1l-0.9,0.2
			c-4,1.1-8.2,1.7-12.3,1.7c-12.3,0-23.9-5-32.4-14.1c-8.9-8.9-13.8-20.7-13.6-33.2c0.1-12.6,5.3-24.4,14.5-33.2
			c8.6-8.6,20.1-13.3,32.5-13.3c12.8,0,24.8,5,33.9,14.1c11.4,11.4,15.6,28.9,10.9,45.5l-0.2,0.8l70.4,72.6l-0.8,32.2L-552.8,388z
			 M-657.1,246.5c-3.6,3.1-5.6,7.6-5.6,12.4c0,4.8,2,9.3,5.6,12.4c3.4,3.4,7.9,5.3,12.5,5.3s9.1-1.9,12.6-5.5
			c3.5-3.5,5.4-8,5.4-12.6c0-4.7-2-9.2-5.9-13l-0.1-0.1l-0.1-0.1c-3.6-2.5-8.1-4-12.4-4C-650,241.3-654.3,243.2-657.1,246.5z"/>
		<path class="st7" d="M-633.9,225c12.4,0,24,4.9,32.8,13.7c10.9,10.9,15,28.2,10.5,44.1l-0.5,1.7l1.2,1.2l69.4,71.6l-0.8,30
			l-30.3-0.8l-1.9-12.2l-0.3-2l-2-0.4l-12.1-2.5l-1.9-12.1l-0.3-2l-2-0.4l-12.1-2.5l-1.9-12.1l-0.3-2l-2-0.4l-11.8-2.5l-19.6-20.4
			l-1.2-1.3l-1.7,0.5c-3.9,1.1-7.9,1.7-11.9,1.7c-11.9,0-23.1-4.8-31.4-13.7l0,0l0,0c-8.6-8.6-13.3-20-13.2-32.1
			c0.1-12.2,5.1-23.6,14-32.1l0,0l0,0C-656.9,229.6-645.8,225-633.9,225 M-658.2,245.4c-3.9,3.4-6.1,8.3-6.1,13.5s2.2,10.1,6.1,13.5
			c3.8,3.7,8.6,5.7,13.5,5.7c5,0,9.9-2.1,13.7-5.9s5.9-8.6,5.9-13.7c0-5.1-2.2-10-6.4-14.1l-0.2-0.2l-0.2-0.1
			c-3.8-2.7-8.7-4.3-13.3-4.3C-650.4,239.8-655,241.8-658.2,245.4 M-633.9,222c-12.2,0-24.3,4.6-33.5,13.8
			c-9.5,9.1-14.8,21.2-14.9,34.2c-0.1,12.9,4.9,25.1,14,34.3c9,9.5,21,14.6,33.5,14.6c4.2,0,8.5-0.6,12.7-1.8l20,20.8l12.7,2.7
			l2.2,14.1l14.1,3l2.2,14.1l14.1,3l2.3,14.7l35.8,0.9l1.3-34.4l-70.2-72.5c4.8-17,0.5-35.2-11.3-47
			C-608.6,226.9-621.3,222-633.9,222L-633.9,222z M-644.7,275.1c-4.1,0-8.1-1.6-11.5-4.9c-3.2-2.8-5.1-6.9-5.1-11.3
			c0-4.4,1.9-8.6,5.2-11.4c2.8-3.3,6.8-4.7,10.9-4.7c4.1,0,8.3,1.4,11.6,3.7c3.7,3.6,5.5,7.7,5.5,12c0,4.2-1.8,8.3-5,11.6
			C-636.5,273.4-640.6,275.1-644.7,275.1L-644.7,275.1z"/>
	</g>
</g>
<path class="st8" d="M-1197.1,503.8h151.7V397.6h-151.7V503.8z M-1037.7,519h-166.9c-4.2,0-7.6-3.4-7.6-7.6V367.3h53.1v15.2h121.4
	c4.2,0,7.6,3.4,7.6,7.6v121.4C-1030.1,515.6-1033.5,519-1037.7,519"/>
<g>
	<g>
		<path class="st5" d="M-1104,255.7c-3.3,0-3.4-3.1-3.4-3.4V85.5c0-4.2,3-7.3,3-7.3l42.1-42.1c3-3,7.3-3,7.3-3h117.7
			c3.2,0,3.4,2.8,3.4,3.4v215.8c0,3.3-3.1,3.4-3.4,3.4H-1104z"/>
		<path class="st7" d="M-937.2,34.5c0.5,0,1.8,0,1.9,1.9v215.8c0,0.5,0,1.8-1.9,1.9H-1104c-0.5,0-1.8,0-1.9-1.9V85.5
			c0-3.5,2.6-6.2,2.6-6.3l42.1-42.1c2.5-2.5,6.2-2.6,6.3-2.6H-937.2 M-937.2,31.5h-117.7c0,0-4.9,0-8.4,3.5l-42.1,42.1
			c0,0-3.5,3.5-3.5,8.4v166.8c0,0,0,4.9,4.9,4.9h166.8c0,0,4.9,0,4.9-4.9V36.4C-932.3,36.4-932.3,31.5-937.2,31.5L-937.2,31.5z"/>
	</g>
	<g>
		<polygon class="st1" points="-951.9,237.6 -951.9,51.2 -1040.2,51.2 -1040.2,100.2 -1089.3,100.2 -1089.3,237.6 -1050,237.6 
			-1050,257.2 -991.2,257.2 -991.2,237.6 		"/>
	</g>
	<g>
		<polygon class="st5" points="-1071.4,271.8 -1037.4,271.8 -1037.4,212.6 -1003.8,212.6 -1003.8,271.8 -969.8,271.8 -1020.6,315.8 
					"/>
		<path class="st7" d="M-1005.3,214.1v56.2v3h3h28.5l-46.8,40.5l-46.8-40.5h28.5h3v-3v-56.2L-1005.3,214.1 M-1002.3,211.1h-36.6
			v59.2h-36.6l54.9,47.5l54.9-47.5h-36.6L-1002.3,211.1L-1002.3,211.1z"/>
	</g>
</g>
<g>
	<path class="st8" d="M-933.3,462.7c-11.8,0-22.3-3.9-30.2-9.2c-17.1,7.9-28.9,22.3-28.9,38.1v63h118.2v-63
		c0-15.8-11.8-30.2-28.9-38.1C-911,458.8-921.5,462.7-933.3,462.7"/>
	<path class="st8" d="M-974,399.7c0,24.9,18.4,44.6,40.7,44.6c22.3,0,40.7-19.7,40.7-44.6s-18.4-44.6-40.7-44.6
		C-955.6,355.1-974,374.8-974,399.7"/>
	<path class="st8" d="M-657.6,444.4c22.3,0,40.7-19.7,40.7-44.6s-18.4-44.6-40.7-44.6s-40.7,19.7-40.7,44.6
		C-698.3,424.7-679.9,444.4-657.6,444.4"/>
	<path class="st8" d="M-795.5,385.3c22.3,0,40.7-19.7,40.7-44.6s-18.3-44.7-40.7-44.7s-40.7,19.7-40.7,44.6
		S-817.8,385.3-795.5,385.3"/>
	<path class="st8" d="M-795.5,403.7c-11.8,0-22.3-3.9-30.2-9.2c-17.1,7.9-28.9,22.3-28.9,38.1v63h118.2v-63
		c0-15.8-11.8-30.2-28.9-38.1C-773.1,399.7-783.6,403.7-795.5,403.7"/>
	<path class="st8" d="M-657.6,462.7c-11.8,0-22.3-3.9-30.2-9.2c-17.1,7.9-28.9,22.3-28.9,38.1v63h118.2v-63
		c0-15.8-11.8-30.2-28.9-38.1C-635.3,458.8-645.8,462.7-657.6,462.7"/>
</g>
<path class="st8" d="M-780.4,61c-51.9,0-94,42.1-94,94s42.1,94,94,94s94-42.1,94-94S-728.5,61-780.4,61z M-810.5,185.1
	c-9.8,17.3-10.5,14.3-13.5,3.8c-3.8-13.5-18-32.3-11.3-40.6c7.5-8.3,32.3-9.8,30.8,6C-805.2,172.3-804.5,175.3-810.5,185.1z
	 M-756.3,182.8c0-34.6-34.6-34.6-34.6-51.9s17.3,0,34.6-17.3c12-12,34.6,17.3,34.6,34.6S-756.3,200.1-756.3,182.8z"/>
<g>
	<g>
		<path class="st5" d="M-503.9,212.5c-0.3,0-0.6,0-0.8-0.1l-6.5-1.5c-1-0.2-1.8-0.8-2.3-1.7c-0.5-0.8-0.7-1.8-0.5-2.8l3.3-14.5
			h-56.9v16.2c0,2-1.6,3.7-3.7,3.7h-4.6c-2,0-3.7-1.6-3.7-3.7v-16.2h-15.6v16.2c0,2-1.6,3.7-3.7,3.7h-4.6c-2,0-3.7-1.6-3.7-3.7
			v-70.5c0-0.2,0-0.5,0.1-0.8v-0.2v-19.2c0-1.1,0.2-2.3,0.5-3.4l1.1-3.3l-19.1,8.8c-0.5,0.2-1.1,0.4-1.7,0.4c-1.3,0-2.4-0.5-3.2-1.5
			l-6.7-8.3c-1.2-1.5-1.3-3.6-0.1-5.1l20.8-27.3l0.1-0.1c0,0,0-0.1,0.1-0.1c0.1-0.2,0.2-0.3,0.3-0.5c0.6-1,1.4-2,2.2-3
			c0.6-0.7,1.1-1.3,1.5-1.9c1.3-1.8,2.8-3.3,4.7-4.5l4.3-2.9c3.1-2.1,6.8-3.3,10.6-3.3c6.4,0,12.4,3.2,16,8.5l24.8,36.7h75.1
			c6,0,11,4.9,11,11v63.5c0,0.5,0,0.9-0.1,1.4v0.1v25.6c0,2-1.6,3.7-3.7,3.7h-4.6c-2,0-3.7-1.6-3.7-3.7V192h-19.4l-4,17.7
			C-500.7,211.3-502.2,212.5-503.9,212.5z M-600.4,70.5c-6.9,0-12.5,5.6-12.5,12.5s5.6,12.5,12.5,12.5s12.5-5.6,12.5-12.5
			S-593.5,70.5-600.4,70.5z"/>
		<path class="st7" d="M-591.8,62.8c5.9,0,11.5,2.9,14.8,7.8l24.4,36.1l0.9,1.3h1.6h74.3c5.2,0,9.5,4.2,9.5,9.5V181
			c0,0.4,0,0.8-0.1,1.2v0.2v0.2v25.5c0,1.2-1,2.2-2.2,2.2h-4.6c-1.2,0-2.2-1-2.2-2.2v-14.7v-3h-3h-16.7h-2.4l-0.5,2.3l-3.7,16.5
			c-0.2,1-1.2,1.8-2.2,1.8c-0.2,0-0.3,0-0.5-0.1l-6.5-1.5c-1.2-0.3-2-1.5-1.7-2.7l2.9-12.7l0.8-3.7h-3.8h-53.5h-3v3V208
			c0,1.2-1,2.2-2.2,2.2h-4.6c-1.2,0-2.2-1-2.2-2.2v-14.7v-3h-3h-12.6h-3v3V208c0,1.2-1,2.2-2.2,2.2h-4.6c-1.2,0-2.2-1-2.2-2.2v-70.5
			c0-0.1,0-0.3,0-0.5l0.1-0.3v-0.3v-19c0-1,0.2-2,0.5-2.9l2.1-6.5l-6.2,2.9l-16,7.3c-0.4,0.2-0.8,0.2-1.2,0.2c-0.8,0-1.5-0.3-2-1
			l-6.8-8.3c-0.8-0.9-0.8-2.3,0-3.2l20.7-27.2l0.2-0.2l0.1-0.1l0,0c0.1-0.2,0.3-0.4,0.4-0.7c0.4-0.7,1-1.5,1.6-2.2
			c-1.4,2.2-2.2,4.7-2.2,7.5c0,7.7,6.3,14,14,14s14-6.3,14-14s-6.3-14-14-14c-3.9,0-7.4,1.6-9.9,4.1c0-0.1,0.1-0.1,0.1-0.2
			c1.2-1.7,2.6-3.1,4.3-4.2l4.3-2.9C-598.7,63.9-595.3,62.8-591.8,62.8 M-591.8,59.8c-4,0-8,1.1-11.5,3.5l-4.3,2.9
			c-2,1.3-3.7,3-5.1,4.9c-1,1.5-2.7,3.1-3.8,5.1c-0.1,0.2-0.3,0.4-0.4,0.7l-20.7,27.2c-1.6,2-1.6,4.9,0.1,7l6.7,8.3
			c1.1,1.4,2.7,2.1,4.4,2.1c0.8,0,1.6-0.2,2.4-0.5l16-7.3c-0.4,1.2-0.6,2.5-0.6,3.8v19c-0.1,0.3-0.1,0.7-0.1,1.1v70.5
			c0,2.9,2.4,5.2,5.2,5.2h4.6c2.9,0,5.2-2.4,5.2-5.2v-14.7h12.6v14.7c0,2.9,2.4,5.2,5.2,5.2h4.6c2.9,0,5.2-2.4,5.2-5.2v-14.7h53.5
			l-2.9,12.7c-0.7,2.8,1.1,5.6,3.9,6.3l6.5,1.5c0.4,0.1,0.8,0.1,1.2,0.1c2.4,0,4.5-1.7,5.1-4.1l3.7-16.5h16.7v14.7
			c0,2.9,2.4,5.2,5.2,5.2h4.6c2.9,0,5.2-2.4,5.2-5.2v-25.5c0.1-0.5,0.1-1.1,0.1-1.6v-63.5c0-6.9-5.6-12.5-12.5-12.5h-74.3l-24.4-36
			C-578.5,63-585.1,59.8-591.8,59.8L-591.8,59.8z M-600.4,94c-6.1,0-11-4.9-11-11s4.9-11,11-11s11,4.9,11,11S-594.3,94-600.4,94
			L-600.4,94z"/>
	</g>
	<g>
		<circle class="st5" cx="-603.2" cy="83" r="3.3"/>
	</g>
	<g>
		<path class="st5" d="M-543.7,99.7c-0.9,0-1.7-0.4-2.2-1.2L-569.8,64c-4.4-6.7-11.8-11-18.7-11h-0.3c-7.1,0.1-14.2,2.4-20.4,6.6
			c-0.3-0.6-0.7-1.6-1.1-3l-3.6-14.9c0-0.2,0-0.3,0.1-0.4c0.1-0.1,0.2-0.2,0.5-0.2c0,0,31.5,0,32,0l-0.2,0.2l3.8-0.1
			c0.2,0,0.3,0,0.5,0c5.8,0,11.9,3.7,16,9.7l28.3,41.9c1.4,2,2.2,4.1,2.8,6.5c0.1,0.2,0,0.4-0.1,0.5s-0.2,0.2-0.4,0.2L-543.7,99.7z"
			/>
		<path class="st7" d="M-584.9,42.6l-0.4,0.4l7.6-0.3c0.1,0,0.3,0,0.4,0c5.2,0,11,3.5,14.7,9l28.3,41.9c1,1.6,1.8,3.1,2.3,4.9
			l-11.7-0.3l0,0l0,0c-0.5,0-0.8-0.3-0.9-0.5l-23.9-34.5c-4.8-7.2-12.4-11.6-20-11.6c-0.1,0-0.2,0-0.3,0c-6.8,0.1-13.6,2.1-19.6,5.9
			c-0.1-0.3-0.2-0.7-0.3-1.1l-3.3-13.7h27.1 M-582.7,39.6h-30.6c-1.3,0-2.4,1.2-2,2.5l3.6,14.9c0.6,2.6,1.6,4.5,2.3,4.5
			c0.1,0,0.1,0,0.2,0c0.1-0.1,0.2-0.1,0.3-0.2c6.1-4.3,12.9-6.6,20.1-6.7c0.1,0,0.2,0,0.3,0c6.1,0,13,3.7,17.5,10.3l23.9,34.5
			c0.8,1.1,2,1.8,3.4,1.8l13,0.3c1.3,0,2.4-1.3,2-2.6c-0.6-2.4-1.5-4.6-3-7L-560,50c-4.5-6.6-11.2-10.3-17.2-10.3
			c-0.2,0-0.3,0-0.5,0C-577.7,39.6-579.8,39.6-582.7,39.6L-582.7,39.6z"/>
	</g>
	<g>
		<path class="st5" d="M-515.9,99.5c0.6-20.9,17.4-37.8,38.4-38.6v5.4c-17.6,0.8-31.8,15.2-32.6,33.2H-515.9z"/>
		<path class="st7" d="M-479,62.5v2.4c-8.4,0.7-16.1,4.3-22.1,10.3c-6,6.1-9.7,14.1-10.4,22.8h-2.9C-513.1,79.1-498,64-479,62.5
			 M-477,59.4c-22.1,0.6-40,18.4-40.4,40.4c-0.1,0.7,0.3,1.1,0.9,1.1l6.6,0.1c0.7,0,1.2-0.6,1.3-1.2c0.7-17.5,14.4-31.7,31.9-32
			c0.3,0,0.7-0.3,0.7-0.7v-6.7C-476,59.9-476.5,59.4-477,59.4L-477,59.4z"/>
	</g>
	<g>
		<path class="st5" d="M-527.7,87.3c-0.3-0.4-0.3-1.1-0.2-1.7c6.7-22.6,26.9-38,50.3-38.6v6.4c-22.7,0.7-42.2,18.7-45.6,41.7
			L-527.7,87.3z"/>
		<path class="st7" d="M-479.1,48.6V52c-21.4,1.4-39.9,17.6-44.8,38.9l-2.5-4.3c0,0-0.1-0.3,0-0.6c3.1-10.5,9.7-19.9,18.4-26.6
			C-499.6,52.9-489.7,49.1-479.1,48.6 M-476.9,45.5c-24.8,0.3-45.7,17.1-52.5,39.8c-0.2,1-0.1,2,0.3,2.8l5.6,9.9
			c0.1,0.3,0.4,0.4,0.6,0.4c0.3,0,0.7-0.2,0.7-0.6c2.2-23,21.7-42.5,45.3-42.8c0.3,0,0.7-0.2,0.7-0.7v-8
			C-476.1,45.8-476.5,45.5-476.9,45.5L-476.9,45.5z"/>
	</g>
	<g>
		<path class="st5" d="M-537.5,72.3c11-23.2,34.4-38.5,59.8-39v6.4c-24.6,0.6-46.7,16.2-55.6,39.2L-537.5,72.3z"/>
		<path class="st7" d="M-479.1,34.8v3.4c-23.7,1.1-44.9,15.8-54.4,37.4l-2.2-3.5c5.2-10.7,13.2-19.8,23.2-26.4
			C-502.6,39.1-491.1,35.4-479.1,34.8 M-477,31.8c-27.5,0.3-51.1,16.8-62,40.3c-0.1,0.2,0,0.6,0.2,0.9l5.1,7.9
			c0.1,0.2,0.4,0.4,0.7,0.4s0.7-0.2,0.8-0.6c8.2-22.7,29.9-39.1,55.4-39.4c0.4,0,0.8-0.3,0.8-0.8v-7.8
			C-476.1,32.1-476.6,31.8-477,31.8L-477,31.8z"/>
	</g>
</g>
<g>
	<path class="st5" d="M-1321.3,197.4c-0.7,0-2.2-0.3-2.2-2.2v-7.4c0-0.7,0.3-2.2,2.2-2.2h171.1c0.7,0,2.2,0.3,2.2,2.2v7.4
		c0,0.7-0.3,2.2-2.2,2.2H-1321.3z"/>
	<path class="st7" d="M-1150.2,187.1c0.8,0,0.8,0.3,0.8,0.7v7.4c0,0.7-0.4,0.7-0.7,0.7h-171.2c-0.7,0-0.7-0.4-0.7-0.7v-7.4
		c0-0.8,0.3-0.8,0.7-0.8h171.1 M-1150.2,184.1h-171.1c-3.7,0-3.7,3.7-3.7,3.7v7.4c0,3.7,3.7,3.7,3.7,3.7h171.1
		c3.7,0,3.7-3.7,3.7-3.7v-7.4C-1146.5,184.1-1150.2,184.1-1150.2,184.1L-1150.2,184.1z"/>
</g>
<g>
	<path class="st5" d="M-1310.1,175.1c-0.7,0-2.2-0.3-2.2-2.2v-7.4c0-0.7,0.3-2.2,2.2-2.2h13l-0.3-1.7c0-0.2,0-0.4,0-0.4v-70
		c0-2,1.6-2.2,2.2-2.2h22.3c2.1,0,2.2,1.8,2.2,2.2V161c-0.1,0.1-0.1,0.3-0.1,0.5l-0.3,1.7h22.3l-0.3-1.7c0-0.2,0-0.4,0-0.4v-70
		c0-2,1.6-2.2,2.2-2.2h22.3c2,0,2.2,1.6,2.2,2.2V161c-0.1,0.1-0.1,0.3-0.2,0.6l-0.2,1.7h22.4l-0.3-1.8c0-0.2-0.1-0.4-0.1-0.4v-70
		c0-2.1,1.8-2.2,2.2-2.2h22.3c2,0,2.2,1.6,2.2,2.2V161c-0.1,0.1-0.1,0.3-0.2,0.6l-0.2,1.7h13c0.7,0,2.2,0.3,2.2,2.2v7.4
		c0,0.7-0.3,2.2-2.2,2.2L-1310.1,175.1L-1310.1,175.1z"/>
	<path class="st7" d="M-1176.2,90.4c0.4,0,0.7,0,0.7,0.8v69.6c-0.1,0.2-0.1,0.4-0.1,0.6l-0.4,3.4h3.4h11.2c0.8,0,0.8,0.3,0.8,0.7
		v7.4c0,0.8-0.3,0.8-0.7,0.8h-148.8c-0.8,0-0.8-0.3-0.8-0.7v-7.4c0-0.8,0.3-0.8,0.7-0.8h11.2h3.5l-0.6-3.5c0-0.1,0-0.2,0-0.2v-70
		c0-0.4,0-0.7,0.8-0.7h22.3c0.4,0,0.7,0,0.7,0.8v69.6c0,0.1-0.1,0.3-0.1,0.5l-0.6,3.5h3.5h18.8h3.5l-0.6-3.5c0-0.1,0-0.2,0-0.2v-70
		c0-0.4,0-0.7,0.8-0.7h22.3c0.4,0,0.7,0,0.7,0.8v69.6c-0.1,0.2-0.1,0.4-0.1,0.6l-0.4,3.4h3.4h18.8h3.6l-0.6-3.5c0-0.1,0-0.2,0-0.2
		v-70c0-0.4,0-0.7,0.8-0.7L-1176.2,90.4 M-1176.2,87.4h-22.3c0,0-3.7,0-3.7,3.7v70c0,0,0,0.2,0.1,0.6h-18.8c0-0.2,0.2-0.3,0.2-0.6
		v-70c0,0,0-3.7-3.7-3.7h-22.3c0,0-3.7,0-3.7,3.7v70c0,0,0,0.2,0.1,0.6h-19.1c0-0.2,0.2-0.3,0.2-0.6v-70c0,0,0-3.7-3.7-3.7h-22.3
		c0,0-3.7,0-3.7,3.7v70c0,0,0,0.2,0.1,0.6h-11.2c-3.7,0-3.7,3.7-3.7,3.7v7.4c0,3.7,3.7,3.7,3.7,3.7h148.6c3.7,0,3.7-3.7,3.7-3.7
		v-7.4c0-3.7-3.7-3.7-3.7-3.7h-11.3c0-0.2,0.2-0.3,0.2-0.6v-70C-1172.5,91.1-1172.5,87.4-1176.2,87.4L-1176.2,87.4z"/>
</g>
<g>
	<path class="st5" d="M-1317.6,78.4c-0.6,0-1.4-0.1-1.9-0.2c0.3-0.3,0.7-0.6,1.5-1.2l76.9-51.2c0,0,2.4-1.5,5.4-1.6h0.3
		c1.7,0,3.4,0.6,5,1.6l76.9,51.2c0.5,0.4,1.1,0.9,1.4,1.2c-0.4,0.1-0.9,0.1-1.9,0.1h-163.6V78.4z"/>
	<path class="st7" d="M-1235.4,25.7c1.5,0,2.9,0.5,4.2,1.3l74.8,49.9h-158.7l74.8-49.9c0,0,2-1.3,4.6-1.3H-1235.4 M-1235.3,22.7
		h-0.3c-3.6,0.1-6.2,1.8-6.2,1.8l-77,51.3c-6.2,4.1,1.2,4.1,1.2,4.1h163.6c7.4,0,1.2-4.1,1.2-4.1l-76.9-51.2
		C-1231.5,23.2-1233.5,22.7-1235.3,22.7L-1235.3,22.7z"/>
</g>
<g>
	<polygon class="st5" points="-1348.1,498.9 -1367,472.3 -1335.7,461.8 -1316.1,435.2 -1296.4,461.8 -1265.2,472.3 -1284.1,498.9 
		-1284.4,532 -1316.1,522.1 -1347.7,532 	"/>
	<path class="st7" d="M-1316.1,437.7l18.2,24.5l0.6,0.8l0.9,0.3l28.9,9.8l-17.5,24.5l-0.5,0.8v0.9l-0.3,30.6l-29.3-9.1l-0.9-0.3
		l-0.9,0.3l-29.3,9.1l-0.3-30.6v-0.9l-0.5-0.8l-17.5-24.5l28.9-9.8l0.9-0.3l0.6-0.8L-1316.1,437.7 M-1316.1,432.7l-20.6,27.8
		l-32.8,11l19.8,27.8l0.4,34.7l33.1-10.3l33.1,10.3l0.4-34.7l19.8-27.8l-32.8-11L-1316.1,432.7L-1316.1,432.7z"/>
</g>
<g>
	<g>
		<path class="st5" d="M-508,549.4L-508,549.4c-0.9-1.2-9.1-14.2-17.3-29c-12.1-21.8-18-37-18-46.4c0-22.6,18.4-41,41-41
			c10.8,0,21,4.3,28.7,12.1c7.7,7.8,11.8,18,11.6,28.9c0,9.1-5.9,24.3-18,46.4c-8,15.3-16.4,27.9-17.3,29l-0.1,0.1l-0.1,0.1
			l-5.2,7.8L-508,549.4z M-502.4,449.6c-13.2,0-23.6,10.4-23.6,23.6s10.4,23.6,23.6,23.6c12.8,0,23.3-10.6,23.3-23.6
			C-479.1,459.8-489.1,449.6-502.4,449.6z"/>
		<path class="st7" d="M-502.4,434.5c10.4,0,20.2,4.1,27.6,11.6c7.4,7.5,11.3,17.3,11.2,27.8c0,8.9-5.8,23.8-17.8,45.7l0,0l0,0
			c-8,15.3-16,27.4-17,28.6l-0.1,0.1l-0.2,0.2l-3.9,5.9l-3.9-5.9l-0.2-0.2l-0.1-0.1c-1.1-1.7-9.2-14.5-17.1-28.8
			c-12-21.6-17.8-36.5-17.8-45.7c0-10.6,4.1-20.5,11.5-28S-513,434.5-502.4,434.5 M-502.4,498.4c13.7,0,24.8-11.3,24.8-25.1
			c0-14.3-10.7-25.1-24.8-25.1s-25.1,11-25.1,25.1S-516.5,498.4-502.4,498.4 M-502.4,431.5c-23.6,0-42.5,18.9-42.5,42.5
			c0,9.6,5.7,24.6,18.2,47.1c8.6,15.3,17.1,28.9,17.5,29.3l6.4,9.6l6.4-9.6c0.7-0.7,9.3-13.6,17.5-29.3
			c12.1-22.1,18.2-37.5,18.2-47.1C-460.3,450.4-479.6,431.5-502.4,431.5L-502.4,431.5z M-502.4,495.4c-12.5,0-22.1-9.6-22.1-22.1
			s9.6-22.1,22.1-22.1s21.8,9.6,21.8,22.1S-490.6,495.4-502.4,495.4L-502.4,495.4z"/>
	</g>
</g>
<g id="g10" transform="matrix(1.25,0,0,-1.25,25.149687,241.89182)">
	<g id="g12" transform="matrix(2.3518566,0,0,2.3518566,-20.11975,193.27545)">
		<path id="path14" class="st9" d="M0-12.3V-116h11.4v34.4l0.1,0.1v34.6l-0.1,0.1v34.4H0z"/>
	</g>
	<g id="g16" transform="matrix(2.3518566,0,0,2.3518566,-20.11975,-99.379713)">
		<g>
			<defs>
				<rect id="SVGID_6_" x="-33.6" y="-92.5" width="101.9" height="305.6"/>
			</defs>
			<clipPath id="SVGID_7_">
				<use xlink:href="#SVGID_6_"  style="overflow:visible;"/>
			</clipPath>
			<g id="g18" class="st10">
				<g id="g24" transform="translate(28.0564,22.5923)">
					<path id="path26" class="st9" d="M0.6-14.2h-2.8v0.2h2.8c1,0,1.5,0.5,1.5,1.4c0,0.9-0.5,1.4-1.5,1.4h-2.8v0.2h2.8
						c1.1,0,1.6-0.5,1.6-1.6C2.2-13.7,1.7-14.2,0.6-14.2"/>
				</g>
				<g id="g28" transform="translate(29.5791,27.1297)">
					<path id="path30" class="st9" d="M0.6-14.1h-4.4v0.2l3.4,2.3L0-11.3c0,0,0.1,0.1,0,0.1c0,0-0.1,0.1-0.1,0.1l-0.5,0l-3.3,0v0.1
						h4.4v-0.1l-3.5-2.3l-0.4-0.3c0,0-0.1-0.1,0-0.1c0,0,0.1-0.1,0.1-0.1l0.5,0h3.4V-14.1z"/>
				</g>
				<path id="path32" class="st9" d="M30.2,17.7h-4.4v0.2h4.4V17.7z"/>
				<g id="g34" transform="translate(25.2863,33.0989)">
					<path id="path36" class="st9" d="M0.5-14v0.2l3.7,1.3l0.5,0.1c0,0,0.1,0.1,0.1,0.1s0,0.1-0.1,0.1L4.2-12l-3.7,1.3v0.2l4.4-1.6
						v-0.3L0.5-14z"/>
				</g>
				<g id="g38" transform="translate(29.5776,37.711)">
					<path id="path40" class="st9" d="M0.6-13.9h-4.4v2.5l0.2,0v-2.2c0-0.1,0-0.1,0.1-0.1h1.6c0.1,0,0.1,0,0.1,0.1v1.9h0.1v-1.9
						c0-0.1,0-0.1,0.1-0.1h1.8c0.1,0,0.1,0,0.1,0.1v2.3l0.2,0V-13.9z"/>
				</g>
				<g id="g42" transform="translate(29.5776,41.4793)">
					<path id="path44" class="st9" d="M0.6-13.8h-4.4v1.4c0,0.9,0.4,1.2,1.1,1.2c0.7,0,1-0.3,1.1-0.9c0,0,0-0.1,0.1-0.1c0,0,0,0,0,0
						c0,0,0,0,0.1,0l2,1.2v-0.2l-2-1.1c0,0-0.1-0.1-0.1-0.1v-1.1c0-0.1,0-0.1,0.1-0.1h2V-13.8z M-2.6-11.4c-0.7,0-1-0.3-1-1v-1.1
						c0-0.1,0-0.1,0.1-0.1h1.8c0.1,0,0.1,0,0.1,0.1v1C-1.6-11.8-1.9-11.4-2.6-11.4"/>
				</g>
				<g id="g46" transform="translate(29.3652,45.2549)">
					<path id="path48" class="st9" d="M0.6-13.8l-0.2,0c0.2,0.3,0.3,0.7,0.3,1.2c0,0.8-0.4,1.2-1.1,1.2c-0.7,0-0.9-0.6-1.1-1.2
						c-0.2-0.6-0.4-1.2-1.1-1.2c-0.7,0-1.1,0.5-1.1,1.3c0,0.4,0.1,0.7,0.2,1.1l0.2,0c-0.1-0.3-0.2-0.7-0.2-1c0-0.9,0.5-1.2,0.9-1.2
						c0.6,0,0.8,0.6,1,1.1c0.2,0.6,0.4,1.2,1.2,1.2c0.8,0,1.2-0.5,1.2-1.4C0.9-13,0.8-13.4,0.6-13.8"/>
				</g>
				<path id="path50" class="st9" d="M30.2,35.4h-4.4v0.2h4.4C30.2,35.6,30.2,35.4,30.2,35.4z"/>
				<g id="g52" transform="translate(25.465,50.3299)">
					<path id="path54" class="st9" d="M0.5-13.7l-0.2,0v3.1l0.2,0v-1.3c0-0.1,0-0.1,0.1-0.1h4.1v-0.2H0.6c-0.1,0-0.1,0-0.1-0.1
						V-13.7z"/>
				</g>
				<g id="g56" transform="translate(25.2856,54.0396)">
					<path id="path58" class="st9" d="M0.5-13.6v0.2l2.1,1.1L3-12c0,0,0.1,0.1,0.1,0.1c0,0,0,0.1-0.1,0.1l-0.4,0.2l-2.1,1.1v0.2
						l2.8-1.5l1.6,0v-0.2H3.4L0.5-13.6z"/>
				</g>
				<g id="g60" transform="translate(27.4323,60.0221)">
					<path id="path62" class="st9" d="M0.5-13.5c-1.6,0-2.3,0.5-2.3,1.7c0,1.3,0.6,1.7,2.3,1.7c1.7,0,2.3-0.5,2.3-1.7
						C2.8-13,2.2-13.5,0.5-13.5 M0.5-10.3c-1.5,0-2.1-0.4-2.1-1.5c0-1.1,0.5-1.5,2.1-1.5c1.5,0,2.1,0.4,2.1,1.5
						C2.6-10.7,2.1-10.3,0.5-10.3"/>
				</g>
				<g id="g64" transform="translate(29.5791,64.7133)">
					<path id="path66" class="st9" d="M0.6-13.4h-4.4v2.5l0.2,0v-2.2c0-0.1,0-0.1,0.1-0.1h1.7c0.1,0,0.1,0,0.1,0.1v1.8h0.2v-1.8
						c0-0.1,0-0.1,0.1-0.1h2.1V-13.4z"/>
				</g>
				<g id="g68" transform="translate(29.5791,69.5099)">
					<path id="path70" class="st9" d="M0.6-13.3l-4.4,1.7v0.3l4.4,1.7v-0.2l-1.1-0.4c0,0-0.1-0.1-0.1-0.1v-2.2c0,0,0-0.1,0.1-0.1
						l1.1-0.4V-13.3z M-0.9-10.4C-0.9-10.4-0.9-10.4-0.9-10.4l-2.3-0.8l-0.5-0.1c0,0-0.1-0.1-0.1-0.1c0,0,0-0.1,0.1-0.1l0.5-0.2
						l2.2-0.8c0,0,0,0,0,0c0,0,0,0,0.1,0c0,0,0,0,0,0.1v1.9C-0.8-10.5-0.8-10.5-0.9-10.4C-0.8-10.4-0.9-10.4-0.9-10.4"/>
				</g>
				<g id="g72" transform="translate(29.5791,74.2622)">
					<path id="path74" class="st9" d="M0.6-13.2h-4.4v1.4c0,1,0.4,1.4,1.3,1.4c0.9,0,1.3-0.4,1.3-1.4v-1.1c0-0.1,0-0.1,0.1-0.1h1.7
						V-13.2z M-2.5-10.7c-0.8,0-1.1-0.4-1.1-1.2v-1.1c0-0.1,0-0.1,0.1-0.1h2c0.1,0,0.1,0,0.1,0.1v1.1C-1.4-11-1.7-10.7-2.5-10.7"/>
				</g>
				<g id="g76" transform="translate(29.5791,78.144)">
					<path id="path78" class="st9" d="M0.6-13.2h-4.4v1.4c0,1,0.4,1.4,1.3,1.4c0.9,0,1.3-0.4,1.3-1.4v-1.1c0-0.1,0-0.1,0.1-0.1h1.7
						V-13.2z M-2.5-10.6c-0.8,0-1.1-0.4-1.1-1.2v-1.1c0-0.1,0-0.1,0.1-0.1h2c0.1,0,0.1,0,0.1,0.1v1.1C-1.4-11-1.7-10.6-2.5-10.6"/>
				</g>
				<g id="g80" transform="translate(29.5791,82.0277)">
					<path id="path82" class="st9" d="M0.6-13.1h-4.4v0.2h4.1c0.1,0,0.1,0,0.1,0.1v2.2l0.2,0V-13.1z"/>
				</g>
				<path id="path84" class="st9" d="M30.2,72.6h-4.4v0.2h4.4C30.2,72.8,30.2,72.6,30.2,72.6z"/>
				<g id="g86" transform="translate(29.5791,87.3392)">
					<path id="path88" class="st9" d="M0.6-13h-4.4v2.5l0.2,0v-2.2c0-0.1,0-0.1,0.1-0.1h1.6c0.1,0,0.1,0,0.1,0.1v1.9h0.1v-1.9
						c0-0.1,0-0.1,0.1-0.1h1.8c0.1,0,0.1,0,0.1,0.1v2.3l0.2,0V-13z"/>
				</g>
				<g id="g90" transform="translate(29.5791,91.1086)">
					<path id="path92" class="st9" d="M0.6-12.9h-4.4v1.4c0,1.3,0.6,1.8,2.2,1.8c1.6,0,2.2-0.5,2.2-1.8V-12.9z M-1.6-9.9
						c-1.4,0-2-0.4-2-1.6v-1.1c0-0.1,0-0.1,0.1-0.1h3.8c0.1,0,0.1,0,0.1,0.1v1.1C0.4-10.4-0.2-9.9-1.6-9.9"/>
				</g>
				<g id="g94" transform="translate(29.3659,97.1189)">
					<path id="path96" class="st9" d="M0.6-12.8l-0.2,0c0.2,0.3,0.3,0.7,0.3,1.2c0,0.8-0.4,1.2-1.1,1.2c-0.7,0-0.9-0.6-1.1-1.2
						c-0.2-0.6-0.4-1.2-1.1-1.2c-0.7,0-1.1,0.5-1.1,1.3c0,0.4,0.1,0.7,0.2,1.1l0.2,0c-0.1-0.3-0.2-0.7-0.2-1c0-1.1,0.7-1.2,0.9-1.2
						c0.6,0,0.8,0.6,1,1.1c0.2,0.6,0.4,1.2,1.2,1.2c0.8,0,1.2-0.5,1.2-1.4C0.9-12.1,0.8-12.5,0.6-12.8"/>
				</g>
				<g id="g98" transform="translate(27.3847,100.6533)">
					<path id="path100" class="st9" d="M0.5-12.7c-1.5,0-2.2,0.5-2.2,1.8c0,0.4,0.1,0.7,0.2,1l0.2,0c-0.1-0.3-0.2-0.6-0.2-0.9
						c0-1.2,0.6-1.6,2-1.6c1.5,0,2.1,0.5,2.1,1.7c0,0.3-0.1,0.6-0.2,0.9l0.1,0c0.1-0.2,0.2-0.6,0.2-1C2.9-12.2,2.2-12.7,0.5-12.7"/>
				</g>
				<path id="path102" class="st9" d="M30.2,92h-4.4v0.2h4.4C30.2,92.2,30.2,92,30.2,92z"/>
				<g id="g104" transform="translate(29.5791,106.3728)">
					<path id="path106" class="st9" d="M0.6-12.6h-4.4v2.5l0.2,0v-2.2c0-0.1,0-0.1,0.1-0.1h1.6c0.1,0,0.1,0,0.1,0.1v1.9h0.1v-1.9
						c0-0.1,0-0.1,0.1-0.1h1.8c0.1,0,0.1,0,0.1,0.1v2.3l0.2,0V-12.6z"/>
				</g>
				<g id="g108" transform="translate(29.5791,110.0645)">
					<path id="path110" class="st9" d="M0.6-12.6h-4.4v0.2l3.4,2.3L0-9.8c0,0,0.1,0.1,0,0.1c0,0-0.1,0.1-0.1,0.1h0l-0.5,0l-3.3,0
						v0.2h4.4v-0.1l-3.5-2.3l-0.4-0.3c0,0-0.1-0.1,0-0.1c0,0,0.1-0.1,0.1-0.1l0.5,0h3.4V-12.6z"/>
				</g>
				<g id="g112" transform="translate(27.3847,114.3723)">
					<path id="path114" class="st9" d="M0.5-12.5c-1.5,0-2.2,0.5-2.2,1.8c0,0.3,0.1,0.7,0.2,1l0.2,0c-0.1-0.3-0.2-0.6-0.2-0.9
						c0-1.2,0.6-1.6,2-1.6c1.5,0,2.1,0.5,2.1,1.7c0,0.3-0.1,0.6-0.2,0.9l0.1,0c0.1-0.2,0.2-0.6,0.2-1C2.9-11.9,2.2-12.5,0.5-12.5"/>
				</g>
				<g id="g116" transform="translate(29.5791,118.3046)">
					<path id="path118" class="st9" d="M0.6-12.4h-4.4v2.5l0.2,0v-2.2c0-0.1,0-0.1,0.1-0.1h1.6c0.1,0,0.1,0,0.1,0.1v1.9h0.1v-1.9
						c0-0.1,0-0.1,0.1-0.1h1.8c0.1,0,0.1,0,0.1,0.1v2.3l0.2,0V-12.4z"/>
				</g>
				<g id="g120" transform="translate(29.3659,121.9107)">
					<path id="path122" class="st9" d="M0.6-12.3l-0.2,0c0.2,0.3,0.3,0.7,0.3,1.2c0,0.8-0.4,1.2-1.1,1.2c-0.7,0-0.9-0.6-1.1-1.2
						c-0.2-0.6-0.4-1.2-1.1-1.2c-0.7,0-1.1,0.5-1.1,1.3c0,0.4,0.1,0.7,0.2,1.1l0.2,0c-0.1-0.3-0.2-0.7-0.2-1c0-0.9,0.5-1.2,0.9-1.2
						c0.6,0,0.8,0.6,1,1.1c0.2,0.6,0.4,1.2,1.2,1.2c0.8,0,1.2-0.5,1.2-1.4C0.9-11.6,0.8-12,0.6-12.3"/>
				</g>
				<g id="g124" transform="translate(22.7734,22.5923)">
					<path id="path126" class="st9" d="M0.5-14.2h-4.4v2.7l0.6,0v-2c0-0.1,0-0.1,0.1-0.1h1.2c0.1,0,0.1,0,0.1,0.1v1.6l0.5,0v-1.6
						c0-0.1,0-0.1,0.1-0.1h1.8V-14.2z"/>
				</g>
				<g id="g128" transform="translate(22.7741,26.2207)">
					<path id="path130" class="st9" d="M0.5-14.1h-4.4v0.6h1.7c0.1,0,0.1,0,0.1,0.1v1.9c0,0.1,0,0.1-0.1,0.1h-1.7v0.6h4.4v-0.6h-1.9
						c-0.1,0-0.1,0-0.1-0.1v-1.9c0-0.1,0-0.1,0.1-0.1h1.9V-14.1z"/>
				</g>
				<g id="g132" transform="translate(22.7748,32.0039)">
					<path id="path134" class="st9" d="M0.5-14l-4.4,1.6v0.9L0.5-10v-0.7L-0.5-11c0,0-0.1-0.1-0.1-0.1V-13c0,0,0-0.1,0.1-0.1
						l0.9-0.3V-14z M-1.1-11.2C-1.1-11.2-1.2-11.2-1.1-11.2L-3-11.8l-0.5-0.1c0,0-0.1-0.1-0.1-0.1c0,0,0-0.1,0.1-0.1l0.5-0.1
						l1.8-0.6c0,0,0,0,0,0c0,0,0,0,0.1,0c0,0,0,0.1,0,0.1v1.4C-1-11.3-1.1-11.3-1.1-11.2C-1.1-11.2-1.1-11.2-1.1-11.2"/>
				</g>
				<g id="g136" transform="translate(22.7741,36.4747)">
					<path id="path138" class="st9" d="M0.5-13.9l-4.4,1.6v0.9l4.4,1.6v-0.7l-0.9-0.3c0,0-0.1-0.1-0.1-0.1v-1.8c0,0,0-0.1,0.1-0.1
						l0.9-0.3V-13.9z M-1.1-11.2C-1.1-11.2-1.2-11.2-1.1-11.2L-3-11.7l-0.5-0.1c0,0-0.1-0.1-0.1-0.1c0,0,0-0.1,0.1-0.1l0.5-0.1
						l1.8-0.6c0,0,0,0,0,0c0,0,0,0,0.1,0c0,0,0,0,0,0.1v1.4C-1-11.2-1-11.2-1.1-11.2C-1.1-11.2-1.1-11.2-1.1-11.2"/>
				</g>
				<g id="g140" transform="translate(20.5915,40.9659)">
					<path id="path142" class="st9" d="M0.4-13.8c-1.5,0-2.2,0.6-2.2,2c0,0.3,0.1,0.7,0.2,1l0.5-0.1c-0.1-0.3-0.1-0.6-0.1-0.8
						c0-1,0.5-1.3,1.7-1.3c1.3,0,1.7,0.4,1.7,1.3c0,0.3-0.1,0.6-0.2,0.8l0.5,0.1c0.1-0.3,0.2-0.7,0.2-1C2.7-13.3,2-13.8,0.4-13.8"/>
				</g>
				<g id="g144" transform="translate(22.7748,44.8235)">
					<path id="path146" class="st9" d="M0.5-13.8h-4.4v0.6h1.7c0.1,0,0.1,0,0.1,0.1v1.9c0,0.1,0,0.1-0.1,0.1h-1.7v0.6h4.4v-0.6h-1.9
						c-0.1,0-0.1,0-0.1-0.1V-13c0-0.1,0-0.1,0.1-0.1l1.9,0V-13.8z"/>
				</g>
				<g id="g148" transform="translate(22.7741,49.325)">
					<path id="path150" class="st9" d="M0.5-13.7h-4.4v2.7l0.6,0v-2c0-0.1,0-0.1,0.1-0.1h1.1c0.1,0,0.1,0,0.1,0.1v1.7h0.5V-13
						c0-0.1,0-0.1,0.1-0.1h1.3c0.1,0,0.1,0,0.1,0.1v2.1l0.5,0V-13.7z"/>
				</g>
				<g id="g152" transform="translate(22.7741,53.0934)">
					<path id="path154" class="st9" d="M0.5-13.6h-4.4v0.6l2.6,1.8l0.4,0.3c0,0,0.1,0.1,0,0.1c0,0-0.1,0.1-0.1,0.1h0l-0.5,0h-2.5
						v0.5h4.4v-0.4l-2.7-1.9l-0.4-0.3c0,0-0.1-0.1,0-0.1c0,0,0.1-0.1,0.1-0.1l0.5,0h2.6V-13.6z"/>
				</g>
				<path id="path156" class="st11" d="M11.5,42.8h-46.1V8.4h46.1V42.8z"/>
				<g id="g158" transform="translate(11.3381,56.5057)">
					<path id="path160" class="st12" d="M0.2-13.6h-5.8H-46v-34.6H0.2V-13.6z"/>
				</g>
				<g id="g162" transform="translate(11.3381,90.5224)">
					<path id="path164" class="st9" d="M0.2-12.9h-5.8H-46v-34.6H0.2V-12.9z"/>
				</g>
				<g id="g166" transform="translate(11.3381,124.5372)">
					<path id="path168" class="st13" d="M0.2-12.3h-5.8H-46v-34.6H0.2V-12.3z"/>
				</g>
				<g id="g170" transform="translate(28.0564,25.8055)">
					<path id="path172" class="st12" d="M0.6-14.1c1.2,0,1.7-0.6,1.7-1.7c0-1.1-0.5-1.7-1.7-1.7h-2.9v0.4h2.9c0.9,0,1.4,0.4,1.4,1.3
						c0,0.9-0.4,1.3-1.4,1.3h-2.9v0.4L0.6-14.1z"/>
				</g>
				<g id="g174" transform="translate(29.6808,29.9839)">
					<path id="path176" class="st12" d="M0.6-14.1L-3-16.4l-0.4-0.3l0,0l0.5,0h3.5v-0.4H-4v0.4l3.5,2.3l0.4,0.3l0,0l-0.5,0l-3.4,0
						v0.4h4.6V-14.1z"/>
				</g>
				<g id="g178" transform="translate(25.1838,31.6011)">
					<path id="path180" class="st12" d="M0.5-14v0.2v0.2h4.6V-14H0.5z"/>
				</g>
				<g id="g182" transform="translate(25.1838,36.6878)">
					<path id="path184" class="st12" d="M0.5-13.9l4.6-1.7v-0.5l-4.6-1.7v0.4L4.2-16l0.5,0.2v0l-0.5,0.2l-3.7,1.3V-13.9z"/>
				</g>
				<g id="g186" transform="translate(29.3088,40.3858)">
					<path id="path188" class="st12" d="M0.6-13.9l0.4,0v-2.8h-4.6v2.7l0.4,0v-2.3h1.6v2h0.3v-2h1.8L0.6-13.9z"/>
				</g>
				<g id="g190" transform="translate(27.589,43.1954)">
					<path id="path192" class="st12" d="M0.5-13.8l2.1,1.3V-13l-2.1-1.2v-1.1h2.1v-0.4h-4.6v1.5c0,0.9,0.4,1.3,1.2,1.3
						C0.1-12.8,0.5-13.2,0.5-13.8 M-1.5-14.2v-1.1h1.8v1c0,0.7-0.3,1-0.9,1C-1.3-13.2-1.5-13.5-1.5-14.2"/>
				</g>
				<g id="g194" transform="translate(29.7658,46.4181)">
					<path id="path196" class="st12" d="M0.6-13.7c0-0.5-0.1-1-0.4-1.3L-0.1-15c0.2,0.4,0.4,0.7,0.4,1.2c0,0.7-0.4,1.1-0.9,1.1
						C-2-12.6-1.4-15-2.9-15c-0.7,0-1.2,0.4-1.2,1.4c0,0.4,0.1,0.8,0.2,1.2l0.4-0.1c-0.1-0.3-0.2-0.7-0.2-1.1c0-0.8,0.4-1.1,0.8-1.1
						c1.2,0,0.6,2.4,2.2,2.4C0.1-12.3,0.6-12.8,0.6-13.7"/>
				</g>
				<g id="g198" transform="translate(25.1838,48.9632)">
					<path id="path200" class="st12" d="M0.5-13.7v0.2v0.2h4.6v-0.4H0.5z"/>
				</g>
				<g id="g202" transform="translate(25.5676,52.0299)">
					<path id="path204" class="st12" d="M0.5-13.6h4.2V-14H0.5v-1.4l-0.4,0v3.3l0.4,0V-13.6z"/>
				</g>
				<g id="g206" transform="translate(25.1838,54.3297)">
					<path id="path208" class="st12" d="M0.5-13.6l2.1,1.1l0.4,0.2v0L2.6-12l-2.1,1.1v0.5l3-1.6h1.6v-0.4H3.5l-3-1.6V-13.6z"/>
				</g>
				<g id="g210" transform="translate(29.7658,61.7125)">
					<path id="path212" class="st12" d="M0.6-13.5c0-1.3-0.7-1.8-2.4-1.8c-1.7,0-2.4,0.5-2.4,1.8c0,1.3,0.7,1.8,2.4,1.8
						C-0.1-11.6,0.6-12.1,0.6-13.5 M-3.8-13.5c0-1,0.4-1.4,2-1.4c1.5,0,2,0.4,2,1.4c0,1-0.4,1.4-2,1.4C-3.3-12.1-3.8-12.4-3.8-13.5"
						/>
				</g>
				<g id="g214" transform="translate(25.5676,65.0055)">
					<path id="path216" class="st12" d="M0.5-13.4h1.7v1.9h0.4v-1.9h2.2v-0.4H0.1v2.7l0.4,0V-13.4z"/>
				</g>
				<g id="g218" transform="translate(28.4929,72.3781)">
					<path id="path220" class="st12" d="M0.6-13.3v-2.2l1.2-0.4v-0.4l-4.6,1.7v0.5l4.6,1.7v-0.5L0.6-13.3z M-2-14.5l2.2-0.8v1.9
						L-2-14.2l-0.5-0.2v0C-2.5-14.4-2-14.5-2-14.5z"/>
				</g>
				<g id="g222" transform="translate(27.8644,75.593)">
					<path id="path224" class="st12" d="M0.6-13.2v-1.1h1.8v-0.4h-4.6v1.5c0,1,0.4,1.5,1.4,1.5C0.1-11.7,0.6-12.2,0.6-13.2
						 M-1.8-13.2v-1.1h2v1.1c0,0.7-0.2,1.1-1,1.1C-1.6-12.1-1.8-12.5-1.8-13.2"/>
				</g>
				<g id="g226" transform="translate(27.8644,79.4759)">
					<path id="path228" class="st12" d="M0.6-13.1v-1.1h1.8v-0.4h-4.6v1.5c0,1,0.4,1.5,1.4,1.5C0.1-11.6,0.6-12.1,0.6-13.1
						 M-1.8-13.1v-1.1h2v1.1c0,0.7-0.2,1.1-1,1.1C-1.6-12.1-1.8-12.4-1.8-13.1"/>
				</g>
				<g id="g230" transform="translate(29.2971,84.5516)">
					<path id="path232" class="st12" d="M0.6-13l0.4,0v-2.7h-4.6v0.4h4.2L0.6-13z"/>
				</g>
				<g id="g234" transform="translate(25.1838,85.5023)">
					<path id="path236" class="st12" d="M0.5-13v0.2v0.2h4.6V-13H0.5z"/>
				</g>
				<g id="g238" transform="translate(29.3088,90.014)">
					<path id="path240" class="st12" d="M0.6-12.9L1-13v-2.8h-4.6v2.7l0.4,0v-2.3h1.6v2h0.3v-2h1.8L0.6-12.9z"/>
				</g>
				<g id="g242" transform="translate(29.6808,92.4823)">
					<path id="path244" class="st12" d="M0.6-12.9v-1.5H-4v1.5c0,1.3,0.6,1.9,2.3,1.9C-0.1-11,0.6-11.6,0.6-12.9 M-3.6-12.9V-14h3.8
						v1.1c0,1-0.4,1.5-1.9,1.5C-3.2-11.4-3.6-11.8-3.6-12.9"/>
				</g>
				<g id="g246" transform="translate(29.7658,98.2817)">
					<path id="path248" class="st12" d="M0.6-12.8c0-0.5-0.1-1-0.4-1.3L-0.1-14c0.2,0.4,0.4,0.7,0.4,1.2c0,0.7-0.4,1.1-0.9,1.1
						C-2-11.7-1.4-14-2.9-14c-0.7,0-1.2,0.4-1.2,1.4c0,0.4,0.1,0.8,0.2,1.2l0.4-0.1c-0.1-0.3-0.2-0.7-0.2-1.1c0-0.8,0.4-1.1,0.8-1.1
						c1.2,0,0.6,2.4,2.2,2.4C0.1-11.3,0.6-11.8,0.6-12.8"/>
				</g>
				<g id="g250" transform="translate(25.6921,103.4409)">
					<path id="path252" class="st12" d="M0.5-12.7c-0.1-0.3-0.2-0.6-0.2-1c0-1,0.5-1.5,1.9-1.5c1.6,0,2,0.5,2,1.6
						c0,0.4-0.1,0.7-0.2,1l0.3,0.1c0.1-0.3,0.3-0.7,0.3-1.1c0-1.3-0.7-1.9-2.4-1.9c-1.6,0-2.3,0.6-2.3,1.9c0,0.4,0.1,0.8,0.2,1.1
						L0.5-12.7z"/>
				</g>
				<g id="g254" transform="translate(25.1838,104.5351)">
					<path id="path256" class="st12" d="M0.5-12.7v0.2v0.2h4.6v-0.4H0.5z"/>
				</g>
				<g id="g258" transform="translate(29.3088,109.0482)">
					<path id="path260" class="st12" d="M0.6-12.6l0.4,0v-2.8h-4.6v2.7l0.4,0V-15h1.6v2h0.3v-2h1.8L0.6-12.6z"/>
				</g>
				<g id="g262" transform="translate(29.6808,112.9184)">
					<path id="path264" class="st12" d="M0.6-12.5L-3-14.9l-0.4-0.3l0,0l0.5,0h3.5v-0.4H-4v0.4l3.5,2.3l0.4,0.3l0,0l-0.5,0l-3.4,0
						v0.4h4.6V-12.5z"/>
				</g>
				<g id="g266" transform="translate(25.6921,117.162)">
					<path id="path268" class="st12" d="M0.5-12.4c-0.1-0.3-0.2-0.6-0.2-1c0-1,0.5-1.5,1.9-1.5c1.6,0,2,0.5,2,1.6
						c0,0.4-0.1,0.7-0.2,1l0.3,0.1c0.1-0.3,0.3-0.7,0.3-1.1c0-1.3-0.7-1.9-2.4-1.9c-1.6,0-2.3,0.6-2.3,1.9c0,0.4,0.1,0.8,0.2,1.1
						L0.5-12.4z"/>
				</g>
				<g id="g270" transform="translate(29.3088,120.978)">
					<path id="path272" class="st12" d="M0.6-12.4l0.4,0v-2.8h-4.6v2.7l0.4,0v-2.3h1.6v2h0.3v-2h1.8L0.6-12.4z"/>
				</g>
				<g id="g274" transform="translate(29.7658,123.0742)">
					<path id="path276" class="st12" d="M0.6-12.3c0-0.5-0.1-1-0.4-1.3l-0.4,0.1c0.2,0.4,0.4,0.7,0.4,1.2c0,0.7-0.4,1.1-0.9,1.1
						c-1.2,0-0.7-2.4-2.2-2.4c-0.7,0-1.2,0.4-1.2,1.4c0,0.4,0.1,0.8,0.2,1.2l0.4-0.1c-0.1-0.3-0.2-0.7-0.2-1.1
						c0-0.8,0.4-1.1,0.8-1.1c1.2,0,0.6,2.4,2.2,2.4C0.1-10.8,0.6-11.3,0.6-12.3"/>
				</g>
				<g id="g278" transform="translate(19.1457,23.3167)">
					<path id="path280" class="st12" d="M0.4-14.2h1.2v1.8l0.7,0v-1.7h1.9V-15h-4.6v2.9l0.8,0V-14.2z"/>
				</g>
				<g id="g282" transform="translate(22.8766,28.7747)">
					<path id="path284" class="st12" d="M0.5-14.1h-2v-1.9h2v-0.8h-4.6v0.8h1.8v1.9h-1.8v0.8h4.6V-14.1z"/>
				</g>
				<g id="g286" transform="translate(21.9113,34.8407)">
					<path id="path288" class="st12" d="M0.4-14v-1.8l1-0.3V-17l-4.6,1.6v1l4.6,1.6v-0.9L0.4-14z M-2.1-15l1.8-0.6v1.4l-1.8-0.5
						l-0.5-0.1v0C-2.5-14.9-2.1-15-2.1-15z"/>
				</g>
				<g id="g290" transform="translate(21.9113,39.3113)">
					<path id="path292" class="st12" d="M0.4-13.9v-1.8l1-0.3v-0.9l-4.6,1.6v1l4.6,1.6v-0.9L0.4-13.9z M-2.1-14.9l1.8-0.6v1.4
						l-1.8-0.5l-0.5-0.1v0C-2.5-14.8-2.1-14.9-2.1-14.9z"/>
				</g>
				<g id="g294" transform="translate(19.2234,43.8487)">
					<path id="path296" class="st12" d="M0.4-13.8c-0.1-0.2-0.2-0.6-0.2-0.9c0-0.9,0.4-1.2,1.6-1.2c1.3,0,1.6,0.3,1.6,1.2
						c0,0.4-0.1,0.7-0.2,0.9l0.7,0.1c0.1-0.3,0.3-0.7,0.3-1.1c0-1.4-0.8-2-2.4-2c-1.6,0-2.3,0.6-2.3,2.1c0,0.4,0.1,0.8,0.2,1.1
						L0.4-13.8z"/>
				</g>
				<g id="g298" transform="translate(22.8766,47.3775)">
					<path id="path300" class="st12" d="M0.5-13.7h-2v-1.9h2v-0.8h-4.6v0.8h1.8v1.9h-1.8v0.8l4.6,0V-13.7z"/>
				</g>
				<g id="g302" transform="translate(22.1384,52.2086)">
					<path id="path304" class="st12" d="M0.4-13.6l0.8,0v-3h-4.6v2.9l0.8,0v-2.1h1.1v1.8h0.7v-1.8h1.3L0.4-13.6z"/>
				</g>
				<g id="g306" transform="translate(22.8766,55.9234)">
					<path id="path308" class="st12" d="M0.5-13.6l-2.8-2l-0.4-0.3l0,0l0.5,0h2.7v-0.8h-4.6v0.7l2.7,1.8l0.4,0.3l0,0l-0.5,0h-2.6
						v0.7h4.6V-13.6z"/>
				</g>
			</g>
		</g>
	</g>
</g>
</svg>
