<?xml version="1.0" encoding="utf-8"?>
<!-- Generator: Adobe Illustrator 23.0.1, SVG Export Plug-In . SVG Version: 6.00 Build 0)  -->
<svg version="1.0" id="Layer_1" xmlns="http://www.w3.org/2000/svg" xmlns:xlink="http://www.w3.org/1999/xlink" x="0px" y="0px"
	 viewBox="0 0 32 32" style="enable-background:new 0 0 32 32;" xml:space="preserve">
<style type="text/css">
	.st0{fill:#4A668B;stroke:#282828;stroke-miterlimit:10;}
</style>
<path class="st0" d="M16,3.5C9.1,3.5,3.5,9.1,3.5,16S9.1,28.5,16,28.5S28.5,22.9,28.5,16S22.9,3.5,16,3.5z M12,20
	c-1.3,2.3-1.4,1.9-1.8,0.5c-0.5-1.8-2.4-4.3-1.5-5.4c1-1.1,4.3-1.3,4.1,0.8C12.7,18.3,12.8,18.7,12,20z M19.2,19.7
	c0-4.6-4.6-4.6-4.6-6.9s2.3,0,4.6-2.3c1.6-1.6,4.6,2.3,4.6,4.6S19.2,22,19.2,19.7z"/>
</svg>
