<?xml version="1.0" encoding="utf-8"?>
<!-- Generator: Adobe Illustrator 23.0.1, SVG Export Plug-In . SVG Version: 6.00 Build 0)  -->
<svg version="1.1" id="Ebene_1" xmlns="http://www.w3.org/2000/svg" xmlns:xlink="http://www.w3.org/1999/xlink" x="0px" y="0px"
	 viewBox="0 0 1000 972.8" style="enable-background:new 0 0 1000 972.8;" xml:space="preserve">
<style type="text/css">
	.st0{fill:#E7B142;}
	.st1{fill:#DC911B;}
</style>
<g>
	<path class="st0" d="M370.4,300.6c0,11.7-9.5,21.2-21.2,21.2c-11.7,0-21.2-9.5-21.2-21.2s9.5-21.2,21.2-21.2
		C360.9,279.5,370.4,288.9,370.4,300.6z"/>
	<path class="st0" d="M364.6,228.4c1.7,9.5-6.1,18.9-17.6,21.1c-11.5,2.2-22.2-3.7-24-13.2c-1.7-9.5,6.1-18.9,17.5-21.1
		C352,212.9,362.8,218.9,364.6,228.4z"/>
	<path class="st0" d="M314.7,286.8c-2.3,10.8-12.3,17.9-22.5,15.8c-10.2-2.1-16.6-12.5-14.5-23.3c2.3-10.8,12.3-17.9,22.5-15.8
		C310.5,265.5,316.9,276,314.7,286.8z"/>
	<path class="st1" d="M305.3,228.4c-7.4,8.8-18.8,11.4-25.4,5.8s-5.9-17.2,1.6-26c7.5-8.8,18.8-11.4,25.4-5.7
		C313.5,208,312.8,219.7,305.3,228.4z"/>
	<path class="st0" d="M350,190.7c-10.8,2-20.6-1.9-21.9-8.9c-1.2-6.9,6.5-14,17.3-16c10.9-2,20.6,2,21.9,8.9S360.9,188.8,350,190.7z
		"/>
	<path class="st1" d="M362.6,151c-10.4,0.2-19-2.6-19.1-6.2c-0.1-3.7,8.4-6.7,18.8-7c10.4-0.2,19,2.5,19.1,6.2
		C381.5,147.7,373,150.8,362.6,151z"/>
	<path class="st0" d="M391,135c-10.4-1-18.8-2.9-18.6-4.1c0.1-1.2,8.7-1.5,19.1-0.4c10.4,1,18.7,2.9,18.6,4.2
		C409.9,135.9,401.3,136,391,135z"/>
	<path class="st0" d="M327.3,141.2c-10.2,2.4-18.9,2.4-19.4,0.3c-0.4-2.1,7.4-5.7,17.6-8c10.2-2.3,18.9-2.4,19.3-0.3
		C345.4,135.2,337.6,138.8,327.3,141.2z"/>
	<path class="st0" d="M307.6,176.5c-9.1,5.1-18.6,5.4-21.2,0.9c-2.5-4.6,2.9-12.4,12-17.4c9.1-5.1,18.6-5.4,21.2-0.9
		C322.2,163.6,316.8,171.4,307.6,176.5z"/>
	<path class="st0" d="M250.6,210.2c-7.2,8.7-16.2,13.1-20,9.9c-3.8-3.2-1.1-12.8,6.1-21.5s16.1-13.1,19.9-9.9
		C260.5,191.9,257.7,201.6,250.6,210.2z"/>
	<path class="st0" d="M251.4,264.1c-3.6,10.7-11.7,17.6-18,15.5c-6.4-2.2-8.6-12.5-5.1-23.3c3.6-10.7,11.7-17.6,18-15.5
		C252.7,243.1,254.9,253.5,251.4,264.1z"/>
	<path class="st1" d="M261,322.1c-0.9,10.3-7.4,18.2-14.5,17.6c-7.1-0.6-12.3-9.5-11.4-19.8c0.9-10.4,7.4-18.2,14.6-17.6
		C256.9,302.9,261.9,311.8,261,322.1z"/>
	<path class="st0" d="M225.5,319.4c-0.9,10.3-5.6,18.4-10.4,17.9c-4.9-0.4-8.1-9.1-7.2-19.4c0.9-10.3,5.6-18.4,10.4-17.9
		C223.2,300.4,226.4,309.1,225.5,319.4z"/>
	<path class="st1" d="M216.6,264.9c-2.4,10.1-7.7,17.4-11.5,16.5c-3.8-1-5-9.8-2.4-19.9c2.4-10,7.7-17.4,11.5-16.5
		C218,245.9,219.2,254.8,216.6,264.9z"/>
	<path class="st0" d="M198.2,321.6c0.4,10.4-0.7,18.8-2.6,18.9c-1.8,0.1-3.7-8.3-4.1-18.6s0.7-18.8,2.5-18.9
		C195.8,302.9,197.6,311.2,198.2,321.6z"/>
	<path class="st0" d="M196.1,271.8c-1.4,10.3-3.1,18.5-3.8,18.4c-0.8-0.1-0.2-8.5,1.2-18.7c1.4-10.3,3.1-18.5,3.9-18.4
		C198.1,253.1,197.5,261.5,196.1,271.8z"/>
	<path class="st0" d="M219.3,215.1c-5.5,9.2-11.1,16-12.6,15.2c-1.5-0.9,1.7-9.1,7.2-18.4c5.5-9.2,11.1-16,12.6-15.2
		S224.8,205.9,219.3,215.1z"/>
	<path class="st0" d="M265.1,166.2c-8.8,6.2-16.7,10-17.7,8.6c-1-1.4,5.3-7.6,14.1-13.8c8.8-6.2,16.7-10,17.7-8.6
		C280.3,154,273.9,160.1,265.1,166.2z"/>
	<path class="st0" d="M211.3,367.6c1.8,9.1,2,16.7,0.3,17.1c-1.7,0.3-4.5-6.8-6.4-15.8c-1.8-9.1-2-16.7-0.3-17.1
		C206.6,351.4,209.5,358.4,211.3,367.6z"/>
</g>
</svg>
