<?xml version="1.0" encoding="utf-8"?>
<!-- Generator: Adobe Illustrator 23.0.1, SVG Export Plug-In . SVG Version: 6.00 Build 0)  -->
<svg version="1.1" id="Ebene_1" xmlns="http://www.w3.org/2000/svg" xmlns:xlink="http://www.w3.org/1999/xlink" x="0px" y="0px"
	 viewBox="0 0 286 122" style="enable-background:new 0 0 286 122;" xml:space="preserve">
<style type="text/css">
	.st0{fill:#E7B142;}
	.st1{fill:#DC911B;}
</style>
<g>
	<path d="M90.8,37.9c0.8-0.2,1.8-0.2,2.8-0.2c1.8,0,3.1,0.4,4,1.2c1,0.8,1.7,2.2,1.7,4.2c0,2.1-0.7,3.6-1.6,4.5
		c-1,0.9-2.5,1.4-4.5,1.4c-1,0-1.8-0.1-2.4-0.1L90.8,37.9L90.8,37.9z M92.7,47.3c0.2,0,0.6,0,0.9,0c2.2,0,3.6-1.3,3.6-4.3
		c0-2.5-1.2-3.9-3.4-3.9c-0.5,0-0.9,0-1.1,0.1C92.7,39.3,92.7,47.3,92.7,47.3z"/>
	<path d="M103.7,37.7v11h-1.9v-11H103.7z"/>
	<path d="M114.6,48.4c-0.6,0.2-1.9,0.5-3.1,0.5c-1.6,0-2.9-0.4-3.9-1.4c-1-0.9-1.5-2.4-1.5-4.2c0-3.7,2.4-5.7,5.7-5.7
		c1.2,0,2.1,0.2,2.6,0.5l-0.4,1.6c-0.5-0.2-1.1-0.4-2.1-0.4c-2.1,0-3.6,1.3-3.6,4c0,2.7,1.4,4,3.4,4c0.6,0,1-0.1,1.2-0.2v-2.9h-1.7
		v-1.5h3.6L114.6,48.4L114.6,48.4z"/>
	<path d="M119.3,37.7v11h-1.9v-11H119.3z"/>
	<path d="M124.2,39.4h-2.8v-1.7h7.5v1.7h-2.8v9.4h-1.9L124.2,39.4L124.2,39.4z"/>
	<path d="M132,45.7l-0.8,3h-2l3.2-11h2.4l3.2,11h-2l-0.9-3H132z M134.9,44.3l-0.8-2.7c-0.2-0.7-0.4-1.5-0.5-2.2h-0.1
		c-0.1,0.7-0.3,1.5-0.5,2.2l-0.7,2.7C132.3,44.3,134.9,44.3,134.9,44.3z"/>
	<path d="M140.3,37.7h1.9v9.4h4.1v1.6h-6V37.7z"/>
	<path d="M154.2,43.9h-3.7v3.3h4.1v1.6h-6.1v-11h5.9v1.6h-3.9v2.9h3.7L154.2,43.9L154.2,43.9z"/>
	<path d="M157.1,37.9c0.7-0.1,1.7-0.2,2.8-0.2c1.5,0,2.5,0.3,3.2,0.9c0.6,0.5,0.9,1.3,0.9,2.2c0,1.4-0.9,2.4-1.9,2.8v0
		c0.8,0.3,1.2,1,1.5,2.2c0.3,1.4,0.6,2.6,0.8,3h-2c-0.2-0.3-0.4-1.3-0.7-2.6c-0.3-1.4-0.8-1.9-1.9-1.9h-0.8v4.6h-1.9L157.1,37.9
		L157.1,37.9z M159.1,42.8h1c1.3,0,2.1-0.8,2.1-1.8c0-1.2-0.7-1.8-2-1.8c-0.5,0-0.9,0-1.1,0.1V42.8z"/>
	<path d="M92.4,65.2l-2.5-11h2l1,4.9c0.2,1.3,0.5,2.7,0.6,3.9h0.1c0.2-1.2,0.4-2.5,0.8-3.9l1.1-4.9h1.9l1,5c0.3,1.3,0.5,2.5,0.7,3.8
		h0c0.2-1.3,0.4-2.6,0.7-3.9l1-4.9h2l-2.7,11h-2l-1-5c-0.3-1.2-0.5-2.3-0.6-3.5h0c-0.2,1.2-0.4,2.3-0.7,3.6l-1.2,4.9L92.4,65.2
		L92.4,65.2z"/>
	<path d="M110.5,60.2h-3.7v3.3h4.1v1.6h-6.1v-11h5.8v1.6h-3.9v2.9h3.7L110.5,60.2L110.5,60.2z"/>
	<path d="M115.4,54.1v11h-1.9v-11H115.4z"/>
	<path d="M120.2,55.8h-2.8v-1.7h7.5v1.7h-2.8v9.4h-1.9V55.8z"/>
	<path d="M132.7,60.2H129v3.3h4.1v1.6h-6.1v-11h5.9v1.6H129v2.9h3.7L132.7,60.2L132.7,60.2z"/>
	<path d="M135.6,54.3c0.7-0.1,1.7-0.2,2.8-0.2c1.5,0,2.5,0.2,3.2,0.9c0.6,0.5,0.9,1.3,0.9,2.2c0,1.4-0.9,2.4-1.9,2.8v0
		c0.8,0.3,1.2,1,1.5,2.2c0.3,1.4,0.6,2.6,0.8,3h-2c-0.2-0.3-0.4-1.3-0.7-2.6c-0.3-1.4-0.8-1.9-1.9-1.9h-0.8v4.6h-1.9L135.6,54.3
		L135.6,54.3z M137.5,59.2h1c1.3,0,2.1-0.8,2.1-1.9c0-1.2-0.7-1.8-2-1.8c-0.5,0-0.9,0.1-1.1,0.1L137.5,59.2L137.5,59.2z"/>
	<path d="M145.1,54.3c0.6-0.1,1.7-0.2,2.7-0.2c1.4,0,2.3,0.2,3,0.7c0.6,0.5,1,1.2,1,2.1c0,1-0.6,1.9-1.8,2.4v0.1
		c1.2,0.3,2.2,1.3,2.2,2.7c0,1-0.4,1.7-1,2.3c-0.7,0.7-2,1-3.9,1c-1,0-1.8-0.1-2.3-0.1L145.1,54.3L145.1,54.3z M147.1,58.7h0.9
		c1.2,0,2-0.7,2-1.6c0-1-0.7-1.5-1.9-1.5c-0.5,0-0.8,0-1,0.1L147.1,58.7L147.1,58.7z M147.1,63.7c0.2,0,0.5,0,0.9,0
		c1.2,0,2.3-0.5,2.3-1.9c0-1.3-1.1-1.9-2.3-1.9h-0.9L147.1,63.7L147.1,63.7z"/>
	<path d="M156.7,54.1v11h-1.9v-11H156.7z"/>
	<path d="M159.8,54.1h1.9v9.4h4.1v1.6h-6V54.1z"/>
	<path d="M168,54.3c0.8-0.1,1.8-0.2,2.8-0.2c1.9,0,3.1,0.4,4,1.2c1,0.9,1.7,2.2,1.7,4.2c0,2.1-0.7,3.6-1.6,4.5
		c-1,0.9-2.5,1.4-4.5,1.4c-1,0-1.8-0.1-2.4-0.2L168,54.3L168,54.3z M169.9,63.7c0.2,0.1,0.6,0.1,0.9,0.1c2.2,0,3.6-1.3,3.6-4.3
		c0-2.5-1.2-3.9-3.4-3.9c-0.5,0-0.9,0-1.1,0.1V63.7z"/>
	<path d="M180.9,54.1v6.7c0,2.1,0.8,2.9,2,2.9c1.2,0,2-0.9,2-2.9v-6.7h1.9v6.5c0,3.2-1.6,4.7-4,4.7c-2.4,0-3.8-1.4-3.8-4.7v-6.6
		H180.9z"/>
	<path d="M189.8,65.2v-11h2.1l2.6,4.7c0.6,1.1,1.2,2.5,1.7,3.6h0c-0.1-1.5-0.2-3-0.2-4.7v-3.6h1.8v11h-1.9l-2.6-4.8
		c-0.6-1.2-1.3-2.5-1.8-3.7l-0.1,0c0.1,1.4,0.1,2.9,0.1,4.8v3.7H189.8z"/>
	<path d="M208.7,64.7c-0.6,0.2-1.9,0.5-3.1,0.5c-1.6,0-2.9-0.4-3.9-1.4c-1-0.9-1.5-2.4-1.5-4.2c0-3.7,2.4-5.7,5.6-5.7
		c1.2,0,2.1,0.2,2.6,0.5l-0.4,1.6c-0.5-0.2-1.1-0.4-2.1-0.4c-2.1,0-3.6,1.3-3.6,4c0,2.7,1.4,4,3.4,4c0.6,0,1-0.1,1.2-0.2v-2.9h-1.7
		v-1.5h3.6L208.7,64.7L208.7,64.7z"/>
	<path d="M211.4,63.1c0.6,0.3,1.5,0.6,2.4,0.6c1.2,0,1.9-0.6,1.9-1.5c0-0.9-0.6-1.3-1.8-1.9c-1.6-0.7-2.7-1.7-2.7-3.2
		c0-1.8,1.4-3.1,3.7-3.1c1,0,1.9,0.2,2.3,0.5l-0.4,1.6c-0.4-0.2-1-0.5-1.9-0.5c-1.2,0-1.7,0.7-1.7,1.3c0,0.9,0.6,1.2,1.9,1.9
		c1.8,0.8,2.6,1.8,2.6,3.2c0,1.8-1.4,3.3-3.9,3.3c-1.1,0-2.2-0.3-2.7-0.6L211.4,63.1z"/>
	<path d="M227.2,64.9c-0.4,0.2-1.3,0.4-2.5,0.4c-3.2,0-5.1-2.2-5.1-5.5c0-3.8,2.5-5.8,5.4-5.8c1.1,0,1.9,0.2,2.3,0.4l-0.4,1.6
		c-0.4-0.2-1-0.4-1.8-0.4c-1.9,0-3.4,1.3-3.4,4.1c0,2.6,1.3,4,3.4,4c0.7,0,1.4-0.1,1.9-0.3L227.2,64.9z"/>
	<path d="M231.7,62.1l-0.8,3h-2l3.2-11h2.4l3.2,11h-2l-0.9-3H231.7z M234.5,60.6l-0.8-2.7c-0.2-0.7-0.4-1.5-0.5-2.2h0
		c-0.1,0.7-0.3,1.5-0.5,2.2l-0.7,2.7H234.5z"/>
	<path d="M248.5,60.7c-0.1-1.4-0.1-3-0.1-4.4h0c-0.3,1.3-0.7,2.8-1.1,4l-1.5,4.7h-1.4l-1.3-4.6c-0.4-1.3-0.8-2.8-1-4.1h0
		c-0.1,1.4-0.1,3.1-0.2,4.5l-0.2,4.4h-1.8l0.7-11h2.4l1.3,4.4c0.4,1.3,0.7,2.6,1,3.9h0c0.3-1.2,0.6-2.5,1-3.9l1.4-4.4h2.4l0.6,11
		h-1.9L248.5,60.7z"/>
	<path d="M253.3,54.3c0.7-0.1,1.6-0.2,2.8-0.2c1.4,0,2.4,0.3,3.1,0.9c0.6,0.5,1,1.4,1,2.4c0,1.1-0.3,1.9-0.9,2.5
		c-0.8,0.8-2,1.2-3.3,1.2c-0.3,0-0.6,0-0.8-0.1v4.2h-1.9L253.3,54.3L253.3,54.3z M255.2,59.4c0.2,0.1,0.5,0.1,0.8,0.1
		c1.4,0,2.2-0.8,2.2-2.1c0-1.2-0.7-1.9-2.1-1.9c-0.5,0-0.8,0-1,0.1V59.4z"/>
	<path d="M264.5,54.1v6.7c0,2.1,0.8,2.9,2,2.9c1.2,0,2-0.9,2-2.9v-6.7h1.9v6.5c0,3.2-1.6,4.7-4,4.7c-2.4,0-3.8-1.4-3.8-4.7v-6.6
		H264.5z"/>
	<path d="M273.3,63.1c0.6,0.3,1.5,0.6,2.4,0.6c1.2,0,1.9-0.6,1.9-1.5c0-0.9-0.6-1.3-1.8-1.9c-1.6-0.7-2.7-1.7-2.7-3.2
		c0-1.8,1.4-3.1,3.7-3.1c1,0,1.9,0.2,2.3,0.5l-0.4,1.6c-0.4-0.2-1-0.5-2-0.5c-1.2,0-1.7,0.7-1.7,1.3c0,0.9,0.6,1.2,2,1.9
		c1.8,0.8,2.6,1.8,2.6,3.2c0,1.8-1.4,3.3-3.9,3.3c-1.1,0-2.2-0.3-2.7-0.6L273.3,63.1z"/>
	<path d="M90.5,74.2c0.5-0.1,1.2-0.2,1.9-0.2c1.1,0,1.8,0.2,2.3,0.6c0.4,0.4,0.7,0.9,0.7,1.6c0,0.9-0.6,1.6-1.5,2v0
		c0.9,0.2,1.8,1,1.8,2.2c0,0.8-0.3,1.4-0.7,1.8c-0.6,0.6-1.5,0.8-2.9,0.8c-0.8,0-1.3-0.1-1.7-0.1L90.5,74.2L90.5,74.2z M91.6,77.9
		h0.9c1.1,0,1.8-0.7,1.8-1.5c0-1-0.7-1.5-1.8-1.5c-0.4,0-0.7,0-0.9,0.1L91.6,77.9L91.6,77.9z M91.6,82.2c0.2,0,0.5,0.1,0.8,0.1
		c1.2,0,2.1-0.5,2.1-1.8c0-1.2-1-1.7-2.2-1.7h-0.8V82.2z"/>
	<path d="M99.9,80.3L99,83h-1.1l2.7-8.9h1.3l2.7,8.9h-1.2l-0.9-2.8H99.9z M102.5,79.4l-0.8-2.5c-0.2-0.6-0.3-1.2-0.4-1.8h0
		c-0.1,0.6-0.3,1.2-0.4,1.7l-0.8,2.5H102.5z"/>
	<path d="M107.3,74.2c0.6-0.1,1.3-0.2,2.1-0.2c1.4,0,2.5,0.3,3.2,1c0.8,0.7,1.2,1.8,1.2,3.3c0,1.6-0.5,2.8-1.2,3.6
		c-0.8,0.8-2,1.2-3.5,1.2c-0.7,0-1.3,0-1.8-0.1C107.3,83,107.3,74.2,107.3,74.2z M108.4,82.1c0.3,0,0.6,0,0.9,0
		c2.1,0,3.3-1.2,3.3-3.8c0-2.2-1-3.5-3.2-3.5c-0.5,0-0.8,0-1.1,0.1V82.1z"/>
	<path d="M120.8,78.8h-3.1v3.3h3.5V83h-4.6v-8.9h4.4V75h-3.3v2.9h3.1C120.8,77.9,120.8,78.8,120.8,78.8z"/>
	<path d="M123.8,83v-8.9h1.2l2.5,4.4c0.6,1,1.1,2.1,1.5,3h0c-0.1-1.3-0.1-2.4-0.1-3.8v-3.6h1V83h-1.1l-2.5-4.5c-0.5-1-1.1-2-1.5-3
		l0,0c0.1,1.2,0.1,2.2,0.1,3.8V83H123.8z"/>
	<path d="M135.8,78.1v0.8h-3.2v-0.8H135.8z"/>
	<path d="M139.8,83l-2.1-8.9h1.2l1,4.5c0.2,1.1,0.4,2.2,0.6,3.1h0c0.1-1,0.4-2,0.7-3.1l1.1-4.4h1.1l1,4.4c0.2,1.1,0.5,2.1,0.6,3.1h0
		c0.2-1.1,0.4-2.1,0.6-3.1l1-4.4h1.1l-2.3,8.9h-1.1l-1.1-4.6c-0.2-1.1-0.4-2-0.6-2.9h0c-0.1,0.9-0.3,1.8-0.6,2.9l-1.2,4.6L139.8,83
		L139.8,83z"/>
	<path d="M151.3,74.1v5.5c0,1.9,0.8,2.6,1.8,2.6c1.2,0,1.9-0.8,1.9-2.6v-5.5h1.1v5.4c0,2.6-1.3,3.7-3.1,3.7c-1.7,0-2.9-1-2.9-3.6
		v-5.5H151.3z M151.4,72.8c0-0.4,0.3-0.6,0.6-0.6c0.4,0,0.6,0.3,0.6,0.6c0,0.4-0.2,0.7-0.6,0.7C151.6,73.4,151.4,73.1,151.4,72.8z
		 M153.8,72.8c0-0.4,0.3-0.6,0.6-0.6c0.4,0,0.6,0.3,0.6,0.6c0,0.4-0.2,0.7-0.6,0.7C154,73.4,153.8,73.1,153.8,72.8z"/>
	<path d="M159.4,74.2c0.5-0.1,1.3-0.2,2-0.2c1.1,0,1.9,0.2,2.4,0.7c0.4,0.4,0.7,1,0.7,1.7c0,1.2-0.7,1.9-1.6,2.3v0
		c0.7,0.2,1.1,0.9,1.3,1.9c0.3,1.2,0.5,2.1,0.6,2.4h-1.2c-0.1-0.3-0.3-1-0.6-2.2c-0.2-1.2-0.7-1.7-1.7-1.7h-0.9V83h-1.1V74.2z
		 M160.5,78.3h1c1.2,0,1.9-0.7,1.9-1.7c0-1.1-0.7-1.7-1.9-1.7c-0.5,0-0.8,0-1,0.1V78.3z"/>
	<path d="M168.9,75h-2.4v-1h5.9v1H170v8h-1.1L168.9,75L168.9,75z"/>
	<path d="M176.6,75h-2.4v-1h5.9v1h-2.4v8h-1.1L176.6,75L176.6,75z"/>
	<path d="M186.7,78.8h-3.1v3.3h3.5V83h-4.6v-8.9h4.4V75h-3.3v2.9h3.1V78.8z"/>
	<path d="M196.7,79.1c-0.1-1.2-0.1-2.7-0.1-3.8h0c-0.3,1-0.6,2.1-1,3.3l-1.4,4.3h-0.8l-1.3-4.2c-0.4-1.2-0.7-2.4-0.9-3.4h0
		c0,1.1-0.1,2.5-0.2,3.8l-0.2,3.8h-1.1l0.6-8.9h1.4l1.4,4.3c0.3,1.1,0.6,2.1,0.9,3h0c0.2-0.9,0.5-1.9,0.9-3l1.4-4.3h1.4L198,83h-1.1
		L196.7,79.1z"/>
	<path d="M200.9,74.2c0.5-0.1,1.2-0.2,1.9-0.2c1.1,0,1.8,0.2,2.3,0.6c0.4,0.4,0.7,0.9,0.7,1.6c0,0.9-0.6,1.6-1.5,2v0
		c0.9,0.2,1.8,1,1.8,2.2c0,0.8-0.3,1.4-0.7,1.8c-0.6,0.6-1.5,0.8-2.9,0.8c-0.8,0-1.3-0.1-1.7-0.1L200.9,74.2L200.9,74.2z
		 M202.1,77.9h0.9c1.1,0,1.8-0.7,1.8-1.5c0-1-0.7-1.5-1.8-1.5c-0.5,0-0.7,0-0.9,0.1L202.1,77.9L202.1,77.9z M202.1,82.2
		c0.2,0,0.5,0.1,0.8,0.1c1.2,0,2.1-0.5,2.1-1.8c0-1.2-1-1.7-2.2-1.7h-0.8L202.1,82.2L202.1,82.2z"/>
	<path d="M213.2,78.8h-3.1v3.3h3.5V83H209v-8.9h4.4V75h-3.3v2.9h3.1L213.2,78.8L213.2,78.8z"/>
	<path d="M216.3,74.2c0.5-0.1,1.3-0.2,2-0.2c1.1,0,1.9,0.2,2.4,0.7c0.4,0.4,0.7,1,0.7,1.7c0,1.2-0.7,1.9-1.6,2.3v0
		c0.7,0.2,1.1,0.9,1.3,1.9c0.3,1.2,0.5,2.1,0.6,2.4h-1.2c-0.1-0.3-0.3-1-0.6-2.2c-0.2-1.2-0.7-1.7-1.7-1.7h-0.9V83h-1.1L216.3,74.2
		L216.3,74.2z M217.4,78.3h1c1.2,0,1.9-0.7,1.9-1.7c0-1.1-0.7-1.7-1.9-1.7c-0.5,0-0.8,0-1,0.1V78.3z"/>
	<path d="M230.3,82.7c-0.5,0.2-1.4,0.4-2.4,0.4c-1.2,0-2.2-0.3-3-1.1c-0.7-0.7-1.2-1.9-1.2-3.4c0-2.9,1.8-4.6,4.4-4.6
		c0.9,0,1.6,0.2,2,0.4l-0.3,0.9c-0.4-0.2-0.9-0.3-1.7-0.3c-1.9,0-3.2,1.2-3.2,3.6c0,2.4,1.3,3.6,3.1,3.6c0.6,0,1.1-0.1,1.3-0.2v-2.7
		h-1.6v-0.9h2.7V82.7z"/>
</g>
<g>
	<path class="st0" d="M70.8,76c0,4.2-3.4,7.5-7.5,7.5c-4.2,0-7.5-3.4-7.5-7.5c0-4.2,3.4-7.5,7.5-7.5C67.4,68.4,70.8,71.8,70.8,76z"
		/>
	<path class="st0" d="M68.7,50.2c0.6,3.4-2.2,6.8-6.3,7.5c-4.1,0.8-7.9-1.3-8.6-4.7c-0.6-3.4,2.2-6.8,6.3-7.5
		C64.2,44.7,68.1,46.8,68.7,50.2z"/>
	<path class="st0" d="M50.9,71c-0.8,3.9-4.4,6.4-8,5.6c-3.6-0.7-5.9-4.5-5.1-8.3c0.8-3.9,4.4-6.4,8-5.6C49.4,63.4,51.7,67.2,50.9,71
		z"/>
	<path class="st1" d="M47.5,50.2c-2.7,3.1-6.7,4.1-9.1,2.1c-2.3-2-2.1-6.2,0.6-9.3c2.7-3.1,6.7-4.1,9.1-2.1
		C50.4,42.9,50.2,47.1,47.5,50.2z"/>
	<path class="st0" d="M63.5,36.8c-3.9,0.7-7.4-0.7-7.8-3.2c-0.4-2.5,2.3-5,6.2-5.7c3.9-0.7,7.4,0.7,7.8,3.2
		C70.1,33.5,67.4,36.1,63.5,36.8z"/>
	<path class="st1" d="M68,22.6c-3.7,0.1-6.8-0.9-6.8-2.2c0-1.3,3-2.4,6.7-2.5c3.7-0.1,6.8,0.9,6.8,2.2C74.7,21.4,71.7,22.5,68,22.6z
		"/>
	<path class="st0" d="M78.1,16.9c-3.7-0.4-6.7-1-6.7-1.5c0-0.4,3.1-0.5,6.8-0.1c3.7,0.4,6.7,1,6.7,1.5
		C84.9,17.2,81.8,17.2,78.1,16.9z"/>
	<path class="st0" d="M55.4,19.1c-3.6,0.8-6.7,0.9-6.9,0.1c-0.2-0.8,2.7-2,6.3-2.9c3.6-0.8,6.7-0.9,6.9-0.1
		C61.9,16.9,59,18.2,55.4,19.1z"/>
	<path class="st0" d="M48.3,31.7c-3.3,1.8-6.7,1.9-7.6,0.3c-0.9-1.6,1-4.4,4.3-6.2c3.3-1.8,6.7-1.9,7.6-0.3
		C53.5,27.1,51.6,29.8,48.3,31.7z"/>
	<path class="st0" d="M28,43.7c-2.6,3.1-5.8,4.7-7.1,3.6c-1.4-1.1-0.4-4.6,2.2-7.7c2.6-3.1,5.8-4.7,7.1-3.5
		C31.5,37.2,30.6,40.6,28,43.7z"/>
	<path class="st0" d="M28.3,63c-1.3,3.8-4.2,6.3-6.4,5.5c-2.3-0.8-3.1-4.5-1.8-8.3c1.3-3.8,4.2-6.3,6.4-5.5
		C28.8,55.4,29.5,59.1,28.3,63z"/>
	<path class="st1" d="M31.7,83.6c-0.3,3.7-2.6,6.5-5.2,6.3c-2.6-0.2-4.4-3.4-4.1-7.1c0.3-3.7,2.7-6.5,5.2-6.3
		C30.2,76.8,32,80,31.7,83.6z"/>
	<path class="st0" d="M19,82.7c-0.3,3.7-2,6.6-3.7,6.4c-1.7-0.1-2.9-3.3-2.6-6.9c0.3-3.7,2-6.5,3.7-6.4C18.2,75.9,19.3,79,19,82.7z"
		/>
	<path class="st1" d="M15.9,63.2c-0.9,3.6-2.7,6.2-4.1,5.9c-1.4-0.3-1.8-3.5-0.9-7.1c0.9-3.6,2.7-6.2,4.1-5.9
		C16.4,56.4,16.8,59.6,15.9,63.2z"/>
	<path class="st0" d="M9.3,83.5c0.2,3.7-0.3,6.7-0.9,6.7c-0.7,0-1.3-2.9-1.5-6.6c-0.2-3.7,0.2-6.7,0.9-6.7
		C8.4,76.8,9.1,79.8,9.3,83.5z"/>
	<path class="st0" d="M8.5,65.7c-0.5,3.7-1.1,6.6-1.4,6.6c-0.3,0-0.1-3,0.4-6.7C8.1,61.9,8.7,58.9,9,59C9.2,59,9,62,8.5,65.7z"/>
	<path class="st0" d="M16.8,45.4c-1.9,3.3-4,5.7-4.5,5.4c-0.5-0.3,0.6-3.2,2.6-6.6c2-3.3,4-5.7,4.5-5.4C20,39.2,18.8,42.1,16.8,45.4
		z"/>
	<path class="st0" d="M33.2,28c-3.1,2.2-6,3.6-6.3,3.1c-0.4-0.5,1.9-2.7,5-4.9c3.1-2.2,6-3.6,6.3-3.1C38.6,23.6,36.3,25.8,33.2,28z"
		/>
	<path class="st0" d="M14,99.9c0.7,3.2,0.7,6,0.1,6.1c-0.6,0.1-1.6-2.4-2.3-5.7c-0.7-3.2-0.7-6-0.1-6.1C12.3,94.1,13.3,96.6,14,99.9
		z"/>
</g>
</svg>
