<?xml version="1.0" encoding="utf-8"?>
<!-- Generator: Adobe Illustrator 23.0.1, SVG Export Plug-In . SVG Version: 6.00 Build 0)  -->
<svg version="1.1" id="Layer_1" xmlns="http://www.w3.org/2000/svg" xmlns:xlink="http://www.w3.org/1999/xlink" x="0px" y="0px"
	 viewBox="0 0 32 32" style="enable-background:new 0 0 32 32;" xml:space="preserve">
<style type="text/css">
	.st0{fill:#00B5AD;}
	.st1{fill:none;stroke:#282828;stroke-miterlimit:10;}
</style>
<path id="path-1_2_" class="st0" d="M14.5,14.3l1.2-2.3c0.2-0.3,0.6-0.3,0.7,0l1.2,2.3l2.6,0.4c0.3,0,0.4,0.4,0.2,0.7l-1.9,1.8
	l0.4,2.6c0,0.3-0.3,0.6-0.6,0.4L16,19l-2.3,1.2c-0.3,0.2-0.6-0.1-0.6-0.4l0.4-2.6l-1.9-1.8c-0.2-0.2-0.1-0.6,0.2-0.7L14.5,14.3z"/>
<path id="path-1_1_" class="st1" d="M11.6,11.1L15,4.4c0.5-0.8,1.6-0.8,2.1,0l3.4,6.7l7.4,1c0.9,0.1,1.3,1.3,0.7,2l-5.3,5.2l1.3,7.4
	c0.1,0.9-0.8,1.6-1.7,1.3l-6.6-3.5L9.7,28c-0.8,0.5-1.9-0.2-1.7-1.3l1-7.3l-5.5-5.1c-0.7-0.7-0.3-1.9,0.7-2L11.6,11.1z"/>
</svg>
