<?xml version="1.0" encoding="utf-8"?>
<!-- Generator: Adobe Illustrator 23.0.4, SVG Export Plug-In . SVG Version: 6.00 Build 0)  -->
<svg version="1.1" id="Ebene_1" xmlns="http://www.w3.org/2000/svg" xmlns:xlink="http://www.w3.org/1999/xlink" x="0px" y="0px"
	 viewBox="0 0 286 122" style="enable-background:new 0 0 286 122;" xml:space="preserve">
<style type="text/css">
	.st0{fill:#1D1D1B;}
	.st1{fill:#F8B133;}
	.st2{fill:#F29100;}
</style>
<g>
	<g>
		<path class="st0" d="M81.2,53.6c0.3,0,0.6,0,1,0c2.3,0,3.8-1.4,3.8-4.6c0-2.6-1.3-4.1-3.6-4.1c-0.5,0-0.9,0-1.2,0.1V53.6z
			 M79.2,43.6c0.8-0.2,1.9-0.2,3-0.2c2,0,3.3,0.4,4.3,1.2c1.1,0.9,1.8,2.3,1.8,4.5c0,2.2-0.7,3.8-1.7,4.8c-1,1-2.7,1.5-4.8,1.5
			c-1.1,0-1.9-0.1-2.5-0.1V43.6z"/>
	</g>
	<rect x="90.8" y="43.4" class="st0" width="2.1" height="11.7"/>
	<g>
		<path class="st0" d="M104.5,54.7c-0.7,0.2-2,0.6-3.3,0.6c-1.7,0-3.1-0.5-4.1-1.5c-1-1-1.6-2.6-1.6-4.4c0-3.9,2.6-6.1,6-6.1
			c1.3,0,2.2,0.3,2.7,0.5l-0.4,1.7c-0.5-0.2-1.2-0.4-2.3-0.4c-2.2,0-3.9,1.4-3.9,4.3c0,2.8,1.5,4.3,3.6,4.3c0.6,0,1.1-0.1,1.3-0.2
			v-3.1h-1.8v-1.6h3.8V54.7z"/>
	</g>
	<rect x="107.4" y="43.4" class="st0" width="2.1" height="11.7"/>
	<polygon class="st0" points="114.7,45.2 111.7,45.2 111.7,43.4 119.7,43.4 119.7,45.2 116.7,45.2 116.7,55.1 114.7,55.1 	"/>
	<g>
		<path class="st0" d="M126,50.3l-0.8-2.8c-0.2-0.7-0.4-1.6-0.5-2.3h-0.1c-0.2,0.7-0.3,1.6-0.5,2.3l-0.8,2.8H126z M123,51.9
			l-0.9,3.2H120l3.4-11.7h2.6l3.4,11.7h-2.1l-0.9-3.2H123z"/>
	</g>
	<polygon class="st0" points="131.8,43.4 133.9,43.4 133.9,53.4 138.2,53.4 138.2,55.1 131.8,55.1 	"/>
	<polygon class="st0" points="146.6,49.9 142.6,49.9 142.6,53.4 147,53.4 147,55.1 140.6,55.1 140.6,43.4 146.8,43.4 146.8,45.1 
		142.6,45.1 142.6,48.2 146.6,48.2 	"/>
	<g>
		<path class="st0" d="M151.7,48.8h1c1.4,0,2.2-0.8,2.2-2c0-1.3-0.8-1.9-2.1-1.9c-0.6,0-0.9,0-1.1,0.1V48.8z M149.7,43.6
			c0.8-0.1,1.8-0.2,2.9-0.2c1.6,0,2.7,0.3,3.4,0.9c0.6,0.6,1,1.4,1,2.3c0,1.5-0.9,2.5-2,3v0c0.8,0.3,1.3,1.1,1.6,2.3
			c0.3,1.5,0.6,2.8,0.9,3.2h-2.1c-0.2-0.3-0.4-1.4-0.7-2.8c-0.3-1.5-0.8-2-2-2h-0.9v4.8h-2V43.6z"/>
		<path class="st0" d="M80.9,72.6l-2.6-11.7h2.2l1,5.3c0.3,1.4,0.5,2.9,0.7,4.1h0.1c0.2-1.3,0.5-2.7,0.8-4.1l1.2-5.2h2l1.1,5.3
			c0.3,1.4,0.5,2.7,0.7,4h0c0.2-1.4,0.4-2.7,0.7-4.1l1.1-5.2h2.1L89,72.6h-2.2l-1.1-5.3c-0.3-1.3-0.5-2.5-0.6-3.8h0
			c-0.2,1.3-0.4,2.5-0.7,3.8l-1.2,5.3H80.9z"/>
	</g>
	<polygon class="st0" points="100.1,67.3 96.2,67.3 96.2,70.8 100.6,70.8 100.6,72.6 94.1,72.6 94.1,60.8 100.3,60.8 100.3,62.5 
		96.2,62.5 96.2,65.6 100.1,65.6 	"/>
	<rect x="103.2" y="60.8" class="st0" width="2.1" height="11.7"/>
	<polygon class="st0" points="110.5,62.6 107.5,62.6 107.5,60.8 115.5,60.8 115.5,62.6 112.5,62.6 112.5,72.6 110.5,72.6 	"/>
	<polygon class="st0" points="123.7,67.3 119.8,67.3 119.8,70.8 124.2,70.8 124.2,72.6 117.7,72.6 117.7,60.8 123.9,60.8 
		123.9,62.5 119.8,62.5 119.8,65.6 123.7,65.6 	"/>
	<g>
		<path class="st0" d="M128.9,66.2h1c1.4,0,2.2-0.8,2.2-2c0-1.2-0.8-1.9-2.1-1.9c-0.6,0-0.9,0-1.1,0.1V66.2z M126.8,61
			c0.8-0.1,1.8-0.2,2.9-0.2c1.5,0,2.7,0.3,3.4,0.9c0.6,0.5,1,1.4,1,2.3c0,1.5-0.9,2.5-2,3v0c0.8,0.3,1.3,1.1,1.6,2.3
			c0.3,1.5,0.6,2.8,0.9,3.2h-2.1c-0.2-0.4-0.4-1.4-0.7-2.8c-0.3-1.5-0.8-2-2-2h-0.9v4.8h-2V61z"/>
		<path class="st0" d="M139,71c0.2,0,0.6,0,1,0c1.3,0,2.4-0.6,2.4-2c0-1.4-1.1-2-2.5-2H139V71z M139,65.6h0.9c1.3,0,2.1-0.7,2.1-1.7
			c0-1.1-0.7-1.6-2-1.6c-0.5,0-0.9,0-1.1,0.1V65.6z M136.9,61c0.7-0.1,1.8-0.2,2.9-0.2c1.5,0,2.4,0.2,3.2,0.8
			c0.7,0.5,1.1,1.2,1.1,2.2c0,1.1-0.6,2.1-1.9,2.5v0.1c1.3,0.3,2.3,1.3,2.3,2.9c0,1-0.4,1.8-1,2.4c-0.8,0.7-2.1,1.1-4.1,1.1
			c-1.1,0-1.9-0.1-2.4-0.1V61z"/>
	</g>
	<rect x="147.2" y="60.8" class="st0" width="2" height="11.7"/>
	<polygon class="st0" points="152.4,60.8 154.5,60.8 154.5,70.8 158.8,70.8 158.8,72.6 152.4,72.6 	"/>
	<g>
		<path class="st0" d="M163.3,71c0.3,0.1,0.6,0.1,1,0.1c2.3,0,3.8-1.4,3.8-4.6c0-2.6-1.3-4.1-3.6-4.1c-0.5,0-0.9,0-1.2,0.1V71z
			 M161.2,61c0.8-0.2,1.9-0.2,3-0.2c2,0,3.3,0.4,4.3,1.2c1.1,0.9,1.8,2.3,1.8,4.4c0,2.2-0.7,3.8-1.7,4.8c-1,1-2.7,1.5-4.7,1.5
			c-1.1,0-1.9-0.1-2.5-0.2V61z"/>
		<path class="st0" d="M174.9,60.8v7.1c0,2.2,0.9,3.1,2.1,3.1c1.3,0,2.1-0.9,2.1-3.1v-7.1h2.1v6.9c0,3.4-1.7,5-4.2,5
			c-2.5,0-4.1-1.5-4.1-4.9v-7H174.9z"/>
		<path class="st0" d="M184.3,72.6V60.8h2.2l2.7,5c0.7,1.2,1.3,2.6,1.8,3.9h0c-0.1-1.6-0.2-3.1-0.2-5v-3.9h1.9v11.7h-2.1l-2.7-5.1
			c-0.7-1.2-1.4-2.6-1.9-3.9l0,0c0.1,1.5,0.1,3,0.1,5.1v3.9H184.3z"/>
		<path class="st0" d="M204.5,72.1c-0.7,0.2-2,0.6-3.3,0.6c-1.7,0-3.1-0.4-4.1-1.4c-1-1-1.6-2.6-1.6-4.4c0-3.9,2.6-6.1,6-6.1
			c1.3,0,2.2,0.3,2.7,0.5l-0.4,1.7c-0.5-0.2-1.2-0.4-2.3-0.4c-2.2,0-3.9,1.4-3.9,4.3c0,2.8,1.5,4.3,3.6,4.3c0.6,0,1.1-0.1,1.3-0.2
			v-3.1h-1.8v-1.6h3.8V72.1z"/>
		<path class="st0" d="M207.3,70.3c0.6,0.3,1.6,0.7,2.5,0.7c1.3,0,2-0.6,2-1.6c0-0.9-0.6-1.4-1.9-2c-1.7-0.7-2.9-1.8-2.9-3.4
			c0-1.9,1.5-3.3,3.9-3.3c1.1,0,2,0.3,2.5,0.5l-0.5,1.7c-0.4-0.2-1.1-0.5-2.1-0.5c-1.3,0-1.8,0.7-1.8,1.4c0,0.9,0.6,1.3,2.1,2
			c1.9,0.8,2.7,1.9,2.7,3.4c0,1.9-1.4,3.5-4.2,3.5c-1.1,0-2.3-0.3-2.9-0.7L207.3,70.3z"/>
		<path class="st0" d="M224.1,72.2c-0.5,0.2-1.4,0.5-2.6,0.5c-3.4,0-5.5-2.3-5.5-5.9c0-4,2.6-6.2,5.7-6.2c1.2,0,2.1,0.2,2.5,0.5
			l-0.4,1.7c-0.5-0.2-1.1-0.4-1.9-0.4c-2.1,0-3.7,1.4-3.7,4.3c0,2.8,1.4,4.2,3.6,4.2c0.7,0,1.5-0.1,2-0.3L224.1,72.2z"/>
		<path class="st0" d="M231.9,67.7l-0.8-2.8c-0.2-0.7-0.4-1.6-0.5-2.3h-0.1c-0.2,0.7-0.3,1.6-0.5,2.3l-0.8,2.8H231.9z M228.9,69.3
			l-0.9,3.2h-2.1l3.4-11.7h2.6l3.4,11.7h-2.1l-0.9-3.2H228.9z"/>
		<path class="st0" d="M246.7,67.8c-0.1-1.4-0.2-3.2-0.1-4.7h-0.1c-0.3,1.4-0.8,2.9-1.2,4.3l-1.6,5h-1.5l-1.4-4.9
			c-0.4-1.4-0.8-3-1.1-4.4h0c-0.1,1.5-0.1,3.3-0.2,4.8l-0.2,4.6h-1.9l0.8-11.7h2.6l1.4,4.7c0.4,1.4,0.7,2.8,1,4.1h0
			c0.3-1.3,0.6-2.7,1.1-4.1l1.5-4.7h2.5l0.7,11.7h-2L246.7,67.8z"/>
		<path class="st0" d="M253.8,66.5c0.2,0,0.5,0.1,0.9,0.1c1.5,0,2.4-0.8,2.4-2.2c0-1.2-0.8-2-2.2-2c-0.5,0-0.9,0-1.1,0.1V66.5z
			 M251.8,61c0.7-0.1,1.7-0.2,2.9-0.2c1.5,0,2.6,0.3,3.3,0.9c0.7,0.6,1.1,1.5,1.1,2.6c0,1.1-0.4,2-1,2.6c-0.8,0.8-2.1,1.2-3.5,1.2
			c-0.3,0-0.6,0-0.9-0.1v4.5h-2V61z"/>
		<path class="st0" d="M263.8,60.8v7.1c0,2.2,0.9,3.1,2.1,3.1c1.3,0,2.1-0.9,2.1-3.1v-7.1h2.1v6.9c0,3.4-1.7,5-4.2,5
			c-2.5,0-4.1-1.5-4.1-4.9v-7H263.8z"/>
		<path class="st0" d="M273.1,70.3c0.6,0.3,1.6,0.7,2.5,0.7c1.3,0,2-0.6,2-1.6c0-0.9-0.6-1.4-1.9-2c-1.7-0.7-2.9-1.8-2.9-3.4
			c0-1.9,1.5-3.3,3.9-3.3c1.1,0,2,0.3,2.5,0.5l-0.5,1.7c-0.4-0.2-1.1-0.5-2.1-0.5c-1.3,0-1.8,0.7-1.8,1.4c0,0.9,0.6,1.3,2.1,2
			c1.9,0.8,2.7,1.9,2.7,3.4c0,1.9-1.4,3.5-4.2,3.5c-1.1,0-2.3-0.3-2.9-0.7L273.1,70.3z"/>
	</g>
	<g>
		<path class="st1" d="M61.8,74.4c0,3.6-2.9,6.5-6.6,6.5c-3.6,0-6.6-2.9-6.6-6.5c0-3.6,2.9-6.5,6.6-6.5
			C58.9,67.9,61.8,70.8,61.8,74.4"/>
		<path class="st1" d="M60,52.1c0.5,2.9-1.9,5.8-5.4,6.5c-3.6,0.7-6.9-1.2-7.4-4.1c-0.6-2.9,1.9-5.8,5.4-6.5
			C56.1,47.3,59.4,49.2,60,52.1"/>
		<path class="st1" d="M44.5,70.1c-0.7,3.3-3.8,5.5-7,4.9c-3.2-0.6-5.2-3.9-4.5-7.2c0.7-3.3,3.8-5.5,7-4.9
			C43.2,63.6,45.2,66.8,44.5,70.1"/>
		<path class="st2" d="M41.6,52.1c-2.3,2.7-5.8,3.5-7.9,1.8c-2-1.7-1.8-5.3,0.5-8c2.3-2.7,5.8-3.5,7.9-1.8
			C44.1,45.8,43.9,49.4,41.6,52.1"/>
		<path class="st1" d="M55.5,40.5c-3.4,0.6-6.4-0.6-6.8-2.7c-0.4-2.1,2-4.3,5.4-5c3.4-0.6,6.4,0.6,6.8,2.7
			C61.3,37.6,58.9,39.9,55.5,40.5"/>
		<path class="st2" d="M59.4,28.2c-3.2,0.1-5.9-0.8-5.9-1.9c0-1.1,2.6-2.1,5.8-2.1c3.2-0.1,5.9,0.8,5.9,1.9
			C65.2,27.1,62.6,28.1,59.4,28.2"/>
		<path class="st1" d="M68.2,23.2c-3.2-0.3-5.8-0.9-5.8-1.3c0-0.4,2.7-0.4,5.9-0.1c3.2,0.3,5.8,0.9,5.8,1.3
			C74.1,23.5,71.4,23.6,68.2,23.2"/>
		<path class="st1" d="M48.4,25.1c-3.2,0.7-5.9,0.8-6,0.1c-0.1-0.7,2.3-1.8,5.5-2.5c3.2-0.7,5.9-0.8,6-0.1
			C54.1,23.3,51.6,24.4,48.4,25.1"/>
		<path class="st1" d="M42.3,36.1c-2.8,1.6-5.8,1.7-6.6,0.3c-0.8-1.4,0.9-3.8,3.7-5.4c2.8-1.6,5.8-1.7,6.6-0.3
			C46.8,32.1,45.2,34.5,42.3,36.1"/>
		<path class="st1" d="M24.6,46.5c-2.2,2.7-5,4.1-6.2,3.1c-1.2-1-0.3-4,1.9-6.6c2.2-2.7,5-4.1,6.2-3.1
			C27.7,40.8,26.9,43.8,24.6,46.5"/>
		<path class="st1" d="M24.9,63.2c-1.1,3.3-3.6,5.4-5.6,4.8c-2-0.7-2.7-3.9-1.6-7.2c1.1-3.3,3.6-5.4,5.6-4.8
			C25.3,56.6,26,59.8,24.9,63.2"/>
		<path class="st2" d="M27.9,81.1c-0.3,3.2-2.3,5.6-4.5,5.4c-2.2-0.2-3.8-2.9-3.5-6.1c0.3-3.2,2.3-5.6,4.5-5.4
			C26.6,75.1,28.2,77.9,27.9,81.1"/>
		<path class="st1" d="M16.8,80.2c-0.3,3.2-1.7,5.7-3.2,5.5c-1.5-0.1-2.5-2.8-2.2-6c0.3-3.2,1.7-5.7,3.2-5.5
			C16.1,74.4,17.1,77,16.8,80.2"/>
		<path class="st2" d="M14.1,63.4c-0.8,3.1-2.4,5.4-3.6,5.1c-1.2-0.3-1.5-3.1-0.8-6.2c0.8-3.1,2.4-5.4,3.6-5.1
			C14.5,57.5,14.9,60.3,14.1,63.4"/>
		<path class="st1" d="M8.4,80.9c0.1,3.2-0.2,5.8-0.8,5.8c-0.6,0-1.1-2.5-1.3-5.8c-0.1-3.2,0.2-5.8,0.8-5.8
			C7.7,75.1,8.2,77.7,8.4,80.9"/>
		<path class="st1" d="M7.7,65.5c-0.4,3.2-1,5.7-1.2,5.7c-0.2,0-0.1-2.6,0.4-5.8c0.4-3.2,1-5.7,1.2-5.7C8.3,59.7,8.2,62.3,7.7,65.5"
			/>
		<path class="st1" d="M14.9,48c-1.7,2.9-3.4,5-3.9,4.7c-0.5-0.3,0.5-2.8,2.2-5.7c1.7-2.9,3.5-5,3.9-4.7
			C17.7,42.6,16.6,45.1,14.9,48"/>
		<path class="st1" d="M29.1,32.9c-2.7,1.9-5.2,3.1-5.5,2.7c-0.3-0.4,1.7-2.3,4.4-4.2c2.7-1.9,5.2-3.1,5.5-2.7
			C33.8,29.1,31.9,31,29.1,32.9"/>
		<path class="st1" d="M12.5,95.1c0.6,2.8,0.6,5.2,0.1,5.3c-0.5,0.1-1.4-2.1-2-4.9c-0.6-2.8-0.6-5.2-0.1-5.3
			C11,90.1,11.9,92.3,12.5,95.1"/>
	</g>
</g>
</svg>
