<?xml version="1.0" encoding="utf-8"?>
<!-- Generator: Adobe Illustrator 22.0.1, SVG Export Plug-In . SVG Version: 6.00 Build 0)  -->
<svg version="1.1" id="Ebene_1" xmlns="http://www.w3.org/2000/svg" xmlns:xlink="http://www.w3.org/1999/xlink" x="0px" y="0px"
	 viewBox="0 0 32 32" style="enable-background:new 0 0 32 32;" xml:space="preserve">
<style type="text/css">
	.st0{fill:url(#SVGID_1_);stroke:#FFFFFF;stroke-miterlimit:10;}
</style>
<g>
	<linearGradient id="SVGID_1_" gradientUnits="userSpaceOnUse" x1="7.6" y1="14.1" x2="23.4" y2="14.1">
		<stop  offset="0" style="stop-color:#FF8E2C"/>
		<stop  offset="1.000000e-02" style="stop-color:#FF8E2C"/>
		<stop  offset="1" style="stop-color:#E66E1E"/>
	</linearGradient>
	<path class="st0" d="M15.5,2.1c-4.4,0-7.9,3.5-7.9,7.9c0,1.8,1.1,4.6,3.4,8.8c1.6,2.9,3.2,5.4,3.3,5.5l1.2,1.8l1.2-1.8
		c0.1-0.1,1.7-2.5,3.3-5.5c2.3-4.1,3.4-7,3.4-8.8C23.4,5.6,19.8,2.1,15.5,2.1z M15.5,14c-2.3,0-4.1-1.8-4.1-4.1s1.8-4.1,4.1-4.1
		s4.1,1.8,4.1,4.1S17.7,14,15.5,14z"/>
</g>
</svg>
