<?xml version="1.0" encoding="utf-8"?>
<!-- Generator: Adobe Illustrator 23.0.6, SVG Export Plug-In . SVG Version: 6.00 Build 0)  -->
<svg version="1.1" id="Ebene_1" xmlns="http://www.w3.org/2000/svg" xmlns:xlink="http://www.w3.org/1999/xlink" x="0px" y="0px"
	 viewBox="0 0 23 22.1" style="enable-background:new 0 0 23 22.1;" xml:space="preserve">
<title>icon/star-filled-blue</title>
<desc>Created with Sketch.</desc>
<g id="path-1_1_">
	<g>
		<path d="M6.6,19.9c-0.2,0-0.5-0.1-0.6-0.2c-0.4-0.2-0.6-0.7-0.6-1.2l0.9-5l-3.6-3.4C2.4,9.9,2.2,9.4,2.4,8.9
			c0.2-0.5,0.6-0.7,1-0.8l4.8-0.8l2.2-4.5c0.2-0.4,0.6-0.6,1-0.6s0.9,0.2,1,0.6l2.2,4.5l4.9,0.7c0.4,0.1,0.8,0.3,1,0.7
			c0.2,0.4,0.1,1-0.2,1.3l-3.5,3.5l0.9,4.9c0.1,0.5-0.1,0.9-0.5,1.1c-0.3,0.3-0.8,0.3-1.3,0.2l-4.4-2.3l-4.4,2.3
			C7,19.9,6.8,19.9,6.6,19.9z M11.5,3.1c-0.1,0-0.2,0-0.4,0.2L8.7,8.1L3.4,8.9C3.2,8.9,3.1,9.1,3,9.2C2.9,9.3,3,9.5,3.1,9.6L7,13.3
			l-0.9,5.4c0,0.2,0.1,0.3,0.2,0.5c0.1,0,0.2,0.2,0.4,0l4.7-2.5l4.7,2.5c0.2,0.1,0.3,0,0.5-0.1c0.2-0.1,0.2-0.2,0.2-0.4L16,13.3
			l3.8-3.8c0.1-0.1,0.1-0.3,0.1-0.5c0-0.1-0.1-0.2-0.3-0.2l-5.4-0.7l-2.4-4.8C11.7,3.1,11.6,3.1,11.5,3.1z"/>
	</g>
</g>
</svg>
