<svg id="Ebene_1" data-name="Ebene 1" xmlns="http://www.w3.org/2000/svg" viewBox="0 0 49.65 44.5"><defs><style>.cls-1{fill:#52658a;stroke-width:2.15px;}.cls-1,.cls-3{stroke:#fff;stroke-miterlimit:10;}.cls-2{fill:#f98128;}.cls-3{fill:none;stroke-width:2.15px;}</style></defs><title>Logo_LiveVoting</title><ellipse class="cls-1" cx="24.29" cy="22.63" rx="20.24" ry="19.13"/><polygon class="cls-2" points="48.58 23.92 48.58 30.34 37.03 30.34 31.61 25.53 19.43 41.87 16.35 24.57 13.26 30.34 1.07 30.34 1.07 23.92 9.13 23.92 19.72 3.37 23.44 25.52 30.92 15.6 40.09 23.91 48.58 23.91 48.58 23.92"/><polygon class="cls-3" points="48.58 23.92 48.58 30.34 37.03 30.34 31.61 25.53 19.43 41.87 16.35 24.57 13.26 30.34 1.07 30.34 1.07 23.92 9.13 23.92 19.72 3.37 23.44 25.52 30.92 15.6 40.09 23.91 48.58 23.91 48.58 23.92"/></svg>