<?xml version="1.0" encoding="UTF-8" standalone="no"?>
<!-- Generator: Adobe Illustrator 18.0.0, SVG Export Plug-In . SVG Version: 6.00 Build 0)  -->

<svg
   xmlns:dc="http://purl.org/dc/elements/1.1/"
   xmlns:cc="http://creativecommons.org/ns#"
   xmlns:rdf="http://www.w3.org/1999/02/22-rdf-syntax-ns#"
   xmlns:svg="http://www.w3.org/2000/svg"
   xmlns="http://www.w3.org/2000/svg"
   xmlns:xlink="http://www.w3.org/1999/xlink"
   xmlns:sodipodi="http://sodipodi.sourceforge.net/DTD/sodipodi-0.dtd"
   xmlns:inkscape="http://www.inkscape.org/namespaces/inkscape"
   version="1.1"
   id="Layer_1"
   x="0px"
   y="0px"
   width="32px"
   height="32px"
   viewBox="0 0 32 32"
   enable-background="new 0 0 32 32"
   xml:space="preserve"
   inkscape:version="0.48.4 r9939"
   sodipodi:docname="icon_page.svg"><metadata
   id="metadata55"><rdf:RDF><cc:Work
       rdf:about=""><dc:format>image/svg+xml</dc:format><dc:type
         rdf:resource="http://purl.org/dc/dcmitype/StillImage" /><dc:title></dc:title></cc:Work></rdf:RDF></metadata><defs
   id="defs53"><linearGradient
     id="SVGID_6_-1"
     gradientUnits="userSpaceOnUse"
     x1="-118.55"
     y1="165.175"
     x2="-117.55"
     y2="165.175"
     gradientTransform="matrix(20,0,0,-20,2375,3319)"><stop
       offset="0"
       style="stop-color:#505050"
       id="stop37-2" /><stop
       offset="7.292820e-03"
       style="stop-color:#505050"
       id="stop39-1" /><stop
       offset="0.3563"
       style="stop-color:#6B6B6B"
       id="stop41-4" /><stop
       offset="0.7492"
       style="stop-color:#838383"
       id="stop43-9" /><stop
       offset="0.9912"
       style="stop-color:#8C8C8C"
       id="stop45-8" /><stop
       offset="1"
       style="stop-color:#8C8C8C"
       id="stop47-2" /></linearGradient><clipPath
     id="SVGID_5_-4"><path
       d="M 6.5,6.5 H 22 v 18 H 6.5 V 6.5 z M 4.6,4 C 4.6,4 4,4 4,4.5 v 21.9 c 0,0 0,0.5 0.6,0.5 H 24 c 0,0 0.6,0 0.6,-0.5 V 4.5 C 24.6,4.5 24.6,4 24,4 H 4.6 z"
       id="use34-5"
       inkscape:connector-curvature="0" /></clipPath><linearGradient
     inkscape:collect="always"
     xlink:href="#SVGID_6_-1"
     id="linearGradient4116"
     gradientUnits="userSpaceOnUse"
     gradientTransform="matrix(20,0,0,-20,2375,3319)"
     x1="-118.55"
     y1="165.175"
     x2="-117.55"
     y2="165.175" /><linearGradient
     inkscape:collect="always"
     xlink:href="#SVGID_6_"
     id="linearGradient4471"
     gradientUnits="userSpaceOnUse"
     gradientTransform="matrix(20,0,0,-20,2375,3319)"
     x1="-118.55"
     y1="165.175"
     x2="-117.55"
     y2="165.175" /><linearGradient
     inkscape:collect="always"
     xlink:href="#SVGID_6_"
     id="linearGradient4473"
     gradientUnits="userSpaceOnUse"
     gradientTransform="matrix(20,0,0,-20,2375,3319)"
     x1="-118.55"
     y1="165.175"
     x2="-117.55"
     y2="165.175" /><linearGradient
     inkscape:collect="always"
     xlink:href="#SVGID_6_"
     id="linearGradient4587"
     gradientUnits="userSpaceOnUse"
     gradientTransform="matrix(20,0,0,-20,2375,3319)"
     x1="-118.55"
     y1="165.175"
     x2="-117.55"
     y2="165.175" /><linearGradient
     inkscape:collect="always"
     xlink:href="#SVGID_6_"
     id="linearGradient4589"
     gradientUnits="userSpaceOnUse"
     gradientTransform="matrix(20,0,0,-20,2375,3319)"
     x1="-118.55"
     y1="165.175"
     x2="-117.55"
     y2="165.175" /><linearGradient
     inkscape:collect="always"
     xlink:href="#SVGID_6_"
     id="linearGradient4807"
     gradientUnits="userSpaceOnUse"
     gradientTransform="matrix(20,0,0,-20,2375,3319)"
     x1="-118.55"
     y1="165.175"
     x2="-117.55"
     y2="165.175" /><linearGradient
     inkscape:collect="always"
     xlink:href="#SVGID_6_"
     id="linearGradient4809"
     gradientUnits="userSpaceOnUse"
     gradientTransform="matrix(20,0,0,-20,2375,3319)"
     x1="-118.55"
     y1="165.175"
     x2="-117.55"
     y2="165.175" /><linearGradient
     inkscape:collect="always"
     xlink:href="#SVGID_6_"
     id="linearGradient4811"
     gradientUnits="userSpaceOnUse"
     gradientTransform="matrix(20,0,0,-20,2375,3319)"
     x1="-118.55"
     y1="165.175"
     x2="-117.55"
     y2="165.175" /><linearGradient
     inkscape:collect="always"
     xlink:href="#SVGID_6_"
     id="linearGradient4813"
     gradientUnits="userSpaceOnUse"
     gradientTransform="matrix(20,0,0,-20,2375,3319)"
     x1="-118.55"
     y1="165.175"
     x2="-117.55"
     y2="165.175" /><linearGradient
     inkscape:collect="always"
     xlink:href="#SVGID_6_"
     id="linearGradient5031"
     gradientUnits="userSpaceOnUse"
     gradientTransform="matrix(20,0,0,-20,2375,3319)"
     x1="-118.55"
     y1="165.175"
     x2="-117.55"
     y2="165.175" /><linearGradient
     inkscape:collect="always"
     xlink:href="#SVGID_6_"
     id="linearGradient5033"
     gradientUnits="userSpaceOnUse"
     gradientTransform="matrix(20,0,0,-20,2375,3319)"
     x1="-118.55"
     y1="165.175"
     x2="-117.55"
     y2="165.175" /><linearGradient
     inkscape:collect="always"
     xlink:href="#SVGID_6_"
     id="linearGradient5035"
     gradientUnits="userSpaceOnUse"
     gradientTransform="matrix(20,0,0,-20,2375,3319)"
     x1="-118.55"
     y1="165.175"
     x2="-117.55"
     y2="165.175" /><linearGradient
     inkscape:collect="always"
     xlink:href="#SVGID_6_"
     id="linearGradient5037"
     gradientUnits="userSpaceOnUse"
     gradientTransform="matrix(20,0,0,-20,2375,3319)"
     x1="-118.55"
     y1="165.175"
     x2="-117.55"
     y2="165.175" /></defs><sodipodi:namedview
   pagecolor="#ffffff"
   bordercolor="#666666"
   borderopacity="1"
   objecttolerance="10"
   gridtolerance="10"
   guidetolerance="10"
   inkscape:pageopacity="0"
   inkscape:pageshadow="2"
   inkscape:window-width="992"
   inkscape:window-height="734"
   id="namedview51"
   showgrid="false"
   inkscape:zoom="7.375"
   inkscape:cx="16"
   inkscape:cy="16"
   inkscape:window-x="324"
   inkscape:window-y="201"
   inkscape:window-maximized="0"
   inkscape:current-layer="Layer_1" />
<g
   id="g3"
   transform="matrix(0,-0.6766877,0.82313928,0,-0.54255711,21.812683)">
	<defs
   id="defs5">
		<path
   id="SVGID_1_"
   d="M 4.5,4 C 4.5,4 4,4 4,4.5 v 22 c 0,0 0,0.5 0.5,0.5 H 24 c 0,0 0.5,0 0.5,-0.5 V 4.5 C 24.5,4.5 24.5,4 24,4 H 4.5 z"
   inkscape:connector-curvature="0" />
	</defs>
	<clipPath
   id="SVGID_2_">
		<use
   xlink:href="#SVGID_1_"
   overflow="visible"
   id="use9"
   style="overflow:visible"
   x="0"
   y="0"
   width="32"
   height="32" />
	</clipPath>
	
		<linearGradient
   id="SVGID_3_"
   gradientUnits="userSpaceOnUse"
   x1="-131.29269"
   y1="152.1707"
   x2="-130.29269"
   y2="152.1707"
   gradientTransform="matrix(-20.5,0,0,20.5,-2667,-3104)">
		<stop
   offset="0"
   style="stop-color:#FFE67E"
   id="stop12" />
		<stop
   offset="7.292820e-03"
   style="stop-color:#FFE67E"
   id="stop14" />
		<stop
   offset="8.671100e-02"
   style="stop-color:#FEE475"
   id="stop16" />
		<stop
   offset="0.4874"
   style="stop-color:#F7DA4B"
   id="stop18" />
		<stop
   offset="0.8025"
   style="stop-color:#F3D432"
   id="stop20" />
		<stop
   offset="0.9912"
   style="stop-color:#F2D228"
   id="stop22" />
		<stop
   offset="1"
   style="stop-color:#F2D228"
   id="stop24" />
	</linearGradient>
	<rect
   x="4"
   y="4"
   clip-path="url(#SVGID_2_)"
   width="20.5"
   height="23"
   id="rect26"
   style="fill:#ffffff;fill-opacity:1" />
</g>
<g
   id="g28"
   transform="matrix(0,-0.6766877,0.82313928,0,-0.50140015,21.778849)">
	<defs
   id="defs30">
		<path
   id="SVGID_4_"
   d="M 6.5,6.5 H 22 v 18 H 6.5 V 6.5 z M 4.6,4 C 4.6,4 4,4 4,4.5 v 21.9 c 0,0 0,0.5 0.6,0.5 H 24 c 0,0 0.6,0 0.6,-0.5 V 4.5 C 24.6,4.5 24.6,4 24,4 H 4.6 z"
   inkscape:connector-curvature="0" />
	</defs>
	<clipPath
   id="SVGID_5_">
		<use
   xlink:href="#SVGID_4_"
   overflow="visible"
   id="use34"
   style="overflow:visible"
   x="0"
   y="0"
   width="32"
   height="32" />
	</clipPath>
	
		<linearGradient
   id="SVGID_6_"
   gradientUnits="userSpaceOnUse"
   x1="-118.55"
   y1="165.175"
   x2="-117.55"
   y2="165.175"
   gradientTransform="matrix(20,0,0,-20,2375,3319)">
		<stop
   offset="0"
   style="stop-color:#505050"
   id="stop37" />
		<stop
   offset="7.292820e-03"
   style="stop-color:#505050"
   id="stop39" />
		<stop
   offset="0.3563"
   style="stop-color:#6B6B6B"
   id="stop41" />
		<stop
   offset="0.7492"
   style="stop-color:#838383"
   id="stop43" />
		<stop
   offset="0.9912"
   style="stop-color:#8C8C8C"
   id="stop45" />
		<stop
   offset="1"
   style="stop-color:#8C8C8C"
   id="stop47" />
	</linearGradient>
	<rect
   x="4"
   y="4"
   clip-path="url(#SVGID_5_)"
   width="20.5"
   height="23"
   id="rect49"
   style="fill:url(#linearGradient4473)" />
</g>
<g
   id="g4122"
   transform="matrix(0,-0.6766877,0.82313928,0,-0.54255711,21.812683)">
	<defs
   id="defs4124">
		<path
   d="M 4.5,4 C 4.5,4 4,4 4,4.5 v 22 c 0,0 0,0.5 0.5,0.5 H 24 c 0,0 0.5,0 0.5,-0.5 V 4.5 C 24.5,4.5 24.5,4 24,4 H 4.5 z"
   id="path4126"
   inkscape:connector-curvature="0" />
	</defs>
	<clipPath
   id="clipPath4128">
		<use
   id="use4130"
   overflow="visible"
   xlink:href="#SVGID_1_"
   style="overflow:visible"
   x="0"
   y="0"
   width="32"
   height="32" />
	</clipPath>
	
		<linearGradient
   gradientTransform="matrix(-20.5,0,0,20.5,-2667,-3104)"
   y2="152.1707"
   x2="-130.29269"
   y1="152.1707"
   x1="-131.29269"
   gradientUnits="userSpaceOnUse"
   id="linearGradient4132">
		<stop
   id="stop4134"
   style="stop-color:#FFE67E"
   offset="0" />
		<stop
   id="stop4136"
   style="stop-color:#FFE67E"
   offset="7.292820e-03" />
		<stop
   id="stop4138"
   style="stop-color:#FEE475"
   offset="8.671100e-02" />
		<stop
   id="stop4140"
   style="stop-color:#F7DA4B"
   offset="0.4874" />
		<stop
   id="stop4142"
   style="stop-color:#F3D432"
   offset="0.8025" />
		<stop
   id="stop4144"
   style="stop-color:#F2D228"
   offset="0.9912" />
		<stop
   id="stop4146"
   style="stop-color:#F2D228"
   offset="1" />
	</linearGradient>
	<rect
   style="fill:#ffffff;fill-opacity:1"
   id="rect4148"
   height="23"
   width="20.5"
   clip-path="url(#SVGID_2_)"
   y="4"
   x="4" />
</g><g
   id="g4150"
   transform="matrix(0,-0.6766877,0.82313928,0,-0.50140015,21.778849)">
	<defs
   id="defs4152">
		<path
   d="M 6.5,6.5 H 22 v 18 H 6.5 V 6.5 z M 4.6,4 C 4.6,4 4,4 4,4.5 v 21.9 c 0,0 0,0.5 0.6,0.5 H 24 c 0,0 0.6,0 0.6,-0.5 V 4.5 C 24.6,4.5 24.6,4 24,4 H 4.6 z"
   id="path4154"
   inkscape:connector-curvature="0" />
	</defs>
	<clipPath
   id="clipPath4156">
		<use
   id="use4158"
   overflow="visible"
   xlink:href="#SVGID_4_"
   style="overflow:visible"
   x="0"
   y="0"
   width="32"
   height="32" />
	</clipPath>
	
		<linearGradient
   gradientTransform="matrix(20,0,0,-20,2375,3319)"
   y2="165.175"
   x2="-117.55"
   y1="165.175"
   x1="-118.55"
   gradientUnits="userSpaceOnUse"
   id="linearGradient4160">
		<stop
   id="stop4162"
   style="stop-color:#505050"
   offset="0" />
		<stop
   id="stop4164"
   style="stop-color:#505050"
   offset="7.292820e-03" />
		<stop
   id="stop4166"
   style="stop-color:#6B6B6B"
   offset="0.3563" />
		<stop
   id="stop4168"
   style="stop-color:#838383"
   offset="0.7492" />
		<stop
   id="stop4170"
   style="stop-color:#8C8C8C"
   offset="0.9912" />
		<stop
   id="stop4172"
   style="stop-color:#8C8C8C"
   offset="1" />
	</linearGradient>
	<rect
   id="rect4174"
   height="23"
   width="20.5"
   clip-path="url(#SVGID_5_)"
   y="4"
   x="4"
   style="fill:url(#linearGradient4471)" />
</g><g
   transform="matrix(0,-0.6766877,0.82313928,0,-0.54255711,21.812683)"
   id="g4475">
	<defs
   id="defs4477">
		<path
   inkscape:connector-curvature="0"
   d="M 4.5,4 C 4.5,4 4,4 4,4.5 v 22 c 0,0 0,0.5 0.5,0.5 H 24 c 0,0 0.5,0 0.5,-0.5 V 4.5 C 24.5,4.5 24.5,4 24,4 H 4.5 z"
   id="path4479" />
	</defs>
	<clipPath
   id="clipPath4481">
		<use
   height="32"
   width="32"
   y="0"
   x="0"
   style="overflow:visible"
   id="use4483"
   overflow="visible"
   xlink:href="#SVGID_1_" />
	</clipPath>
	
		<linearGradient
   gradientTransform="matrix(-20.5,0,0,20.5,-2667,-3104)"
   y2="152.1707"
   x2="-130.29269"
   y1="152.1707"
   x1="-131.29269"
   gradientUnits="userSpaceOnUse"
   id="linearGradient4485">
		<stop
   id="stop4487"
   style="stop-color:#FFE67E"
   offset="0" />
		<stop
   id="stop4489"
   style="stop-color:#FFE67E"
   offset="7.292820e-03" />
		<stop
   id="stop4491"
   style="stop-color:#FEE475"
   offset="8.671100e-02" />
		<stop
   id="stop4493"
   style="stop-color:#F7DA4B"
   offset="0.4874" />
		<stop
   id="stop4495"
   style="stop-color:#F3D432"
   offset="0.8025" />
		<stop
   id="stop4497"
   style="stop-color:#F2D228"
   offset="0.9912" />
		<stop
   id="stop4499"
   style="stop-color:#F2D228"
   offset="1" />
	</linearGradient>
	<rect
   style="fill:#ffffff;fill-opacity:1"
   id="rect4501"
   height="23"
   width="20.5"
   clip-path="url(#SVGID_2_)"
   y="4"
   x="4" />
</g><g
   transform="matrix(0,-0.6766877,0.82313928,0,-0.50140015,21.778849)"
   id="g4503">
	<defs
   id="defs4505">
		<path
   inkscape:connector-curvature="0"
   d="M 6.5,6.5 H 22 v 18 H 6.5 V 6.5 z M 4.6,4 C 4.6,4 4,4 4,4.5 v 21.9 c 0,0 0,0.5 0.6,0.5 H 24 c 0,0 0.6,0 0.6,-0.5 V 4.5 C 24.6,4.5 24.6,4 24,4 H 4.6 z"
   id="path4507" />
	</defs>
	<clipPath
   id="clipPath4509">
		<use
   height="32"
   width="32"
   y="0"
   x="0"
   style="overflow:visible"
   id="use4511"
   overflow="visible"
   xlink:href="#SVGID_4_" />
	</clipPath>
	
		<linearGradient
   gradientTransform="matrix(20,0,0,-20,2375,3319)"
   y2="165.175"
   x2="-117.55"
   y1="165.175"
   x1="-118.55"
   gradientUnits="userSpaceOnUse"
   id="linearGradient4513">
		<stop
   id="stop4515"
   style="stop-color:#505050"
   offset="0" />
		<stop
   id="stop4517"
   style="stop-color:#505050"
   offset="7.292820e-03" />
		<stop
   id="stop4519"
   style="stop-color:#6B6B6B"
   offset="0.3563" />
		<stop
   id="stop4521"
   style="stop-color:#838383"
   offset="0.7492" />
		<stop
   id="stop4523"
   style="stop-color:#8C8C8C"
   offset="0.9912" />
		<stop
   id="stop4525"
   style="stop-color:#8C8C8C"
   offset="1" />
	</linearGradient>
	<rect
   style="fill:url(#linearGradient4589)"
   id="rect4527"
   height="23"
   width="20.5"
   clip-path="url(#SVGID_5_)"
   y="4"
   x="4" />
</g><g
   transform="matrix(0,-0.6766877,0.82313928,0,-0.54255711,21.812683)"
   id="g4529">
	<defs
   id="defs4531">
		<path
   inkscape:connector-curvature="0"
   id="path4533"
   d="M 4.5,4 C 4.5,4 4,4 4,4.5 v 22 c 0,0 0,0.5 0.5,0.5 H 24 c 0,0 0.5,0 0.5,-0.5 V 4.5 C 24.5,4.5 24.5,4 24,4 H 4.5 z" />
	</defs>
	<clipPath
   id="clipPath4535">
		<use
   height="32"
   width="32"
   y="0"
   x="0"
   style="overflow:visible"
   xlink:href="#SVGID_1_"
   overflow="visible"
   id="use4537" />
	</clipPath>
	
		<linearGradient
   id="linearGradient4539"
   gradientUnits="userSpaceOnUse"
   x1="-131.29269"
   y1="152.1707"
   x2="-130.29269"
   y2="152.1707"
   gradientTransform="matrix(-20.5,0,0,20.5,-2667,-3104)">
		<stop
   offset="0"
   style="stop-color:#FFE67E"
   id="stop4541" />
		<stop
   offset="7.292820e-03"
   style="stop-color:#FFE67E"
   id="stop4543" />
		<stop
   offset="8.671100e-02"
   style="stop-color:#FEE475"
   id="stop4545" />
		<stop
   offset="0.4874"
   style="stop-color:#F7DA4B"
   id="stop4547" />
		<stop
   offset="0.8025"
   style="stop-color:#F3D432"
   id="stop4549" />
		<stop
   offset="0.9912"
   style="stop-color:#F2D228"
   id="stop4551" />
		<stop
   offset="1"
   style="stop-color:#F2D228"
   id="stop4553" />
	</linearGradient>
	<rect
   x="4"
   y="4"
   clip-path="url(#SVGID_2_)"
   width="20.5"
   height="23"
   id="rect4555"
   style="fill:#ffffff;fill-opacity:1" />
</g><g
   transform="matrix(0,-0.6766877,0.82313928,0,-0.50140015,21.778849)"
   id="g4557">
	<defs
   id="defs4559">
		<path
   inkscape:connector-curvature="0"
   id="path4561"
   d="M 6.5,6.5 H 22 v 18 H 6.5 V 6.5 z M 4.6,4 C 4.6,4 4,4 4,4.5 v 21.9 c 0,0 0,0.5 0.6,0.5 H 24 c 0,0 0.6,0 0.6,-0.5 V 4.5 C 24.6,4.5 24.6,4 24,4 H 4.6 z" />
	</defs>
	<clipPath
   id="clipPath4563">
		<use
   height="32"
   width="32"
   y="0"
   x="0"
   style="overflow:visible"
   xlink:href="#SVGID_4_"
   overflow="visible"
   id="use4565" />
	</clipPath>
	
		<linearGradient
   id="linearGradient4567"
   gradientUnits="userSpaceOnUse"
   x1="-118.55"
   y1="165.175"
   x2="-117.55"
   y2="165.175"
   gradientTransform="matrix(20,0,0,-20,2375,3319)">
		<stop
   offset="0"
   style="stop-color:#505050"
   id="stop4569" />
		<stop
   offset="7.292820e-03"
   style="stop-color:#505050"
   id="stop4571" />
		<stop
   offset="0.3563"
   style="stop-color:#6B6B6B"
   id="stop4573" />
		<stop
   offset="0.7492"
   style="stop-color:#838383"
   id="stop4575" />
		<stop
   offset="0.9912"
   style="stop-color:#8C8C8C"
   id="stop4577" />
		<stop
   offset="1"
   style="stop-color:#8C8C8C"
   id="stop4579" />
	</linearGradient>
	<rect
   style="fill:url(#linearGradient4587)"
   x="4"
   y="4"
   clip-path="url(#SVGID_5_)"
   width="20.5"
   height="23"
   id="rect4581" />
</g><g
   transform="matrix(0,-0.6766877,0.82313928,0,3.5252395,25.338107)"
   id="g4591">
	<defs
   id="defs4593">
		<path
   inkscape:connector-curvature="0"
   d="M 4.5,4 C 4.5,4 4,4 4,4.5 v 22 c 0,0 0,0.5 0.5,0.5 H 24 c 0,0 0.5,0 0.5,-0.5 V 4.5 C 24.5,4.5 24.5,4 24,4 H 4.5 z"
   id="path4595" />
	</defs>
	<clipPath
   id="clipPath4597">
		<use
   height="32"
   width="32"
   y="0"
   x="0"
   style="overflow:visible"
   id="use4599"
   overflow="visible"
   xlink:href="#SVGID_1_" />
	</clipPath>
	
		<linearGradient
   gradientTransform="matrix(-20.5,0,0,20.5,-2667,-3104)"
   y2="152.1707"
   x2="-130.29269"
   y1="152.1707"
   x1="-131.29269"
   gradientUnits="userSpaceOnUse"
   id="linearGradient4601">
		<stop
   id="stop4603"
   style="stop-color:#FFE67E"
   offset="0" />
		<stop
   id="stop4605"
   style="stop-color:#FFE67E"
   offset="7.292820e-03" />
		<stop
   id="stop4607"
   style="stop-color:#FEE475"
   offset="8.671100e-02" />
		<stop
   id="stop4609"
   style="stop-color:#F7DA4B"
   offset="0.4874" />
		<stop
   id="stop4611"
   style="stop-color:#F3D432"
   offset="0.8025" />
		<stop
   id="stop4613"
   style="stop-color:#F2D228"
   offset="0.9912" />
		<stop
   id="stop4615"
   style="stop-color:#F2D228"
   offset="1" />
	</linearGradient>
	<rect
   style="fill:#ffffff;fill-opacity:1"
   id="rect4617"
   height="23"
   width="20.5"
   clip-path="url(#SVGID_2_)"
   y="4"
   x="4" />
</g><g
   transform="matrix(0,-0.6766877,0.82313928,0,3.5663965,25.304273)"
   id="g4619">
	<defs
   id="defs4621">
		<path
   inkscape:connector-curvature="0"
   d="M 6.5,6.5 H 22 v 18 H 6.5 V 6.5 z M 4.6,4 C 4.6,4 4,4 4,4.5 v 21.9 c 0,0 0,0.5 0.6,0.5 H 24 c 0,0 0.6,0 0.6,-0.5 V 4.5 C 24.6,4.5 24.6,4 24,4 H 4.6 z"
   id="path4623" />
	</defs>
	<clipPath
   id="clipPath4625">
		<use
   height="32"
   width="32"
   y="0"
   x="0"
   style="overflow:visible"
   id="use4627"
   overflow="visible"
   xlink:href="#SVGID_4_" />
	</clipPath>
	
		<linearGradient
   gradientTransform="matrix(20,0,0,-20,2375,3319)"
   y2="165.175"
   x2="-117.55"
   y1="165.175"
   x1="-118.55"
   gradientUnits="userSpaceOnUse"
   id="linearGradient4629">
		<stop
   id="stop4631"
   style="stop-color:#505050"
   offset="0" />
		<stop
   id="stop4633"
   style="stop-color:#505050"
   offset="7.292820e-03" />
		<stop
   id="stop4635"
   style="stop-color:#6B6B6B"
   offset="0.3563" />
		<stop
   id="stop4637"
   style="stop-color:#838383"
   offset="0.7492" />
		<stop
   id="stop4639"
   style="stop-color:#8C8C8C"
   offset="0.9912" />
		<stop
   id="stop4641"
   style="stop-color:#8C8C8C"
   offset="1" />
	</linearGradient>
	<rect
   style="fill:url(#linearGradient4807)"
   id="rect4643"
   height="23"
   width="20.5"
   clip-path="url(#SVGID_5_)"
   y="4"
   x="4" />
</g><g
   transform="matrix(0,-0.6766877,0.82313928,0,3.5252395,25.338107)"
   id="g4645">
	<defs
   id="defs4647">
		<path
   inkscape:connector-curvature="0"
   id="path4649"
   d="M 4.5,4 C 4.5,4 4,4 4,4.5 v 22 c 0,0 0,0.5 0.5,0.5 H 24 c 0,0 0.5,0 0.5,-0.5 V 4.5 C 24.5,4.5 24.5,4 24,4 H 4.5 z" />
	</defs>
	<clipPath
   id="clipPath4651">
		<use
   height="32"
   width="32"
   y="0"
   x="0"
   style="overflow:visible"
   xlink:href="#SVGID_1_"
   overflow="visible"
   id="use4653" />
	</clipPath>
	
		<linearGradient
   id="linearGradient4655"
   gradientUnits="userSpaceOnUse"
   x1="-131.29269"
   y1="152.1707"
   x2="-130.29269"
   y2="152.1707"
   gradientTransform="matrix(-20.5,0,0,20.5,-2667,-3104)">
		<stop
   offset="0"
   style="stop-color:#FFE67E"
   id="stop4657" />
		<stop
   offset="7.292820e-03"
   style="stop-color:#FFE67E"
   id="stop4659" />
		<stop
   offset="8.671100e-02"
   style="stop-color:#FEE475"
   id="stop4661" />
		<stop
   offset="0.4874"
   style="stop-color:#F7DA4B"
   id="stop4663" />
		<stop
   offset="0.8025"
   style="stop-color:#F3D432"
   id="stop4665" />
		<stop
   offset="0.9912"
   style="stop-color:#F2D228"
   id="stop4667" />
		<stop
   offset="1"
   style="stop-color:#F2D228"
   id="stop4669" />
	</linearGradient>
	<rect
   x="4"
   y="4"
   clip-path="url(#SVGID_2_)"
   width="20.5"
   height="23"
   id="rect4671"
   style="fill:#ffffff;fill-opacity:1" />
</g><g
   transform="matrix(0,-0.6766877,0.82313928,0,3.5663965,25.304273)"
   id="g4673">
	<defs
   id="defs4675">
		<path
   inkscape:connector-curvature="0"
   id="path4677"
   d="M 6.5,6.5 H 22 v 18 H 6.5 V 6.5 z M 4.6,4 C 4.6,4 4,4 4,4.5 v 21.9 c 0,0 0,0.5 0.6,0.5 H 24 c 0,0 0.6,0 0.6,-0.5 V 4.5 C 24.6,4.5 24.6,4 24,4 H 4.6 z" />
	</defs>
	<clipPath
   id="clipPath4679">
		<use
   height="32"
   width="32"
   y="0"
   x="0"
   style="overflow:visible"
   xlink:href="#SVGID_4_"
   overflow="visible"
   id="use4681" />
	</clipPath>
	
		<linearGradient
   id="linearGradient4683"
   gradientUnits="userSpaceOnUse"
   x1="-118.55"
   y1="165.175"
   x2="-117.55"
   y2="165.175"
   gradientTransform="matrix(20,0,0,-20,2375,3319)">
		<stop
   offset="0"
   style="stop-color:#505050"
   id="stop4685" />
		<stop
   offset="7.292820e-03"
   style="stop-color:#505050"
   id="stop4687" />
		<stop
   offset="0.3563"
   style="stop-color:#6B6B6B"
   id="stop4689" />
		<stop
   offset="0.7492"
   style="stop-color:#838383"
   id="stop4691" />
		<stop
   offset="0.9912"
   style="stop-color:#8C8C8C"
   id="stop4693" />
		<stop
   offset="1"
   style="stop-color:#8C8C8C"
   id="stop4695" />
	</linearGradient>
	<rect
   style="fill:url(#linearGradient4809)"
   x="4"
   y="4"
   clip-path="url(#SVGID_5_)"
   width="20.5"
   height="23"
   id="rect4697" />
</g><g
   id="g4699"
   transform="matrix(0,-0.6766877,0.82313928,0,3.5252395,25.338107)">
	<defs
   id="defs4701">
		<path
   id="path4703"
   d="M 4.5,4 C 4.5,4 4,4 4,4.5 v 22 c 0,0 0,0.5 0.5,0.5 H 24 c 0,0 0.5,0 0.5,-0.5 V 4.5 C 24.5,4.5 24.5,4 24,4 H 4.5 z"
   inkscape:connector-curvature="0" />
	</defs>
	<clipPath
   id="clipPath4705">
		<use
   xlink:href="#SVGID_1_"
   overflow="visible"
   id="use4707"
   style="overflow:visible"
   x="0"
   y="0"
   width="32"
   height="32" />
	</clipPath>
	
		<linearGradient
   id="linearGradient4709"
   gradientUnits="userSpaceOnUse"
   x1="-131.29269"
   y1="152.1707"
   x2="-130.29269"
   y2="152.1707"
   gradientTransform="matrix(-20.5,0,0,20.5,-2667,-3104)">
		<stop
   offset="0"
   style="stop-color:#FFE67E"
   id="stop4711" />
		<stop
   offset="7.292820e-03"
   style="stop-color:#FFE67E"
   id="stop4713" />
		<stop
   offset="8.671100e-02"
   style="stop-color:#FEE475"
   id="stop4715" />
		<stop
   offset="0.4874"
   style="stop-color:#F7DA4B"
   id="stop4717" />
		<stop
   offset="0.8025"
   style="stop-color:#F3D432"
   id="stop4719" />
		<stop
   offset="0.9912"
   style="stop-color:#F2D228"
   id="stop4721" />
		<stop
   offset="1"
   style="stop-color:#F2D228"
   id="stop4723" />
	</linearGradient>
	<rect
   x="4"
   y="4"
   clip-path="url(#SVGID_2_)"
   width="20.5"
   height="23"
   id="rect4725"
   style="fill:#ffffff;fill-opacity:1" />
</g><g
   id="g4727"
   transform="matrix(0,-0.6766877,0.82313928,0,3.5663965,25.304273)">
	<defs
   id="defs4729">
		<path
   id="path4731"
   d="M 6.5,6.5 H 22 v 18 H 6.5 V 6.5 z M 4.6,4 C 4.6,4 4,4 4,4.5 v 21.9 c 0,0 0,0.5 0.6,0.5 H 24 c 0,0 0.6,0 0.6,-0.5 V 4.5 C 24.6,4.5 24.6,4 24,4 H 4.6 z"
   inkscape:connector-curvature="0" />
	</defs>
	<clipPath
   id="clipPath4733">
		<use
   xlink:href="#SVGID_4_"
   overflow="visible"
   id="use4735"
   style="overflow:visible"
   x="0"
   y="0"
   width="32"
   height="32" />
	</clipPath>
	
		<linearGradient
   id="linearGradient4737"
   gradientUnits="userSpaceOnUse"
   x1="-118.55"
   y1="165.175"
   x2="-117.55"
   y2="165.175"
   gradientTransform="matrix(20,0,0,-20,2375,3319)">
		<stop
   offset="0"
   style="stop-color:#505050"
   id="stop4739" />
		<stop
   offset="7.292820e-03"
   style="stop-color:#505050"
   id="stop4741" />
		<stop
   offset="0.3563"
   style="stop-color:#6B6B6B"
   id="stop4743" />
		<stop
   offset="0.7492"
   style="stop-color:#838383"
   id="stop4745" />
		<stop
   offset="0.9912"
   style="stop-color:#8C8C8C"
   id="stop4747" />
		<stop
   offset="1"
   style="stop-color:#8C8C8C"
   id="stop4749" />
	</linearGradient>
	<rect
   x="4"
   y="4"
   clip-path="url(#SVGID_5_)"
   width="20.5"
   height="23"
   id="rect4751"
   style="fill:url(#linearGradient4811)" />
</g><g
   id="g4753"
   transform="matrix(0,-0.6766877,0.82313928,0,3.5252395,25.338107)">
	<defs
   id="defs4755">
		<path
   d="M 4.5,4 C 4.5,4 4,4 4,4.5 v 22 c 0,0 0,0.5 0.5,0.5 H 24 c 0,0 0.5,0 0.5,-0.5 V 4.5 C 24.5,4.5 24.5,4 24,4 H 4.5 z"
   id="path4757"
   inkscape:connector-curvature="0" />
	</defs>
	<clipPath
   id="clipPath4759">
		<use
   id="use4761"
   overflow="visible"
   xlink:href="#SVGID_1_"
   style="overflow:visible"
   x="0"
   y="0"
   width="32"
   height="32" />
	</clipPath>
	
		<linearGradient
   gradientTransform="matrix(-20.5,0,0,20.5,-2667,-3104)"
   y2="152.1707"
   x2="-130.29269"
   y1="152.1707"
   x1="-131.29269"
   gradientUnits="userSpaceOnUse"
   id="linearGradient4763">
		<stop
   id="stop4765"
   style="stop-color:#FFE67E"
   offset="0" />
		<stop
   id="stop4767"
   style="stop-color:#FFE67E"
   offset="7.292820e-03" />
		<stop
   id="stop4769"
   style="stop-color:#FEE475"
   offset="8.671100e-02" />
		<stop
   id="stop4771"
   style="stop-color:#F7DA4B"
   offset="0.4874" />
		<stop
   id="stop4773"
   style="stop-color:#F3D432"
   offset="0.8025" />
		<stop
   id="stop4775"
   style="stop-color:#F2D228"
   offset="0.9912" />
		<stop
   id="stop4777"
   style="stop-color:#F2D228"
   offset="1" />
	</linearGradient>
	<rect
   style="fill:#ffffff;fill-opacity:1"
   id="rect4779"
   height="23"
   width="20.5"
   clip-path="url(#SVGID_2_)"
   y="4"
   x="4" />
</g><g
   id="g4781"
   transform="matrix(0,-0.6766877,0.82313928,0,3.5663965,25.304273)">
	<defs
   id="defs4783">
		<path
   d="M 6.5,6.5 H 22 v 18 H 6.5 V 6.5 z M 4.6,4 C 4.6,4 4,4 4,4.5 v 21.9 c 0,0 0,0.5 0.6,0.5 H 24 c 0,0 0.6,0 0.6,-0.5 V 4.5 C 24.6,4.5 24.6,4 24,4 H 4.6 z"
   id="path4785"
   inkscape:connector-curvature="0" />
	</defs>
	<clipPath
   id="clipPath4787">
		<use
   id="use4789"
   overflow="visible"
   xlink:href="#SVGID_4_"
   style="overflow:visible"
   x="0"
   y="0"
   width="32"
   height="32" />
	</clipPath>
	
		<linearGradient
   gradientTransform="matrix(20,0,0,-20,2375,3319)"
   y2="165.175"
   x2="-117.55"
   y1="165.175"
   x1="-118.55"
   gradientUnits="userSpaceOnUse"
   id="linearGradient4791">
		<stop
   id="stop4793"
   style="stop-color:#505050"
   offset="0" />
		<stop
   id="stop4795"
   style="stop-color:#505050"
   offset="7.292820e-03" />
		<stop
   id="stop4797"
   style="stop-color:#6B6B6B"
   offset="0.3563" />
		<stop
   id="stop4799"
   style="stop-color:#838383"
   offset="0.7492" />
		<stop
   id="stop4801"
   style="stop-color:#8C8C8C"
   offset="0.9912" />
		<stop
   id="stop4803"
   style="stop-color:#8C8C8C"
   offset="1" />
	</linearGradient>
	<rect
   id="rect4805"
   height="23"
   width="20.5"
   clip-path="url(#SVGID_5_)"
   y="4"
   x="4"
   style="fill:url(#linearGradient4813)" />
</g><g
   id="g4815"
   transform="matrix(0,-0.6766877,0.82313928,0,7.7286293,28.863531)">
	<defs
   id="defs4817">
		<path
   id="path4819"
   d="M 4.5,4 C 4.5,4 4,4 4,4.5 v 22 c 0,0 0,0.5 0.5,0.5 H 24 c 0,0 0.5,0 0.5,-0.5 V 4.5 C 24.5,4.5 24.5,4 24,4 H 4.5 z"
   inkscape:connector-curvature="0" />
	</defs>
	<clipPath
   id="clipPath4821">
		<use
   xlink:href="#SVGID_1_"
   overflow="visible"
   id="use4823"
   style="overflow:visible"
   x="0"
   y="0"
   width="32"
   height="32" />
	</clipPath>
	
		<linearGradient
   id="linearGradient4825"
   gradientUnits="userSpaceOnUse"
   x1="-131.29269"
   y1="152.1707"
   x2="-130.29269"
   y2="152.1707"
   gradientTransform="matrix(-20.5,0,0,20.5,-2667,-3104)">
		<stop
   offset="0"
   style="stop-color:#FFE67E"
   id="stop4827" />
		<stop
   offset="7.292820e-03"
   style="stop-color:#FFE67E"
   id="stop4829" />
		<stop
   offset="8.671100e-02"
   style="stop-color:#FEE475"
   id="stop4831" />
		<stop
   offset="0.4874"
   style="stop-color:#F7DA4B"
   id="stop4833" />
		<stop
   offset="0.8025"
   style="stop-color:#F3D432"
   id="stop4835" />
		<stop
   offset="0.9912"
   style="stop-color:#F2D228"
   id="stop4837" />
		<stop
   offset="1"
   style="stop-color:#F2D228"
   id="stop4839" />
	</linearGradient>
	<rect
   x="4"
   y="4"
   clip-path="url(#SVGID_2_)"
   width="20.5"
   height="23"
   id="rect4841"
   style="fill:#ffffff;fill-opacity:1" />
</g><g
   id="g4843"
   transform="matrix(0,-0.6766877,0.82313928,0,7.7697863,28.829697)">
	<defs
   id="defs4845">
		<path
   id="path4847"
   d="M 6.5,6.5 H 22 v 18 H 6.5 V 6.5 z M 4.6,4 C 4.6,4 4,4 4,4.5 v 21.9 c 0,0 0,0.5 0.6,0.5 H 24 c 0,0 0.6,0 0.6,-0.5 V 4.5 C 24.6,4.5 24.6,4 24,4 H 4.6 z"
   inkscape:connector-curvature="0" />
	</defs>
	<clipPath
   id="clipPath4849">
		<use
   xlink:href="#SVGID_4_"
   overflow="visible"
   id="use4851"
   style="overflow:visible"
   x="0"
   y="0"
   width="32"
   height="32" />
	</clipPath>
	
		<linearGradient
   id="linearGradient4853"
   gradientUnits="userSpaceOnUse"
   x1="-118.55"
   y1="165.175"
   x2="-117.55"
   y2="165.175"
   gradientTransform="matrix(20,0,0,-20,2375,3319)">
		<stop
   offset="0"
   style="stop-color:#505050"
   id="stop4855" />
		<stop
   offset="7.292820e-03"
   style="stop-color:#505050"
   id="stop4857" />
		<stop
   offset="0.3563"
   style="stop-color:#6B6B6B"
   id="stop4859" />
		<stop
   offset="0.7492"
   style="stop-color:#838383"
   id="stop4861" />
		<stop
   offset="0.9912"
   style="stop-color:#8C8C8C"
   id="stop4863" />
		<stop
   offset="1"
   style="stop-color:#8C8C8C"
   id="stop4865" />
	</linearGradient>
	<rect
   x="4"
   y="4"
   clip-path="url(#SVGID_5_)"
   width="20.5"
   height="23"
   id="rect4867"
   style="fill:url(#linearGradient5031)" />
</g><g
   id="g4869"
   transform="matrix(0,-0.6766877,0.82313928,0,7.7286293,28.863531)">
	<defs
   id="defs4871">
		<path
   d="M 4.5,4 C 4.5,4 4,4 4,4.5 v 22 c 0,0 0,0.5 0.5,0.5 H 24 c 0,0 0.5,0 0.5,-0.5 V 4.5 C 24.5,4.5 24.5,4 24,4 H 4.5 z"
   id="path4873"
   inkscape:connector-curvature="0" />
	</defs>
	<clipPath
   id="clipPath4875">
		<use
   id="use4877"
   overflow="visible"
   xlink:href="#SVGID_1_"
   style="overflow:visible"
   x="0"
   y="0"
   width="32"
   height="32" />
	</clipPath>
	
		<linearGradient
   gradientTransform="matrix(-20.5,0,0,20.5,-2667,-3104)"
   y2="152.1707"
   x2="-130.29269"
   y1="152.1707"
   x1="-131.29269"
   gradientUnits="userSpaceOnUse"
   id="linearGradient4879">
		<stop
   id="stop4881"
   style="stop-color:#FFE67E"
   offset="0" />
		<stop
   id="stop4883"
   style="stop-color:#FFE67E"
   offset="7.292820e-03" />
		<stop
   id="stop4885"
   style="stop-color:#FEE475"
   offset="8.671100e-02" />
		<stop
   id="stop4887"
   style="stop-color:#F7DA4B"
   offset="0.4874" />
		<stop
   id="stop4889"
   style="stop-color:#F3D432"
   offset="0.8025" />
		<stop
   id="stop4891"
   style="stop-color:#F2D228"
   offset="0.9912" />
		<stop
   id="stop4893"
   style="stop-color:#F2D228"
   offset="1" />
	</linearGradient>
	<rect
   style="fill:#ffffff;fill-opacity:1"
   id="rect4895"
   height="23"
   width="20.5"
   clip-path="url(#SVGID_2_)"
   y="4"
   x="4" />
</g><g
   id="g4897"
   transform="matrix(0,-0.6766877,0.82313928,0,7.7697863,28.829697)">
	<defs
   id="defs4899">
		<path
   d="M 6.5,6.5 H 22 v 18 H 6.5 V 6.5 z M 4.6,4 C 4.6,4 4,4 4,4.5 v 21.9 c 0,0 0,0.5 0.6,0.5 H 24 c 0,0 0.6,0 0.6,-0.5 V 4.5 C 24.6,4.5 24.6,4 24,4 H 4.6 z"
   id="path4901"
   inkscape:connector-curvature="0" />
	</defs>
	<clipPath
   id="clipPath4903">
		<use
   id="use4905"
   overflow="visible"
   xlink:href="#SVGID_4_"
   style="overflow:visible"
   x="0"
   y="0"
   width="32"
   height="32" />
	</clipPath>
	
		<linearGradient
   gradientTransform="matrix(20,0,0,-20,2375,3319)"
   y2="165.175"
   x2="-117.55"
   y1="165.175"
   x1="-118.55"
   gradientUnits="userSpaceOnUse"
   id="linearGradient4907">
		<stop
   id="stop4909"
   style="stop-color:#505050"
   offset="0" />
		<stop
   id="stop4911"
   style="stop-color:#505050"
   offset="7.292820e-03" />
		<stop
   id="stop4913"
   style="stop-color:#6B6B6B"
   offset="0.3563" />
		<stop
   id="stop4915"
   style="stop-color:#838383"
   offset="0.7492" />
		<stop
   id="stop4917"
   style="stop-color:#8C8C8C"
   offset="0.9912" />
		<stop
   id="stop4919"
   style="stop-color:#8C8C8C"
   offset="1" />
	</linearGradient>
	<rect
   id="rect4921"
   height="23"
   width="20.5"
   clip-path="url(#SVGID_5_)"
   y="4"
   x="4"
   style="fill:url(#linearGradient5033)" />
</g><g
   transform="matrix(0,-0.6766877,0.82313928,0,7.7286293,28.863531)"
   id="g4923">
	<defs
   id="defs4925">
		<path
   inkscape:connector-curvature="0"
   d="M 4.5,4 C 4.5,4 4,4 4,4.5 v 22 c 0,0 0,0.5 0.5,0.5 H 24 c 0,0 0.5,0 0.5,-0.5 V 4.5 C 24.5,4.5 24.5,4 24,4 H 4.5 z"
   id="path4927" />
	</defs>
	<clipPath
   id="clipPath4929">
		<use
   height="32"
   width="32"
   y="0"
   x="0"
   style="overflow:visible"
   id="use4931"
   overflow="visible"
   xlink:href="#SVGID_1_" />
	</clipPath>
	
		<linearGradient
   gradientTransform="matrix(-20.5,0,0,20.5,-2667,-3104)"
   y2="152.1707"
   x2="-130.29269"
   y1="152.1707"
   x1="-131.29269"
   gradientUnits="userSpaceOnUse"
   id="linearGradient4933">
		<stop
   id="stop4935"
   style="stop-color:#FFE67E"
   offset="0" />
		<stop
   id="stop4937"
   style="stop-color:#FFE67E"
   offset="7.292820e-03" />
		<stop
   id="stop4939"
   style="stop-color:#FEE475"
   offset="8.671100e-02" />
		<stop
   id="stop4941"
   style="stop-color:#F7DA4B"
   offset="0.4874" />
		<stop
   id="stop4943"
   style="stop-color:#F3D432"
   offset="0.8025" />
		<stop
   id="stop4945"
   style="stop-color:#F2D228"
   offset="0.9912" />
		<stop
   id="stop4947"
   style="stop-color:#F2D228"
   offset="1" />
	</linearGradient>
	<rect
   style="fill:#ffffff;fill-opacity:1"
   id="rect4949"
   height="23"
   width="20.5"
   clip-path="url(#SVGID_2_)"
   y="4"
   x="4" />
</g><g
   transform="matrix(0,-0.6766877,0.82313928,0,7.7697863,28.829697)"
   id="g4951">
	<defs
   id="defs4953">
		<path
   inkscape:connector-curvature="0"
   d="M 6.5,6.5 H 22 v 18 H 6.5 V 6.5 z M 4.6,4 C 4.6,4 4,4 4,4.5 v 21.9 c 0,0 0,0.5 0.6,0.5 H 24 c 0,0 0.6,0 0.6,-0.5 V 4.5 C 24.6,4.5 24.6,4 24,4 H 4.6 z"
   id="path4955" />
	</defs>
	<clipPath
   id="clipPath4957">
		<use
   height="32"
   width="32"
   y="0"
   x="0"
   style="overflow:visible"
   id="use4959"
   overflow="visible"
   xlink:href="#SVGID_4_" />
	</clipPath>
	
		<linearGradient
   gradientTransform="matrix(20,0,0,-20,2375,3319)"
   y2="165.175"
   x2="-117.55"
   y1="165.175"
   x1="-118.55"
   gradientUnits="userSpaceOnUse"
   id="linearGradient4961">
		<stop
   id="stop4963"
   style="stop-color:#505050"
   offset="0" />
		<stop
   id="stop4965"
   style="stop-color:#505050"
   offset="7.292820e-03" />
		<stop
   id="stop4967"
   style="stop-color:#6B6B6B"
   offset="0.3563" />
		<stop
   id="stop4969"
   style="stop-color:#838383"
   offset="0.7492" />
		<stop
   id="stop4971"
   style="stop-color:#8C8C8C"
   offset="0.9912" />
		<stop
   id="stop4973"
   style="stop-color:#8C8C8C"
   offset="1" />
	</linearGradient>
	<rect
   style="fill:url(#linearGradient5035)"
   id="rect4975"
   height="23"
   width="20.5"
   clip-path="url(#SVGID_5_)"
   y="4"
   x="4" />
</g><g
   transform="matrix(0,-0.6766877,0.82313928,0,7.7286293,28.863531)"
   id="g4977">
	<defs
   id="defs4979">
		<path
   inkscape:connector-curvature="0"
   id="path4981"
   d="M 4.5,4 C 4.5,4 4,4 4,4.5 v 22 c 0,0 0,0.5 0.5,0.5 H 24 c 0,0 0.5,0 0.5,-0.5 V 4.5 C 24.5,4.5 24.5,4 24,4 H 4.5 z" />
	</defs>
	<clipPath
   id="clipPath4983">
		<use
   height="32"
   width="32"
   y="0"
   x="0"
   style="overflow:visible"
   xlink:href="#SVGID_1_"
   overflow="visible"
   id="use4985" />
	</clipPath>
	
		<linearGradient
   id="linearGradient4987"
   gradientUnits="userSpaceOnUse"
   x1="-131.29269"
   y1="152.1707"
   x2="-130.29269"
   y2="152.1707"
   gradientTransform="matrix(-20.5,0,0,20.5,-2667,-3104)">
		<stop
   offset="0"
   style="stop-color:#FFE67E"
   id="stop4989" />
		<stop
   offset="7.292820e-03"
   style="stop-color:#FFE67E"
   id="stop4991" />
		<stop
   offset="8.671100e-02"
   style="stop-color:#FEE475"
   id="stop4993" />
		<stop
   offset="0.4874"
   style="stop-color:#F7DA4B"
   id="stop4995" />
		<stop
   offset="0.8025"
   style="stop-color:#F3D432"
   id="stop4997" />
		<stop
   offset="0.9912"
   style="stop-color:#F2D228"
   id="stop4999" />
		<stop
   offset="1"
   style="stop-color:#F2D228"
   id="stop5001" />
	</linearGradient>
	<rect
   x="4"
   y="4"
   clip-path="url(#SVGID_2_)"
   width="20.5"
   height="23"
   id="rect5003"
   style="fill:#ffffff;fill-opacity:1" />
</g><g
   transform="matrix(0,-0.6766877,0.82313928,0,7.7697863,28.829697)"
   id="g5005">
	<defs
   id="defs5007">
		<path
   inkscape:connector-curvature="0"
   id="path5009"
   d="M 6.5,6.5 H 22 v 18 H 6.5 V 6.5 z M 4.6,4 C 4.6,4 4,4 4,4.5 v 21.9 c 0,0 0,0.5 0.6,0.5 H 24 c 0,0 0.6,0 0.6,-0.5 V 4.5 C 24.6,4.5 24.6,4 24,4 H 4.6 z" />
	</defs>
	<clipPath
   id="clipPath5011">
		<use
   height="32"
   width="32"
   y="0"
   x="0"
   style="overflow:visible"
   xlink:href="#SVGID_4_"
   overflow="visible"
   id="use5013" />
	</clipPath>
	
		<linearGradient
   id="linearGradient5015"
   gradientUnits="userSpaceOnUse"
   x1="-118.55"
   y1="165.175"
   x2="-117.55"
   y2="165.175"
   gradientTransform="matrix(20,0,0,-20,2375,3319)">
		<stop
   offset="0"
   style="stop-color:#505050"
   id="stop5017" />
		<stop
   offset="7.292820e-03"
   style="stop-color:#505050"
   id="stop5019" />
		<stop
   offset="0.3563"
   style="stop-color:#6B6B6B"
   id="stop5021" />
		<stop
   offset="0.7492"
   style="stop-color:#838383"
   id="stop5023" />
		<stop
   offset="0.9912"
   style="stop-color:#8C8C8C"
   id="stop5025" />
		<stop
   offset="1"
   style="stop-color:#8C8C8C"
   id="stop5027" />
	</linearGradient>
	<rect
   style="fill:url(#linearGradient5037)"
   x="4"
   y="4"
   clip-path="url(#SVGID_5_)"
   width="20.5"
   height="23"
   id="rect5029" />
</g></svg>