<?xml version="1.0" encoding="utf-8"?>
<!-- Generator: Adobe Illustrator 16.0.0, SVG Export Plug-In . SVG Version: 6.00 Build 0)  -->
<!DOCTYPE svg PUBLIC "-//W3C//DTD SVG 1.1//EN" "http://www.w3.org/Graphics/SVG/1.1/DTD/svg11.dtd">
<svg version="1.1" id="Ebene_1" xmlns="http://www.w3.org/2000/svg" xmlns:xlink="http://www.w3.org/1999/xlink" x="0px" y="0px"
	 width="113.39px" height="113.39px" viewBox="0 0 113.39 113.39" enable-background="new 0 0 113.39 113.39" xml:space="preserve">
<g>
	<linearGradient id="SVGID_1_" gradientUnits="userSpaceOnUse" x1="-1.4453" y1="56.8618" x2="114.5" y2="56.8618">
		<stop  offset="0" style="stop-color:#548232"/>
		<stop  offset="0.0198" style="stop-color:#548232"/>
		<stop  offset="1" style="stop-color:#75A02D"/>
	</linearGradient>
	<path fill="url(#SVGID_1_)" d="M110,114.834H3.055c-2.485,0-4.5-2.015-4.5-4.5V3.39c0-2.485,2.015-4.5,4.5-4.5H110
		c2.485,0,4.5,2.015,4.5,4.5v106.944C114.5,112.819,112.485,114.834,110,114.834z M7.555,105.834H105.5V7.89H7.555V105.834z"/>
</g>
<circle fill="#FFFFFF" stroke="#FBBB0F" stroke-width="4" stroke-miterlimit="10" cx="29.338" cy="28.527" r="9.802"/>
<circle fill="#FFFFFF" stroke="#FBBB0F" stroke-width="4" stroke-miterlimit="10" cx="29.338" cy="58.759" r="9.802"/>
<circle fill="#FFFFFF" stroke="#FBBB0F" stroke-width="4" stroke-miterlimit="10" cx="29.338" cy="88.99" r="9.802"/>
<g>
	<g>
		<linearGradient id="SVGID_2_" gradientUnits="userSpaceOnUse" x1="18.3994" y1="21.9883" x2="52.2725" y2="21.9883">
			<stop  offset="0" style="stop-color:#548232"/>
			<stop  offset="0.0198" style="stop-color:#548232"/>
			<stop  offset="1" style="stop-color:#75A02D"/>
		</linearGradient>
		<path fill="url(#SVGID_2_)" d="M29.61,34.976c-0.098,0-0.195-0.005-0.293-0.015c-1.26-0.124-2.308-1.023-2.617-2.251
			c-0.988-3.922-5.388-7.662-7-8.771c-1.363-0.938-1.711-2.805-0.775-4.169c0.937-1.364,2.798-1.714,4.163-0.783
			c0.219,0.149,3.894,2.69,6.679,6.584c3.506-5.579,10.042-14.009,18.688-16.456c1.593-0.452,3.252,0.475,3.704,2.07
			c0.451,1.594-0.476,3.252-2.07,3.704c-10.35,2.929-17.694,18.216-17.767,18.37C31.822,34.313,30.76,34.976,29.61,34.976z"/>
	</g>
</g>
<line fill="none" stroke="#FBBB0F" stroke-width="4" stroke-linecap="round" stroke-miterlimit="10" x1="49.833" y1="29.232" x2="92.834" y2="29.232"/>
<line fill="none" stroke="#FBBB0F" stroke-width="4" stroke-linecap="round" stroke-miterlimit="10" x1="49.833" y1="59.361" x2="92.834" y2="59.361"/>
<line fill="none" stroke="#FBBB0F" stroke-width="4" stroke-linecap="round" stroke-miterlimit="10" x1="49.833" y1="89.49" x2="92.834" y2="89.49"/>
</svg>
