<?xml version="1.0" encoding="utf-8"?>
<!-- Generator: Adobe Illustrator 22.0.0, SVG Export Plug-In . SVG Version: 6.00 Build 0)  -->
<svg version="1.1" xmlns="http://www.w3.org/2000/svg" xmlns:xlink="http://www.w3.org/1999/xlink" x="0px" y="0px"
	 viewBox="0 0 32 32" style="enable-background:new 0 0 32 32;" xml:space="preserve">
<style type="text/css">
	.st0{fill:none;}
	.st1{fill:none;stroke:url(#SVGID_1_);stroke-miterlimit:10;}
	.st2{fill:url(#SVGID_2_);}
	.st3{fill:url(#SVGID_3_);}
</style>
<g id="Ebene_2">
</g>
<g id="Layer_1">
	<rect class="st0" width="32" height="32"/>
	<linearGradient id="SVGID_1_" gradientUnits="userSpaceOnUse" x1="3" y1="16" x2="29" y2="16">
		<stop  offset="0" style="stop-color:#4C6486"/>
		<stop  offset="1.980000e-02" style="stop-color:#4C6486"/>
		<stop  offset="1" style="stop-color:#5A77A0"/>
	</linearGradient>
	<path class="st1" d="M3.5,16c0,6.9,5.6,12.5,12.5,12.5c6.9,0,12.5-5.6,12.5-12.5c0-6.9-5.6-12.5-12.5-12.5C9.1,3.5,3.5,9.1,3.5,16"
		/>
	<linearGradient id="SVGID_2_" gradientUnits="userSpaceOnUse" x1="14.556" y1="15.1923" x2="23.82" y2="15.1923">
		<stop  offset="0" style="stop-color:#4C6486"/>
		<stop  offset="1.980000e-02" style="stop-color:#4C6486"/>
		<stop  offset="1" style="stop-color:#5A77A0"/>
	</linearGradient>
	<path class="st2" d="M19.2,10.4c-2.3,2.3-4.6,0-4.6,2.3s4.6,2.3,4.6,6.9c0,2.3,4.6-2.3,4.6-4.6S20.8,8.8,19.2,10.4"/>
	<linearGradient id="SVGID_3_" gradientUnits="userSpaceOnUse" x1="8.4862" y1="17.9179" x2="12.874" y2="17.9179">
		<stop  offset="0" style="stop-color:#4C6486"/>
		<stop  offset="1.980000e-02" style="stop-color:#4C6486"/>
		<stop  offset="1" style="stop-color:#5A77A0"/>
	</linearGradient>
	<path class="st3" d="M12.9,15.9c0.2-2.1-3.1-2-4.1-0.8c-1,1.1,1,3.6,1.5,5.4c0.4,1.5,0.5,1.8,1.8-0.5
		C12.8,18.7,12.7,18.3,12.9,15.9"/>
</g>
</svg>
