<?xml version="1.0" encoding="utf-8"?>
<!-- Generator: Adobe Illustrator 22.1.0, SVG Export Plug-In . SVG Version: 6.00 Build 0)  -->
<svg version="1.1" id="Ebene_1" xmlns="http://www.w3.org/2000/svg" xmlns:xlink="http://www.w3.org/1999/xlink" x="0px" y="0px" width="32px" height="32px"
	 viewBox="0 0 32 32" enable-background="new 0 0 32 32" xml:space="preserve">
<style type="text/css">
	.st0{fill:#EFEFEF;stroke:#FFFFFF;stroke-miterlimit:10;}
	.st1{fill:#12466F;}
</style>
<g id="Ebene_2_1_">
</g>
<g id="Layer_1">
	<circle class="st0" cx="16" cy="16" r="13.3"/>
	<path class="st1" d="M16,14c-1.1,0-2,0.9-2,2s0.9,2,2,2s2-0.9,2-2S17.1,14,16,14L16,14z M7.9,14c-1.1,0-2,0.9-2,2s0.9,2,2,2
		s2-0.9,2-2S9,14,7.9,14z M24.1,14c-1.1,0-2,0.9-2,2s0.9,2,2,2s2-0.9,2-2S25.3,14,24.1,14z"/>
</g>
</svg>
