<?xml version="1.0" encoding="utf-8"?>
<!-- Generator: Adobe Illustrator 22.1.0, SVG Export Plug-In . SVG Version: 6.00 Build 0)  -->
<svg version="1.1" xmlns="http://www.w3.org/2000/svg" xmlns:xlink="http://www.w3.org/1999/xlink" x="0px" y="0px"
	 viewBox="0 0 650.1 674.6" style="enable-background:new 0 0 650.1 674.6;" xml:space="preserve">
<style type="text/css">
	.st0{fill:#FFFFFF;}
	.st1{fill:#003C66;}
</style>
<g id="Ebene_1">
</g>
<g id="Ebene_2">
	<g id="AXk2nR.tif">
		<g>
			<path class="st0" d="M587.3,495.5c-0.5-0.5-1-1-1.5-1.5c-0.5-0.5-1.2-1-1.6-1.6c-4.3-8.1-10.7-14.8-15.2-23.1
				c-0.9,0.3-1.9,0.5-2.9,0.9c-5.1,1.9-12.2,2-17.4,0.5c-5.7-1.7-11.2-6.5-13.9-13.7c-1.4-3.9-1.3-7.8-0.9-11.8
				c0-0.3,0.5-0.5,0.8-0.8c-0.7-1.5-2.2-1.3-3.5-1.9c-7.6-3.4-15.6-5.7-23.4-8.3c-14.9-5-29.7-10.3-44.7-15.2
				c-9-3-17.9-6.3-26.9-9.3c-14.9-5.1-29.7-10.3-44.7-15.3c-6-2-12-4.2-18-6.5c-6-2.3-12.3-3.7-18.4-5.7c-1.9-0.6-3.7-1.8-5.8-2.8
				c-1.4,2.4-2.6,4.4-3.5,6.4c-1.7,3.7-4.4,6.8-6.6,10.2c-2.9,4.4-7.9,6.3-10.7,10.7c22.2,33.5,44.4,67.1,66.6,100.7
				c3.1-1.7,6.6-2.5,10.1-3c3.7-0.6,7.3,0.4,10.5,1.7c3.4,1.3,6.2,4,9.3,6.1c3.7-2.5,7.5-5.1,11.2-7.8c3.7-2.7,7.4-5.6,11.2-8.5
				c-0.4-1.8-0.5-3.9-1.4-5.5c-2.6-4.8,0.4-8.4,2.3-12.2c0.5-0.9,1.6-1.6,2.3-2.4c2.3-2.5,4.9-3.7,8.5-4c4.9-0.4,10.4,1.5,13.4,4.7
				c4.5,4.8,4.8,13,1.4,18.8c-1.7,2.9-4.2,4.1-6.6,5.7c-2.5,1.7-7.8,1.6-11.5,0.3c-0.8-0.3-1.7-0.3-2.7-0.4
				c-1.4-1.4-2.8-2.9-4.1-4.2c-7.8,5.7-15.5,11.5-23.5,17.4c1.6,3.2,3.1,6.4,3.7,9.8c0.6,3.6,0,7.3-1.2,10.7c-1.2,3.2-3.5,6-5.6,9.5
				c11.3,13.4,22.7,27,34.3,40.8c1.8-0.9,3.7-1.9,6-3.1c11.1-0.7,16.5,4.4,19,12.9c1.4,4.9-1.7,13.1-8.4,16.5
				c-8.2,4.2-15.9,0.7-19.9-4.8c-2.2-3-3.2-6.6-3-10.5c0.2-3.8,2.3-6.6,4.8-9.8c-1.4-1.8-2.9-3.9-4.5-5.7c-3.4-3.8-6.7-7.6-9.5-11.7
				c-1.6-2.4-3.9-4.2-5.7-6.6c-4.6-6.1-10-11.5-15.2-17.5c-4.6,4-10.4,5.4-16.3,4.5c-3.4-0.5-7.6-0.6-10-4.4c-3.9,3.6-7,7.8-9.9,12
				c-1.6,2.4-3.7,4.5-5.5,6.7c-4.7,5.7-9.5,11.3-13.9,17.2c-1.1,1.5-2.7,2.6-3.9,3.7c0.4,3.3,3.1,5.2,3.8,8.3c1,4.4,1,8.3-1.5,12.2
				c-2.4,3.8-5,7-9.9,7.1c-5.3,3-9.4-0.8-13.5-2.9c-2.8-1.4-3.9-4.9-4.6-8.1c-0.3-1.2-0.6-2.3-0.9-3.7c1.5-5.2,2.5-11.2,8.8-13.9
				c5.8-2.4,11.3-2.7,16.1,1.3c10.9-13.5,21.9-27.1,32.9-40.7c-10.7-10.7-10.2-24.4,1.5-36c-22.3-33.6-44.7-67.3-67-100.9
				c-15.1,9.3-29.4,10.7-45.5,6.4c-0.6,0.8-1.5,1.6-1.8,2.7c-2.7,7.7-5.4,15.3-7.8,23.1c-2.5,7.8-5,15.4-7.7,23.1
				c-1.7,4.9-3.7,9.7-5,14.8c-1.3,5.2-3.6,10.1-5.2,15.2c-1.5,5-3,10-4.8,14.8c-1.7,4.9-3.6,9.8-5.1,14.6
				c-2.3,7.3-4.7,14.5-7.1,21.7c-1.3,3.9-2,8.1-4.1,11.7c-0.5,0.8-0.2,2.2-0.2,3.4c10,5,14.6,13.3,13.4,24.4c-0.3,3-1.6,6-3.5,8.6
				c-1.9,2.6-4.1,4.7-6.7,6.7c-2.7,2-5.8,2.3-8.8,4c0.7,3.4-1.1,7.1,1.2,10.5c0.2,0.3,0,0.7,0,1.1c0.4,6.6,0.6,13.1,1.2,19.7
				c0.2,3,0.9,6,1.5,9.3c1.7,0.5,3.9,1,6,1.7c6.6,2.1,9.1,7.5,10.1,13.5c0.5,2.8-0.7,6.4-2.2,9c-1.5,2.8-4.2,5-7.3,6.3
				c-5.7,2.2-12,1.6-16.5-2.3c-3-2.5-4.6-6.2-5.1-10.2c-0.2-1.8,0-3.7,0-5.6c1.6-2.7,2.9-5.5,5.1-8c2.3-2.6,6.1-2,8.5-4.9
				c-0.3-1-0.6-2.1-1.3-4.5c0-1.3,0.1-3.9,0-6.5c-0.2-2.3-0.8-4.5-1-6.8c-0.2-2.2,0.6-4.7-0.2-6.7c-1.4-3.8-0.7-7.6-1-11.3
				c-0.1-1.5-0.8-3-1.2-4.6c-5.6-0.8-11.4-1.2-15.3-6.3c-9.8,8-17,18-25.7,26.5c-8.7,8.5-17.2,17.1-26.1,26c3.1,2.4,3.8,6,4.4,9.5
				c0.7,3.7-0.9,7.1-2.8,10c-2.1,3.2-5.5,5.1-9.5,6.8c-0.7,0-2,0-3.3,0c-6.9,0-12.2-4.5-14.8-11c-1.6-4.1-0.6-7.6,0.6-11.3
				c1.3-3.9,4.9-5.7,7.9-7.7c2.8-2,10.8-1,14.7,0.9c0.6,0.3,1.1,0.9,2,1.6c16.7-17.2,33.3-34.3,50.2-51.7c-0.3-0.8-0.5-2.1-1.2-3
				c-2.8-4.2-4.8-8.6-4.7-13.8c0.1-4.4,2.2-8,4.1-11.8c1.8-3.4,5.3-5.1,7.5-7.3c5.9-1.8,11.2-4.6,17.1-1.1
				c16.4-48.6,32.7-97,49.1-145.5c-6.3-3.8-12.9-6.3-18.2-11c-5.4-4.7-8.7-10.9-12.9-16.7c-6.6,3.2-13,6.3-19.3,9.4
				c-9.3,4.5-18.7,9-28,13.5c-8.1,3.9-16,8.4-24.3,11.7c-9.3,3.8-18,8.8-27.2,12.9c-8.2,3.7-16,8.2-24.3,11.7
				c-7.8,3.3-15.3,7.3-23,10.9c2.6,5.8,2.8,11.7,0.2,17.7c-2.6,5.8-7.2,9.5-12.6,12.3c6.7,20.2,13.4,40.2,20.1,60.2
				c3.4-1.7,6.7-1.1,9.6,0.3c2.9,1.4,6,2.8,7.5,6.3c1.2,3.1,3.7,6.1,2.8,9.4c-1.1,4-2.2,8.4-5.9,10.9c-7.6,5.1-14.9,5.7-23.8-4.5
				c-1.9-5-2.3-10,0.4-15.9c1.6-1.5,4-3.7,7.1-6.6c0.6-2.9-1.6-6.2-2.7-9.6c-3.7-11.9-7.9-23.6-11.9-35.4c-1.7-5.1-3.3-10.2-5-15.3
				c-6.5,2.6-16.1,1.7-24.4-7.6c-11.2,7.8-22.3,15.5-33.3,23.1c0.2,0.6,0.2,0.8,0.2,0.9c1.9,3,2.4,6.4,1.9,9.8
				c-0.2,1.6-1.6,3.1-2.1,4.7c-1.1,3.2-4.5,4.3-5.6,6.6c-5.4,2.2-10.3,2.1-15.4,0.2c-2.9-3-6.6-5.8-8.5-12.8
				C-0.5,507.6,1.2,503,4,499c2.9-4,7.7-4.7,12.4-5.9c4.1,1.3,8.8,2.3,12.5,6.1c11.3-7.8,22.3-15.5,33.3-23.1
				c-5.2-8.7-4.5-16.9,0.7-24.7c4.9-7.3,12.2-10.6,20.9-9.9c3.5,0.3,6.8,2.2,10.1,4c3.5,1.9,4.9,5.6,7.9,8
				c7.3-3.6,14.6-7.6,22.1-10.9c8.5-3.8,16.6-8.6,25.2-12.2c9.1-3.8,17.7-8.7,26.7-12.6c8.4-3.7,16.2-8.6,24.7-12
				c9.4-3.7,18-8.8,27.2-12.9c6.5-2.8,12.8-6,19.6-9.2c-2.5-7-4.6-14-4.8-21.7c-17.7,0-35.3,0-53.4,0c-0.6,6.3-3,12.2-8.4,16.2
				c-5,3.8-10.9,6-17,4.7c-10.7-2.2-19.5-9.1-19.8-25.2c-17.6-3-35.2-6-53.3-9.1c-1.9,5-4.7,10.1-14,12.3c-3.4,0.5-9.4-0.3-13.6-5.7
				c-4.1-5.3-3.8-11.3-1.4-18.4c0.7-0.6,2.2-1.9,3.7-3.4c1.7-1.7,3.7-2.5,6-3.2c2.4-0.8,4.3-1.4,6.4,0.2c5.7-0.5,7.9,4.5,11.5,7.3
				c0.5,3.1,0.9,6.1,1.4,9.3c8.8,1.5,17.9,3.2,26.9,4.7c9.1,1.5,18.1,2.9,27.2,4.4c1.5-6.4,5.3-11.3,10.9-15.1
				c-2.7-7.3-7.2-13.3-10.4-20c-3.2-6.5-6.3-13.1-9.6-19.9c-0.8,0.4-1.6,0.8-3.1,1.6c-3-0.3-6.7-0.7-10.2-1.1c-2.7-2.7-5-5-7.2-7.2
				c-1.9-5.3-2-10.1,0.8-15c1.7-3,3.8-5.6,6.9-6.4c2.8-0.8,5.5-2.8,8.7-1.4c3.7,1.6,8,2.3,10.3,6c4.5,7.4,5.7,14.6-4.7,23.5
				c6.6,12.7,13.2,25.4,20,38.4c1.5-0.5,3.7,0.9,5.3-1c7-0.7,13.4,0.5,19,5.3c5,4.3,7,10.4,7.5,15.6c17.8,0,35.6,0,53.5,0
				c0.9-15.6,6.6-28.9,18-39.4c-5.6-6-11.3-11.8-16.5-18c-5.8-6.8-11.8-13.4-17.8-20.1c-5.7-6.4-11.3-12.9-17-19.3
				c-6-6.7-11.8-13.4-17.8-20.1c-6-6.6-11.8-13.4-17.8-20.1c-3-3.4-6.1-6.8-9.2-10.1c-1.1-1.2-1.8-2.6-2.8-4
				c-0.9,0.1-2.1-0.1-2.6,0.4c-6.5,5.7-13.9,4.4-21.3,2.8c-3.3-2.8-7.6-4.3-9.9-8.6c-2.3-4.3-4.2-8.6-3.8-13.5
				c0.1-1.7,0.7-3.4,1.1-5.4c-20.4-7.2-41-14.5-61.8-21.8c-3.2,2.7-4.8,6.9-9.3,8.3c-3.4,1-6.8,1-9.8,1c-4.3-2.1-8.4-4.1-10.2-8.7
				c-1-2.6-2.5-5.3-1.9-8.1c0.8-3.6,2.3-7.2,4.8-9.7c2.5-2.5,6.2-3.8,9.7-4.8c1.7-0.5,8.9,1.9,10.4,3.1c2.9,2.3,4.6,5.4,6.3,9
				c0,2.2,0,4.8,0,7.8c2.5,1.1,5.1,2.7,7.9,3.5c9.5,2.7,18.6,6.4,28,9.6c7.4,2.5,14.7,5,22.1,7.5c1.3,0.4,2.7,0.8,3.6,1
				c2.5-3.1,4.2-6.6,7.1-8.5c2.8-1.8,5.4-4.8,9.9-4c-0.2-2.7,0.4-5.6-0.7-7.6c-1.3-2.5,0.8-5.2-1.4-7.3c-0.2-0.2-0.3-0.6-0.3-1
				c-0.4-4-0.6-7.9-1.2-11.9c-0.4-3-1.5-6-1.1-9.1c-2.5-2.4,0.3-6.2-2.2-8.6c-0.2-0.2,0-0.7,0-1.1c0-2.7-0.3-5.3-0.9-8
				c-0.6-2.5-0.3-5.3-1.2-7.9c-0.3-1-0.1-2.2-0.1-3.7c-7.9,0.9-13-3.1-16.7-9.3c-0.1-1.7,0.3-3.7-0.5-4.8c-1.3-1.9,1.2-2.6,0.5-4.4
				c-0.8-2.1,0.8-4.1,2.3-5.6c2.1-2.2,4.5-4.2,6.3-5.9c11.9-0.8,16.3,0.3,21.4,10.4c1.1,10.4-1,15.6-12.3,20.4
				c0.9,5.2,1.9,10.5,2.5,15.8c0.6,4.9,1.2,9.9,2.3,14.7c0.6,2.7,0.3,5.5,1.1,7.9c0.9,2.5,0.3,5.1,1.1,7.4c0.9,2.7,0.4,5.5,1.1,7.9
				c0.8,2.5,0.8,4.9,1,7.4c0.1,1,0.9,1.8,1.5,3.1c10.3-0.3,18.6,4.2,22.6,13.9c3.3,8,2.8,15.8-5.3,25c6.7,7.4,13.6,14.6,20.1,22.2
				c5.5,6.4,11,12.7,16.6,18.9c6.1,6.8,12.1,13.7,18.2,20.5c5.9,6.5,11.6,13.2,17.4,19.7c6.3,6.9,12.4,14,18.6,20.9
				c2.8,3.1,5.6,6.2,8.3,9.3c0.9-0.1,2,0.2,2.3-0.2c2-3,5.5-3.9,8.3-5.8c3.1-2.1,6.8-3.2,10.6-4.2c2.3-0.6,4.5-1.3,7.2-0.9
				c0-2.2,1-4.3-0.8-6.2c-0.2-0.2-0.1-0.7-0.1-1.1c-0.4-4.5-0.7-9-1.1-13.5c-0.2-2.1-0.7-4.2-1.1-6.3c-0.4-2.1,0.9-4.4-1.1-6.3
				c-0.2-0.2,0-0.7,0-1.1c-0.4-4.5-0.6-9.1-1.2-13.5c-0.4-3.2-0.7-6.5-1.3-9.6c-0.6-3.2-0.2-6.6-1.1-9.6c-0.9-2.9-0.2-5.9-1.1-8.5
				c-0.9-2.9-0.9-5.7-1-8.5c0-2.2-1.6-3.9-1.2-6.3c0.3-1.9,0.7-4-1-5.7c-0.2-0.2,0-0.7,0-1.1c-0.4-4.7-0.3-9.5-1.3-14.1
				c-0.6-3.1-0.4-6.2-1.1-9.1c-0.8-3.1-0.4-6.2-1.1-9.1c-0.8-3.1-0.3-6.2-1.1-9.1c-0.9-3.1-0.2-6.3-1.1-9c-1.1-3.4-0.6-6.8-1.1-10.6
				c-4.3,0.5-8.4-0.3-12.4-2.1c-3.9-1.8-6.4-5.3-9.5-8c-5.4,3.2-10.7,6.2-16,9.3c3.1,8.2,3,12.7-5.7,20.6c-12.8,4.5-18.7,0-22.2-7.1
				c-4-8.1,0.7-16.7,5.4-19.3c8.2-4.6,16.5-3,21.7,4.5c5.4-3.1,10.8-6.2,16.5-9.5c-0.7-1.5-1.4-3-2.3-4.8
				c-0.6-8.1-0.1-16.2,6.9-22.4c-13-15.5-25.8-30.8-38.4-45.8c-3.3,1-6.3,2.4-9.5,2.9c-3.2,0.4-6-1.4-8.8-2.9c-2-1-3.5-2.1-4.3-4.3
				c-0.8-2.3-2.2-4.3-3-6.6c-0.4-1-0.6-2.5,0-3.2c1.8-2.5,0.7-6.1,3.4-8.2c1.5-1.1,2.6-2.7,4.1-3.7c1.2-0.9,2.8-1.4,4.7-2.3
				c9.9-1,14.7,2.5,17.6,8.2c3.2,6.5,2.3,13.2-3.3,18.6c3.2,3.7,6.5,6.9,9.1,10.6c4.1,5.7,9.3,10.5,13.2,16.4
				c1.8,2.7,4.6,4.5,6.5,7.4c2.9,4.3,6.9,8,10.4,11.8c7.9-5.3,14.6-5.9,22.6-2.3c7.2-13.7,14-27.6,20.7-41.3
				c-1.2-1.8-3.5-1.5-3.9-3.9c-0.2-1.6-2.1-2.8-2.8-4.4c-0.7-1.6-0.7-3.4-1.2-5.8c1.5-4.4,2-10.2,8.1-13.1c3.8-1.8,7.6-3,11.4-1.9
				c8,2.5,14.5,8.9,10.4,22.8c-6.6,6.3-5.3,8.3-20.7,7.3c-6.8,13.6-13.6,27.3-20.4,40.9c3.6,1.7,6.3,4.8,8.6,8
				c2,2.9,2.6,6.7,3.9,10.3c20.9,0,42,0,63.5,0c-0.3-3.1,0.9-5.6,3.1-8c2.9-3.2,6.3-5.6,10.3-6.2c5.5-0.9,11.8,2,16.9,10.6
				c0,2,0,4.3,0,6.5c0.1,7.7-5.6,12.6-12.6,14.1c-7.3,1.5-15.5-3.8-17.6-10.7c-0.3-1,0-2.2,0-3.5c-21.1,0-42.2,0-63.4,0
				c-2.2,2.5-1.8,6.3-3.6,9.4c-2.3,4-5.1,7.1-9,9.4c-1.2,0.7-2.7,0.7-4,1.2c-1,0.3-1.9,0.8-3.1,1.3c0.7,2.1-0.7,4.2,1.1,5.9
				c0.3,0.3,0.1,1,0.2,1.6c0.4,4.7,0.3,9.5,1.3,14.1c0.7,3.1,0.3,6.2,1.1,9.1c0.8,3.1,0.3,6.2,1.1,9.1c0.9,3.1,0.3,6.2,1.1,9.1
				c0.8,2.9,0.4,5.8,1.1,8.5c0.9,3.2,0.2,6.6,1.2,9.6c1,3.1,0.1,6.3,1.1,9.1c1.1,2.9,0.2,5.9,1.1,8.5c1,2.9,0.9,5.7,1,8.5
				c0.1,2.1,1.5,4,1.2,6.3c-0.3,1.9-0.6,4,1,5.7c0.2,0.2,0,0.7,0,1.1c0.4,4.5,0.4,9.1,1.2,13.5c0.6,3.2,0.5,6.5,1.2,9.6
				c0.8,3.3,0,6.8,1.2,9.6c1.3,3.1,0.3,6,1.3,9c0.8,2.7,0.7,5.7,1.1,9c2.4,0,4.9,0,7.5,0c5.4-0.1,10.6,1.4,15.8,2.4
				c3.1,0.6,5.9,2.9,9.2,4.6c1.3-1.7,2.7-3.2,3.7-5c3.2-5.6,6.2-11.3,9.4-16.8c3.4-5.9,7-11.7,10.5-17.5c1.7-2.8,3.6-5.6,5.1-8.5
				c3.2-6.4,7.3-12.3,10.7-18.6c3-5.7,6.5-11.1,9.6-16.7c3.3-5.9,6.9-11.7,10.2-17.6c1.9-3.3,3.6-6.7,5.6-10
				c3.5-5.8,7.2-11.6,10.6-17.4c3.2-5.5,6.2-11.3,9.4-16.8c3.4-5.9,7-11.7,10.4-17.5c1.8-3.1,3.3-6.5,5.3-9.6
				c5.5-8.3,9.5-17.5,15.3-25.6c1-1.4,1.5-3.1,2.4-5c-3.3-3.5-7.6-6.7-8.8-12.1c-0.1-0.5-1-0.8-1-1.2c-0.7-7.9-0.1-15.7,6.1-21.5
				c3.1-2.9,6.7-5.7,11.5-5.9c1,0,1.9-1,2.9-1c2.3,0.1,4.6,0.4,7.1,0.7c3.7-12.6,7.5-25.5,11.4-38.5c-4.1-1.5-7.4-4-8.9-8.7
				c-0.4-1.2-0.9-2.3-0.9-3.5c0-2.6,0-5.2,0-6.7c1.5-4.6,4.2-7.2,7.2-9.2c2.1-1.3,4.9-1.8,7.4-2.4c1.1-0.3,2.3,0.1,3.6,0.6
				c5,2.1,5.1,1.9,11.2,8.1c0.3,3.7,0.7,7.8,1,11.1c-4,8.6-9.9,12.5-19,11.4c-3.7,12.6-7.5,25.2-11.3,38.1c1.4,0.8,3.1,1.7,5.8,3.2
				c1.6,1.7,4.2,4.1,6.3,6.9c1.9,2.5,2.4,5.8,3.2,8.7c0.8,3.1-0.4,6.7-0.8,10.6c14,5.5,28.1,11.1,42.1,16.6
				c1.9-4.5,5.8-6.6,10.5-8.8c11.8-1.7,20.5,6,19.2,18.1c-1.5,5.3-4.2,8.5-7.5,10.9c-1.7,1.3-4.5,2.4-6.3,1.9
				c-2.5-0.7-5.1,0.2-7.2-1c-3.5-1.9-6.6-4-8.3-8.1c-2.1-5-2.3-4.9-0.9-11.4c-14-5.6-28.1-11.2-42.5-16.9c-5,11-14.4,14.4-26.5,12.9
				c-1-0.5-2.4-1.3-3.9-2.1c-0.4,0.2-1,0.4-1.2,0.8c-1.5,2.4-3,4.7-4.4,7.2c-3.9,7-8.1,13.9-12.1,20.8c-3.4,5.9-6.9,11.6-10.2,17.6
				c-3.1,5.7-6.8,11-9.8,16.7c-2.8,5.4-6.2,10.5-9.1,15.8c-3.5,6.4-7.3,12.7-11.1,18.9c-3.3,5.5-6.2,11.3-9.4,16.8
				c-3.4,5.9-7,11.7-10.4,17.5c-1.4,2.4-2.8,4.8-4.1,7.3c-4.6,8.8-9.9,17.1-14.8,25.8c-3.9,7-8.1,13.8-12.1,20.8
				c-2.8,4.8-6.1,9.3-8.3,14.5c-0.3,0.6-1,1.1-1.8,1.8c4.1,3.4,8.7,6.3,12.1,10.2c3.3,3.8,6.8,7.7,8.5,13c1.1-0.3,2.1-0.4,3-0.8
				c9.7-4.6,19.2-9.5,29-13.8c6.5-2.8,12.8-6.1,19.2-9.1c7-3.3,13.9-7.1,21.1-10c6.8-2.7,13.1-6.3,19.7-9.2c6.2-2.7,12-6.3,18.2-8.7
				c7-2.7,13.3-6.6,20.2-9.4c6.1-2.5,11.7-6,17.8-8.5c6.7-2.8,13.1-6.2,19.7-9.1c6.5-2.9,12.8-6,19.3-8.9c2.4-1.1,4.7-2.2,7-3.3
				c-0.6-3.5-2.4-6.6-1.9-9.9c0.5-3.3,1.5-6.5,2.4-9.9c-0.9-0.6-1.8-1.1-2.7-1.6c-8.5-5.2-17.2-9.9-25.7-15.2
				c-6.9-4.3-14.2-8-20.9-11.7c-3.4,2.5-6.4,4.6-8.9,6.4c-6.4,1.2-11.4-0.6-15.5-4.4c-4.7-4.3-3.9-10.2-3.8-15.9
				c6.2-14,20.5-14,28.7-2.9c1.9,5.3,2.2,10,0.1,15c16.7,9.7,33.1,19.3,50,29.1c2.1-3.8,5.3-6.3,8.9-8c3.7-1.7,7.7-3.2,11.8-2.5
				c3.9,0.7,8.1,0.8,11.1,4.6c8.9-11.3,17.7-22.4,26.5-33.6c-1.4-2.2-2.9-4-3.7-6.1c-3.1-8.8-0.2-17.3,9.6-21c7.4-2.8,16,1.8,19,9.2
				c0.8,2,2.4,4.4,1.4,6.6c-1.4,2.8-1,6.2-3.5,8.7c-2.5,2.4-5.2,4.5-8.4,5.6c-2.2,0.7-4.9,0.4-7.2,0.1c-2-0.3-3.9-1.5-5.8-2.3
				c-8.8,11.2-17.5,22.2-26.3,33.3c8,8,10,17.2,5.4,27.7c8,4.6,16,9.2,24,13.8c4.6,2.7,9.3,5.4,14.2,7.7c0.8,0.4,1.7,0.5,2.4,0.7
				c6.6-6.7,11.4-7.8,17.6-5.8c7,2.3,9.8,7.8,11.1,14.9c-1.4,5.5-3,11.6-9.6,14.3c-4.3,1.7-9,2-13-0.1c-7.5-3.9-10.7-12.2-7.4-20.6
				c-1-0.9-1.9-2.2-3.2-2.8c-6.9-3.3-13.3-7.5-20-11.3c-5.5-3-10.9-6-16.6-9.2c-5.3,6.3-11.5,10.6-20.3,10.4
				c-8.7-0.2-14.5-4.9-18.9-11.3c-1,0-1.7-0.2-2.1,0c-7.3,3.5-14.7,7-22,10.5c-7.2,3.4-14.2,7.2-21.5,10.2c-5.8,2.3-11.1,5.6-16.9,8
				c-7.2,2.9-14,6.9-21.1,9.8c-5.5,2.2-10.5,5.2-16,7.4c-4.1,1.7-8.2,3.7-12.3,5.6c-3.9,1.9-7.7,3.8-11.6,5.7
				c-6.1,3-12,6.3-18.2,8.7c-6.8,2.6-13.1,6.3-19.7,9.2c-6.2,2.7-12.1,6-18.2,8.8c-4.5,2.1-9.2,4-14.2,6.1
				c2.7,6.6,3.9,13.3,4.8,20.1c1,6.9-1.9,13.5-2.3,20.5c11.2,3.2,22.3,6.8,33.1,10.8c10.4,3.8,21,6.9,31.3,10.9
				c6.8,2.6,13.7,4.9,20.6,7.1c4.9,1.6,9.7,3.6,14.6,5.2c8.2,2.8,16.4,5.4,24.6,8.2c14.9,5.2,29.6,10.6,44.6,15.4
				c4.8,1.5,9.4,3.5,14.1,5.2c0.8,0.3,1.7,0.3,2.6,0.5c5.9-15.7,28.4-18.2,37-6.8c15.1-13,30.2-26,45.6-39.3
				c-2.3-5.4-3.9-11.2-1.5-17.4c1.4-1.3,2.7-2.5,4.1-3.8c5.3-5,12.8-5.8,18.8-1.7c4.4,3,6,6.6,6.4,11.4c0.1,0.8,0.7,1.6,0.9,2.2
				c-2.3,10.3-8.2,15.9-19.5,14.8c-2.2-1.3-4.8-2.8-7.7-4.6c-15.1,13-30.3,26-45.5,39.1c8.5,14.9,4.3,24.7-4.4,32.2
				C575.4,477,582.5,485.5,587.3,495.5z"/>
			<path class="st0" d="M588,494.9c3.3,4.5,6.8,9,10,13.6c3.1,4.5,6,9.1,9,13.7c2.8-0.8,5.5-2.2,8.1-2.1c3,0.1,6.4,0.8,9,2.4
				c2.8,1.7,4.9,4.5,6.2,7.9c3.2,8.9-2.3,16.5-8.3,19.6c-0.8,0.4-1.6,0.7-3,1.2c-7.3,1-13.5-1.6-17.2-8.9
				c-3.2-6.1-2.2-12.5,4.2-19.1c-3.1-4.6-6.1-9.3-9.3-13.8C593.2,504.9,590,500.3,588,494.9z"/>
		</g>
	</g>
	<g>
		<g>
			<g>
				<g>
					<path class="st1" d="M312.1,381.4h-36.6c-2.1,0-3.8-1.7-3.8-3.8v-19.3c0-2.1,1.7-3.8,3.8-3.8h36.6c2.1,0,3.8,1.7,3.8,3.8v19.3
						C316,379.7,314.2,381.4,312.1,381.4z"/>
				</g>
			</g>
		</g>
		<g>
			<g>
				<circle class="st1" cx="314.3" cy="347.8" r="1"/>
			</g>
		</g>
		<g>
			<g>
				<path class="st1" d="M276.3,385.8c0,0.9-0.7,1.6-1.6,1.6h-1.4c-0.9,0-1.6-0.7-1.6-1.6v-8.1c0-0.9,0.7-1.6,1.6-1.6h1.4
					c0.9,0,1.6,0.7,1.6,1.6V385.8z"/>
			</g>
		</g>
		<g>
			<g>
				<path class="st1" d="M287.7,385.2c0.2,0.9-0.3,1.7-1.2,1.9l-2,0.4c-0.9,0.2-1.7-0.3-1.9-1.2l-1.7-7.5c-0.2-0.9,0.3-1.7,1.2-1.9
					l2-0.4c0.9-0.2,1.7,0.3,1.9,1.2L287.7,385.2z"/>
			</g>
		</g>
		<g>
			<g>
				<path class="st1" d="M307.8,385.8c0,0.9-0.7,1.6-1.6,1.6h-1.6c-0.9,0-1.6-0.7-1.6-1.6v-5.6c0-0.9,0.7-1.6,1.6-1.6h1.6
					c0.9,0,1.6,0.7,1.6,1.6V385.8z"/>
			</g>
		</g>
		<g>
			<g>
				<path class="st1" d="M316,385.8c0,0.9-0.7,1.6-1.6,1.6H313c-0.9,0-1.6-0.7-1.6-1.6v-8.1c0-0.9,0.7-1.6,1.6-1.6h1.5
					c0.9,0,1.6,0.7,1.6,1.6V385.8z"/>
			</g>
		</g>
		<g>
			<g>
				<g>
					<path class="st1" d="M318.5,346c0-0.1-0.1-0.1-0.1-0.2c-0.3-0.6-0.9-1.1-1.2-1.6c-0.4-0.6-0.9-1.1-1.6-1.5l-1.3-0.9
						c-2.9-1.9-6.8-1.2-8.7,1.7l-8.7,12.9c-1.9,2.9-1.2,6.8,1.7,8.7l1.3,0.9c2.9,1.9,6.8,1.2,8.7-1.7l4.6-6.8
						c0.5-0.7,1.4-0.9,2.1-0.6l5.3,2.4c0.7,0.3,1.5,0.1,2-0.5l2.1-2.5c0.5-0.6,0.5-1.5,0-2.1L318.5,346z M313.5,351.1
						c-1.8,0-3.3-1.5-3.3-3.3c0-1.8,1.5-3.3,3.3-3.3c1.8,0,3.3,1.5,3.3,3.3C316.8,349.6,315.3,351.1,313.5,351.1z"/>
				</g>
			</g>
			<g>
				<g>
					<path class="st1" d="M296.2,353.3c0.4,0,0.8-0.2,1-0.5l7.3-10.5c1.4-2,3.5-3.2,5.4-3.1c2.2,0,4.3,0.8,6.1,2c0,0,0.1,0,0.1,0.1
						l0,0c0.2,0.1,0.6-0.5,0.8-1.4l1.1-4.6c0.1-0.4-0.2-0.8-0.6-0.8h-9.3c-0.9,0-1.5,0-1.5,0l0,0c-1.9-0.1-4,1.1-5.4,3.1l-8.6,12.7
						c-0.5,0.7-0.8,1.4-0.9,2.1c-0.1,0.4,0.2,0.8,0.6,0.8H296.2z"/>
				</g>
			</g>
		</g>
		<g>
			<g>
				<path class="st1" d="M288,353.3l-2,0c-0.2,0-0.4-0.2-0.4-0.4c-0.2-5.3-4.4-9.6-9.7-9.7c-0.1,0-0.2-0.1-0.2-0.2v-2
					c0-0.2,0.1-0.3,0.3-0.3c6.7,0.2,12.1,5.6,12.3,12.3C288.3,353.1,288.2,353.3,288,353.3z"/>
			</g>
		</g>
		<g>
			<g>
				<path class="st1" d="M291.9,348.5c-2-6.9-8.4-12-16-12.1c-0.1,0-0.2,0.1-0.2,0.2v2.4c0,0.1,0.1,0.2,0.2,0.2
					c7.2,0.1,13.1,6,13.8,13c0,0.2,0.3,0.3,0.4,0.1l1.7-3C291.9,349.1,291.9,348.8,291.9,348.5z"/>
			</g>
		</g>
		<g>
			<g>
				<path class="st1" d="M294.8,344.5c-3.3-7.1-10.5-12.1-18.8-12.2c-0.1,0-0.3,0.1-0.3,0.3v2.3c0,0.1,0.1,0.3,0.3,0.3
					c7.7,0.1,14.3,5.1,16.8,12c0.1,0.2,0.3,0.2,0.5,0.1l1.5-2.4C294.8,344.7,294.8,344.6,294.8,344.5z"/>
			</g>
		</g>
	</g>
</g>
</svg>
