<?xml version="1.0" encoding="utf-8"?>
<!-- Generator: Adobe Illustrator 23.0.1, SVG Export Plug-In . SVG Version: 6.00 Build 0)  -->
<svg version="1.1" id="Ebene_1" xmlns="http://www.w3.org/2000/svg" xmlns:xlink="http://www.w3.org/1999/xlink" x="0px" y="0px"
	 viewBox="0 0 32 32" style="enable-background:new 0 0 32 32;" xml:space="preserve">
<g>
	<g id="Ebene_2_1_">
	</g>
</g>
<g>
	<g>
		<path d="M24.4,17L24.4,17V6H7.6v11l0,0v0.8h4l-2.9,6.3c-0.2,0.6,0,1.3,0.6,1.5c0.2,0.2,0.4,0.2,0.5,0.2c0.3,0,0.8-0.2,1.1-0.7
			l1.1-2.4h8l1.1,2.4c0.3,0.6,0.7,0.7,1,0.7c0.1,0,0.3,0,0.6-0.2c0.2-0.2,0.5-0.3,0.6-0.6s0.1-0.6,0-0.9l-2.9-6.3h4V17z M22.3,25
			L22.3,25c-0.2,0.1-0.4,0.1-0.6-0.2L20.5,22h-9l-1.3,2.8C10.1,25,9.9,25,9.8,25l-0.1-0.1c-0.2-0.1-0.2-0.3-0.2-0.5L13,17h-0.1l0,0
			l-4.5-0.1v-0.6h15.2V17h-4.5l0,0l0,0l3.4,7.4C22.6,24.6,22.5,24.9,22.3,25z"/>
		<path d="M18.1,17.1L18.1,17.1L13.4,17v0.4l-1.7,3.8h8.4l-1.7-3.7C18.5,17.3,18.2,17.2,18.1,17.1z M13,20.4l1.2-2.6h3.6l1.1,2.6H13
			z"/>
	</g>
</g>
</svg>
