<?xml version="1.0" encoding="utf-8"?>
<!-- Generator: Adobe Illustrator 23.0.1, SVG Export Plug-In . SVG Version: 6.00 Build 0)  -->
<svg version="1.1" id="Ebene_1" xmlns="http://www.w3.org/2000/svg" xmlns:xlink="http://www.w3.org/1999/xlink" x="0px" y="0px"
	 viewBox="0 0 1000 972.8" style="enable-background:new 0 0 1000 972.8;" xml:space="preserve">
<style type="text/css">
	.st0{fill:#FFFFFF;}
</style>
<g>
	<path class="st0" d="M346.3,267.1c0,10.1-8.2,18.2-18.2,18.2s-18.2-8.2-18.2-18.2s8.2-18.2,18.2-18.2
		C338.1,248.9,346.3,257.1,346.3,267.1z"/>
	<path class="st0" d="M341.3,204.9c1.5,8.2-5.3,16.3-15.2,18.2s-19.1-3.2-20.7-11.4c-1.5-8.2,5.3-16.3,15.1-18.2
		C330.4,191.6,339.8,196.8,341.3,204.9z"/>
	<path class="st0" d="M298.3,255.2c-2,9.3-10.6,15.4-19.4,13.6c-8.8-1.8-14.3-10.8-12.5-20.1c2-9.3,10.6-15.4,19.4-13.6
		C294.7,236.9,300.2,245.9,298.3,255.2z"/>
	<path class="st0" d="M290.2,204.9c-6.4,7.6-16.2,9.8-21.9,5s-5.1-14.9,1.4-22.4c6.5-7.6,16.2-9.8,21.9-5
		C297.2,187.4,296.6,197.4,290.2,204.9z"/>
	<path class="st0" d="M328.7,172.5c-9.3,1.7-17.8-1.7-18.9-7.7c-1.1-5.9,5.6-12.1,14.9-13.8c9.4-1.7,17.8,1.7,18.9,7.7
		C344.8,164.6,338.1,170.8,328.7,172.5z"/>
	<path class="st0" d="M339.5,138.2c-9,0.2-16.4-2.3-16.4-5.3c-0.1-3.2,7.2-5.8,16.2-6c9-0.2,16.4,2.2,16.4,5.3
		C355.8,135.4,348.5,138.1,339.5,138.2z"/>
	<path class="st0" d="M364,124.4c-9-0.9-16.2-2.5-16.1-3.5c0.1-1.1,7.5-1.3,16.4-0.4c9,0.9,16.1,2.5,16.1,3.6
		C380.3,125.2,372.9,125.3,364,124.4z"/>
	<path class="st0" d="M309.1,129.8c-8.8,2-16.3,2.1-16.7,0.3c-0.4-1.8,6.4-5,15.2-6.9c8.8-2,16.3-2.1,16.7-0.3
		C324.7,124.7,318,127.7,309.1,129.8z"/>
	<path class="st0" d="M292.2,160.2c-7.9,4.4-16.1,4.7-18.2,0.8c-2.2-4,2.5-10.7,10.4-15s16.1-4.7,18.2-0.8
		C304.7,149.1,300.1,155.8,292.2,160.2z"/>
	<path class="st0" d="M243,189.3c-6.2,7.5-14,11.3-17.3,8.6c-3.3-2.8-1-11,5.3-18.5c6.2-7.5,13.9-11.3,17.2-8.6
		C251.6,173.5,249.2,181.8,243,189.3z"/>
	<path class="st0" d="M243.7,235.7c-3.1,9.2-10.1,15.2-15.5,13.4c-5.5-1.9-7.4-10.8-4.4-20s10.1-15.2,15.5-13.4
		C244.8,217.5,246.8,226.6,243.7,235.7z"/>
	<path class="st0" d="M252,285.7c-0.8,8.9-6.4,15.7-12.5,15.2c-6.2-0.5-10.6-8.2-9.8-17c0.8-8.9,6.4-15.7,12.6-15.2
		C248.4,269.1,252.8,276.8,252,285.7z"/>
	<path class="st0" d="M221.4,283.4c-0.8,8.9-4.8,15.8-9,15.5s-7-7.9-6.2-16.7c0.8-8.9,4.8-15.8,9-15.5
		C219.4,267,222.2,274.5,221.4,283.4z"/>
	<path class="st0" d="M213.8,236.4c-2.1,8.7-6.6,15-9.9,14.2c-3.3-0.8-4.3-8.5-2.1-17.2c2.1-8.6,6.6-15,9.9-14.2
		C215,220,215.9,227.7,213.8,236.4z"/>
	<path class="st0" d="M197.9,285.2c0.4,8.9-0.6,16.2-2.3,16.3c-1.6,0.1-3.2-7.1-3.5-16.1c-0.4-8.9,0.6-16.2,2.2-16.3
		S197.4,276.3,197.9,285.2z"/>
	<path class="st0" d="M196.1,242.3c-1.2,8.9-2.7,15.9-3.3,15.8c-0.7-0.1-0.2-7.4,1.1-16.1c1.2-8.9,2.7-16,3.4-15.8
		C197.8,226.2,197.3,233.5,196.1,242.3z"/>
	<path class="st0" d="M216.1,193.5c-4.7,8-9.5,13.8-10.9,13.1c-1.3-0.8,1.5-7.8,6.2-15.8c4.7-8,9.6-13.8,10.9-13.1
		C223.6,178.4,220.8,185.5,216.1,193.5z"/>
	<path class="st0" d="M255.6,151.4c-7.6,5.3-14.4,8.6-15.2,7.4c-0.9-1.2,4.6-6.5,12.2-11.9c7.6-5.3,14.4-8.6,15.2-7.4
		C268.6,140.8,263.1,146,255.6,151.4z"/>
	<path class="st0" d="M209.2,324.8c1.6,7.8,1.7,14.4,0.3,14.7c-1.4,0.3-3.9-5.9-5.5-13.7c-1.6-7.8-1.7-14.4-0.3-14.7
		C205.1,310.9,207.6,317,209.2,324.8z"/>
</g>
</svg>
