<?xml version="1.0" encoding="utf-8"?>
<!-- Generator: Adobe Illustrator 23.0.3, SVG Export Plug-In . SVG Version: 6.00 Build 0)  -->
<svg version="1.1" id="b4d82369-fc81-4db3-968c-79d3e36539b1"
	 xmlns="http://www.w3.org/2000/svg" xmlns:xlink="http://www.w3.org/1999/xlink" x="0px" y="0px" viewBox="0 0 349.6 193.1"
	 style="enable-background:new 0 0 349.6 193.1;" xml:space="preserve">
<g>
	<path d="M104.2,51.3c0-0.5,0-1.1,0-1.6c-0.1-1.2-0.3-2.5-0.2-3.7c0.1-1.5,1.4-2.3,2.4-3.1c1.8-1.4,3.3-3.1,4.4-5.1
		c1-1.8,1.9-3.6,2.9-5.4c0.5-0.9,0.9-1.9,1.2-2.9c0.2-0.7,0.4-1.5,0.4-2.3c-0.1-3.1-0.2-6.2-0.4-9.3c-0.1-1.6-0.2-3.2-0.2-4.8
		c0-0.8,0.3-1.2,1-1.4c2.8-0.7,5.5-1.5,8.3-2.2c3.2-0.8,6.3-1.5,9.5-2.2c2.4-0.5,4.9-1,7.3-1.4c1.5-0.3,3-0.6,4.5-0.9
		c1-0.2,1.9-0.3,2.9-0.4c1.3-0.1,2.7-0.3,4-0.4c1.1-0.1,1.2-0.3,1-1.4c-0.1-0.4-0.1-0.9,0-1.4c0.1-0.3,0.4-0.7,0.6-0.7
		c0.7-0.2,1.4-0.4,2.2-0.4c5.1-0.1,10.2-0.3,15.3-0.3c4.3-0.1,8.7-0.1,13,0c2.7,0,5.4,0.2,8.1,0.3c1.5,0.1,2,0.6,2,2.2
		c0,0.6,0,1.3,0,1.9c0,0.5,0.3,0.8,0.8,0.8c2.2,0.2,4.4,0.4,6.6,0.7c2.1,0.3,4.2,0.6,6.3,0.9c1.4,0.2,2.8,0.2,4.2,0.4
		c1.3,0.1,2.5,0.4,3.8,0.5c1.2,0.2,2.4,0.3,3.6,0.4c2,0.3,3.9,0.6,5.9,0.9c1.6,0.2,3.2,0.5,4.8,0.7c1.3,0.2,2.6,0.4,3.9,0.7
		c1.3,0.3,1.6,0.7,1.4,2c-0.1,0.6-0.2,1.2-0.2,1.8c-0.1,3.4-0.2,6.7-0.3,10.1c0,1.2,0.7,1.9,1.9,1.6c1.1-0.2,1.9,0.3,2.6,0.9
		c2.2,1.8,3,4.1,2,6.8c-0.1,0.4-0.4,0.8-0.6,1.1c-1,1.6-0.9,3.3-0.3,4.9c1.4,3.4,3,6.6,4.6,9.9c0.3,0.6,0.5,1.3,0.8,1.9
		c0.3,0.7,0.9,0.7,1.4,0.1c1-1.2,2-2.5,3.1-3.5c1.5-1.3,3.1-2.4,4.7-3.6c1.2-0.8,2.4-1.6,3.6-2.4c1-0.7,0.7-3-0.5-3.5
		c-3.3-1.3-6.7-2.5-10-3.8c-0.6-0.2-1.3-0.3-2-0.7c1.3-1.1,2.9-1.7,4.5-1.9c1.6-0.2,3.3-0.1,5-0.1c-0.4-0.5-0.9-1-1.4-1.4
		c-1.3-1-2.5-2-4-2.7c-1-0.5-2.3-0.7-3.4-0.8c-0.5-0.1-1.1,0.3-1.6,0.4c-0.3,0.1-0.7,0.1-0.9,0c-0.1-0.1-0.2-0.6-0.1-0.8
		c0.5-1.4,0.9-2.8,1.6-4.2c0.8-1.8,2.3-2.8,4.2-3.2c2.2-0.5,4.4-0.7,6.6-0.6c0.8,0,1.5,0.4,2.2,0.6c0.3,0.1,0.6,0.1,0.8,0
		c2.6-1.4,5.2-1,7.8-0.2c2,0.6,4,1.2,5.7,2.5c0.7,0.5,1.4,0.4,2.1-0.1c0.5-0.3,1-0.5,1.6-0.5c2.4-0.2,4.8-0.4,7.3-0.6
		c0.2,0,0.4,0.1,0.7,0.1c-0.4,0.6-0.8,1.2-1.2,1.7c-0.2,0.3-0.2,0.7-0.3,1c0.3,0,0.6,0,1,0.1c1.2,0.1,1.7-0.8,2.3-1.6
		c1.2-1.7,2.5-3.3,3.7-4.9c0.7-0.9,1.6-1.4,2.6-1.5c1.8-0.3,3.6-0.6,5.5-0.8c3-0.2,6-0.2,9-0.4c2.4-0.1,4.9-0.4,7.3-0.7
		c1.9-0.2,3.7-0.6,5.6-0.9c1-0.2,2-0.2,3.1-0.4c1.9-0.3,3.9-0.6,5.8-1c2.4-0.6,4.8-1.2,7.1-1.9c1.6-0.5,3.2-1.4,4.8-2.1
		c0.2-0.1,0.4-0.2,0.9-0.4c-1.5,2.9-3.1,5.4-5.2,7.9c0.6,0,1.1,0.1,1.4,0c2.4-0.8,4.7-1.6,7-2.6c1-0.4,2-1.1,3.1-1.6
		c-0.4,0.8-0.8,1.7-1.4,2.5c-1.4,1.8-2.7,3.7-4.2,5.4c-1.7,1.9-3.9,3.3-6.1,4.6c-1.5,0.8-3.1,1.8-4.7,2.3c-3,0.9-6.1,1.5-9.2,2.2
		c-1,0.2-2,0.4-3,0.7c-0.4,0.1-0.8,0.4-1,0.7c-2.1,3-5.2,4.8-8.6,6.1c-1,0.4-1.5,0.9-1.9,2c-0.6,1.8-1.6,3.4-3.4,4.2
		c-0.4,0.2-0.9,0.5-1.3,0.6c-1.1,0.4-1.5,1.3-1.6,2.3c-0.1,0.5-0.2,1.1-0.5,1.5c-1.1,2.4-2.6,4.5-5,5.8c-0.5,0.3-0.6,0.7-0.6,1.3
		c0,1.1-0.1,2.2-0.3,3.3c-0.4,2.1-1.6,3.7-3.3,5.1c-0.3,0.3-0.5,0.9-0.5,1.4c0,1.5-0.1,3-0.9,4.4c-0.6,1.1-1.2,2.1-2.4,2.7
		c-1.2,0.7-1.3,1.9-1.3,3.1c-0.2,3.5-3.1,6.7-6.3,7.5c-0.8,0.2-0.9,0.5-0.3,1.1c0.9,1,1.7,2.1,2.7,2.9c1.1,0.9,2.3,1.7,3.5,2.5
		c3,2.1,6.5,3.4,9.9,4.7c1.9,0.7,3.7,1.6,5.3,2.9c1.4,1.1,2.8,2.4,4.3,3.3c1.6,0.9,3.4,1.8,5.2,2.2c2.7,0.7,5.1,2,7.3,3.7
		c1.5,1.1,2.8,2.3,4.2,3.5c2.6,2.4,4.4,5.5,5.7,8.7c1,2.4,1.7,5,1.5,7.7c-0.1,1.3-0.5,2.6-1,3.8c-0.8,1.9-1.7,3.9-2.8,5.7
		c-1,1.6-2.5,3-3.7,4.5c-0.2,0.2-0.4,0.5-0.6,0.8c-0.5,1-0.4,1.2,0.5,1.9c3.4,2.6,7.3,4.2,11.3,5.8c0.8,0.3,1.1,0.8,1.2,1.6
		c0.5,2.9,0.7,5.8,0.7,8.7c0,1.7,0.2,3.3,0.3,5c0.1,2.6,0.2,5.2,0.3,7.8c0.1,1.5,0.2,2.9,0.3,4.4c0,0.8,0.7,0.9,1.2,1.1
		c1.5,0.4,2.5,1.4,3,2.7c0.2,0.5,0.3,1.1,0.3,1.7c0.1,0.9,0.3,1.2,1.3,1.2c1.7,0,3.4,0,5.1,0c1,0,1.2,0.1,1.2,1.2
		c0,3.6,0,7.1,0,10.7c0,1-0.2,1.1-1.1,1.1c-0.3,0-0.7,0-1,0c-113.9,0-227.9,0-341.8,0c-2.3,0-2.1,0.1-2.1-2.1c0-3.2,0-6.4,0-9.6
		c0-1.1,0.1-1.3,1.3-1.3c4.6,0,9.2,0,13.9,0c0.4,0,0.7,0,1.3,0c-1.5-1.1-2.8-2.2-4.2-3.2c-1.9-1.4-3.1-3.1-3-5.6
		c0-0.7-0.2-1.5-0.2-2.3c0-0.3,0-0.6,0-0.9c0.1-2.9,0.3-5.8,0.2-8.6c-0.1-1.3,0.1-2.5,0.1-3.8c-0.1-3.3,0-6.6,0-9.9
		c0-1.4,0.3-1.9,1.7-2.3c2.1-0.7,4.2-1.2,6.2-2c2.6-0.9,5.1-2.1,7.2-3.9c1.1-1,2-2.2,2.8-3.5c0.8-1.4,1.5-2.8,2.2-4.3
		c0.3-0.6,0.2-1.1-0.4-1.6c-1.1-0.8-2.1-1.6-3.1-2.4c-0.9-0.8-1.6-1.8-2-3c-0.6-1.6-0.6-3.1-0.4-4.6c0.1-0.5-0.2-0.6-0.6-0.5
		c-0.4,0.1-0.8,0.3-1.2,0.4c-0.6,0.2-1.3,0.3-1.8,0.6c-1,0.6-2,1.3-3,1.9c-0.4,0.3-0.8,0.5-1.1,0.8c-0.1,0-0.1-0.1-0.2-0.1
		c0.1-0.8,0.1-1.6,0.3-2.4c0.1-0.9,0.3-1.9,0.5-2.8c0.6-2.6,2.4-4.3,4.8-5.4c0.9-0.4,1.7-0.9,2.5-1.3c0.2-0.1,0.5-0.3,0.7-0.4
		c2.2-0.8,3.9-2.3,5.4-4c1.9-2.2,3.4-4.8,5.1-7.2c0.9-1.3,2.2-1.9,3.4-2.5c2.2-1.1,4.5-1.9,6.6-2.9c2.9-1.4,5.9-2.6,8.4-4.6
		c1.3-1.1,2.8-1.9,4.1-3c0.9-0.7,1.5-1.7,2.3-2.5c0.6-0.8,1.1-1.6,1.8-2.3c1.2-1.2,2.1-2.6,3-4c1-1.7,2.1-3.4,3.1-5.1
		c0.6-1.1,1-2.3,1.5-3.4c0.1-0.2,0.2-0.4,0.1-0.6c-0.2-1-0.3-2-0.5-3c-0.2-1.3-0.5-2.6-0.7-3.9c-0.2-1.1-0.6-2.3-0.8-3.4
		c-0.4-2.5-1.8-4.5-3-6.7c-1-2-1.9-4.1-2.7-6.2c-0.5-1.3-1-2.6-1.4-3.9c-0.3-0.9-0.8-0.7-1.4-0.5c-1.3,0.5-2.5,1-3.8,1.4
		c-0.5,0.2-1.1,0.1-1.7,0c-0.8-0.2-1-0.8-0.7-1.6c0.7-1.4,1.4-2.8,2-4.2c1.1-2.6,3.1-4.3,5.2-6c0.1-0.1,0.2-0.1,0.3-0.2
		c0.1-0.2,0.2-0.5,0.3-0.7c-0.2-0.1-0.5-0.2-0.7-0.2c-1.8,0.4-3.6,0.9-5.5,1.3c-2.1,0.4-4.1,0.9-6.2,1.2c-2.1,0.3-4.2,0.5-6.4,0.7
		c-2.4,0.2-4.8,0.3-7.2,0.3c-2.6,0-5.2,0-7.7-0.4c-3.5-0.4-6.9-1.1-10.3-1.8c-1.6-0.3-3.3-0.6-4.8-1.1c-2.6-0.9-5.2-1.7-7.4-3.2
		c-2.1-1.4-3.9-3.1-5.4-5.1c-0.5-0.7-1.1-1.4-1.7-2.1c-0.4-0.5-0.7-1-0.3-1.4c0.2-0.2,0.9-0.2,1.3,0c0.6,0.3,1.1,0.7,1.7,1.1
		c0.2,0.1,0.3,0.3,0.5,0.4c2.1,1,4.1,2,6.2,2.9c0.3,0.2,0.7,0.2,1.1,0.3c0.8,0.2,1.1,0.1,1.1-0.8c0-1.2-0.4-1.6-1.4-2.2
		c-1.9-1.1-3.7-2.2-5.5-3.4c-0.6-0.4-1.2-0.7-1-1.7c1.9,0.5,3.8,1.1,5.7,1.6c0.4,0.1,0.8,0.1,1.2,0.2c0-0.4,0-0.8-0.1-1.2
		c-0.6-1.4-1.3-2.7-1.9-4.1C8.8,8.8,8.8,8.2,8.7,7.8c0.5,0.1,1.1,0.1,1.4,0.4c1.5,1.4,2.9,2.8,4.3,4.2c0.3,0.4,0.5,0.9,0.7,1.4
		c0.2,0.7,0.6,1.2,1.3,1.5c0.7,0.2,1.2,0,1.2-0.7c0-0.9,0-1.8-0.2-2.7c-0.4-1.5-1-3-1.5-4.5c-0.1-0.3,0-0.6,0-0.9
		c0.3,0,0.8-0.1,1,0.1c0.9,0.7,1.8,1.5,2.5,2.3c1.8,2.1,3.1,4.5,4.5,7c0.4,0.8,1.3,0.7,1.9,0.8c0.5,0.1,1.1,0.1,1.6,0
		c0.9,0,1.2-0.3,1-1.2c-0.2-1-0.5-1.9-0.8-2.9c-0.2-0.6-0.4-1.3-0.6-1.9C26.9,10.4,27,10.2,27,10c0.3,0,0.6,0,0.7,0.1
		c0.5,0.6,0.9,1.1,1.3,1.8c0.6,0.9,1,2,1.7,2.9c0.5,0.7,1,1.6,1.8,1.9c0.6,0.3,1.7,0.3,2.4,0c0.6-0.3,0.8-1.1,0.5-1.9
		c-0.7-1.9-1.5-3.8-2.2-5.7c-0.2-0.4,0-1,0-1.4c0.5,0.2,1.2,0.2,1.4,0.5c1.8,2.1,4.1,3.9,5.4,6.5c0.4,0.7,0.8,1.4,1.2,2.1
		c0.1,0.2,0.3,0.4,0.4,0.4c1,0.1,2,0.2,2.9,0.3c0.7,0,1.5-0.1,2.2-0.1c1.1,0,1.4-0.3,1.4-1.3c0.1-2.6,0-5.2-0.8-7.7
		c-0.1-0.2,0-0.6,0.1-0.8c0.3,0.1,0.6,0.1,0.7,0.3c0.7,1.1,1.3,2.2,1.9,3.3c0.8,1.6,1.4,3.3,2.1,5c0.1,0.2,0.4,0.4,0.5,0.4
		c0.3-0.2,0.8-0.4,0.9-0.7c0.3-1,0.9-1.9,0.5-3.2c-0.4-1.3-0.2-2.8-0.4-4.3c-0.1-1-0.5-2-0.7-3c-0.1-0.3,0-0.6,0.1-0.9
		c0.4,0.1,0.9,0,1.1,0.3c0.6,0.7,1,1.5,1.5,2.2c0.7,1.2,1.3,2.5,1.4,4c0,0.7,0.4,1.5,0.7,2.2c0.4,1.2,0.8,2.5,1.4,3.6
		c0.2,0.5,0.9,0.8,1.5,0.9c0.8,0.2,1.7,0.1,2.6,0c0.4-0.1,1-0.4,1.2-0.8c1.3-2.4,2.4-4.9,2.8-7.7c0.3-1.9,0.6-3.7,1-5.6
		c0.1-0.3,0.3-0.5,0.4-0.8c0.3,0.2,0.6,0.3,0.8,0.6c0.2,0.2,0.3,0.4,0.3,0.7c0.1,2.2,0.8,4.3,0.1,6.5c-0.1,0.3-0.1,0.7,0,1
		c0.4,1.2,0.2,2.3-0.2,3.5c-0.1,0.4-0.1,0.8,0,1.2c0.7-0.4,1.3-0.7,1.4-1.7c0.1-0.7,0.5-1.5,0.9-2.1c1-1.5,1.4-3.2,1.9-4.8
		C74,6.6,74,5.7,74.1,4.8c0-0.2,0-0.4,0.1-0.6c0.2-0.3,0.4-0.6,0.6-0.9c0.3,0.2,0.7,0.4,0.8,0.7c0.3,0.8,0.7,1.6,0.7,2.4
		c0.1,1.2,0.3,2.3,0.1,3.5c-0.2,1.5-0.3,3-0.7,4.4c-0.5,1.5-1,3.1-2.1,4.3c-0.1,0.1-0.1,0.4,0,0.6c0,0.1,0.4,0.1,0.5,0.1
		c2.5-1.1,5-0.8,7.5-0.3c0.3,0.1,0.5,0.1,0.8,0.2c2.9,0.1,5.8,0.3,8.7,0.3c1.4,0,2.8-0.4,4.3-0.5c2,0,3.9-0.9,6-0.2
		c3.1,1.1,3.2,4.5,1.4,6.1c-0.7,0.6-1.4,1-2.2,1.5c-0.5,0.3-1,0.6-0.8,1.2c0.2,0.6,0.7,0.7,1.2,0.7c0.5,0,1.1,0,1.6,0
		c0.6,0,0.9,0.3,1,0.9c0.2,1.6-0.6,2.7-2.4,3.1c-1.7,0.4-3.4,0.5-5.1-0.2c-0.3-0.1-0.7,0-1,0.1c-1.8,1.1-3.5,2.2-5.3,3.4
		c-0.7,0.5-1.3,1.2-1.9,1.8c-0.7,0.8-0.3,2,0.7,2.5c1.5,0.7,3,1.3,4.6,1.9c2.1,0.9,4.3,1.7,6,3.3c1.1,1.1,2.1,2.4,3.2,3.6
		c0.6,0.8,1.2,1.6,1.8,2.4C104,51.4,104.1,51.4,104.2,51.3z M175.2,178.8C175.2,178.8,175.2,178.8,175.2,178.8
		c1.3-0.1,2.5,0,3.8-0.1c2-0.1,3.9-0.4,5.9-0.6c0.4,0,0.8-0.1,1.1-0.2c2.4-0.8,4.7-1.5,7.1-2.4c3.7-1.3,7.2-3.1,10.3-5.3
		c2.4-1.7,4.6-3.7,6.8-5.6c0.7-0.6,1.3-1.1,1.9-1.8c1.3-1.6,2.5-3.2,3.9-4.8c2-2.2,3.4-4.8,4.8-7.3c0.6-1,1-2.2,1.5-3.2
		c0.8-1.8,1.7-3.6,2.4-5.4c1.3-3.5,2.3-7.2,3-10.9c0.2-1.2,0.5-2.4,0.6-3.7c0.2-1.2,0.3-2.5,0.4-3.7c0.2-2.4,0.4-4.7,0.6-7.1
		c0.1-0.7,0.2-1.4,0.2-2.1c0-1,0-2-0.1-3c0-0.8-0.1-1.7,0-2.5c0-0.5,0.2-1,0.2-1.4c0.1-2.1,0.2-4.2,0.3-6.2c0.1-2.7,0.2-5.3,0.3-8
		c0.1-2.2,0.2-4.4,0.3-6.6c0.1-2.6,0.2-5.2,0.3-7.8c0.1-2.3,0.2-4.6,0.3-6.9c0.1-2.8,0.2-5.6,0.3-8.4c0.1-2,0.2-3.9,0.3-5.9
		c0.1-2.7,0.3-5.4,0.3-8c0-1.4-0.1-1.6-1.5-1.9c-1.7-0.4-3.5-0.8-5.2-1.2c-1.4-0.3-2.8-0.7-4.3-1c-1.9-0.4-3.9-0.8-5.8-1.1
		c-2.1-0.4-4.3-0.8-6.4-1.1c-2-0.3-4-0.5-6-0.7c-3-0.4-6-0.9-9-1.2c-3-0.3-6-0.5-9-0.7c-2.6-0.2-5.1-0.3-7.7-0.3
		c-5.3,0-10.6,0.2-16,0.3c-0.1,0-0.2,0-0.3,0c-2.5,0.2-4.9,0.4-7.4,0.6c-1.3,0.1-2.6,0.2-3.9,0.4c-2.2,0.3-4.3,0.6-6.5,0.9
		c-1.6,0.2-3.2,0.5-4.7,0.8c-2,0.4-4.1,0.7-6.1,1.2c-3,0.7-6,1.3-9,2.1c-1.3,0.3-2.6,1-3.9,1.1c-1.4,0.1-1.6,0.8-1.5,2.1
		c0.1,1,0.2,1.9,0.3,2.9c0.1,2.8,0.2,5.7,0.3,8.5c0,0.1,0,0.2,0,0.2c0.2,2.3,0.5,4.6,0.6,6.9c0.2,2.7,0.2,5.4,0.4,8.1
		c0,0.1,0,0.2,0,0.2c0.2,2.7,0.4,5.4,0.6,8.1c0.2,2.4,0.2,4.7,0.4,7.1c0,0.1,0,0.2,0,0.2c0.2,2.3,0.5,4.5,0.6,6.8
		c0.1,1.6,0.1,3.2,0.1,4.8c0,2.6,0.4,5.2,0.5,7.8c0.1,2,0.2,4.1,0.4,6.1c0,0.4,0,0.9,0.1,1.3c0.3,2,0.6,4,0.9,5.9
		c0.4,2.3,0.7,4.6,1.2,6.9c0.4,1.7,0.9,3.5,1.4,5.2c0.9,4,2.5,7.7,4.2,11.4c1,2.1,2.2,4.2,3.4,6.2c1.8,3.1,3.8,6,6.4,8.5
		c0.6,0.6,1.3,1.2,2,1.8c1.5,1.3,2.9,2.7,4.5,3.9c1.9,1.5,4,2.8,6,4.1c1.3,0.8,2.6,1.5,3.9,2.1c1.1,0.5,2.3,0.9,3.4,1.5
		c2.2,1.1,4.5,1.6,6.8,1.8C169.4,178.7,172.3,178.7,175.2,178.8z M160.6,179.9c0-0.1,0-0.2,0-0.3c-0.5-0.3-0.9-0.8-1.4-1
		c-3.8-1.5-7.3-3.4-10.7-5.7c-1.8-1.2-3.5-2.4-5.1-3.8c-2.3-2-4.4-4.2-6.5-6.4c-2-2.1-3.6-4.4-5-6.9c-1.2-2.1-2.3-4.3-3.4-6.4
		c-1.6-3.1-2.1-6.6-4.1-9.5c-0.4-0.6-1-1-1.6-1.4c-0.8-0.5-1.7-0.9-2.3-1.5c-1-1.1-1.9-2.3-2.8-3.5c-0.3-0.4-0.4-1.2-0.3-1.7
		c0.2-0.9,0.1-1.7-0.5-2.5c-0.5-0.7-0.8-1.4-0.7-2.3c0.1-1.4,0.2-2.7,0.3-4.1c0-0.6-0.1-1.2-0.1-1.9c0.1-2.1,0.3-4.2-0.3-6.2
		c-0.2-0.6-0.4-1.2-0.6-1.9c-0.7-3.1-2.4-5.6-5-7.4c-1.7-1.2-3.6-2-5.4-3.1c-2.3-1.4-4.8-2.2-7.3-3.1c-0.4-0.1-1,0-1.3,0.2
		c-1.6,1.3-3,2.7-4.6,4c-1.9,1.6-3.8,3.2-5.9,4.6c-1.7,1.2-3.6,2.1-5.4,3.1c-4,2-7.8,4.3-12.2,5.3c-0.8,0.2-1.1,0.7-1.3,1.4
		c-1,3.5-1.9,7.1-2.9,10.6c-0.7,2.4-1.3,4.8-2,7.1c-1.2,4-2.4,8-4.2,11.7c-0.2,0.4-0.4,0.9-0.4,1.3c-0.1,1.1-0.1,2.3,0,3.4
		c0.1,1.3,0.6,2.3,2,2.8c1.1,0.4,2.2,1.1,3.1,1.7c2.6,1.7,5.4,2.7,8.3,3.4c3.8,0.9,7.7,1.8,11.5,2.8c0.7,0.2,1.4,0.5,1.9,1
		c0.5,0.4,0.9,1.1,1.3,1.7c0.4,0.7,0.7,1.6,1.2,2.2c1.3,1.6,2.4,3.3,3.1,5.2c0.2,0.5,0.5,1,0.8,1.5c1,1.4,2.1,2.7,3,4.1
		c0.7,1.1,1.6,1.6,3,1.6c20.6,0,41.2,0,61.9,0c0.3,0,0.6,0,0.9,0C160.1,180,160.4,180,160.6,179.9z M190,179.5c0,0.1,0,0.2,0,0.2
		c0.6,0.1,1.2,0.3,1.8,0.3c19.8,0,39.7,0,59.5,0c1.1,0,1.4-0.3,1.6-1.3c0.2-1.4,0.6-2.7,1.4-3.9c1.2-1.7,2.8-2.8,5-2.9
		c1-0.1,2.1-0.2,3-0.5c2.1-0.5,4.1-0.9,6.2,0.1c1.4,0.7,2.6,0.3,3.7-0.8c0.2-0.2,0.4-0.3,0.6-0.5c1.7-1.2,3.6-2.2,5.2-3.5
		c2.6-2.1,5.2-4.4,7.7-6.6c2.3-2.1,3.3-4.9,3.4-8c0.1-2.1,0-4.1,0-6.2c0-0.3-0.1-0.7-0.1-1c-0.4-1.6-0.8-3.1-1.2-4.6
		c-0.4-1.4-0.5-2.9-1.2-4.2c-1.2-2.3-1.6-4.7-1.7-7.1c-0.1-4.6,0.2-9.1-0.6-13.6c-0.2-1-0.5-1.7-1.2-2.2c-0.7-0.5-1.5-1-2.3-1.3
		c-1.9-0.7-3.7-1.3-5.7-1.8c-2.6-0.7-5.3-1.2-7.9-1.8c-1.4-0.3-2.8-0.6-4-1.5c-1.6-1.2-3.2-2.2-4.8-3.3c-0.3-0.2-0.9-0.3-1.3-0.2
		c-0.4,0.1-0.8,0.5-1.2,0.8c-1.4,1.2-2.9,2.4-4.3,3.6c-1.2,1-2.4,1.9-3.5,2.9c-1,1-2,2-3,3c-1.3,1.5-2.5,3.1-3.8,4.7
		c-1,1.3-2.1,2.6-1.9,4.4c0.1,0.6,0.4,1.1,0.6,1.7c0.6,1.4,0.2,2.9,0,4.3c-0.3,1.9-1.4,3.4-2.7,4.6c-1.3,1.2-3.1,1.3-4.8,1.4
		c-0.2,0-0.5-0.2-0.7-0.3c-0.5-0.2-0.9-0.5-1.4-0.7c-0.9-0.3-1.2-0.1-1.4,0.8c-0.7,2.5-1.2,5.1-2,7.6c-0.8,2.4-1.7,4.9-2.9,7.2
		c-1,2.1-2.4,4.1-3.6,6.1c-2.4,3.8-5,7.4-8.4,10.5c-0.7,0.6-1.4,1.2-2.1,1.8c-1.5,1.3-3,2.7-4.6,3.8c-2.4,1.6-4.8,3.1-7.3,4.3
		c-2.5,1.2-4.9,2.7-7.5,3.5C190.2,179.3,190.1,179.4,190,179.5z M263,91.9c0,0,0.1,0,0.1,0c0,0.2,0,0.4,0,0.6
		c-0.1,1.5-0.3,3-0.3,4.5c0,1,0,1.9-1.3,2.1c-0.2,0-0.3,0.2-0.5,0.3c-0.5,0.3-0.5,0.7-0.1,1.1c0.8,0.9,1.6,1.7,2.4,2.6
		c0.5,0.5,1.1,1,1.7,1.5c1.1,0.9,2.4,1.2,3.8,1.6c2.3,0.6,4.4,1.7,6.9,1.1c0.1,0,0.3,0,0.5,0c0.6,0.1,1.2,0.1,1.8,0.3
		c0.4,0.1,0.7,0.2,1.1,0.4c2,0.9,3.9,1.8,5.9,2.7c0.3,0.1,0.9-0.1,1-0.3c0.7-1.2,1.2-2.5,1.8-3.7c0.3-0.6,0.5-1.3,1-1.8
		c1.4-1.6,3.3-2.5,5.3-3.2c0.9-0.3,1.9-0.5,3,0.2c-1.1,0.4-2.1,0.7-3,1.1c-1.9,0.8-3.6,1.8-4.2,4c-0.2,0.8-0.4,1.5-0.8,2.2
		c-1.1,2.5-1.6,5.2-2,7.9c-0.1,0.7-0.3,1.3-0.2,2c0,1.8,0.2,3.6,0.2,5.4c-0.1,2.9,0.2,5.7,1.3,8.5c1.3,3.4,2.5,6.8,2.7,10.4
		c0.1,1.6,0.5,3.3,0.5,4.9c0.1,2.9-0.2,5.8-1.4,8.5c-0.9,1.9-1.6,3.8-3.3,5.3c-1.9,1.7-4.1,2.8-6,4.4c-1.6,1.3-3.3,2.5-5,3.8
		c-0.8,0.6-1.6,1.5-2.5,2c-0.9,0.5-1.6,1-1.5,2.2c0,0.2-0.2,0.5-0.3,0.5c-0.2,0-0.5-0.1-0.6-0.3c-0.5-0.6-1.1-0.7-1.8-0.7
		c-0.5,0-1,0-1.6,0c-1.5-0.1-2.5,0.8-3.3,1.9c-0.1,0.1-0.1,0.4-0.1,0.4c0.1,0.1,0.3,0.2,0.5,0.1c0.2,0,0.4-0.1,0.5-0.2
		c2-0.6,4.8,0.2,6,1.9c0.7,1,1.5,1.4,2.7,1.3c0.5,0,1.1,0,1.6,0c0.7,0,1.3-0.2,1.9-0.6c1.1-0.8,2.3-1.5,3.7-1.2
		c1.1,0.2,2.2,0.5,2.9,1.5c0.1,0.1,0.3,0.1,0.5,0.2c0.2-0.9-0.4-1.4-0.8-1.8c-1.4-1.7-3.3-1.9-5.4-1.4c0.1-0.3,0.3-0.5,0.5-0.7
		c0.9-0.9,1.8-1.7,2.7-2.6c1.7-1.7,3.3-3.4,5-5c1.7-1.6,3.6-3,5.4-4.5c0.8-0.7,1.6-1.3,2.5-2c1.8-1.5,3.6-3,5.4-4.6
		c0.2-0.2,0.4-0.8,0.3-1.1c-0.1-0.7-0.6-1.4-0.7-2.1c-0.2-1.6-0.3-3.1-0.4-4.7c-0.1-1.2,0-2.4,0-3.6c0-2.8,0.4-5.6,1.3-8.2
		c0.4-1,1-1.9,1.6-2.7c0.6-0.8,1.5-1.3,2.2-2c1.2-1.2,2.4-2.4,3.5-3.8c1.2-1.6,2.5-3.2,3.4-4.9c1.1-2.1,1.8-4.4,2.6-6.7
		c0.5-1.4,0.5-2.8-0.1-4.1c-0.7-1.7-1.4-3.4-2.1-5c-0.6-1.4-1.2-2.8-2-4.1c-0.6-1.1-1.4-2.2-2.3-3.1c-1.4-1.3-3-2.3-4.4-3.6
		c-2-1.7-4.3-3-6.6-4.1c-2.7-1.3-5.6-2.2-8.3-3.3c-1-0.4-2-1.1-3-1.6c-1.1-0.6-2.4-1-3-2.3c0-0.1-0.1-0.2-0.2-0.2
		c-1.3-0.7-2-2-2.9-3.2c-0.7-1-1.5-1.7-2.9-1.6c-0.6,0.1-1.2,0-1.8-0.1c-1.7-0.4-3.5-0.8-4.9-1.9c-0.7-0.6-1.4-1.2-2.2-1.7
		c-1.6-1.2-2.6-2.8-3.4-4.5c-0.3-0.7-0.6-1.5-0.4-2.4c0.9,1.2,1.7,2.4,2.6,3.4c1.4,1.7,2.8,3.3,4.8,4.4c3.3,1.8,6.7,1.7,10.1,0.3
		c2.1-0.8,3.6-2.3,4.3-4.5c0.1-0.5,0-1,0.1-1.6c-0.5,0.1-0.9,0-1.4,0.2c-2.9,1-5.9,0.6-8.8,0c-1.2-0.3-2.4-0.9-3.6-1.3
		c-0.2-0.1-0.4-0.3-0.6-0.4c0.2-0.2,0.4-0.5,0.6-0.5c1.1,0,2.2-0.1,3.3,0.2c2,0.4,3.9,1,5.9,0.8c0.8-0.1,1.6-0.2,2.4-0.3
		c1.9-0.4,3.6-1,4.9-2.5c1.3-1.4,2-3.2,2.5-5.1c0.2-0.7-0.2-0.9-0.9-0.7c-1.4,0.4-2.7,0.9-4.1,1c-2.1,0.3-4.3,0.2-6.5,0.4
		c-1.2,0.1-2.4,0.2-3.5,0.6c-1.3,0.4-2.5,1.1-3.8,1.7c-1.6,0.8-3.2,1.1-5,0.9c-0.7-0.1-1.4-0.4-1.9-1c0.7,0,1.4,0.1,1.9,0
		c2.6-0.7,4.8-2.1,6.4-4.3c1.7-2.4,3.3-4.9,4.7-7.4c2.1-3.8,4-7.8,6.1-11.6c1.4-2.6,3.1-5,4.6-7.4c0.4-0.6,0.8-1.2,1.3-1.7
		c1.8-1.7,4-2.9,6.3-3.7c2.1-0.8,4.4-0.9,6.6-1c0.4,0,0.9-0.1,1.3-0.1c1.3-0.2,2.6-0.4,3.9-0.5c1.5-0.2,3-0.2,4.5-0.4
		c2.1-0.3,4.1-0.6,6.2-0.9c1.6-0.3,3.3-0.5,4.9-0.9c2-0.4,4-0.8,5.9-1.5c2.2-0.7,4.5-1.5,6.4-2.7c1.8-1.1,3.4-2.7,5-4.2
		c0.5-0.5,0.9-1.2,1.3-1.8c-0.1-0.1-0.1-0.2-0.2-0.2c-0.5,0.1-0.9,0.3-1.4,0.4c-2.3,0.7-4.6,1.5-6.9,2.2c-2.1,0.6-4.3,0.9-6.4,1.4
		c-2.8,0.6-5.6,1.1-8.4,1.2c-0.3,0-0.6,0-0.9,0.1c-2,0.3-4,0.8-6,0.8c-3.8,0.1-7.6,0.3-11.4,0.7c-2.4,0.3-4.7,0.5-6.9,1.4
		c-1.4,0.5-2.6,1.2-3.4,2.6c-1.2,2.2-2.6,4.3-3.9,6.5c-1.7,3-3.4,6.1-5.1,9.1c-1.3,2.3-2.7,4.6-4.2,6.8c-0.8,1.3-1.6,2.5-2.6,3.6
		c-2,2.3-4.5,3.9-7.2,5.2c-1.9,1-3.9,1.9-5.4,3.6c-0.1,0.1-0.2,0.1-0.5,0.3c0.1-0.3,0.1-0.5,0.1-0.7c0.9-2.9,2.9-4.9,5.6-6.1
		c3.8-1.8,6.6-4.7,9-7.9c1-1.3,1.9-2.8,2.6-4.3c1.1-2.7,1.4-5.7,1.3-8.6c-0.1-1.7-0.2-2.3-2.1-2.3c-3.2,0-4.9-3.5-3.1-6.1
		c0.4-0.7,0.2-1.1-0.3-1.5c-2.8-1.9-5.7-3.5-9-4.3c-1.2-0.3-2.4-0.4-3.6,0.2c-0.7,0.4-0.8,1.1-0.2,1.6c1,0.9,2,1.9,3.1,2.8
		c0.4,0.3,0.8,0.7,1.4,1.1c-0.5,0.1-0.8,0.2-1.1,0.3c-1.3,0.1-2.5,0.2-3.8,0.4c-0.3,0-0.6,0.1-0.8,0.3c-0.8,0.4-0.8,0.9-0.2,1.5
		c0.6,0.5,1.2,1,1.8,1.5c2.3,1.7,3.9,3.9,5.1,6.4c0.1,0.2,0.1,0.6,0,0.8c-0.3,0.5-0.7,0.9-1,1.4c-1.1,1.5-2.9,2.2-3.9,3.8
		c-0.1,0.1-0.3,0.2-0.5,0.3c-1.7,0.9-3.5,1.7-5.1,2.8c-1.5,0.9-2.8,2.1-4.2,3.2c-0.2,0.1-0.2,0.5-0.2,0.7c0.2,0,0.5,0.1,0.7,0.1
		c2.8-0.7,5.7-1.4,8.5-2.1c1.8-0.5,3.7-0.8,5.5-1.5c2.5-1.1,4.9-2.4,7.4-3.6c0.2-0.1,0.4-0.1,0.6-0.2c0.1,0.1,0.1,0.2,0.2,0.2
		c-0.7,0.7-1.4,1.4-2.2,2c-2.2,1.6-4.6,2.8-7.2,3.8c-1.5,0.5-2.9,1-4.4,1.4c-2,0.5-4,0.8-5.9,1.3c-1.3,0.3-2.6,0.7-3.9,1
		c-3.2,0.9-4.5,2.9-5.2,6c0,0,0.1,0.1,0.2,0.2c0.6-0.3,1.3-0.6,2-0.8c1.9-0.6,3.8-1.1,5.7-1.6c1.6-0.4,3.2-0.7,4.9-1
		c3.4-0.6,6.6-1.5,9.6-3.3c0.3-0.2,0.6-0.3,0.9-0.4c-0.9,1.5-2.4,2.2-3.8,3c-4.4,2.5-9.3,3.5-14.2,4.4c-1.7,0.3-3.5,0.7-4.6,2.1
		c-1.2,1.4-2.2,3-3.3,4.5c-0.4,0.6-0.7,1.3-0.5,2.2c4.3-2.5,8.8-3.9,13.6-4.2c-0.2,0.4-0.5,0.6-0.8,0.7c-0.5,0.2-1,0.3-1.5,0.5
		c-1.2,0.5-2.4,1-3.6,1.4c-1.8,0.6-3.6,1.1-5.2,2.3c-1.6,1.2-2.7,2.7-3.3,4.5c-0.9,2.5-0.4,5.1,0.1,7.6c0,0.2,0.1,0.4,0.2,0.5
		c0.3,0.5,0.6,0.5,1,0c0.4-0.5,0.8-1.1,1.3-1.5c1.1-1,2.3-1.8,3.4-2.9c1.9-1.8,4.3-2.8,6.7-3.8c1.8-0.8,3.7-1.4,5.3-2.6
		c0.2-0.1,0.4-0.1,0.7-0.2c-0.9,2-2.5,3.1-4.1,4c-1.8,1.1-3.8,2-5.8,2.9c-1.9,0.8-3.4,2-4.8,3.4c-1.4,1.4-2.3,2.9-2.2,5
		c0.1,1.7,0.8,3.1,2,4.3c0.5,0.4,0.9,0.4,1.2-0.1c0.9-1.3,1.8-2.6,2.8-3.9c0.6-0.7,1.3-1.4,1.9-2.1c0.1,0.1,0.1,0.1,0.2,0.2
		c-0.4,0.5-0.8,0.9-1.1,1.4c-1,2.1-2.1,4.2-2.9,6.4c-1.6,4.4-3,8.9-5.4,13c-1.2,2-2.5,3.8-3.7,5.7c-0.6,0.9-1.1,1.8-1.8,2.6
		c-0.5,0.6-1.2,1.1-1.9,1.6c-0.2,0.1-0.6,0.1-0.8-0.1c-0.1-0.1-0.1-0.5-0.1-0.7c0.3-1.2,0.7-2.3,1-3.5c0.1-0.5,0.3-1,0.3-1.4
		c0-0.3-0.3-0.5-0.5-0.8c-0.2,0.2-0.4,0.4-0.5,0.6c-0.5,1.1-0.8,2.4-1.5,3.4c-0.9,1.3-0.8,2.8-1.1,4.2c0,0.1,0.1,0.3,0.2,0.5
		c0.4,0.5,0.7,1.1,1.1,1.5c2,1.8,1.6,4.2,1,6.2c-0.1,0.3-0.4,0.5-0.6,0.8c-0.1,0.1-0.2,0.3-0.3,0.4c0.8,0.2,1.9-0.4,2.3-1.3
		c0.2-0.7,0.6-1.4,0.7-2.1c0.2-1.3,0.8-2.6,0.4-4c0-0.1,0.1-0.3,0.1-0.5c1,0.9,1.2,0.9,1.9-0.2c0.3-0.5,0.7-1,1-1.5
		c1.3-1.5,2.5-3,3.8-4.5c1.7-2,3.3-4.1,5.7-5.4c0.2-0.1,0.3-0.2,0.4-0.4c1.5-1.1,3-2.3,4.5-3.4c1.1-0.8,2.2-1.5,3.2-2.2
		c0.6-0.4,1.3-0.9,1.7-1.5c0.8-1.1,1.4-2.3,2-3.6C262.3,93.4,262.6,92.6,263,91.9z M83.5,66.3c0,0.1,0,0.1,0,0.2
		c-0.8,0.1-1.7,0.1-2.5,0.3c-1.2,0.3-2.5,0.7-3.6,1.2c-1.1,0.5-2.2,1.1-3,2c-0.8,0.8-1.2,1.8-1.7,2.8c-1.9,3.9-4.1,7.5-7.1,10.7
		c-0.6,0.6-0.9,1.4-1.4,2.2c-0.7,1-1.3,2.2-2,3.1c-1.2,1.5-2.8,2.4-4.6,3c-3,0.9-5.9,1.7-8.7,3.1c-1.2,0.6-2.4,1.3-3.7,1.7
		c-3,0.9-4.8,3.1-6.4,5.5c-1,1.4-2,2.8-3.2,4.1c-0.4,0.4-0.6,0.8-0.9,1.2c-1.3,2-2.4,4.1-3.9,5.8c-0.9,1.1-1.2,2.2-1.5,3.4
		c-0.1,0.4-0.2,0.9-0.2,1.3c0,0.6,0.2,1.2,0.2,1.8c0,0.9,0.1,1.7,0.7,2.4c0.9,1.1,1.7,2.3,2.7,3.4c0.8,0.8,1.7,1.4,2.6,2.1
		c1.3,0.9,2.5,1.8,3.9,2.5c2.7,1.4,5.6,2.1,8.6,2.8c0.7,0.2,1.1,0.6,1.2,1.3c0.1,0.5,0.2,1,0.2,1.4c0.2,1.5,1.1,2.8,0.6,4.4
		c-0.1,0.2,0.1,0.4,0.1,0.6c0.5,1.5,0.6,3.1,0.3,4.7c-0.5,2.3-1.1,4.6-1.8,6.8c-0.5,1.7-1.2,3.4-1.8,5.2c-0.1,0.3,0,0.8,0.2,0.9
		c0.5,0.3,1.1,0.6,1.8,0.2c0.6-0.4,1.1-0.8,1.1-1.6c-0.1-1.1-0.1-2.2-0.2-3.2c0-0.2,0-0.4,0-0.6c0.4-1.3,0.9-2.5,1.3-3.7
		c1-2.6,2-5.2,2.5-8c0-0.1,0.2-0.3,0.4-0.5c0.1,0.3,0.1,0.4,0.1,0.5c-0.2,1.4-0.3,2.8-0.5,4.1c-0.3,1.5-0.7,3.1-1.1,4.6
		c-0.2,0.8-0.6,1.6-0.8,2.4c-0.1,0.4-0.2,0.8-0.1,1.1c0.6,1.9,0.5,3.7-0.3,5.5c-0.1,0.2,0.1,0.7,0.3,0.8c0.7,0.4,1.5,0.7,2.3,0.9
		c2.5,0.6,5.1,1.1,7.6,1.8c3.3,0.9,6.5,2.1,9.8,3c2.7,0.8,5.4,1.4,8.1,2.1c0.4,0.1,0.8,0.3,1,0.5c0.5,0.6,0.9,1.2,1.3,1.8
		c0.4,0.5,0.7,1.1,1.2,1.4c1.6,0.9,2.6,2.3,3.4,3.8c0.6,1.1,1.6,1.5,2.6,1.9c0.3,0.1,0.8,0.1,1.4,0.2c-0.4-0.7-0.6-1.1-0.9-1.6
		c-1-1.8-1.5-3.9-2.8-5.6c-1.5-2-2.7-4.2-5.4-4.8c-2.3-0.5-4.4-1.5-6.6-2.3c-0.3-0.1-0.6-0.2-0.9-0.3c-2.5-0.6-5-1.1-7.4-1.9
		c-2.5-0.8-4.9-1.9-7.4-2.6c-1.4-0.4-2.6-0.9-3.1-2.4c0-0.1-0.1-0.2-0.2-0.3c-0.4-0.8-0.8-1.5-0.4-2.5c0.6-1.7,1-3.4,1.5-5.2
		c1.2-3.9,2.5-7.8,3.7-11.7c1-3.3,1.9-6.7,2.7-10.1c0.6-2.3,1-4.7,1.6-7.1c0.2-0.9,0.6-1.7,0.7-2.6c0.1-1.7,0.1-3.5,0-5.2
		c-0.1-0.9-0.2-2-0.7-2.7c-1.1-1.5-2.6-2.6-4.4-3.1c-1.5-0.5-3.1-0.8-4.7-1.2c0.7-0.3,1.4-0.4,2.1-0.6c1.6-0.3,3.1-0.7,4.7,0.1
		c1.9,0.9,3.7,1.8,4.1,4.1c0.3,1.6,0.5,3.3,0.7,4.9c0.1,0.9,0.3,1.2,1.2,1.1c0.8-0.1,1.6-0.2,2.4-0.5c1-0.3,1.9-0.8,2.9-1.1
		c3.8-1,7.3-2.5,10.5-4.7c1.3-0.8,2.4-1.9,3.6-2.8c2.2-1.7,4.6-3.2,6.3-5.5c0.5-0.7,0.4-1.1-0.4-1.3c-1.2-0.3-2.4-0.6-3.6-1
		c-0.4-0.1-0.8-0.5-0.9-0.9c-0.6-1.8-0.4-3.7-0.2-5.5c0.1-0.6,0.2-1.1,0.3-1.7c0.5,1.9,1,3.8,1.5,5.7c0.1,0.4,0.5,0.8,0.8,1
		c0.7,0.4,1.5,0.5,2.2,0.8c1.5,0.6,3,1.2,4.5,1.7c1,0.3,2.1,0.4,3.1,0.8c3.2,1.3,6.4,2.6,9.6,4c0.9,0.4,1.7,1.1,2.4,1.7
		c0.6,0.5,1,1.2,1.5,1.8c0.9,1.3,2.1,2.4,2.2,4.1c0.1,1,0.3,1.9,0.6,2.9c0.8,2.1,1.1,4.4,1.1,6.6c0,1.6-0.2,3.2-0.3,4.8
		c0,0.3,0,0.6,0.1,0.9c0.4,1.3,0.7,2.6,1.2,3.9c0.2,0.5,0.7,1,1.1,1.3c0.8,0.5,1.3,0.2,1.3-0.8c0-1.4-0.2-2.8-0.3-4.2
		c-0.1-2.2-0.6-4.3-1.3-6.4c-0.5-1.5-0.6-3.1-0.7-4.7c-0.1-1.8,0-3.6,0-5.4c0-1.2-0.2-2.4-0.4-3.6c0-0.3-0.3-0.6-0.5-0.8
		c-0.9-1.1-1.9-2.1-2.7-3.3c-1.5-2.2-3.7-3.8-5.6-5.5c-1.9-1.7-3.8-3.4-5.2-5.6c-1.3-1.9-2.5-3.9-3.7-5.9c-0.5-0.8-0.8-1.7-1.3-2.5
		c0.1,0,0.1-0.1,0.2-0.1c0.2,0.2,0.5,0.4,0.6,0.6c1.1,1.2,2.3,2.5,3.4,3.7c0.9,1,1.4,1,2-0.3c0.1-0.3,0.1-0.6,0.2-1
		c0.1-2-0.2-4-0.8-5.9c-0.7-2.4-1.7-4.6-3.8-6.2c-3.5-2.6-7.2-4.8-11.2-6.5c-0.8-0.4-1.6-0.8-2.4-1.3c0.3-0.1,0.6-0.1,0.8,0
		c2.6,1,5.2,2,7.8,2.9c2.2,0.8,4.1,1.9,5.8,3.3c0.7,0.6,1.5,1.2,2,1.9c1.2,1.6,2.2,3.4,3.4,5.1c0.4,0.6,0.8,0.6,1-0.1
		c0.5-1.9,0.7-3.8-0.5-5.6c-1-1.5-2.1-3.1-3.3-4.6c-1-1.4-2.3-2.5-3.9-3.3c-2.5-1.3-5-2.4-7.6-3.6c-0.3-0.2-0.6-0.4-0.9-0.6
		c0.1-0.1,0.1-0.3,0.2-0.4c2.7,0.9,5.5,1.7,8.1,2.7c2.7,1,4.7,3.2,6.9,5.1c-0.1-0.6-0.2-1.2-0.5-1.6c-1-1.5-2-3-3.2-4.4
		c-1.2-1.6-2.7-3-4.6-3.8c-0.8-0.4-1.6-0.7-2.4-1c-1.4-0.6-2.9-1.3-4.3-1.9c-0.9-0.4-1.8-0.7-2.7-1.1c0-0.1,0.1-0.2,0.1-0.3
		c0.6,0.1,1.2,0.2,1.8,0.3c2.4,0.4,4.8,1,7,2.2c2.2,1.2,4.2,2.6,6.3,3.9c0.2,0.1,0.5,0.1,0.8,0.2c0-0.3,0-0.6,0-0.8
		c-0.1-0.4-0.3-0.8-0.5-1.2c-0.7-1.6-1.7-3-3-4.1c-1.8-1.5-4-2.2-6.1-3c-2.5-1-5-2.1-7.5-3.3c-0.8-0.4-1.5-1-2.2-1.5
		c0.2-0.2,0.3-0.2,0.4-0.2c1.4,0.3,2.8,0.6,4.2,0.9c0.9,0.2,1.8,0.4,2.6,0.8c1.7,0.8,3.4,1.7,5.1,2.5c0.2,0.1,0.5,0,0.8,0
		c-0.1-0.3-0.1-0.6-0.2-0.8c-1.1-1.5-2.2-2.9-3.3-4.3c-0.3-0.3-0.7-0.6-1.1-0.8c-0.9-0.4-1.9-0.7-2.8-1.1c-3-1.2-6-2.4-9.2-3.2
		c-3.6-0.9-7.1-2.3-10.6-3.5c-1.4-0.5-2.7-1.1-4.1-1.6c-0.8-0.3-1.3,0-1.9,0.9c-0.4,0.6,0,1.1,0.3,1.4c1.2,1.2,2.5,2.4,3.8,3.5
		c1.9,1.6,4.2,2.4,6.5,3.2c1.7,0.6,3.4,1.3,5.1,2c0.2,0.1,0.4,0.3,0.5,0.5c-0.7-0.1-1.3-0.4-2-0.6c-1.8-0.5-3.7-1-5.6-1.4
		c-2.8-0.6-5.2-2.1-7.5-3.5c-0.9-0.5-1.7-1.1-2.5-1.7c0.2,0.9,0.5,1.7,0.9,2.4c0.6,1.1,1.3,2.2,2,3.3c0.4,0.6,0.8,1.3,1.3,1.7
		c1.1,0.9,2.2,1.8,3.5,2.4c3.1,1.4,6.3,2.7,9.4,4c0.5,0.2,1,0.5,1.4,0.7c0,0.1-0.1,0.1-0.1,0.2c-4.6-1.6-9.6-2.1-14.1-5
		c0,0.5,0,0.7,0.1,0.9c0.3,0.6,0.6,1.3,1.1,1.9c1.3,1.4,2.7,2.8,4.5,3.6c2.6,1.3,5.2,2.7,7.7,4c0.4,0.2,0.7,0.4,1.1,0.6
		c0,0.1-0.1,0.2-0.1,0.3c-0.6-0.1-1.2-0.1-1.8-0.3c-1.8-0.5-3.7-0.9-5.5-1.6c-1.2-0.4-2.2-1.3-3.3-2c-0.2-0.1-0.4-0.1-0.6-0.1
		c-0.1,0-0.2,0.3-0.2,0.4c0.1,1.5,0.3,3.1,0.5,4.6c0.2,2,1.5,3.5,3.6,3.9c0.7,0.1,1.5,0.3,2.2,0.4C80.9,65.9,82.2,66.1,83.5,66.3z
		 M176.8,181.7c-56.3,0-112.7,0-169,0c-0.4,0-0.8,0-1.2,0c-1.2,0-1.3,0.1-1.3,1.3c0,2.1,0,4.3,0,6.4c0,2.3-0.2,2.2,2.2,2.2
		c112.8,0,225.7,0,338.5,0c0.3,0,0.6,0,0.9,0c1.2,0,1.3-0.1,1.3-1.3c0-2.2,0-4.4,0-6.6c0-2.1,0-2.1-2-2.1
		C289.7,181.7,233.2,181.7,176.8,181.7z M86.4,180c-0.3-0.5-0.5-0.9-0.8-1.1c-1.2-0.9-1.8-2.3-2.4-3.6c-0.3-0.7-0.8-1.6-1.4-1.9
		c-1.3-0.6-2.1-1.6-2.9-2.7c-0.5-0.7-1.1-1.3-2-1.6c-2-0.6-4-1.2-6-1.9c-1.7-0.5-3.4-1.1-5.1-1.6c-3.4-1-6.9-1.9-10.4-2.8
		c-1.3-0.4-2.7-0.7-4-1.2c-1.9-0.6-3.8-1.2-5.7-1.9c-0.7-0.3-1-0.9-1.1-1.7c-0.2-1.9,0.6-3.5,1.2-5.2c0.9-2.9,2-5.8,1.8-9
		c-0.1-1.1-0.2-2.1-0.4-3.1c-0.1-0.7-0.5-0.5-0.9-0.2c-0.9,0.6-1.7,1.1-2.6,1.7c-1.4,0.9-2.8,1.7-4.3,2.6c-1.6,1-3.1,2.1-4.7,2.9
		c-2,0.9-4.1,1.6-6.3,2.3c-2.3,0.7-4.6,1.5-6.2,3.5c-0.2,0.2-0.4,0.3-0.7,0.5c-0.7,0.5-1.2,1.1-1.2,2.1c0,1-0.3,1.9-0.5,2.9
		c-0.3,1.3-0.7,2.7-0.7,4c-0.1,1.5,0.2,3.1,0.3,4.6c0,0.3,0.2,0.5,0.3,0.8c0.4,0.8,0.8,1.7,1.3,2.5c0.6,1,1.2,2.1,2.1,2.9
		c1.9,1.7,3.9,3.3,5.3,5.5c0.4,0.7,1,1,1.8,1c18.3,0,36.7,0,55,0C85.6,180.1,85.9,180,86.4,180z M170,32c0-0.1,0-0.1,0-0.2
		c-2.5,0.1-5,0.3-7.5,0.4c-2.1,0.1-4.1,0.2-6.2,0.4c-0.1,0-0.2,0-0.2,0c-1.8,0.2-3.7,0.4-5.5,0.6c-1.3,0.1-2.6,0.2-4,0.4
		c-0.8,0.1-1.6,0.2-2.4,0.4c-1.8,0.3-3.5,0.6-5.3,0.9c-2.1,0.4-4.3,0.7-6.4,1.2c-2.1,0.4-4.2,0.9-6.3,1.4c-2.4,0.6-4.7,1.1-7.1,1.8
		c-1.3,0.3-1.3,0.4-1.3,1.7c0,1,0,2,0,2.9c0,0.4,0.1,0.8,0.3,1.1c0.1,0.2,0.6,0.4,0.8,0.4c2.3-0.5,4.6-1.1,6.9-1.6
		c1.6-0.4,3.3-0.8,4.9-1.1c2.4-0.5,4.9-1,7.3-1.4c2.3-0.4,4.6-0.8,6.9-1.2c2-0.3,3.9-0.5,5.9-0.7c2.7-0.3,5.4-0.6,8.1-0.9
		c1.6-0.2,3.2-0.3,4.9-0.3c3.3-0.1,6.5-0.3,9.8-0.3c3.9,0,7.8,0.2,11.6,0.3c1.3,0.1,2.7,0.2,4,0.4c2.1,0.2,4.1,0.4,6.2,0.6
		c1.3,0.1,2.6,0.2,4,0.4c2.1,0.3,4.3,0.6,6.4,0.9c0.7,0.1,1.4,0.2,2.1,0.3c1.8,0.3,3.6,0.6,5.4,0.9c1.8,0.3,3.7,0.7,5.5,1.1
		c2,0.4,4.1,0.7,6.1,1.2c2.2,0.5,4.4,1,6.6,1.5c0.7,0.2,1-0.2,1-0.7c0.1-1.5,0.1-3.1,0.1-4.6c0-0.2-0.3-0.6-0.5-0.7
		c-0.9-0.3-1.9-0.5-2.9-0.8c-1.3-0.3-2.5-0.6-3.8-0.8c-2.3-0.5-4.6-1-6.9-1.4c-2.3-0.4-4.5-0.7-6.8-1.1c-2.4-0.4-4.7-0.8-7.1-1.2
		c-1.9-0.3-3.8-0.5-5.7-0.7c-2.7-0.3-5.5-0.7-8.2-0.9c-3.7-0.2-7.4-0.2-11.1-0.4c-0.6,0-1.3-0.2-1.9-0.2c-0.4,0-0.8-0.1-1.1-0.1
		C174.2,31.7,172.1,31.8,170,32z M310.8,179.6c0.1,0.1,0.2,0.2,0.3,0.3c0.1,0,0.1,0.1,0.2,0.1c0.3,0,0.6,0,0.9,0
		c2,0,1.8,0.2,2.4-1.7c0.5-1.6,1.3-2.9,2.5-3.9c1.5-1.3,3.3-2,5.2-1.3c1.5,0.5,3,0.5,4.5,0.4c0.7,0,1.7-0.3,2-0.8
		c0.5-0.8,0.6-1.9,0.6-2.9c0-1.2-0.3-2.5-0.5-3.7c-0.2-1.3-0.4-2.6-0.9-3.8c-0.8-2.1-1.6-4.3-3.3-5.9c-1.2-1.2-2.4-2.5-3.7-3.7
		c-0.8-0.7-1.6-1.3-2.5-1.8c-2-1.3-4-2.6-6.1-3.9c-0.2-0.2-0.6-0.2-0.9-0.1c-1.1,0.1-1.9,0.7-2.7,1.3c-1.5,1.2-3,2.4-4.5,3.6
		c-1.5,1.1-1.6,1.4-1,3.2c0.1,0.4,0.3,0.8,0.3,1.2c0,0.4,0,1-0.2,1.2c-1.5,1.4-3.2,2.7-4.7,4.1c-0.7,0.6-1.5,1.2-1.7,2
		c-0.9,3.4-0.7,6.8,1.3,9.9c0.8,1.2,1.8,2.2,3.3,2.6c1.5,0.4,3.1,0.6,4.6,0.2c1.8-0.5,4-2.6,3.1-4.9c-0.4-0.9-0.4-2-0.2-2.9
		c0.5-2.2,1.9-3.8,4.1-4.6c0.2-0.1,0.4-0.2,0.4-0.3c0.7-1,1.7-1.5,2.8-2c1.1-0.5,2.3-0.6,3.5-0.4c0.2,0,0.5,0.3,0.7,0.5
		c0,0-0.1,0.3-0.2,0.5c-1.2,1.1-1.8,2.4-1.9,4.1c-0.1,0.9-0.3,1.9-0.5,2.8c-0.5,2.2-1.3,4.3-2.5,6.3c-1,1.6-2.1,3.1-3.7,4.2
		C311.4,179.3,311.1,179.5,310.8,179.6z M238.3,107.8c0.2-0.2,0.4-0.4,0.5-0.7c1-1.6,2.2-3.2,3-4.9c1.4-3.1,2.6-6.2,3.9-9.3
		c0.3-0.7,0.1-1.3-0.3-2c-1.1-1.5-2-3.2-2.4-5c-0.1-0.3-0.2-0.7-0.5-0.9c-1-1.1-1.4-2.4-1.7-3.8c-0.3-1.3-0.2-2.7-0.4-4
		c0-0.4-0.2-1-0.4-1.2c-0.7-0.5-0.9-1-0.6-1.8c0.1-0.2,0.1-0.5,0.1-0.7c0.2-5-0.1-9.9-1.3-14.8c-0.4-1.8-1-3.5-1.6-5.2
		c-0.2-0.6-1.1-1-1.8-1c-0.8,0.1-0.7,0.7-0.7,1.2c-0.2,3.2-0.4,6.4-0.6,9.6c-0.1,2.2-0.2,4.5-0.3,6.7c-0.1,2.5-0.2,5.1-0.3,7.6
		c-0.1,2.2-0.2,4.5-0.3,6.7c-0.1,3.2-0.2,6.5-0.3,9.7c0,1.2,0,2.3-0.1,3.5c-0.1,1.2-0.2,2.4-0.3,3.6c0,0.5,0.2,0.9,0.7,1
		c0.6,0.2,1.2,0.4,1.9,0.6c1.1,0.4,2.3,0.9,2.7,2.1c0.3,0.9,1.1,1.6,1,2.7C238.1,107.6,238.1,107.6,238.3,107.8z M13.5,15.3
		c-0.1,0.1-0.2,0.1-0.2,0.2c0.1,0.4,0.1,0.8,0.2,1.2c0.2,1,0.2,2.1,0.6,2.9c0.4,0.9,0.5,1.8-0.1,2.4c-0.4,0.4-1.4,0.6-2,0.5
		c-1.4-0.2-2.7-0.6-4.1-1c-0.9-0.2-1.8-0.6-2.6-0.9c0.1,0.4,0.3,0.7,0.5,0.8c1.2,0.8,2.3,1.7,3.6,2.2c2.4,1,4.8,1.9,7.3,2.5
		c3.5,0.9,7,1.5,10.6,2.2c0.7,0.1,1.4,0.3,2.2,0.3c1.5,0.1,2.9,0.2,4.4,0.3c2.5,0.1,4.9,0.4,7.4,0.3c2.6-0.1,5.2-0.4,7.8-0.6
		c2.6-0.2,5.2-0.5,7.6-1.4c0.6-0.2,1.1-0.4,1.7-0.6c1.9-0.5,3.8-1,5.7-1.5c0.7-0.2,1.5-0.3,2.2-0.2c0.6,0.1,1.3,0.5,1.6,1.1
		c0.2,0.2-0.4,1-0.7,1.5c-0.2,0.2-0.4,0.4-0.6,0.7c-0.1,0.1-0.1,0.3-0.2,0.6c0.3-0.1,0.7-0.2,0.7-0.1c0.4,0.7,0.9,0.3,1.4,0.2
		c1.5-0.1,1.7,0.1,1.6,1.7c-0.1,1.2-0.1,2.3,1,3.1c1,0.6,1.9,1.5,2.9,1.9c2.2,0.9,4.6,1.5,6.9,2.2c0.8,0.2,0.9-0.1,0.9-0.8
		c0-1.3,0-2.7,0-4c0-0.6,0.2-1.1,0.4-1.6c0.5-1.2,1.6-1.8,2.6-2.5c1.1-0.8,1.8-1.8,1.6-3.2c-0.1-1-0.7-1.5-1.6-1.9
		c-0.9-0.3-1.6-0.4-2.3,0.4c-0.4,0.5-1.1,0.9-1.8,1.1c-1.8,0.6-3.4,0-5-0.7c-0.2-0.1-0.4-0.6-0.3-0.7c0.7-0.9,1.1-2,2.2-2.4
		c0.5-0.2,1-0.5,1.7-0.8c-0.4-0.2-0.7-0.4-0.9-0.5c-2.4-0.2-4.7-0.2-6.6,1.6c-0.4,0.4-0.9,0.9-1.4,0.9c-0.4,0-0.9-0.5-1.4-0.8
		c-0.2-0.1-0.4-0.2-0.5-0.4c-0.3-0.4-0.6-0.8-0.6-1.2c-0.1-0.7,0.1-1.5,0.2-2.2c0.1-1,0.3-2,0.4-3c0-0.2-0.2-0.5-0.4-0.8
		c-0.3,0.2-0.6,0.3-0.7,0.5c-0.2,0.4-0.3,1-0.5,1.4c-0.7,1.5-1.2,3.2-2.3,4.4c-1.5,1.6-3.5,2.8-5.7,3.5c-1.8,0.6-3.7,0.9-5.6,1.2
		c-0.3,0.1-0.8-0.2-1-0.5c-0.6-0.7-1-1.5-0.9-2.5c0.1-0.8,0.1-1.6,0-2.4c-0.1-1-0.2-1.9-0.4-2.9c-0.1-0.3-0.3-0.6-0.6-1
		c-0.2,0.3-0.3,0.4-0.3,0.6c-0.2,1.4-0.4,2.8-0.7,4.2c-0.3,1.3-0.7,2.7-1.1,4c-0.1,0.3-0.4,0.6-0.7,0.6c-2.3,0.4-4.6,0.8-7,1
		c-1.3,0.1-2.6-0.1-3.9-0.3c-3.2-0.4-2.7-0.2-3.4-3.2c-0.4-1.8-0.2-3.9-2.3-5.2c0,0.4,0,0.6,0,0.9c0.2,1.9,0.1,3.9-0.5,5.7
		c-0.1,0.3-0.4,0.7-0.7,0.7c-1.8,0-3.6,0.2-5.4-0.1c-2.3-0.3-4.5-1-6.7-1.5c-0.4-0.1-0.7-0.3-0.8-0.8c-0.5-2.1-1.1-4.1-1.7-6.2
		C14.6,16.4,13.9,15.9,13.5,15.3z M174.6,10.9c0,2.1,0,4.1,0,6.2c0,2.8,0.4,5.5,1.4,8.1c0.9,2.5,2.7,4.3,5.2,5
		c1.5,0.4,3.2,0.1,4.8,0.1c0.1,0,0.2-0.1,0.3-0.1c2.6-1,4.2-3.1,5.4-5.5c0.9-1.8,1-3.9,1.1-5.9c0.1-4.3,0.1-8.5,0-12.8
		c0-0.9-0.2-1.9-0.3-2.8c-0.1-0.7-0.5-1-1.2-1c-2.9-0.1-5.7-0.2-8.6-0.3c-2.2-0.1-4.5,0-6.7,0c-1.1,0-1.3,0.1-1.3,1.3
		C174.6,5.7,174.7,8.3,174.6,10.9z M115.6,40.2c-0.2,0.1-0.4,0.1-0.5,0.2c-1.1,0.9-2,1.9-2.5,3.3c-0.3,0.9-0.7,1.8-1,2.7
		c-0.8,1.8-0.7,3.8-0.9,5.7c0,0.1,0,0.2,0,0.2c0.1,0.9,0.2,1.9,0.3,2.8c0.1,1.2,0.2,2.4,0.4,3.5c0.3,1.9,0.6,3.7,0.9,5.6
		c0.2,1.1,0.2,2.2,0.4,3.2c0.6,2.7,1,5.5,0.9,8.3c0,0.6-0.2,1.1-0.8,1.3c-1.9,0.6-2.5,2.2-2.8,3.9c-0.4,2.4-1.3,4.5-2.5,6.6
		c-0.6,1-0.5,1.7,0.2,2.5c1.3,1.5,2.6,3,3.8,4.5c0.3,0.4,0.5,0.8,0.9,1.1c2.2,1.7,4.4,3.4,6.7,5.2c0.1-0.4,0.2-0.7,0.1-1
		c-0.1-1.8-0.2-3.5-0.3-5.3c-0.2-3.6-0.4-7.1-0.7-10.7c-0.2-3.3-0.4-6.5-0.6-9.8c-0.2-3.2-0.4-6.3-0.7-9.5c-0.1-1.8-0.2-3.6-0.3-5.4
		c-0.2-3.2-0.5-6.5-0.6-9.7c-0.2-2.7-0.2-5.4-0.4-8.1C115.7,40.9,115.6,40.6,115.6,40.2z M31.3,140.7c0.1,0.1,0.1,0.1,0.2,0.2
		c-0.6,0.5-1.1,1.2-1.8,1.6c-2.1,1.2-4.2,2.3-6.3,3.5c-1.8,1.1-3.6,2.2-5.3,3.4c-0.8,0.6-1.4,1-2.4,0.4c-0.7-0.4-1-0.2-1.1,0.6
		c-0.1,2.3-0.3,4.6-0.3,6.9c0,1.3,0.2,2.5,0.3,3.8c0.1,1.4,0,2.9,0,4.3c0,1.4-0.1,2.8,0,4.1c0.2,1.9,0.8,3.7,2.4,5
		c0.9,0.7,1.8,1.4,2.6,2.3c1.3,1.4,2.5,1.2,3.6,0.3c-0.7-0.8-1.2-1.8-2-2.5c-2.3-2-3.8-4.3-4-7.4c-0.2-4.1,0.8-8,1.1-12
		c0-0.4,0.4-0.9,0.6-1.3c0.2-0.3,0.4-0.5,0.6-0.8c1-1.9,2.5-3,4.5-3.5c1.1-0.3,2.3-0.6,3.3-1c4.3-1.6,8.7-3.2,12.4-6
		c2.2-1.6,5-2.5,6.3-5.2c0,0,0,0,0.1-0.1c0.7-0.9,0.2-3.1-0.9-3.5c-1.2-0.5-2.4-0.9-3.7-1.3c-1.7-0.5-3.4-1-5.2-1.5
		c-0.3-0.1-0.7,0.3-0.9,0.5c-0.5,0.6-0.8,1.4-1.3,2.1c-1,1.4-2,2.7-3.1,4c-0.9,1.1-1.8,2.1-3.2,2.7c-1.9,0.8-3.8,1.7-5.7,2.5
		c-2,0.9-4.1,1.8-6.1,2.7c-1.2,0.5-1.5,1.5-0.8,2.3c0.6,0.7,1.3,0.7,2.4,0c2-1.2,3.9-2.5,5.9-3.5c1.8-0.9,3.7-1.7,5.6-2.5
		C29.9,141.5,30.6,141.1,31.3,140.7z M313.4,144.9c1.4,1,2.6,2,3.9,2.8c1.5,0.9,3.1,1.8,4.8,2.4c2.3,0.9,3.2,3.1,4.9,4.6
		c0.6,0.5,1.1,1,1.6,1.6c0.4,0.6,0.9,1.2,1.1,1.8c0.3,1.1,0.2,2.3,0.4,3.4c0.2,1.8,0.4,3.6,0.7,5.4c0.6,3,0.2,6-0.5,8.9
		c0,0.2-0.5,0.4-0.7,0.4c-1.4-0.7-2.9-1-4.4-1.3c-0.8-0.1-1.5-0.2-2.3,0.3c-0.6,0.4-1.2,0.7-1.7,1.1c-0.3,0.3-0.6,0.7-0.8,1.1
		c0.1,0.1,0.1,0.2,0.2,0.2c0.3,0,0.6-0.1,0.9-0.1c1.7-0.3,3.4-0.4,4.8,0.7c0.8,0.6,1.7,1.2,2.8,1.2c1.5,0,3.1,0.1,4.6,0.1
		c0.1,0,0.3-0.1,0.4-0.2c0.8-0.8,1.7-1,2.8-1.2c0.9-0.2,1.5,0,2.2,0.5c0.2,0.2,0.4,0.4,0.6,0.5c0.2,0.1,0.6,0.1,0.8,0.1
		c-0.1-0.3-0.1-0.6-0.2-0.9c-0.3-0.4-0.7-0.6-1-0.9c-1.1-0.9-2.3-1.7-3.8-1.4c-0.6,0.1-0.6-0.2-0.6-0.7c0.2-1.7,0.6-3.3,0.5-5
		c0-3,0.5-5.9,0.1-8.9c-0.3-2.4-0.4-4.8-0.7-7.2c-0.3-2.1-0.7-4.1-1.1-6.2c-0.1-0.4-0.5-1-0.8-1.2c-1.7-0.8-3.5-1.4-5.2-2.1
		c-0.7-0.2-1.4-0.2-2-0.5c-2-1.1-4-2.2-6-3.3c-0.2-0.1-0.7-0.1-0.9,0c-1.2,0.8-2.3,1.6-3.4,2.4C314.7,144,314.2,144.4,313.4,144.9z
		 M281.8,37.4c0.1,0,0.2,0,0.3,0.1c0.1-0.2,0.3-0.3,0.4-0.5c0.3-0.6,0.6-1.1,0.9-1.7c1.3-2.1,2.6-4.2,3.9-6.4
		c0.9-1.6,1.7-3.3,2.8-4.8c0.6-0.9,1.5-1.7,2.4-2.2c1.3-0.6,2.8-1,4.2-1.2c2.3-0.3,4.7-0.6,7-0.7c3.4-0.2,6.9-0.2,10.3-0.4
		c0.4,0,0.9,0,1.3-0.1c1.6-0.2,3.1-0.4,4.7-0.6c2-0.2,4.1-0.4,6.1-0.8c2-0.3,4-0.8,6.1-1.3c1.3-0.3,2.6-0.6,3.4-1.8c0.7-1,1.4-2,2-3
		c0.1-0.2,0.1-0.4,0.1-0.6c-0.2,0-0.5-0.1-0.7,0c-0.7,0.2-1.4,0.5-2.2,0.7c-3.1,0.8-6.3,1.6-9.4,2.3c-2.3,0.5-4.6,0.8-6.9,1.1
		c-2.5,0.3-5,0.7-7.5,0.9c-2.8,0.2-5.7,0.3-8.5,0.4c-0.8,0-1.5,0-2.3,0.1c-1.4,0.1-2.9,0.2-4.3,0.3c-1.7,0.1-3.3,0.8-4.4,1.9
		c-1.4,1.3-2.4,2.8-3.5,4.4c-1.8,2.7-3.5,5.6-5.3,8.3c-0.8,1.3-1.5,2.5-1.3,4.1C281.8,36.3,281.8,36.8,281.8,37.4z M155.1,4.9
		c-0.1,0.9,0,1.9,0.6,2.9c1.1,1.7,2,3.5,3.1,5.2c1.9,3,3.8,6,5.8,9c1.3,2.1,2.7,4.1,4,6.2c0.3,0.5,0.7,0.6,1.2,0.2
		c1.9-1.5,2.6-3.7,3-5.9c0.1-0.5-0.1-1.1-0.4-1.5c-2.2-3.7-4.5-7.4-6.8-11.1c-1.5-2.4-3.1-4.7-4.6-7.1c-0.3-0.5-0.8-0.7-1.4-0.6
		c-0.7,0.1-1.5,0.2-2.3,0.2C154.9,2.5,155.1,2.3,155.1,4.9z M204.3,24.9c-0.1,0-0.1,0.1-0.2,0.1c0.2,0.5,0.3,1.1,0.5,1.6
		c0.2,0.4,0.6,0.8,0.8,1.2c0.1,0.3,0.1,0.7,0,0.9c-0.2,0.2-0.6,0.4-0.9,0.4c-0.4,0-1.2,0.4-1.4,0.7c-0.1,0.1-0.2,0.2-0.2,0.3
		c0,0.1,0,0.4,0.1,0.4c0.5,0.3,0.9,0.5,1.4,0.7c0.2,0.1,0.5,0,0.6-0.2c0.5-1.1,1.6-1.1,2.5-1.6c1-0.6,1.1-0.7,0.4-1.7
		c-0.5-0.6-0.5-1,0.1-1.5c0.5-0.5,0.9-1.1,1.3-1.6c0.4-0.5,0.7-1,1-1.6c0.3-0.5,0.6-1.1,0.7-1.7c0.2-2-0.6-3.8-1-5.7
		c-0.2-1.1-0.2-2.4-0.2-3.5c0-0.2,0.4-0.4,0.7-0.6c0.1,0.3,0.2,0.5,0.2,0.8c-0.1,0.6,0,1.1,0.6,1.3c0.6,0.2,1-0.3,1.2-0.8
		c0.4-0.9-0.1-2-0.8-2.3c-1-0.5-2.5-0.2-2.9,0.6c-0.3,0.7-0.6,1.6-0.5,2.4c0.1,1.4,0.5,2.7,0.7,4.1c0.2,1,0.4,1.9,0.4,2.9
		c0,0.8-0.5,1.1-1.3,0.7c-0.5-0.3-1-0.8-1.5-1.2c-1.6-1.4-1.3-2.2-0.2-3.2c0.4-0.5,0.8-1.2,0.9-1.8c0.1-1.1-0.2-2.3-0.2-3.5
		c0-0.3,0.2-0.7,0.3-1.1c0.1-0.3,0.2-0.8,0.1-1c-0.4-0.7-2.4-1.4-3-0.9c-0.7,0.6-1.4,0.5-2.1,0.5c-0.6,0-1,0.1-1.2,0.7
		c-0.2,0.6,0.3,0.8,0.6,1c0.4,0.4,0.6,0.7,0.1,1.1c-0.2,0.1-0.2,0.4-0.3,0.6c0.2,0.1,0.4,0.2,0.6,0.3c0.1,0,0.3,0.1,0.4,0.1
		c0,0.1,0.1,0.2,0.1,0.3c-0.8,0.4-1.5,0.8-2.3,1.2c-0.5-0.7-0.9-1.4-1.3-2.1c-0.2-0.3-0.2-0.8-0.3-1.2c-0.1-0.3-0.1-0.8-0.3-0.9
		c-0.5-0.2-1.1-0.3-1.7-0.3c-0.1,0-0.2,0.2-0.2,0.3c-0.1,0.4-0.3,0.8-0.3,1.2c0,0.2,0.2,0.7,0.4,0.7c0.8,0.2,1,0.8,1.2,1.5
		c0.2,0.6,0.5,1.2,0.7,1.8c0.2,0.8,0.6,1.8,0.3,2.4c-0.6,1-1.4,2.1-2.7,2.4c-0.8,0.2-1,0.7-0.8,1.5c0.2,0.7,0.7,0.4,1.1,0.3
		c0.3-0.1,0.6-0.4,0.9-0.7c0.3-0.2,0.5-0.5,0.9-0.7c0.5-0.2,1-0.3,1.4-0.5c0.5-0.3,0.9-0.2,1.3,0.3c0.6,0.8,1.5,1.1,2.4,1.3
		c0.2,0,0.4,0.1,0.6,0.2c0,0.1,0,0.2,0,0.2c-0.5,0.1-1.1,0.3-1.6,0.3c-1.5,0.1-1.6,0.2-1.7,1.8c0,1.5-0.7,1.9-2,1.2
		c-0.3-0.1-0.8-0.2-1,0c-0.3,0.2-0.6,0.7-0.7,1c-0.1,0.2,0,0.6,0.1,0.7c0.5,0.4,1.1,0.7,1.7,0.9c0.2,0.1,0.6-0.4,1-0.6
		c0.2-0.1,0.4-0.2,0.6-0.2c0.5-0.1,1-0.2,1.5-0.4c0.3-0.1,0.7-0.5,0.7-0.8c0.2-1.3,0.2-1.3,1.5-1.1
		C204.1,24.9,204.2,24.9,204.3,24.9z M310.5,102.1c0,0.1-0.1,0.1-0.1,0.2c0.8,1.3,1.5,2.5,2.3,3.8c0.4,0.7,0.8,1.1,1.6,1.3
		c2.3,0.8,4.6,1.6,6.4,3.3c2.3,2.3,4.2,4.9,5.1,8c1,3.5,0.7,6.9-1.3,10c-0.8,1.2-1.4,2.5-2.4,3.5c-1.3,1.4-2.1,3.3-4.2,3.9
		c-0.2,0.1-0.4,0.3-0.6,0.5c-1.1,0.9-2.2,1.8-3.3,2.7c-1.4,1.3-3.3,2-4.4,3.6c-0.1,0.2-0.5,0.3-0.8,0.4c-0.4,0.2-0.8,0.3-1.1,0.5
		c-1.6,1.1-3,2.3-4.7,3.3c-1.4,0.8-1.3,2.1-0.9,3.1c0.3,0.7,0.5,0.7,1.1,0.2c0.4-0.4,0.8-0.8,1.3-1.1c3.8-2.7,7.7-5.3,11.5-8
		c1.3-0.9,2.4-2,3.5-3.2c1.8-1.9,4.1-3.3,5.6-5.6c0.9-1.4,2-2.7,2.7-4.3c1.1-2.4,1.1-5.1,1.4-7.6c0.2-1.9-0.6-3.7-1.4-5.4
		c-0.7-1.3-1.5-2.6-2.3-3.9c-1.1-1.9-2.7-3.3-4.3-4.7c-0.8-0.6-1.6-1.2-2.5-1.6c-2.3-1.1-4.6-2-6.9-3
		C311.1,102.1,310.7,102.1,310.5,102.1z M133.9,23.4c0.1,0,0.2-0.1,0.3-0.1c0-0.2,0.1-0.4,0-0.6c-0.1-0.6-0.2-1.2-0.2-1.8
		c-0.1-2-0.2-4-0.4-6c-0.1-1.1-0.2-2.3-0.4-3.4c-0.4-1.9-0.5-1.9-2.3-1.5c-2.4,0.5-4.9,1-7.3,1.6c-2.2,0.5-4.4,1.2-6.6,1.8
		c-0.6,0.2-0.9,0.6-0.7,1.3c0.1,0.4,0.2,0.8,0.3,1.2c0.1,2.7,0.2,5.4,0.4,8.1c0,0.3,0.1,0.7,0.1,1c0.1,0,0.2,0,0.3,0
		c0.1-0.3,0.3-0.6,0.3-0.9c0.3-1.3,0.5-2.7,0.8-4c0.1-0.5,0.4-0.9,0.7-1.4c0.4,0.4,0.9,0.8,1.2,1.3c0.6,1.2,1,2.4,1.6,3.7
		c0.1,0.2,0.4,0.4,0.6,0.6c0.2-0.2,0.5-0.4,0.5-0.6c0.3-1.5,0.6-3,0.9-4.4c0.1-0.5,0.4-0.9,0.6-1.3c0.3,0.3,0.7,0.6,0.9,1
		c0.7,1.4,1.3,2.9,2,4.3c0.1,0.2,0.4,0.3,0.6,0.5c0.1-0.2,0.3-0.4,0.4-0.6c0.4-1.7,0.7-3.5,1-5.2c0.1-0.3,0.2-0.7,0.3-1
		c0.1,0,0.2,0,0.3-0.1C131.4,19.1,132.6,21.2,133.9,23.4z M123.2,28.1c-0.1,0-0.2,0-0.3,0.1c-0.2-0.3-0.5-0.7-0.6-1
		c-0.7-1.6-1.4-3.2-2.1-4.8c-0.1-0.3-0.4-0.5-0.6-0.7c-0.2,0.3-0.4,0.5-0.5,0.8c-0.5,2.1-1,4.3-1.5,6.4c0,0.2-0.1,0.3,0,0.5
		c0.5,1.2,0.9,2.5,1.7,3.6c1,1.4,2.5,2.3,4.3,2.8c2.2,0.6,4.2,0,5.8-1.3c2.1-1.6,3.5-3.8,4.2-6.4c0.2-0.7,0.5-1.7,0.2-2.3
		c-0.8-1.9-1.9-3.6-2.9-5.4c-0.1-0.2-0.3-0.3-0.5-0.4c-0.1,0-0.3,0.3-0.3,0.5c-0.2,1.3-0.5,2.7-0.7,4c-0.1,0.7-0.2,1.4-0.4,2.2
		c0,0.2-0.2,0.4-0.4,0.7c-1.2-2.3-2.3-4.5-3.4-6.7c-0.1,0-0.2,0-0.4,0.1C124,23,123.7,25.6,123.2,28.1z M95.2,26.8
		c-0.3-0.1-0.4-0.1-0.5-0.2c-1.9-1.4-4.1-1.8-6.3-2.2c-0.7-0.2-1.1,0.1-1.1,0.7c0.1,0.7,0.1,1.4,0.2,2c0.2,0.7,0,1.2-0.5,1.7
		c-0.4,0.4-0.9,0.8-1.3,1.1c-1.7,1.4-3.7,2.6-3.4,5.4c0.1,0.8,0.4,1.3,0.9,1.8c0.6,0.6,0.9,0.5,1.3-0.2c0.1-0.2,0.3-0.3,0.5-0.5
		c1-0.9,2-1.8,3.1-2.7c1-0.8,1.9-1.6,3.3-1.9c1.2-0.3,2.5-0.7,3.7-1c0.4-0.1,0.8,0,1.3,0c1.4,0,2.9-0.1,4.3-0.1
		c0.2,0,0.4-0.3,0.6-0.5c-0.2-0.1-0.5-0.3-0.7-0.4c-0.7-0.2-1.5-0.2-2.2-0.4c-0.3-0.1-0.7-0.4-0.7-0.7c-0.2-0.9-0.2-1.9,0.7-2.6
		c0.5-0.4,1-0.8,1.4-1.2c0.6-0.6,1.3-1.1,1.7-1.8c0.7-1,0.3-1.9-0.8-2.2c-0.2-0.1-0.5-0.2-0.6-0.4c-0.4-0.6-1-0.6-1.6-0.4
		c-0.3,0.1-0.6,0.1-0.9,0.2c-1.3,0.3-2.7,0.6-4,0.9c-0.4,0.1-0.8,0.2-1.1,0.1c-2.3-0.5-4.7-0.7-7-0.6c-0.7,0-1.3,0.2-2,0.5
		c-0.3,0.1-0.5,0.5-0.6,0.8c0,0.1,0.3,0.5,0.6,0.6c0.4,0.2,0.9,0.2,1.3,0.3c1.3,0.2,2.6,0.3,3.9,0.7c1.4,0.4,2.8,0.9,4.2,1.4
		c1.1,0.4,1.1,0.3,1.7-0.7c0.4-0.7,1-1.3,2-1.4C94.9,23.7,95.5,25.4,95.2,26.8z M315,109.9c0.3,1.1,0.6,1.9,0.9,2.7
		c0.7,1.8,1.1,3.5,0.1,5.4c-0.7,1.4-1.2,2.9-1.8,4.4c-0.1,0.3-0.1,0.6,0,0.9c0.5,2,0.9,4.1,1.5,6.1c0.3,1.2,0.8,2.4,1.3,3.5
		c0.4,0.8,0.7,0.8,1.3,0.3c1.3-1,2.5-2.3,3.3-3.8c1.3-2.3,2-4.7,2.3-7.2c0.3-2-0.5-3.8-1.4-5.5c-1.4-2.8-3.7-4.8-6.4-6.3
		C315.9,110.2,315.6,110.1,315,109.9z M251.4,34c0.3,0.4,0.4,0.6,0.7,0.8c2.2,1.3,4.6,2.3,7.1,2.8c0.4,0.1,0.7,0.3,1,0.5
		c0.4,0.3,0.7,0.7,1.1,1c0.7,0.6,1.2,0.5,1.5-0.3c0.5-1.2,0.8-2.4,1.1-3.6c0.1-0.5,0-1.2-0.3-1.7c-0.5-1-1.2-1.9-1.9-2.7
		c-0.7-0.8-1.5-1.5-2.2-2.3c-0.8-0.8-1-1.9-0.4-2.4c1.1-0.9,1-2.1,1-3.4c0-1-0.3-1.2-1.3-1.3c-0.4,0-0.9,0-1.2-0.2
		c-0.7-0.5-1.5-0.5-2.3-0.5c-1,0-2,0-3,0c-2.6,0-4.7,1.7-5.5,4.2c-0.2,0.6,0,1,0.6,0.8c1-0.3,1.9-0.1,2.9,0c2.1,0.3,3.7,1.6,5.1,3
		c1.4,1.4,2.6,3.1,3.8,4.7c0.7,0.9,1.2,1.8,1.9,2.7c0,0.1-0.1,0.1-0.1,0.2C258,34.6,255,33.3,251.4,34z M215.1,21.2
		C215.1,21.2,215.1,21.2,215.1,21.2c0,0.7,0,1.5,0,2.2c0,0.8,0.3,1.2,1.1,1.4c1.9,0.3,3.7,0.7,5.6,1c2.1,0.4,4.2,0.8,6.3,1.2
		c1.2,0.2,2.4,0.5,3.6,0.7c0.7,0.1,1.2,0,1.3-0.8c0.1-0.7,0.2-1.4,0.3-2.2c0.1-0.8,0-1.6,0.2-2.4c0.2-0.9,0-1.4-1-1.6
		c-1.4-0.3-2.8-0.3-4.1-0.8c-2-0.7-4.2-0.6-6.2-1.1c-1.9-0.4-3.9-0.5-5.9-0.8c-0.8-0.1-1,0.2-1,0.8
		C215.1,19.7,215.1,20.4,215.1,21.2z M313.5,169.5c-0.1,0-0.3,0-0.4,0c-0.2-0.9-0.4-1.8-0.5-2.7c-0.1-0.7-0.6-1-1.2-0.5
		c-0.3,0.2-0.4,0.6-0.6,0.9c-0.4,1.1-0.3,2.2,0.1,3.3c0.4,1,0.3,2-0.1,2.9c-1.4,2.9-4,4-6.9,4.2c-1.9,0.1-3.6-0.6-5.1-1.9
		c-0.7-0.6-1.5-1.1-2-1.8c-1.8-2.4-2.5-5.2-2.5-8.2c0-0.3,0.1-0.7,0.1-1.3c-0.7,0.7-1.2,1.2-1.7,1.7c-0.6,0.5-0.9,1.2-0.8,2
		c0.2,3.8,1.9,6.8,4.5,9.5c0.6,0.6,1.4,0.9,2.2,1.2c0.7,0.3,1.5,0.3,2.2,0.6c2.9,1.1,5.7,0.3,8.4-0.4c1.2-0.3,2.2-1.3,3.3-2.1
		c1.5-1.2,2-3,2.8-4.7c1.3-2.8,1.3-6,2.1-8.9c0.2-0.6-0.2-0.8-0.7-0.6c-1.2,0.6-2.5,1.2-3,2.5c-0.3,0.8-0.1,1.9-0.1,2.8
		C313.5,168.6,313.5,169.1,313.5,169.5z M215.5,14.8c-0.1,1.8,0.2,1.9,1.5,2c1.9,0.3,3.8,0.6,5.7,0.9c1.7,0.3,3.3,0.6,5,0.8
		c1.5,0.3,3.1,0.6,4.6,0.8c1.1,0.1,1.3-0.1,1.3-1.2c0.1-1.5,0.2-2.9,0.3-4.4c0-0.6-0.2-0.9-0.8-1c-2.3-0.5-4.7-0.9-7-1.3
		c-1-0.2-1.9-0.2-2.9-0.4c-2.1-0.4-4.2-0.8-6.3-1.2c-0.5-0.1-1,0-1,0.7C215.7,11.8,215.6,13.3,215.5,14.8z M155.7,10.1
		c-0.1,0-0.1,0-0.2,0.1c0,0.3-0.1,0.7-0.1,1c0.1,1.6,0.3,3.1,0.3,4.7c0,2.2,0.2,4.3,0.7,6.5c0.4,1.9,1.1,3.7,2.3,5.2
		c2.2,2.7,5.1,3.7,8.5,2.8c0.6-0.2,0.9-0.5,0.6-1.2c-0.1-0.3-0.3-0.5-0.5-0.8c-0.8-1.3-1.7-2.5-2.4-3.7c-1.2-1.9-2.3-3.8-3.4-5.7
		c-1.7-2.7-3.4-5.5-5.2-8.2C156.1,10.5,155.9,10.3,155.7,10.1z M295.3,53.6c0-0.7-0.3-0.9-1-0.7c-3,0.9-6.1,1.1-9.2,1.1
		c-4.9,0-7.7,3.3-9.4,7.1c-0.3,0.7,0.1,1.1,0.8,0.8c2.6-0.9,5.3-0.5,7.9-0.8c2.6-0.3,5-0.9,7.3-2C294,58,294.8,55.9,295.3,53.6z
		 M154.2,20.9c0-0.5,0.1-1.1,0-1.6c0-0.3-0.3-0.7-0.5-0.7c-0.6-0.2-1.3-0.3-2-0.2c-1.9,0.2-3.7,0.5-5.5,0.7
		c-1.2,0.2-1.3,0.2-1.3,1.5c0.1,2.7,0.2,5.5,0.3,8.2c0,0.4,0,0.8,0,1.1c0.1,0.6,0.2,1.3,0.3,1.9c0,0.2,0.3,0.4,0.5,0.4
		c0.8-0.1,1.7-0.1,2.4-0.5c1.4-0.7,2.6-1.7,3.5-3C153.5,26.4,154.3,23.8,154.2,20.9z M173.2,12.3c0,0,0.1,0,0.1,0
		c-0.2-3.1-0.3-6.2-0.5-9.3c0-0.6-0.2-1.1-0.9-1.1c-1.2,0-2.3,0-3.5,0c-0.5,0-1,0-1.4,0.1c-1.3,0.1-2.7,0.1-4,0.2
		c-0.8,0.1-0.8,0.5-0.5,1.1c0.4,0.6,0.8,1.3,1.2,1.9c2.7,4.4,5.5,8.7,8.2,13.1c0.2,0.3,0.6,0.4,0.8,0.6c0.1-0.3,0.3-0.6,0.3-0.9
		C173.2,16,173.2,14.1,173.2,12.3z M281.7,51.3c0.1,0.6-0.1,1.2,0.7,1c1.8-0.3,3.6-0.6,5.5-0.7c1.9-0.1,3.8-0.3,5.7-0.7
		c3.7-0.7,6.4-2.7,7.7-6.3c0.1-0.3,0-0.8,0-1.2c-0.3,0-0.7-0.1-1,0c-3.5,1.4-7.2,1.5-10.9,1.6c-2.2,0.1-4.2,0.8-5.7,2.4
		c-0.7,0.7-1.1,1.7-1.7,2.6C281.9,50.6,281.8,51,281.7,51.3z M224.5,35.6c2.5-0.5,4.7-1.7,6.4-3.8c0.3-0.4,0.6-0.9,0.9-1.5
		c0.3-0.7,0-1.2-0.6-1.3c-2.7-0.6-5.4-1.1-8-1.7c-2.1-0.4-4.1-0.8-6.2-1.2c-0.4-0.1-1-0.1-1.2,0.1c-0.2,0.2-0.2,0.8-0.1,1.2
		c0.5,1.8,1.4,3.4,2.5,5C219.8,34.5,221.9,35.3,224.5,35.6z M289.9,37.5c1-0.3,1.8-0.7,2.7-0.8c2.5-0.4,5.1-0.8,7.6-1
		c3.2-0.2,6.3-0.7,9.4-1.4c2.7-0.6,4.9-2.1,6.6-4.3c0.2-0.2,0.2-0.6,0.3-0.9c-0.3,0-0.6-0.1-0.9-0.1c-1.3,0.2-2.7,0.6-4,0.8
		c-1.1,0.2-2.3,0.2-3.4,0.4c-1.4,0.2-2.7,0.4-4.1,0.6c-1,0.1-2.1,0.3-3.1,0.4c-3.2,0.1-6.1,0.9-8.7,2.7
		C291.2,34.7,290.3,35.8,289.9,37.5z M303.4,136.7c0.3,0.5,0.4,1,0.7,1.2c1.1,1,2.3,1.8,3.4,2.7c0.2,0.1,0.4,0.2,0.6,0.2
		c0.8-0.2,1.7-0.3,2.4-0.8c1.6-1,3.2-2.2,4.7-3.4c0.3-0.2,0.6-0.9,0.5-1.2c-0.7-1.9-1.4-3.9-2.2-5.8c-0.3-0.7-0.7-1.4-1.2-2
		c-0.4-0.6-0.8-0.6-1.3-0.1c-0.9,0.9-1.7,1.8-2.6,2.7c-0.5,0.5-1.1,0.9-1.5,1.5c-0.9,1.1-1.7,2.3-2.5,3.5
		C304.1,135.7,303.8,136.2,303.4,136.7z M136.7,19.6c1-0.2,2.2-0.4,3.4-0.7c1-0.2,2.1-0.4,3.1-0.7c0.4-0.1,0.8-0.3,0.8-0.9
		c-0.2-2.4-0.3-4.8-0.5-7.2c0-0.6-0.2-1.2-0.3-1.8c-0.1-0.6-0.5-0.8-1.1-0.6c-2.3,0.5-4.6,0.9-6.8,1.4c-0.3,0.1-0.6,0.4-0.6,0.7
		c-0.1,0.4,0,0.8,0,1.2c0.2,2.5,0.4,4.9,0.6,7.4C135.2,19.5,135.3,19.6,136.7,19.6z M110.7,65.5c0.1,0,0.2-0.1,0.4-0.1
		c0-0.4,0.1-0.7,0.1-1.1c-0.2-1.5-0.4-3.1-0.7-4.6c-0.6-2.8-0.9-5.7-0.9-8.6c0-0.3-0.1-0.6-0.1-0.9c-0.5-1.9-0.1-3.8,0.9-5.4
		c1.1-1.7,2.3-3.3,3.5-4.9c1.3-1.7,2.3-3.4,1.9-5.7c-0.1-0.3-0.2-0.7-0.4-1c-0.3,0.2-0.6,0.5-0.9,0.7c-0.2,0.3-0.4,0.7-0.6,1
		c-1,1.5-2,3.1-3,4.5c-1,1.4-2.1,2.8-3.3,4c-1.3,1.4-2.5,2.9-1.9,5c0.1,0.3,0,0.6,0,0.9c0,1.4,0,2.8,0,4.2c0,0.5,0.1,0.9,0.3,1.3
		c0.9,1.9,1.8,3.8,2.7,5.8c0.3,0.5,0.5,1.1,0.7,1.6C109.9,63.5,110.3,64.5,110.7,65.5z M244.8,58.2c-0.4-2.1-0.7-4.1-1.1-6.1
		c-0.9-3.9-2.3-7.6-3.9-11.3c-0.2-0.4-0.5-0.5-0.8-0.2c-0.5,0.4-0.7,0.8-0.5,1.4c0.1,0.3,0.3,0.6,0.4,0.9c1.1,2.8,1.3,5.5-0.8,8
		c-0.2,0.2-0.3,0.6-0.2,0.8c0.6,2.2,1.3,4.3,1.9,6.5c0.6,2.2,1,4.5,1.5,6.7c0.1,0.3,0.3,0.6,0.5,0.9c0.2-0.3,0.5-0.5,0.6-0.8
		c0.6-1.5,1.2-3,1.8-4.5C244.4,59.8,244.6,58.9,244.8,58.2z M285.5,43.8c0,0.1,0.1,0.2,0.1,0.3c0.3-0.1,0.6-0.1,1-0.2
		c0.4-0.1,0.7-0.4,1.1-0.4c1.1-0.2,2.2-0.3,3.3-0.4c1.6-0.2,3.3-0.5,4.9-0.6c2.2-0.1,4.3-0.5,6.4-1.2c2-0.7,3.5-1.9,4.3-3.8
		c0.1-0.3,0.1-0.6,0.2-0.9c-0.3,0-0.6-0.1-0.9-0.1c-1.6,0.2-3.2,0.4-4.8,0.5c-1.9,0.2-3.7,0.2-5.6,0.4c-0.9,0.1-1.9,0.2-2.7,0.5
		c-1.6,0.7-3.1,1.6-4.6,2.6C287,41.4,286.2,42.6,285.5,43.8z M283.4,174.8c2,0.7,2.7,2.3,3.1,4c0.3,1.2,0.4,1.3,1.7,1.3
		c2.4,0,4.8,0,7.2,0c0.3,0,0.6,0,1-0.1c-0.3-0.5-0.5-1-0.8-1.3c-0.6-0.7-1.4-1.3-2-2c-1.6-1.9-2.6-4.1-3-6.6
		c-0.1-0.5-0.3-1.1-0.5-1.8C287.9,170.5,285.7,172.5,283.4,174.8z M40.6,26c1.5-0.2,2.9-0.3,4.3-0.5c0.7-0.1,1.2-0.4,1.5-1
		c0.2-0.5,0.5-0.9,0.7-1.4c0.3-0.7,0.2-1-0.6-1c-1.3,0-2.6,0-3.9,0c-0.6,0-1.2,0.3-1.8,0.2c-1.5,0-3.1-0.2-4.6-0.3
		c-1.9,0-1.8,0-1.4,1.8c0.2,0.9,0.7,1.5,1.7,1.6C37.8,25.6,39.2,25.8,40.6,26z M37.1,14.3c0,1,0,1.8,0,2.6c0,0.7-0.2,1.1-1,1.3
		c-0.9,0.2-1.7,0.4-2.6,0.7c-0.2,0-0.4,0.4-0.4,0.4c0.3,0.5,0.5,1.1,1,1.3c0.7,0.3,1.5,0.3,2.3,0.4c0.6,0.1,1.1,0.1,1.7,0.2
		c0.7,0.1,1.4,0.2,2.1,0.1c1.6-0.1,3.1-0.2,4.7-0.3c0.8-0.1,1.6-0.2,2.3-0.3c0.6-0.1,1-0.9,0.6-1.4c-0.2-0.3-0.7-0.4-1.1-0.4
		c-1.9-0.1-3.8-0.2-5.8-0.4c-0.3,0-0.6-0.1-0.8-0.3c-0.8-0.8-1.5-1.7-2.2-2.6C37.7,15.2,37.5,14.8,37.1,14.3z M66.7,30.5
		c-0.1,0-0.5,0-0.7,0.2c-1.2,0.7-2.4,1.4-3.5,2.2c-0.6,0.4-1.1,0.8-1.5,1.3c-0.9,0.9-1.7,1.9-2,3.3c-0.1,0.4,0.1,0.7,0.5,0.6
		c0.7-0.1,1.4-0.1,2.1-0.3c2.9-1,5.3-2.7,6.5-5.6C68.4,31.1,68.1,30.6,66.7,30.5z M278.5,30.7c1.4,0,2.3-0.4,3.1-1.2
		c0.7-0.7,1.4-1.5,2-2.3c0.3-0.5,0.5-1.1,0.7-1.6c-0.6,0-1.2-0.1-1.8-0.1c-0.6,0-1.3,0.2-1.9,0c-2-0.5-3.5,0.2-4.9,1.6
		c-0.3,0.3-0.4,0.9-0.3,1.3C275.9,30.1,276.8,30.7,278.5,30.7z M56,13.1c-0.7,0.8-0.5,1.6-0.5,2.4c0,1.7-0.1,1.8-1.6,2.2
		c-1.8,0.4-1.9,0.6-1.3,2.4c0.1,0.3,0.5,0.7,0.9,0.8c2.6,0.6,5.2,0.4,7.8,0.4c0.8,0,1.5-0.3,1.8-1.1c0.3-0.6,0.1-0.9-0.6-1
		c-0.7,0-1.4,0-2.1,0c-1.9-0.2-3.2-0.7-3.6-2.9C56.5,15.2,56.3,14.2,56,13.1z M26.8,24.5c0.4,0,0.8,0,1.1,0c1.2,0,1.4-0.3,1.4-1.5
		c0-1.3-0.2-1.5-1.4-1.6c-2-0.2-3.9-0.5-5.9-0.8c-1.1-0.2-2.2-0.3-3.4-0.4c-0.6-0.1-0.8,0.3-0.7,1c0.3,1.2,1,2,2.2,2.1
		c0.2,0,0.4,0.1,0.6,0.2C22.9,23.8,24.8,24.6,26.8,24.5z M236,50.9c0.3-0.1,0.6-0.2,0.8-0.4c1.2-1.3,1.8-2.8,1.7-4.5
		c-0.1-1.5-0.4-3-1.4-4.3c-0.4-0.5-0.3-1,0.1-1.4c0.6-0.6,1-1.2,1.5-1.8c1.1-1.1,0.1-2.7-0.8-3.3c-0.1-0.1-0.4-0.1-0.5-0.1
		c-0.1,0.1-0.2,0.3-0.2,0.5c0.2,1.6-0.3,2.4-1.7,3.2c-0.3,0.1-0.6,0.4-0.6,0.7c-0.2,0.7-0.3,1.4-0.4,2.1c-0.2,1.2,0.1,2.2,1.1,3
		c1.1,0.8,1.4,2.1,1.2,3.4C236.6,49,236.3,49.9,236,50.9z M20,13.7c-0.1,0-0.2,0.1-0.3,0.1c0,0.4-0.1,0.8-0.1,1.2
		c0,1.9,0,1.9-1.9,1.6c-0.3,0-0.7,0.1-0.9,0.3c-0.3,0.5,0.4,1.9,1,2c1.4,0.3,2.8,0.5,4.2,0.7c1.6,0.2,3.3,0.4,4.9,0.6
		c0.5,0.1,0.9,0,1.4,0c0.5,0,0.8-0.3,0.8-0.8c0-0.8-0.4-1.2-1.1-1.2c-1.4-0.2-2.7-0.3-4.1-0.4c-0.9,0-1.6-0.3-1.9-1.2
		c-0.1-0.3-0.2-0.7-0.4-1C21,15,20.5,14.4,20,13.7z M235.2,127.9c0-1.4-0.2-1.6-1.6-1.7c-0.5,0-1,0-1.4-0.1c-1.3-0.5-1.8-0.3-2,1.5
		c-0.2,1.2-0.4,2.5-0.6,3.7c-0.1,0.7,0.2,1.1,0.9,1.1c0.4,0,0.8-0.2,1.3-0.3C233.8,131.7,235.2,129.9,235.2,127.9z M217.9,34.1
		c-0.5-0.6-1-1-1.2-1.5c-0.8-1.7-1.6-3.4-2.4-5c-0.1-0.2-0.2-0.3-0.3-0.5c-0.2,0.1-0.4,0.2-0.6,0.4c-0.1,0.1-0.2,0.3-0.2,0.4
		c-0.7,1.7-1.8,3.1-3.4,4c-0.2,0.1-0.4,0.4-0.4,0.6c0,0.2,0.4,0.4,0.6,0.4c0.9,0.2,1.7,0.4,2.6,0.5c1.5,0.3,2.9,0.5,4.4,0.7
		C217.2,34.3,217.5,34.2,217.9,34.1z M135,27.3c-0.2,0.6-0.4,1.1-0.6,1.5c-0.5,1.7-1.3,3.3-2.5,4.7c-0.2,0.2-0.2,0.6-0.3,0.8
		c0.3,0,0.6,0.1,0.9,0.1c0.9-0.1,1.8-0.3,2.7-0.5c1.1-0.2,2.2-0.4,3.3-0.7c0.3-0.1,0.6-0.3,0.6-0.5c0-0.2-0.3-0.5-0.5-0.7
		c-0.8-0.8-1.6-1.5-2.3-2.4C136,29.1,135.6,28.2,135,27.3z M196.4,31c0,0.1,0,0.2,0,0.3c0.2-0.1,0.4-0.1,0.5-0.2
		c0-0.2,0-0.5-0.1-0.7c-1.4-1.4-2.2-3.2-3-5c-0.1-0.2-0.3-0.4-0.5-0.6c-0.2,0.2-0.5,0.3-0.6,0.6c-0.7,1.8-2,3.2-3.5,4.4
		c-0.1,0.1-0.3,0.4-0.2,0.4c0.1,0.2,0.3,0.3,0.5,0.3c1.3,0.1,2.6,0.3,4,0.4C194.3,31.1,195.3,31,196.4,31z M159.9,30.6
		c0-0.1,0.1-0.2,0.1-0.3c-0.1-0.1-0.3-0.1-0.4-0.2c-1.6-1.2-3.1-2.6-3.8-4.6c0-0.1-0.3-0.4-0.4-0.3c-0.2,0.1-0.4,0.2-0.4,0.4
		c-0.7,1.7-1.2,3.4-2.7,4.7c-0.2,0.2-0.2,0.6-0.3,0.9c0.3,0.1,0.6,0.3,0.9,0.2c2-0.1,4-0.2,6-0.4C159.3,31,159.6,30.8,159.9,30.6z
		 M21.1,117.4c0.3-0.1,0.5-0.1,0.8-0.1c1.4-0.5,2.9-0.9,4.3-1.4c1.4-0.5,2.2-2,1.8-3.4c-0.1-0.2-0.3-0.4-0.5-0.4c-0.5-0.1-1,0-1.5,0
		C23.8,112.2,21.4,115.4,21.1,117.4z M170.7,29.9c0.3,0,0.6,0.1,1,0.1c1.5,0,2.9,0,4.4,0c0.4,0,0.8,0,1.1-0.1
		c0.5-0.1,0.6-0.3,0.2-0.7c-1.2-1.3-2.4-2.7-3-4.4c-0.1-0.3-0.3-0.5-0.4-0.7C172.9,26.1,171.8,28,170.7,29.9z M74.2,13.3
		c-0.1-0.1-0.3-0.2-0.4-0.2c-0.4,0.4-0.9,0.8-1.3,1.3c-0.8,1-1.4,2.1-2.3,2.9c-1,0.9-1.1,2-0.9,3.1c0.1,0.9,1.1,1.3,1.9,0.8
		c0.3-0.2,0.5-0.3,0.8-0.5c0.7-0.4,1.1-1.1,0.9-1.8c-0.2-0.8,0.1-1.4,0.3-2.1C73.5,15.7,73.8,14.5,74.2,13.3z M234.2,121.3
		c0-1.1-0.6-1.9-1.4-2.6c-0.5-0.3-1.1-0.4-1.7-0.6c-0.1,0.5-0.3,1.1-0.3,1.6c-0.1,1.3,0,2.6-0.1,3.9c-0.1,0.8,0,1,0.8,0.9
		C233,124.5,234.2,123,234.2,121.3z M231.3,108c0,0,0.1,0,0.1,0c0,0.7,0,1.4,0,2c0,0.7,0.3,0.9,1,0.6c0.2-0.1,0.4-0.2,0.6-0.4
		c2-1.7,1.8-5.1-0.4-6.6c-0.5-0.3-0.8-0.2-0.9,0.4C231.6,105.4,231.5,106.7,231.3,108z M232.7,31.8c-1.4,1.3-2.8,2.6-4.1,4
		c-0.4,0.4-0.1,0.6,0.3,0.7c0.9,0.3,1.8,0.5,2.7,0.7c0.5,0.1,1.2,0.1,1.3-0.6C232.9,35,232.8,33.4,232.7,31.8
		C232.8,31.8,232.7,31.8,232.7,31.8z M238.1,27.6c-0.1,0.1-0.2,0.2-0.3,0.3c0.1,0.3,0.3,0.6,0.3,1c0.4,1.2,0.1,2.2-0.7,3.2
		c-0.7,0.8-0.8,1.4-0.4,1.8c0.7,0.7,1.7,0.6,2.4-0.2c1-1.2,1.5-3.5-0.1-4.9C238.9,28.2,238.5,27.9,238.1,27.6z M117.5,32.5
		c-0.1,0.3-0.2,0.4-0.2,0.5c0.1,1.4,0.2,2.9,0.4,4.3c0,0.2,0.5,0.4,0.7,0.4c0.9-0.1,1.9-0.3,2.8-0.6c0.3-0.1,0.5-0.4,0.7-0.6
		c-0.2-0.2-0.4-0.5-0.6-0.7c-1-0.7-2.1-1.2-2.7-2.4C118.3,33.2,117.9,32.9,117.5,32.5z M303.3,140.6c-0.8,0-1.1,0.4-1.2,1
		c-0.2,0.8-0.3,1.6-0.4,2.5c-0.1,0.8,0.3,1.2,1,0.8c1-0.6,2-1.2,3-1.9c0.4-0.2,0.4-0.6,0-0.9c-0.6-0.5-1.3-0.9-1.9-1.4
		C303.6,140.6,303.3,140.6,303.3,140.6z M266.5,180.1C266.5,180.1,266.5,180.1,266.5,180.1c0.7,0,1.4,0,2.1,0c0.8-0.1,1-0.8,0.6-1.4
		c-1.1-1.5-4.1-1.5-5.2,0c-0.5,0.7-0.2,1.3,0.6,1.4C265.3,180.1,265.9,180.1,266.5,180.1z M59,22.9c0-0.1-0.1-0.2-0.1-0.3
		c-0.1-0.1-0.3-0.2-0.4-0.2c-1.2-0.1-2.5-0.3-3.7-0.4c-0.5,0-0.9,0-1.4,0c-0.5,0.1-0.8,0.4-0.8,1c0.1,0.9,0.9,1.5,1.8,1.3
		c0.8-0.2,1.6-0.3,2.4-0.6C57.5,23.6,58.2,23.2,59,22.9z M234.3,132.8c0.1,0.1,0.1,0.1,0.2,0.2c0.4-0.2,0.8-0.3,1-0.5
		c1.5-1.5,2.8-3.2,2.6-5.5c0-0.6-0.1-1.4-0.8-1.3c-0.8,0.1-0.7,0.9-0.6,1.5c0.2,1.3-0.2,2.4-0.9,3.4
		C235.3,131.3,234.8,132.1,234.3,132.8z M280,22.4C280,22.4,280,22.4,280,22.4c-0.2,0-0.3,0-0.5,0c-0.8,0.1-1.7,0.2-2.4,0.4
		c-0.6,0.2-0.6,0.8,0,1c0.6,0.2,1.3,0.3,1.9,0.3c0.6,0,1.3-0.1,1.9-0.2c0.3,0,0.7,0,0.9-0.1c0.3-0.2,0.4-0.6,0.6-0.9
		c-0.3-0.1-0.5-0.4-0.8-0.4C281.1,22.3,280.6,22.4,280,22.4z M78.9,25c1.3-0.1,1.8-1.1,2.5-1.7c0.1-0.1-0.1-0.6-0.3-0.7
		c-0.9-0.6-2.2-0.6-3,0.2c-0.4,0.4-0.7,0.9-1,1.4C77.7,24.4,78.3,24.7,78.9,25z M321.8,174.4c-1.5-0.6-2.7-0.1-3.7,0.6
		c-0.9,0.6-1.8,1.3-1.9,2.6c0.9-0.4,1.7-0.9,2.5-1.1C319.9,176.3,320.7,175.4,321.8,174.4z M262.3,178c0-0.1,0-0.3,0-0.5
		c0-0.9-0.3-1.1-1-0.7c-0.8,0.5-1.4,1.2-1.9,1.9c-0.3,0.5,0.1,1.2,0.7,1.3C261.3,180.2,262.4,179.9,262.3,178z M264.8,173.5
		c-0.4-0.1-0.7-0.3-1-0.3c-1.3,0.1-2.7,0.3-3.6,1.4c-0.2,0.3-0.3,0.6-0.5,0.9c0.3,0,0.7,0,1,0c0.2,0,0.3,0,0.5-0.1
		C262.6,175.4,263.8,174.8,264.8,173.5z M120.8,132.1c-0.1,0-0.2,0-0.3,0c-0.3,0.1-0.6,0.2-0.9,0.4c0.1,0.3,0.2,0.7,0.4,0.9
		c0.6,0.7,1.3,1.3,2,1.9c0.2,0.1,0.5,0.3,0.6,0.2c0.2-0.1,0.3-0.5,0.3-0.7c-0.1-0.6-0.3-1.1-0.5-1.7
		C122.1,132.3,121.5,132.1,120.8,132.1z M235.2,32.1c0.1,0,0.2,0.1,0.3,0.1c0.3-0.4,0.5-0.7,0.8-1.1c0.6-0.9,0.4-3-0.4-3.7
		c-0.2-0.1-0.4-0.2-0.5-0.3c-0.1,0.2-0.3,0.4-0.3,0.6c0,1.2,0,2.5,0,3.7C235.1,31.7,235.2,31.9,235.2,32.1z M234.2,50.8
		c1.2-0.3,1.4-1.6,1.3-3c0-0.6-0.2-1.2-1-1.3C234,47.9,233.9,49.3,234.2,50.8z M92.4,180c-1.1-1.9-2.2-2.3-3.8-1.3
		c0.3,0.4,0.5,1.2,0.8,1.2C90.3,180.1,91.3,180,92.4,180z M258.6,174.5c0-0.1-0.1-0.2-0.1-0.3c-0.3,0-0.6-0.2-0.7-0.1
		c-0.7,0.4-1.5,0.8-2.2,1.3c-0.2,0.2-0.4,0.5-0.5,0.8c-0.1,0.4,0.1,0.6,0.5,0.4c0.6-0.2,1.2-0.3,1.7-0.7
		C257.9,175.6,258.2,175,258.6,174.5z M262.1,25.2c0.5,0,1.2-0.1,1-0.7c-0.2-0.6-0.9-1.3-1.5-1.6c-0.5-0.2-0.7,0.5-0.8,1
		C260.8,24.7,261.2,25.1,262.1,25.2z M325.1,180c-1.6-1.3-3.9-1.4-5,0C321.8,180,323.4,180,325.1,180z M25.5,179.7
		c0-0.1,0.1-0.2,0.1-0.3c-0.3-0.2-0.5-0.4-0.8-0.6c-0.8-0.4-1.7-0.4-2.5,0c-0.2,0.1-0.4,0.3-0.6,0.4c0.2,0.2,0.4,0.5,0.6,0.5
		C23.3,179.7,24.4,179.7,25.5,179.7z M256.3,180.3c0.4-0.5,0.9-0.8,1-1.2c0.1-0.3-0.2-0.8-0.2-1.2c-0.4,0.2-0.8,0.3-1.3,0.5
		c-0.1,0-0.2,0.1-0.2,0.2c-0.1,0.3-0.4,0.6-0.3,0.8C255.4,179.7,255.8,179.9,256.3,180.3z M317.1,180.2c0.9,0,1.3-0.4,1.5-1.2
		c0-0.2,0-0.6-0.1-0.7c-0.2-0.1-0.5-0.1-0.7,0.1c-0.3,0.2-0.6,0.5-0.9,0.8c-0.2,0.2-0.4,0.5-0.6,0.7
		C316.5,179.9,316.8,180,317.1,180.2z M278.7,180c1.5,0,2.9,0,4.3,0C281.7,178.9,280,178.9,278.7,180z M234.8,34.8
		c0,1-0.1,1.8,0,2.6c0,0.5,0.4,0.3,0.6,0.1C236.1,36.9,235.9,35.6,234.8,34.8z M79.6,20.6c0,0.1,0,0.3-0.1,0.4
		c0.6,0.1,1.2,0.2,1.8,0.3c0-0.1,0-0.2,0.1-0.4C80.9,20.4,80.3,20.3,79.6,20.6z M336.6,179.8c0,0,0,0.1,0,0.1c0.4,0,0.9,0,1.3,0
		c0,0,0-0.1,0-0.1C337.5,179.8,337.1,179.8,336.6,179.8z"/>
	<path d="M217.7,80.6c-0.6-0.3-1.2-0.7-1.9-0.9c-3.5-1-6.5-2.8-9.5-4.7c-0.7-0.5-1.3-1-2-1.5c-0.4-0.3-0.8-0.3-1.1,0.1
		c-1.5,2-2.9,4.1-3.9,6.4c-0.6,1.4-1.2,2.8-1.8,4.3c-0.3,0.6-0.8,0.7-1.3,0.7c-3.1,0-6.2,0-9.3,0c-0.7,0-1.3,0-2,0
		c-0.4,0-1-0.2-1.1-0.4c-0.1-0.4,0-1,0.3-1.4c0.9-1.3,2.2-1.8,3.7-2c1.1-0.2,2.2-0.3,3.3-0.3c0.7,0,1-0.3,1.1-1
		c0.1-1.6,0.2-3.1,0.3-4.7c0.1-1.2,0.3-2.4,0.3-3.6c0-1-0.2-1.3-1.2-1.1c-1,0.2-2,0.5-2.9,1c-2.4,1.3-4.8,2.7-7.2,4.1
		c-2.2,1.3-4.6,2.1-7,2.8c-1.9,0.5-3.8,0.8-5.7,0.7c-0.6,0-1.3,0.2-1.9,0.4c-0.2,0-0.4,0.2-0.5,0.4c-0.3,0.8-0.9,0.9-1.6,1.1
		c-3,0.8-6,1.6-8.9,2.5c-2.3,0.7-4.6,1.5-7,2.3c-0.4,0.1-0.9,0.1-1.4,0.1c-1-0.1-2-0.2-3.1-0.3c-3.8,0-7.5,0-11.3,0
		c-0.3,0-0.7,0-1-0.1c-0.5-0.1-0.7-0.4-0.6-0.9c0.5-2,1.9-3.3,4-3.3c1.7,0,3.4,0,5.2,0.2c0.6,0.1,1.4-0.4,2.1-0.8
		c1.3-0.8,2.6-1.8,3.9-2.7c0.6-0.4,1.1-0.8,1.7-1.3c0.5-0.4,0.5-0.7-0.1-1.1c-2.5-1.5-5-3-7.4-4.5c-2-1.2-4-2.3-6-3.5
		c-0.2-0.1-0.5-0.4-0.6-0.6c-0.7-1.3-1.8-1.7-3.2-1.7c-1,0-2,0-3,0c0.1-2.9,1.3-4.3,4-4.5c1.4-0.1,2.9-0.1,4.1,0.7
		c0.7,0.4,1.2,1,1.8,1.5c0.3,0.3,0.7,0.6,1.1,0.7c0.8,0.2,1.5,0.3,2.3,0.4c1.6,0.2,3.3,0.4,4.9,0.6c0.9,0.1,1.3-0.2,1.4-1.1
		c0-0.4,0.1-0.9,0.1-1.3c0.1-0.7-0.1-0.9-0.8-0.7c-0.7,0.2-1.3,0.6-1.9,0.8c-1,0.3-1.5,0-1.6-1c-0.1-0.6-0.1-1.3-0.1-2.1
		c0.2,0.1,0.4,0.3,0.6,0.3c0.4,0,0.8,0,1.2-0.1c0.2-0.1,0.3-0.5,0.4-0.8c-0.3-0.1-0.5-0.3-0.8-0.3c-1.4,0-2.8,0-4.2,0
		c-0.4,0-0.8,0-1.2-0.1c-2.6-0.7-2.6-1.4-3.1-3.9c-0.1-0.7,0-1.5,0-2.3c0.1,0,0.2,0,0.3-0.1c0.1,0.3,0.3,0.5,0.4,0.8
		c0.2,0.5,0.4,1.1,0.6,1.6c1,2.7,3.6,3.1,5.9,2.8c0.4-0.1,0.9-0.2,1.3-0.3c0.6-0.1,0.8-0.7,0.4-1.2c-0.5-0.6-1.2-0.7-1.8-0.2
		c-0.7,0.6-1,0.5-1.2-0.4c-0.2-1-0.4-2-0.5-3c0-0.3,0.3-0.7,0.5-0.8c2.2-0.8,4.3-1.7,6.5-2.2c1.9-0.4,3.8-0.3,5.7-0.4
		c0.7,0,1.4,0.2,2.1,0.3c1.5,0.1,3-0.1,4.4-0.8c0.2-0.1,0.3-0.1,0.7-0.2c-0.2,0.4-0.3,0.7-0.4,0.9c-0.5,1.1-0.5,1.7,0.3,2.5
		c1.3,1.5,2.1,3.2,2.6,5.1c0.3,1.2,0.7,2.5,1.1,3.7c0.1,0.3,0.4,0.7,0.7,0.8c2.3,0.8,4.6,1.7,7,2.2c2.2,0.5,4.5,0.7,6.8,0.2
		c2.1-0.5,4.3-0.6,6.4-1.1c1.9-0.4,3.7-1,5.6-1.5c2.5-0.6,5-1.4,7.6-1.5c1.5-0.1,3.1-0.3,4.6-0.3c1.7,0,3.5,0.3,5.2,0.2
		c1,0,2-0.4,2.9-0.9c1.8-1,2.3-3.1,1.1-4.8c-0.3-0.4-0.7-0.7-1.2-1c-1.2-0.7-2.4-1.1-3.7-1.3c-2.7-0.4-5.3,0-7.9,0.7
		c-2.6,0.7-5.1,1.7-7.6,2.6c-3.4,1.2-6.7,2.5-10.1,3.5c-2.4,0.7-4.9,1.4-7.5,1.1c-1.6-0.2-3.1-0.5-4.3-1.7c-1.7-1.7-2.4-4.6-0.6-6.9
		c1.4-1.8,3.3-2.7,5.4-3.4c-0.2,0.4-0.4,0.8-0.7,1.2c-0.9,1.1-1.4,2.4-1.7,3.8c-0.4,2.1,1.5,4.4,3.9,4.6c2.7,0.2,5.2-0.6,7.6-1.5
		c5.1-1.8,10.1-3.8,15.3-5.5c3.5-1.2,7.1-1.4,10.7-0.5c3.1,0.8,5.5,2.6,6.1,6c0.2,1.3-0.1,2.6-1,3.7c-0.8,0.9-1.7,1.6-2.6,2.4
		c-0.2,0.2-0.4,0.7-0.3,0.8c1.5,2.5,2.5,5.1,3.2,7.9c0.2,1,0.6,1.9,0.7,2.9c0.1,0.9,0.6,1.3,1.4,1.5c1.4,0.4,2.8,0.7,4.2,1
		c1.2,0.3,1.4,0.4,1.3,1.6c-0.1,2.3-0.2,4.5-0.3,6.8c0,0.7-0.4,1-1.1,1c-3.1,0-6.2,0-9.3,0c-0.9,0-1.2-0.9-0.6-1.7
		c0.7-0.9,1.6-1.3,2.6-1.6c0.8-0.2,1.6-0.5,2.4-0.7C217.7,80.8,217.7,80.7,217.7,80.6z M149.2,49.7c-0.4,0.2-0.8,0.2-1,0.5
		c-0.2,0.3-0.1,0.7-0.2,1.1c0.3,0,0.6,0,0.9-0.2c0.2-0.1,0.4-0.3,0.6-0.5c0.1-0.1,0.3-0.4,0.3-0.5C149.7,50,149.5,49.9,149.2,49.7z"
		/>
	<path d="M174.3,88.2c-0.2,0.5-0.4,1-0.7,1.4c-0.8,1.4-1.2,3-0.7,4.6c0.3,1.2,1.9,2.5,3.2,2.4c1.1,0,2.2-0.1,3.2-0.4
		c2.9-0.9,5.9-1.8,8.7-3.1c4.9-2.2,9.8-4.3,15-5.5c3.1-0.7,6.2-0.8,9.2,0.3c2.7,1,4.6,3,5,5.9c0.2,1.6-0.3,3.2-1.5,4.4
		c-0.9,0.9-2,1.7-3.1,2.6c0.3,0.4,0.5,1,0.9,1.6c1.4,1.9,2,4,2.7,6.2c0.5,1.5,1.1,3.1,1.5,4.6c0.2,0.9,0.8,1.2,1.6,1.5
		c0.9,0.3,1.7,0.6,2.6,0.9c0.6,0.2,0.9,0.5,0.7,1.2c-0.1,0.3-0.1,0.6-0.1,1c-0.1,1.9-0.2,3.7-0.3,5.6c0,0.6-0.3,0.8-0.9,0.8
		c-3.7,0-7.4,0-11.1,0c-0.3,0-0.7-0.2-0.7-0.3c-0.1-0.2,0.1-0.6,0.2-0.8c1.3-1.5,2.9-2.3,4.9-2.4c0.4,0,0.7-0.1,1.1-0.1
		c0-0.1,0.1-0.2,0.1-0.3c-0.3-0.3-0.6-0.5-1-0.7c-2.1-1.3-4.3-2.5-6.3-3.9c-1.3-0.9-2.3-2-3.5-3.1c-0.8-0.8-1-0.8-1.6,0.1
		c-1.4,2-3,3.9-4.2,6c-0.8,1.5-1.3,3.2-1.8,4.8c-0.3,0.9-0.5,1.2-1.4,1.2c-3.9,0-7.8,0-11.8,0c-1,0-1.2-0.3-0.8-1.2
		c0.7-1.5,1.8-2.2,3.4-2.4c1.3-0.1,2.6-0.3,3.9-0.5c0.6-0.1,0.9-0.5,0.8-1.1c0-0.6,0-1.3,0-1.9c0.2-2,0.4-4,0.6-6c0-0.3,0.1-0.7,0-1
		c-0.1-0.7-0.5-1.1-1.3-0.9c-0.8,0.3-1.7,0.5-2.5,0.9c-2.8,1.4-5.5,2.8-8.3,4.1c-1.9,1-3.9,2-5.9,2.8c-1.3,0.5-2.8,0.6-4.3,0.9
		c-1.2,0.2-2.3,0.5-3.5,0.7c-0.2,0-0.4,0.2-0.5,0.4c-0.1,0.8-0.7,1-1.3,1.1c-3.8,1-7.6,2-11.4,2.9c-1.7,0.4-3.4,0.9-5.1,1.3
		c-0.3,0.1-0.7,0.1-1.1,0.1c-4.6,0-9.2,0-13.9,0c-1.4,0-1.5-0.2-1.1-1.6c0.4-1.5,1.4-2,2.8-2.4c2-0.5,3.9-0.1,5.8,0.1
		c0.4,0,0.9-0.1,1.2-0.3c0.7-0.5,1.4-1,2.1-1.5c1-0.8,2-1.7,3-2.5c0.7-0.6,0.5-1.3-0.3-1.8c-1.7-1.1-3.4-2.2-5.1-3.3
		c-2.2-1.5-4.4-2.9-6.6-4.4c-0.2-0.2-0.4-0.4-0.6-0.7c-0.5-0.8-1.3-1.2-2.3-1.2c-0.9,0-1.8,0-2.7,0c-0.5,0-0.7-0.1-0.6-0.7
		c0.1-0.3,0-0.7,0.1-1.1c0.1-1.3,0.8-2.2,2-2.6c1.4-0.5,2.8-0.4,4.3-0.3c1.4,0.1,2.4,1,3.2,2.1c0.4,0.4,1,0.8,1.5,0.9
		c1.9,0.5,3.9,0.8,5.8,1.2c1.3,0.3,1.8,0.1,2.1-1.2c0.1-0.6,0.3-1.2,0.3-1.8c0-0.6-0.2-1-0.9-0.7c-0.8,0.3-1.6,0.7-2.4,1
		c-1.1,0.4-1.5,0.1-1.6-1.1c0-0.5,0-1,0.1-1.7c0.3,0.1,0.4,0.1,0.5,0.2c1,0.5,1.9,0.1,2.1-0.9c0-0.2-0.3-0.6-0.4-0.6
		c-1.3,0-2.5,0.1-3.8,0.1c-1.1,0-2.3,0.1-3.4,0c-1.2-0.1-1.8-1-2.1-2.1c-0.3-1.1-0.2-2.2,0.4-3.5c0.2,0.6,0.4,1,0.5,1.4
		c0.6,1.9,1.9,2.9,3.9,2.8c1.3,0,2.6-0.2,3.9-0.3c0.2,0,0.5-0.3,0.7-0.5c-0.2-0.2-0.4-0.7-0.6-0.7c-0.8-0.1-1.5,0-2.3,0
		c0,0.1,0,0.1,0,0.2c-0.1-0.1-0.2-0.2-0.3-0.4c-0.2-1-0.4-2.1-0.4-3.1c0-0.4,0.3-0.9,0.7-1.1c2.2-1.1,4.5-1.9,7-2.3
		c0.9-0.1,1.9-0.3,2.8-0.3c1.1,0,2.3,0.3,3.4,0.4c1.4,0.1,2.8,0,4.3,0c0.3,0,0.6,0,1,0c-0.2,0.5-0.2,0.9-0.4,1.3
		c-0.4,0.5-0.3,1,0,1.4c2,2.8,2.6,6.1,3.2,9.4c0.2,1.2,1.1,2,2.8,2.3c1.1,0.2,2.2,0.3,3.3,0.4c1,0.1,1.9,0.2,2.9,0.2
		c1.5,0,2.9-0.1,4.4-0.3c2-0.3,3.9-0.7,5.9-1.2c1.3-0.3,2.6-0.9,4-1.1c2.9-0.6,5.8-1.1,8.7-1.6c2.9-0.6,5.9-0.7,8.8-0.6
		c1.1,0,2.3,0.1,3.4,0.1c1.9-0.1,3.4-0.9,4.5-2.2c1.5-1.8,1-3.9-1.2-5.3c-2.2-1.4-4.7-1.7-7.3-1.1c-2.6,0.6-5.1,1.2-7.6,2
		c-2.7,0.9-5.3,2-8,3c-3.2,1.2-6.4,2.7-9.8,3.4c-2.6,0.6-5.3,0.8-7.8-0.3c-0.5-0.2-1.1-0.8-1.3-1.3c-1-2-1-4.9,1-6.6
		c0.8-0.7,1.6-1.4,2.4-2c0.2-0.2,0.5-0.2,0.7-0.3C174.2,88.1,174.3,88.1,174.3,88.2z M150.7,90.3c-0.3-0.2-0.4-0.4-0.5-0.4
		c-0.6,0.1-1.1,0.3-1.7,0.5c-0.1,0.1-0.2,0.5-0.1,0.7c0.1,0.2,0.6,0.6,0.6,0.5C149.6,91.2,150.1,90.8,150.7,90.3z"/>
	<path d="M141.6,131.5c0.2,0.3,0.4,0.6,0.5,0.8c0.5,1.4,1.3,2,2.8,2c1.3,0,2.6,0,3.9,0c0.6,0,1.4-0.1,1.3-0.7
		c-0.1-0.4-0.9-0.8-1.4-1.2c-0.1-0.1-0.3,0-0.4,0c-0.7,0.5-0.9,0-1.1-0.5c-0.2-0.6-0.4-1.3-0.4-2c0-0.4,0.4-1,0.8-1.1
		c2.5-0.9,5-1.9,7.7-1.7c1.6,0.1,3.1,0.5,4.6,0.7c0.6,0.1,1.3,0,1.9,0c0.4,0,0.7-0.1,1-0.1c0.9,0,0.9,0.1,0.6,0.9
		c-0.1,0.3-0.1,0.8,0.1,0.9c1.4,1.2,1.8,2.9,2.3,4.5c0.3,1.1,0.6,2.1,0.8,3.2c0.3,1.6,1.6,1.9,2.8,2c1.8,0.3,3.6,0.3,5.4,0.4
		c2.7,0.1,5.2-0.5,7.8-1.1c2.9-0.7,5.9-1.6,8.8-2.3c1.1-0.3,2.4-0.4,3.5-0.4c3.1-0.1,6.1,0,9.2,0c2,0,3.5-1.6,3.3-3.5
		c-0.1-1-0.6-1.8-1.7-2.2c-2-0.7-4-0.7-6-0.3c-3.4,0.5-6.5,1.8-9.7,2.9c-3.3,1.1-6.5,2.5-9.8,3.5c-1.6,0.5-3.4,0.8-5.1,0.8
		c-1.4,0.1-2.9-0.3-3.8-1.7c-0.4-0.5-0.7-1.2-0.7-1.8c-0.1-1.3-0.3-2.7,0.6-3.9c0.8-1.2,1.8-2.2,3.3-2.8c-0.3,0.9-0.6,1.9-0.9,2.8
		c-0.4,1.2-0.4,2.4,0.2,3.5c0.6,1.1,1.7,1.5,2.8,1.6c2.1,0.3,4.1-0.5,6-1.3c3.5-1.3,6.9-2.8,10.4-4c2.6-0.9,5.3-1.6,8-2.1
		c2.9-0.5,5.8-0.3,8,2.1c1.1,1.2,1.5,2.7,1.1,4.3c-0.4,1.8-1.3,3.3-2.9,4.2c-0.3,0.1-0.5,0.3-0.8,0.3c-0.9,0.2-1.2,0.6-0.6,1.4
		c1,1.4,1.5,3,2,4.6c0.4,1.3,0.6,2.6,0.9,3.9c0.1,0.6,0.4,1,1,1.3c0.8,0.3,1.6,0.6,2.3,1c0.6,0.3,0.9,0.6,0.7,1.4
		c-0.4,1.8-0.8,3.6-1.1,5.4c-0.1,0.6-0.4,0.9-1.1,0.9c-3,0.1-6,0.2-9,0.3c-0.3,0-0.7-0.2-1-0.2c0.1-0.3,0.2-0.7,0.4-1
		c0.9-1.2,2.1-2,3.6-2.3c0.5-0.1,1-0.4,1.5-0.7c-0.4-0.3-0.8-0.7-1.2-1c-1.9-1.5-3.8-3-5.6-4.5c-0.8-0.7-1-0.8-1.8,0
		c-2.5,2.6-4.2,5.6-5.3,9c-0.3,1-0.8,1.4-1.9,1.4c-3.3,0-6.5,0-9.8,0c-0.9,0-1.1-0.4-0.8-1.3c0.4-1,1-1.8,2.1-2
		c1.7-0.3,3.4-0.7,5.1-0.9c0.7-0.1,1-0.3,1.1-1c0.1-2.1,0.3-4.2,0.5-6.2c0-0.5-0.2-0.6-0.6-0.6c-0.5,0.1-1.1,0.2-1.4,0.5
		c-2.5,2-5.2,3.4-8.1,4.7c-1.4,0.7-2.9,1.2-4.4,1.7c-0.5,0.2-0.8,0.4-1,1c-0.1,0.3-0.5,0.7-0.8,0.7c-4.9,1.2-9.8,2.4-14.7,3.5
		c-0.4,0.1-0.8,0.1-1.2,0.1c-4.1,0-8.2,0-12.2,0c-0.6,0-1.3,0.3-1.7-0.4c-0.2-0.5,0.4-2,1-2.3c0.8-0.4,1.6-0.7,2.4-0.8
		c0.7-0.1,1.4,0.1,2.1,0.2c0.4,0,0.9,0,1.2-0.2c1.4-0.8,2.7-1.7,4.1-2.6c0.4-0.3,0.6-0.6,0-1c-1.6-1.2-3.1-2.4-4.7-3.6
		c-2.5-1.8-5-3.5-7.4-5.3c-0.4-0.3-0.8-0.6-1.1-1c-0.7-0.9-1.6-1.3-2.7-1.3c-0.5,0-1,0-1.6,0c-0.6,0-0.9-0.3-0.9-0.9
		c0-1.2,1-2.7,2.2-2.9c1.4-0.2,2.8-0.3,4,0.5c0.2,0.2,0.5,0.3,0.7,0.6c0.4,0.9,1.2,1.2,2,1.3c2.5,0.5,5.1,1.1,7.6,1.6
		c0.3,0.1,0.8-0.1,0.9-0.4c0.4-0.9,0.7-1.8,0.9-2.8c0.1-0.5-0.3-0.6-0.7-0.4c-0.8,0.3-1.6,0.5-2.4,0.8c-0.5,0.2-0.9,0.2-1.1-0.4
		c-0.2-0.6-0.4-1.2,0.4-1.5c0.4-0.2,0.8-0.4,1.1-0.7c0.4-0.5,0.2-0.9-0.4-0.9c-1.1,0.1-2.2,0.3-3.4,0.5c-1.6,0.2-3.3,0.6-4.6-0.9
		C141.1,134,140.9,132.5,141.6,131.5z M153.4,129.1c0-0.1-0.1-0.2-0.1-0.3c-0.3,0-0.7,0-1,0.2c-0.2,0.2-0.2,0.6-0.4,0.9
		c0.3,0,0.6,0,0.8-0.1C153,129.6,153.2,129.3,153.4,129.1z"/>
	<path d="M178.8,3.8c-0.8,1.5-0.7,2.4,0.3,3c1,0.6,1.8,0.2,1.9-0.9c0.1-0.9,0.4-1.6,1.1-2.2c0.2-0.2,0.5-0.2,0.7-0.3
		c0.1,0.1,0.1,0.1,0.2,0.2c-0.2,0.2-0.3,0.5-0.5,0.7c-0.4,0.6-0.5,1.2-0.2,1.8c0.3,0.6,0.9,0.8,1.5,0.7c0.6,0,1-0.3,1.1-1
		c0.2-1,0.9-1.5,1.8-1.8c-0.3,0.5-0.5,1-0.8,1.6c-0.3,0.7-0.1,1.1,0.7,1.2c1,0.1,1.9,0.1,2.4-1c0.1-0.3,0.5-0.4,0.9-0.5
		c-0.2,0.6-0.6,1.3-0.5,1.9c0.1,0.6,0.6,1.2,1.1,2c-0.7-0.3-1.3-0.5-1.8-0.6c-1.4-0.5-2.8-0.7-4.4-0.7c-1.8,0-3.5,0.2-5.3,0.5
		c-0.6,0.1-1.1,0.3-1.2,1c-0.2,1.1-1.1,0.2-1.5,0.5c-0.1-0.3-0.2-0.6-0.3-0.8c0-0.1,0-0.3,0-0.5c-0.1-0.8,0.1-0.9,0.8-0.8
		c0.8,0.1,0.9,0,0.7-0.7C177.3,5.6,177.5,4.9,178.8,3.8z"/>
	<path d="M190.2,16.3c-0.8-0.2-1.6-0.5-2.4-0.7c-2.8-0.6-5.7-0.9-8.5,0.2c-0.5,0.2-0.8,0.7-1.2,1c-0.2,0.2-0.5,0.4-0.8,0.4
		c-0.4,0.1-0.7,0-1.3,0c0.2-0.7,0.3-1.2,0.5-1.8c0.1-0.2,0.4-0.3,0.6-0.3c0.8,0,1-0.2,0.7-1c-0.3-1.1-0.1-2,0.7-2.9
		c0,0.6-0.1,1.2-0.1,1.8c0,0.6,0.2,1.1,0.9,1.2c0.8,0.1,1.2-0.2,1.5-1c0.3-0.7,0.7-1.4,1.1-2.1c0.1-0.2,0.3-0.2,0.6-0.2
		c-0.2,0.3-0.4,0.7-0.6,1c-0.5,1-0.2,1.8,0.5,2.2c0.8,0.4,1.5-0.1,2-1c0.3-0.6,0.8-1.2,1.3-1.7c0.1,0,0.1,0.1,0.2,0.1
		c-0.1,0.3-0.3,0.5-0.4,0.8c-0.3,0.6-0.4,1.2,0.1,1.7c0.5,0.5,1.4,0.5,2,0.1c0.4-0.3,0.7-0.7,1-1c0.3-0.3,0.7-0.5,1.1-0.8
		c-0.2,0.8-0.5,1.5-0.5,2.1C189.4,15.1,189.9,15.6,190.2,16.3z"/>
	<path d="M179.2,18.2c-0.1,0.7-0.2,1.5-0.3,2.2c0,0.6,0.3,1.2,0.9,1.3c0.7,0.2,1-0.4,1.2-0.9c0.2-0.4,0.3-0.9,0.5-1.4
		c0.2-0.4,0.5-0.6,0.9-0.9c-0.1,0.3-0.2,0.6-0.3,0.8c-0.2,0.6,0,1.4,0.5,1.6c0.6,0.3,1.4,0,1.8-0.5c0.4-0.6,0.7-1.1,1.1-1.7
		c0.1,0,0.1,0.1,0.2,0.1c-0.1,0.3-0.1,0.5-0.2,0.8c-0.2,0.6-0.3,1.2,0.2,1.6c0.4,0.3,1.6,0.3,2.1-0.1c0.4-0.3,0.7-0.7,1.1-1.1
		c0.2-0.2,0.4-0.3,0.7-0.5c-0.3,0.8-0.8,1.3-0.8,1.9c0,0.6,0.3,1.2,0.5,1.9c-0.6-0.2-1.2-0.4-1.7-0.6c-2.2-0.8-4.4-0.6-6.6-0.3
		c-1,0.1-1.9,0.4-2.7,1.2c-0.3,0.3-0.9,0.7-1.4,0.1c-0.3-0.3,0-1.4,0.5-1.6c0.8-0.3,0.9-0.8,0.7-1.5
		C177.8,19.4,178.3,18.6,179.2,18.2z"/>
</g>
</svg>
