<?xml version="1.0" encoding="utf-8"?>
<!-- Generator: Adobe Illustrator 23.0.1, SVG Export Plug-In . SVG Version: 6.00 Build 0)  -->
<svg version="1.1" id="Ebene_1" xmlns="http://www.w3.org/2000/svg" xmlns:xlink="http://www.w3.org/1999/xlink" x="0px" y="0px"
	 viewBox="0 0 286 286" style="enable-background:new 0 0 286 286;" xml:space="preserve">
<style type="text/css">
	.st0{fill:#FFFFFF;}
</style>
<g>
	<path class="st0" d="M174.2,176.5c0,10.4-8.4,18.9-18.9,18.9c-10.4,0-18.9-8.5-18.9-18.9c0-10.4,8.5-18.9,18.9-18.9
		C165.8,157.7,174.2,166.1,174.2,176.5z"/>
	<path class="st0" d="M169.1,112.1c1.6,8.5-5.4,16.9-15.7,18.8c-10.2,1.9-19.8-3.4-21.4-11.9c-1.6-8.5,5.4-16.9,15.6-18.8
		C157.9,98.3,167.5,103.6,169.1,112.1z"/>
	<path class="st0" d="M124.6,164.2c-2,9.6-11,15.9-20,14.1c-9.1-1.9-14.9-11.2-12.9-20.8c2-9.6,11-15.9,20-14.1
		C120.8,145.2,126.5,154.6,124.6,164.2z"/>
	<path class="st0" d="M116.2,112.2c-6.6,7.9-16.8,10.2-22.7,5.2c-5.9-5-5.3-15.4,1.4-23.2c6.7-7.8,16.8-10.2,22.7-5.1
		C123.5,93.9,122.8,104.3,116.2,112.2z"/>
	<path class="st0" d="M156.1,78.5c-9.7,1.8-18.4-1.7-19.6-7.9c-1.1-6.1,5.8-12.5,15.5-14.3c9.7-1.8,18.4,1.8,19.6,7.9
		C172.7,70.3,165.8,76.7,156.1,78.5z"/>
	<path class="st0" d="M167.3,43c-9.3,0.2-17-2.3-17-5.5c-0.1-3.2,7.4-6,16.8-6.2c9.4-0.2,17,2.3,17.1,5.5
		C184.2,40,176.6,42.8,167.3,43z"/>
	<path class="st0" d="M192.6,28.7c-9.3-0.9-16.8-2.6-16.6-3.7c0.1-1.1,7.7-1.3,17.1-0.4c9.3,0.9,16.8,2.6,16.6,3.7
		C209.5,29.5,201.9,29.7,192.6,28.7z"/>
	<path class="st0" d="M135.8,34.2c-9.1,2.1-16.9,2.2-17.3,0.3c-0.4-1.9,6.6-5.1,15.7-7.2c9.1-2.1,16.9-2.2,17.3-0.3
		C152,29,145,32.2,135.8,34.2z"/>
	<path class="st0" d="M118.2,65.8c-8.2,4.5-16.7,4.9-18.9,0.8c-2.3-4.1,2.6-11,10.7-15.6c8.2-4.5,16.6-4.9,18.9-0.8
		C131.2,54.3,126.4,61.2,118.2,65.8z"/>
	<path class="st0" d="M67.3,95.9c-6.4,7.8-14.4,11.7-17.9,8.9c-3.4-2.8-1-11.4,5.4-19.2c6.4-7.7,14.4-11.7,17.8-8.9
		C76.2,79.6,73.7,88.2,67.3,95.9z"/>
	<path class="st0" d="M68,144c-3.2,9.5-10.4,15.7-16.1,13.8c-5.7-1.9-7.7-11.2-4.5-20.7c3.2-9.5,10.4-15.7,16.1-13.8
		C69.2,125.2,71.2,134.5,68,144z"/>
	<path class="st0" d="M76.7,195.8c-0.8,9.2-6.6,16.2-13,15.7c-6.4-0.6-10.9-8.5-10.2-17.7c0.8-9.2,6.6-16.2,13-15.7
		C72.9,178.6,77.5,186.5,76.7,195.8z"/>
	<path class="st0" d="M44.9,193.4c-0.8,9.2-5,16.4-9.3,16c-4.3-0.4-7.2-8.1-6.4-17.4c0.8-9.2,5-16.4,9.3-16
		C42.8,176.4,45.7,184.1,44.9,193.4z"/>
	<path class="st0" d="M37,144.7c-2.2,9-6.8,15.6-10.2,14.7c-3.4-0.9-4.4-8.8-2.2-17.8c2.2-9,6.8-15.6,10.3-14.7
		C38.3,127.7,39.2,135.7,37,144.7z"/>
	<path class="st0" d="M20.5,195.3c0.4,9.2-0.7,16.8-2.3,16.9c-1.7,0.1-3.3-7.4-3.7-16.6c-0.4-9.2,0.6-16.8,2.3-16.8
		C18.4,178.6,20.1,186,20.5,195.3z"/>
	<path class="st0" d="M18.7,150.8c-1.3,9.2-2.8,16.5-3.4,16.4c-0.7-0.1-0.2-7.6,1.1-16.8c1.3-9.2,2.8-16.5,3.5-16.4
		C20.4,134.2,19.9,141.7,18.7,150.8z"/>
	<path class="st0" d="M39.4,100.2c-4.9,8.3-9.9,14.3-11.2,13.6c-1.3-0.8,1.6-8.1,6.4-16.4c4.9-8.2,9.9-14.3,11.2-13.5
		C47.2,84.6,44.3,92,39.4,100.2z"/>
	<path class="st0" d="M80.3,56.7c-7.8,5.5-14.9,8.9-15.8,7.7c-0.9-1.3,4.8-6.7,12.6-12.3c7.9-5.5,14.9-9,15.8-7.7
		C93.8,45.7,88.2,51.1,80.3,56.7z"/>
	<path class="st0" d="M32.3,236.3c1.7,8.1,1.8,14.9,0.3,15.2c-1.5,0.3-4-6-5.7-14.1c-1.7-8.1-1.8-14.9-0.3-15.2
		C28.1,221.9,30.6,228.2,32.3,236.3z"/>
</g>
</svg>
