<?xml version="1.0" encoding="utf-8"?>
<!-- Generator: Adobe Illustrator 22.1.0, SVG Export Plug-In . SVG Version: 6.00 Build 0)  -->
<svg version="1.1" xmlns="http://www.w3.org/2000/svg" xmlns:xlink="http://www.w3.org/1999/xlink" x="0px" y="0px"
	 viewBox="0 0 40 40" style="enable-background:new 0 0 40 40;" xml:space="preserve">
<style type="text/css">
	.st0{display:none;}
	.st1{display:inline;}
</style>
<g id="Ebene_2" class="st0">
	<g class="st1">
		<path d="M21.6,9.5l1-0.4l0.6,1.4c3-0.7,6.2,0.9,7.2,3.8l0.2,0.6l-0.6,0.2c-3.6,1.4-4.5,1.7-5.7,2.1c-0.2,0.1-0.3,0.1-0.5,0.2
			c-0.9,0.3-1.6,0.5-4.1,1.2L19,18.9l-0.2-0.6c-0.9-2.5,0-5.1,2.1-6.7l-0.1,0.1L20.4,11l-8.1,4.4l3.1,11.9c0,0,0.1,0,0.1,0
			c3,0,5.7,1.3,5.7,3V31H9.8v-0.7c0-1.4,1.9-2.5,4.2-2.9l-3-11.4l-0.9,0.5l-0.7-1.2l1.2-0.7l-0.4-1.6l1.3-0.3L12,14l9.3-5L21.6,9.5z
			 M23,12c-2.3,0.8-3.5,3-3.1,5.2c1.9-0.6,2.6-0.7,3.4-1c0.2-0.1,0.3-0.1,0.5-0.2c1.1-0.4,1.9-0.7,5-1.8C27.7,12.3,25.3,11.3,23,12z
			"/>
	</g>
</g>
<g id="Ebene_1">
	<title>icon/folder</title>
	<desc>Created with Sketch.</desc>
	<path d="M20.9,9.7l0.9-0.4l0.5,1.4c2.9-0.7,5.8,0.9,6.8,3.7l0.2,0.6l-0.6,0.2c-3.4,1.3-4.2,1.6-5.4,2c-0.2,0.1-0.3,0.1-0.5,0.2
		c-0.8,0.3-1.5,0.5-3.8,1.2l-0.6,0.2l-0.2-0.6c-0.8-2.4,0-5,1.9-6.5l-0.1,0.1l-0.3-0.7l-7.7,4.2l2.9,11.6c0,0,0.1,0,0.1,0
		c2.8,0,5.4,1.3,5.4,2.9v0.7H9.8v-0.7c0-1.4,1.8-2.5,4-2.8L11,16l-0.9,0.5l-0.6-1.1l1.2-0.6l-0.4-1.5l1.3-0.3l0.3,1.2l8.8-4.8
		L20.9,9.7z"/>
</g>
</svg>
