<?xml version="1.0" encoding="utf-8"?>
<!-- Generator: Adobe Illustrator 23.0.1, SVG Export Plug-In . SVG Version: 6.00 Build 0)  -->
<svg version="1.0" id="Ebene_1" xmlns="http://www.w3.org/2000/svg" xmlns:xlink="http://www.w3.org/1999/xlink" x="0px" y="0px"
	 viewBox="0 0 1000 763.8" style="enable-background:new 0 0 1000 763.8;" xml:space="preserve">
<style type="text/css">
	.st0{opacity:0.53;}
	.st1{fill:#4A668B;}
	.st2{opacity:0.28;}
	.st3{clip-path:url(#SVGID_6_);}
	.st4{fill:#577FAA;}
	.st5{fill:#384F68;}
	.st6{fill:#577FAA;stroke:#384F68;stroke-width:3;stroke-miterlimit:10;}
</style>
<g class="st0">
	<polygon class="st1" points="1000,829 0,495 0,-5 1000,-5 	"/>
</g>
<g class="st2">
	<polygon class="st1" points="1000,778 0,527 0,27 1000,27 	"/>
</g>
<g>
	<polygon class="st1" points="1000,702 0,500 0,0 1000,0 	"/>
</g>
<g>
	<g>
		<g>
			<defs>
				<rect id="SVGID_3_" x="27.8" y="297" width="159.2" height="111.4"/>
			</defs>
			<use xlink:href="#SVGID_3_"  style="overflow:visible;fill:#577FAA;"/>
			<clipPath id="SVGID_6_">
				<use xlink:href="#SVGID_3_"  style="overflow:visible;"/>
			</clipPath>
			<g class="st3">
				<rect x="29.3" y="298.5" class="st4" width="156.2" height="108.4"/>
				<path class="st5" d="M184,300v105.4H30.8V300H184 M187,297H27.8v111.4H187V297L187,297z"/>
			</g>
		</g>
		<g>
			<g id="SVGID_2_">
				<rect x="29.3" y="298.5" class="st4" width="156.2" height="108.4"/>
				<path class="st5" d="M184,300v105.4H30.8V300H184 M187,297H27.8v111.4H187V297L187,297z"/>
			</g>
		</g>
	</g>
	<g id="SVGID_1_">
		<rect x="29.3" y="298.5" class="st4" width="156.2" height="108.4"/>
		<path class="st5" d="M184,300v105.4H30.8V300H184 M187,297H27.8v111.4H187V297L187,297z"/>
	</g>
	<g>
		<path class="st4" d="M168.7,486.5c-2.6,0-4.5-1.3-5.8-3.9l-12.3-27.1H63.5l-12.3,27.1c-1.3,2.6-3.2,3.9-5.8,3.9
			c-0.7,0-1,0-1.3-0.4l-0.2-0.2l-0.3-0.1c-3.1-1.2-4.5-5-3.1-8.4l32-70.5h-43V394h156.2v12.9h-43l32,70.6c1.3,3.3-0.1,7.1-3.2,8.3
			l-0.3,0.1l-0.2,0.2C170.6,486.4,169.9,486.5,168.7,486.5z M69.3,443.3h75.5l-15.2-33.7c-0.1-1.4-0.9-1.8-2.4-2.6l-0.3-0.2H84.4
			v2.8L69.3,443.3z"/>
		<path class="st5" d="M184,395.5v9.9h-39.2h-4.7l1.9,4.2l31,68.4c0.5,1.2,0.5,2.6,0,3.9c-0.4,1.2-1.3,2.1-2.4,2.5l-0.6,0.2
			l-0.3,0.3c-0.3,0.1-1,0.1-1.2,0.1c-1.4,0-3.1-0.4-4.5-3.1l-11.9-26.2l-0.8-1.8h-1.9H64.4h-1.9l-0.8,1.8l-11.9,26.2
			c-1.4,2.7-3.1,3.1-4.5,3.1c-0.1,0-0.2,0-0.4,0l-0.3-0.3l-0.6-0.2c-1.1-0.4-1.9-1.3-2.4-2.5c-0.4-1.2-0.4-2.6,0-3.9l31-68.4
			l1.9-4.2H70H30.8v-9.9H184 M82.9,409.4l-14.1,31.2l-1.9,4.2h4.6h70.8h4.6l-1.9-4.2l-14.1-31.3c-0.3-2.1-1.6-2.7-3.2-3.5l-0.6-0.3
			h-0.7H85.9h-3v3V409.4 M187,392.5H27.8v15.9H70l-31,68.4c-1.6,4,0,8.8,4,10.3c0.8,0.8,1.6,0.8,2.4,0.8c3.2,0,5.6-1.6,7.2-4.8
			L64.4,457h85.2l11.9,26.3c1.6,3.2,4,4.8,7.2,4.8c0.8,0,2.4,0,3.2-0.8c4-1.6,5.6-6.4,4-10.3l-31-68.4H187V392.5L187,392.5z
			 M71.6,441.8L85.9,410c0-0.8,0-0.8,0-1.6h40.6c1.6,0.8,1.6,0.8,1.6,1.6l14.3,31.8H71.6L71.6,441.8z"/>
	</g>
</g>
<g>
	<g>
		<path class="st4" d="M953.6,482l-2.3-14.5l-14.1-3l-2.2-14.1l-14.1-3l-2.2-14.1l-13.3-2.8l-20.3-21.1l-0.9,0.2
			c-4,1.1-8.2,1.7-12.3,1.7c-12.3,0-23.9-5-32.4-14.1c-8.9-8.9-13.8-20.7-13.6-33.2c0.1-12.6,5.3-24.4,14.5-33.2
			c8.6-8.6,20.1-13.3,32.5-13.3c12.8,0,24.8,5,33.9,14.1c11.4,11.4,15.6,28.9,10.9,45.5l-0.2,0.8l70.4,72.6l-0.8,32.2L953.6,482z
			 M849.3,340.5c-3.6,3.1-5.6,7.6-5.6,12.4c0,4.8,2,9.3,5.6,12.4c3.4,3.4,7.9,5.3,12.5,5.3c4.6,0,9.1-1.9,12.6-5.5
			c3.5-3.5,5.4-8,5.4-12.6c0-4.7-2-9.2-5.9-13l-0.1-0.1l-0.1-0.1c-3.6-2.5-8.1-4-12.4-4C856.4,335.3,852.1,337.2,849.3,340.5z"/>
		<path class="st5" d="M872.5,319c12.4,0,24,4.9,32.8,13.7c10.9,10.9,15,28.2,10.5,44.1l-0.5,1.7l1.2,1.2l69.4,71.6l-0.8,30
			l-30.3-0.8l-1.9-12.2l-0.3-2l-2-0.4l-12.1-2.5l-1.9-12.1l-0.3-2l-2-0.4l-12.1-2.5l-1.9-12.1l-0.3-2l-2-0.4l-11.8-2.5L886.6,409
			l-1.2-1.3l-1.7,0.5c-3.9,1.1-7.9,1.7-11.9,1.7c-11.9,0-23.1-4.8-31.4-13.7l0,0l0,0c-8.6-8.6-13.3-20-13.2-32.1
			c0.1-12.2,5.1-23.6,14-32.1l0,0l0,0C849.5,323.6,860.6,319,872.5,319 M848.2,339.4c-3.9,3.4-6.1,8.3-6.1,13.5
			c0,5.2,2.2,10.1,6.1,13.5c3.8,3.7,8.6,5.7,13.5,5.7c5,0,9.9-2.1,13.7-5.9c3.8-3.8,5.9-8.6,5.9-13.7c0-5.1-2.2-10-6.4-14.1
			l-0.2-0.2l-0.2-0.1c-3.8-2.7-8.7-4.3-13.3-4.3C856,333.8,851.4,335.8,848.2,339.4 M872.5,316c-12.2,0-24.3,4.6-33.5,13.8
			c-9.5,9.1-14.8,21.2-14.9,34.2c-0.1,12.9,4.9,25.1,14,34.3c9,9.5,21,14.6,33.5,14.6c4.2,0,8.5-0.6,12.7-1.8l20,20.8l12.7,2.7
			l2.2,14.1l14.1,3l2.2,14.1l14.1,3l2.3,14.7l35.8,0.9L989,450l-70.2-72.5c4.8-17,0.5-35.2-11.3-47C897.8,320.9,885.1,316,872.5,316
			L872.5,316z M861.7,369.1c-4.1,0-8.1-1.6-11.5-4.9c-3.2-2.8-5.1-6.9-5.1-11.3c0-4.4,1.9-8.6,5.2-11.4c2.8-3.3,6.8-4.7,10.9-4.7
			c4.1,0,8.3,1.4,11.6,3.7c3.7,3.6,5.5,7.7,5.5,12c0,4.2-1.8,8.3-5,11.6C869.9,367.4,865.8,369.1,861.7,369.1L861.7,369.1z"/>
	</g>
</g>
<path class="st6" d="M215.3,468.8h151.7V362.6H215.3V468.8z M374.7,484H207.8c-4.2,0-7.6-3.4-7.6-7.6V332.3h53.1v15.2h121.4
	c4.2,0,7.6,3.4,7.6,7.6v121.4C382.3,480.6,378.9,484,374.7,484"/>
<g>
	<g>
		<path class="st4" d="M220.4,269.7c-3.2,0-3.4-2.8-3.4-3.4V99.5c0-4.2,3-7.3,3-7.3l42.1-42.1c3-3,7.3-3,7.3-3h117.7
			c3.2,0,3.4,2.8,3.4,3.4v215.8c0,3.2-2.8,3.4-3.4,3.4H220.4z"/>
		<path class="st5" d="M387.2,48.5c0.5,0,1.8,0,1.9,1.9v215.8c0,0.5,0,1.8-1.9,1.9H220.4c-0.5,0-1.8,0-1.9-1.9V99.5
			c0-3.5,2.6-6.2,2.6-6.3l42.1-42.1c2.5-2.5,6.2-2.6,6.3-2.6H387.2 M387.2,45.5H269.5c0,0-4.9,0-8.4,3.5L219,91.1
			c0,0-3.5,3.5-3.5,8.4v166.8c0,0,0,4.9,4.9,4.9h166.8c0,0,4.9,0,4.9-4.9V50.4C392.1,50.4,392.1,45.5,387.2,45.5L387.2,45.5z"/>
	</g>
	<g>
		<polygon class="st1" points="372.5,251.6 372.5,65.2 284.2,65.2 284.2,114.2 235.1,114.2 235.1,251.6 274.4,251.6 274.4,271.2 
			333.2,271.2 333.2,251.6 		"/>
	</g>
	<g>
		<polygon class="st4" points="253,285.8 287,285.8 287,226.6 320.6,226.6 320.6,285.8 354.6,285.8 303.8,329.8 		"/>
		<path class="st5" d="M319.1,228.1v56.2v3h3h28.5l-46.8,40.5L257,287.3h28.5h3v-3v-56.2H319.1 M322.1,225.1h-36.6v59.2h-36.6
			l54.9,47.5l54.9-47.5h-36.6V225.1L322.1,225.1z"/>
	</g>
</g>
<path class="st6" d="M479.1,387.7c-11.8,0-22.3-3.9-30.2-9.2c-17.1,7.9-28.9,22.3-28.9,38.1v63h118.2v-63
	c0-15.8-11.8-30.2-28.9-38.1C501.4,383.8,490.9,387.7,479.1,387.7"/>
<path class="st6" d="M438.4,324.7c0,24.9,18.4,44.6,40.7,44.6c22.3,0,40.7-19.7,40.7-44.6c0-24.9-18.4-44.6-40.7-44.6
	C456.8,280.1,438.4,299.8,438.4,324.7"/>
<path class="st6" d="M754.8,369.4c22.3,0,40.7-19.7,40.7-44.6c0-24.9-18.4-44.6-40.7-44.6c-22.3,0-40.7,19.7-40.7,44.6
	C714.1,349.7,732.5,369.4,754.8,369.4"/>
<path class="st6" d="M616.9,310.3c22.3,0,40.7-19.7,40.7-44.6S639.3,221,616.9,221s-40.7,19.7-40.7,44.6S594.6,310.3,616.9,310.3"/>
<path class="st6" d="M616.9,328.7c-11.8,0-22.3-3.9-30.2-9.2c-17.1,7.9-28.9,22.3-28.9,38.1v63H676v-63c0-15.8-11.8-30.2-28.9-38.1
	C639.3,324.7,628.8,328.7,616.9,328.7"/>
<path class="st6" d="M754.8,387.7c-11.8,0-22.3-3.9-30.2-9.2c-17.1,7.9-28.9,22.3-28.9,38.1v63h118.2v-63
	c0-15.8-11.8-30.2-28.9-38.1C777.1,383.8,766.6,387.7,754.8,387.7"/>
<path class="st6" d="M761,46c-51.9,0-94,42.1-94,94s42.1,94,94,94s94-42.1,94-94S812.9,46,761,46z M730.9,170.1
	c-9.8,17.3-10.5,14.3-13.5,3.8c-3.8-13.5-18-32.3-11.3-40.6c7.5-8.3,32.3-9.8,30.8,6C736.2,157.3,736.9,160.3,730.9,170.1z
	 M785.1,167.8c0-34.6-34.6-34.6-34.6-51.9s17.3,0,34.6-17.3c12-12,34.6,17.3,34.6,34.6S785.1,185.1,785.1,167.8z"/>
</svg>
