<?xml version="1.0" encoding="utf-8"?>
<!-- Generator: Adobe Illustrator 23.0.1, SVG Export Plug-In . SVG Version: 6.00 Build 0)  -->
<svg version="1.1" id="Ebene_1" xmlns="http://www.w3.org/2000/svg" xmlns:xlink="http://www.w3.org/1999/xlink" x="0px" y="0px"
	 viewBox="0 0 655 210.9" style="enable-background:new 0 0 655 210.9;" xml:space="preserve">
<style type="text/css">
	.st0{fill:#634E42;}
	.st1{opacity:0.74;fill:#FFFFFF;enable-background:new    ;}
</style>
<g>
	<g>
		<path class="st0" d="M119,140c5.5,5.6,13.3,8.5,23.3,8.5c9.9,0,17.6-2.8,23.1-8.5c5.5-5.6,8.3-13.6,8.3-23.8V61.7h5.5v54.5
			c0,11.9-3.2,21.1-9.7,27.7c-6.5,6.6-15.5,9.9-27.3,9.9c-11.7,0-20.8-3.3-27.3-9.9c-6.5-6.6-9.8-15.8-9.8-27.7V61.7h5.5v54.5
			C110.7,126.4,113.5,134.4,119,140z"/>
		<path class="st0" d="M262.2,153.3l-21.6-31.1c-2.2,0.3-4.8,0.5-7.7,0.5h-26.9v30.5h-5.5V61.7H233c11.4,0,20.1,2.6,26.3,7.9
			c6.2,5.2,9.2,12.7,9.2,22.3c0,7.8-1.9,14.2-5.8,19.2c-3.8,5-9.4,8.5-16.8,10.3l22.9,32L262.2,153.3L262.2,153.3z M233.1,117.4
			c9.6,0,17-2.2,22.2-6.6c5.2-4.4,7.8-10.7,7.8-18.9c0-8-2.6-14.2-7.8-18.5c-5.2-4.3-12.6-6.4-22.2-6.4h-27v50.3L233.1,117.4
			L233.1,117.4z"/>
		<path class="st1" d="M346,153.3l-0.2-18.2c-3.2,6.2-7.6,10.9-13,13.9s-11.6,4.5-18.6,4.5c-5.2,0-9.7-1.2-13.7-3.5
			c-3.9-2.4-7-5.6-9.2-9.6c-2.2-4.1-3.3-8.7-3.3-13.9c0-7.7,2.6-13.7,7.9-18.1s12.5-6.6,21.6-6.6h28.1v-9c-0.1-7.9-2.1-14-6.1-18.4
			c-3.9-4.4-9.8-6.5-17.6-6.5c-4.8,0-9.3,1-13.5,3.1c-4.3,2.1-8.6,5-13.1,8.9l-3-5.7c5.2-4.4,10.1-7.6,14.9-9.8
			c4.8-2.2,10-3.3,15.6-3.3c9.2,0,16.3,2.8,21.3,8.3c5,5.5,7.6,13.1,7.7,22.8l0.3,61.1L346,153.3L346,153.3z M334.5,140.9
			c5.3-3.9,9.1-9.8,11.4-17.7v-15h-27.6c-7.8,0-13.7,1.5-17.8,4.6s-6.2,7.5-6.2,13.4c0,6.1,1.9,11.1,5.7,14.8
			c3.8,3.8,8.9,5.7,15.3,5.7C322.9,146.8,329.2,144.8,334.5,140.9z"/>
		<path class="st1" d="M438.6,67c5.8,3.9,10.4,9.4,13.6,16.4s4.9,15,4.9,23.9c0,8.8-1.6,16.7-4.9,23.8c-3.2,7-7.7,12.5-13.5,16.4
			s-12.4,5.9-19.7,5.9c-7.7,0-14.5-2.1-20.3-6.4c-5.8-4.3-10.3-10.2-13.3-17.7v58.3h-6.4V61.3h6.4v24.2c3-7.7,7.5-13.6,13.3-17.9
			s12.6-6.4,20.3-6.4C426.2,61.1,432.8,63.1,438.6,67z M434.9,141.5c5-3.4,8.9-8,11.7-14c2.8-5.9,4.2-12.7,4.2-20.2
			s-1.4-14.3-4.2-20.2c-2.8-5.9-6.7-10.6-11.7-14S424.2,68,418,68c-6.3,0-11.9,1.7-16.9,5.1s-8.8,8.1-11.6,14
			c-2.8,5.9-4.2,12.7-4.2,20.2s1.4,14.3,4.2,20.2c2.8,5.9,6.7,10.6,11.6,14c5,3.4,10.6,5,16.9,5
			C424.4,146.6,429.9,144.9,434.9,141.5z"/>
		<path class="st1" d="M531.5,67c5.8,3.9,10.4,9.4,13.6,16.4s4.9,15,4.9,23.9c0,8.8-1.6,16.7-4.9,23.8c-3.2,7-7.7,12.5-13.5,16.4
			s-12.4,5.9-19.7,5.9c-7.7,0-14.5-2.1-20.3-6.4c-5.8-4.3-10.2-10.2-13.3-17.7v58.3h-6.4V61.3h6.4v24.2c3-7.7,7.5-13.6,13.3-17.9
			s12.6-6.4,20.3-6.4C519,61.1,525.5,63.1,531.5,67z M527.8,141.5c5-3.4,8.9-8,11.7-14c2.8-5.9,4.2-12.7,4.2-20.2
			s-1.4-14.3-4.2-20.2c-2.8-5.9-6.7-10.6-11.7-14S517,68,510.9,68c-6.3,0-11.9,1.7-16.9,5.1s-8.8,8.1-11.6,14
			c-2.8,5.9-4.2,12.7-4.2,20.2s1.4,14.3,4.2,20.2c2.8,5.9,6.7,10.6,11.6,14c5,3.4,10.6,5,16.9,5
			C517.2,146.6,522.8,144.9,527.8,141.5z"/>
	</g>
	<g>
		<path class="st0" d="M215,4.1h3.2l-10.4,30.8h-3.2l-8.7-27l-8.8,27H184L173.7,4.1h3.3l8.8,27.6l8.7-27.6h3.1l8.8,27.6L215,4.1z"/>
		<path class="st0" d="M223.3,4.1h20.6v2.7h-17.6v11H242v2.7h-15.7v11.6h18.1v2.7h-21.2L223.3,4.1L223.3,4.1z"/>
		<path class="st0" d="M251.9,4.1h3v28h13.6v2.7h-16.6V4.1z"/>
		<path class="st0" d="M292.5,7.5c-1.6-0.7-3.3-1-5-1c-2.4,0-4.6,0.6-6.5,1.7c-2,1.1-3.5,2.7-4.7,4.7c-1.2,2-1.7,4.1-1.7,6.5
			c0,2.3,0.6,4.5,1.7,6.5c1.2,2,2.7,3.5,4.7,4.7c2,1.2,4.2,1.7,6.5,1.7c1.7,0,3.4-0.3,5-1c1.6-0.7,3.1-1.6,4.3-2.8l1.8,2
			c-1.5,1.4-3.3,2.5-5.2,3.3s-4,1.2-6,1.2c-2.9,0-5.6-0.7-8-2.1s-4.4-3.3-5.8-5.7s-2.1-5-2.1-7.9c0-2.8,0.7-5.5,2.2-7.8
			c1.4-2.4,3.4-4.3,5.8-5.7c2.4-1.4,5.1-2.1,8-2.1c2.1,0,4.1,0.4,6,1.2s3.6,1.9,5.1,3.2l-1.8,2.1C295.5,9.2,294.1,8.2,292.5,7.5z"/>
		<path class="st0" d="M325.6,5.9c2.4,1.4,4.4,3.3,5.8,5.7c1.4,2.4,2.2,5,2.2,7.8s-0.7,5.5-2.2,7.9c-1.4,2.4-3.4,4.3-5.8,5.7
			c-2.5,1.4-5.1,2.1-8.1,2.1c-2.9,0-5.6-0.7-8.1-2.1c-2.4-1.4-4.4-3.3-5.8-5.7s-2.2-5-2.2-7.9c0-2.8,0.7-5.5,2.2-7.8
			c1.4-2.4,3.4-4.3,5.8-5.7c2.4-1.4,5.1-2.1,8.1-2.1C320.5,3.9,323.1,4.5,325.6,5.9z M311,8.3c-2,1.1-3.6,2.7-4.8,4.7
			c-1.2,2-1.8,4.1-1.8,6.5c0,2.3,0.6,4.5,1.8,6.5c1.2,2,2.8,3.6,4.8,4.7c2,1.2,4.2,1.7,6.5,1.7c2.3,0,4.5-0.6,6.4-1.7
			c2-1.2,3.6-2.7,4.7-4.7c1.2-2,1.8-4.2,1.8-6.5s-0.6-4.5-1.8-6.5c-1.2-2-2.8-3.5-4.7-4.7c-2-1.1-4.1-1.7-6.4-1.7
			C315.2,6.6,313,7.2,311,8.3z"/>
		<path class="st0" d="M340.2,4.1h3.8l12.1,23.1L368,4.1h3.8v30.8H369V8.3l-12.1,23.3h-1.7L343.1,8.3v26.6h-2.9V4.1z"/>
		<path class="st0" d="M381.5,4.1h20.6v2.7h-17.6v11h15.7v2.7h-15.7v11.6h18.1v2.7h-21.2V4.1H381.5z"/>
		<path class="st0" d="M417.9,4.1h23.4v2.8H431v28h-3v-28h-10.2L417.9,4.1L417.9,4.1z"/>
		<path class="st0" d="M465.6,5.9c2.4,1.4,4.4,3.3,5.8,5.7s2.2,5,2.2,7.8s-0.7,5.5-2.2,7.9c-1.4,2.4-3.4,4.3-5.8,5.7
			c-2.5,1.4-5.1,2.1-8.1,2.1c-2.9,0-5.6-0.7-8.1-2.1c-2.4-1.4-4.4-3.3-5.8-5.7s-2.2-5-2.2-7.9c0-2.8,0.7-5.5,2.2-7.8
			c1.4-2.4,3.4-4.3,5.8-5.7s5.1-2.1,8.1-2.1C460.5,3.9,463.2,4.5,465.6,5.9z M451.1,8.3c-2,1.1-3.6,2.7-4.8,4.7
			c-1.2,2-1.8,4.1-1.8,6.5c0,2.3,0.6,4.5,1.8,6.5c1.2,2,2.8,3.6,4.8,4.7c2,1.2,4.2,1.7,6.5,1.7s4.5-0.6,6.4-1.7
			c2-1.2,3.6-2.7,4.7-4.7c1.2-2,1.8-4.2,1.8-6.5s-0.6-4.5-1.8-6.5c-1.2-2-2.8-3.5-4.7-4.7c-2-1.1-4.1-1.7-6.4-1.7
			C455.2,6.6,453.1,7.2,451.1,8.3z"/>
	</g>
</g>
</svg>
