<?xml version="1.0" encoding="utf-8"?>
<!-- Generator: Adobe Illustrator 22.1.0, SVG Export Plug-In . SVG Version: 6.00 Build 0)  -->
<svg version="1.1" id="Ebene_1" xmlns="http://www.w3.org/2000/svg" xmlns:xlink="http://www.w3.org/1999/xlink" x="0px" y="0px"
	 viewBox="0 0 250 250" style="enable-background:new 0 0 250 250;" xml:space="preserve">
<style type="text/css">
	.st0{opacity:0.74;}
	.st1{clip-path:url(#SVGID_2_);fill:#FFFFFF;}
	.st2{opacity:0.74;fill:none;stroke:#FFFFFF;stroke-width:6;stroke-miterlimit:10;}
</style>
<g>
	<g class="st0">
		<defs>
			<rect id="SVGID_1_" x="110.8" y="73.9" class="st0" width="28.4" height="103.2"/>
		</defs>
		<clipPath id="SVGID_2_">
			<use xlink:href="#SVGID_1_"  style="overflow:visible;"/>
		</clipPath>
		<path class="st1" d="M125.4,77c0,0,10.8,0,10.8,8.9v1.7v7.6v0.6c0,7-6.3,7-6.3,7h-3H125h-4.9c0,0-6.3,0-6.3-8.2v0.6v-7.6V86
			c0-8.9,10.8-8.9,10.8-8.9 M125,112.7c-1.8,0-2.6,0.2-2.6,0.2s-7.2,0-7.6,7.1l-1.7,47.7c0,0-0.4,6.3,5.9,6.3h6h1.9h4.1
			c6.3,0,5.9-6.3,5.9-6.3l-1.7-47.7c-0.5-7.1-7.6-7.1-7.6-7.1S126.9,112.7,125,112.7"/>
	</g>
	<ellipse transform="matrix(0.7071 -0.7071 0.7071 0.7071 -51.7767 125)" class="st2" cx="125" cy="125" rx="85" ry="85"/>
</g>
</svg>
