<?xml version="1.0" encoding="utf-8"?>
<!-- Generator: Adobe Illustrator 22.1.0, SVG Export Plug-In . SVG Version: 6.00 Build 0)  -->
<svg version="1.1" id="Ebene_1" xmlns="http://www.w3.org/2000/svg" xmlns:xlink="http://www.w3.org/1999/xlink" x="0px" y="0px"
	 viewBox="0 0 1920 1200" style="enable-background:new 0 0 1920 1200;" xml:space="preserve">
<style type="text/css">
	.st0{opacity:0.3;fill:#DFD7CD;}
	.st1{fill:#F9B000;}
	.st2{fill:#FFFFFF;}
	.st3{fill:none;stroke:#F9B000;stroke-width:2.3108;stroke-miterlimit:10;}
	.st4{opacity:0.3;}
	.st5{fill:#DFD7CD;}
	.st6{fill:none;stroke:#F9B000;stroke-width:2.3107;stroke-miterlimit:10;}
</style>
<title>play-video</title>
<rect class="st0" width="1920" height="1200"/>
<g>
	<g>
		<g>
			<path class="st1" d="M862.6,681.6c-7.3,0-13.2-5.9-13.2-13.2v-137c0-7.3,5.9-13.2,13.2-13.2h190.4c7.3,0,13.2,5.9,13.2,13.2v137
				c0,7.3-5.9,13.2-13.2,13.2H862.6z"/>
			<path class="st1" d="M1052.9,519.5c6.6,0,12,5.4,12,12v137c0,6.6-5.4,12-12,12H862.6c-6.6,0-12-5.4-12-12v-137
				c0-6.6,5.4-12,12-12H1052.9 M1052.9,517.2H862.6c-7.9,0-14.3,6.4-14.3,14.3v137c0,7.9,6.4,14.3,14.3,14.3h190.4
				c7.9,0,14.3-6.4,14.3-14.3v-137C1067.2,523.7,1060.8,517.2,1052.9,517.2L1052.9,517.2z"/>
		</g>
	</g>
	<g>
		<g>
			<path class="st2" d="M929.8,559.2c0-4.4,3.1-6.2,6.9-4.1l73.1,41c3.8,2.1,3.8,5.6,0,7.8l-73.1,41c-3.8,2.1-6.9,0.3-6.9-4.1V559.2
				z"/>
			<path class="st3" d="M929.8,559.2c0-4.4,3.1-6.2,6.9-4.1l73.1,41c3.8,2.1,3.8,5.6,0,7.8l-73.1,41c-3.8,2.1-6.9,0.3-6.9-4.1V559.2
				z"/>
		</g>
		<g class="st4">
			<path class="st5" d="M929.8,559.2c0-4.4,3.1-6.2,6.9-4.1l73.1,41c3.8,2.1,3.8,5.6,0,7.8l-73.1,41c-3.8,2.1-6.9,0.3-6.9-4.1V559.2
				z"/>
			<path class="st6" d="M929.8,559.2c0-4.4,3.1-6.2,6.9-4.1l73.1,41c3.8,2.1,3.8,5.6,0,7.8l-73.1,41c-3.8,2.1-6.9,0.3-6.9-4.1V559.2
				z"/>
		</g>
	</g>
</g>
</svg>
