<?xml version="1.0" encoding="utf-8"?>
<!-- Generator: Adobe Illustrator 23.0.4, SVG Export Plug-In . SVG Version: 6.00 Build 0)  -->
<svg version="1.1" id="Ebene_1" xmlns="http://www.w3.org/2000/svg" xmlns:xlink="http://www.w3.org/1999/xlink" x="0px" y="0px"
	 viewBox="0 0 512 512" style="enable-background:new 0 0 512 512;" xml:space="preserve">
<style type="text/css">
	.st0{fill:#3B3D37;}
	.st1{fill:#E8960B;}
	.st2{fill:#3B3D37;stroke:#FFFFFF;stroke-miterlimit:10;}
</style>
<path class="st0" d="M432,176H80c-8.8,0-16-7.2-16-16s7.2-16,16-16h352c8.8,0,16,7.2,16,16S440.8,176,432,176z"/>
<path class="st1" d="M432,272H80c-8.8,0-16-7.2-16-16c0-8.8,7.2-16,16-16h352c8.8,0,16,7.2,16,16C448,264.8,440.8,272,432,272z"/>
<path class="st2" d="M432,368H80c-8.8,0-16-7.2-16-16s7.2-16,16-16h352c8.8,0,16,7.2,16,16S440.8,368,432,368z"/>
</svg>
