<?xml version="1.0" encoding="utf-8"?>
<!-- Generator: Adobe Illustrator 16.0.0, SVG Export Plug-In . SVG Version: 6.00 Build 0)  -->
<!DOCTYPE svg PUBLIC "-//W3C//DTD SVG 1.1//EN" "http://www.w3.org/Graphics/SVG/1.1/DTD/svg11.dtd">
<svg version="1.1" id="Layer_1" xmlns="http://www.w3.org/2000/svg" xmlns:xlink="http://www.w3.org/1999/xlink" x="0px" y="0px"
	 width="32px" height="32px" viewBox="0 0 32 32" enable-background="new 0 0 32 32" xml:space="preserve">
<g>
	<g>
		<defs>
			<path id="SVGID_1_" d="M4.5,843.4c-0.9,0-1.7-0.301-2.3-0.701C0.9,843.301,0,844.4,0,845.6v4.801h9V845.6
				c0-1.199-0.9-2.299-2.2-2.9C6.2,843.1,5.4,843.4,4.5,843.4"/>
		</defs>
		<clipPath id="SVGID_2_">
			<use xlink:href="#SVGID_1_"  overflow="visible"/>
		</clipPath>
		
			<linearGradient id="SVGID_3_" gradientUnits="userSpaceOnUse" x1="-373.0938" y1="-279.2344" x2="-372.0938" y2="-279.2344" gradientTransform="matrix(9 0 0 9 3357.8438 3359.6563)">
			<stop  offset="0" style="stop-color:#4B823C"/>
			<stop  offset="0.0198" style="stop-color:#4B823C"/>
			<stop  offset="1" style="stop-color:#6EA03C"/>
		</linearGradient>
		<rect y="842.699" clip-path="url(#SVGID_2_)" fill="url(#SVGID_3_)" width="9" height="7.701"/>
	</g>
</g>
<g>
	<g>
		<defs>
			<path id="SVGID_4_" d="M1.4,838.6c0,1.9,1.4,3.4,3.1,3.4s3.1-1.5,3.1-3.4s-1.4-3.4-3.1-3.4S1.4,836.699,1.4,838.6"/>
		</defs>
		<clipPath id="SVGID_5_">
			<use xlink:href="#SVGID_4_"  overflow="visible"/>
		</clipPath>
		
			<linearGradient id="SVGID_6_" gradientUnits="userSpaceOnUse" x1="-332.001" y1="-244.4971" x2="-331.0011" y2="-244.4971" gradientTransform="matrix(6.1875 0 0 6.1875 2055.6563 2351.375)">
			<stop  offset="0" style="stop-color:#DCB496"/>
			<stop  offset="0.0198" style="stop-color:#DCB496"/>
			<stop  offset="1" style="stop-color:#EBC3A5"/>
		</linearGradient>
		<rect x="1.4" y="835.199" clip-path="url(#SVGID_5_)" fill="url(#SVGID_6_)" width="6.2" height="6.701"/>
	</g>
</g>
<g>
	<g>
		<defs>
			<rect id="SVGID_7_" y="830.699" width="30" height="19.701"/>
		</defs>
		<clipPath id="SVGID_8_">
			<use xlink:href="#SVGID_7_"  overflow="visible"/>
		</clipPath>
		<path clip-path="url(#SVGID_8_)" fill="#7C655E" d="M25.5,842c1.7,0,3.1-1.5,3.1-3.4s-1.399-3.4-3.1-3.4s-3.1,1.5-3.1,3.4
			S23.8,842,25.5,842"/>
	</g>
	<g>
		<defs>
			<rect id="SVGID_9_" y="830.699" width="30" height="19.701"/>
		</defs>
		<clipPath id="SVGID_10_">
			<use xlink:href="#SVGID_9_"  overflow="visible"/>
		</clipPath>
		<path clip-path="url(#SVGID_10_)" fill="#DCB496" d="M15,837.5c1.7,0,3.1-1.5,3.1-3.4s-1.399-3.4-3.1-3.4s-3.1,1.5-3.1,3.4
			S13.3,837.5,15,837.5"/>
	</g>
</g>
<g>
	<g>
		<defs>
			<path id="SVGID_11_" d="M15,838.9c-0.9,0-1.7-0.301-2.3-0.701c-1.3,0.602-2.2,1.701-2.2,2.9v4.801h9V841.1
				c0-1.199-0.9-2.299-2.2-2.9C16.7,838.6,15.9,838.9,15,838.9"/>
		</defs>
		<clipPath id="SVGID_12_">
			<use xlink:href="#SVGID_11_"  overflow="visible"/>
		</clipPath>
		
			<linearGradient id="SVGID_13_" gradientUnits="userSpaceOnUse" x1="-373.0938" y1="-279.2344" x2="-372.0938" y2="-279.2344" gradientTransform="matrix(9 0 0 9 3368.3594 3355.1563)">
			<stop  offset="0" style="stop-color:#002555"/>
			<stop  offset="0.0198" style="stop-color:#002555"/>
			<stop  offset="1" style="stop-color:#0F4187"/>
		</linearGradient>
		<rect x="10.5" y="838.199" clip-path="url(#SVGID_12_)" fill="url(#SVGID_13_)" width="9" height="7.701"/>
	</g>
</g>
<g>
	<g>
		<defs>
			<path id="SVGID_14_" d="M25.5,843.4c-0.9,0-1.7-0.301-2.3-0.701c-1.3,0.602-2.2,1.701-2.2,2.9v4.801h9V845.6
				c0-1.199-0.9-2.299-2.2-2.9C27.2,843.1,26.4,843.4,25.5,843.4"/>
		</defs>
		<clipPath id="SVGID_15_">
			<use xlink:href="#SVGID_14_"  overflow="visible"/>
		</clipPath>
		
			<linearGradient id="SVGID_16_" gradientUnits="userSpaceOnUse" x1="-373.0938" y1="-279.2344" x2="-372.0938" y2="-279.2344" gradientTransform="matrix(9 0 0 9 3378.8438 3359.6563)">
			<stop  offset="0" style="stop-color:#4C6586"/>
			<stop  offset="0.0198" style="stop-color:#4C6586"/>
			<stop  offset="1" style="stop-color:#5A78A0"/>
		</linearGradient>
		<rect x="21" y="842.699" clip-path="url(#SVGID_15_)" fill="url(#SVGID_16_)" width="9" height="7.701"/>
	</g>
</g>
<g>
	<path fill="#FFFFFF" d="M12.779,8.771c2.045-0.908,4.395-0.908,6.439,0l2.955-2.955c-3.783-2.293-8.566-2.293-12.349,0
		L12.779,8.771z"/>
	<path fill="#FFFFFF" d="M23.229,12.78c0.908,2.046,0.908,4.395,0,6.44l2.955,2.955c2.293-3.783,2.293-8.566,0-12.35L23.229,12.78z"
		/>
	<path fill="#FFFFFF" d="M8.771,19.22c-0.908-2.046-0.908-4.394,0.001-6.439L5.816,9.826c-2.293,3.784-2.293,8.565,0,12.349
		L8.771,19.22z"/>
	<path fill="#FFFFFF" d="M19.219,23.229c-2.045,0.907-4.395,0.907-6.439,0l-2.955,2.954c3.784,2.294,8.566,2.294,12.35,0
		L19.219,23.229z"/>
</g>
</svg>
