<?xml version="1.0" encoding="utf-8"?>
<!-- Generator: Adobe Illustrator 23.0.3, SVG Export Plug-In . SVG Version: 6.00 Build 0)  -->
<svg version="1.1" id="Ebene_1" xmlns="http://www.w3.org/2000/svg" xmlns:xlink="http://www.w3.org/1999/xlink" x="0px" y="0px"
	 viewBox="0 0 582 459" style="enable-background:new 0 0 582 459;" xml:space="preserve">
<style type="text/css">
	.st0{fill:#B7B6B6;}
	.st1{fill:none;stroke:#FFFFFF;stroke-width:51;stroke-linecap:round;stroke-miterlimit:10;}
	.st2{fill:none;stroke:#B7B6B6;stroke-width:22;stroke-linecap:round;stroke-miterlimit:10;}
</style>
<path class="st0" d="M323,94c30.3,0,59.3,11.2,81.8,31.5c22.3,20.1,36.3,47.6,39.5,77.3l1.2,11.1c0.6,5.8,5,10.5,10.7,11.5l11,2
	c14,2.5,27,10.4,36.7,22.1c9.8,12,15.2,26.9,15.2,42.1c0,17-6.9,34.1-18.9,46.8C488,351,472.4,358,456.1,358H125.9
	c-16.3,0-31.9-7-43.9-19.7s-18.9-29.7-18.9-46.8c0-14.4,4.6-28.9,13.1-40.9c8.6-12.2,20.2-20.9,33.7-25.1l10.3-3.3
	c5.3-1.7,9-6.6,9.1-12.2l0.2-10.8c0.2-11.8,5.1-23.6,13.5-32.4c8.3-8.7,18.9-13.4,29.9-13.4c5.6,0,11.1,1.1,16.3,3.2l11.1,4.5
	c5.7,2.3,12.2,0.4,15.7-4.7l6.8-9.8C245.4,113.7,283,94,323,94 M323,66c-51.2,0-96.3,25.6-123.4,64.7c-8.3-3.4-17.4-5.3-26.9-5.3
	c-39.1,0-70.8,34.4-71.4,73.4C61.4,211.5,35,250.5,35,291.5c0,50.2,40.7,94.5,90.9,94.5h330.3c50.2,0,90.9-44.3,90.9-94.5
	c0-44.7-32.3-84.1-74.9-91.7C464,124.6,400.4,66,323,66z"/>
<line class="st1" x1="25.5" y1="25.5" x2="556.5" y2="433.5"/>
<line class="st2" x1="25.6" y1="25.4" x2="556.6" y2="433.4"/>
</svg>
