<?xml version="1.0" encoding="utf-8"?>
<!-- Generator: Adobe Illustrator 22.1.0, SVG Export Plug-In . SVG Version: 6.00 Build 0)  -->
<svg version="1.1" id="Ebene_1" xmlns="http://www.w3.org/2000/svg" xmlns:xlink="http://www.w3.org/1999/xlink" x="0px" y="0px"
	 viewBox="0 0 250 250" style="enable-background:new 0 0 250 250;" xml:space="preserve">
<style type="text/css">
	.st0{fill:#F9B000;}
</style>
<g>
	<g>
		<path class="st0" d="M100.4,152.4c-0.7,0-1.4-0.3-1.9-0.8c-1.1-1.1-1.1-2.8,0-3.9l47.7-47.7c1.1-1.1,2.8-1.1,3.9,0
			c1.1,1.1,1.1,2.8,0,3.9l-47.7,47.7C101.8,152.1,101.1,152.4,100.4,152.4L100.4,152.4z"/>
	</g>
	<g>
		<path class="st0" d="M147.5,130.7c-0.8,0-1.6,0-2.4-0.1c-1.5-0.1-2.6-1.5-2.5-3c0.1-1.5,1.5-2.7,3-2.5c6.2,0.6,12.3-1.6,16.7-6
			l13.6-13.6c8.2-8.2,8.2-21.6,0-29.9l-1.5-1.5c-8.2-8.2-21.6-8.2-29.9,0l-13.6,13.6c-4.4,4.4-6.6,10.5-6,16.7c0.1,1.5-1,2.8-2.5,3
			c-1.5,0.1-2.8-1-3-2.5c-0.7-7.8,2.1-15.5,7.6-21.1l13.6-13.6c10.3-10.4,27.2-10.4,37.6,0l1.5,1.5c10.4,10.4,10.4,27.2,0,37.6
			L166.1,123C161.2,128,154.5,130.7,147.5,130.7L147.5,130.7z"/>
	</g>
	<g>
		<path class="st0" d="M90.6,187.5c-6.8,0-13.6-2.6-18.8-7.8l-1.5-1.6c-5-5-7.8-11.7-7.8-18.8c0-7.1,2.8-13.8,7.8-18.8L83.9,127
			c5.5-5.5,13.2-8.3,21.1-7.6c1.5,0.1,2.6,1.5,2.5,3c-0.1,1.5-1.5,2.6-3,2.5c-6.2-0.6-12.3,1.6-16.7,6l-13.6,13.6
			c-4,4-6.2,9.3-6.2,14.9c0,5.6,2.2,10.9,6.2,14.9l1.5,1.6c8.2,8.2,21.6,8.2,29.9,0l13.6-13.6c4.4-4.4,6.6-10.5,6-16.7
			c-0.1-1.5,1-2.8,2.5-3c1.5-0.1,2.8,1,3,2.5c0.7,7.9-2.1,15.5-7.6,21.1l-13.6,13.6C104.2,184.9,97.4,187.5,90.6,187.5L90.6,187.5z"
			/>
	</g>
</g>
</svg>
