<?xml version="1.0" encoding="utf-8"?>
<!-- Generator: Adobe Illustrator 22.1.0, SVG Export Plug-In . SVG Version: 6.00 Build 0)  -->
<svg version="1.1" id="Ebene_1" xmlns="http://www.w3.org/2000/svg" xmlns:xlink="http://www.w3.org/1999/xlink" x="0px" y="0px"
	 viewBox="0 0 250 250" style="enable-background:new 0 0 250 250;" xml:space="preserve">
<style type="text/css">
	.st0{opacity:0.74;}
	.st1{fill:#FFFFFF;}
</style>
<g class="st0">
	<path class="st1" d="M135.5,217h-21c-5.4,0-9.8-4.4-9.8-9.8v-13.6c0-1.4-1.3-3.2-2.7-3.7l-6.4-2.6c-2-1-3.8-0.3-4.7,0.6l-9.6,9.6
		c-3.7,3.7-10.2,3.7-13.9,0l-14.9-14.9c-1.9-1.8-2.9-4.3-2.9-6.9c0-2.6,1-5.1,2.9-7l9.6-9.6c1-1,1.3-3.2,0.7-4.5l-2.6-6.4
		c-0.5-1.6-2.4-2.9-3.8-2.9H42.8c-5.4,0-9.8-4.4-9.8-9.8v-21c0-5.4,4.4-9.8,9.8-9.8h13.6c1.4,0,3.2-1.3,3.7-2.6l2.6-6.4
		c0.8-1.5,0.4-3.7-0.6-4.7l-9.6-9.6c-1.9-1.8-2.9-4.3-2.9-6.9c0-2.6,1-5.1,2.9-7l14.9-14.9c3.7-3.7,10.2-3.7,13.9,0l9.6,9.6
		c0.9,0.9,3.3,1.3,4.5,0.7l6.4-2.7c1.6-0.5,2.9-2.4,2.9-3.8V42.8c0-5.4,4.4-9.8,9.8-9.8h21c5.4,0,9.8,4.4,9.8,9.8v13.6
		c0,1.4,1.3,3.2,2.6,3.7l6.4,2.6c1.9,0.9,3.8,0.3,4.7-0.6l9.6-9.6c3.7-3.7,10.2-3.7,13.9,0l14.9,14.9c1.8,1.8,2.9,4.3,2.9,6.9
		c0,2.6-1,5.1-2.9,6.9l-9.6,9.6c-1,1-1.3,3.2-0.7,4.5l2.7,6.4c0.5,1.6,2.4,2.9,3.8,2.9h13.6c5.4,0,9.8,4.4,9.8,9.8v21
		c0,5.4-4.4,9.8-9.8,9.8h-13.6c-1.4,0-3.2,1.3-3.7,2.6l-2.6,6.4c-0.7,1.5-0.4,3.8,0.6,4.7l9.6,9.6c1.9,1.8,2.9,4.3,2.9,6.9
		c0,2.6-1,5.1-2.9,7l-14.8,14.9c-3.7,3.7-10.2,3.7-13.9,0l-9.6-9.6c-0.9-0.9-3.3-1.3-4.5-0.7l-6.4,2.7c-1.6,0.5-2.9,2.4-2.9,3.8
		v13.6C145.3,212.6,140.9,217,135.5,217L135.5,217z M93.8,178.7c1.9,0,3.7,0.4,5.2,1.2l5.9,2.4c4.4,1.5,8,6.4,8,11.3v13.6
		c0,0.9,0.7,1.6,1.6,1.6h21c0.9,0,1.7-0.7,1.7-1.6v-13.6c0-4.9,3.5-9.8,8.2-11.4l5.9-2.4c3.5-1.8,10.3-1,13.6,2.4l9.6,9.6
		c0.8,0.8,1.5,0.8,2.3,0l14.8-14.9c0.4-0.4,0.5-0.9,0.5-1.2c0-0.3-0.1-0.7-0.5-1.1l-9.6-9.6c-3.5-3.5-4.5-9.5-2.3-13.9l2.4-5.9
		c1.4-4.4,6.4-8,11.3-8h13.6c0.9,0,1.6-0.8,1.6-1.6v-21c0-0.9-0.7-1.6-1.6-1.6h-13.6c-5,0-9.9-3.5-11.4-8.3l-2.4-5.9
		c-2.1-4.2-1.1-10.1,2.4-13.6l9.6-9.6c0.4-0.4,0.5-0.9,0.5-1.2c0-0.3-0.1-0.7-0.5-1.2l-14.9-14.9c-0.8-0.8-1.5-0.8-2.3,0l-9.6,9.6
		c-3.4,3.4-9.6,4.4-13.9,2.3l-5.9-2.4c-4.4-1.5-8-6.4-8-11.3V42.8c0-0.9-0.8-1.6-1.7-1.6h-21c-0.9,0-1.6,0.8-1.6,1.6v13.6
		c0,5-3.5,9.9-8.2,11.4l-5.9,2.4c-3.5,1.8-10.3,1-13.6-2.4l-9.6-9.6c-0.8-0.8-1.5-0.8-2.3,0L58.3,73.2c-0.4,0.4-0.5,0.9-0.5,1.2
		c0,0.3,0.1,0.7,0.5,1.1l9.6,9.6c3.5,3.5,4.5,9.5,2.3,13.9l-2.4,5.9c-1.5,4.4-6.4,8-11.3,8H42.8c-0.9,0-1.6,0.8-1.6,1.6v21
		c0,0.9,0.8,1.6,1.6,1.6h13.6c4.9,0,9.9,3.5,11.4,8.2l2.4,5.9c2.1,4.2,1.1,10.1-2.4,13.6l-9.6,9.6c-0.4,0.4-0.5,0.9-0.5,1.2
		c0,0.3,0.1,0.7,0.5,1.1l14.9,14.9c0.8,0.8,1.5,0.8,2.3,0l9.6-9.6C87.2,180,90.5,178.7,93.8,178.7L93.8,178.7z M125,156.8
		c-17.5,0-31.8-14.3-31.8-31.8c0-17.5,14.3-31.8,31.8-31.8c17.5,0,31.8,14.3,31.8,31.8C156.8,142.5,142.5,156.8,125,156.8L125,156.8
		z M125,101.4c-13,0-23.6,10.6-23.6,23.6c0,13,10.6,23.6,23.6,23.6c13,0,23.6-10.6,23.6-23.6C148.6,112,138,101.4,125,101.4
		L125,101.4z"/>
</g>
</svg>
