<?xml version="1.0" encoding="utf-8"?>
<!-- Generator: Adobe Illustrator 21.1.0, SVG Export Plug-In . SVG Version: 6.00 Build 0)  -->
<svg version="1.1" id="Ebene_1" xmlns="http://www.w3.org/2000/svg" xmlns:xlink="http://www.w3.org/1999/xlink" x="0px" y="0px"
	 viewBox="0 0 286 286" style="enable-background:new 0 0 286 286;" xml:space="preserve">
<style type="text/css">
	.st0{fill:#FFFFFF;}
	.st1{fill:#FFFFFF;stroke:#FFFFFF;stroke-miterlimit:10;}
</style>
<g>
	<g>
		<g>
			<path class="st0" d="M189.9,197.7H82.8c-6.1,0-11.1-5-11.1-11.1v-56.5c0-6.1,5-11.1,11.1-11.1h107.1c6.1,0,11.1,5,11.1,11.1v56.5
				C201.1,192.7,196,197.7,189.9,197.7z"/>
		</g>
	</g>
	<g>
		<path class="st0" d="M85.1,210.8c0,2.6-2.1,4.6-4.6,4.6h-4.1c-2.6,0-4.6-2.1-4.6-4.6V159c0-2.6,2.1-4.6,4.6-4.6h4.1
			c2.6,0,4.6,2.1,4.6,4.6V210.8z"/>
	</g>
	<g>
		<path class="st0" d="M118.2,209c0.6,2.5-1,5-3.5,5.6l-5.8,1.3c-2.5,0.6-5-1-5.6-3.5l-11.7-52c-0.6-2.5,1-5,3.5-5.6l5.8-1.3
			c2.5-0.6,5,1,5.6,3.5L118.2,209z"/>
	</g>
	<g>
		<path class="st0" d="M176.6,210.8c0,2.6-2.1,4.6-4.6,4.6h-4.1c-2.6,0-4.6-2.1-4.6-4.6v-42c0-2.6,2.1-4.6,4.6-4.6h4.1
			c2.6,0,4.6,2.1,4.6,4.6V210.8z"/>
	</g>
	<g>
		<path class="st0" d="M201.1,210.8c0,2.6-2.1,4.6-4.6,4.6h-4.1c-2.6,0-4.6-2.1-4.6-4.6V148c0-2.6,2.1-4.6,4.6-4.6h4.1
			c2.6,0,4.6,2.1,4.6,4.6V210.8z"/>
	</g>
	<g>
		<path class="st1" d="M208.4,94c-0.1-0.2-0.3-0.4-0.4-0.6c-1-1.7-2.5-3.2-3.4-4.5c-1.2-1.7-2.7-3.2-4.5-4.4l-3.8-2.6
			c-8.4-5.7-19.9-3.4-25.6,5l-25.5,37.7c-5.7,8.4-3.5,19.9,4.9,25.6l3.8,2.6c8.4,5.7,19.9,3.4,25.6-5l13.5-19.9c1.4-2,4-2.8,6.2-1.8
			l15.5,7.1c2.1,0.9,4.5,0.4,6-1.4l6-7.4c1.5-1.8,1.5-4.4,0.1-6.2L208.4,94z M193.7,109.2c-5.4,0-9.8-4.4-9.8-9.8
			c0-5.4,4.4-9.8,9.8-9.8c5.4,0,9.8,4.4,9.8,9.8C203.5,104.8,199.1,109.2,193.7,109.2z"/>
	</g>
	<g>
		<circle class="st0" cx="196.2" cy="99.4" r="2.9"/>
	</g>
	<g>
		<path class="st0" d="M143.3,115.6c1.2,0,2.3-0.6,3-1.6l21.3-30.7c4-6,10.3-9.3,15.8-9.2c6.4,0.1,12.5,2.2,17.9,6
			c0.1,0.1,0.2,0.1,0.3,0.2l0,0c0.6,0.3,1.6-1.5,2.2-4l3.2-13.3c0.3-1.1-0.6-2.2-1.8-2.2h-27.2c-2.6,0-4.5,0-4.4,0.1l0,0
			c-5.5-0.2-11.7,3.2-15.8,9.2l-25.2,37.3c-1.4,2.1-2.2,4.1-2.7,6.2c-0.3,1.1,0.6,2.3,1.8,2.3L143.3,115.6z"/>
	</g>
	<g>
		<path class="st0" d="M119.1,115.4l-5.9,0.1c-0.6,0-1.1-0.5-1.2-1.1c-0.6-15.6-12.8-28.2-28.4-28.5c-0.3,0-0.6-0.3-0.6-0.6v-6
			c0-0.5,0.4-0.9,0.9-0.9c19.7,0.5,35.6,16.4,36,36C120,115,119.6,115.4,119.1,115.4z"/>
	</g>
	<g>
		<path class="st0" d="M130.5,101.4c-6-20.2-24.6-35.1-46.7-35.4c-0.4,0-0.7,0.3-0.7,0.7v7.1c0,0.4,0.3,0.6,0.6,0.6
			C104.7,74.7,122,92,124,112.5c0.1,0.6,0.9,0.8,1.2,0.2l5-8.8C130.6,103.2,130.7,102.3,130.5,101.4z"/>
	</g>
	<g>
		<path class="st0" d="M139.1,89.7c-9.7-20.9-30.7-35.6-55.2-35.9c-0.4,0-0.8,0.3-0.8,0.8v6.9c0,0.4,0.3,0.7,0.7,0.7
			c22.7,0.3,42,14.9,49.3,35.1c0.2,0.6,1,0.7,1.3,0.2l4.5-7C139.1,90.2,139.2,89.9,139.1,89.7z"/>
	</g>
</g>
</svg>
