<?xml version="1.0" encoding="utf-8"?>
<!-- Generator: Adobe Illustrator 23.0.2, SVG Export Plug-In . SVG Version: 6.00 Build 0)  -->
<svg version="1.1" id="Ebene_1" xmlns="http://www.w3.org/2000/svg" xmlns:xlink="http://www.w3.org/1999/xlink" x="0px" y="0px"
	 viewBox="0 0 286 286" style="enable-background:new 0 0 286 286;" xml:space="preserve">
<style type="text/css">
	.st0{clip-path:url(#SVGID_2_);}
	.st1{clip-path:url(#SVGID_4_);}
	.st2{clip-path:url(#SVGID_6_);fill-rule:evenodd;clip-rule:evenodd;fill:#FFFFFF;}
	.st3{clip-path:url(#SVGID_8_);}
	.st4{clip-path:url(#SVGID_12_);}
	.st5{clip-path:url(#SVGID_14_);}
	.st6{clip-path:url(#SVGID_16_);}
	.st7{clip-path:url(#SVGID_18_);fill:#FEFEFE;}
	.st8{clip-path:url(#SVGID_20_);}
	.st9{clip-path:url(#SVGID_22_);fill:#FEFEFE;}
	.st10{clip-path:url(#SVGID_24_);}
	.st11{clip-path:url(#SVGID_26_);fill:#FEFEFE;}
	.st12{clip-path:url(#SVGID_28_);}
	.st13{clip-path:url(#SVGID_30_);fill:#FEFEFE;}
	.st14{clip-path:url(#SVGID_32_);enable-background:new    ;}
	.st15{clip-path:url(#SVGID_34_);}
	.st16{clip-path:url(#SVGID_36_);}
	.st17{clip-path:url(#SVGID_38_);fill:#FEFEFE;}
	.st18{clip-path:url(#SVGID_40_);}
	.st19{clip-path:url(#SVGID_42_);fill:#FEFEFE;}
	.st20{clip-path:url(#SVGID_44_);}
	.st21{clip-path:url(#SVGID_46_);fill:#FEFEFE;}
	.st22{clip-path:url(#SVGID_48_);}
	.st23{clip-path:url(#SVGID_50_);fill:#FEFEFE;}
	.st24{clip-path:url(#SVGID_52_);}
	.st25{clip-path:url(#SVGID_54_);fill:#FEFEFE;}
	.st26{clip-path:url(#SVGID_56_);}
	.st27{clip-path:url(#SVGID_58_);fill:#FEFEFE;}
	.st28{clip-path:url(#SVGID_60_);}
	.st29{clip-path:url(#SVGID_62_);fill:#FEFEFE;}
	.st30{clip-path:url(#SVGID_64_);}
	.st31{clip-path:url(#SVGID_66_);fill:#FEFEFE;}
	.st32{clip-path:url(#SVGID_68_);}
	.st33{clip-path:url(#SVGID_70_);fill:#FEFEFE;}
	.st34{clip-path:url(#SVGID_72_);}
	.st35{clip-path:url(#SVGID_74_);fill:#FEFEFE;}
	.st36{clip-path:url(#SVGID_76_);}
	.st37{clip-path:url(#SVGID_78_);fill:#FEFEFE;}
	.st38{clip-path:url(#SVGID_80_);}
	.st39{clip-path:url(#SVGID_82_);fill:#FEFEFE;}
	.st40{clip-path:url(#SVGID_84_);}
	.st41{clip-path:url(#SVGID_86_);fill:#FEFEFE;}
	.st42{clip-path:url(#SVGID_88_);}
	.st43{clip-path:url(#SVGID_90_);fill:#FEFEFE;}
	.st44{clip-path:url(#SVGID_92_);}
	.st45{clip-path:url(#SVGID_94_);fill:#FEFEFE;}
	.st46{clip-path:url(#SVGID_96_);}
	.st47{clip-path:url(#SVGID_98_);fill:#FEFEFE;}
	.st48{clip-path:url(#SVGID_100_);}
	.st49{clip-path:url(#SVGID_102_);fill:#FEFEFE;}
	.st50{clip-path:url(#SVGID_104_);}
	.st51{clip-path:url(#SVGID_106_);fill:#FEFEFE;}
	.st52{clip-path:url(#SVGID_108_);}
	.st53{clip-path:url(#SVGID_110_);fill:#FEFEFE;}
	.st54{clip-path:url(#SVGID_112_);}
	.st55{clip-path:url(#SVGID_114_);fill:#FEFEFE;}
	.st56{clip-path:url(#SVGID_116_);}
	.st57{clip-path:url(#SVGID_118_);fill:#FEFEFE;}
	.st58{clip-path:url(#SVGID_120_);}
	.st59{clip-path:url(#SVGID_122_);fill:#FEFEFE;}
	.st60{clip-path:url(#SVGID_124_);}
	.st61{clip-path:url(#SVGID_126_);fill:#FEFEFE;}
	.st62{clip-path:url(#SVGID_128_);}
	.st63{clip-path:url(#SVGID_130_);fill:#FEFEFE;}
	.st64{clip-path:url(#SVGID_132_);}
	.st65{clip-path:url(#SVGID_134_);fill:#FEFEFE;}
	.st66{clip-path:url(#SVGID_136_);}
	.st67{clip-path:url(#SVGID_138_);fill:#FEFEFE;}
	.st68{clip-path:url(#SVGID_140_);}
	.st69{clip-path:url(#SVGID_142_);fill:#FEFEFE;}
	.st70{clip-path:url(#SVGID_144_);}
	.st71{clip-path:url(#SVGID_146_);fill:#FEFEFE;}
	.st72{clip-path:url(#SVGID_148_);}
	.st73{clip-path:url(#SVGID_150_);fill:#FEFEFE;}
	.st74{clip-path:url(#SVGID_152_);}
	.st75{clip-path:url(#SVGID_154_);fill:#FEFEFE;}
	.st76{clip-path:url(#SVGID_156_);}
	.st77{clip-path:url(#SVGID_158_);fill:#FEFEFE;}
	.st78{clip-path:url(#SVGID_160_);}
	.st79{clip-path:url(#SVGID_162_);fill:#FEFEFE;}
	.st80{clip-path:url(#SVGID_164_);}
	.st81{clip-path:url(#SVGID_166_);fill:#FEFEFE;}
	.st82{clip-path:url(#SVGID_168_);}
	.st83{clip-path:url(#SVGID_170_);fill:#FEFEFE;}
	.st84{clip-path:url(#SVGID_172_);}
	.st85{clip-path:url(#SVGID_174_);fill:#FEFEFE;}
	.st86{clip-path:url(#SVGID_176_);}
	.st87{clip-path:url(#SVGID_178_);fill:#FEFEFE;}
	.st88{clip-path:url(#SVGID_180_);}
	.st89{clip-path:url(#SVGID_182_);fill:#FEFEFE;}
	.st90{clip-path:url(#SVGID_184_);}
	.st91{clip-path:url(#SVGID_186_);fill:#FEFEFE;}
	.st92{fill-rule:evenodd;clip-rule:evenodd;fill:none;}
</style>
<g>
	<defs>
		<path id="SVGID_1_" d="M-107,519h-375 M-102,524h-385"/>
	</defs>
	<clipPath id="SVGID_2_">
		<use xlink:href="#SVGID_1_"  style="overflow:visible;"/>
	</clipPath>
	<g class="st0">
		<defs>
			<line id="SVGID_3_" x1="-103" y1="522" x2="-486" y2="522"/>
		</defs>
		<clipPath id="SVGID_4_">
			<use xlink:href="#SVGID_3_"  style="overflow:visible;"/>
		</clipPath>
		<g class="st1">
			<defs>
				<line id="SVGID_5_" x1="-482" y1="519" x2="-107" y2="519"/>
			</defs>
			<clipPath id="SVGID_6_">
				<use xlink:href="#SVGID_5_"  style="overflow:visible;"/>
			</clipPath>
			<rect x="284" y="-293" class="st2" width="375" height="812"/>
		</g>
	</g>
</g>
<g>
	<defs>
		<line id="SVGID_7_" x1="-107" y1="519" x2="-482" y2="519"/>
	</defs>
	<clipPath id="SVGID_8_">
		<use xlink:href="#SVGID_7_"  style="overflow:visible;"/>
	</clipPath>
	<g class="st3">
		<defs>
			<line id="SVGID_9_" x1="-482" y1="519" x2="-107" y2="519"/>
		</defs>
		<clipPath id="SVGID_10_">
			<use xlink:href="#SVGID_9_"  style="overflow:visible;"/>
		</clipPath>
	</g>
</g>
<g>
	<defs>
		<path id="SVGID_11_" d="M-107,479c0,22.1-17.9,40-40,40h-295c-22.1,0-40-17.9-40-40 M-107,519h-375"/>
	</defs>
	<clipPath id="SVGID_12_">
		<use xlink:href="#SVGID_11_"  style="overflow:visible;"/>
	</clipPath>
	<g class="st4">
		<defs>
			<line id="SVGID_13_" x1="-482" y1="519" x2="-107" y2="519"/>
		</defs>
		<clipPath id="SVGID_14_">
			<use xlink:href="#SVGID_13_"  style="overflow:visible;"/>
		</clipPath>
		<line class="st5" x1="-102" y1="524" x2="-487" y2="524"/>
	</g>
</g>
<g>
	<defs>
		<rect id="SVGID_15_" x="2" y="115" width="16.2" height="46.4"/>
	</defs>
	<clipPath id="SVGID_16_">
		<use xlink:href="#SVGID_15_"  style="overflow:visible;"/>
	</clipPath>
	<g class="st6">
		<defs>
			<rect id="SVGID_17_" x="2" y="93.4" width="283" height="74"/>
		</defs>
		<clipPath id="SVGID_18_">
			<use xlink:href="#SVGID_17_"  style="overflow:visible;"/>
		</clipPath>
		<rect x="-3" y="110" class="st7" width="26.2" height="56.4"/>
	</g>
</g>
<g>
	<defs>
		<rect id="SVGID_19_" x="2" y="96.1" width="16.2" height="16"/>
	</defs>
	<clipPath id="SVGID_20_">
		<use xlink:href="#SVGID_19_"  style="overflow:visible;"/>
	</clipPath>
	<g class="st8">
		<defs>
			<rect id="SVGID_21_" x="2" y="93.4" width="283" height="74"/>
		</defs>
		<clipPath id="SVGID_22_">
			<use xlink:href="#SVGID_21_"  style="overflow:visible;"/>
		</clipPath>
		<rect x="-3" y="91.1" class="st9" width="26.2" height="26"/>
	</g>
</g>
<g>
	<defs>
		<path id="SVGID_23_" d="M69.4,133.8c0.5-1.6,0.8-3.3,0.8-5.1c0-9.1-7.5-16.6-16.8-16.6c-9.3,0-16.8,7.4-16.8,16.6
			c0,9.2,7.5,16.6,16.8,16.6c0.9,0,1.7-0.1,2.6-0.2c2.9,4.2,7.5,10.2,10.1,13.6c-3.9,1.6-8.1,2.5-12.7,2.5c-18.2,0-33-14.5-33-32.5
			c0-17.9,14.8-32.5,33-32.5c18.2,0,33,14.5,33,32.5c0,6.2-1.8,12.1-4.9,17C81.2,146.1,72.1,136.3,69.4,133.8"/>
	</defs>
	<clipPath id="SVGID_24_">
		<use xlink:href="#SVGID_23_"  style="overflow:visible;"/>
	</clipPath>
	<g class="st10">
		<defs>
			<rect id="SVGID_25_" x="2" y="93.4" width="283" height="74"/>
		</defs>
		<clipPath id="SVGID_26_">
			<use xlink:href="#SVGID_25_"  style="overflow:visible;"/>
		</clipPath>
		<rect x="15.4" y="91.3" class="st11" width="75.9" height="74.9"/>
	</g>
</g>
<g>
	<defs>
		<path id="SVGID_27_" d="M61.4,129.4c17,17.6,29.5,30.5,32.3,33.2H71.7c0,0-5-9.6-19.2-24.9C57.7,132,61.1,129.7,61.4,129.4"/>
	</defs>
	<clipPath id="SVGID_28_">
		<use xlink:href="#SVGID_27_"  style="overflow:visible;"/>
	</clipPath>
	<g class="st12">
		<defs>
			<rect id="SVGID_29_" x="2" y="93.4" width="283" height="74"/>
		</defs>
		<clipPath id="SVGID_30_">
			<use xlink:href="#SVGID_29_"  style="overflow:visible;"/>
		</clipPath>
		<rect x="47.5" y="124.4" class="st13" width="51.1" height="43.2"/>
	</g>
</g>
<g>
	<defs>
		<rect id="SVGID_31_" x="2" y="93.4" width="283" height="74"/>
	</defs>
	<clipPath id="SVGID_32_">
		<use xlink:href="#SVGID_31_"  style="overflow:visible;"/>
	</clipPath>
	<g class="st14">
		<g>
			<defs>
				<rect id="SVGID_33_" x="102" y="95.4" width="183" height="72"/>
			</defs>
			<clipPath id="SVGID_34_">
				<use xlink:href="#SVGID_33_"  style="overflow:visible;"/>
			</clipPath>
			<g class="st15">
				<defs>
					<rect id="SVGID_35_" x="102.8" y="95.6" width="2.6" height="67.1"/>
				</defs>
				<clipPath id="SVGID_36_">
					<use xlink:href="#SVGID_35_"  style="overflow:visible;"/>
				</clipPath>
				<g class="st16">
					<defs>
						<rect id="SVGID_37_" x="2" y="95.4" width="283" height="72"/>
					</defs>
					<clipPath id="SVGID_38_">
						<use xlink:href="#SVGID_37_"  style="overflow:visible;"/>
					</clipPath>
					<rect x="97.8" y="90.6" class="st17" width="12.6" height="77.1"/>
				</g>
			</g>
			<g class="st15">
				<defs>
					<rect id="SVGID_39_" x="121.4" y="133.9" width="2.2" height="11.9"/>
				</defs>
				<clipPath id="SVGID_40_">
					<use xlink:href="#SVGID_39_"  style="overflow:visible;"/>
				</clipPath>
				<g class="st18">
					<defs>
						<rect id="SVGID_41_" x="2" y="95.4" width="283" height="72"/>
					</defs>
					<clipPath id="SVGID_42_">
						<use xlink:href="#SVGID_41_"  style="overflow:visible;"/>
					</clipPath>
					<rect x="116.4" y="128.9" class="st19" width="12.2" height="21.9"/>
				</g>
			</g>
			<g class="st15">
				<defs>
					<path id="SVGID_43_" d="M132.4,145.8v-5.5c0-0.5-0.1-1-0.4-1.3c-0.3-0.4-0.7-0.5-1.2-0.5c-0.3,0-0.6,0.1-0.8,0.2
						c-0.2,0.1-0.4,0.3-0.6,0.5c-0.2,0.2-0.3,0.4-0.4,0.6c-0.1,0.2-0.1,0.4-0.1,0.6v5.5h-2.1v-8.4h1.9l0.1,1.2
						c0.1-0.2,0.3-0.3,0.4-0.5c0.2-0.2,0.3-0.4,0.6-0.5c0.2-0.2,0.5-0.3,0.7-0.4c0.3-0.1,0.6-0.2,0.9-0.2c0.9,0,1.7,0.3,2.2,0.8
						c0.5,0.5,0.8,1.2,0.8,2.1v5.9H132.4z"/>
				</defs>
				<clipPath id="SVGID_44_">
					<use xlink:href="#SVGID_43_"  style="overflow:visible;"/>
				</clipPath>
				<g class="st20">
					<defs>
						<rect id="SVGID_45_" x="2" y="95.4" width="283" height="72"/>
					</defs>
					<clipPath id="SVGID_46_">
						<use xlink:href="#SVGID_45_"  style="overflow:visible;"/>
					</clipPath>
					<rect x="121.8" y="132" class="st21" width="17.7" height="18.8"/>
				</g>
			</g>
			<g class="st15">
				<defs>
					<path id="SVGID_47_" d="M141.8,145.6c-0.2,0.1-0.4,0.2-0.8,0.3c-0.3,0.1-0.6,0.1-0.9,0.1c-0.5,0-0.9-0.1-1.3-0.2
						c-0.3-0.1-0.6-0.3-0.8-0.5c-0.2-0.2-0.3-0.5-0.4-0.7c-0.1-0.3-0.1-0.6-0.1-1v-4.8h-1.3v-1.4h1.3v-1.7l2.1-0.6v2.3h2v1.4h-2v4.6
						c0,0.4,0.1,0.7,0.2,0.9c0.2,0.2,0.4,0.2,0.6,0.2c0.2,0,0.4,0,0.5-0.1c0.2-0.1,0.3-0.2,0.4-0.2L141.8,145.6z"/>
				</defs>
				<clipPath id="SVGID_48_">
					<use xlink:href="#SVGID_47_"  style="overflow:visible;"/>
				</clipPath>
				<g class="st22">
					<defs>
						<rect id="SVGID_49_" x="2" y="95.4" width="283" height="72"/>
					</defs>
					<clipPath id="SVGID_50_">
						<use xlink:href="#SVGID_49_"  style="overflow:visible;"/>
					</clipPath>
					<rect x="131.2" y="130.1" class="st23" width="15.6" height="20.9"/>
				</g>
			</g>
			<g class="st15">
				<defs>
					<path id="SVGID_51_" d="M145.2,141.9c0,0.5,0.1,1,0.2,1.3c0.1,0.4,0.3,0.6,0.5,0.8c0.2,0.2,0.4,0.4,0.7,0.5
						c0.2,0.1,0.5,0.1,0.7,0.1c0.6,0,1.1-0.1,1.5-0.3c0.4-0.2,0.8-0.4,1.2-0.8l0.6,1.4c-0.3,0.2-0.7,0.5-1.3,0.7
						c-0.6,0.2-1.2,0.3-2,0.3c-0.9,0-1.6-0.1-2.1-0.4c-0.5-0.3-1-0.6-1.3-1c-0.3-0.4-0.6-0.9-0.7-1.5c-0.1-0.6-0.2-1.1-0.2-1.7
						c0-0.5,0.1-1,0.2-1.6c0.1-0.5,0.4-1,0.7-1.4c0.3-0.4,0.7-0.8,1.2-1c0.5-0.3,1.1-0.4,1.8-0.4c0.7,0,1.3,0.1,1.8,0.4
						c0.5,0.2,0.9,0.6,1.2,1c0.3,0.4,0.5,0.8,0.7,1.3c0.1,0.5,0.2,1,0.2,1.5v0.7H145.2z M148.7,140.7c0-0.3,0-0.6-0.1-0.9
						c-0.1-0.3-0.2-0.5-0.3-0.7c-0.1-0.2-0.3-0.4-0.5-0.5c-0.2-0.1-0.5-0.2-0.8-0.2c-0.3,0-0.6,0.1-0.8,0.2
						c-0.2,0.1-0.4,0.3-0.5,0.5c-0.1,0.2-0.3,0.5-0.3,0.7c-0.1,0.3-0.1,0.6-0.1,0.9H148.7z"/>
				</defs>
				<clipPath id="SVGID_52_">
					<use xlink:href="#SVGID_51_"  style="overflow:visible;"/>
				</clipPath>
				<g class="st24">
					<defs>
						<rect id="SVGID_53_" x="2" y="95.4" width="283" height="72"/>
					</defs>
					<clipPath id="SVGID_54_">
						<use xlink:href="#SVGID_53_"  style="overflow:visible;"/>
					</clipPath>
					<rect x="137.9" y="132" class="st25" width="17.8" height="19"/>
				</g>
			</g>
			<g class="st15">
				<defs>
					<path id="SVGID_55_" d="M160.4,145.3c0,0.6-0.1,1.1-0.2,1.6c-0.1,0.5-0.4,1-0.7,1.4c-0.3,0.4-0.8,0.7-1.3,0.9
						c-0.5,0.2-1.2,0.4-2.1,0.4c-0.8,0-1.5-0.1-2-0.3c-0.5-0.2-0.9-0.4-1.2-0.6l0.6-1.4c0.3,0.2,0.6,0.5,1.1,0.7
						c0.4,0.2,1,0.3,1.5,0.3c0.4,0,0.8-0.1,1-0.2c0.3-0.1,0.5-0.3,0.7-0.6c0.2-0.3,0.3-0.6,0.3-0.9c0.1-0.4,0.1-0.8,0.1-1.3v-0.6
						c-0.1,0.1-0.2,0.3-0.4,0.4c-0.1,0.1-0.3,0.2-0.5,0.4c-0.2,0.1-0.4,0.2-0.6,0.3c-0.2,0.1-0.4,0.1-0.7,0.1
						c-0.6,0-1.1-0.1-1.5-0.2c-0.5-0.2-0.9-0.4-1.2-0.8c-0.3-0.4-0.6-0.8-0.8-1.3c-0.2-0.5-0.3-1.2-0.3-2c0-0.7,0.1-1.3,0.3-1.9
						c0.2-0.5,0.5-1,0.8-1.4c0.3-0.4,0.7-0.7,1.1-0.9c0.4-0.2,0.9-0.3,1.3-0.3c0.6,0,1.1,0.1,1.5,0.4c0.4,0.3,0.7,0.6,1,1.2l0.1-1.2
						h0.4h0.6h0.6h0.4V145.3z M158.3,140.5c0-0.2,0-0.4-0.1-0.6c-0.1-0.2-0.2-0.4-0.3-0.7c-0.2-0.2-0.3-0.4-0.6-0.5
						c-0.2-0.1-0.5-0.2-0.8-0.2c-0.4,0-0.7,0.1-0.9,0.3c-0.3,0.2-0.5,0.4-0.6,0.7c-0.2,0.3-0.3,0.6-0.3,1c-0.1,0.4-0.1,0.7-0.1,1.1
						c0,0.9,0.2,1.6,0.5,2.2c0.3,0.5,0.8,0.8,1.5,0.8c0.3,0,0.6-0.1,0.8-0.2c0.2-0.1,0.4-0.3,0.6-0.5c0.2-0.2,0.3-0.4,0.3-0.6
						c0.1-0.2,0.1-0.4,0.1-0.6V140.5z"/>
				</defs>
				<clipPath id="SVGID_56_">
					<use xlink:href="#SVGID_55_"  style="overflow:visible;"/>
				</clipPath>
				<g class="st26">
					<defs>
						<rect id="SVGID_57_" x="2" y="95.4" width="283" height="72"/>
					</defs>
					<clipPath id="SVGID_58_">
						<use xlink:href="#SVGID_57_"  style="overflow:visible;"/>
					</clipPath>
					<rect x="147.3" y="132" class="st27" width="18.1" height="22.5"/>
				</g>
			</g>
			<g class="st15">
				<defs>
					<path id="SVGID_59_" d="M168.6,139.1c-0.1-0.1-0.3-0.2-0.5-0.3c-0.2-0.1-0.5-0.2-0.8-0.2c-0.3,0-0.6,0.1-0.9,0.2
						c-0.3,0.1-0.5,0.3-0.6,0.5c-0.2,0.2-0.3,0.4-0.4,0.6c-0.1,0.2-0.1,0.5-0.1,0.7v5.2h-2.1v-8.4h1.9l0.1,1.2
						c0.1-0.2,0.2-0.3,0.4-0.5c0.1-0.2,0.3-0.4,0.5-0.5c0.2-0.2,0.4-0.3,0.7-0.4c0.3-0.1,0.6-0.2,0.9-0.2c0.3,0,0.7,0.1,1,0.2
						c0.3,0.1,0.5,0.2,0.6,0.3L168.6,139.1z"/>
				</defs>
				<clipPath id="SVGID_60_">
					<use xlink:href="#SVGID_59_"  style="overflow:visible;"/>
				</clipPath>
				<g class="st28">
					<defs>
						<rect id="SVGID_61_" x="2" y="95.4" width="283" height="72"/>
					</defs>
					<clipPath id="SVGID_62_">
						<use xlink:href="#SVGID_61_"  style="overflow:visible;"/>
					</clipPath>
					<rect x="158.1" y="132" class="st29" width="16.1" height="18.8"/>
				</g>
			</g>
			<g class="st15">
				<defs>
					<path id="SVGID_63_" d="M174.8,145.8l-0.1-1.1c-0.3,0.4-0.7,0.7-1.1,0.9c-0.4,0.2-0.9,0.3-1.3,0.3c-0.8,0-1.5-0.2-2-0.6
						c-0.5-0.4-0.8-1-0.8-1.8c0-0.6,0.1-1,0.4-1.4c0.3-0.4,0.7-0.6,1.1-0.9c0.4-0.2,0.9-0.4,1.4-0.5c0.5-0.1,1-0.2,1.5-0.2l0.6,0
						v-0.6c0-0.5-0.1-1-0.4-1.3c-0.2-0.3-0.6-0.5-1-0.5c-0.5,0-1,0.1-1.4,0.3c-0.4,0.2-0.8,0.4-1.1,0.7L170,138
						c0.1-0.1,0.3-0.2,0.5-0.3c0.2-0.1,0.5-0.2,0.7-0.3c0.3-0.1,0.6-0.2,0.9-0.3c0.3-0.1,0.7-0.1,1.1-0.1c1.2,0,2,0.3,2.6,0.8
						c0.5,0.5,0.8,1.3,0.8,2.3v4.2c0,0.1,0,0.3,0,0.5c0,0.3,0,0.6,0.1,0.9H174.8z M174.5,141.9l-0.6,0.1c-0.7,0.1-1.2,0.2-1.6,0.5
						c-0.4,0.3-0.7,0.7-0.7,1.2c0,0.1,0,0.3,0.1,0.4c0,0.1,0.1,0.3,0.2,0.4c0.1,0.1,0.2,0.2,0.4,0.3c0.2,0.1,0.4,0.1,0.6,0.1
						c0.3,0,0.5,0,0.7-0.1c0.2-0.1,0.4-0.2,0.5-0.4c0.1-0.1,0.2-0.3,0.3-0.5c0.1-0.2,0.1-0.3,0.1-0.4V141.9z"/>
				</defs>
				<clipPath id="SVGID_64_">
					<use xlink:href="#SVGID_63_"  style="overflow:visible;"/>
				</clipPath>
				<g class="st30">
					<defs>
						<rect id="SVGID_65_" x="2" y="95.4" width="283" height="72"/>
					</defs>
					<clipPath id="SVGID_66_">
						<use xlink:href="#SVGID_65_"  style="overflow:visible;"/>
					</clipPath>
					<rect x="164.4" y="132" class="st31" width="17.3" height="19"/>
				</g>
			</g>
			<g class="st15">
				<defs>
					<path id="SVGID_67_" d="M183.8,145.6c-0.2,0.1-0.4,0.2-0.8,0.3c-0.3,0.1-0.6,0.1-0.9,0.1c-0.5,0-0.9-0.1-1.3-0.2
						c-0.3-0.1-0.6-0.3-0.8-0.5c-0.2-0.2-0.3-0.5-0.4-0.7c-0.1-0.3-0.1-0.6-0.1-1v-4.8h-1.3v-1.4h1.3v-1.7l2.1-0.6v2.3h2v1.4h-2v4.6
						c0,0.4,0.1,0.7,0.2,0.9c0.2,0.2,0.4,0.2,0.6,0.2c0.2,0,0.4,0,0.5-0.1c0.2-0.1,0.3-0.2,0.4-0.2L183.8,145.6z"/>
				</defs>
				<clipPath id="SVGID_68_">
					<use xlink:href="#SVGID_67_"  style="overflow:visible;"/>
				</clipPath>
				<g class="st32">
					<defs>
						<rect id="SVGID_69_" x="2" y="95.4" width="283" height="72"/>
					</defs>
					<clipPath id="SVGID_70_">
						<use xlink:href="#SVGID_69_"  style="overflow:visible;"/>
					</clipPath>
					<rect x="173.2" y="130.1" class="st33" width="15.6" height="20.9"/>
				</g>
			</g>
			<g class="st15">
				<defs>
					<path id="SVGID_71_" d="M188,134.6c0,0.2,0,0.3-0.1,0.5c-0.1,0.1-0.2,0.3-0.3,0.4c-0.1,0.1-0.2,0.2-0.4,0.3
						c-0.1,0.1-0.3,0.1-0.4,0.1c-0.3,0-0.6-0.1-0.8-0.4c-0.3-0.2-0.4-0.5-0.4-0.9c0-0.2,0-0.3,0.1-0.5c0.1-0.1,0.2-0.3,0.3-0.4
						c0.1-0.1,0.2-0.2,0.4-0.3c0.1-0.1,0.3-0.1,0.5-0.1c0.3,0,0.6,0.1,0.9,0.4C187.8,134,188,134.2,188,134.6z M185.7,145.8h2.1
						v-8.4h-2.1V145.8z"/>
				</defs>
				<clipPath id="SVGID_72_">
					<use xlink:href="#SVGID_71_"  style="overflow:visible;"/>
				</clipPath>
				<g class="st34">
					<defs>
						<rect id="SVGID_73_" x="2" y="95.4" width="283" height="72"/>
					</defs>
					<clipPath id="SVGID_74_">
						<use xlink:href="#SVGID_73_"  style="overflow:visible;"/>
					</clipPath>
					<rect x="180.5" y="128.3" class="st35" width="12.4" height="22.5"/>
				</g>
			</g>
			<g class="st15">
				<defs>
					<path id="SVGID_75_" d="M198.3,141.5c0,0.6-0.1,1.2-0.2,1.7c-0.2,0.6-0.4,1-0.7,1.5c-0.3,0.4-0.8,0.7-1.3,1
						c-0.5,0.2-1.1,0.4-1.9,0.4c-1.4,0-2.4-0.4-3.1-1.2c-0.7-0.8-1-1.9-1-3.4c0-0.6,0.1-1.1,0.2-1.6c0.2-0.5,0.4-1,0.7-1.4
						c0.3-0.4,0.8-0.7,1.3-1c0.5-0.3,1.1-0.4,1.9-0.4c0.7,0,1.3,0.1,1.8,0.3c0.5,0.2,0.9,0.5,1.3,0.9c0.3,0.4,0.6,0.9,0.7,1.4
						C198.2,140.2,198.3,140.8,198.3,141.5 M196.1,141.5c0-0.5,0-0.9-0.1-1.3c-0.1-0.4-0.2-0.7-0.3-1c-0.1-0.3-0.3-0.5-0.6-0.6
						c-0.2-0.2-0.5-0.2-0.9-0.2c-0.3,0-0.6,0.1-0.8,0.2c-0.2,0.2-0.4,0.4-0.6,0.7c-0.2,0.3-0.3,0.6-0.3,1c-0.1,0.4-0.1,0.8-0.1,1.2
						c0,1.1,0.1,1.9,0.4,2.4c0.3,0.6,0.8,0.8,1.4,0.8c0.4,0,0.7-0.1,0.9-0.2c0.2-0.2,0.4-0.4,0.6-0.7c0.1-0.3,0.2-0.6,0.3-1
						C196,142.4,196.1,141.9,196.1,141.5"/>
				</defs>
				<clipPath id="SVGID_76_">
					<use xlink:href="#SVGID_75_"  style="overflow:visible;"/>
				</clipPath>
				<g class="st36">
					<defs>
						<rect id="SVGID_77_" x="2" y="95.4" width="283" height="72"/>
					</defs>
					<clipPath id="SVGID_78_">
						<use xlink:href="#SVGID_77_"  style="overflow:visible;"/>
					</clipPath>
					<rect x="185.1" y="132" class="st37" width="18.2" height="19"/>
				</g>
			</g>
			<g class="st15">
				<defs>
					<path id="SVGID_79_" d="M206,145.8v-5.5c0-0.5-0.1-1-0.4-1.3c-0.3-0.4-0.7-0.5-1.2-0.5c-0.3,0-0.6,0.1-0.8,0.2
						c-0.2,0.1-0.4,0.3-0.6,0.5c-0.2,0.2-0.3,0.4-0.3,0.6c-0.1,0.2-0.1,0.4-0.1,0.6v5.5h-2.1v-8.4h1.9l0.1,1.2
						c0.1-0.2,0.3-0.3,0.4-0.5c0.2-0.2,0.4-0.4,0.6-0.5c0.2-0.2,0.5-0.3,0.7-0.4c0.3-0.1,0.6-0.2,0.9-0.2c0.9,0,1.7,0.3,2.2,0.8
						c0.5,0.5,0.8,1.2,0.8,2.1v5.9H206z"/>
				</defs>
				<clipPath id="SVGID_80_">
					<use xlink:href="#SVGID_79_"  style="overflow:visible;"/>
				</clipPath>
				<g class="st38">
					<defs>
						<rect id="SVGID_81_" x="2" y="95.4" width="283" height="72"/>
					</defs>
					<clipPath id="SVGID_82_">
						<use xlink:href="#SVGID_81_"  style="overflow:visible;"/>
					</clipPath>
					<rect x="195.5" y="132" class="st39" width="17.7" height="18.8"/>
				</g>
			</g>
			<g class="st15">
				<defs>
					<path id="SVGID_83_" d="M221.3,145.8l-0.2-1.1c-0.1,0.2-0.2,0.3-0.3,0.5c-0.1,0.2-0.3,0.3-0.5,0.4c-0.2,0.1-0.4,0.2-0.6,0.3
						c-0.2,0.1-0.5,0.1-0.8,0.1c-0.5,0-1-0.1-1.5-0.3c-0.5-0.2-0.9-0.4-1.2-0.8c-0.3-0.4-0.6-0.8-0.8-1.4c-0.2-0.6-0.3-1.3-0.3-2.1
						c0-0.7,0.1-1.3,0.3-1.9c0.2-0.5,0.5-1,0.8-1.4c0.3-0.4,0.7-0.7,1.1-0.9c0.4-0.2,0.9-0.3,1.3-0.3c0.6,0,1.1,0.1,1.4,0.4
						c0.4,0.3,0.7,0.7,0.9,1.1v-4.7h2.1v11.9H221.3z M221,140.5c0-0.1,0-0.3-0.1-0.6c-0.1-0.2-0.2-0.5-0.3-0.7
						c-0.2-0.2-0.3-0.4-0.6-0.6c-0.2-0.2-0.5-0.2-0.8-0.2c-0.4,0-0.7,0.1-0.9,0.3c-0.3,0.2-0.5,0.4-0.6,0.7c-0.2,0.3-0.3,0.6-0.3,1
						c-0.1,0.4-0.1,0.7-0.1,1.1c0,0.5,0,0.9,0.1,1.3c0.1,0.4,0.2,0.7,0.3,1c0.1,0.3,0.3,0.5,0.6,0.7c0.2,0.2,0.6,0.3,1,0.3
						c0.3,0,0.6-0.1,0.8-0.2c0.2-0.1,0.4-0.3,0.6-0.5c0.1-0.2,0.3-0.4,0.3-0.6c0.1-0.2,0.1-0.4,0.1-0.6V140.5z"/>
				</defs>
				<clipPath id="SVGID_84_">
					<use xlink:href="#SVGID_83_"  style="overflow:visible;"/>
				</clipPath>
				<g class="st40">
					<defs>
						<rect id="SVGID_85_" x="2" y="95.4" width="283" height="72"/>
					</defs>
					<clipPath id="SVGID_86_">
						<use xlink:href="#SVGID_85_"  style="overflow:visible;"/>
					</clipPath>
					<rect x="210.1" y="128.9" class="st41" width="18.1" height="22.1"/>
				</g>
			</g>
			<g class="st15">
				<defs>
					<path id="SVGID_87_" d="M231.4,145.8l-0.1-1.2c-0.1,0.1-0.2,0.3-0.4,0.5c-0.2,0.2-0.3,0.3-0.6,0.5c-0.2,0.1-0.5,0.3-0.7,0.4
						c-0.3,0.1-0.6,0.2-0.9,0.2c-0.9,0-1.7-0.3-2.2-0.8c-0.5-0.5-0.8-1.1-0.8-1.9v-5.9h2.1v5.5c0,0.5,0.1,0.9,0.4,1.2
						c0.2,0.3,0.6,0.5,1.1,0.5c0.3,0,0.5-0.1,0.8-0.2c0.2-0.1,0.4-0.3,0.6-0.4c0.1-0.2,0.3-0.4,0.3-0.6c0.1-0.2,0.1-0.4,0.1-0.5
						v-5.5h2.1v8.4H231.4z"/>
				</defs>
				<clipPath id="SVGID_88_">
					<use xlink:href="#SVGID_87_"  style="overflow:visible;"/>
				</clipPath>
				<g class="st42">
					<defs>
						<rect id="SVGID_89_" x="2" y="95.4" width="283" height="72"/>
					</defs>
					<clipPath id="SVGID_90_">
						<use xlink:href="#SVGID_89_"  style="overflow:visible;"/>
					</clipPath>
					<rect x="220.7" y="132.4" class="st43" width="17.6" height="18.6"/>
				</g>
			</g>
			<g class="st15">
				<defs>
					<path id="SVGID_91_" d="M241.5,139.1c-0.1-0.1-0.3-0.2-0.5-0.3c-0.2-0.1-0.5-0.2-0.8-0.2c-0.3,0-0.6,0.1-0.9,0.2
						c-0.3,0.1-0.5,0.3-0.6,0.5c-0.2,0.2-0.3,0.4-0.4,0.6c-0.1,0.2-0.1,0.5-0.1,0.7v5.2H236v-8.4h1.9l0.1,1.2
						c0.1-0.2,0.2-0.3,0.4-0.5c0.1-0.2,0.3-0.4,0.5-0.5c0.2-0.2,0.4-0.3,0.7-0.4c0.3-0.1,0.6-0.2,0.9-0.2c0.3,0,0.7,0.1,1,0.2
						c0.3,0.1,0.5,0.2,0.6,0.3L241.5,139.1z"/>
				</defs>
				<clipPath id="SVGID_92_">
					<use xlink:href="#SVGID_91_"  style="overflow:visible;"/>
				</clipPath>
				<g class="st44">
					<defs>
						<rect id="SVGID_93_" x="2" y="95.4" width="283" height="72"/>
					</defs>
					<clipPath id="SVGID_94_">
						<use xlink:href="#SVGID_93_"  style="overflow:visible;"/>
					</clipPath>
					<rect x="231" y="132" class="st45" width="16.1" height="18.8"/>
				</g>
			</g>
			<g class="st15">
				<defs>
					<path id="SVGID_95_" d="M249.9,145.1c-0.3,0.2-0.7,0.5-1.1,0.6c-0.5,0.2-1.1,0.3-1.9,0.3c-0.7,0-1.4-0.1-2-0.3
						c-0.6-0.2-1-0.5-1.4-0.9c-0.4-0.4-0.6-0.9-0.8-1.4c-0.2-0.6-0.3-1.2-0.3-1.8c0-0.6,0.1-1.1,0.3-1.6c0.2-0.5,0.5-1,0.9-1.4
						c0.4-0.4,0.8-0.7,1.4-1c0.6-0.3,1.2-0.4,1.9-0.4c0.7,0,1.3,0.1,1.8,0.3c0.5,0.2,0.9,0.4,1.1,0.6l-0.6,1.5
						c-0.1-0.1-0.3-0.2-0.4-0.4c-0.2-0.1-0.3-0.2-0.5-0.3c-0.2-0.1-0.4-0.2-0.6-0.2c-0.2,0-0.5-0.1-0.8-0.1c-0.3,0-0.6,0.1-0.9,0.2
						c-0.3,0.1-0.5,0.4-0.7,0.6c-0.2,0.3-0.4,0.6-0.5,1c-0.1,0.4-0.2,0.8-0.2,1.3c0,1,0.2,1.7,0.6,2.3c0.4,0.6,1,0.9,1.7,0.9
						c0.3,0,0.5,0,0.8-0.1c0.2-0.1,0.4-0.1,0.6-0.2c0.2-0.1,0.4-0.2,0.5-0.3c0.2-0.1,0.3-0.3,0.5-0.4L249.9,145.1z"/>
				</defs>
				<clipPath id="SVGID_96_">
					<use xlink:href="#SVGID_95_"  style="overflow:visible;"/>
				</clipPath>
				<g class="st46">
					<defs>
						<rect id="SVGID_97_" x="2" y="95.4" width="283" height="72"/>
					</defs>
					<clipPath id="SVGID_98_">
						<use xlink:href="#SVGID_97_"  style="overflow:visible;"/>
					</clipPath>
					<rect x="237.5" y="132" class="st47" width="17.5" height="19"/>
				</g>
			</g>
			<g class="st15">
				<defs>
					<path id="SVGID_99_" d="M257.4,145.8v-5.5c0-0.5-0.1-1-0.4-1.3c-0.3-0.4-0.7-0.5-1.2-0.5c-0.3,0-0.6,0.1-0.8,0.2
						c-0.2,0.1-0.4,0.3-0.6,0.5c-0.2,0.2-0.3,0.4-0.4,0.6c-0.1,0.2-0.1,0.4-0.1,0.6v5.5h-2.1v-11.9h2.1v4.5c0.1-0.1,0.2-0.3,0.3-0.4
						c0.1-0.2,0.3-0.3,0.5-0.5c0.2-0.1,0.5-0.3,0.7-0.4c0.3-0.1,0.6-0.2,0.9-0.2c0.9,0,1.7,0.3,2.2,0.8c0.5,0.5,0.8,1.2,0.8,2.1v5.9
						H257.4z"/>
				</defs>
				<clipPath id="SVGID_100_">
					<use xlink:href="#SVGID_99_"  style="overflow:visible;"/>
				</clipPath>
				<g class="st48">
					<defs>
						<rect id="SVGID_101_" x="2" y="95.4" width="283" height="72"/>
					</defs>
					<clipPath id="SVGID_102_">
						<use xlink:href="#SVGID_101_"  style="overflow:visible;"/>
					</clipPath>
					<rect x="246.9" y="128.9" class="st49" width="17.7" height="21.9"/>
				</g>
			</g>
			<g class="st15">
				<defs>
					<path id="SVGID_103_" d="M130.8,157.1c0,0.9-0.1,1.7-0.3,2.4c-0.2,0.7-0.5,1.3-0.9,1.8c-0.4,0.5-0.8,0.9-1.3,1.2
						c-0.5,0.3-1.1,0.5-1.7,0.6l0.1,0.2c0.2,0.3,0.4,0.5,0.6,0.6c0.3,0.1,0.6,0.1,1,0.1h2v1.6h-2c-0.6,0-1.1,0-1.5-0.1
						c-0.4-0.1-0.8-0.2-1.1-0.4c-0.3-0.2-0.6-0.4-0.8-0.7c-0.2-0.3-0.4-0.6-0.6-0.9l-0.2-0.4c-0.7-0.2-1.3-0.4-1.8-0.8
						c-0.5-0.4-0.9-0.8-1.2-1.3c-0.3-0.5-0.6-1.1-0.7-1.8c-0.2-0.7-0.2-1.4-0.2-2.2c0-1,0.2-1.9,0.4-2.7c0.3-0.8,0.7-1.4,1.2-1.9
						c0.5-0.5,1.1-0.9,1.7-1.1c0.6-0.2,1.3-0.4,2-0.4c0.7,0,1.4,0.1,2.1,0.3c0.6,0.2,1.2,0.6,1.7,1.1c0.5,0.5,0.9,1.1,1.1,1.9
						C130.7,155.1,130.8,156,130.8,157.1 M128.5,157.1c0-0.6,0-1.2-0.1-1.8c-0.1-0.5-0.2-1-0.5-1.4c-0.2-0.4-0.5-0.7-0.9-1
						c-0.4-0.2-0.9-0.3-1.5-0.3c-0.6,0-1,0.1-1.4,0.4c-0.4,0.3-0.7,0.6-0.9,1c-0.2,0.4-0.4,0.9-0.5,1.4c-0.1,0.5-0.1,1.1-0.1,1.6
						c0,0.6,0,1.2,0.1,1.7c0.1,0.6,0.2,1.1,0.4,1.5c0.2,0.4,0.5,0.8,0.9,1c0.4,0.3,0.9,0.4,1.5,0.4c0.6,0,1.1-0.1,1.4-0.4
						c0.4-0.2,0.7-0.6,0.9-1c0.2-0.4,0.4-0.9,0.5-1.5C128.4,158.4,128.5,157.8,128.5,157.1"/>
				</defs>
				<clipPath id="SVGID_104_">
					<use xlink:href="#SVGID_103_"  style="overflow:visible;"/>
				</clipPath>
				<g class="st50">
					<defs>
						<rect id="SVGID_105_" x="2" y="95.4" width="283" height="72"/>
					</defs>
					<clipPath id="SVGID_106_">
						<use xlink:href="#SVGID_105_"  style="overflow:visible;"/>
					</clipPath>
					<rect x="115.2" y="146" class="st51" width="20.6" height="24.8"/>
				</g>
			</g>
			<g class="st15">
				<defs>
					<path id="SVGID_107_" d="M138.8,163.1l-0.1-1.2c-0.1,0.1-0.2,0.3-0.4,0.4c-0.2,0.2-0.3,0.3-0.6,0.5c-0.2,0.1-0.5,0.3-0.7,0.4
						c-0.3,0.1-0.6,0.1-0.9,0.1c-0.9,0-1.7-0.3-2.2-0.8c-0.5-0.5-0.8-1.2-0.8-1.9v-5.9h2.1v5.5c0,0.5,0.1,0.9,0.4,1.2
						c0.2,0.3,0.6,0.5,1.1,0.5c0.3,0,0.5-0.1,0.8-0.2c0.2-0.1,0.4-0.3,0.6-0.5c0.2-0.2,0.3-0.4,0.3-0.6c0.1-0.2,0.1-0.4,0.1-0.5
						v-5.5h2.1v8.4H138.8z"/>
				</defs>
				<clipPath id="SVGID_108_">
					<use xlink:href="#SVGID_107_"  style="overflow:visible;"/>
				</clipPath>
				<g class="st52">
					<defs>
						<rect id="SVGID_109_" x="2" y="95.4" width="283" height="72"/>
					</defs>
					<clipPath id="SVGID_110_">
						<use xlink:href="#SVGID_109_"  style="overflow:visible;"/>
					</clipPath>
					<rect x="128.2" y="149.7" class="st53" width="17.6" height="18.6"/>
				</g>
			</g>
			<g class="st15">
				<defs>
					<path id="SVGID_111_" d="M148.1,163.1l-0.1-1.1c-0.3,0.4-0.7,0.7-1.1,0.9c-0.4,0.2-0.8,0.3-1.3,0.3c-0.8,0-1.5-0.2-2-0.6
						c-0.5-0.4-0.8-1-0.8-1.8c0-0.6,0.1-1,0.4-1.4c0.3-0.4,0.7-0.6,1.1-0.9c0.4-0.2,0.9-0.4,1.4-0.5c0.5-0.1,1-0.2,1.5-0.2l0.6-0.1
						v-0.6c0-0.5-0.1-1-0.4-1.3c-0.2-0.3-0.6-0.5-1-0.5c-0.5,0-1,0.1-1.4,0.3c-0.4,0.2-0.8,0.4-1.1,0.7l-0.6-1.3
						c0.1-0.1,0.3-0.2,0.5-0.3c0.2-0.1,0.5-0.2,0.7-0.3c0.3-0.1,0.6-0.2,0.9-0.3c0.3-0.1,0.7-0.1,1.1-0.1c1.2,0,2,0.3,2.6,0.8
						c0.5,0.5,0.8,1.3,0.8,2.3v4.2c0,0.1,0,0.3,0,0.5c0,0.3,0,0.6,0.1,0.9H148.1z M147.8,159.2l-0.6,0c-0.7,0.1-1.2,0.2-1.6,0.5
						c-0.4,0.3-0.6,0.7-0.6,1.2c0,0.1,0,0.3,0.1,0.4c0,0.1,0.1,0.3,0.2,0.4c0.1,0.1,0.2,0.2,0.4,0.3c0.2,0.1,0.4,0.1,0.6,0.1
						c0.3,0,0.5,0,0.7-0.1c0.2-0.1,0.4-0.2,0.5-0.4c0.1-0.1,0.2-0.3,0.3-0.5c0.1-0.2,0.1-0.3,0.1-0.5V159.2z"/>
				</defs>
				<clipPath id="SVGID_112_">
					<use xlink:href="#SVGID_111_"  style="overflow:visible;"/>
				</clipPath>
				<g class="st54">
					<defs>
						<rect id="SVGID_113_" x="2" y="95.4" width="283" height="72"/>
					</defs>
					<clipPath id="SVGID_114_">
						<use xlink:href="#SVGID_113_"  style="overflow:visible;"/>
					</clipPath>
					<rect x="137.7" y="149.4" class="st55" width="17.3" height="19"/>
				</g>
			</g>
			<g class="st15">
				<defs>
					<rect id="SVGID_115_" x="152.6" y="151.3" width="2.1" height="11.9"/>
				</defs>
				<clipPath id="SVGID_116_">
					<use xlink:href="#SVGID_115_"  style="overflow:visible;"/>
				</clipPath>
				<g class="st56">
					<defs>
						<rect id="SVGID_117_" x="2" y="95.4" width="283" height="72"/>
					</defs>
					<clipPath id="SVGID_118_">
						<use xlink:href="#SVGID_117_"  style="overflow:visible;"/>
					</clipPath>
					<rect x="147.6" y="146.3" class="st57" width="12.1" height="21.9"/>
				</g>
			</g>
			<g class="st15">
				<defs>
					<path id="SVGID_119_" d="M160,151.9c0,0.2,0,0.3-0.1,0.5c-0.1,0.1-0.2,0.3-0.3,0.4c-0.1,0.1-0.2,0.2-0.4,0.3
						c-0.1,0.1-0.3,0.1-0.4,0.1c-0.3,0-0.6-0.1-0.8-0.4c-0.3-0.2-0.4-0.5-0.4-0.9c0-0.2,0-0.3,0.1-0.5c0.1-0.1,0.2-0.3,0.3-0.4
						c0.1-0.1,0.2-0.2,0.4-0.3c0.1-0.1,0.3-0.1,0.5-0.1c0.3,0,0.6,0.1,0.9,0.4C159.9,151.3,160,151.6,160,151.9z M157.7,163.1h2.1
						v-8.4h-2.1V163.1z"/>
				</defs>
				<clipPath id="SVGID_120_">
					<use xlink:href="#SVGID_119_"  style="overflow:visible;"/>
				</clipPath>
				<g class="st58">
					<defs>
						<rect id="SVGID_121_" x="2" y="95.4" width="283" height="72"/>
					</defs>
					<clipPath id="SVGID_122_">
						<use xlink:href="#SVGID_121_"  style="overflow:visible;"/>
					</clipPath>
					<rect x="152.5" y="145.7" class="st59" width="12.5" height="22.5"/>
				</g>
			</g>
			<g class="st15">
				<defs>
					<path id="SVGID_123_" d="M168.5,163.1v-7h-3.3v7h-2.1v-7h-1.4v-1.4h1.4v-0.6c0-0.6,0.1-1,0.4-1.4c0.2-0.4,0.6-0.7,1-1
						c0.4-0.2,0.8-0.4,1.3-0.5c0.5-0.1,1-0.2,1.5-0.2c0.8,0,1.5,0.1,2,0.2c0.5,0.1,0.9,0.3,1.2,0.4l-0.7,1.5
						c-0.3-0.2-0.6-0.3-1.1-0.5c-0.4-0.1-0.9-0.2-1.5-0.2c-0.7,0-1.1,0.1-1.5,0.4c-0.3,0.3-0.5,0.7-0.5,1.2v0.6h5.4v8.4H168.5z"/>
				</defs>
				<clipPath id="SVGID_124_">
					<use xlink:href="#SVGID_123_"  style="overflow:visible;"/>
				</clipPath>
				<g class="st60">
					<defs>
						<rect id="SVGID_125_" x="2" y="95.4" width="283" height="72"/>
					</defs>
					<clipPath id="SVGID_126_">
						<use xlink:href="#SVGID_125_"  style="overflow:visible;"/>
					</clipPath>
					<rect x="156.7" y="146.1" class="st61" width="19" height="22.1"/>
				</g>
			</g>
			<g class="st15">
				<defs>
					<polygon id="SVGID_127_" points="172.8,163.1 172.8,162.2 177.6,156.3 173.1,156.3 173.1,154.7 180.6,154.7 180.6,155.7 
						175.8,161.6 180.7,161.6 180.7,163.1 					"/>
				</defs>
				<clipPath id="SVGID_128_">
					<use xlink:href="#SVGID_127_"  style="overflow:visible;"/>
				</clipPath>
				<g class="st62">
					<defs>
						<rect id="SVGID_129_" x="2" y="95.4" width="283" height="72"/>
					</defs>
					<clipPath id="SVGID_130_">
						<use xlink:href="#SVGID_129_"  style="overflow:visible;"/>
					</clipPath>
					<rect x="167.8" y="149.7" class="st63" width="17.8" height="18.4"/>
				</g>
			</g>
			<g class="st15">
				<defs>
					<path id="SVGID_131_" d="M185.3,151.9c0,0.2,0,0.3-0.1,0.5c-0.1,0.1-0.2,0.3-0.3,0.4c-0.1,0.1-0.2,0.2-0.4,0.3
						c-0.1,0.1-0.3,0.1-0.4,0.1c-0.3,0-0.6-0.1-0.8-0.4c-0.3-0.2-0.4-0.5-0.4-0.9c0-0.2,0-0.3,0.1-0.5c0.1-0.1,0.2-0.3,0.3-0.4
						c0.1-0.1,0.2-0.2,0.4-0.3c0.1-0.1,0.3-0.1,0.5-0.1c0.3,0,0.6,0.1,0.8,0.4C185.1,151.3,185.3,151.6,185.3,151.9z M183,163.1h2.1
						v-8.4H183V163.1z"/>
				</defs>
				<clipPath id="SVGID_132_">
					<use xlink:href="#SVGID_131_"  style="overflow:visible;"/>
				</clipPath>
				<g class="st64">
					<defs>
						<rect id="SVGID_133_" x="2" y="95.4" width="283" height="72"/>
					</defs>
					<clipPath id="SVGID_134_">
						<use xlink:href="#SVGID_133_"  style="overflow:visible;"/>
					</clipPath>
					<rect x="177.8" y="145.7" class="st65" width="12.4" height="22.5"/>
				</g>
			</g>
			<g class="st15">
				<defs>
					<path id="SVGID_135_" d="M189.6,159.2c0,0.5,0.1,1,0.2,1.3c0.1,0.4,0.3,0.6,0.5,0.8c0.2,0.2,0.4,0.4,0.7,0.5
						c0.2,0.1,0.5,0.1,0.7,0.1c0.6,0,1.1-0.1,1.5-0.3c0.4-0.2,0.8-0.4,1.2-0.8l0.6,1.4c-0.3,0.2-0.7,0.5-1.3,0.7
						c-0.6,0.2-1.2,0.3-2,0.3c-0.9,0-1.6-0.1-2.1-0.4c-0.6-0.3-1-0.6-1.3-1c-0.3-0.4-0.5-0.9-0.7-1.5c-0.1-0.6-0.2-1.1-0.2-1.7
						c0-0.5,0.1-1,0.2-1.6c0.1-0.5,0.4-1,0.7-1.4c0.3-0.4,0.7-0.8,1.2-1c0.5-0.3,1.1-0.4,1.8-0.4c0.7,0,1.3,0.1,1.8,0.4
						c0.5,0.2,0.9,0.6,1.2,1c0.3,0.4,0.5,0.8,0.7,1.3c0.1,0.5,0.2,1,0.2,1.5v0.7H189.6z M193.1,158c0-0.3,0-0.6-0.1-0.9
						c-0.1-0.3-0.2-0.5-0.3-0.7c-0.1-0.2-0.3-0.4-0.6-0.5c-0.2-0.1-0.5-0.2-0.8-0.2c-0.3,0-0.6,0.1-0.8,0.2
						c-0.2,0.1-0.4,0.3-0.5,0.5c-0.1,0.2-0.3,0.5-0.3,0.7c-0.1,0.3-0.1,0.6-0.1,0.9H193.1z"/>
				</defs>
				<clipPath id="SVGID_136_">
					<use xlink:href="#SVGID_135_"  style="overflow:visible;"/>
				</clipPath>
				<g class="st66">
					<defs>
						<rect id="SVGID_137_" x="2" y="95.4" width="283" height="72"/>
					</defs>
					<clipPath id="SVGID_138_">
						<use xlink:href="#SVGID_137_"  style="overflow:visible;"/>
					</clipPath>
					<rect x="182.4" y="149.4" class="st67" width="17.8" height="19"/>
				</g>
			</g>
			<g class="st15">
				<defs>
					<path id="SVGID_139_" d="M202.9,156.4c-0.1-0.1-0.3-0.2-0.5-0.3c-0.2-0.1-0.5-0.2-0.8-0.2c-0.3,0-0.6,0.1-0.9,0.2
						c-0.3,0.1-0.5,0.3-0.6,0.5c-0.2,0.2-0.3,0.4-0.4,0.6c-0.1,0.2-0.1,0.5-0.1,0.7v5.2h-2.1v-8.4h1.9l0.1,1.2
						c0.1-0.2,0.2-0.3,0.4-0.5c0.1-0.2,0.3-0.4,0.5-0.5c0.2-0.2,0.4-0.3,0.7-0.4c0.3-0.1,0.6-0.2,0.9-0.2c0.3,0,0.7,0.1,1,0.2
						c0.3,0.1,0.5,0.2,0.6,0.3L202.9,156.4z"/>
				</defs>
				<clipPath id="SVGID_140_">
					<use xlink:href="#SVGID_139_"  style="overflow:visible;"/>
				</clipPath>
				<g class="st68">
					<defs>
						<rect id="SVGID_141_" x="2" y="95.4" width="283" height="72"/>
					</defs>
					<clipPath id="SVGID_142_">
						<use xlink:href="#SVGID_141_"  style="overflow:visible;"/>
					</clipPath>
					<rect x="192.4" y="149.4" class="st69" width="16.1" height="18.8"/>
				</g>
			</g>
			<g class="st15">
				<defs>
					<path id="SVGID_143_" d="M210.4,163.1l-0.1-1.2c-0.1,0.1-0.2,0.3-0.4,0.4c-0.2,0.2-0.3,0.3-0.6,0.5c-0.2,0.1-0.5,0.3-0.7,0.4
						c-0.3,0.1-0.6,0.1-0.9,0.1c-0.9,0-1.7-0.3-2.2-0.8c-0.5-0.5-0.8-1.2-0.8-1.9v-5.9h2.1v5.5c0,0.5,0.1,0.9,0.4,1.2
						c0.2,0.3,0.6,0.5,1.1,0.5c0.3,0,0.5-0.1,0.8-0.2c0.2-0.1,0.4-0.3,0.6-0.5c0.1-0.2,0.3-0.4,0.3-0.6c0.1-0.2,0.1-0.4,0.1-0.5
						v-5.5h2.1v8.4H210.4z"/>
				</defs>
				<clipPath id="SVGID_144_">
					<use xlink:href="#SVGID_143_"  style="overflow:visible;"/>
				</clipPath>
				<g class="st70">
					<defs>
						<rect id="SVGID_145_" x="2" y="95.4" width="283" height="72"/>
					</defs>
					<clipPath id="SVGID_146_">
						<use xlink:href="#SVGID_145_"  style="overflow:visible;"/>
					</clipPath>
					<rect x="199.7" y="149.7" class="st71" width="17.6" height="18.6"/>
				</g>
			</g>
			<g class="st15">
				<defs>
					<path id="SVGID_147_" d="M220.5,163.1v-5.5c0-0.5-0.1-1-0.4-1.3c-0.3-0.4-0.7-0.5-1.2-0.5c-0.3,0-0.6,0.1-0.8,0.2
						c-0.2,0.1-0.4,0.3-0.6,0.5c-0.2,0.2-0.3,0.4-0.4,0.6c-0.1,0.2-0.1,0.4-0.1,0.6v5.5H215v-8.4h1.9l0.1,1.2
						c0.1-0.2,0.3-0.3,0.4-0.5c0.2-0.2,0.3-0.4,0.6-0.5c0.2-0.2,0.5-0.3,0.7-0.4c0.3-0.1,0.6-0.2,0.9-0.2c0.9,0,1.7,0.3,2.2,0.8
						c0.5,0.5,0.8,1.2,0.8,2.1v5.9H220.5z"/>
				</defs>
				<clipPath id="SVGID_148_">
					<use xlink:href="#SVGID_147_"  style="overflow:visible;"/>
				</clipPath>
				<g class="st72">
					<defs>
						<rect id="SVGID_149_" x="2" y="95.4" width="283" height="72"/>
					</defs>
					<clipPath id="SVGID_150_">
						<use xlink:href="#SVGID_149_"  style="overflow:visible;"/>
					</clipPath>
					<rect x="210" y="149.4" class="st73" width="17.7" height="18.8"/>
				</g>
			</g>
			<g class="st15">
				<defs>
					<path id="SVGID_151_" d="M232.8,162.7c0,0.6-0.1,1.1-0.2,1.6c-0.1,0.5-0.4,1-0.7,1.4c-0.3,0.4-0.8,0.7-1.3,0.9
						c-0.5,0.2-1.2,0.4-2.1,0.4c-0.8,0-1.5-0.1-2-0.3c-0.5-0.2-0.9-0.4-1.2-0.6l0.6-1.4c0.3,0.2,0.6,0.5,1.1,0.7
						c0.4,0.2,1,0.3,1.5,0.3c0.4,0,0.8-0.1,1-0.2c0.3-0.1,0.5-0.3,0.7-0.6c0.2-0.3,0.3-0.6,0.3-0.9c0.1-0.4,0.1-0.8,0.1-1.3V162
						c-0.1,0.1-0.2,0.3-0.4,0.4c-0.1,0.1-0.3,0.2-0.5,0.4c-0.2,0.1-0.4,0.2-0.6,0.3c-0.2,0.1-0.4,0.1-0.7,0.1
						c-0.5,0-1.1-0.1-1.5-0.2c-0.5-0.2-0.9-0.4-1.2-0.8c-0.3-0.3-0.6-0.8-0.8-1.3c-0.2-0.5-0.3-1.2-0.3-2c0-0.7,0.1-1.3,0.3-1.9
						c0.2-0.6,0.5-1,0.8-1.4c0.3-0.4,0.7-0.7,1.1-0.9c0.4-0.2,0.9-0.3,1.3-0.3c0.6,0,1.1,0.1,1.5,0.4c0.4,0.3,0.7,0.6,1,1.2l0.1-1.2
						h0.4h0.6h0.6h0.4V162.7z M230.8,157.8c0-0.2,0-0.4-0.1-0.6c-0.1-0.2-0.2-0.4-0.3-0.7c-0.2-0.2-0.3-0.4-0.6-0.5
						c-0.2-0.1-0.5-0.2-0.8-0.2c-0.4,0-0.7,0.1-0.9,0.3c-0.3,0.2-0.5,0.4-0.6,0.7c-0.2,0.3-0.3,0.6-0.3,1c-0.1,0.4-0.1,0.7-0.1,1.1
						c0,0.9,0.2,1.6,0.5,2.2c0.3,0.5,0.8,0.8,1.5,0.8c0.3,0,0.6-0.1,0.8-0.2c0.2-0.1,0.4-0.3,0.6-0.5c0.1-0.2,0.3-0.4,0.3-0.6
						c0.1-0.2,0.1-0.4,0.1-0.6V157.8z"/>
				</defs>
				<clipPath id="SVGID_152_">
					<use xlink:href="#SVGID_151_"  style="overflow:visible;"/>
				</clipPath>
				<g class="st74">
					<defs>
						<rect id="SVGID_153_" x="2" y="95.4" width="283" height="72"/>
					</defs>
					<clipPath id="SVGID_154_">
						<use xlink:href="#SVGID_153_"  style="overflow:visible;"/>
					</clipPath>
					<rect x="219.8" y="149.4" class="st75" width="18.1" height="22.5"/>
				</g>
			</g>
			<g class="st15">
				<defs>
					<polygon id="SVGID_155_" points="136.6,120.8 126.1,102.3 126.1,120.8 121.4,120.8 121.4,95.9 127.6,95.9 138.1,114.5 
						138.1,95.9 142.8,95.9 142.8,120.8 					"/>
				</defs>
				<clipPath id="SVGID_156_">
					<use xlink:href="#SVGID_155_"  style="overflow:visible;"/>
				</clipPath>
				<g class="st76">
					<defs>
						<rect id="SVGID_157_" x="2" y="95.4" width="283" height="72"/>
					</defs>
					<clipPath id="SVGID_158_">
						<use xlink:href="#SVGID_157_"  style="overflow:visible;"/>
					</clipPath>
					<rect x="116.4" y="90.9" class="st77" width="31.3" height="34.9"/>
				</g>
			</g>
			<g class="st15">
				<defs>
					<path id="SVGID_159_" d="M152.6,112.6c0,1.1,0.2,2,0.5,2.7c0.3,0.7,0.6,1.3,1,1.8c0.4,0.4,0.9,0.8,1.4,1c0.5,0.2,1,0.3,1.5,0.3
						c1.2,0,2.3-0.2,3.2-0.6c0.9-0.4,1.7-0.9,2.5-1.6l1.2,2.9c-0.6,0.5-1.5,1-2.7,1.4c-1.2,0.4-2.6,0.6-4.3,0.6
						c-1.8,0-3.3-0.3-4.4-0.8c-1.2-0.5-2.1-1.3-2.7-2.2c-0.7-0.9-1.1-1.9-1.4-3.1c-0.3-1.2-0.4-2.3-0.4-3.5c0-1.1,0.2-2.2,0.5-3.3
						c0.3-1.1,0.8-2.1,1.5-3c0.7-0.9,1.5-1.6,2.6-2.2c1.1-0.6,2.3-0.8,3.8-0.8c1.5,0,2.7,0.3,3.7,0.8c1,0.5,1.9,1.2,2.5,2
						c0.6,0.8,1.1,1.8,1.4,2.8c0.3,1,0.4,2.1,0.4,3.1v1.6H152.6z M160,110c0-0.7-0.1-1.3-0.2-1.9c-0.1-0.6-0.4-1.1-0.7-1.6
						c-0.3-0.5-0.7-0.8-1.2-1c-0.5-0.3-1-0.4-1.6-0.4s-1.2,0.1-1.6,0.4c-0.5,0.3-0.8,0.6-1.1,1c-0.3,0.4-0.5,1-0.7,1.5
						c-0.2,0.6-0.2,1.2-0.2,1.9H160z"/>
				</defs>
				<clipPath id="SVGID_160_">
					<use xlink:href="#SVGID_159_"  style="overflow:visible;"/>
				</clipPath>
				<g class="st78">
					<defs>
						<rect id="SVGID_161_" x="2" y="95.4" width="283" height="72"/>
					</defs>
					<clipPath id="SVGID_162_">
						<use xlink:href="#SVGID_161_"  style="overflow:visible;"/>
					</clipPath>
					<rect x="143" y="97.4" class="st79" width="26.4" height="28.8"/>
				</g>
			</g>
			<g class="st15">
				<defs>
					<path id="SVGID_163_" d="M178.5,120.3c-0.4,0.2-0.9,0.4-1.6,0.6c-0.7,0.2-1.3,0.3-2,0.3c-1.1,0-2-0.1-2.7-0.4
						c-0.7-0.2-1.3-0.6-1.7-1c-0.4-0.4-0.7-0.9-0.8-1.6c-0.2-0.6-0.2-1.3-0.2-2.1v-10h-2.8v-3h2.8v-3.6l4.5-1.2v4.9h4.2v3H174v9.6
						c0,0.9,0.2,1.5,0.5,1.8c0.3,0.3,0.8,0.5,1.3,0.5c0.4,0,0.8-0.1,1.1-0.3c0.3-0.2,0.6-0.3,0.9-0.5L178.5,120.3z"/>
				</defs>
				<clipPath id="SVGID_164_">
					<use xlink:href="#SVGID_163_"  style="overflow:visible;"/>
				</clipPath>
				<g class="st80">
					<defs>
						<rect id="SVGID_165_" x="2" y="95.4" width="283" height="72"/>
					</defs>
					<clipPath id="SVGID_166_">
						<use xlink:href="#SVGID_165_"  style="overflow:visible;"/>
					</clipPath>
					<rect x="161.7" y="93.3" class="st81" width="21.8" height="32.9"/>
				</g>
			</g>
			<g class="st15">
				<defs>
					<polygon id="SVGID_167_" points="181.2,120.8 181.2,118.8 191.2,106.4 181.7,106.4 181.7,103.2 197.4,103.2 197.4,105.2 
						187.4,117.7 197.6,117.7 197.6,120.8 					"/>
				</defs>
				<clipPath id="SVGID_168_">
					<use xlink:href="#SVGID_167_"  style="overflow:visible;"/>
				</clipPath>
				<g class="st82">
					<defs>
						<rect id="SVGID_169_" x="2" y="95.4" width="283" height="72"/>
					</defs>
					<clipPath id="SVGID_170_">
						<use xlink:href="#SVGID_169_"  style="overflow:visible;"/>
					</clipPath>
					<rect x="176.2" y="98.2" class="st83" width="26.4" height="27.6"/>
				</g>
			</g>
			<g class="st15">
				<defs>
					<polygon id="SVGID_171_" points="222.5,120.8 217.8,120.8 214.3,109 210.7,120.8 206,120.8 200.2,103.2 205.2,103.2 
						208.8,116.1 212,104.9 216.6,104.9 220,116.1 223.5,103.2 228.3,103.2 					"/>
				</defs>
				<clipPath id="SVGID_172_">
					<use xlink:href="#SVGID_171_"  style="overflow:visible;"/>
				</clipPath>
				<g class="st84">
					<defs>
						<rect id="SVGID_173_" x="2" y="95.4" width="283" height="72"/>
					</defs>
					<clipPath id="SVGID_174_">
						<use xlink:href="#SVGID_173_"  style="overflow:visible;"/>
					</clipPath>
					<rect x="195.2" y="98.2" class="st85" width="38.1" height="27.6"/>
				</g>
			</g>
			<g class="st15">
				<defs>
					<path id="SVGID_175_" d="M235.2,112.6c0.1,1.1,0.2,2,0.5,2.7c0.3,0.7,0.6,1.3,1,1.8c0.4,0.4,0.9,0.8,1.4,1
						c0.5,0.2,1,0.3,1.5,0.3c1.2,0,2.3-0.2,3.2-0.6c0.9-0.4,1.7-0.9,2.5-1.6l1.2,2.9c-0.6,0.5-1.5,1-2.7,1.4
						c-1.2,0.4-2.6,0.6-4.3,0.6c-1.8,0-3.3-0.3-4.4-0.8c-1.2-0.5-2.1-1.3-2.7-2.2c-0.7-0.9-1.1-1.9-1.4-3.1
						c-0.3-1.2-0.4-2.3-0.4-3.5c0-1.1,0.2-2.2,0.5-3.3c0.3-1.1,0.8-2.1,1.5-3c0.7-0.9,1.5-1.6,2.6-2.2c1-0.6,2.3-0.8,3.8-0.8
						c1.5,0,2.7,0.3,3.7,0.8c1,0.5,1.9,1.2,2.5,2c0.6,0.8,1.1,1.8,1.4,2.8c0.3,1,0.4,2.1,0.4,3.1v1.6H235.2z M242.6,110
						c0-0.7-0.1-1.3-0.2-1.9c-0.1-0.6-0.4-1.1-0.7-1.6c-0.3-0.5-0.7-0.8-1.2-1c-0.5-0.3-1-0.4-1.6-0.4c-0.6,0-1.2,0.1-1.6,0.4
						c-0.5,0.3-0.8,0.6-1.1,1c-0.3,0.4-0.5,1-0.7,1.5c-0.2,0.6-0.2,1.2-0.2,1.9H242.6z"/>
				</defs>
				<clipPath id="SVGID_176_">
					<use xlink:href="#SVGID_175_"  style="overflow:visible;"/>
				</clipPath>
				<g class="st86">
					<defs>
						<rect id="SVGID_177_" x="2" y="95.4" width="283" height="72"/>
					</defs>
					<clipPath id="SVGID_178_">
						<use xlink:href="#SVGID_177_"  style="overflow:visible;"/>
					</clipPath>
					<rect x="225.6" y="97.4" class="st87" width="26.4" height="28.8"/>
				</g>
			</g>
			<g class="st15">
				<defs>
					<path id="SVGID_179_" d="M263,106.7c-0.2-0.1-0.6-0.4-1-0.6c-0.5-0.3-1-0.4-1.7-0.4c-0.7,0-1.4,0.1-1.9,0.4
						c-0.5,0.3-1,0.6-1.4,1c-0.4,0.4-0.6,0.8-0.8,1.3c-0.2,0.5-0.3,1-0.3,1.5v11h-4.5v-17.6h4l0.2,2.5c0.2-0.4,0.5-0.7,0.8-1.1
						c0.3-0.4,0.6-0.7,1-1.1c0.4-0.3,0.9-0.6,1.4-0.8c0.6-0.2,1.2-0.3,1.9-0.3c0.7,0,1.4,0.1,2,0.4c0.6,0.3,1.1,0.5,1.4,0.7
						L263,106.7z"/>
				</defs>
				<clipPath id="SVGID_180_">
					<use xlink:href="#SVGID_179_"  style="overflow:visible;"/>
				</clipPath>
				<g class="st88">
					<defs>
						<rect id="SVGID_181_" x="2" y="95.4" width="283" height="72"/>
					</defs>
					<clipPath id="SVGID_182_">
						<use xlink:href="#SVGID_181_"  style="overflow:visible;"/>
					</clipPath>
					<rect x="246.4" y="97.4" class="st89" width="22.8" height="28.4"/>
				</g>
			</g>
			<g class="st15">
				<defs>
					<polygon id="SVGID_183_" points="278.7,120.8 271.4,111.5 271.4,120.8 267,120.8 267,95.9 271.4,95.9 271.4,111.5 277.9,103.2 
						283,103.2 276.3,111.3 284,120.8 					"/>
				</defs>
				<clipPath id="SVGID_184_">
					<use xlink:href="#SVGID_183_"  style="overflow:visible;"/>
				</clipPath>
				<g class="st90">
					<defs>
						<rect id="SVGID_185_" x="2" y="95.4" width="283" height="72"/>
					</defs>
					<clipPath id="SVGID_186_">
						<use xlink:href="#SVGID_185_"  style="overflow:visible;"/>
					</clipPath>
					<rect x="262" y="90.9" class="st91" width="27.1" height="34.9"/>
				</g>
			</g>
		</g>
	</g>
</g>
<rect x="2" y="95.6" class="st92" width="282" height="71.3"/>
</svg>
