<?xml version="1.0" encoding="utf-8"?>
<!-- Generator: Adobe Illustrator 23.0.2, SVG Export Plug-In . SVG Version: 6.00 Build 0)  -->
<svg version="1.1" id="Layer_1" xmlns="http://www.w3.org/2000/svg" xmlns:xlink="http://www.w3.org/1999/xlink" x="0px" y="0px"
	 viewBox="0 0 32 32" style="enable-background:new 0 0 32 32;" xml:space="preserve">
<style type="text/css">
	.st0{fill:#FFFFFF;}
</style>
<g id="Page-1">
	<g id="key">
		<path id="Shape" class="st0" d="M22,0c-5.5,0-10,4.5-10,10c0,0.6,0.1,1.2,0.2,1.8L0,24v6c0,1.1,0.9,2,2,2h2v-2h4v-4h4v-4h4
			l2.6-2.6c1.1,0.4,2.2,0.6,3.4,0.6c5.5,0,10-4.5,10-10S27.5,0,22,0z M25,10c-1.7,0-3-1.3-3-3s1.3-3,3-3s3,1.3,3,3S26.7,10,25,10z"
			/>
	</g>
</g>
</svg>
