<?xml version="1.0" encoding="utf-8"?>
<!-- Generator: Adobe Illustrator 22.0.1, SVG Export Plug-In . SVG Version: 6.00 Build 0)  -->
<svg version="1.1" id="Ebene_1" xmlns="http://www.w3.org/2000/svg" xmlns:xlink="http://www.w3.org/1999/xlink" x="0px" y="0px"
	 viewBox="0 0 24.7 37.4" style="enable-background:new 0 0 24.7 37.4;" xml:space="preserve">
<style type="text/css">
	.st0{fill:url(#SVGID_1_);stroke:#FFFFFF;stroke-miterlimit:10;}
</style>
<g>
	
		<linearGradient id="SVGID_1_" gradientUnits="userSpaceOnUse" x1="0.5" y1="24.3" x2="24.2" y2="24.3" gradientTransform="matrix(1 0 0 -1 0 42.8)">
		<stop  offset="0" style="stop-color:#FF8E2C"/>
		<stop  offset="1.000000e-02" style="stop-color:#FF8E2C"/>
		<stop  offset="1" style="stop-color:#E66E1E"/>
	</linearGradient>
	<path class="st0" d="M12.4,0.5C5.8,0.5,0.5,5.8,0.5,12.4c0,2.7,1.6,6.9,5.1,13.2c2.4,4.3,4.8,8.1,4.9,8.2l1.8,2.7l1.8-2.7
		c0.2-0.2,2.6-3.8,4.9-8.2c3.4-6.2,5.1-10.5,5.1-13.2C24.2,5.8,18.8,0.5,12.4,0.5z M12.4,18.4c-3.5,0-6.2-2.7-6.2-6.2S8.9,6,12.4,6
		s6.1,2.7,6.1,6.2S15.7,18.4,12.4,18.4z"/>
</g>
</svg>
