<?xml version="1.0" encoding="utf-8"?>
<!-- Generator: Adobe Illustrator 24.0.1, SVG Export Plug-In . SVG Version: 6.00 Build 0)  -->
<svg version="1.1" id="Ebene_1" xmlns="http://www.w3.org/2000/svg" xmlns:xlink="http://www.w3.org/1999/xlink" x="0px" y="0px"
	 viewBox="0 0 32 32" style="enable-background:new 0 0 32 32;" xml:space="preserve">
<g>
	<g id="Ebene_2_1_">
	</g>
</g>
<g id="icon_x2F_bulb">
	<g id="Group-3" transform="translate(1.000000, 0.000000)">
		<g id="Group" transform="translate(8.100000, 8.100000)">
			<path id="Combined-Shape" d="M7.2,1.4l-0.2,0c-3.5,0-6.3,2.9-6.3,6.2c0,1.3,0.5,2.2,1.6,3.5l0.6,0.6C3.7,12.6,4,13.2,4,13.9v2
				h6.1v-2l0-0.2c0-0.6,0.3-1.1,1-1.9l0.2-0.2l0.3-0.4c1.2-1.3,1.7-2.3,1.7-3.6C13.4,4.3,10.7,1.5,7.2,1.4z M7.1,2.2l0.2,0
				c3,0.1,5.4,2.6,5.4,5.5c0,1.1-0.4,1.9-1.4,3l-0.6,0.6c-0.8,0.9-1.2,1.6-1.3,2.5l0,0.2l0,1.2H4.8l0-1.2c0-0.9-0.4-1.6-1.2-2.5
				L3.2,11L3,10.8c-1.1-1.2-1.5-2-1.5-3.1C1.5,4.7,3.9,2.2,7.1,2.2z"/>
			<path id="Path" d="M6.8,16.8l-1.6,0c1.3,0,0.3,0,0.2,0.2l0,0H4.9l0,0c0,0.2-0.6,0.2-0.4,0.2l0.4,0l0,0.5c0,0.6,0.5,1.1,1.1,1.1
				h2.3l0.1,0c0.6,0,1-0.5,1-1.1l0-0.5l0.4,0c0.3,0-0.4,0-0.4-0.2l-0.5,0l0,0c0-0.2-0.6-0.2-0.4-0.2l0.5,0l-1.1,0L6.8,16.8z"/>
			<path id="Path_1_" d="M9.9,14.4H4.2c-0.5,0-1,0.4-1,1c0,0.5,0.4,1,1,1h5.6c0.5,0,1-0.4,1-1C10.9,14.9,10.4,14.4,9.9,14.4z"/>
			<path id="Path_2_" d="M9.3,15.9H4.8c-0.5,0-1,0.4-1,1s0.4,1,1,1h4.5c0.5,0,1-0.4,1-1S9.8,15.9,9.3,15.9z"/>
		</g>
		<g id="Group-2">
			<polygon id="Path_3_" points="15.4,5 15.4,8.2 14.6,8.2 14.6,5 			"/>
			<polygon id="Path_4_" points="23.3,8.8 23.8,9.4 21.4,11.3 21,10.7 			"/>
			<polygon id="Path_5_" points="22.5,17.8 22.7,17.1 25.8,17.8 25.6,18.6 			"/>
			<polygon id="Path_6_" points="7.3,17.1 7.5,17.8 4.4,18.6 4.2,17.8 			"/>
			<polygon id="Path_7_" points="6.2,9.4 6.7,8.8 9,10.7 8.6,11.3 			"/>
		</g>
	</g>
</g>
</svg>
