<?xml version="1.0" encoding="utf-8"?>
<!-- Generator: Adobe Illustrator 23.0.4, SVG Export Plug-In . SVG Version: 6.00 Build 0)  -->
<svg version="1.1" id="Ebene_1" xmlns="http://www.w3.org/2000/svg" xmlns:xlink="http://www.w3.org/1999/xlink" x="0px" y="0px"
	 viewBox="0 0 1000 972.8" style="enable-background:new 0 0 1000 972.8;" xml:space="preserve">
<style type="text/css">
	.st0{opacity:0.1;}
	.st1{fill:#4A668B;}
	.st2{opacity:0.25;}
	.st3{opacity:0.5;}
	.st4{opacity:0.75;}
	.st5{fill:#577FAA;}
	.st6{clip-path:url(#SVGID_5_);}
	.st7{fill:#384F68;}
	.st8{fill:#577FAA;stroke:#384F68;stroke-width:3;stroke-miterlimit:10;}
	.st9{fill:#E8960B;}
	.st10{fill:#FFFFFF;}
	.st11{fill:#020202;}
	.st12{fill:#040303;}
	.st13{fill:#320E0F;}
	.st14{fill:#F6F6F6;}
	.st15{fill:#070303;}
</style>
<g>
	<g class="st0">
		<path class="st1" d="M-18.5,1244.6v-161.9h1072.1l228.2,114.1c0,0-411.9,30.3-533.4,104.8c-140.7,86.2-204.3,80.9-355.6,15.9
			c-142-61-258.9-7.9-364.9-181.8L-18.5,1244.6z"/>
	</g>
	<g class="st2">
		<path class="st1" d="M1727.7,1521.9c0,0-312.2-276.3-467.1-211c-169.8,71.7-309.2,130-402,96.9c-123-43.9-240.5-152.8-311.8-143.3
			c-139.2,18.6-234.2,229.6-354.3,156.6C78.9,1352,0.1,1257.9,0.1,1257.9v-98.2l1732.9-13.3L1727.7,1521.9z"/>
	</g>
	<g class="st3">
		<path class="st1" d="M1706.5,1256.5c0,0-284,136.7-448.5,171.2s-269.4-38.5-509.5-134c-193.2-76.8-237.1-67.4-360.9,0
			c-104.8,57.1-399.4,297.2-510.9,83.6c-70.3-134.9,82.3-171.2,82.3-171.2l142-111.5l1608.2-15.9L1706.5,1256.5z"/>
	</g>
	<g class="st4">
		<path class="st1" d="M1358.8,1503.4c0,0-397.6-400.3-548-325.1c-10.6,5.3-309.2-2.7-376.8-55.7
			c-23.2-18.2-228.2,175.2-287.9,230.9c-72.7,67.9-169.8,119.4-249.5,51.7c-101-85.9-156.6-131.4-156.6-131.4l15.9-175.2
			l1608.2-15.9L1358.8,1503.4z"/>
	</g>
	<g>
		<path class="st1" d="M1342.9,1328.2c0,0-92.9-110.1-257.4-75.6s-212.7,48.8-363.6-8c-144.6-54.4-245.2-32.3-351.6,19.9
			c-73,35.8-154.6,76.5-284-5.3c-65-41.1-126.1-34.5-126.1-34.5l8-200.4l1374.7-13.3V1328.2z"/>
	</g>
</g>
<path class="st1" d="M-762.2,1601.2c37,0,72.8-13.7,100.3-38.5c11.9,19.1,36.9,24.9,56,13.1c4.8-3,9-7,12.2-11.7
	c50.6,30.6,116.4,15.1,147.9-34.9c16.9,15.6,43.3,14.6,58.9-2.3c0.6-0.6,1.1-1.2,1.6-1.8c93.5,49.8,209.7,16.7,262.9-74.8
	c8.2,2.2,16.9,1.7,24.8-1.5c23.7,30.4,67.5,35.8,97.9,12.2c6.2-4.9,11.6-10.8,15.9-17.4c43.1,20.8,94.7,9.6,125.4-27.1
	c9.9,25.3,38.5,37.8,63.8,27.8c12.4-4.9,22.2-14.5,27.4-26.7c11.9,7.4,27.2,6.4,38-2.5c5.8,15.9,23.3,24.1,39.2,18.3
	c1.8-0.6,3.5-1.4,5.1-2.4c46,51.1,124.6,55.9,176.4,10.6c17.5,20.5,47,26,70.7,13c-5.7,21.4,7,43.3,28.4,49s43.3-7,49-28.4
	c14,6.6,30.6,0.6,37.2-13.4c0.1-0.1,0.1-0.2,0.2-0.4c34.6,31.1,87.8,28.3,118.9-6.2c7.1-7.8,12.6-17,16.3-26.8
	c18.9,22.4,50.9,28.3,76.6,14.1c49.5,63.3,141,74.5,204.3,25c14.3-11.2,26.4-25,35.7-40.6c18.5,14.8,45.5,12,60.6-6.2
	c40.5,24.6,93.1,13.2,119.9-25.9c7.8,5.1,16.8,7.8,26.1,7.8h0.6c19.5,38,66.2,53,104.2,33.5c0.6-0.3,1.1-0.6,1.7-0.9
	c65.5,68.7,170.2,82.1,250.9,32.2c11.1,9.2,25,14.3,39.5,14.2h1.8c7.8,48,53.1,80.6,101.1,72.7c48-7.8,80.6-53.1,72.7-101.1
	c-3.6-22.3-15.7-42.4-33.8-56l79.2-0.1l-0.5-382.8l-212.1,0.3l0.2,152.7c-71.4-84.9-198-95.9-282.9-24.6
	c-44.3,37.2-70.4,91.8-71.6,149.7c-12.7,3.1-24.5,9.4-34.1,18.4c-11-4.3-23.2-4.2-34.1,0c-18.7-45.6-70.8-67.3-116.3-48.6
	c-28.9,11.8-49.4,37.9-54.2,68.7c-12-79.5-86.2-134.2-165.7-122.2c-44.5,6.7-83.4,33.7-105.4,73v-20.4l-374.1,0.5
	c-46.7-51.6-126.4-55.5-178-8.7c-15.5,14-27.2,31.7-34.2,51.4l-136.8-5C125.9,1249,62.6,1230.4,12,1258c-15.3,8.3-28.2,20.4-37.6,35
	l-79.4-2.9c-33.7-103.4-144.8-159.9-248.2-126.3c-75.6,24.6-129,92.3-135.3,171.5l-176.6,0.3c-63.6-53.5-158.6-45.2-212,18.4
	c-53.5,63.6-45.2,158.6,18.4,212C-831.9,1588.7-797.6,1601.2-762.2,1601.2L-762.2,1601.2z"/>
<g>
	<polyline class="st1" points="-1112.8,542.6 -1112.8,-34.4 -112.8,-34.4 -112.8,542.6 	"/>
</g>
<g>
	<g>
		<g>
			<g>
				<rect id="SVGID_3_" x="-1112.8" y="170.5" class="st5" width="159.2" height="111.4"/>
			</g>
			<g>
				<defs>
					<rect id="SVGID_4_" x="-1112.8" y="170.5" width="159.2" height="111.4"/>
				</defs>
				<clipPath id="SVGID_5_">
					<use xlink:href="#SVGID_4_"  style="overflow:visible;"/>
				</clipPath>
				<g class="st6">
					<rect x="-1111.3" y="172" class="st5" width="156.2" height="108.4"/>
					<path class="st7" d="M-956.6,173.5v105.4h-153.2V173.5H-956.6 M-953.6,170.5h-159.2v111.4h159.2V170.5L-953.6,170.5z"/>
				</g>
			</g>
		</g>
		<g>
			<g id="SVGID_2_">
				<rect x="-1111.3" y="172" class="st5" width="156.2" height="108.4"/>
				<path class="st7" d="M-956.6,173.5v105.4h-153.2V173.5H-956.6 M-953.6,170.5h-159.2v111.4h159.2V170.5L-953.6,170.5z"/>
			</g>
		</g>
	</g>
	<g id="SVGID_1_">
		<rect x="-1111.3" y="172" class="st5" width="156.2" height="108.4"/>
		<path class="st7" d="M-956.6,173.5v105.4h-153.2V173.5H-956.6 M-953.6,170.5h-159.2v111.4h159.2V170.5L-953.6,170.5z"/>
	</g>
	<g>
		<path class="st5" d="M-971.9,360c-2.6,0-4.5-1.3-5.8-3.9L-990,329h-87.1l-12.3,27.1c-1.3,2.6-3.2,3.9-5.8,3.9c-0.7,0-1,0-1.3-0.4
			l-0.2-0.2l-0.3-0.1c-3.1-1.2-4.5-5-3.1-8.4l32-70.5h-43v-12.9h156.2v12.9h-43l32,70.6c1.3,3.3-0.1,7.1-3.2,8.3l-0.3,0.1l-0.2,0.2
			C-970,359.9-970.7,360-971.9,360z M-1071.3,316.8h75.5L-1011,283c-0.1-1.4-0.9-1.8-2.4-2.6l-0.3-0.2h-42.5v2.8L-1071.3,316.8z"/>
		<path class="st7" d="M-956.6,269v9.9h-39.2h-4.7l1.9,4.2l31,68.4c0.5,1.2,0.5,2.6,0,3.9c-0.4,1.2-1.3,2.1-2.4,2.5l-0.6,0.2
			l-0.3,0.3c-0.3,0.1-1,0.1-1.2,0.1c-1.4,0-3.1-0.4-4.5-3.1l-11.9-26.2l-0.8-1.8h-1.9h-85h-1.9l-0.8,1.8l-11.9,26.2
			c-1.4,2.7-3.1,3.1-4.5,3.1c-0.1,0-0.2,0-0.4,0l-0.3-0.3l-0.6-0.2c-1.1-0.4-1.9-1.3-2.4-2.5c-0.4-1.2-0.4-2.6,0-3.9l31-68.4
			l1.9-4.2h-4.5h-39.2v-9.9h153.2 M-1057.7,282.9l-14.1,31.2l-1.9,4.2h4.6h70.8h4.6l-1.9-4.2l-14.1-31.3c-0.3-2.1-1.6-2.7-3.2-3.5
			l-0.6-0.3h-0.7h-40.5h-3v3V282.9 M-953.6,266h-159.2v15.9h42.2l-31,68.4c-1.6,4,0,8.8,4,10.3c0.8,0.8,1.6,0.8,2.4,0.8
			c3.2,0,5.6-1.6,7.2-4.8l11.8-26.1h85.2l11.9,26.3c1.6,3.2,4,4.8,7.2,4.8c0.8,0,2.4,0,3.2-0.8c4-1.6,5.6-6.4,4-10.3l-31-68.4h42.1
			V266L-953.6,266z M-1069,315.2l14.3-31.8c0-0.8,0-0.8,0-1.6h40.6c1.6,0.8,1.6,0.8,1.6,1.6l14.3,31.8H-1069L-1069,315.2z"/>
	</g>
</g>
<g>
	<g>
		<path class="st5" d="M-281,336.5l-2.3-14.5l-14.1-3l-2.2-14.1l-14.1-3l-2.2-14.1l-13.3-2.8l-20.3-21.1l-0.9,0.2
			c-4,1.1-8.2,1.7-12.3,1.7c-12.3,0-23.9-5-32.4-14.1c-8.9-8.9-13.8-20.7-13.6-33.2c0.1-12.6,5.3-24.4,14.5-33.2
			c8.6-8.6,20.1-13.3,32.5-13.3c12.8,0,24.8,5,33.9,14.1c11.4,11.4,15.6,28.9,10.9,45.5l-0.2,0.8l70.4,72.6l-0.8,32.2L-281,336.5z
			 M-385.3,195c-3.6,3.1-5.6,7.6-5.6,12.4s2,9.3,5.6,12.4c3.4,3.4,7.9,5.3,12.5,5.3s9.1-1.9,12.6-5.5c3.5-3.5,5.4-8,5.4-12.6
			c0-4.7-2-9.2-5.9-13l-0.1-0.1l-0.1-0.1c-3.6-2.5-8.1-4-12.4-4C-378.2,189.8-382.5,191.7-385.3,195z"/>
		<path class="st7" d="M-362.1,173.5c12.4,0,24,4.9,32.8,13.7c10.9,10.9,15,28.2,10.5,44.1l-0.5,1.7l1.2,1.2l69.4,71.6l-0.8,30
			l-30.3-0.8l-1.9-12.2l-0.3-2l-2-0.4l-12.1-2.5l-1.9-12.1l-0.3-2l-2-0.4l-12.1-2.5l-1.9-12.1l-0.3-2l-2-0.4l-11.8-2.5l-19.6-20.4
			l-1.2-1.3l-1.7,0.5c-3.9,1.1-7.9,1.7-11.9,1.7c-11.9,0-23.1-4.8-31.4-13.7l0,0l0,0c-8.6-8.6-13.3-20-13.2-32.1
			c0.1-12.2,5.1-23.6,14-32.1l0,0l0,0C-385.1,178.1-374,173.5-362.1,173.5 M-386.4,193.9c-3.9,3.4-6.1,8.3-6.1,13.5
			c0,5.2,2.2,10.1,6.1,13.5c3.8,3.7,8.6,5.7,13.5,5.7c5,0,9.9-2.1,13.7-5.9s5.9-8.6,5.9-13.7s-2.2-10-6.4-14.1l-0.2-0.2l-0.2-0.1
			c-3.8-2.7-8.7-4.3-13.3-4.3C-378.6,188.3-383.2,190.3-386.4,193.9 M-362.1,170.5c-12.2,0-24.3,4.6-33.5,13.8
			c-9.5,9.1-14.8,21.2-14.9,34.2c-0.1,12.9,4.9,25.1,14,34.3c9,9.5,21,14.6,33.5,14.6c4.2,0,8.5-0.6,12.7-1.8l20,20.8l12.7,2.7
			l2.2,14.1l14.1,3l2.2,14.1l14.1,3l2.3,14.7l35.8,0.9l1.3-34.4l-70.2-72.5c4.8-17,0.5-35.2-11.3-47
			C-336.8,175.4-349.5,170.5-362.1,170.5L-362.1,170.5z M-372.9,223.6c-4.1,0-8.1-1.6-11.5-4.9c-3.2-2.8-5.1-6.9-5.1-11.3
			s1.9-8.6,5.2-11.4c2.8-3.3,6.8-4.7,10.9-4.7c4.1,0,8.3,1.4,11.6,3.7c3.7,3.6,5.5,7.7,5.5,12c0,4.2-1.8,8.3-5,11.6
			C-364.7,221.9-368.8,223.6-372.9,223.6L-372.9,223.6z"/>
	</g>
</g>
<path class="st8" d="M-925.3,452.2h151.7V346.1h-151.7V452.2z M-765.9,467.5h-166.9c-4.2,0-7.6-3.4-7.6-7.6V315.8h53.1V331h121.4
	c4.2,0,7.6,3.4,7.6,7.6V460C-758.3,464-761.7,467.5-765.9,467.5"/>
<g>
	<g>
		<path class="st5" d="M-832.2,204.2c-3.3,0-3.4-3.1-3.4-3.4V34c0-4.2,3-7.3,3-7.3l42.1-42.1c3-3,7.3-3,7.3-3h117.7
			c3.2,0,3.4,2.8,3.4,3.4v215.8c0,3.3-3.1,3.4-3.4,3.4H-832.2z"/>
		<path class="st7" d="M-665.4-17c0.5,0,1.8,0,1.9,1.9v215.8c0,0.5,0,1.8-1.9,1.9h-166.8c-0.5,0-1.8,0-1.9-1.9V34
			c0-3.5,2.6-6.2,2.6-6.3l42.1-42.1c2.5-2.5,6.2-2.6,6.3-2.6H-665.4 M-665.4-20h-117.7c0,0-4.9,0-8.4,3.5l-42.1,42.1
			c0,0-3.5,3.5-3.5,8.4v166.8c0,0,0,4.9,4.9,4.9h166.8c0,0,4.9,0,4.9-4.9V-15.1C-660.5-15.1-660.5-20-665.4-20L-665.4-20z"/>
	</g>
	<g>
		<polygon class="st1" points="-680.1,186.1 -680.1,-0.3 -768.4,-0.3 -768.4,48.7 -817.5,48.7 -817.5,186.1 -778.2,186.1 
			-778.2,205.7 -719.4,205.7 -719.4,186.1 		"/>
	</g>
	<g>
		<polygon class="st5" points="-799.6,220.2 -765.6,220.2 -765.6,161.1 -732,161.1 -732,220.2 -698,220.2 -748.8,264.2 		"/>
		<path class="st7" d="M-733.5,162.6v56.2v3h3h28.5l-46.8,40.5l-46.8-40.5h28.5h3v-3v-56.2L-733.5,162.6 M-730.5,159.6h-36.6v59.2
			h-36.6l54.9,47.5l54.9-47.5h-36.6L-730.5,159.6L-730.5,159.6z"/>
	</g>
</g>
<g>
	<path class="st8" d="M-661.5,411.2c-11.8,0-22.3-3.9-30.2-9.2c-17.1,7.9-28.9,22.3-28.9,38.1v63h118.2v-63
		c0-15.8-11.8-30.2-28.9-38.1C-639.2,407.2-649.7,411.2-661.5,411.2"/>
	<path class="st8" d="M-702.2,348.2c0,24.9,18.4,44.6,40.7,44.6c22.3,0,40.7-19.7,40.7-44.6s-18.4-44.6-40.7-44.6
		C-683.8,303.6-702.2,323.2-702.2,348.2"/>
	<path class="st8" d="M-385.8,392.9c22.3,0,40.7-19.7,40.7-44.6s-18.4-44.6-40.7-44.6s-40.7,19.7-40.7,44.6
		C-426.5,373.2-408.1,392.9-385.8,392.9"/>
	<path class="st8" d="M-523.7,333.8c22.3,0,40.7-19.7,40.7-44.6s-18.3-44.7-40.7-44.7c-22.4,0-40.7,19.7-40.7,44.6
		S-546,333.8-523.7,333.8"/>
	<path class="st8" d="M-523.7,352.2c-11.8,0-22.3-3.9-30.2-9.2c-17.1,7.9-28.9,22.3-28.9,38.1v63h118.2v-63
		c0-15.8-11.8-30.2-28.9-38.1C-501.3,348.2-511.8,352.2-523.7,352.2"/>
	<path class="st8" d="M-385.8,411.2c-11.8,0-22.3-3.9-30.2-9.2c-17.1,7.9-28.9,22.3-28.9,38.1v63h118.2v-63
		c0-15.8-11.8-30.2-28.9-38.1C-363.5,407.2-374,411.2-385.8,411.2"/>
</g>
<path class="st8" d="M-508.6,9.5c-51.9,0-94,42.1-94,94s42.1,94,94,94s94-42.1,94-94S-456.7,9.5-508.6,9.5z M-538.7,133.6
	c-9.8,17.3-10.5,14.3-13.5,3.8c-3.8-13.5-18-32.3-11.3-40.6c7.5-8.3,32.3-9.8,30.8,6C-533.4,120.8-532.7,123.8-538.7,133.6z
	 M-484.5,131.3c0-34.6-34.6-34.6-34.6-51.9s17.3,0,34.6-17.3c12-12,34.6,17.3,34.6,34.6S-484.5,148.6-484.5,131.3z"/>
<g>
	<g>
		<path class="st5" d="M-232.1,161c-0.3,0-0.6,0-0.8-0.1l-6.5-1.5c-1-0.2-1.8-0.8-2.3-1.7c-0.5-0.8-0.7-1.8-0.5-2.8l3.3-14.5h-56.9
			v16.2c0,2-1.6,3.7-3.7,3.7h-4.6c-2,0-3.7-1.6-3.7-3.7v-16.2h-15.6v16.2c0,2-1.6,3.7-3.7,3.7h-4.6c-2,0-3.7-1.6-3.7-3.7V86.1
			c0-0.2,0-0.5,0.1-0.8v-0.2V65.9c0-1.1,0.2-2.3,0.5-3.4l1.1-3.3l-19.1,8.8c-0.5,0.2-1.1,0.4-1.7,0.4c-1.3,0-2.4-0.5-3.2-1.5
			l-6.7-8.3c-1.2-1.5-1.3-3.6-0.1-5.1l20.8-27.3l0.1-0.1c0,0,0-0.1,0.1-0.1c0.1-0.2,0.2-0.3,0.3-0.5c0.6-1,1.4-2,2.2-3
			c0.6-0.7,1.1-1.3,1.5-1.9c1.3-1.8,2.8-3.3,4.7-4.5l4.3-2.9c3.1-2.1,6.8-3.3,10.6-3.3c6.4,0,12.4,3.2,16,8.5l24.8,36.7h75.1
			c6,0,11,4.9,11,11v63.5c0,0.5,0,0.9-0.1,1.4v0.1v25.6c0,2-1.6,3.7-3.7,3.7h-4.6c-2,0-3.7-1.6-3.7-3.7v-16.2h-19.4l-4,17.7
			C-228.9,159.8-230.4,161-232.1,161z M-328.6,19c-6.9,0-12.5,5.6-12.5,12.5s5.6,12.5,12.5,12.5s12.5-5.6,12.5-12.5
			S-321.7,19-328.6,19z"/>
		<path class="st7" d="M-320,11.3c5.9,0,11.5,2.9,14.8,7.8l24.4,36.1l0.9,1.3h1.6h74.3c5.2,0,9.5,4.2,9.5,9.5v63.5
			c0,0.4,0,0.8-0.1,1.2v0.2v0.2v25.5c0,1.2-1,2.2-2.2,2.2h-4.6c-1.2,0-2.2-1-2.2-2.2v-14.7v-3h-3h-16.7h-2.4l-0.5,2.3l-3.7,16.5
			c-0.2,1-1.2,1.8-2.2,1.8c-0.2,0-0.3,0-0.5-0.1l-6.5-1.5c-1.2-0.3-2-1.5-1.7-2.7l2.9-12.7l0.8-3.7h-3.8h-53.5h-3v3v14.7
			c0,1.2-1,2.2-2.2,2.2h-4.6c-1.2,0-2.2-1-2.2-2.2v-14.7v-3h-3H-322h-3v3v14.7c0,1.2-1,2.2-2.2,2.2h-4.6c-1.2,0-2.2-1-2.2-2.2V86
			c0-0.1,0-0.3,0-0.5l0.1-0.3v-0.3v-19c0-1,0.2-2,0.5-2.9l2.1-6.5l-6.2,2.9l-16,7.3c-0.4,0.2-0.8,0.2-1.2,0.2c-0.8,0-1.5-0.3-2-1
			l-6.8-8.3c-0.8-0.9-0.8-2.3,0-3.2l20.7-27.2l0.2-0.2l0.1-0.1l0,0c0.1-0.2,0.3-0.4,0.4-0.7c0.4-0.7,1-1.5,1.6-2.2
			c-1.4,2.2-2.2,4.7-2.2,7.5c0,7.7,6.3,14,14,14s14-6.3,14-14s-6.3-14-14-14c-3.9,0-7.4,1.6-9.9,4.1c0-0.1,0.1-0.1,0.1-0.2
			c1.2-1.7,2.6-3.1,4.3-4.2l4.3-2.9C-326.9,12.4-323.5,11.3-320,11.3 M-320,8.3c-4,0-8,1.1-11.5,3.5l-4.3,2.9c-2,1.3-3.7,3-5.1,4.9
			c-1,1.5-2.7,3.1-3.8,5.1c-0.1,0.2-0.3,0.4-0.4,0.7l-20.7,27.2c-1.6,2-1.6,4.9,0.1,7l6.7,8.3c1.1,1.4,2.7,2.1,4.4,2.1
			c0.8,0,1.6-0.2,2.4-0.5l16-7.3c-0.4,1.2-0.6,2.5-0.6,3.8v19c-0.1,0.3-0.1,0.7-0.1,1.1v70.5c0,2.9,2.4,5.2,5.2,5.2h4.6
			c2.9,0,5.2-2.4,5.2-5.2v-14.7h12.6v14.7c0,2.9,2.4,5.2,5.2,5.2h4.6c2.9,0,5.2-2.4,5.2-5.2v-14.7h53.5l-2.9,12.7
			c-0.7,2.8,1.1,5.6,3.9,6.3l6.5,1.5c0.4,0.1,0.8,0.1,1.2,0.1c2.4,0,4.5-1.7,5.1-4.1l3.7-16.5h16.7v14.7c0,2.9,2.4,5.2,5.2,5.2h4.6
			c2.9,0,5.2-2.4,5.2-5.2v-25.5c0.1-0.5,0.1-1.1,0.1-1.6V66c0-6.9-5.6-12.5-12.5-12.5h-74.3l-24.4-36C-306.7,11.5-313.3,8.3-320,8.3
			L-320,8.3z M-328.6,42.5c-6.1,0-11-4.9-11-11s4.9-11,11-11s11,4.9,11,11S-322.5,42.5-328.6,42.5L-328.6,42.5z"/>
	</g>
	<g>
		<circle class="st5" cx="-331.4" cy="31.5" r="3.3"/>
	</g>
	<g>
		<path class="st5" d="M-271.9,48.2c-0.9,0-1.7-0.4-2.2-1.2L-298,12.5c-4.4-6.7-11.8-11-18.7-11h-0.3c-7.1,0.1-14.2,2.4-20.4,6.6
			c-0.3-0.6-0.7-1.6-1.1-3l-3.6-14.9c0-0.2,0-0.3,0.1-0.4c0.1-0.1,0.2-0.2,0.5-0.2c0,0,31.5,0,32,0l-0.2,0.2l3.8-0.1
			c0.2,0,0.3,0,0.5,0c5.8,0,11.9,3.7,16,9.7l28.3,41.9c1.4,2,2.2,4.1,2.8,6.5c0.1,0.2,0,0.4-0.1,0.5s-0.2,0.2-0.4,0.2L-271.9,48.2z"
			/>
		<path class="st7" d="M-313.1-8.9l-0.4,0.4l7.6-0.3c0.1,0,0.3,0,0.4,0c5.2,0,11,3.5,14.7,9l28.3,41.9c1,1.6,1.8,3.1,2.3,4.9
			l-11.7-0.3l0,0l0,0c-0.5,0-0.8-0.3-0.9-0.5l-23.9-34.5c-4.8-7.2-12.4-11.6-20-11.6c-0.1,0-0.2,0-0.3,0c-6.8,0.1-13.6,2.1-19.6,5.9
			c-0.1-0.3-0.2-0.7-0.3-1.1l-3.3-13.7h27.1 M-310.9-11.9h-30.6c-1.3,0-2.4,1.2-2,2.5l3.6,14.9c0.6,2.6,1.6,4.5,2.3,4.5
			c0.1,0,0.1,0,0.2,0c0.1-0.1,0.2-0.1,0.3-0.2c6.1-4.3,12.9-6.6,20.1-6.7c0.1,0,0.2,0,0.3,0c6.1,0,13,3.7,17.5,10.3l23.9,34.5
			c0.8,1.1,2,1.8,3.4,1.8l13,0.3c1.3,0,2.4-1.3,2-2.6c-0.6-2.4-1.5-4.6-3-7l-28.3-41.9c-4.5-6.6-11.2-10.3-17.2-10.3
			c-0.2,0-0.3,0-0.5,0C-305.9-11.9-308-11.9-310.9-11.9L-310.9-11.9z"/>
	</g>
	<g>
		<path class="st5" d="M-244.1,48c0.6-20.9,17.4-37.8,38.4-38.6v5.4c-17.6,0.8-31.8,15.2-32.6,33.2H-244.1z"/>
		<path class="st7" d="M-207.2,11v2.4c-8.4,0.7-16.1,4.3-22.1,10.3c-6,6.1-9.7,14.1-10.4,22.8h-2.9C-241.3,27.6-226.2,12.5-207.2,11
			 M-205.2,7.9c-22.1,0.6-40,18.4-40.4,40.4c-0.1,0.7,0.3,1.1,0.9,1.1l6.6,0.1c0.7,0,1.2-0.6,1.3-1.2c0.7-17.5,14.4-31.7,31.9-32
			c0.3,0,0.7-0.3,0.7-0.7V8.9C-204.2,8.4-204.7,7.9-205.2,7.9L-205.2,7.9z"/>
	</g>
	<g>
		<path class="st5" d="M-255.9,35.8c-0.3-0.4-0.3-1.1-0.2-1.7c6.7-22.6,26.9-38,50.3-38.6v6.4c-22.7,0.7-42.2,18.7-45.6,41.7
			L-255.9,35.8z"/>
		<path class="st7" d="M-207.3-2.9v3.4c-21.4,1.4-39.9,17.6-44.8,38.9l-2.5-4.3c0,0-0.1-0.3,0-0.6c3.1-10.5,9.7-19.9,18.4-26.6
			C-227.8,1.4-217.9-2.4-207.3-2.9 M-205.1-6c-24.8,0.3-45.7,17.1-52.5,39.8c-0.2,1-0.1,2,0.3,2.8l5.6,9.9c0.1,0.3,0.4,0.4,0.6,0.4
			c0.3,0,0.7-0.2,0.7-0.6c2.2-23,21.7-42.5,45.3-42.8c0.3,0,0.7-0.2,0.7-0.7v-8C-204.3-5.7-204.7-6-205.1-6L-205.1-6z"/>
	</g>
	<g>
		<path class="st5" d="M-265.7,20.8c11-23.2,34.4-38.5,59.8-39v6.4c-24.6,0.6-46.7,16.2-55.6,39.2L-265.7,20.8z"/>
		<path class="st7" d="M-207.3-16.7v3.4c-23.7,1.1-44.9,15.8-54.4,37.4l-2.2-3.5c5.2-10.7,13.2-19.8,23.2-26.4
			C-230.8-12.4-219.3-16.1-207.3-16.7 M-205.2-19.7c-27.5,0.3-51.1,16.8-62,40.3c-0.1,0.2,0,0.6,0.2,0.9l5.1,7.9
			c0.1,0.2,0.4,0.4,0.7,0.4s0.7-0.2,0.8-0.6c8.2-22.7,29.9-39.1,55.4-39.4c0.4,0,0.8-0.3,0.8-0.8v-7.8
			C-204.3-19.4-204.8-19.7-205.2-19.7L-205.2-19.7z"/>
	</g>
</g>
<g>
	<path class="st5" d="M-1049.5,145.9c-0.7,0-2.2-0.3-2.2-2.2v-7.4c0-0.7,0.3-2.2,2.2-2.2h171.1c0.7,0,2.2,0.3,2.2,2.2v7.4
		c0,0.7-0.3,2.2-2.2,2.2H-1049.5z"/>
	<path class="st7" d="M-878.4,135.6c0.8,0,0.8,0.3,0.8,0.7v7.4c0,0.7-0.4,0.7-0.7,0.7h-171.2c-0.7,0-0.7-0.4-0.7-0.7v-7.4
		c0-0.8,0.3-0.8,0.7-0.8h171.1 M-878.4,132.6h-171.1c-3.7,0-3.7,3.7-3.7,3.7v7.4c0,3.7,3.7,3.7,3.7,3.7h171.1c3.7,0,3.7-3.7,3.7-3.7
		v-7.4C-874.7,132.6-878.4,132.6-878.4,132.6L-878.4,132.6z"/>
</g>
<g>
	<path class="st5" d="M-1038.3,123.6c-0.7,0-2.2-0.3-2.2-2.2V114c0-0.7,0.3-2.2,2.2-2.2h13l-0.3-1.7c0-0.2,0-0.4,0-0.4v-70
		c0-2,1.6-2.2,2.2-2.2h22.3c2.1,0,2.2,1.8,2.2,2.2v69.8c-0.1,0.1-0.1,0.3-0.1,0.5l-0.3,1.7h22.3l-0.3-1.7c0-0.2,0-0.4,0-0.4v-70
		c0-2,1.6-2.2,2.2-2.2h22.3c2,0,2.2,1.6,2.2,2.2v69.9c-0.1,0.1-0.1,0.3-0.2,0.6l-0.2,1.7h22.4l-0.3-1.8c0-0.2-0.1-0.4-0.1-0.4v-70
		c0-2.1,1.8-2.2,2.2-2.2h22.3c2,0,2.2,1.6,2.2,2.2v69.9c-0.1,0.1-0.1,0.3-0.2,0.6l-0.2,1.7h13c0.7,0,2.2,0.3,2.2,2.2v7.4
		c0,0.7-0.3,2.2-2.2,2.2L-1038.3,123.6L-1038.3,123.6z"/>
	<path class="st7" d="M-904.4,38.9c0.4,0,0.7,0,0.7,0.8v69.6c-0.1,0.2-0.1,0.4-0.1,0.6l-0.4,3.4h3.4h11.2c0.8,0,0.8,0.3,0.8,0.7v7.4
		c0,0.8-0.3,0.8-0.7,0.8h-148.8c-0.8,0-0.8-0.3-0.8-0.7v-7.4c0-0.8,0.3-0.8,0.7-0.8h11.2h3.5l-0.6-3.5c0-0.1,0-0.2,0-0.2v-70
		c0-0.4,0-0.7,0.8-0.7h22.3c0.4,0,0.7,0,0.7,0.8v69.6c0,0.1-0.1,0.3-0.1,0.5l-0.6,3.5h3.5h18.8h3.5l-0.6-3.5c0-0.1,0-0.2,0-0.2v-70
		c0-0.4,0-0.7,0.8-0.7h22.3c0.4,0,0.7,0,0.7,0.8v69.6c-0.1,0.2-0.1,0.4-0.1,0.6l-0.4,3.4h3.4h18.8h3.6l-0.6-3.5c0-0.1,0-0.2,0-0.2
		v-70c0-0.4,0-0.7,0.8-0.7L-904.4,38.9 M-904.4,35.9h-22.3c0,0-3.7,0-3.7,3.7v70c0,0,0,0.2,0.1,0.6h-18.8c0-0.2,0.2-0.3,0.2-0.6v-70
		c0,0,0-3.7-3.7-3.7h-22.3c0,0-3.7,0-3.7,3.7v70c0,0,0,0.2,0.1,0.6h-19.1c0-0.2,0.2-0.3,0.2-0.6v-70c0,0,0-3.7-3.7-3.7h-22.3
		c0,0-3.7,0-3.7,3.7v70c0,0,0,0.2,0.1,0.6h-11.2c-3.7,0-3.7,3.7-3.7,3.7v7.4c0,3.7,3.7,3.7,3.7,3.7h148.6c3.7,0,3.7-3.7,3.7-3.7
		v-7.4c0-3.7-3.7-3.7-3.7-3.7h-11.3c0-0.2,0.2-0.3,0.2-0.6v-70C-900.7,39.6-900.7,35.9-904.4,35.9L-904.4,35.9z"/>
</g>
<g>
	<path class="st5" d="M-1045.8,26.9c-0.6,0-1.4-0.1-1.9-0.2c0.3-0.3,0.7-0.6,1.5-1.2l76.9-51.2c0,0,2.4-1.5,5.4-1.6h0.3
		c1.7,0,3.4,0.6,5,1.6l76.9,51.2c0.5,0.4,1.1,0.9,1.4,1.2c-0.4,0.1-0.9,0.1-1.9,0.1h-163.6V26.9z"/>
	<path class="st7" d="M-963.6-25.8c1.5,0,2.9,0.5,4.2,1.3l74.8,49.9h-158.7l74.8-49.9c0,0,2-1.3,4.6-1.3H-963.6 M-963.5-28.8h-0.3
		c-3.6,0.1-6.2,1.8-6.2,1.8l-77,51.3c-6.2,4.1,1.2,4.1,1.2,4.1h163.6c7.4,0,1.2-4.1,1.2-4.1l-76.9-51.2
		C-959.7-28.3-961.7-28.8-963.5-28.8L-963.5-28.8z"/>
</g>
<g>
	<polygon class="st5" points="-1076.3,447.4 -1095.2,420.8 -1063.9,410.2 -1044.3,383.7 -1024.6,410.2 -993.4,420.8 -1012.3,447.4 
		-1012.6,480.5 -1044.3,470.5 -1075.9,480.5 	"/>
	<path class="st7" d="M-1044.3,386.2l18.2,24.5l0.6,0.8l0.9,0.3l28.9,9.8l-17.5,24.5l-0.5,0.8v0.9l-0.3,30.6l-29.3-9.1l-0.9-0.3
		l-0.9,0.3l-29.3,9.1l-0.3-30.6v-0.9l-0.5-0.8l-17.5-24.5l28.9-9.8l0.9-0.3l0.6-0.8L-1044.3,386.2 M-1044.3,381.2l-20.6,27.8
		l-32.8,11l19.8,27.8l0.4,34.7l33.1-10.3l33.1,10.3l0.4-34.7l19.8-27.8l-32.8-11L-1044.3,381.2L-1044.3,381.2z"/>
</g>
<g>
	<g>
		<path class="st5" d="M-236.2,497.9L-236.2,497.9c-0.9-1.2-9.1-14.2-17.3-29c-12.1-21.8-18-37-18-46.4c0-22.6,18.4-41,41-41
			c10.8,0,21,4.3,28.7,12.1c7.7,7.8,11.8,18,11.6,28.9c0,9.1-5.9,24.3-18,46.4c-8,15.3-16.4,27.9-17.3,29l-0.1,0.1l-0.1,0.1
			l-5.2,7.8L-236.2,497.9z M-230.6,398.1c-13.2,0-23.6,10.4-23.6,23.6s10.4,23.6,23.6,23.6c12.8,0,23.3-10.6,23.3-23.6
			C-207.3,408.2-217.3,398.1-230.6,398.1z"/>
		<path class="st7" d="M-230.6,383c10.4,0,20.2,4.1,27.6,11.6c7.4,7.5,11.3,17.3,11.2,27.8c0,8.9-5.8,23.8-17.8,45.7l0,0l0,0
			c-8,15.3-16,27.4-17,28.6l-0.1,0.1l-0.2,0.2l-3.9,5.9l-3.9-5.9l-0.2-0.2l-0.1-0.1c-1.1-1.7-9.2-14.5-17.1-28.8
			c-12-21.6-17.8-36.5-17.8-45.7c0-10.6,4.1-20.5,11.5-28C-251,386.6-241.2,383-230.6,383 M-230.6,446.9c13.7,0,24.8-11.3,24.8-25.1
			c0-14.3-10.7-25.1-24.8-25.1s-25.1,11-25.1,25.1S-244.7,446.9-230.6,446.9 M-230.6,380c-23.6,0-42.5,18.9-42.5,42.5
			c0,9.6,5.7,24.6,18.2,47.1c8.6,15.3,17.1,28.9,17.5,29.3l6.4,9.6l6.4-9.6c0.7-0.7,9.3-13.6,17.5-29.3
			c12.1-22.1,18.2-37.5,18.2-47.1C-188.5,398.9-207.8,380-230.6,380L-230.6,380z M-230.6,443.9c-12.5,0-22.1-9.6-22.1-22.1
			s9.6-22.1,22.1-22.1s21.8,9.6,21.8,22.1S-218.8,443.9-230.6,443.9L-230.6,443.9z"/>
	</g>
</g>
<path class="st9" d="M-35.7,169c1.3,1.3,2.7,2.6,4,3.9C-33,171.6-34.3,170.3-35.7,169z"/>
<path class="st9" d="M-35,178.2c-1.6,2.8,1.7,2.9,2.4,4.4c-4-1.4-4.5-2.2-2.9-4.4c0.1-0.1,0.2-0.2,0.3-0.2
	C-35.2,178-35.1,178.1-35,178.2z"/>
<path class="st9" d="M-5.6,203.8c-1.9,1-3.9,2.1-5.8,3.1C-9.4,205.8-7.5,204.8-5.6,203.8z"/>
<path class="st9" d="M3.8,201.3c-1.7,0.4-3.4,0.8-5.1,1.2C0.5,202.1,2.1,201.7,3.8,201.3z"/>
<path class="st9" d="M-73.1,147.4c1,0.6,2,1.2,3,1.8C-71.1,148.6-72.1,148-73.1,147.4z"/>
<path class="st9" d="M-66.7,151.6c0.9,0.5,1.7,0.9,2.6,1.4C-65,152.6-65.8,152.1-66.7,151.6z"/>
<path class="st9" d="M-25.9,185.6c1,0.4,2.1,0.7,3.1,1.1C-23.8,186.3-24.8,186-25.9,185.6z"/>
<path class="st9" d="M-3.2,193.5c1,0.3,2.1,0.7,3.1,1C-1.1,194.1-2.2,193.8-3.2,193.5z"/>
<path class="st9" d="M2.7,195.4c1,0.4,2.1,0.7,3.1,1.1C4.8,196.1,3.7,195.8,2.7,195.4z"/>
<path class="st9" d="M-1.7,214.5c0.7,0.3,1.4,0.7,2.1,1C-0.3,215.2-1,214.9-1.7,214.5z"/>
<path class="st9" d="M-6.6,211.7c0.7,0.3,1.4,0.7,2,1C-5.3,212.3-5.9,212-6.6,211.7z"/>
<path class="st9" d="M-57.4,157.2c0.7,0.3,1.4,0.6,2.2,0.9C-55.9,157.8-56.6,157.5-57.4,157.2z"/>
<path class="st9" d="M-61.8,154.6c0.7,0.4,1.5,0.7,2.2,1.1C-60.4,155.3-61.1,155-61.8,154.6z"/>
<path class="st9" d="M-45,163.4c0.6,0.2,1.1,0.4,1.7,0.7C-43.9,163.9-44.5,163.7-45,163.4z"/>
<path class="st9" d="M-20,187.6c0.7,0.3,1.4,0.7,2.2,1C-18.5,188.3-19.3,188-20,187.6z"/>
<path class="st9" d="M-52.9,159.5c0.5,0.2,1.1,0.4,1.6,0.5C-51.8,159.9-52.4,159.7-52.9,159.5z"/>
<path class="st9" d="M-40.6,165.9c0.5,0.2,1.1,0.4,1.6,0.7C-39.6,166.3-40.1,166.1-40.6,165.9z"/>
<path class="st9" d="M2.6,217c0.6,0.2,1.1,0.4,1.7,0.7C3.8,217.4,3.2,217.2,2.6,217z"/>
<path class="st9" d="M7.1,219.4c0.6,0.2,1.1,0.4,1.7,0.6C8.2,219.8,7.6,219.6,7.1,219.4z"/>
<path class="st9" d="M-49,161.4c0.6,0.2,1.1,0.4,1.7,0.7C-47.9,161.8-48.5,161.6-49,161.4z"/>
<path class="st9" d="M-30.3,184c0.4,0.1,0.8,0.2,1.2,0.3c-0.4,0-0.7,0.1-1.1,0C-30.2,184.3-30.3,184.1-30.3,184z"/>
<path class="st9" d="M7.3,200.8c-0.4,0-0.9,0.1-1.3,0.1C6.5,200.9,6.9,200.8,7.3,200.8z"/>
<path class="st9" d="M-31.7,175.6c-0.2,0.2-0.4,0.5-0.6,0.7C-32.1,176-31.9,175.8-31.7,175.6z"/>
<path class="st9" d="M8.4,197.4c0.2,0.1,0.3,0.1,0.5,0.2c-0.2,0-0.3,0-0.5,0.1C8.4,197.5,8.4,197.4,8.4,197.4z"/>
<path class="st9" d="M-9.2,191.4c0.2,0.1,0.3,0.1,0.5,0.2c-0.2,0-0.3,0.1-0.5,0.1C-9.2,191.6-9.2,191.5-9.2,191.4z"/>
<path class="st9" d="M-12.2,190.5c0.2,0,0.4,0.1,0.5,0.1C-11.9,190.5-12.1,190.5-12.2,190.5z"/>
<path class="st9" d="M-15.2,189.5c0.2,0,0.3,0,0.5-0.1c0,0.1,0,0.2,0,0.2c-0.2,0-0.3,0-0.5,0.1C-15.2,189.7-15.2,189.6-15.2,189.5z"
	/>
<circle class="st10" cx="169.4" cy="184.7" r="247.6"/>
<path class="st11" d="M30.4,116.7c-0.5-0.2-1.1-0.5-1.6-0.7c0,0,0-0.1,0-0.1c-0.1,0-0.2,0-0.3,0c-0.4-0.2-0.8-0.5-1.1-0.7
	c-0.4-0.2-0.7-0.3-1.1-0.5c-0.6-0.9-3-1.2-1.1-3.1c0.1,0,0.2-0.1,0.3-0.1c0.6-0.1,1.2-0.3,1.8-0.4c0.4,0,0.8-0.1,1.2-0.1
	c0.5-0.1,1.1-0.1,1.6-0.2c0.2,0,0.5,0,0.7,0c0.6-0.1,1.1-0.1,1.7-0.2c0.7-0.1,1.8,0.5,1.9-0.9c-0.3-0.3-0.7-0.6-1-0.9
	c-0.2,0-0.4-0.1-0.6-0.1c-0.4-0.2-0.8-0.4-1.2-0.6c-0.3-0.1-0.6-0.2-0.9-0.3c-0.4-0.2-0.9-0.3-1.3-0.5c0,0,0-0.1,0-0.1
	c-0.1,0-0.2,0-0.3,0c-0.4-0.1-0.9-0.3-1.3-0.4c0,0,0-0.1,0-0.1c-0.1,0-0.2,0-0.3,0c-0.7-0.2-1.4-0.5-2.2-0.7
	c-0.6-0.2-1.1-0.4-1.7-0.5c-0.6-0.2-1.2-0.3-1.9-0.5c-0.1,0-0.2,0-0.3-0.1c-0.5-0.2-0.9-0.3-1.4-0.5c-1.7-0.5-3.5-1.1-5.3-1.6
	c-0.7-0.2-1.4-0.4-2.2-0.6c0,0,0-0.1,0-0.1c-0.1,0-0.2,0-0.3,0c-0.8-0.3-1.6-0.6-2.4-0.9c-0.5-0.2-1.1-0.4-1.6-0.6
	c-0.8-0.2-1.5-0.5-2.2-0.7c-0.5-0.2-1.1-0.4-1.6-0.6c-0.4-0.2-0.8-0.4-1.2-0.6c-0.2-0.1-0.4-0.1-0.6-0.2c-0.4-0.2-0.8-0.4-1.2-0.6
	c-0.2-0.1-0.4-0.1-0.7-0.2c-0.4-0.2-0.8-0.4-1.3-0.6c0,0,0-0.1,0.1-0.1c-0.1,0-0.1,0-0.2-0.1c-1.3-0.5-2.7-1-4-1.5
	c-0.4-0.2-0.8-0.4-1.2-0.7c-0.2-0.1-0.4-0.1-0.7-0.2c-0.4-0.2-0.8-0.4-1.2-0.7c-0.9-0.3-1.7-0.7-2.6-1c-0.4-0.2-0.8-0.5-1.2-0.7
	c-0.3-0.1-0.6-0.2-0.9-0.3c-0.4-0.2-0.8-0.5-1.2-0.7c-0.9-0.4-1.7-0.8-2.6-1.2c-0.4-0.2-0.8-0.5-1.2-0.7c-0.3-0.1-0.6-0.2-0.9-0.3
	c-0.5-0.3-1-0.6-1.5-0.9c-0.3-0.1-0.6-0.2-0.9-0.3c-0.4-0.3-0.8-0.5-1.2-0.8c-0.4-0.2-0.8-0.4-1.1-0.5c-0.5-0.3-1-0.7-1.5-1
	c-0.4-0.2-0.7-0.3-1.1-0.5c-0.8-0.8-1.7-1.7-2.5-2.5c1-0.5,2-1.1,3.1-1.6c0.8-0.2,1.5-0.4,2.3-0.7c0.9-0.2,1.8-0.4,2.7-0.6
	c0.4-0.1,0.8-0.1,1.2-0.2c0.2,0,0.4,0,0.7-0.1c0.7-0.2,1.5-0.4,2.2-0.6c0.3-0.1,0.6-0.3,0.9-0.4c-0.3-0.1-0.6-0.2-0.9-0.3
	c-0.4-0.1-0.9-0.3-1.3-0.4c-0.1,0-0.2-0.1-0.3-0.1c-0.5-0.2-0.9-0.3-1.4-0.5c-0.5-0.2-1.1-0.4-1.6-0.6c-0.5-0.2-1-0.3-1.5-0.5
	c-0.5-0.2-1.1-0.3-1.6-0.5c-1-0.3-1.9-0.7-2.9-1c-0.1,0-0.2-0.1-0.3-0.1c-0.4-0.1-0.9-0.3-1.3-0.4c-0.1,0-0.2,0-0.3-0.1
	c-0.4-0.1-0.9-0.3-1.3-0.4c0,0,0-0.1,0-0.1c-0.1,0-0.2,0-0.3,0c-0.5-0.1-0.9-0.3-1.4-0.4c-0.4-0.2-0.8-0.4-1.1-0.5
	c-0.5-0.2-1-0.3-1.5-0.5c-0.5-0.2-1.1-0.4-1.6-0.6c-0.6-0.2-1.1-0.5-1.7-0.7c-0.2,0-0.4-0.1-0.6-0.1c-0.4-0.2-0.8-0.5-1.2-0.7
	c-0.4-0.8-2.1-0.8-1.3-2.3c0.5-0.3,1-0.7,1.4-1c0.1-0.1,0.2-0.2,0.3-0.4c0-0.5,0-0.9,0-1.4c-0.7-0.7-1.4-1.4-2.1-2.1
	c-0.6-0.4-1.2-0.9-1.8-1.3c-0.3-0.1-0.6-0.2-0.8-0.3c-0.5-0.3-1-0.6-1.4-0.9c-0.3-0.1-0.6-0.2-0.9-0.3c-0.4-0.2-0.8-0.5-1.2-0.7
	c-0.3-0.1-0.6-0.2-0.9-0.3c-0.4-0.2-0.8-0.5-1.2-0.7c-0.3-0.1-0.6-0.2-0.9-0.3c-0.4-0.3-0.8-0.5-1.2-0.8c-0.4-0.2-0.8-0.3-1.1-0.5
	c-0.4-0.3-0.8-0.5-1.2-0.8c-0.4-0.2-0.8-0.4-1.1-0.6c-0.4-0.3-0.8-0.6-1.2-0.8c-0.5-0.2-0.9-0.5-1.4-0.7c-0.6-0.4-1.2-0.9-1.8-1.3
	c-0.5-0.3-1.1-0.6-1.6-0.9c-1.5-1.4-2.9-2.7-4.4-4.1c-0.4-0.4-0.7-1-1.2-1.3c-1.3-1-1.1-1.8,0-2.9C-29.7,6.3,6.6-29.9,42.8-66.2
	c1.8-1.8,1.7-1.7,3.6,0.1c3.2,3,6.5,6,9.7,9c0.7,0.5,1.4,1.1,2,1.6c1.9,1.2,2.1,1.2,2.7,0c0.5-1.3,1.2-1.4,2-0.3
	c0.5,0.6,1,1.2,1.4,1.8c0.1,0.3,0.2,0.6,0.3,0.9c0.3,0.4,0.5,0.8,0.8,1.2c0.1,0.3,0.2,0.6,0.3,0.9c0.3,0.7,0.6,1.3,0.9,2
	c0.6,1.3,1.2,2.6,1.9,4c0.2,0.4,0.4,0.8,0.7,1.2c0.1,0.2,0.1,0.4,0.2,0.6c0.2,0.4,0.4,0.8,0.7,1.2c0,0.2,0.1,0.4,0.1,0.6
	c0.2,0.4,0.4,0.8,0.6,1.2c0,0-0.1,0.1-0.1,0.1c0.1,0.1,0.1,0.1,0.2,0.2c0.3,0.6,0.7,1.3,1,1.9c0.1,0.3,0.2,0.6,0.3,0.9
	c0.3,0.4,0.5,0.8,0.8,1.2c0.2,0.4,0.3,0.7,0.5,1.1c0.3,0.5,0.7,1,1,1.5c0.3,0.4,0.5,0.9,0.8,1.3c1.4,1.3,2.8,2.7,4.2,4
	c0,0-0.1,0.1-0.1,0.1c0,0,0.1,0.1,0.1,0.1c0.2,0,0.4,0,0.6-0.1c0.3,0,0.5,0.1,0.8,0.1c0.1,0,0.2,0,0.3,0c0.3,0,0.5-0.1,0.8-0.1
	c1.9-0.4,2.5,1.4,3.7,2.1c0.5,0.7,1,1.4,1.6,2c0.2,0.4,0.4,0.7,0.6,1.1c0.3,0.5,0.7,1,1,1.5c0.2,0.4,0.3,0.8,0.5,1.1
	c0.3,0.4,0.6,0.8,0.8,1.2c0.2,0.4,0.4,0.7,0.6,1.1c0.3,0.5,0.6,1,0.9,1.5c0.1,0.3,0.2,0.6,0.4,0.9c0.3,0.5,0.6,1,0.9,1.5
	c0.2,0.4,0.3,0.7,0.5,1.1c0.3,0.4,0.5,0.8,0.8,1.2c0.2,0.4,0.4,0.8,0.5,1.1c0.3,0.5,0.7,1,1,1.5c0.2,0.4,0.5,0.9,0.8,1.4
	c0.8,0.3,0.9,2.6,2.4,0.8c0.1-0.6,0.2-1.3,0.3-2c0.1-1.7,0.3-3.4,0.4-5.1c0.1-0.3,0.3-0.6,0.4-0.9c0.5,0.2,1,0.4,1.5,0.7
	c1.8,1.8,3.5,3.6,5.3,5.4c1,1.1,2,2.2,3,3.4c0.7,0.9,1.4,1.9,2.2,2.8c0.8,1,1.6,1.9,2.5,2.9c0.6,0.9,1.3,1.7,1.9,2.6
	c0.7,0.9,1.5,1.7,2.2,2.6c0.5,0.7,1,1.4,1.4,2.1c0.7,0.9,1.4,1.7,2.1,2.6c0.4,0.6,0.8,1.2,1.2,1.8c0.6,0.7,1.1,1.4,1.7,2
	c0.5,0.7,1,1.4,1.4,2.1c0.5,0.6,0.9,1.2,1.4,1.8c0.4,0.6,0.8,1.2,1.2,1.9c0.5,0.6,0.9,1.2,1.4,1.8c0.2,0.4,0.5,0.9,0.7,1.3
	c0.4,0.6,0.8,1.2,1.2,1.7c0.2,0.4,0.4,0.7,0.6,1.1c0.4,0.6,0.9,1.2,1.3,1.8c0.3,0.3,0.6,0.5,0.8,0.8c0.3-1.1,0.5-2.1,0.8-3.2
	c0-0.1,0-0.2,0-0.3c0.1-0.8,0.2-1.6,0.2-2.4c0.1-0.5,0.1-1.1,0.2-1.6c0-0.2,0-0.5,0.1-0.7c0.6,0.2,1.1,0.3,1.7,0.5
	c0.1,0.2,0.3,0.4,0.4,0.7c0.2,0.5,0.4,0.9,0.6,1.4c0.1,0.2,0.3,0.5,0.4,0.7c0.8,1.8,1.5,3.5,2.3,5.3c0.1,0.2,0.2,0.3,0.3,0.5
	c0.1,0.6,0.2,1.4,0.4,1.9c0.8,1.6,1.6,3.2,2.5,4.8c0.1,0.1,0.2,0.3,0.2,0.4c0.1,0.4,0.3,0.7,0.4,1.1c0.1,0.2,0.2,0.5,0.4,0.7
	c0.5,1.1,0.9,2.1,1.4,3.2c0.1,0.2,0.2,0.5,0.4,0.7c0.2,0.5,0.4,0.9,0.6,1.4c0.1,0.2,0.3,0.4,0.4,0.7c0.6,1.1,1.1,2.3,1.7,3.4
	c0.2,0.3,0.4,0.6,0.7,0.9c0.4,0.6,0.7,1.3,1.1,1.9c1,1,1.9,2,2.9,2.9c0.4,0.1,0.8,0.1,1.1,0.2c0.6-0.5,1.2-1.1,1.9-1.6
	c0.2-0.5,0.4-1,0.6-1.5c0.1-0.4,0.1-0.7,0.2-1.1c0.1-0.4,0.2-0.7,0.2-1.1c0-1.6,0-3.2,0-4.8c0.3-0.3,0.5-0.6,0.8-0.9
	c0.5,0.6,1,1.1,1.5,1.7c0.2,0.7-0.5,2,1.1,1.9c0.1,0.2,0.3,0.4,0.4,0.6c-0.1,1.7-0.1,1.7,0.9,1.7c0.1,0.2,0.3,0.4,0.4,0.6
	c0.3,0.6,0.6,1.1,0.8,1.7c0.1,0.2,0.3,0.4,0.4,0.6c0.2,0.5,0.4,0.9,0.6,1.4c0.2,0.3,0.4,0.7,0.6,1c0.2,0.4,0.4,0.9,0.6,1.3
	c0.2,0.3,0.4,0.7,0.7,1c0.1,0.2,0.2,0.5,0.2,0.7c0.3,0.4,0.5,0.9,0.8,1.3c0.2,0.4,0.4,0.9,0.5,1.3c0.1,0.1,0.2,0.3,0.3,0.4
	c0.2,0.5,0.4,0.9,0.7,1.4c0.1,0.2,0.2,0.5,0.4,0.7c0.2,0.5,0.5,0.9,0.7,1.4c0.1,0.2,0.2,0.5,0.4,0.7c0.3,0.6,0.6,1.1,0.9,1.7
	c0.2,0.3,0.4,0.6,0.7,0.9c0.2,0.5,0.4,0.9,0.6,1.4c0.1,0.2,0.3,0.4,0.4,0.6c0.3,0.6,0.6,1.1,0.9,1.7c0.2,0.3,0.4,0.6,0.7,0.9
	c0.3,0.5,0.6,1.1,0.9,1.6c0.2,0.3,0.4,0.6,0.7,0.9c0.5,0.8,1,1.7,1.5,2.5c0.3,0.3,0.5,0.6,0.8,0.9c0.5,0.7,0.9,1.4,1.4,2.2
	c0.5,0.6,0.9,1.2,1.4,1.7c2.2,4.1,5.6,7,9.3,9.6c0.1,0,0.2,0,0.3,0c0.4,0.3,0.8,0.6,1.2,0.9c0.7,0.5,1.5,0.9,2.2,1.4
	c0.4,0.3,0.8,0.6,1.2,0.9c0.7,0.5,1.4,0.9,2.2,1.4c1.2,1.1,2.3,2.2,3.5,3.3c0.4,0.4,0.8,0.8,1.2,1.2c0.9,1,1.8,2,2.8,3
	c0.5,0.8,1.1,1.6,1.6,2.4c0.2,0.3,0.5,0.6,0.7,0.9c0.5,0.8,1.1,1.7,1.6,2.5c0.4,0.5,0.8,1,1.2,1.5c0.5,2.2,1.9,3.6,4.2,4.1
	c0.2,0.1,0.4,0.3,0.7,0.4c1.1,1.1,2.4,1.6,3.9,1.2l0.2,0c0,0,0.1,0.1,0.1,0.1c0.3,0.1,0.7,0.1,1,0.2c0.4,0.1,0.7,0.2,1.1,0.3
	c0.3,0.1,0.6,0.2,0.9,0.3c0.2,0.1,0.4,0.1,0.6,0.2c1,0.5,2,1,3,1.4c1.1,1.1,2.2,2.3,3.4,3.4c0.3,0.5,0.6,1.1,0.9,1.6
	c0.2,0.3,0.5,0.7,0.7,1c0.2,0.5,0.3,0.9,0.5,1.4c0.1,0.3,0.3,0.5,0.4,0.8c0.1,0.3,0.2,0.7,0.3,1c0.1,0,0.1,0.1,0.1,0.2
	c-0.1,0.3-0.2,0.7-0.1,1c0.8,2.2,1.6,4.3,2.4,6.5c-2.3,0.6-4.6,1.2-6.9,1.8c-0.2,0.3-0.4,0.8-0.9,1.2c-1.2,1-2.4,1.9-3.7,2.8
	c-0.2,0.1-0.4,0.3-0.5,0.4c-0.5,0.2-1.2,0.3-1.5,0.6c-1.9,2.1-3.8,4.3-5.6,6.6c-1.6,1.9-3,3.9-4.5,5.9c-0.6,0.2-1.3,0.4-2.1,0.6
	c0.1,0.2,0.1,0.4,0.2,0.6c0.6,0,1.3,0.1,2.1,0.1c-0.8,1.2-1.3,2.6-2.3,3.4c-1.5,1.2,0,2.5-0.5,3.7c0,0.1-0.1,0.2-0.2,0.3
	c-0.4-0.3-0.9-0.5-1.3-0.8c-0.1-0.6-0.2-1.2-0.2-1.8c-0.1-0.4-0.2-0.7-0.3-1.1c-1-0.7-1.9-1.5-2.9-2.1c-1.6-1-3.3-1.8-5-2.7
	c-4.1-2.4-8-5.2-12.3-7c-6.9-2.9-14.2-3.1-21.4-0.7c-3.9,1.3-6.4,4.5-9.1,7.4c-3.2,3.5-5.5,7.6-6.1,12.4c-0.6,4.5-2.4,9.1,0.4,13.5
	c0.4,0.6,0.5,1.2,0.8,1.8c3.4,7,6.8,14.1,10.2,21.1c-0.2,1.7,0.7,1.9,2,1.4c0.3,0,0.6,0.1,0.9,0.1c-0.1,0.3-0.1,0.6-0.2,0.9
	c-0.1,0-0.2,0.1-0.3,0.1c-0.5,0.2-1,0.4-1.5,0.6l0,0c-0.9,0.1-1.8,0.1-2.8,0.2c0-0.4,0-0.8,0.1-1.6c-0.9,1.3-1.6,2.3-2.3,3.3
	c-0.2-0.1-0.3-0.2-0.5-0.3c0.2-0.5,0.5-0.9,0.7-1.4c-0.7,0.2-1.4,0.5-1.5,1c-0.5,2.7-3.4,2.6-4.8,4.2c-1.4,1.6-3.1,3-4.5,4.6
	c-2.1,2.4-2.7,5.9-5.5,7.8c-2.2-2.1-4.5-4.2-6.7-6.3c-1.5-1.2-2.9-2.5-4.4-3.7c-1.3-1.2-2.6-2.3-3.9-3.5c-1.2-1.2-2.4-2.4-3.6-3.6
	c-0.4-0.6-0.9-1.1-1.3-1.7c-0.1-0.3-0.3-0.6-0.4-0.9c-0.2-0.4-0.4-0.8-0.7-1.2c-0.2-1.1-0.4-2.1-0.6-3.2c-0.1-0.7-0.2-1.5-0.3-2.2
	c-0.1-0.5-0.2-0.9-0.3-1.4c-0.2-0.4-0.4-0.8-0.6-1.2c-0.1-0.2-0.1-0.5-0.2-0.7c-0.3-0.5-0.7-1-1-1.5c-0.3-0.5-0.6-1-1-1.6
	c-1.8-1.9-3.5-3.7-5.3-5.6c-0.1-0.1-0.2-0.2-0.3-0.3c-3-2.9-6-5.8-8.9-8.7c-3.2-3.2-6.5-6.5-9.7-9.7c-0.9-1-1.8-2.1-2.7-3.1
	c-0.4-0.9-0.7-1.8-1.1-2.7c0.3-0.5,0.7-1,1-1.4c0.2,0,0.4-0.1,0.7-0.1c0.4-0.1,0.7-0.2,1.1-0.3c0.1,0,0.2,0,0.3,0
	c0.5-0.1,1.1-0.1,1.6-0.2c0.6,0,1.2,0,1.7-0.1c0.1,0,0.2-0.5,0.3-0.7c-0.3,0-0.5-0.1-0.8-0.1c-0.9-0.4-1.8-0.8-2.7-1.1
	c-0.2,0-0.4-0.1-0.6-0.1c-0.4-0.2-0.8-0.4-1.2-0.6c-0.2-0.1-0.4-0.1-0.6-0.2c-0.4-0.2-0.8-0.5-1.2-0.7c-0.3-0.1-0.6-0.2-0.9-0.4
	c-0.5-0.3-1-0.6-1.5-0.9c-0.3-0.1-0.6-0.2-0.9-0.3c-0.4-0.3-0.8-0.5-1.2-0.8c-0.4-0.2-0.7-0.4-1.1-0.5c-0.4-0.3-0.8-0.5-1.2-0.8
	c-0.4-0.2-0.7-0.3-1.1-0.5c-0.5-0.3-1-0.7-1.5-1c-0.4-0.2-0.7-0.4-1.1-0.6c-0.5-0.3-1-0.7-1.5-1c-0.4-0.2-0.7-0.3-1.1-0.5
	c-0.5-0.3-1-0.7-1.5-1c-0.4-0.2-0.7-0.4-1.1-0.6c-0.6-0.4-1.2-0.8-1.8-1.3c-0.4-0.2-0.7-0.3-1.1-0.5c-0.6-0.5-1.2-0.9-1.8-1.4
	c-0.5-0.3-1.1-0.6-1.6-1c-0.6-0.5-1.2-0.9-1.8-1.4c-0.9-0.7-1.8-1.4-2.7-2.1c0.1-0.4,0.2-0.7,0.3-1.1c0.1-0.1,0.1-0.1,0.2-0.2
	c0.7-0.4,1.4-0.9,2.2-1.3c1.8-0.8,3.7-1.6,5.5-2.3c0.6-0.6,1.2-1.2,1.7-1.7c-0.3-0.3-0.5-0.6-0.8-0.8c-0.4-0.2-0.8-0.5-1.1-0.7
	c-0.1,0-0.2,0-0.3-0.1c-0.5-0.2-1.1-0.5-1.6-0.7c-0.6-0.3-1.3-0.6-1.9-0.8c-0.6-0.2-1.2-0.5-1.8-0.7c-0.3-0.2-0.7-0.4-1.1-0.5
	c-4.7-1.6-9.3-3.2-14-4.8c-0.5-0.2-1-0.3-1.4-0.5c-0.9-0.3-1.8-0.7-2.7-1c-0.5-0.2-1-0.3-1.5-0.5c-1.1-0.4-2.1-0.7-3.2-1.1
	c-0.5-0.2-1-0.3-1.5-0.5c-1.1-0.4-2.3-0.9-3.4-1.3c-0.5-0.2-0.9-0.3-1.4-0.5c0,0,0-0.1,0-0.1c-0.1,0-0.2,0-0.3,0
	c-0.5-0.2-1-0.4-1.6-0.6c0,0,0-0.1,0-0.1c-0.1,0-0.2,0-0.3,0c-0.5-0.2-1.1-0.5-1.6-0.7C31,116.9,30.7,116.8,30.4,116.7z
	 M208.6,156.3c0.1,0.1,0.2,0.2,0.4,0.3c0.2-0.3,0.4-0.6,0.6-0.9c-0.1-0.1-0.2-0.1-0.3-0.2C209.1,155.8,208.8,156.1,208.6,156.3z
	 M210,158.4c0.1,0,0.2-0.1,0.3-0.1c0-0.1-0.1-0.2-0.1-0.3c-0.1,0-0.3,0.1-0.3,0.1C209.9,158.1,210,158.3,210,158.4z"/>
<path class="st12" d="M350.4,282.4c-0.6,0-1.3-0.1-1.9-0.1c-0.1,0-0.3-0.1-0.4-0.1c-0.8-0.1-1.5-0.2-2.3-0.3c-0.2,0-0.4-0.1-0.7-0.1
	c-0.2,0-0.5-0.1-0.7-0.1c-0.6-0.2-1.3-0.3-1.9-0.5c-1.1-0.2-2.1-0.4-3.2-0.6c-0.1,0.1-0.2,0-0.3-0.1c-1.8-0.6-3.7-1.2-5.5-1.8
	c-0.3-0.1-0.6-0.2-0.9-0.4c-0.5-0.2-0.9-0.3-1.4-0.5c-0.2-0.1-0.5-0.3-0.7-0.4c-1.2-0.5-2.3-1.1-3.5-1.6c-0.2-0.2-0.4-0.3-0.6-0.5
	c-0.6-0.4-1.3-0.7-1.9-1.1c-0.2-0.1-0.3-0.2-0.5-0.3c-1-0.7-2-1.3-3-2c-0.3-0.2-0.6-0.5-0.9-0.7c-1.3-1.1-2.6-2.1-4-3.2
	c-2.6-2.6-5.2-5.2-7.8-7.8c-1.1-1.4-2.2-2.8-3.3-4.2c-0.4-0.4-0.7-0.8-1.1-1.2c-0.6-0.9-1.2-1.8-1.9-2.7c-0.3-0.4-0.6-0.8-1-1.2
	c-0.5-0.7-0.9-1.4-1.4-2.1c-0.2-0.2-0.3-0.4-0.5-0.7c-0.5-0.8-1.1-1.6-1.6-2.4c-0.2-0.2-0.3-0.4-0.5-0.7c-0.5-0.8-1-1.6-1.5-2.4
	c-0.2-0.2-0.4-0.5-0.6-0.7c-0.4-0.7-0.8-1.4-1.3-2.1c-0.2-0.2-0.4-0.5-0.6-0.7c-0.5-0.8-1.1-1.6-1.6-2.4c-0.2-0.3-0.5-0.6-0.7-0.9
	c-0.8-1.1-1.6-2.2-2.4-3.2c-0.5-0.6-1-1.1-1.5-1.7c-0.8-2.7-3.1-4.1-5-5.8c-0.6-0.6-1.1-1.1-1.7-1.7c-1.3-1.5-2.3-3.3-4.5-3.7
	c-0.3-0.2-0.6-0.5-0.9-0.7c-1.4-0.5-2.8-0.9-4.2-1.4c-0.4,0.1-0.9,0.3-1.3,0.4c-0.4,1.4,0.9,1.7,1.6,2.3c0.7,0.7,1.3,1.5,2,2.2
	c0.3,0.6,0.6,1.2,0.9,1.9c0,0,0.1,0.1,0.1,0.1s-0.1,0.1-0.1,0.1c-0.1,0.4-0.1,0.9-0.2,1.3c-0.1,0.1-0.2,0.3-0.3,0.4
	c-1.2,0.7-2.4,1.3-3.6,2c-0.9,0.4-1.8,0.8-2.7,1.2c0,0.1-0.1,0.2-0.2,0.2c0,0.5-0.1,1.2,0.1,1.3c1.3,0.4,2.7,0.8,4,1.1
	c0.2,0.1,0.3,0.2,0.5,0.3c0.7,0.4,1.5,0.8,2.2,1.2c0.2,0.2,0.4,0.3,0.6,0.5c0.8,0.5,1.6,1.1,2.4,1.6c1.8,1.8,3.6,3.6,5.5,5.5
	c0.5,0.8,1.1,1.6,1.6,2.4c0.2,0.3,0.5,0.6,0.7,0.9c0,0.3-0.1,0.6,0,0.9c1,3.1,0.4,3.8-2.8,3.9c-0.8,0-1.6,0.3-2.4,0.5l-0.1,0.1
	c0,0-0.1-0.1-0.1-0.1c-1.3,0-2.7,0.1-4,0.1c-0.2,0-0.3,0-0.5,0.1c-1.3,0.3-2.6,0.6-4,0.9c-0.2,0.2-0.4,0.4-0.6,0.6
	c0,0.4,0,0.8,0.1,1.1c0.2,0.2,0.3,0.3,0.5,0.5c2.3,0.9,4.5,1.9,6.8,2.8c0.2,0.1,0.5,0.3,0.7,0.4c0.6,0.4,1.3,0.7,1.9,1.1
	c0.4,0.3,0.8,0.7,1.2,1c1.3,1.3,2.5,2.5,3.8,3.8c0.4,0.5,0.8,1,1.2,1.5c0.4,0.7,0.8,1.4,1.2,2.1c0.1,0.2,0.2,0.3,0.3,0.5
	c0.6,1.6,1.3,3.3,1.9,4.9c0.2,1.3,0.3,2.7,0.5,4c0,0.2,0,0.5,0,0.7c-0.1,0.8-0.3,1.6-0.4,2.5c-0.2,0.5-0.5,1.1-0.7,1.6
	c-0.4,0.5-0.8,1-1.2,1.5c-0.2,0.2-0.5,0.4-0.7,0.6c-0.3,0.3-0.6,0.5-0.9,0.8c-0.4,0-0.7,0-1.1,0c-0.3-0.3-0.5-0.5-0.8-0.8
	c-1-2.4-2-4.7-3-7.1c-0.1-0.2-0.2-0.3-0.4-0.5c-0.4-1.9-2-3.5-3.9-3.9c-0.2-0.1-0.5-0.3-0.7-0.4c-0.9-0.3-1.8-0.6-2.7-0.9
	c-0.4-0.1-0.9-0.2-1.3-0.3c-1.1-0.1-2.2-0.1-3.3-0.2c0,0,0,0,0,0c-0.6,0-1.1,0-1.7,0l-0.1,0.1c0,0-0.1-0.1-0.1-0.1
	c-0.5,0.1-1,0.1-1.4,0.2c-1.3,0.2-2.6,0.5-3.9,0.7c-1.5,0.4-3.1,0.8-4.6,1.1c-0.2,0.1-0.5,0.2-0.7,0.2c-1.4,0.4-2.8,0.8-4.2,1.2
	c-0.5,0.1-1,0.2-1.5,0.4c-1.7,0.3-3.5,0.7-5.2,1c-0.1,0-0.3,0-0.4,0.1c-0.5,0.1-0.9,0.1-1.4,0.2c-0.1,0-0.3,0-0.4,0.1
	c-1.7,0.1-3.4,0.1-5.1,0.2l-0.1,0.1c0,0-0.1-0.1-0.1-0.1c-0.2,0-0.5,0-0.7,0c-0.3,0-0.7,0-1,0c-0.5-0.1-0.9-0.1-1.4-0.2
	c-0.1,0-0.3-0.1-0.4-0.1c-0.3-0.1-0.6-0.1-0.9-0.2c-0.4-0.1-0.8-0.1-1.1-0.2c-0.3-0.2-0.6-0.4-0.9-0.5c-2.5-1-5-2.1-7.5-3.1
	c-0.8-0.4-1.7-0.8-2.5-1.2c-0.4-0.3-0.8-0.6-1.2-1c-0.7-0.5-1.4-0.9-2.2-1.4c-0.4-0.3-0.8-0.6-1.2-1c-0.4-0.4-0.8-0.9-1.3-1
	c-0.2-0.1-1,0.7-1,0.9c0.7,1.9,1.6,3.7,2.4,5.5c0.1,0.2,0.2,0.3,0.3,0.5c0.8,1.7,1.5,3.4,2.3,5.2c0.1,0.2,0.2,0.3,0.4,0.5
	c0.3,0.6,0.7,1.2,1,1.9c0.2,0.2,0.4,0.5,0.5,0.7c0.6,2.6,2.9,3.9,4.6,5.5c0.7,0.7,1.3,1.3,2,2c2.2,2.2,4.3,4.4,6.5,6.6
	c0.8,0.8,1.9,1.3,2.9,1.9c0.9,0.9,1.8,1.7,2.7,2.6c2.4,2.1,4.7,4.2,7.1,6.3c1.7,1.7,3.4,3.5,5.2,5.2c1,1.2,1.9,2.5,2.9,3.7
	c0.2,0.3,0.5,0.6,0.7,0.9c0.4,0.6,0.7,1.3,1.1,1.9c0.2,0.2,0.3,0.4,0.5,0.7c1.3,3.4,2.7,6.8,4,10.1c0.1,0.2,0.1,0.4,0.2,0.7
	c0.6,2.1,1.1,4.2,1.7,6.4c0.1,0.2,0.1,0.4,0.2,0.6c0,0.3,0.1,0.5,0.1,0.8c0.1,0.5,0.2,0.9,0.3,1.4c0.1,0.4,0.1,0.7,0.2,1.1
	c0.1,0.5,0.2,1,0.3,1.6c0.1,0.8,0.2,1.5,0.3,2.3c0.1,0.5,0.1,0.9,0.2,1.4c0,0.5,0.1,1.1,0.1,1.6l0.1,0.1c0,0-0.1,0.1-0.1,0.1
	c0.1,1.4,0.1,2.8,0.2,4.2c0,0,0.1,0.1,0.1,0.1s-0.1,0.1-0.1,0.1c0,0.6,0,1.2,0,1.7c0,0.3,0,0.7-0.1,1c-0.4,0.8-0.9,1.6-1.3,2.5
	c-0.1,0-0.3,0-0.4,0c-0.6-0.3-1.2-0.6-1.8-0.9c-0.5-0.4-1-0.9-1.5-1.3c-0.8-0.5-1.6-1-2.4-1.5c-0.2-0.1-0.3-0.2-0.5-0.3
	c-1-0.5-2-1-3-1.4c-0.3-0.1-0.6-0.2-0.9-0.3c-1.9-0.8-3.8-1.7-5.7-2.3c-3.1-1-6.3-1.8-9.6-2.6c-2.5-0.6-5-1-7.6-1.5
	c-0.3-0.1-0.5-0.2-0.8-0.3c-0.3-0.1-0.5-0.1-0.8-0.2c-0.2-0.1-0.3-0.1-0.5-0.2c-0.9-0.4-1.8-0.9-2.8-1.2c-2.1-0.7-4.1-1.4-6.2-2
	c-0.2-0.1-0.5-0.3-0.7-0.4c-0.5-0.2-0.9-0.4-1.4-0.6c-0.2-0.1-0.5-0.3-0.7-0.4c-0.8-0.5-1.5-1.1-2.3-1.6c-1.2-0.6-2.5-1.1-3.7-1.7
	c-0.2-0.2-0.4-0.3-0.7-0.5c-0.6-0.4-1.2-0.7-1.9-1.1c-0.3-0.3-0.7-0.5-1-0.8c-0.8-0.5-1.6-1-2.4-1.6c-0.3-0.2-0.6-0.5-0.9-0.7
	c-1-1.1-1.9-2.2-3-3.2c-1.1-1.1-1.2-2,0-3.1c0.2,0,0.4,0,0.6,0c0.8,0.1,1.5,0.2,2.3,0.3c0.2,0,0.5,0.1,0.7,0.1c0.3,0,0.5,0,0.8,0
	l0.1-0.1c0,0,0.1,0.1,0.1,0.1c1.6,0.3,2.2-0.3,1.9-1.9c-0.1-0.2-0.1-0.4-0.2-0.6c-0.1-0.4-0.2-0.8-0.3-1.1c-0.2-0.3-0.4-0.7-0.7-1
	c-0.7-1-1.5-1.9-2.2-2.9c-1-1.1-2-2.2-3-3.3c-0.2-1.3-1-2.6,0.4-3.7c0.4-0.4,0.8-0.7,1.2-1.1c0.4-1.8-0.6-3.1-2.6-3.5
	c-0.5-0.4-1-0.9-1.5-1.3c-1-0.7-1.9-1.4-2.9-2c-0.8-0.8-1.6-1.6-2.4-2.4c-0.2-0.5-0.3-1-0.5-1.5c0,0,0,0,0,0c0.3-1,0.7-2.1,1-3.1
	c0.2-0.3,0.3-0.6,0.5-0.9c1.1-1.5,1.4-3.1,0-4.7c-0.2-0.2-0.3-0.4-0.5-0.7c-0.1-0.4,0-0.9-0.2-1.2c-1.2-1.2-2.5-2.4-3.8-3.6
	c-0.2-0.3-0.5-0.6-0.7-0.9c0.1-0.9,0.3-1.8,0.4-2.7c0.4-0.3,0.8-0.7,1.2-1c2.9-1.1,4.8-3.1,6-6c0.2-0.3,0.5-0.6,0.7-0.9
	c0.2-0.5,0.4-0.9,0.6-1.4c0.1-0.2,0.3-0.5,0.4-0.7c0.6-1.7,1.4-3.3,1.8-5c0.5-2.3-1.4-3.2-2.9-4.3c2-2.5,3.9-5,5.9-7.6
	c0.3-0.7,0.7-1.4,1-2l0-0.1c0.5-0.5,1.1-0.9,1.3-1.5c1.7-4.5,3.4-9,3.8-13.9c0-0.6-0.1-1.3-0.2-1.9c0,0,0-0.1,0-0.1
	c0.9-1.4,0.9-2.8,0.3-4.3l0-0.1c0.2-0.5,0.7-0.9,0.7-1.4c-0.1-1.5,0.8-2.3,1.7-3c0.9-0.6,2-0.9,2.9-1.4c2.1-1.3,4.9-1.4,6.3-3.7
	c2.5-2.2,4.4-4.6,4.9-8c0.4-2.3,1.8-3.8,4.3-4c1.4-0.1,2.7-0.4,4-0.5c5.3-0.2,10.4-0.9,15.3-2.8c5.7-2.2,10.8-5.3,15-9.7
	c0.3-0.3,0.9-0.3,1.4-0.4c0.2,0.8,0.5,1.6,0.7,2.3c0,0.2,0.1,0.3,0.1,0.5c0.5,1.5,1,3,1.5,4.5c0.2,0.2,0.4,0.5,0.6,0.7
	c0.2,0.2,0.3,0.3,0.5,0.5c0.7,0.2,1.4,0.4,2.1,0.5c0.9,0,1.8-0.1,2.7-0.1c0.7-0.1,1.3-0.2,2-0.4c1.4-0.4,2.8-0.9,4.2-1.3
	c0.2-0.1,0.3-0.2,0.5-0.3c0.5-0.2,1.1-0.5,1.6-0.7c0.2-0.1,0.4-0.2,0.5-0.3c0.6-0.4,1.2-0.7,1.8-1.1c1-0.9,2-1.8,3-2.8
	c1.1-0.3,2.2-0.5,3.3-0.8c0.2,0.1,0.3,0.2,0.5,0.3c1.7,1.4,3.3,2.7,5,4.1c0.3,0.3,0.6,0.5,1,0.8c1.3,0.6,2.5,1.2,3.8,1.8
	c0.2,0.1,0.4,0.2,0.6,0.2c1.8,0.2,3.5,0.4,5.3,0.6c0.2,0.2,0.5,0.4,0.7,0.6c0.2,0.2,0.4,0.4,0.6,0.6c0.3,0.4,0.7,0.8,1,1.2
	c1,1.6,1.9,3.2,2.9,4.8c0.2,0.2,0.3,0.4,0.5,0.7c0.3,0.7,0.5,1.4,0.9,2c0.5,0.5,1,1.7,2,0.6c0.2-0.2,0.4-0.4,0.6-0.6
	c0.2-0.5,0.4-0.9,0.6-1.4c0.3-0.2,0.6-0.5,0.9-0.7c1.1,1,2.2,2.1,3.4,3.1c0.4,0.5,0.8,1,1.2,1.5c0.5,0.8,1.1,1.6,1.6,2.4
	c0.8,0.8,1.6,1.6,2.5,2.4c0.4,0.1,1,0.3,1.1,0.2c0.7-0.9,1.2-1.8,1.8-2.7c0.2-0.2,0.3-0.4,0.5-0.7c0.4-0.6,0.7-1.3,1.1-1.9
	c0.2-0.2,0.4-0.5,0.6-0.7c0.7-0.7,1.5-1.1,2.4-0.2c0.1,0.2,0.3,0.5,0.4,0.7c0.5,1.1,0.9,2.1,1.4,3.2c0.1,0.2,0.3,0.5,0.4,0.7
	c0.5,1.1,0.9,2.1,1.4,3.2c0.1,0.2,0.3,0.5,0.4,0.7c0,0.2-0.1,0.4-0.1,0.5c1.5,3.9,3,7.8,4.6,11.8c0.2,0.6,0.3,1.3,0.5,1.9
	c0,0.2,0,0.5,0.1,0.7l0.1,0.1c0,0-0.1,0.1-0.1,0.1c0.1,0.7,0.3,1.5,0.4,2.2c0,0.2,0.1,0.3,0.1,0.5c0.1,0.5,0.1,0.9,0.2,1.4
	c0.1,0.5,0.1,0.9,0.2,1.3c0.1,1.1,0.2,2.2,0.3,3.3c0,0.3,0.1,0.6,0.1,0.9c0,0.3,0,0.5,0.1,0.8c0,0.2,0.1,0.5,0.1,0.7
	c0,0.4,0,0.7,0.1,1.1c0,0.3,0,0.6,0,0.9c0.1,1.4,0.2,2.7,0.3,4.1c0,0.2,0.1,0.4,0.1,0.7c0.1,1.3,0.2,2.6,0.3,3.8
	c0,0.5,0.1,1,0.1,1.5c0.1,0.6,0.1,1.3,0.2,1.9c0,0.2,0,0.3,0,0.5c0.1,0.5,0.1,0.9,0.2,1.4c0,0.3,0.1,0.6,0.1,1
	c0.5,2.5,1.1,5,1.6,7.5c0.1,0.3,0.2,0.6,0.4,0.9c0.5,1.2,1.1,2.3,1.6,3.5c0.4,0.5,0.8,1,1.2,1.5c1.1,1.1,2.2,2.2,3.3,3.4"/>
<path class="st9" d="M266.3,193.5c-0.5,0.1-1.1,0.1-1.4,0.4c-4.2,4.4-9.4,7.5-15,9.7c-4.9,1.9-10.1,2.6-15.3,2.8
	c-1.4,0-2.7,0.3-4,0.5c-2.5,0.3-3.9,1.8-4.3,4c-0.6,3.4-2.5,5.8-4.9,8c-3.8,1.7-7.9,2.8-10.8,6.1c-1,1.1-1.4,2.1-0.7,3.4
	c0,0,0,0.1,0,0.1c-0.1,1.4-0.2,2.9-0.3,4.3c0,0,0,0.1,0,0.1c-0.5,2.3-1,4.6-1.6,6.9c-0.6,2.4-1.4,4.8-2.1,7.2
	c-0.3,1.1-0.8,2.1-1.2,3.2c0,0,0,0.1,0,0.1c-0.3,0.7-0.7,1.4-1,2c-2,2.5-3.9,5-5.9,7.6c-0.2,0.3-0.3,0.5-0.5,0.8
	c-2.2,1.9-4.3,3.9-6.5,5.7c-1.3,1-2.7,1.7-4.1,2.5c-0.9,0.5-1.9,1-2.8,1.5c-0.7,0.2-1.5,0.3-2.2,0.6c-2.1,0.8-4.1,1.6-6.2,2.4
	c-0.9,0.3-1.7,0.7-2.5,1.1c-1,0.1-2,0.2-2.9,0.5c-4.8,1.6-9.6,3.8-14.9,1.9c-0.6-0.5-1.1-1.1-1.7-1.6c-0.9-1.3-1.8-2.6-2.7-3.9
	c0.1-0.1,0.1-0.1,0.1-0.2c0-0.2,0.1-0.3,0.1-0.5c0,0,0,0,0,0c0.2-1.3,0.4-2.6,0.7-3.9c-0.4-0.7-0.8-1.5-1.2-2.2
	c-0.3-0.5-0.6-1-0.8-1.5c-0.2-0.5-0.3-1-0.5-1.5c-0.4-1.2-0.6-2.6-1.2-3.7c-2.6-4.2-4.7-8.5-5.7-13.3c-0.7-3.3-0.8-6.8-1.2-10.2
	c0-0.2,0-0.4,0-0.6c0-0.1,0-0.3,0-0.4c0,0,0,0,0,0c0.1-0.3,0.2-0.5,0.3-0.8c0.7-2.3,1.5-4.6,2.2-6.8c0.3-0.2,0.7-0.4,0.9-0.7
	c1.3-2.3,2.3-4.8,3.9-6.8c2.2-2.7,4.8-5.2,7.5-7.3c2.3-1.7,5-2.8,7.6-4.2c0,0,0,0,0,0c0.5-0.2,1-0.4,1.5-0.6c0.1,0,0.2-0.1,0.3-0.1
	c1.7-0.2,3.4-0.3,5-0.6c1.9-0.3,3.9-0.7,5.8-1c0,0,0,0,0,0c1.4,0,2.7,0,4.1,0l0,0c1.7,0.3,3.5,0.5,5.2,0.9c2.1,0.4,4.3,0.8,6.4,1.4
	c2.5,0.7,5,1.6,7.5,2.4l0,0c1.2,0.5,2.4,1.1,3.6,1.6c3.4,1.4,7.1,1.5,9.9-1.7c0.7-0.8,1.5-1.6,2.3-2.3c2.4-2.4,3-5.2,1.7-8.2
	c-2.2-5.3-4.4-10.5-6.7-15.7c0-0.2,0.1-0.5,0.1-0.7c-1.6-7.7-1.3-15.4,1.8-22.6c1.5-3.6,3.5-7,5.7-10.2c1.8-2.7,4.2-5,6.3-7.5
	c0.2-0.1,0.4-0.3,0.5-0.4c3.6-1.6,7.2-3.2,10.7-4.8c0.7-0.3,1.4-0.6,2.1-0.9c4.3-1.3,8.7-1.9,13.1-1.1c4.9,0.9,9.5,2.9,13.8,5.3
	c2.7,1.5,5.2,3.1,8,4.3c1.3,0.6,3,0.5,4.5,0.6c1.2,0.1,2.4,0.1,3.6,0.2c0.4,0,0.9,0.2,1.1,0.5c1.5,2.1,2.9,4.2,4.3,6.3
	c0.8,1.4,0.2,2.7-0.4,4c-2.9,5.5-4.4,11.5-6.4,17.3c-1.4,3.8-3.2,7.5-5.3,10.9c-2.1,3.3-4.8,6.3-7.2,9.4c0,0-0.1,0.1-0.1,0.1
	S266.3,193.5,266.3,193.5z M245.3,197.9L245.3,197.9c0.5-0.1,0.9-0.2,1.3-0.2l0.1,0c2.8,0.3,5.2-0.9,7.4-2.4
	c1.5-0.8,3.3-1.4,4.6-2.5c4.5-4.1,8.9-8.1,11.1-14.1c1.5-4.1,2.7-8.2,2.2-12.6c0.9-2,0-3.8-0.5-5.6l0-0.1c-0.1-0.2-0.1-0.4-0.2-0.6
	c-0.1-0.6,0-1.2-0.2-1.7c-1.6-4.2-3.5-8.1-6.8-11.3c-6.5-6.1-14.3-8.5-22.9-7.2c-7.4,1.1-13.7,4.5-18.7,10.4
	c-3.7,4.3-6.2,9.2-7.3,14.6c-2,9.5,0,18.2,6.6,25.5c3.2,3.6,7.5,5.6,11.9,7.1c3.4,1.2,7,1.6,10.6,0.8
	C244.6,198,244.9,198,245.3,197.9z M202.8,235.3c0-0.7,0.3-1.6,0.1-2.2c-0.7-1.6,0.3-3.6-1.1-5c-1.7-7-5.8-12.3-12-15.9
	c-5.2-3.1-10.9-4.3-16.9-3.6c-5.5,0.6-10.4,2.8-14.9,6.1c-5.4,3.9-8.8,9.2-11.1,15.1c-1.9,4.8-2.1,10.1-1.3,15.3
	c1,6.3,3.8,11.7,8.7,15.9c3.5,3,7.6,4.9,12,6.1c5.4,1.4,10.5,0.7,15.6-1.4c2.5-1,5.3-1.9,7.3-3.5c4.6-3.8,8.6-8.1,11-13.8
	C202,244,203.1,239.8,202.8,235.3z"/>
<path class="st9" d="M56.1-57.1c-3.2-3-6.5-6-9.7-9c-1.9-1.8-1.8-1.8-3.6-0.1C6.6-29.9-29.7,6.3-65.9,42.5c-1.1,1.1-1.3,1.9,0,2.9
	c0.5,0.4,0.8,0.9,1.2,1.3c-0.1,0-0.2,0.1-0.2,0c-3-2.7-3-2.7-0.1-5.6C-29,5.1,7.1-31,43.2-67.2c1.1-1.1,1.8-1.1,2.8,0
	C49.4-63.7,52.7-60.4,56.1-57.1z"/>
<path class="st13" d="M163.2,206.5c-2.6,1.4-5.3,2.4-7.6,4.2c-2.8,2.1-5.3,4.6-7.5,7.3c-1.6,2-2.6,4.5-3.9,6.8
	c-0.2,0.3-0.6,0.5-0.9,0.7c-0.3-0.4-0.7-0.8-1-1.2c2.8-2,3.4-5.4,5.5-7.8c1.4-1.6,3.1-3,4.5-4.6c1.4-1.6,4.3-1.6,4.8-4.2
	c0.1-0.5,0.8-0.8,1.5-1c-0.2,0.5-0.5,0.9-0.7,1.4c0.2,0.1,0.3,0.2,0.5,0.3c0.7-1,1.3-2,2.3-3.3c0,0.8-0.1,1.2-0.1,1.6
	C161.4,206.7,162.3,206.6,163.2,206.5z"/>
<path class="st14" d="M140.7,234.3c0.4,3.4,0.5,6.8,1.2,10.2c0.9,4.8,3.1,9.1,5.7,13.3c0.7,1.1,0.8,2.5,1.2,3.7
	c-1.2-2.2-2.5-4.3-3.6-6.6c-1.3-2.7-2.3-5.4-3.4-8.2c0,0,0,0,0,0c-0.4-0.8-0.9-1.6-1.3-2.4c-0.3-0.6-0.5-1.1-0.9-2
	c0.5,0.2,0.8,0.3,1.1,0.4c-0.1-2.2-0.3-4.5-0.4-6.7C140.3,235.4,140.6,234.8,140.7,234.3z"/>
<path class="st13" d="M237.4,135.4c-0.7,0.3-1.4,0.6-2.1,0.9c-3.6,1.6-7.2,3.2-10.7,4.8c1.2-0.9,2.5-1.8,3.7-2.8
	c0.4-0.3,0.7-0.9,0.9-1.2c2.3-0.6,4.6-1.2,6.9-1.8c-0.8-2.2-1.6-4.4-2.4-6.5c-0.1-0.3,0.1-0.6,0.1-1c0.7,1.8,1.4,3.7,2.2,5.5
	C236.3,134,236.9,134.7,237.4,135.4z"/>
<path class="st13" d="M231.1,342.2c2.5,0.5,5.1,0.9,7.6,1.5c3.2,0.8,6.4,1.6,9.6,2.6c2,0.6,3.8,1.5,5.7,2.3
	c-4.9-1.4-9.9-2.9-14.8-4.3C236.4,343.6,233.7,342.9,231.1,342.2z"/>
<path class="st13" d="M174.4,274.5c-0.6,0-1.2-0.1-1.8-0.1c0.8-0.4,1.7-0.8,2.5-1.1c2.1-0.8,4.1-1.6,6.2-2.4
	c0.7-0.3,1.5-0.4,2.2-0.6c0.1-0.1,0.1-0.1,0.2-0.2c0,0,0.1,0,0.1-0.1c-1.7,1-3.3,2-5,2.9c-0.8,0.5-1.8,0.8-2.7,1.1c0,0,0,0,0,0
	C175.6,274.3,175,274.4,174.4,274.5z"/>
<path class="st9" d="M50.1,123.9c4.7,1.6,9.3,3.2,14,4.8c0.4,0.1,0.7,0.3,1.1,0.5c-4.1-1.4-8.2-2.8-12.3-4.3
	C52,124.6,51,124.3,50.1,123.9z"/>
<path class="st9" d="M93.2,167.5c3.2,3.2,6.5,6.5,9.7,9.7C99.7,173.9,96.5,170.7,93.2,167.5z"/>
<path class="st13" d="M237.8,295.5c-1-0.6-2.1-1.1-2.9-1.9c-2.2-2.1-4.3-4.4-6.5-6.6C231.5,289.9,234.7,292.7,237.8,295.5z"/>
<path class="st13" d="M192.6,90.8c-0.1,0-0.3,0.1-0.3,0c-3.7-2.6-7.1-5.5-9.3-9.6c1.3,1.4,2.5,2.9,3.9,4.3
	C188.7,87.3,190.7,89,192.6,90.8z"/>
<path class="st13" d="M342.7,234.4c-1.5-3.9-3.1-7.8-4.6-11.8c-0.1-0.1,0.1-0.3,0.1-0.5C340.3,225.9,342,230,342.7,234.4z"/>
<path class="st13" d="M221.8,268.7c0.8,0.4,1.6,0.8,2.5,1.2c2.5,1,5,2.1,7.5,3.1c0.3,0.1,0.6,0.4,0.9,0.5
	C228.6,272.8,225.1,271,221.8,268.7z"/>
<path class="st13" d="M279.6,249.6c0.8-0.2,1.6-0.4,2.4-0.5c3.3-0.1,3.8-0.9,2.8-3.9c-0.1-0.3,0-0.6,0-0.9c2,3.3,1.3,4.9-2.5,5.3
	C281.5,249.7,280.5,249.6,279.6,249.6z"/>
<path class="st13" d="M247.7,304.4c-2.4-2.1-4.7-4.2-7.1-6.3C242.9,300.2,245.3,302.3,247.7,304.4z"/>
<path class="st13" d="M201.3,322.8c-1.1,1-1.1,2,0,3.1c1,1,2,2.1,3,3.2c-1.4-1.4-2.9-2.6-4.1-4.1C199.3,323.9,199.9,323,201.3,322.8
	z"/>
<path class="st13" d="M197.1,260.7c0.2-0.3,0.3-0.5,0.5-0.8c1.5,1.1,3.4,2,2.9,4.3c-0.4,1.7-1.2,3.4-1.8,5c0.4-1.3,0.8-2.5,1.1-3.8
	C200.4,262.6,199.8,261.6,197.1,260.7z"/>
<path class="st13" d="M262,326.9c-1.3-3.4-2.7-6.8-4-10.1C259.3,320.2,260.7,323.6,262,326.9z"/>
<path class="st13" d="M219.9,338.3c2.1,0.7,4.2,1.3,6.2,2c1,0.3,1.9,0.8,2.8,1.2C225.9,340.5,222.9,339.4,219.9,338.3z"/>
<path class="st13" d="M196.9,272.3c-1.1,2.8-3.1,4.9-6,6C192.9,276.2,194.9,274.3,196.9,272.3z"/>
<path class="st13" d="M282.3,224.8c1.9,1.7,4.2,3.1,5,5.8C285.6,228.7,283.9,226.7,282.3,224.8z"/>
<path class="st13" d="M217.3,270.8c-0.8-1.8-1.7-3.7-2.4-5.5c-0.1-0.2,0.7-1,1-0.9c0.5,0.1,0.9,0.7,1.3,1c-0.4-0.1-0.9-0.1-1.6-0.2
	C216.2,267.2,216.7,269,217.3,270.8z"/>
<path class="st9" d="M106.7-8.8c-1.8-1.8-3.5-3.6-5.3-5.4C103.2-12.4,105-10.6,106.7-8.8z"/>
<path class="st13" d="M226.4,285c-1.7-1.7-4-2.9-4.6-5.5C223.3,281.4,224.9,283.2,226.4,285z"/>
<path class="st14" d="M151.3,266.6c-0.2,1.3-0.4,2.6-0.7,3.9c-0.2-0.4-1.7,0.1-0.7-1.1c0-0.1-0.1-0.4-0.2-0.4
	c-1-0.1-1.3-0.7-0.8-1.4c0.2-0.3,1.2-0.2,1.9-0.3C151,267.2,151.2,266.9,151.3,266.6z"/>
<path class="st13" d="M296.8,199.3c-1.7-1.4-3.3-2.7-5-4.1C293.5,196.5,295.2,197.9,296.8,199.3z"/>
<path class="st13" d="M281.6,274.8c1,2.4,2,4.7,3,7.1C283.6,279.5,282.6,277.2,281.6,274.8z"/>
<path class="st13" d="M190.1,282.8c1.3,1.2,2.6,2.4,3.8,3.6c0.2,0.2,0.1,0.8,0.2,1.2C192.8,286,191.4,284.4,190.1,282.8z"/>
<path class="st13" d="M347.7,272.5c-0.5-2.5-1.1-5-1.6-7.5C346.6,267.4,347.2,270,347.7,272.5z"/>
<path class="st13" d="M277.4,270.5c1.9,0.3,3.5,2,3.9,3.9C280,273.1,278.7,271.8,277.4,270.5z"/>
<path class="st13" d="M211.1,333.7c1.2,0.5,2.5,1,3.7,1.7c0.8,0.4,1.5,1,2.3,1.6C215.1,335.8,213.1,334.7,211.1,333.7z"/>
<path class="st9" d="M131.1,214.3c1.5,1.3,2.9,2.5,4.4,3.7C134.1,216.8,132.6,215.6,131.1,214.3z"/>
<path class="st13" d="M277.7,255.7c-2.3-0.9-4.5-1.9-6.8-2.8C273.1,253.8,275.4,254.8,277.7,255.7z"/>
<path class="st13" d="M276.1,219.5c2.2,0.4,3.2,2.2,4.5,3.7C279.1,221.9,277.6,220.7,276.1,219.5z"/>
<path class="st9" d="M70.9,134.8c-1.8,0.8-3.7,1.6-5.5,2.3C67.2,136.4,69,135.6,70.9,134.8z"/>
<path class="st13" d="M144.9,35.8c-0.8-1.6-1.7-3.2-2.5-4.8c-0.3-0.6-0.3-1.3-0.4-1.9C143,31.3,144,33.5,144.9,35.8z"/>
<path class="st13" d="M267.5,229.3c0.9-0.4,1.8-0.7,2.7-1.2c1.2-0.6,2.4-1.3,3.6-2C272.4,228.5,269.8,228.6,267.5,229.3z"/>
<path class="st13" d="M216.1,114.3c-2.2-0.5-3.6-1.9-4.2-4.1C213.3,111.6,214.7,113,216.1,114.3z"/>
<path class="st13" d="M263.9,333.9c-0.6-2.1-1.1-4.2-1.7-6.4C262.8,329.7,263.3,331.8,263.9,333.9z"/>
<path class="st13" d="M312.7,209.7c-1-1.6-1.9-3.2-2.9-4.8C310.8,206.6,311.7,208.1,312.7,209.7z"/>
<path class="st13" d="M305.1,255.9c1.1,1.4,2.2,2.8,3.3,4.2C307.3,258.7,306.2,257.3,305.1,255.9z"/>
<path class="st13" d="M201.7,308.7c-1.4,1.1-0.5,2.5-0.4,3.7C199.6,310.6,199.7,309.2,201.7,308.7z"/>
<path class="st13" d="M285.2,262c-1.3-1.3-2.5-2.5-3.8-3.8C282.7,259.5,284,260.8,285.2,262z"/>
<path class="st9" d="M123.7,207.3c1.2,1.2,2.4,2.4,3.6,3.6C126.1,209.7,124.9,208.5,123.7,207.3z"/>
<path class="st13" d="M307.4,202.6c-1.8-0.2-3.5-0.4-5.3-0.6C303.9,202.3,305.7,202.4,307.4,202.6z"/>
<path class="st9" d="M14.9,102.7c1.8,0.5,3.5,1.1,5.3,1.6C18.4,103.8,16.7,103.2,14.9,102.7z"/>
<path class="st13" d="M255.7,313.3c-1-1.2-1.9-2.5-2.9-3.7C253.8,310.8,254.8,312,255.7,313.3z"/>
<path class="st13" d="M316.2,267.9c1.3,1.1,2.6,2.1,4,3.2C318.9,270,317.6,269,316.2,267.9z"/>
<path class="st13" d="M321.5,213.4c-1.1-1-2.2-2.1-3.4-3.1C320.2,210.2,320.7,211.9,321.5,213.4z"/>
<path class="st13" d="M238.5,274.1c1.7-0.1,3.4-0.1,5.1-0.2C241.9,274,240.2,274.1,238.5,274.1z"/>
<path class="st13" d="M219.9,276.5c-0.8-1.7-1.5-3.4-2.3-5.2C218.3,273,219.1,274.8,219.9,276.5z"/>
<path class="st13" d="M141.8,28.5c-0.8-1.8-1.5-3.5-2.3-5.3C140.3,25,141,26.7,141.8,28.5z"/>
<path class="st13" d="M200.3,304.1c2,0.4,2.9,1.7,2.6,3.5C202,306.4,201.1,305.3,200.3,304.1z"/>
<path class="st13" d="M333.5,278.6c1.8,0.6,3.7,1.2,5.5,1.8C337.2,279.8,335.3,279.2,333.5,278.6z"/>
<path class="st14" d="M150.5,271.2c0.9,1.3,1.8,2.6,2.7,3.9c-0.9-0.1-1.7-0.1-2.1-1.4c-0.2-0.8-1.2-1.4-1.9-2
	C149.6,271.6,150,271.4,150.5,271.2z"/>
<path class="st13" d="M245.8,273.6c1.7-0.3,3.5-0.7,5.2-1C249.3,272.9,247.6,273.3,245.8,273.6z"/>
<path class="st9" d="M85.6-25.9c-1.2-0.7-1.8-2.5-3.7-2.1C84-28.8,84.7-27.2,85.6-25.9z"/>
<path class="st13" d="M329.7,217.1c-0.6,0.9-1.1,1.9-1.8,2.7c-0.1,0.1-0.7-0.1-1.1-0.2C327.7,218.8,328.7,218,329.7,217.1z"/>
<path class="st13" d="M271.4,231.9c-1.3-0.3-2.7-0.7-4-1.1c-0.2-0.1-0.1-0.8-0.1-1.3c0.5,0.4,0.9,1,1.4,1.3
	C269.6,231.3,270.5,231.5,271.4,231.9z"/>
<path class="st13" d="M290,271c-0.6-1.6-1.3-3.3-1.9-4.9C288.7,267.7,289.3,269.4,290,271z"/>
<path class="st9" d="M111.9-2.6c-0.7-0.9-1.5-1.9-2.2-2.8C110.5-4.5,111.2-3.6,111.9-2.6z"/>
<path class="st13" d="M194.5,288.2c1.4,1.6,1,3.1,0,4.7C194.5,291.3,194.5,289.8,194.5,288.2z"/>
<path class="st9" d="M-4.5,95.2c1.3,0.5,2.7,1,4,1.5c0.1,0,0.1,0,0.2,0.1c0,0,0,0.1-0.1,0.1C-1.7,96.3-3.1,95.8-4.5,95.2z"/>
<path class="st13" d="M265.8,349c-0.1-1.4-0.1-2.8-0.2-4.2C265.7,346.3,265.7,347.6,265.8,349z"/>
<path class="st13" d="M334.2,213.6c-0.9-0.8-1.7-0.4-2.4,0.2c0.3-0.6,0.7-1.3,1-1.9c0.2,0,0.4,0,0.6,0
	C333.7,212.5,333.9,213.1,334.2,213.6z"/>
<path class="st9" d="M68.5-45c-0.6-1.3-1.2-2.6-1.9-4C67.3-47.6,67.9-46.3,68.5-45z"/>
<path class="st13" d="M354.3,281.6c-1.1-1.1-2.2-2.2-3.3-3.4C352.1,279.4,353.2,280.5,354.3,281.6"/>
<path class="st13" d="M288.7,232.3c0.8,1.1,1.6,2.2,2.4,3.2C290.3,234.5,289.5,233.4,288.7,232.3z"/>
<path class="st9" d="M60.8-55.4c-0.6,1.1-0.8,1.1-2.7,0C59-55.4,59.9-55.4,60.8-55.4z"/>
<path class="st13" d="M316.1,212.9c-1,1.1-1.5,0-2-0.6c-0.5-0.5-0.6-1.3-0.9-2C314.1,211.2,315.1,212.1,316.1,212.9z"/>
<path class="st13" d="M257.5,270.8c1.5-0.4,3.1-0.8,4.6-1.1C260.6,270,259,270.4,257.5,270.8z"/>
<path class="st13" d="M271,217.4c1.4,0.5,2.8,0.9,4.2,1.4C273.8,218.3,272.4,217.8,271,217.4z"/>
<path class="st13" d="M268.6,200.9c-0.5-1.5-1-3-1.5-4.5C267.6,197.9,268.1,199.4,268.6,200.9z"/>
<path class="st9" d="M116.3,2.8c-0.6-0.9-1.3-1.7-1.9-2.6C115.1,1.1,115.7,2,116.3,2.8z"/>
<path class="st9" d="M62.7,139.7c0.9,0.7,1.8,1.4,2.7,2.1C64.5,141.1,63.6,140.4,62.7,139.7z"/>
<path class="st13" d="M291.3,194.9c-1.1,0.3-2.2,0.5-3.3,0.8C289,195,290,194,291.3,194.9z"/>
<path class="st13" d="M345.1,254.3c-0.1-1.4-0.2-2.7-0.3-4.1C344.9,251.6,345,252.9,345.1,254.3z"/>
<path class="st13" d="M270.9,250.7c1.3-0.3,2.6-0.6,4-0.9C273.6,250.1,272.2,250.4,270.9,250.7z"/>
<path class="st13" d="M327.1,275.7c1.2,0.5,2.3,1.1,3.5,1.6C329.4,276.7,328.2,276.2,327.1,275.7z"/>
<path class="st13" d="M252.5,272.2c1.4-0.4,2.8-0.8,4.2-1.2C255.3,271.4,253.9,271.8,252.5,272.2z"/>
<path class="st13" d="M204.3,315.7c0.7,1,1.5,1.9,2.2,2.9C205.8,317.6,205.1,316.7,204.3,315.7z"/>
<path class="st13" d="M275.4,249.7c1.3,0,2.7-0.1,4-0.1C278,249.6,276.7,249.7,275.4,249.7z"/>
<path class="st13" d="M321.1,271.8c1,0.7,2,1.3,3,2C323.1,273.1,322.1,272.5,321.1,271.8z"/>
<path class="st13" d="M349.7,276.8c-0.5-1.2-1.1-2.3-1.6-3.5C348.6,274.5,349.1,275.6,349.7,276.8z"/>
<path class="st9" d="M120.8,200.3c0.2,1.1,0.4,2.1,0.6,3.2C121.2,202.4,121,201.3,120.8,200.3z"/>
<path class="st9" d="M36.4,119c1.1,0.4,2.3,0.9,3.4,1.3C38.7,119.9,37.5,119.5,36.4,119z"/>
<path class="st13" d="M301.5,201.8c-1.3-0.6-2.5-1.2-3.8-1.8C299,200.7,300.3,201.2,301.5,201.8z"/>
<path class="st13" d="M195.9,300.8c1,0.7,1.9,1.4,2.9,2C197.8,302.1,196.9,301.4,195.9,300.8z"/>
<path class="st13" d="M302.2,252c0.6,0.9,1.2,1.8,1.9,2.7C303.4,253.8,302.8,252.9,302.2,252z"/>
<path class="st13" d="M220.7,116c-1.5,0.4-2.8-0.1-3.9-1.2C218.1,115.2,219.4,115.6,220.7,116z"/>
<path class="st9" d="M95.3,158.8c0.3,0,0.5,0.1,0.8,0.1c-0.1,0.2-0.2,0.7-0.3,0.7c-0.6,0.1-1.1,0.1-1.7,0.1
	C94.5,159.4,94.9,159.1,95.3,158.8z"/>
<path class="st13" d="M345.5,258.8c-0.1-1.3-0.2-2.6-0.3-3.8C345.3,256.3,345.4,257.5,345.5,258.8z"/>
<path class="st13" d="M336,217.5c-0.5-1.1-0.9-2.1-1.4-3.2C335.1,215.4,335.5,216.4,336,217.5z"/>
<path class="st9" d="M120,7.5c-0.5-0.7-1-1.4-1.4-2.1C119,6.1,119.5,6.8,120,7.5z"/>
<path class="st13" d="M277.1,235.5c-0.8-0.5-1.6-1.1-2.4-1.6C275.5,234.5,276.3,235,277.1,235.5z"/>
<path class="st9" d="M126.5,16c-0.5-0.7-1-1.4-1.4-2.1C125.5,14.6,126,15.3,126.5,16z"/>
<path class="st13" d="M150.5,47.4c-0.6-1.1-1.1-2.3-1.7-3.4C149.4,45.1,149.9,46.2,150.5,47.4z"/>
<path class="st13" d="M280.6,200.9c-1.4,0.4-2.8,0.9-4.2,1.3C277.8,201.8,279.2,201.3,280.6,200.9z"/>
<path class="st9" d="M41.3,120.8c1.1,0.4,2.1,0.7,3.2,1.1C43.4,121.6,42.3,121.2,41.3,120.8z"/>
<path class="st13" d="M194,293.7c-0.3,1-0.7,2.1-1,3.1C193.4,295.8,193.7,294.8,194,293.7z"/>
<path class="st9" d="M-16.1,89.7c0.9,0.4,1.7,0.8,2.6,1.2C-14.4,90.5-15.3,90.1-16.1,89.7z"/>
<path class="st13" d="M284.2,243.4c-0.5-0.8-1.1-1.6-1.6-2.4C283.1,241.8,283.7,242.6,284.2,243.4z"/>
<path class="st13" d="M337.8,221.4c-0.5-1.1-0.9-2.1-1.4-3.2C336.9,219.2,337.4,220.3,337.8,221.4z"/>
<path class="st13" d="M147.4,41.2c-0.5-1.1-0.9-2.1-1.4-3.2C146.5,39,146.9,40.1,147.4,41.2z"/>
<path class="st13" d="M189.7,279.2c-0.1,0.9-0.3,1.8-0.4,2.7C188.4,280.9,188.5,279.9,189.7,279.2z"/>
<path class="st13" d="M207.7,321.3c0.3,1.6-0.3,2.2-1.9,1.9C206.5,322.6,207.1,322,207.7,321.3z"/>
<path class="st13" d="M291.8,236.5c0.5,0.8,1.1,1.6,1.6,2.4C292.9,238.1,292.4,237.3,291.8,236.5z"/>
<path class="st13" d="M324.3,217.3c-0.5-0.8-1.1-1.6-1.6-2.4C323.2,215.6,323.8,216.4,324.3,217.3z"/>
<path class="st9" d="M89.5,161.7c0.4,0.9,0.7,1.8,1.1,2.7C90.2,163.5,89.8,162.6,89.5,161.7z"/>
<path class="st9" d="M129.1,19.7c-0.4-0.6-0.8-1.3-1.2-1.9C128.3,18.5,128.7,19.1,129.1,19.7z"/>
<path class="st9" d="M34.4,109.6c-0.1,1.4-1.2,0.8-1.9,0.9C33.1,110.3,33.8,110,34.4,109.6z"/>
<path class="st13" d="M205.2,329.8c0.8,0.5,1.6,1,2.4,1.6C206.8,330.8,206,330.3,205.2,329.8z"/>
<path class="st13" d="M297.8,245.5c0.5,0.8,1.1,1.6,1.6,2.4C298.9,247.2,298.3,246.4,297.8,245.5z"/>
<path class="st9" d="M45.9,122.4c0.9,0.3,1.8,0.7,2.7,1C47.8,123.1,46.8,122.8,45.9,122.4z"/>
<path class="st9" d="M-10.2,92.6c0.9,0.3,1.8,0.7,2.6,1C-8.4,93.3-9.3,93-10.2,92.6z"/>
<path class="st13" d="M344.4,245.9c-0.1-1.1-0.2-2.2-0.3-3.3C344.2,243.7,344.3,244.8,344.4,245.9z"/>
<path class="st13" d="M339.3,280.5c1.1,0.2,2.1,0.4,3.2,0.6C341.5,280.9,340.4,280.7,339.3,280.5z"/>
<path class="st13" d="M269.4,268.7c1.1,0.1,2.2,0.1,3.3,0.2C271.6,268.8,270.5,268.8,269.4,268.7z"/>
<path class="st13" d="M258.3,350.7c0.8,0.5,1.6,1,2.4,1.5C259.9,351.7,259.1,351.2,258.3,350.7z"/>
<path class="st9" d="M123.3,11.9c-0.4-0.6-0.8-1.2-1.2-1.8C122.5,10.7,122.9,11.3,123.3,11.9z"/>
<path class="st13" d="M299.9,248.6c0.5,0.7,0.9,1.4,1.4,2.1C300.8,250.1,300.3,249.3,299.9,248.6z"/>
<path class="st13" d="M218.4,266.3c0.7,0.5,1.4,0.9,2.2,1.4C219.8,267.3,219.1,266.8,218.4,266.3z"/>
<path class="st13" d="M210.8,108.7c-0.5-0.8-1.1-1.7-1.6-2.5C209.7,107.1,210.2,107.9,210.8,108.7z"/>
<path class="st13" d="M208.4,105.4c-0.5-0.8-1.1-1.6-1.6-2.4C207.3,103.8,207.9,104.6,208.4,105.4z"/>
<path class="st13" d="M254.8,349c1,0.5,2,1,3,1.4C256.8,349.9,255.8,349.4,254.8,349z"/>
<path class="st13" d="M227.5,118.5c-1-0.5-2-1-3-1.4C225.5,117.5,226.5,118,227.5,118.5z"/>
<path class="st13" d="M271.3,220.1c-0.8-0.6-2-0.9-1.6-2.3C270.2,218.6,270.7,219.3,271.3,220.1z"/>
<path class="st13" d="M199.3,95.4c-0.7-0.5-1.4-0.9-2.2-1.4C197.9,94.5,198.6,95,199.3,95.4z"/>
<path class="st9" d="M117.5,191.8c0.3,0.5,0.6,1,1,1.6C118.1,192.8,117.8,192.3,117.5,191.8z"/>
<path class="st13" d="M264.4,354.5c0.4-0.8,0.9-1.6,1.3-2.5C265.9,353.2,265.9,354.2,264.4,354.5z"/>
<path class="st9" d="M67.2,143.1c0.5,0.3,1.1,0.6,1.6,1C68.3,143.8,67.7,143.5,67.2,143.1z"/>
<path class="st13" d="M179.3,76.4c-0.5-0.8-1-1.7-1.5-2.5C178.3,74.7,178.8,75.6,179.3,76.4z"/>
<path class="st13" d="M295.8,242.4c0.5,0.8,1,1.6,1.5,2.4C296.8,244.1,296.3,243.3,295.8,242.4z"/>
<path class="st13" d="M208.6,332.1c0.6,0.4,1.2,0.7,1.9,1.1C209.8,332.8,209.2,332.4,208.6,332.1z"/>
<path class="st13" d="M274,269.2c0.9,0.3,1.8,0.6,2.7,0.9C275.8,269.8,274.9,269.5,274,269.2z"/>
<path class="st13" d="M324.5,274.1c0.6,0.4,1.3,0.7,1.9,1.1C325.8,274.8,325.2,274.5,324.5,274.1z"/>
<path class="st13" d="M294,239.6c0.4,0.7,0.8,1.4,1.3,2.1C294.8,241,294.4,240.3,294,239.6z"/>
<path class="st13" d="M181.5,79.5c-0.5-0.7-0.9-1.5-1.4-2.2C180.6,78,181.1,78.8,181.5,79.5z"/>
<path class="st13" d="M195.9,93.1c-0.7-0.5-1.5-0.9-2.2-1.4C194.5,92.2,195.2,92.6,195.9,93.1z"/>
<path class="st13" d="M287.7,265.6c-0.4-0.7-0.8-1.4-1.2-2.1C286.9,264.2,287.3,264.9,287.7,265.6z"/>
<path class="st13" d="M163.9,48.4c-1,0-1,0-0.9-1.7C163.4,47.3,163.6,47.9,163.9,48.4z"/>
<path class="st13" d="M285,198.4c-0.6,0.4-1.2,0.7-1.8,1.1C283.8,199.2,284.4,198.8,285,198.4z"/>
<path class="st13" d="M331.2,214.5c-0.4,0.6-0.7,1.3-1.1,1.9C330.5,215.8,330.9,215.2,331.2,214.5z"/>
<path class="st13" d="M274.4,202.6c-0.9,0-1.8,0.1-2.7,0.1C272.6,202.6,273.5,202.6,274.4,202.6z"/>
<path class="st9" d="M99.1-8.9c-0.1,0.7-0.2,1.3-0.3,2C98.9-7.6,99-8.2,99.1-8.9z"/>
<path class="st13" d="M138.1,20.5c-0.6-0.2-1.1-0.3-1.7-0.5c0-0.4,0.1-0.8,0.1-1.2c0.2-0.1,0.3-0.1,0.5-0.2
	C137.4,19.2,137.7,19.8,138.1,20.5z"/>
<path class="st13" d="M162.6,46.1c-1.6,0.1-0.9-1.2-1.1-1.9C161.9,44.8,162.2,45.5,162.6,46.1z"/>
<path class="st9" d="M66.9,129.9c0.6,0.3,1.3,0.6,1.9,0.8C68.2,130.5,67.6,130.2,66.9,129.9z"/>
<path class="st13" d="M274.1,233.4c-0.7-0.4-1.5-0.8-2.2-1.2C272.6,232.6,273.4,233,274.1,233.4z"/>
<path class="st9" d="M75.2-32.1c-0.3-0.4-0.5-0.9-0.8-1.3C74.7-33,74.9-32.5,75.2-32.1z"/>
<path class="st13" d="M152.3,50.2c-0.4-0.6-0.7-1.3-1.1-1.9C151.5,48.9,151.9,49.6,152.3,50.2z"/>
<path class="st9" d="M131.2,22.8c-0.2-0.4-0.5-0.9-0.7-1.3C130.7,21.9,130.9,22.3,131.2,22.8z"/>
<path class="st13" d="M257.5,316.1c-0.4-0.6-0.7-1.3-1.1-1.9C256.8,314.8,257.2,315.5,257.5,316.1z"/>
<path class="st9" d="M-16,77.6c0.3,0.1,0.6,0.2,0.9,0.3c-0.3,0.1-0.6,0.3-0.9,0.4C-15.9,78.1-15.9,77.8-16,77.6z"/>
<path class="st13" d="M280.3,257.2c-0.6-0.4-1.3-0.7-1.9-1.1C279,256.5,279.7,256.9,280.3,257.2z"/>
<path class="st9" d="M96.5-7.7c-0.3-0.5-0.5-0.9-0.8-1.4C96-8.6,96.2-8.2,96.5-7.7z"/>
<path class="st9" d="M83.5,153.2c0.4,0.2,0.7,0.4,1.1,0.5C84.2,153.5,83.9,153.4,83.5,153.2z"/>
<path class="st9" d="M8.4,100.4c0.5,0.2,1.1,0.4,1.6,0.6C9.5,100.8,9,100.6,8.4,100.4z"/>
<path class="st9" d="M23.7,105.3c0.6,0.2,1.1,0.4,1.7,0.5C24.8,105.7,24.2,105.5,23.7,105.3z"/>
<path class="st9" d="M4.6,99c0.5,0.2,1.1,0.4,1.6,0.6c-0.5-0.1-1-0.3-1.5-0.4c-0.1,0-0.1,0-0.2-0.1C4.5,99.1,4.5,99.1,4.6,99z"/>
<path class="st13" d="M266.3,193.5c0,0,0.1-0.1,0.1-0.1s0.1-0.1,0.1-0.1c0.2,0.9,0.3,1.7,0.5,2.6
	C266.7,195.1,266.5,194.3,266.3,193.5z"/>
<path class="st13" d="M343.7,239.4c-0.1-0.7-0.3-1.5-0.4-2.2C343.4,237.9,343.5,238.6,343.7,239.4z"/>
<path class="st9" d="M71.8,132.2c0.3,0.3,0.5,0.6,0.8,0.8C72.3,132.8,72.1,132.5,71.8,132.2z"/>
<path class="st9" d="M135.1,28.1c-0.3-0.3-0.6-0.5-0.8-0.8C134.6,27.6,134.8,27.9,135.1,28.1z"/>
<path class="st9" d="M90.6-17.8c-0.2-0.4-0.4-0.8-0.6-1.1C90.2-18.6,90.4-18.2,90.6-17.8z"/>
<path class="st13" d="M274.2,224.2c-0.3-0.6-0.6-1.2-0.9-1.9C273.6,222.9,273.9,223.6,274.2,224.2z"/>
<path class="st13" d="M221.2,278.8c-0.3-0.6-0.7-1.2-1-1.9C220.6,277.6,220.9,278.2,221.2,278.8z"/>
<path class="st9" d="M93.3-12.9c-0.2-0.4-0.3-0.7-0.5-1.1C93-13.7,93.2-13.3,93.3-12.9z"/>
<path class="st13" d="M231.7,123.5c-0.3-0.5-0.6-1.1-0.9-1.6C231.1,122.4,231.4,123,231.7,123.5z"/>
<path class="st9" d="M94.7-10.6c-0.2-0.4-0.4-0.8-0.5-1.1C94.3-11.3,94.5-11,94.7-10.6z"/>
<path class="st9" d="M133,25.6c-0.2-0.4-0.4-0.7-0.6-1.1C132.6,24.9,132.8,25.3,133,25.6z"/>
<path class="st13" d="M204.1,323c-0.8-0.1-1.5-0.2-2.3-0.3C202.6,322.9,203.4,322.9,204.1,323z"/>
<path class="st9" d="M89.2-20.2c-0.2-0.4-0.4-0.8-0.5-1.1C88.9-20.9,89-20.5,89.2-20.2z"/>
<path class="st13" d="M165.2,50.8c-0.3-0.6-0.6-1.1-0.8-1.7C164.7,49.6,164.9,50.2,165.2,50.8z"/>
<path class="st9" d="M70.6,145.5c0.4,0.2,0.7,0.3,1.1,0.5C71.3,145.8,70.9,145.6,70.6,145.5z"/>
<path class="st9" d="M73.4,147.2c0.4,0.2,0.7,0.4,1.1,0.6C74.1,147.6,73.8,147.4,73.4,147.2z"/>
<path class="st9" d="M76,148.8c0.4,0.2,0.7,0.3,1.1,0.5C76.7,149.2,76.3,149,76,148.8z"/>
<path class="st9" d="M78.6,150.4c0.4,0.2,0.7,0.4,1.1,0.6C79.3,150.7,78.9,150.5,78.6,150.4z"/>
<path class="st9" d="M81.2,151.9c0.4,0.2,0.7,0.3,1.1,0.5C81.9,152.2,81.5,152.1,81.2,151.9z"/>
<path class="st9" d="M87.7-22.8c-0.2-0.4-0.4-0.7-0.6-1.1C87.3-23.5,87.5-23.1,87.7-22.8z"/>
<path class="st9" d="M26.3,114.7c0.4,0.2,0.7,0.3,1.1,0.5C27,115,26.7,114.8,26.3,114.7z"/>
<path class="st9" d="M120.2,196.7c0.1,0.5,0.2,0.9,0.3,1.4C120.4,197.6,120.3,197.1,120.2,196.7z"/>
<path class="st13" d="M262.1,353.6c0.6,0.3,1.2,0.6,1.8,0.9C263.4,354.2,262.8,353.9,262.1,353.6z"/>
<path class="st9" d="M73.4-34.9c-0.2-0.4-0.3-0.7-0.5-1.1C73.1-35.7,73.3-35.3,73.4-34.9z"/>
<path class="st13" d="M345.8,281.8c0.8,0.1,1.5,0.2,2.3,0.3C347.3,282,346.5,281.9,345.8,281.8z"/>
<path class="st13" d="M265.3,341.6c-0.1-0.8-0.2-1.5-0.3-2.3C265.1,340.1,265.2,340.9,265.3,341.6z"/>
<path class="st13" d="M217.8,337.3c0.5,0.2,0.9,0.4,1.4,0.6C218.8,337.7,218.3,337.5,217.8,337.3z"/>
<path class="st13" d="M198.2,270c-0.2,0.5-0.4,0.9-0.6,1.4C197.8,270.9,198,270.4,198.2,270z"/>
<path class="st13" d="M265.8,351c0-0.6,0-1.2,0-1.7C265.8,349.9,265.8,350.5,265.8,351z"/>
<path class="st9" d="M28.5,111c-0.4,0-0.8,0.1-1.2,0.1C27.7,111.1,28.1,111,28.5,111z"/>
<path class="st13" d="M204,99.9c-0.4-0.4-0.8-0.8-1.2-1.2C203.2,99.1,203.6,99.5,204,99.9z"/>
<path class="st13" d="M282.6,199.9c-0.5,0.2-1.1,0.5-1.6,0.7C281.6,200.4,282.1,200.1,282.6,199.9z"/>
<path class="st13" d="M350.4,282.4c-0.6,0-1.3-0.1-1.9-0.1C349.1,282.3,349.7,282.3,350.4,282.4"/>
<path class="st13" d="M345.8,262.2c-0.1-0.6-0.1-1.3-0.2-1.9C345.6,260.9,345.7,261.5,345.8,262.2z"/>
<path class="st13" d="M173,65.8c-0.3-0.6-0.6-1.1-0.9-1.7C172.4,64.7,172.7,65.2,173,65.8z"/>
<path class="st13" d="M175.6,70.4c-0.3-0.6-0.6-1.1-0.9-1.7C175,69.3,175.3,69.9,175.6,70.4z"/>
<path class="st13" d="M177.2,73c-0.3-0.5-0.6-1.1-0.9-1.6C176.5,71.9,176.9,72.5,177.2,73z"/>
<path class="st13" d="M193,296.9c0.2,0.5,0.3,1,0.5,1.5C193.4,297.9,193.2,297.4,193,296.9z"/>
<path class="st13" d="M317.3,210.9c-0.2,0.5-0.4,0.9-0.6,1.4C316.9,211.9,317.1,211.4,317.3,210.9z"/>
<path class="st13" d="M289.3,279.8c0.2-0.5,0.5-1.1,0.7-1.6C289.8,278.7,289.5,279.3,289.3,279.8z"/>
<path class="st9" d="M30.4,116.7c0.3,0.1,0.6,0.2,0.9,0.3C31,116.9,30.7,116.8,30.4,116.7z"/>
<path class="st9" d="M99.9-14.8c-0.1,0.3-0.3,0.6-0.4,0.9C99.7-14.3,99.8-14.5,99.9-14.8z"/>
<path class="st9" d="M64.6-53c-0.1-0.3-0.2-0.6-0.3-0.9C64.4-53.6,64.5-53.3,64.6-53z"/>
<path class="st9" d="M88.2,155.7c0.3,0.1,0.6,0.2,0.9,0.4C88.7,156,88.5,155.8,88.2,155.7z"/>
<path class="st13" d="M174.3,68.1c-0.2-0.5-0.4-0.9-0.6-1.4C173.9,67.2,174.1,67.6,174.3,68.1z"/>
<path class="st9" d="M85.8,154.5c0.3,0.1,0.6,0.2,0.9,0.3C86.4,154.7,86.1,154.6,85.8,154.5z"/>
<path class="st9" d="M-12.3,91.6c0.3,0.1,0.6,0.2,0.9,0.3C-11.7,91.8-12,91.7-12.3,91.6z"/>
<path class="st9" d="M122,204.7c0.1,0.3,0.3,0.6,0.4,0.9C122.3,205.3,122.2,205,122,204.7z"/>
<path class="st13" d="M171.7,63.4c-0.2-0.5-0.5-0.9-0.7-1.4C171.3,62.5,171.5,63,171.7,63.4z"/>
<path class="st13" d="M148.4,43.3c-0.2-0.5-0.4-0.9-0.6-1.4C148,42.3,148.2,42.8,148.4,43.3z"/>
<path class="st13" d="M170.7,61.4c-0.2-0.5-0.4-0.9-0.7-1.4C170.2,60.4,170.5,60.9,170.7,61.4z"/>
<path class="st9" d="M65.8-51c-0.1-0.3-0.2-0.6-0.3-0.9C65.5-51.5,65.7-51.3,65.8-51z"/>
<path class="st9" d="M72.2-37.2c-0.1-0.3-0.2-0.6-0.3-0.9C72-37.8,72.1-37.5,72.2-37.2z"/>
<path class="st13" d="M166.3,52.8c-0.2-0.5-0.4-0.9-0.6-1.4C165.9,51.9,166.1,52.4,166.3,52.8z"/>
<path class="st13" d="M158.7,50.3c-0.2,0.5-0.4,1-0.6,1.5C158.4,51.3,158.6,50.8,158.7,50.3z"/>
<path class="st9" d="M91.9-15.5c-0.1-0.3-0.2-0.6-0.4-0.9C91.7-16.1,91.8-15.8,91.9-15.5z"/>
<path class="st13" d="M139.1,22.5c-0.2-0.5-0.4-0.9-0.6-1.4C138.7,21.6,138.9,22.1,139.1,22.5z"/>
<path class="st9" d="M30.7,107.7c0.3,0.1,0.6,0.2,0.9,0.3C31.3,107.9,31,107.8,30.7,107.7z"/>
<path class="st13" d="M265.6,344.6c0-0.5-0.1-1.1-0.1-1.6C265.5,343.6,265.5,344.1,265.6,344.6z"/>
<path class="st13" d="M267.7,268.7c0.6,0,1.1,0,1.7,0C268.8,268.7,268.3,268.7,267.7,268.7z"/>
<path class="st14" d="M149.3,263c0.3,0.5,0.6,1,0.8,1.5C148.6,264.7,149.6,263.4,149.3,263z"/>
<path class="st13" d="M343.9,241.2c-0.1-0.5-0.1-0.9-0.2-1.4C343.8,240.3,343.9,240.8,343.9,241.2z"/>
<path class="st13" d="M346,264c-0.1-0.5-0.1-0.9-0.2-1.4C345.9,263.1,345.9,263.5,346,264z"/>
<path class="st13" d="M266,268.9c0.5-0.1,1-0.1,1.4-0.2C267,268.8,266.5,268.9,266,268.9z"/>
<path class="st9" d="M70.2-41.4c0-0.2-0.1-0.4-0.1-0.6C70.1-41.8,70.1-41.6,70.2-41.4z"/>
<path class="st13" d="M274.1,225.7c0.1-0.4,0.1-0.9,0.2-1.3C274.2,224.9,274.2,225.3,274.1,225.7z"/>
<path class="st13" d="M145.6,37.3c-0.1-0.4-0.3-0.7-0.4-1.1C145.3,36.5,145.5,36.9,145.6,37.3z"/>
<path class="st9" d="M2.7,98.3c0.2,0.1,0.4,0.1,0.6,0.2c-0.2,0-0.4,0-0.6,0C2.8,98.4,2.8,98.3,2.7,98.3z"/>
<path class="st13" d="M235.1,273.9c0.5,0.1,0.9,0.1,1.4,0.2C236,274.1,235.6,274,235.1,273.9z"/>
<path class="st9" d="M0.9,97.5c0.2,0.1,0.4,0.1,0.7,0.2C1.3,97.6,1.1,97.6,0.9,97.5z"/>
<path class="st9" d="M119.5,194.8c0.1,0.2,0.1,0.5,0.2,0.7C119.6,195.3,119.5,195,119.5,194.8z"/>
<path class="st9" d="M69.4-43.2c-0.1-0.2-0.1-0.4-0.2-0.6C69.2-43.6,69.3-43.4,69.4-43.2z"/>
<path class="st9" d="M90.2,156.8c0.2,0.1,0.4,0.1,0.6,0.2C90.6,156.9,90.4,156.9,90.2,156.8z"/>
<path class="st13" d="M244,273.9c0.5-0.1,0.9-0.1,1.4-0.2C244.9,273.7,244.5,273.8,244,273.9z"/>
<path class="st9" d="M30.8,110.8c-0.2,0-0.5,0-0.7,0C30.4,110.8,30.6,110.8,30.8,110.8z"/>
<path class="st9" d="M80-27.9c-0.2,0-0.4,0.1-0.6,0.1c0,0-0.1-0.1-0.1-0.1c0,0,0-0.1,0.1-0.1C79.6-28,79.8-28,80-27.9z"/>
<path class="st13" d="M136.4,20.7c-0.1,0.5-0.1,1.1-0.2,1.6C136.2,21.8,136.3,21.2,136.4,20.7z"/>
<path class="st9" d="M-6.4,94.3c0.2,0.1,0.4,0.1,0.7,0.2C-5.9,94.5-6.1,94.4-6.4,94.3z"/>
<path class="st9" d="M32.8,108.6c0.2,0,0.4,0.1,0.6,0.1C33.2,108.7,33,108.6,32.8,108.6z"/>
<path class="st13" d="M207.2,319.6c0.1,0.4,0.2,0.8,0.3,1.1C207.4,320.3,207.3,319.9,207.2,319.6z"/>
<path class="st9" d="M92,157.6c0.2,0,0.4,0.1,0.6,0.1C92.4,157.7,92.2,157.6,92,157.6z"/>
<path class="st9" d="M91.1,160.2c-0.2,0-0.4,0.1-0.7,0.1C90.7,160.2,90.9,160.2,91.1,160.2z"/>
<path class="st13" d="M285.4,282.7c0.4,0,0.7,0,1.1,0C286.1,282.7,285.8,282.7,285.4,282.7z"/>
<path class="st13" d="M331.3,277.7c0.5,0.2,0.9,0.3,1.4,0.5C332.2,278,331.7,277.9,331.3,277.7z"/>
<path class="st13" d="M287.4,281.9c0.2-0.2,0.5-0.4,0.7-0.6C287.9,281.5,287.6,281.7,287.4,281.9z"/>
<path class="st13" d="M167.5,55.2c-0.2-0.4-0.4-0.9-0.6-1.3C167.1,54.3,167.3,54.7,167.5,55.2z"/>
<path class="st13" d="M156.3,53.4c-0.4-0.1-0.8-0.1-1.1-0.2C155.6,53.3,155.9,53.3,156.3,53.4z"/>
<path class="st13" d="M232.9,125.8c-0.2-0.5-0.3-0.9-0.5-1.4C232.6,124.9,232.8,125.4,232.9,125.8z"/>
<path class="st13" d="M169.7,59.6c-0.2-0.4-0.4-0.9-0.5-1.3C169.4,58.7,169.5,59.1,169.7,59.6z"/>
<path class="st9" d="M111.9,185.9c0.1,0.1,0.2,0.2,0.3,0.3C112.1,186.1,112,186,111.9,185.9z"/>
<path class="st13" d="M160,42.5c-0.3,0.3-0.5,0.6-0.8,0.9C159.4,43.1,159.7,42.8,160,42.5z"/>
<path class="st13" d="M344.8,249.3c0-0.4,0-0.7-0.1-1.1C344.7,248.6,344.7,249,344.8,249.3z"/>
<path class="st13" d="M233.8,273.7c0.3,0.1,0.6,0.1,0.9,0.2C234.4,273.8,234.1,273.7,233.8,273.7z"/>
<path class="st9" d="M12.5,101.9c0.1,0,0.2,0,0.3,0c0,0,0,0.1,0,0.1c-0.1,0-0.2,0-0.3,0C12.5,102,12.5,102,12.5,101.9z"/>
<path class="st9" d="M21.5,104.8c0.1,0,0.2,0,0.3,0.1C21.7,104.8,21.6,104.8,21.5,104.8z"/>
<path class="st13" d="M290.4,275.7c0-0.2,0-0.5,0-0.7C290.4,275.3,290.4,275.5,290.4,275.7z"/>
<path class="st9" d="M27.5,106.6c0.1,0,0.2,0,0.3,0c0,0,0,0.1,0,0.1c-0.1,0-0.2,0-0.3,0C27.5,106.7,27.5,106.6,27.5,106.6z"/>
<path class="st9" d="M29.1,107.1c0.1,0,0.2,0,0.3,0c0,0,0,0.1,0,0.1c-0.1,0-0.2,0-0.3,0C29.1,107.2,29.1,107.1,29.1,107.1z"/>
<path class="st9" d="M25.4,111.5c-0.1,0-0.2,0.1-0.3,0.1C25.3,111.5,25.4,111.5,25.4,111.5z"/>
<path class="st9" d="M28.6,115.9c0.1,0,0.2,0,0.3,0c0,0,0,0.1,0,0.1C28.7,116,28.6,115.9,28.6,115.9z"/>
<path class="st13" d="M205.6,323.2c-0.3,0-0.5,0-0.8,0C205.1,323.2,205.3,323.2,205.6,323.2z"/>
<path class="st9" d="M32.9,117.7c0.1,0,0.2,0,0.3,0c0,0,0,0.1,0,0.1c-0.1,0-0.2,0-0.3,0C32.9,117.8,32.9,117.7,32.9,117.7z"/>
<path class="st13" d="M229.5,341.7c0.3,0.1,0.5,0.1,0.8,0.2C230,341.8,229.7,341.8,229.5,341.7z"/>
<path class="st13" d="M343.2,237c0-0.2,0-0.5-0.1-0.7C343.2,236.5,343.2,236.7,343.2,237z"/>
<path class="st9" d="M34.7,118.5c0.1,0,0.2,0,0.3,0c0,0,0,0.1,0,0.1c-0.1,0-0.2,0-0.3,0C34.7,118.5,34.7,118.5,34.7,118.5z"/>
<path class="st13" d="M270.4,252.4c0-0.4,0-0.8-0.1-1.1C270.3,251.7,270.3,252,270.4,252.4z"/>
<path class="st9" d="M135.9,24.7c0,0.1,0,0.2,0,0.3C135.9,24.9,135.9,24.8,135.9,24.7z"/>
<path class="st13" d="M308.8,203.8c-0.2-0.2-0.4-0.4-0.6-0.6C308.4,203.4,308.6,203.6,308.8,203.8z"/>
<path class="st13" d="M237.5,274.1c0.2,0,0.5,0,0.7,0C238,274.2,237.7,274.1,237.5,274.1z"/>
<path class="st9" d="M63.2,138.4c-0.1,0.1-0.1,0.1-0.2,0.2C63.1,138.6,63.1,138.5,63.2,138.4z"/>
<path class="st9" d="M70.4,131.5c0.1,0,0.2,0,0.3,0.1C70.6,131.5,70.5,131.5,70.4,131.5z"/>
<path class="st13" d="M269.6,202.1c-0.2-0.2-0.3-0.3-0.5-0.5C269.3,201.8,269.5,202,269.6,202.1z"/>
<path class="st13" d="M159.2,48.2c-0.1,0.4-0.2,0.7-0.2,1.1C159,48.9,159.1,48.5,159.2,48.2z"/>
<path class="st13" d="M168.4,56.9c-0.1-0.2-0.2-0.5-0.2-0.7C168.2,56.4,168.3,56.7,168.4,56.9z"/>
<path class="st9" d="M92.5,159.9c-0.1,0-0.2,0-0.3,0C92.3,159.9,92.4,159.9,92.5,159.9z"/>
<path class="st13" d="M344.6,247.6c0-0.3,0-0.5-0.1-0.8C344.5,247.1,344.6,247.3,344.6,247.6z"/>
<path class="st14" d="M158.6,279.4c-0.1,0-0.2,0.1-0.3,0.1c-0.1,0-0.1-0.2-0.1-0.3c0.1,0,0.2-0.1,0.3-0.1
	C158.5,279.1,158.5,279.3,158.6,279.4z"/>
<path class="st14" d="M157.2,280.5c0-0.1-0.1-0.2-0.1-0.3c0-0.1,0.2-0.1,0.3-0.1c0,0.1,0.1,0.2,0.1,0.3
	C157.5,280.5,157.3,280.5,157.2,280.5z"/>
<path class="st13" d="M344.4,281.6c0.2,0,0.5,0.1,0.7,0.1C344.9,281.7,344.7,281.6,344.4,281.6z"/>
<path class="st13" d="M264.2,335.4c0-0.3-0.1-0.5-0.1-0.8C264.1,334.8,264.1,335.1,264.2,335.4z"/>
<path class="st13" d="M264.6,337.8c-0.1-0.4-0.1-0.7-0.2-1.1C264.5,337.1,264.6,337.5,264.6,337.8z"/>
<path class="st9" d="M81.1-27.9c-0.1,0-0.2,0-0.3,0C80.9-27.9,81-27.9,81.1-27.9z"/>
<path class="st14" d="M146.3,269.7c0-0.1-0.1-0.2-0.1-0.3c0-0.1,0.2-0.1,0.3-0.1c0,0.1,0.1,0.2,0.1,0.3
	C146.6,269.6,146.4,269.6,146.3,269.7z"/>
<path class="st13" d="M222,116.3c-0.3-0.1-0.7-0.1-1-0.2C221.3,116.1,221.6,116.2,222,116.3z"/>
<path class="st9" d="M70.9-40c-0.1-0.1-0.1-0.1-0.2-0.2c0,0,0-0.1,0.1-0.1C70.8-40.2,70.9-40.1,70.9-40z"/>
<path class="st14" d="M141.8,246.7c-0.2,0-0.5,0-0.7,0.1c0-0.1,0-0.1,0-0.2C141.3,246.6,141.5,246.6,141.8,246.7
	C141.8,246.7,141.8,246.7,141.8,246.7z"/>
<path class="st13" d="M223.9,116.9c-0.3-0.1-0.6-0.2-0.9-0.3C223.3,116.7,223.6,116.8,223.9,116.9z"/>
<path class="st13" d="M233.7,127.7c-0.1-0.3-0.2-0.7-0.3-1C233.5,127,233.6,127.3,233.7,127.7z"/>
<path class="st14" d="M141,247.7c-0.1,0-0.1,0-0.2-0.1c0,0,0-0.1,0-0.2C140.8,247.5,140.9,247.6,141,247.7z"/>
<path class="st14" d="M141.1,232.4c-0.1,0.3-0.2,0.5-0.3,0.8C140.9,232.9,141,232.7,141.1,232.4z"/>
<path class="st14" d="M150.6,270.5c0,0.2-0.1,0.3-0.1,0.5C150.6,270.8,150.6,270.6,150.6,270.5z"/>
<path class="st14" d="M171.5,278c0,0.1,0,0.1,0,0.2"/>
<path class="st12" d="M333.4,211.9c-0.2,0-0.4,0-0.6,0C333,211.9,333.2,211.9,333.4,211.9z"/>
<path class="st14" d="M140.7,233.2c0,0.1,0,0.3,0,0.4C140.8,233.5,140.8,233.4,140.7,233.2z"/>
<path class="st14" d="M208,160.7c0.1,0.6,0.2,1.2,0.2,1.8c0,0.7-0.1,1.4-0.1,2c0,0,0,0,0,0c-0.1,0.5-0.2,0.9-0.2,1.4
	c-0.3,1.7-0.6,3.4-0.9,5.1c-0.1,0.4-0.2,0.7-0.2,1.1c-0.1,0.3-0.2,0.6-0.2,0.8c-0.9,4.9-0.9,4.8-5.9,4.9c-5.1,0.1-10.2,0.4-15.3,0.8
	c-2.2,0.2-2.6,1.3-2.8,3.5c-0.3,2.9-0.9,5.7-1.4,8.5c-0.4,1.9-1.1,3.7-1.5,5.6c-0.3,1.7,0.7,2.6,2.1,3.2c2.8,1.1,6.6,0,8-2.6
	c0.8-1.5,1.1-3.3,1.3-5c0.3-2,1.1-2.9,3.1-3c1-0.1,2.1-0.1,3.1-0.2c3.3-0.3,6.1-1.5,7.4-5c0.1-0.3,0.5-0.6,0.9-0.9
	c1.3,4.1,0.4,5.9-3.5,6.9c-0.9,0.3-1.9,0.4-2.8,0.7c-2.9,0.8-5,2.5-6.1,5.3c-0.5,1.1-1,2.2-1.6,3.3c-0.3,0.4-0.7,0.7-1,1.1
	c-0.9,0.4-1.7,0.8-2.6,1.2c-0.4,0.1-0.7,0.2-1.1,0.2c-0.7,0.1-1.3,0.3-2,0.4l0,0c0,0,0-0.1-0.1-0.1c-0.1,0-0.2,0-0.3-0.1
	c-0.2,0-0.3,0-0.5,0.1c-0.5,0-1,0.1-1.4,0.1l0,0c-0.1,0-0.2-0.1-0.3-0.1c-0.2,0-0.3,0-0.5-0.1c-0.1,0-0.1,0-0.2,0
	c-0.1,0-0.2,0-0.4,0l-0.1,0c-0.5,0-1.1,0-1.6,0c-0.1,0-0.3,0-0.4,0c-0.7,0.1-1.4,0.1-2.2,0.2c0,0-0.2,0-0.2,0
	c-0.5,0.1-1.1,0.2-1.6,0.3c-0.2,0-0.5,0-0.7,0c-0.4,0-0.8,0.1-1.1,0.1c-1,0.2-2.1,0.4-3.1,0.6c-1.7,0.6-3.3,1.2-5,1.8
	c-0.3,0-0.6-0.1-0.9-0.1c-0.7-0.5-1.3-0.9-2-1.4c-3.4-7-6.8-14.1-10.2-21.1c-0.3-0.6-0.5-1.3-0.8-1.8c-2.8-4.4-1-9-0.4-13.5
	c0.6-4.8,2.8-8.9,6.1-12.4c2.7-2.9,5.2-6.1,9.1-7.4c7.2-2.4,14.5-2.2,21.4,0.7c4.3,1.8,8.2,4.7,12.3,7c1.6,0.9,3.3,1.7,5,2.7
	c1,0.6,2,1.4,2.9,2.1C207.8,160,207.9,160.3,208,160.7z M162.6,177.8c0.6-0.6,1.1-1.2,1.7-1.7c0.5-0.4,1-0.7,1.5-1.1
	c0.3-0.1,0.6-0.3,0.9-0.4c2.7-0.3,5.4-0.6,8.1-0.8c0.1,0,0.2-0.1,0.3-0.1c0.3-0.1,0.7-0.1,1-0.2c0.1,0,0.2-0.1,0.3-0.1
	c0.7-0.9,1.6-1.7,1.9-2.7c0.8-2,1.2-4.1,1.8-6.2c0.1-0.3,0.2-0.6,0.3-0.9c0.3-0.5,0.7-1,1-1.5c1.3-1.3,2.5-2.6,3.8-3.8
	c0.7-0.5,1.4-1,2.1-1.5c0.3-0.2,0.7-0.4,1-0.6c0.6-0.4,1.2-0.8,1.8-1.3c0.5-0.2,1-0.4,1.9-0.8c-0.8-0.4-1.1-0.6-1.4-0.8
	c-0.5-0.2-0.9-0.3-1.4-0.5c-0.1,0-0.2,0-0.3,0c-0.6-0.2-1.2-0.3-1.9-0.5c-0.3-0.1-0.6-0.2-0.9-0.3c-5.6-1.6-11.2-2.1-16.8,0
	c-3.3,1.3-6.8,2.5-8.9,5.7c-3.4,5.1-5.5,10.6-6,16.7c0,0.1,0,0.2,0,0.3c0,0.8,0,1.6,0,2.4c0.1,0.5,0.2,0.9,0.3,1.4
	c0.1,0.5,0.3,0.9,0.4,1.4c0,0-0.1,0.1-0.1,0.1c0.1,0.1,0.1,0.1,0.2,0.2c0.2,0.5,0.4,1.1,0.6,1.6c0.1,0.2,0.1,0.4,0.2,0.6
	c1.4,1.8,1.5,1.8,3,0.2c0.4-0.4,0.7-0.8,1-1.3c0.3-0.4,0.5-0.9,0.8-1.3C161.5,179.2,162,178.5,162.6,177.8z"/>
<path class="st13" d="M224,141.5c-2.1,2.5-4.5,4.8-6.3,7.5c-2.2,3.2-4.2,6.6-5.7,10.2c-3.1,7.3-3.4,14.9-1.8,22.6
	c0,0.2,0,0.5-0.1,0.7c-0.3-0.4-0.7-0.8-0.7-1.2c-0.4-2.6-1-5.2-1-7.9c0-2.3,0.6-4.7,0.9-7c0.1-1,0.2-2.1,0.3-3.1c0,0,0,0,0,0
	c0.1-0.1,0.2-0.2,0.2-0.3c0.4-1.2-1-2.4,0.5-3.7c1-0.8,1.5-2.1,2.3-3.4c-0.8,0-1.4-0.1-2.1-0.1c-0.1-0.2-0.1-0.4-0.2-0.6
	c0.7-0.2,1.5-0.5,2.1-0.6c1.5-2,2.9-4,4.5-5.9c1.8-2.2,3.7-4.4,5.6-6.6C222.9,141.8,223.5,141.7,224,141.5z"/>
<path class="st13" d="M165.2,204.9c1.7-0.6,3.3-1.2,5-1.8c-0.4,0.4-0.8,0.7-1.3,1.1c0.7,0.2,1.2,0,1.8,0c1.7-0.1,3.5,0,5.2,0
	c-1.9,0.4-3.9,0.8-5.8,1c-1.7,0.3-3.4,0.4-5,0.6C165.1,205.5,165.2,205.2,165.2,204.9z"/>
<path class="st13" d="M208.1,164.6c0-0.7,0.1-1.4,0.1-2c0.4,0.3,0.9,0.5,1.3,0.8c0,0,0,0,0,0C209.1,163.7,208.6,164.2,208.1,164.6z"
	/>
<path class="st13" d="M162.4,203.4c0.7,0.5,1.3,0.9,2,1.4C163,205.3,162.2,205.1,162.4,203.4z"/>
<path class="st13" d="M208.6,156.3c0.2-0.2,0.5-0.5,0.7-0.7c0.1,0.1,0.2,0.1,0.3,0.2c-0.2,0.3-0.4,0.6-0.6,0.9
	C208.8,156.5,208.7,156.4,208.6,156.3z"/>
<path class="st13" d="M164.8,206c-0.5,0.2-1,0.4-1.5,0.6C163.8,206.3,164.3,206.1,164.8,206z"/>
<path class="st13" d="M210,158.4c0-0.1-0.1-0.2-0.1-0.3c0-0.1,0.2-0.1,0.3-0.1c0,0.1,0.1,0.2,0.1,0.3
	C210.3,158.3,210.1,158.3,210,158.4z"/>
<path class="st13" d="M208,160.7c-0.1-0.4-0.2-0.7-0.3-1.1C207.8,160,207.9,160.3,208,160.7z"/>
<path class="st13" d="M204.5,250.2c0.4-1.1,0.9-2.1,1.2-3.2c0.8-2.4,1.5-4.8,2.1-7.2c0.6-2.3,1-4.6,1.6-6.9c0.1,0.6,0.3,1.3,0.2,1.9
	c-0.4,4.9-2.1,9.4-3.8,13.9C205.6,249.4,204.9,249.8,204.5,250.2z"/>
<path class="st13" d="M209.7,228.5c-0.6-1.3-0.2-2.3,0.7-3.4c2.9-3.3,7-4.4,10.8-6.1c-1.5,2.3-4.3,2.4-6.3,3.7
	c-0.9,0.6-2,0.8-2.9,1.4c-1,0.7-1.9,1.5-1.7,3C210.4,227.5,209.9,228,209.7,228.5z"/>
<path class="st13" d="M209.4,232.9c0.1-1.4,0.2-2.9,0.3-4.3C210.3,230.1,210.2,231.5,209.4,232.9z"/>
<path class="st13" d="M203.4,252.3c0.3-0.7,0.7-1.4,1-2C204.1,251,203.8,251.7,203.4,252.3z"/>
<path class="st15" d="M271.9,166.1c0.5,4.4-0.7,8.5-2.2,12.6c-2.2,6-6.7,10-11.1,14.1c-1.2,1.1-3,1.7-4.6,2.5
	c-1.6,0.4-3.2,0.9-4.9,1.4c-0.9,0.3-1.7,0.7-2.6,1c0,0-0.1,0-0.1,0c-0.4,0.1-0.8,0.1-1.2,0.2c0,0-0.1,0-0.1,0c-0.3,0-0.7,0-1,0
	c-3.6,0.8-7.2,0.4-10.6-0.8c-4.4-1.5-8.7-3.5-11.9-7.1c-6.6-7.4-8.6-16.1-6.6-25.5c1.1-5.4,3.6-10.3,7.3-14.6
	c5-5.9,11.3-9.3,18.7-10.4c8.7-1.3,16.4,1.1,22.9,7.2c3.4,3.2,5.2,7.1,6.8,11.3c0.2,0.5,0.2,1.2,0.2,1.7c0.1,0.2,0.1,0.4,0.2,0.6
	c0,0,0,0.1,0,0.1C271.6,162.4,271.8,164.3,271.9,166.1z M260.6,163.7c-3.9,4.1-5.7,9.4-7.5,14.6c-0.3,0.8,0.1,2.4,0.7,2.9
	c1.1,0.8,2.5,0.5,3.6-0.7c4.1-4.4,6.7-9.5,7.9-15.4c0.2-1-0.1-2.7-0.8-3.3c-1.2-0.9-2.3,0.3-3.3,1.2
	C261,163.3,260.8,163.5,260.6,163.7z"/>
<path class="st15" d="M202.8,235.3c0.3,4.5-0.8,8.8-2.6,13c-2.4,5.7-6.5,10-11,13.8c-2,1.7-4.8,2.5-7.3,3.5
	c-5,2.1-10.2,2.9-15.6,1.4c-4.4-1.2-8.5-3.1-12-6.1c-5-4.2-7.7-9.6-8.7-15.9c-0.8-5.2-0.6-10.5,1.3-15.3c2.3-5.9,5.7-11.2,11.1-15.1
	c4.5-3.3,9.3-5.5,14.9-6.1c6-0.6,11.7,0.5,16.9,3.6c6.2,3.7,10.3,8.9,12,15.9c0.2,2.2,0.4,4.4,0.6,6.7
	C202.4,234.9,202.7,235.1,202.8,235.3z M185.6,250.5c4.5-4.7,7-9.9,8.2-15.7c0.3-1.3,0.8-3.2-0.9-3.9c-1.7-0.7-2.9,0.7-3.7,1.9
	c-2.1,3.2-4.3,6.3-6,9.7c-1.4,2.9-2,6.1-2.8,9.2c-0.1,0.5,0.2,1.2,0.4,1.8c0.6-0.2,1.2-0.2,1.7-0.6
	C183.6,252.1,184.8,251.1,185.6,250.5z"/>
<path class="st15" d="M208.1,164.6c0.5-0.4,1-0.9,1.4-1.3c-0.1,1-0.1,2.1-0.3,3.1c-0.3,2.3-0.9,4.7-0.9,7c0,2.6,0.6,5.3,1,7.9
	c0.1,0.4,0.5,0.8,0.7,1.2c2.2,5.2,4.5,10.4,6.7,15.7c1.3,3.1,0.7,5.9-1.7,8.2c-0.8,0.8-1.6,1.5-2.3,2.3c-2.8,3.2-6.5,3.1-9.9,1.7
	c-1.2-0.5-2.4-1.1-3.6-1.6c0,0,0,0,0,0c-3.1-1.2-6.1-2.6-9.2-3.6c-2.1-0.7-4.4-0.6-6.5-1.2c-1.2-0.3-2.3-0.8-3.4,0.2c0,0,0,0,0,0
	c-1.4,0-2.7,0-4.1,0c0,0,0,0,0,0c-1.7,0-3.5,0-5.2,0c-0.5,0-1.1,0.2-1.8,0c0.4-0.4,0.8-0.7,1.3-1.1c1-0.2,2.1-0.4,3.1-0.6
	c0.4,0,0.8-0.1,1.1-0.1c0.2,0,0.5,0,0.7,0c0.5-0.1,1.1-0.2,1.6-0.3c0,0,0.2,0,0.2,0c0.8,1.1,1.5,1,2.2-0.2c0.1,0,0.3,0,0.4,0
	c0.5,0.4,0.9,0.7,1.7,1.3c-0.1-0.7-0.1-1-0.1-1.3c0,0,0.1,0,0.1,0c0.1,0,0.2,0,0.4,0c0.1,0,0.1,0,0.2,0c0.2,0,0.3,0,0.5,0.1
	c0.1,0,0.2,0.1,0.3,0.1c0.1,0.2,0.1,0.4,0.2,0.6c0.1,0,0.1-0.1,0.2-0.1c-0.1-0.2-0.2-0.3-0.4-0.5c0.5,0,1-0.1,1.4-0.1
	c0.2,0,0.3,0,0.5-0.1c0.1,0,0.2,0,0.3,0.1c0,0,0,0.1,0.1,0.1c-0.1,0.3-0.3,0.7-0.4,1c0.3,0,0.6,0.1,0.9,0.1
	c-0.2-0.4-0.3-0.7-0.5-1.1c0.7-0.1,1.3-0.3,2-0.4c0.4-0.1,0.7-0.2,1.1-0.2c0.9-0.4,1.7-0.8,2.6-1.2c1,0.3,1.4,0,1-1.1
	c0.5-1.1,1.1-2.2,1.6-3.3c1.1-2.8,3.2-4.5,6.1-5.3c0.9-0.3,1.9-0.4,2.8-0.7c3.8-1.1,4.8-2.8,3.5-6.9c-0.3,0.3-0.7,0.6-0.9,0.9
	c-1.3,3.5-4.1,4.6-7.4,5c-1,0.1-2.1,0.1-3.1,0.2c-2,0.1-2.8,1.1-3.1,3c-0.3,1.7-0.6,3.5-1.3,5c-1.4,2.6-5.2,3.7-8,2.6
	c-1.4-0.6-2.5-1.5-2.1-3.2c0.4-1.9,1.1-3.7,1.5-5.6c0.6-2.8,1.2-5.7,1.4-8.5c0.2-2.2,0.7-3.3,2.8-3.5c5.1-0.4,10.2-0.7,15.3-0.8
	c5-0.1,5-0.1,5.9-4.9c0.1-0.3,0.1-0.6,0.2-0.8c0.1-0.4,0.2-0.7,0.2-1.1c0.3-1.7,0.6-3.4,0.9-5.1C208,165.5,208.1,165,208.1,164.6
	C208.1,164.6,208.1,164.6,208.1,164.6z M208,181.1c0.1,0,0.2-0.1,0.3-0.1c0-0.1-0.1-0.3-0.1-0.3c-0.1,0-0.2,0.1-0.3,0.1
	C207.9,180.9,207.9,181,208,181.1z"/>
<path class="st13" d="M180.1,204.2c1.1-1,2.2-0.5,3.4-0.2c2.1,0.5,4.4,0.5,6.5,1.2c3.1,1,6.1,2.4,9.2,3.6c-2.5-0.8-5-1.7-7.5-2.4
	c-2.1-0.6-4.2-0.9-6.4-1.4C183.6,204.8,181.8,204.5,180.1,204.2z"/>
<path class="st13" d="M246.6,197.7c0.9-0.3,1.7-0.7,2.6-1c1.6-0.5,3.2-0.9,4.9-1.4C251.8,196.8,249.5,198,246.6,197.7z"/>
<path class="st13" d="M202.8,235.3c-0.2-0.2-0.5-0.3-0.5-0.5c-0.2-2.2-0.4-4.4-0.6-6.7c1.5,1.4,0.5,3.4,1.1,5
	C203.2,233.7,202.9,234.5,202.8,235.3z"/>
<path class="st13" d="M271.9,166.1c-0.2-1.9-0.4-3.7-0.5-5.6C272,162.4,272.9,164.2,271.9,166.1z"/>
<path class="st13" d="M176,204.2c1.4,0,2.7,0,4.1,0C178.7,204.2,177.3,204.2,176,204.2z"/>
<path class="st13" d="M199.3,208.8c1.2,0.5,2.4,1.1,3.6,1.6C201.7,209.9,200.5,209.4,199.3,208.8z"/>
<path class="st13" d="M245.4,197.9c0.4-0.1,0.8-0.1,1.2-0.2C246.2,197.8,245.8,197.9,245.4,197.9z"/>
<path class="st13" d="M244.3,198c0.3,0,0.7,0,1,0C244.9,198,244.6,198,244.3,198z"/>
<path class="st13" d="M271.4,160.4c-0.1-0.2-0.1-0.4-0.2-0.6C271.2,160,271.3,160.2,271.4,160.4z"/>
<path class="st15" d="M154.5,177c0-0.8,0-1.6,0-2.4c0-0.1,0-0.2,0-0.3c0.5-6.1,2.6-11.7,6-16.7c2.1-3.1,5.6-4.4,8.9-5.7
	c5.6-2.1,11.2-1.7,16.8,0c0.3,0.1,0.6,0.2,0.9,0.3c0.6,0.2,1.2,0.3,1.9,0.5c0.1,0,0.2,0,0.3,0c0.5,0.2,0.9,0.3,1.4,0.5
	c-0.2,0.5-0.3,1-0.5,1.5c-0.6,0.4-1.2,0.8-1.8,1.3c-0.3,0.2-0.7,0.4-1.1,0.6c-0.7,0.5-1.4,1-2.1,1.5c-1.3,1.3-2.5,2.6-3.8,3.8
	c-0.3,0.5-0.7,1-1,1.5c-0.1,0.3-0.2,0.6-0.3,0.9c-0.6,2.1-1.1,4.2-1.8,6.2c-0.4,1-1.3,1.8-1.9,2.7c-0.1,0-0.2,0.1-0.3,0.1
	c-0.3,0.1-0.7,0.1-1,0.2c-0.1,0-0.2,0.1-0.3,0.1c-2.7,0.3-5.4,0.6-8.1,0.8c-0.3,0.1-0.6,0.3-0.9,0.4c-0.5,0.4-1,0.7-1.5,1.1
	c-0.6,0.6-1.1,1.2-1.7,1.7c-0.5,0.7-1.1,1.4-1.6,2.1c-0.3,0.4-0.5,0.9-0.8,1.3c-0.3,0.4-0.7,0.9-1,1.3c-1.5,1.5-1.6,1.5-3-0.2
	c-0.1-0.2-0.1-0.4-0.2-0.6c-0.2-0.5-0.4-1.1-0.6-1.6c0,0,0.1-0.1,0.1-0.1c-0.1-0.1-0.1-0.1-0.2-0.2c-0.1-0.5-0.3-0.9-0.4-1.4
	C154.7,177.9,154.6,177.4,154.5,177z"/>
<path class="st9" d="M181.4,162c1.3-1.3,2.5-2.6,3.8-3.8C184,159.4,182.7,160.7,181.4,162z"/>
<path class="st9" d="M190.2,154.8c0.2-0.5,0.3-1,0.5-1.5c0.3,0.2,0.7,0.3,1.4,0.8C191.1,154.4,190.7,154.6,190.2,154.8z"/>
<path class="st9" d="M162.6,177.8c0.6-0.6,1.1-1.2,1.7-1.7C163.7,176.6,163.1,177.2,162.6,177.8z"/>
<path class="st9" d="M160.1,181.2c0.3-0.4,0.5-0.9,0.8-1.3C160.7,180.3,160.4,180.8,160.1,181.2z"/>
<path class="st13" d="M179.1,201.9c-0.6,1.1-1.4,1.3-2.2,0.2C177.7,202,178.4,202,179.1,201.9z"/>
<path class="st9" d="M154.5,177c0.1,0.5,0.2,0.9,0.3,1.4C154.7,177.9,154.6,177.4,154.5,177z"/>
<path class="st13" d="M181.1,201.9c0,0.3,0,0.6,0.1,1.3c-0.7-0.6-1.2-0.9-1.7-1.3C180,201.9,180.5,201.9,181.1,201.9z"/>
<path class="st9" d="M187.3,156.6c0.4-0.2,0.7-0.4,1.1-0.6C188,156.2,187.7,156.4,187.3,156.6z"/>
<path class="st9" d="M165.8,175c0.3-0.1,0.6-0.3,0.9-0.4C166.4,174.7,166.1,174.8,165.8,175z"/>
<path class="st9" d="M180.1,164.4c0.1-0.3,0.2-0.6,0.3-0.9C180.3,163.8,180.2,164.1,180.1,164.4z"/>
<path class="st9" d="M187.1,152.2c-0.3-0.1-0.6-0.2-0.9-0.3C186.5,152,186.8,152.1,187.1,152.2z"/>
<path class="st13" d="M191.5,199.1c0.4,1,0,1.4-1,1.1C190.8,199.8,191.2,199.4,191.5,199.1z"/>
<path class="st9" d="M155.9,181.6c0.1,0.2,0.1,0.4,0.2,0.6C156,182,156,181.8,155.9,181.6z"/>
<path class="st13" d="M176.8,202.1c-0.5,0.1-1.1,0.2-1.6,0.3C175.7,202.3,176.2,202.2,176.8,202.1z"/>
<path class="st13" d="M208.1,164.6c-0.1,0.5-0.2,0.9-0.2,1.4C208,165.5,208.1,165,208.1,164.6z"/>
<path class="st13" d="M207,171.1c-0.1,0.4-0.2,0.7-0.2,1.1C206.8,171.8,206.9,171.4,207,171.1z"/>
<path class="st13" d="M174.5,202.4c-0.4,0-0.8,0.1-1.1,0.1C173.7,202.5,174.1,202.5,174.5,202.4z"/>
<path class="st9" d="M154.5,174.3c0,0.1,0,0.2,0,0.3C154.5,174.5,154.5,174.4,154.5,174.3z"/>
<path class="st13" d="M187.9,201.3c-0.4,0.1-0.7,0.2-1.1,0.2C187.2,201.5,187.6,201.4,187.9,201.3z"/>
<path class="st9" d="M155.2,179.8c0.1,0.1,0.1,0.1,0.2,0.2c0,0-0.1,0.1-0.1,0.1C155.2,180,155.2,179.9,155.2,179.8
	C155.1,179.8,155.2,179.8,155.2,179.8z"/>
<path class="st9" d="M189.3,152.8c-0.1,0-0.2,0-0.3,0C189.1,152.7,189.2,152.7,189.3,152.8z"/>
<path class="st9" d="M176,173.4c0.1,0,0.2-0.1,0.3-0.1C176.2,173.3,176.1,173.4,176,173.4z"/>
<path class="st9" d="M174.8,173.7c0.1,0,0.2-0.1,0.3-0.1C174.9,173.6,174.8,173.7,174.8,173.7z"/>
<path class="st13" d="M182.2,201.9c-0.2,0-0.3,0-0.5-0.1C181.9,201.9,182,201.9,182.2,201.9z"/>
<path class="st13" d="M184.5,201.8c-0.2,0-0.3,0-0.5,0.1C184.2,201.8,184.3,201.8,184.5,201.8z"/>
<path class="st13" d="M181.5,201.8c-0.1,0-0.2,0-0.4,0C181.3,201.9,181.4,201.9,181.5,201.8z"/>
<path class="st14" d="M260.6,163.7c0.2-0.2,0.4-0.4,0.6-0.6c1-0.9,2.1-2,3.3-1.2c0.7,0.5,1,2.2,0.8,3.3c-1.2,5.8-3.8,11-7.9,15.4
	c-1.1,1.2-2.5,1.5-3.6,0.7c-0.6-0.5-1-2-0.7-2.9C254.8,173.1,256.6,167.8,260.6,163.7z"/>
<path class="st14" d="M185.6,250.5c-0.8,0.6-2,1.6-3.2,2.5c-0.5,0.3-1.1,0.4-1.7,0.6c-0.1-0.6-0.5-1.3-0.4-1.8
	c0.8-3.1,1.5-6.3,2.8-9.2c1.6-3.4,3.9-6.6,6-9.7c0.8-1.2,2-2.7,3.7-1.9c1.7,0.7,1.2,2.6,0.9,3.9C192.5,240.5,190,245.8,185.6,250.5z
	"/>
<path class="st13" d="M184.9,202c0.2,0.4,0.3,0.7,0.5,1.1c-0.3,0-0.6-0.1-0.9-0.1C184.6,202.6,184.7,202.3,184.9,202
	C184.8,202,184.9,202,184.9,202z"/>
<path class="st13" d="M208,181.1c0-0.1-0.1-0.2-0.1-0.3c0.1,0,0.2-0.1,0.3-0.1c0.1,0,0.1,0.2,0.1,0.3
	C208.2,181.1,208.1,181.1,208,181.1z"/>
<path class="st13" d="M182.6,202c0.1,0.2,0.2,0.3,0.4,0.5c-0.1,0-0.1,0.1-0.2,0.1C182.7,202.4,182.6,202.2,182.6,202
	C182.5,202,182.6,202,182.6,202z"/>
</svg>
