<?xml version="1.0" encoding="utf-8"?>
<!-- Generator: Adobe Illustrator 23.1.1, SVG Export Plug-In . SVG Version: 6.00 Build 0)  -->
<svg version="1.1" id="Ebene_1" xmlns="http://www.w3.org/2000/svg" xmlns:xlink="http://www.w3.org/1999/xlink" x="0px" y="0px"
	 viewBox="0 0 685.8 524.9" style="enable-background:new 0 0 685.8 524.9;" xml:space="preserve">
<style type="text/css">
	.st0{fill:#FFFFFF;}
	.st1{clip-path:url(#SVGID_2_);}
	.st2{fill:#050505;}
	.st3{fill:#040303;}
	.st4{fill:#E8960B;}
	.st5{fill:#320E0F;}
	.st6{fill:#F6F6F6;}
	.st7{fill:#070303;}
</style>
<g>
	<circle class="st0" cx="347.2" cy="174.4" r="303"/>
	<g>
		<defs>
			<path id="SVGID_1_" d="M231.1-125.8c2.6-1.7,2.5-1.6,4.3,1.1c3,4.4,6.2,8.9,9.2,13.3c0.7,0.8,1.4,1.7,2,2.4
				c1.9,1.9,2.2,2,3.2,0.7c0.9-1.4,1.8-1.3,2.5,0.2c0.4,0.9,0.9,1.7,1.2,2.5c0,0.4,0.1,0.8,0.1,1.2c0.3,0.6,0.4,1.1,0.6,1.6
				c0,0.4,0.1,0.8,0.1,1.2c0.2,0.9,0.4,1.7,0.5,2.6c0.4,1.7,0.7,3.4,1.2,5.3c0.1,0.5,0.3,1.1,0.5,1.6c0.1,0.3,0,0.5,0.1,0.8
				c0.1,0.5,0.3,1.1,0.5,1.6c-0.1,0.2,0,0.5,0,0.7c0.1,0.5,0.3,1.1,0.4,1.6l-0.1,0.1c0.1,0.1,0.1,0.1,0.2,0.3
				c0.2,0.8,0.5,1.7,0.7,2.5c0,0.4,0.1,0.8,0.1,1.2c0.3,0.6,0.4,1.1,0.6,1.6c0.1,0.5,0.2,0.9,0.3,1.4c0.2,0.7,0.6,1.4,0.8,2.1
				c0.3,0.6,0.4,1.2,0.6,1.8c1.3,1.9,2.6,4,3.9,5.9l-0.1,0.1l0.1,0.1c0.2,0.1,0.5,0.1,0.7,0c0.4,0.1,0.6,0.3,0.9,0.3
				c0.1,0,0.2,0.1,0.4,0.1c0.4,0.1,0.6,0,1,0.1c2.4,0,2.6,2.3,3.9,3.5c0.4,1,0.8,1.9,1.4,2.8c0.1,0.5,0.3,0.9,0.4,1.5
				c0.2,0.7,0.6,1.4,0.8,2.1c0.1,0.5,0.1,1,0.3,1.4c0.3,0.6,0.5,1.1,0.6,1.6c0.1,0.5,0.3,0.9,0.4,1.5c0.2,0.7,0.4,1.4,0.7,2
				c0,0.4,0.1,0.8,0.2,1.2c0.2,0.7,0.4,1.4,0.7,2c0.1,0.5,0.2,0.9,0.3,1.4c0.3,0.6,0.4,1.1,0.6,1.6c0.1,0.5,0.3,1.1,0.3,1.4
				c0.2,0.7,0.6,1.4,0.8,2.1c0.1,0.5,0.4,1.2,0.6,1.9c0.9,0.6,0.4,3.3,2.7,1.6c0.3-0.7,0.6-1.5,0.9-2.3c0.6-2,1.3-4,1.8-6
				c0.2-0.3,0.5-0.6,0.7-1c0.5,0.4,1.1,0.7,1.6,1.2c1.7,2.6,3.2,5.2,4.9,7.9c0.9,1.6,1.8,3.2,2.7,4.9c0.6,1.3,1.2,2.6,1.9,3.9
				c0.7,1.4,1.4,2.7,2.2,4.1c0.5,1.2,1.1,2.4,1.6,3.6c0.6,1.3,1.3,2.4,1.9,3.7c0.4,1,0.8,1.9,1.1,2.9c0.6,1.3,1.2,2.4,1.8,3.7
				c0.3,0.8,0.6,1.6,1,2.5c0.5,1,0.9,2,1.5,2.8c0.4,1,0.8,1.9,1.1,2.9c0.4,0.9,0.8,1.7,1.2,2.5c0.3,0.8,0.6,1.6,0.9,2.6
				c0.4,0.9,0.8,1.7,1.2,2.5c0.1,0.5,0.4,1.2,0.5,1.7c0.3,0.8,0.6,1.6,1,2.4c0.1,0.5,0.3,0.9,0.4,1.5c0.3,0.8,0.8,1.7,1.1,2.5
				c0.3,0.4,0.6,0.8,0.7,1.2c0.7-1.2,1.2-2.4,1.8-3.6c0-0.1,0.1-0.2,0.1-0.4c0.3-0.9,0.7-1.9,0.9-2.8c0.3-0.6,0.4-1.3,0.7-1.9
				c0.1-0.2,0.1-0.6,0.3-0.8c0.7,0.4,1.2,0.7,1.9,1.1c0.1,0.3,0.3,0.6,0.3,0.9c0.1,0.7,0.2,1.2,0.3,1.8c0.1,0.3,0.2,0.7,0.3,0.9
				c0.5,2.4,0.9,4.6,1.3,6.9c0.1,0.3,0.2,0.4,0.2,0.7c0,0.7-0.1,1.7,0,2.4c0.5,2.1,1.1,4.2,1.7,6.4c0.1,0.1,0.2,0.4,0.1,0.5
				c0,0.5,0.2,0.9,0.2,1.4c0.1,0.3,0.1,0.7,0.3,0.9c0.3,1.4,0.5,2.7,0.8,4.2c0.1,0.3,0.1,0.7,0.3,0.9c0.1,0.7,0.2,1.2,0.3,1.8
				c0.1,0.3,0.3,0.6,0.3,0.9c0.4,1.5,0.7,3,1.1,4.5c0.2,0.4,0.3,0.8,0.6,1.3c0.3,0.8,0.5,1.7,0.8,2.6c0.9,1.5,1.7,2.9,2.7,4.2
				c0.5,0.2,0.9,0.3,1.3,0.5c0.9-0.4,1.7-1,2.7-1.4c0.4-0.5,0.7-1.1,1.1-1.6c0.2-0.5,0.3-0.8,0.5-1.3c0.2-0.5,0.4-0.8,0.5-1.3
				c0.4-1.9,0.9-3.8,1.3-5.7c0.4-0.3,0.8-0.6,1.2-0.9c0.4,0.9,0.9,1.6,1.3,2.4c0.1,0.9-1.1,2.3,0.8,2.6c0.1,0.3,0.3,0.6,0.3,0.8
				c-0.6,2-0.6,2,0.6,2.3c0.1,0.3,0.3,0.6,0.3,0.8c0.2,0.8,0.4,1.5,0.5,2.2c0.1,0.3,0.3,0.6,0.3,0.8c0.1,0.7,0.2,1.2,0.3,1.8
				c0.2,0.4,0.3,0.9,0.4,1.4c0.1,0.5,0.2,1.2,0.4,1.7c0.2,0.4,0.3,0.9,0.6,1.4c0.1,0.3,0.1,0.7,0.1,0.9c0.3,0.6,0.4,1.2,0.6,1.8
				c0.1,0.5,0.2,1.2,0.2,1.7c0.1,0.1,0.2,0.4,0.3,0.6c0.1,0.7,0.2,1.2,0.5,1.9c0.1,0.3,0.1,0.7,0.3,0.9c0.1,0.7,0.4,1.2,0.5,1.9
				c0.1,0.3,0.1,0.7,0.3,0.9c0.2,0.8,0.4,1.5,0.6,2.3c0.2,0.4,0.3,0.8,0.6,1.3c0.1,0.7,0.2,1.2,0.3,1.8c0.1,0.3,0.3,0.6,0.3,0.8
				c0.2,0.8,0.4,1.5,0.6,2.3c0.2,0.4,0.3,0.8,0.6,1.3c0.2,0.7,0.4,1.5,0.6,2.2c0.2,0.4,0.3,0.8,0.6,1.3c0.4,1.1,0.7,2.3,1.1,3.4
				c0.3,0.4,0.4,0.9,0.7,1.3c0.4,1,0.7,1.9,1.1,3c0.4,0.9,0.8,1.7,1.2,2.4c1.5,5.5,4.8,9.9,8.5,14c0.1,0,0.2,0.1,0.4,0.1
				c0.4,0.5,0.8,0.9,1.2,1.4c0.7,0.8,1.5,1.5,2.3,2.3c0.4,0.5,0.8,0.9,1.2,1.4c0.7,0.8,1.4,1.4,2.3,2.3c1.1,1.6,2.2,3.2,3.3,4.9
				c0.4,0.6,0.7,1.2,1.1,1.8c0.8,1.4,1.6,2.9,2.5,4.3c0.4,1.1,0.9,2.2,1.3,3.3c0.2,0.4,0.4,0.9,0.6,1.3c0.4,1.1,0.9,2.3,1.2,3.4
				c0.3,0.7,0.7,1.4,1,2.1c0,2.8,1.3,4.8,3.9,6c0.2,0.2,0.4,0.5,0.7,0.7c1,1.6,2.4,2.6,4.3,2.5l0.2,0.1l0.1,0.1
				c0.3,0.2,0.8,0.3,1.1,0.5c0.5,0.2,0.8,0.4,1.2,0.7c0.3,0.2,0.7,0.4,1,0.6c0.2,0.2,0.5,0.2,0.7,0.4c1.1,0.9,2.1,1.7,3.2,2.5
				c1,1.6,2,3.3,3.1,5c0.2,0.7,0.4,1.5,0.6,2.2c0.2,0.4,0.4,1,0.6,1.4c0.1,0.7,0.1,1.2,0.2,1.8c0,0.4,0.2,0.7,0.3,1.1
				c0,0.4,0.1,0.9,0.1,1.3c0.1,0,0.1,0.1,0.1,0.3c-0.2,0.3-0.4,0.8-0.4,1.2c0.4,2.8,0.8,5.6,1.1,8.4c-2.9,0.1-5.8,0.2-8.7,0.3
				c-0.3,0.3-0.7,0.8-1.4,1.2c-1.7,0.9-3.4,1.6-5.2,2.4c-0.3,0.1-0.6,0.3-0.7,0.3c-0.7,0.1-1.5,0-2,0.3c-2.8,2-5.7,4.1-8.5,6.4
				c-2.4,1.8-4.6,3.9-7,5.8c-0.8,0.1-1.7,0.1-2.7,0.2c0.1,0.3,0,0.5,0.1,0.8c0.7,0.2,1.5,0.5,2.5,0.7c-1.3,1.2-2.2,2.8-3.7,3.4
				c-2.1,1-0.7,3-1.6,4.3c0,0.1-0.2,0.2-0.3,0.3c-0.4-0.5-0.9-0.8-1.3-1.3c0-0.7,0.1-1.5,0.2-2.2c0-0.5-0.1-0.9-0.1-1.4
				c-1-1.1-1.9-2.3-2.9-3.3c-1.6-1.6-3.5-3-5.2-4.6c-4.3-4-8.2-8.4-12.8-11.7c-7.5-5.3-16.1-7.5-25.4-6.6c-5,0.5-8.8,3.7-12.8,6.4
				c-4.8,3.3-8.6,7.6-10.6,13.2c-1.9,5.2-5.3,10.2-3.1,16.2c0.3,0.8,0.3,1.6,0.5,2.4c2.2,9.3,4.3,18.7,6.5,27.9
				c-0.7,2,0.3,2.5,2,2.2c0.4,0.1,0.7,0.3,1,0.4c-0.2,0.3-0.3,0.7-0.5,1c-0.1,0-0.3,0.1-0.4,0c-0.7,0.1-1.3,0.2-2,0.3l0,0
				c-1.1-0.1-2.2-0.4-3.4-0.5c0.1-0.5,0.2-1,0.5-1.9c-1.4,1.3-2.5,2.3-3.6,3.3c-0.2-0.2-0.3-0.3-0.5-0.5c0.4-0.5,0.8-0.9,1.2-1.5
				c-0.9,0.1-1.8,0.2-2.1,0.8c-1.3,3.1-4.8,2.2-6.9,3.7c-2.1,1.5-4.5,2.8-6.6,4.3c-3.2,2.3-4.8,6.3-8.7,7.8
				c-2.1-3.1-4.2-6.2-6.3-9.3c-1.5-1.8-2.8-3.8-4.3-5.6c-1.2-1.8-2.5-3.4-3.7-5.2c-1.1-1.8-2.2-3.5-3.3-5.3
				c-0.3-0.8-0.8-1.6-1.1-2.4c0-0.4-0.2-0.8-0.2-1.2c-0.1-0.5-0.3-1.1-0.5-1.6c0.1-1.4,0.1-2.6,0.1-4c0.1-0.9,0.2-1.8,0.2-2.7
				c0-0.6,0-1.1,0-1.8c-0.1-0.5-0.3-1.1-0.4-1.6c-0.1-0.3,0-0.6-0.1-0.9c-0.2-0.7-0.6-1.4-0.8-2.1s-0.4-1.4-0.8-2.2
				c-1.6-2.8-3.2-5.4-4.8-8.1c-0.1-0.1-0.2-0.3-0.3-0.4c-2.8-4.3-5.6-8.5-8.3-12.8c-3-4.7-6-9.5-9-14.2c-0.8-1.4-1.6-3-2.4-4.4
				c-0.2-1.2-0.4-2.3-0.6-3.5c0.5-0.5,1.1-1,1.6-1.4c0.2,0.1,0.5,0,0.9,0.1c0.5,0,0.9-0.1,1.4-0.1c0.1,0,0.2,0.1,0.4,0.1
				c0.6,0,1.3,0.2,2,0.2c0.7,0.2,1.4,0.3,2.1,0.3c0.1,0,0.4-0.5,0.5-0.8c-0.4-0.1-0.6-0.3-0.9-0.3c-1-0.7-1.9-1.4-2.9-2
				c-0.2-0.1-0.5-0.2-0.7-0.3c-0.4-0.3-0.8-0.7-1.3-1c-0.2-0.2-0.5-0.2-0.7-0.4c-0.4-0.3-0.8-0.8-1.2-1.2c-0.3-0.2-0.7-0.4-1-0.7
				c-0.5-0.5-1-1-1.5-1.5c-0.3-0.2-0.7-0.4-1-0.6c-0.4-0.5-0.8-0.8-1.2-1.3c-0.4-0.3-0.7-0.7-1.2-0.9c-0.4-0.5-0.8-0.8-1.2-1.3
				c-0.4-0.3-0.8-0.5-1.2-0.9c-0.5-0.5-1-1.1-1.5-1.6c-0.4-0.3-0.7-0.7-1.2-1c-0.5-0.5-1-1.1-1.5-1.6c-0.4-0.3-0.8-0.5-1.2-0.9
				c-0.5-0.5-1-1.1-1.5-1.6c-0.4-0.3-0.7-0.7-1.2-1c-0.6-0.6-1.2-1.3-1.8-2c-0.4-0.3-0.8-0.5-1.2-0.9c-0.6-0.8-1.2-1.4-1.8-2.2
				c-0.5-0.5-1.2-1-1.6-1.6c-0.6-0.8-1.2-1.4-1.8-2.2c-0.9-1.1-1.8-2.2-2.7-3.2c0.2-0.5,0.4-0.8,0.7-1.2c0.1-0.1,0.1-0.1,0.3-0.2
				c0.9-0.3,1.9-0.7,3-1c2.4-0.5,4.8-0.9,7.2-1.3c0.9-0.6,1.8-1.1,2.5-1.6c-0.3-0.4-0.4-0.9-0.7-1.2c-0.4-0.3-0.8-0.8-1.1-1.1
				c-0.1,0-0.2-0.1-0.3-0.2c-0.5-0.4-1.2-0.9-1.7-1.3c-0.6-0.5-1.4-1.1-2.1-1.5c-0.7-0.4-1.3-0.9-2-1.3c-0.3-0.3-0.7-0.7-1.2-0.9
				c-5.2-3.2-10.2-6.3-15.4-9.5c-0.5-0.4-1.1-0.6-1.5-1c-1-0.6-2-1.3-3-1.9c-0.5-0.4-1.1-0.6-1.7-1c-1.2-0.8-2.3-1.4-3.5-2.2
				c-0.5-0.4-1.1-0.6-1.7-1c-1.2-0.8-2.5-1.7-3.7-2.5c-0.5-0.4-1-0.6-1.5-1l0-0.1c-0.1,0-0.2-0.1-0.4-0.1c-0.5-0.4-1.1-0.7-1.7-1.1
				l0-0.1c-0.1,0-0.2-0.1-0.4-0.1c-0.5-0.4-1.2-0.9-1.7-1.3c0.1,0.8-0.3,0.6-0.6,0.4c-0.5-0.4-1.2-0.9-1.7-1.3l0-0.1
				c-0.1,0-0.2-0.1-0.4-0.1c-0.4-0.3-0.8-0.8-1.1-1.1c-0.4-0.3-0.8-0.5-1.2-0.9c-0.5-1.2-3.3-2.2-0.5-4c0.1,0,0.3-0.1,0.4,0
				c0.7,0,1.5,0,2.3,0c0.5,0.1,1,0.1,1.5,0.2c0.6,0,1.3,0.2,2,0.2c0.2,0.1,0.6,0.1,0.8,0.2c0.7,0,1.3,0.2,2.1,0.2
				c0.9,0.1,2,1.1,2.5-0.6c-0.3-0.4-0.7-0.9-1-1.3c-0.2-0.1-0.5-0.2-0.7-0.3c-0.4-0.3-0.8-0.7-1.3-1c-0.3-0.2-0.7-0.4-1-0.6
				c-0.4-0.3-1-0.6-1.4-0.9l0-0.1c-0.1,0-0.2-0.1-0.4-0.1c-0.5-0.2-1-0.6-1.4-0.8l0-0.1c-0.1,0-0.2-0.1-0.4-0.1
				c-0.8-0.4-1.5-1-2.4-1.4c-0.7-0.4-1.2-0.8-1.9-1.1c-0.7-0.4-1.4-0.7-2.1-1.1c-0.1,0-0.2-0.1-0.3-0.2c-0.5-0.4-1-0.6-1.5-1
				c-1.9-1.1-3.9-2.3-5.9-3.3c-0.8-0.4-1.6-0.9-2.5-1.3l0-0.1c-0.1,0-0.2-0.1-0.4-0.1c-0.9-0.6-1.7-1.1-2.6-1.7
				c-0.5-0.4-1.2-0.8-1.7-1.1c-0.9-0.5-1.7-1-2.4-1.4c-0.5-0.4-1.2-0.8-1.7-1.1c-0.4-0.3-0.8-0.7-1.3-1c-0.2-0.2-0.5-0.2-0.7-0.4
				c-0.4-0.3-0.8-0.7-1.3-1c-0.2-0.2-0.5-0.2-0.8-0.4c-0.4-0.3-0.8-0.7-1.4-1.1c0,0,0-0.1,0.1-0.1c-0.1,0-0.1,0-0.2-0.2
				c-1.4-0.9-3-1.9-4.4-2.9c-0.4-0.3-0.8-0.7-1.2-1.2c-0.2-0.2-0.5-0.2-0.8-0.4c-0.4-0.3-0.8-0.7-1.2-1.2c-1-0.6-1.8-1.3-2.8-1.9
				c-0.4-0.3-0.8-0.8-1.2-1.2c-0.3-0.2-0.7-0.4-1-0.6c-0.4-0.3-0.8-0.8-1.2-1.2c-1-0.7-1.8-1.4-2.8-2.1c-0.4-0.3-0.8-0.8-1.2-1.2
				c-0.3-0.2-0.7-0.4-1-0.6c-0.5-0.5-1-1-1.5-1.5c-0.3-0.2-0.7-0.4-1-0.6c-0.4-0.5-0.8-0.8-1.2-1.3c-0.4-0.3-0.8-0.7-1.2-0.9
				c-0.5-0.5-1-1.1-1.5-1.6c-0.4-0.3-0.8-0.5-1.2-0.9c-0.7-1.2-1.6-2.5-2.3-3.7c1.3-0.3,2.7-0.8,4.1-1.1c1,0,1.9-0.1,2.9-0.2
				c1.1,0,2.3,0,3.4,0c0.5,0,1,0.1,1.5,0.1c0.2,0.1,0.5,0.1,0.9,0.1c0.9-0.1,1.9-0.1,2.8-0.1c0.4,0,0.8-0.2,1.2-0.2
				c-0.3-0.2-0.7-0.4-1-0.6c-0.5-0.2-1-0.6-1.4-0.8c-0.1,0-0.2-0.2-0.3-0.2c-0.5-0.4-1-0.6-1.5-1c-0.5-0.4-1.2-0.8-1.7-1.1
				c-0.5-0.4-1.1-0.6-1.7-1c-0.5-0.4-1.2-0.7-1.8-1c-1.1-0.6-2.1-1.3-3.2-2c-0.1,0-0.2-0.2-0.3-0.2c-0.5-0.2-1-0.6-1.4-0.8
				c-0.1,0-0.2-0.1-0.3-0.2c-0.5-0.2-1-0.6-1.4-0.8l0-0.1c-0.1,0-0.2-0.1-0.4-0.1c-0.6-0.3-1-0.6-1.6-0.9c-0.4-0.3-0.8-0.7-1.2-0.9
				c-0.5-0.4-1.1-0.6-1.7-1s-1.2-0.8-1.7-1.1c-0.7-0.4-1.2-0.9-1.8-1.3c-0.2-0.1-0.5-0.2-0.7-0.3c-0.4-0.3-0.8-0.8-1.2-1.2
				c-0.3-1.1-2.3-1.5-0.9-3.1c0.7-0.2,1.4-0.6,1.9-0.8c0.1-0.1,0.3-0.2,0.5-0.4c0.1-0.6,0.2-1.1,0.4-1.7c-0.6-1-1.3-2-1.9-3.1
				c-0.6-0.6-1.2-1.4-1.8-2C94.6,3.2,94.2,3,94,2.8c-0.5-0.5-1-1-1.4-1.4c-0.3-0.2-0.7-0.4-1-0.6c-0.4-0.3-0.8-0.8-1.2-1.2
				c-0.3-0.2-0.7-0.4-1-0.6c-0.4-0.3-0.8-0.8-1.2-1.2c-0.3-0.2-0.7-0.4-1-0.6c-0.4-0.5-0.8-0.8-1.2-1.3c-0.4-0.3-0.9-0.6-1.2-0.9
				c-0.4-0.5-0.8-0.8-1.2-1.3c-0.4-0.3-0.8-0.7-1.2-1c-0.4-0.5-0.8-0.9-1.2-1.3c-0.5-0.4-0.9-0.8-1.5-1.2c-0.6-0.6-1.2-1.4-1.8-2
				c-0.5-0.5-1.2-1-1.7-1.5c-1.4-2.1-2.7-4-4.2-6.1c-0.4-0.6-0.6-1.4-1.1-1.9c-1.3-1.5-0.8-2.4,0.8-3.5 M369.5,184.3
				c0.1,0.1,0.2,0.3,0.4,0.5c0.3-0.3,0.6-0.6,1-0.9c-0.1-0.1-0.2-0.2-0.3-0.3C370.2,183.8,369.8,184.1,369.5,184.3z M370.6,187.1
				c0.1,0,0.3-0.1,0.4,0c0-0.1-0.1-0.3,0-0.4c-0.1,0-0.4,0-0.4,0C370.5,186.8,370.6,187,370.6,187.1z"/>
		</defs>
		<clipPath id="SVGID_2_">
			<use xlink:href="#SVGID_1_"  style="overflow:visible;"/>
		</clipPath>
		<g id="XMLID_1_" class="st1">
			<g>
				<path class="st2" d="M412.7-121C575.9-84.4,678.6,77.7,641.9,241c-36.6,163.3-198.7,265.9-362,229.3S14,271.5,50.7,108.3
					C87.3-55,249.4-157.7,412.7-121z"/>
			</g>
		</g>
	</g>
	<path class="st3" d="M505,372.8c-0.7-0.2-1.5-0.5-2.2-0.6c-0.1,0-0.3-0.2-0.5-0.2c-0.9-0.3-1.7-0.6-2.7-1c-0.2-0.1-0.5-0.2-0.8-0.3
		c-0.2-0.1-0.6-0.3-0.8-0.3c-0.7-0.4-1.5-0.7-2.1-1.1c-1.3-0.5-2.4-1-3.7-1.6c-0.1,0.1-0.2-0.1-0.3-0.2c-2-1.2-4.1-2.4-6.1-3.6
		c-0.3-0.2-0.7-0.4-1-0.7c-0.5-0.4-1-0.6-1.5-1c-0.2-0.2-0.5-0.5-0.7-0.7c-1.3-0.9-2.5-1.9-3.8-2.8c-0.2-0.3-0.4-0.5-0.6-0.8
		c-0.6-0.6-1.4-1.2-2-1.8c-0.2-0.2-0.3-0.3-0.5-0.5c-1-1.1-2-2.1-3-3.2c-0.3-0.3-0.6-0.8-0.9-1.1c-1.3-1.7-2.5-3.2-3.9-4.9
		c-2.4-3.8-4.8-7.6-7.2-11.4c-0.9-2-1.9-3.9-2.8-5.9c-0.4-0.6-0.6-1.1-1-1.7c-0.5-1.2-1-2.5-1.5-3.7c-0.3-0.6-0.5-1.1-0.9-1.7
		c-0.4-1-0.7-1.9-1.1-2.9c-0.2-0.3-0.3-0.6-0.4-1c-0.4-1.1-0.9-2.2-1.3-3.3c-0.2-0.3-0.3-0.6-0.4-1c-0.4-1.1-0.8-2.2-1.1-3.3
		c-0.2-0.3-0.3-0.7-0.5-1c-0.3-0.9-0.6-1.9-1-2.9c-0.2-0.3-0.3-0.7-0.5-1c-0.4-1.1-0.9-2.2-1.3-3.3c-0.2-0.4-0.4-0.9-0.6-1.3
		c-0.7-1.5-1.3-3.1-2-4.5c-0.4-0.9-0.9-1.6-1.3-2.4c-0.2-3.4-2.6-5.7-4.4-8.3c-0.6-0.9-1-1.6-1.6-2.5c-1.2-2.1-1.9-4.6-4.4-5.6
		c-0.3-0.3-0.6-0.8-0.9-1.1c-1.5-1-3.1-1.8-4.6-2.8c-0.5,0-1.2,0.1-1.7,0.1c-0.9,1.6,0.6,2.3,1.3,3.2c0.6,1,1.2,2.1,1.8,3.2
		c0.2,0.8,0.4,1.6,0.6,2.5l0.1,0.1l-0.1,0.1c-0.2,0.5-0.4,1-0.6,1.5c-0.1,0.1-0.3,0.3-0.5,0.4c-1.6,0.5-3.2,0.9-4.8,1.4
		c-1.2,0.2-2.4,0.5-3.5,0.7c0,0.1-0.2,0.2-0.3,0.2c-0.1,0.6-0.4,1.4-0.2,1.6c1.4,0.8,3,1.7,4.5,2.4c0.2,0.2,0.3,0.3,0.5,0.5
		c0.7,0.7,1.6,1.4,2.3,2c0.2,0.3,0.4,0.5,0.6,0.8c0.8,0.8,1.6,1.7,2.4,2.6c1.7,2.6,3.3,5.3,5.1,8c0.4,1.1,0.9,2.2,1.3,3.3
		c0.2,0.4,0.4,0.9,0.6,1.3c-0.1,0.4-0.3,0.7-0.2,1.1c0.4,4-0.5,4.6-4.4,3.9c-1-0.2-2-0.1-3,0l-0.1,0.1l-0.1-0.1
		c-1.6-0.3-3.3-0.6-4.8-1c-0.2-0.1-0.4-0.1-0.6,0c-1.6,0-3.3,0-5,0c-0.3,0.2-0.6,0.4-0.9,0.6c-0.1,0.5-0.2,1-0.2,1.3
		c0.2,0.3,0.3,0.4,0.5,0.7c2.5,1.7,4.9,3.5,7.4,5.2c0.2,0.2,0.5,0.5,0.7,0.7c0.6,0.6,1.4,1.2,2,1.8c0.4,0.5,0.8,1.1,1.2,1.5
		c1.2,1.9,2.3,3.7,3.5,5.6c0.3,0.7,0.7,1.4,1,2.1c0.3,0.9,0.6,1.9,0.9,2.8c0.1,0.3,0.2,0.4,0.2,0.7c0.3,2.1,0.7,4.3,1,6.4
		c-0.1,1.6-0.4,3.3-0.5,4.9c-0.1,0.2-0.1,0.6-0.2,0.8c-0.3,0.9-0.8,1.8-1.1,2.9c-0.4,0.5-0.9,1.2-1.3,1.7c-0.6,0.5-1.2,1-1.8,1.5
		c-0.3,0.2-0.7,0.3-1,0.5c-0.4,0.3-0.9,0.4-1.3,0.7c-0.5-0.1-0.8-0.2-1.3-0.3c-0.3-0.4-0.5-0.7-0.7-1.2c-0.6-3.1-1.1-6.1-1.7-9.3
		c-0.1-0.3-0.2-0.4-0.3-0.7c0-2.4-1.4-4.7-3.6-5.7c-0.2-0.2-0.5-0.5-0.7-0.7c-1-0.6-2-1.2-3-1.8c-0.5-0.2-1-0.5-1.5-0.7
		c-1.3-0.4-2.6-0.7-3.9-1.1l0,0c-0.7-0.2-1.3-0.3-2-0.5l-0.1,0.1l-0.1-0.1c-0.6,0-1.2-0.1-1.7-0.1c-1.6-0.1-3.2-0.1-4.8-0.2
		c-1.9,0.1-3.9,0.1-5.8,0.1c-0.3,0.1-0.7,0.1-0.9,0.1c-1.8,0.1-3.6,0.2-5.3,0.3c-0.6,0-1.2,0-1.9,0.1c-2.1-0.1-4.4-0.1-6.5-0.2
		c-0.1,0-0.4-0.1-0.5,0c-0.6,0-1.1-0.1-1.7-0.1c-0.1,0-0.4-0.1-0.5,0c-2.1-0.3-4.1-0.8-6.1-1.1l-0.1,0.1l-0.1-0.1
		c-0.2-0.1-0.6-0.1-0.8-0.2c-0.4-0.1-0.8-0.2-1.2-0.3c-0.6-0.3-1-0.4-1.6-0.6c-0.1,0-0.3-0.2-0.5-0.2c-0.3-0.2-0.7-0.3-1-0.5
		c-0.5-0.2-0.9-0.3-1.3-0.5c-0.3-0.3-0.6-0.6-0.9-0.8c-2.7-1.9-5.4-3.8-8.1-5.7c-0.8-0.7-1.8-1.4-2.7-2.1c-0.4-0.5-0.8-0.9-1.2-1.5
		c-0.7-0.8-1.4-1.4-2.3-2.3c-0.4-0.5-0.8-0.9-1.2-1.5s-0.7-1.3-1.3-1.5c-0.2-0.2-1.4,0.6-1.4,0.8c0.3,2.5,0.9,4.8,1.4,7.2
		c0.1,0.3,0.2,0.4,0.2,0.7c0.5,2.2,0.9,4.5,1.4,6.8c0.1,0.3,0.2,0.4,0.3,0.7c0.2,0.8,0.5,1.6,0.7,2.5c0.2,0.3,0.3,0.7,0.4,1
		c0,3.3,2.4,5.4,4,7.8c0.6,1,1.2,1.9,1.9,2.9c2,3.2,4,6.4,6,9.6c0.7,1.2,1.9,2.1,3,3c0.8,1.3,1.7,2.5,2.5,3.8
		c2.3,3.2,4.5,6.3,6.8,9.4c1.6,2.5,3.1,5.1,4.8,7.6c0.9,1.7,1.6,3.5,2.5,5.2c0.2,0.4,0.4,0.9,0.6,1.3c0.3,0.8,0.5,1.7,0.8,2.6
		c0.2,0.3,0.3,0.6,0.4,1c0.6,4.4,1.4,8.8,2.1,13.1c0.1,0.3,0,0.5,0.1,0.9c0.2,2.7,0.2,5.3,0.3,8.1c0.1,0.3,0,0.5,0.1,0.8
		c-0.1,0.4,0,0.6-0.1,1c0,0.6,0,1.1,0,1.8c0,0.5-0.1,0.9-0.1,1.4c0,0.6,0,1.2-0.1,2c-0.1,1-0.2,1.8-0.3,2.8c0,0.6-0.1,1.1-0.1,1.7
		c-0.1,0.6-0.2,1.3-0.3,1.9l0.1,0.1l-0.1,0.1c-0.3,1.7-0.6,3.4-0.9,5.1l0.1,0.1l-0.1,0.1c-0.2,0.7-0.3,1.4-0.5,2
		c-0.1,0.4-0.2,0.8-0.4,1.2c-0.7,0.8-1.5,1.7-2.2,2.6c-0.1,0-0.4-0.1-0.5-0.1c-0.6-0.5-1.3-1-1.9-1.6c-0.5-0.6-1-1.3-1.4-2
		c-0.8-0.8-1.6-1.6-2.5-2.4c-0.2-0.2-0.3-0.3-0.5-0.5c-1.1-0.9-2.1-1.7-3.2-2.5c-0.3-0.2-0.7-0.4-1-0.6c-2.1-1.5-4.1-3-6.2-4.3
		c-3.4-2-7-3.8-10.8-5.7c-2.8-1.4-5.7-2.5-8.7-3.8c-0.3-0.2-0.5-0.4-0.9-0.6c-0.3-0.2-0.6-0.3-0.9-0.5c-0.2-0.2-0.3-0.2-0.5-0.4
		c-1-0.7-1.9-1.6-3-2.2c-2.3-1.4-4.5-2.8-6.9-4c-0.2-0.2-0.5-0.5-0.7-0.7c-0.5-0.4-1-0.7-1.5-1.1c-0.2-0.2-0.5-0.5-0.7-0.7
		c-0.8-0.8-1.5-1.7-2.3-2.5c-1.3-1-2.7-2-4-3c-0.2-0.3-0.4-0.5-0.7-0.8c-0.6-0.6-1.2-1.2-2-1.8c-0.3-0.4-0.7-0.8-1-1.2
		c-0.8-0.8-1.6-1.6-2.4-2.6c-0.3-0.3-0.6-0.8-0.9-1.1c-0.9-1.6-1.7-3.1-2.7-4.6c-1-1.6-0.9-2.7,0.8-3.7c0.2,0.1,0.5,0.1,0.7,0.2
		c0.9,0.3,1.7,0.6,2.7,1c0.2,0.1,0.6,0.3,0.8,0.3c0.4,0.1,0.6,0.1,1,0.2l0.1-0.1l0.1,0.1c1.8,0.8,2.7,0.2,2.8-1.8
		c-0.1-0.3,0-0.5-0.1-0.8c0-0.5,0-1-0.1-1.4c-0.2-0.4-0.3-0.9-0.6-1.4c-0.6-1.4-1.3-2.7-1.8-4.1c-0.9-1.6-1.8-3.2-2.7-4.7
		c0.1-1.6-0.5-3.4,1.5-4.3c0.6-0.4,1.1-0.6,1.7-1c1-2,0.1-3.9-2.2-4.9c-0.5-0.6-1-1.3-1.4-2c-1-1.1-1.9-2.2-2.9-3.2
		c-0.7-1.2-1.5-2.3-2.2-3.5c-0.1-0.7-0.1-1.3-0.2-1.9l0,0c0.6-1.1,1.4-2.3,2-3.4c0.3-0.3,0.5-0.6,0.8-0.9c1.7-1.5,2.5-3.3,1.3-5.6
		c-0.2-0.3-0.3-0.6-0.4-1c0-0.5,0.2-1.1,0.1-1.5c-1.1-1.8-2.3-3.5-3.6-5.3c-0.2-0.4-0.4-0.9-0.6-1.3c0.4-1,0.8-2.1,1.2-3.1
		c0.6-0.3,1.1-0.6,1.7-0.9c3.8-0.5,6.6-2.4,8.8-5.6c0.3-0.3,0.8-0.6,1.1-0.9c0.4-0.5,0.7-1,1.1-1.5c0.2-0.2,0.5-0.5,0.7-0.7
		c1.2-1.9,2.6-3.6,3.5-5.5c1.2-2.6-0.8-4.2-2.3-5.9c3.1-2.4,6-4.9,9.1-7.5c0.5-0.8,1.2-1.5,1.7-2.1l0-0.1c0.7-0.5,1.6-0.8,2-1.4
		c3.2-4.9,6.5-9.8,8.3-15.6c0.2-0.7,0.2-1.6,0.3-2.3l0-0.1c1.4-1.4,1.8-3.1,1.5-5.1l0-0.1c0.4-0.5,1.1-0.9,1.2-1.5
		c0.3-1.8,1.6-2.5,2.8-3.1c1.2-0.5,2.6-0.5,3.8-0.9c2.9-1,6.2-0.4,8.5-2.7c3.6-2,6.5-4.3,8-8.2c1.1-2.6,3.2-4.1,6.2-3.6
		c1.7,0.3,3.3,0.2,4.9,0.5c6.4,1.2,12.7,1.7,19,0.8c7.4-1.1,14.3-3.4,20.5-7.6c0.4-0.3,1.2-0.1,1.8-0.1c0,1,0.2,2,0.2,2.9
		c-0.1,0.2,0,0.4,0,0.6c0.2,1.9,0.4,3.8,0.6,5.8c0.2,0.3,0.3,0.7,0.5,1c0.2,0.3,0.3,0.4,0.5,0.7c0.8,0.4,1.6,0.9,2.4,1.2
		c1.1,0.2,2.2,0.4,3.3,0.6c0.9,0.1,1.6,0.1,2.5,0.1c1.8-0.1,3.6-0.3,5.4-0.4c0.3-0.1,0.4-0.2,0.7-0.2c0.7-0.1,1.4-0.3,2.1-0.4
		c0.3-0.1,0.5-0.1,0.7-0.2c0.8-0.3,1.6-0.5,2.4-0.8c1.4-0.8,2.9-1.6,4.3-2.5c1.4-0.1,2.8,0,4.2-0.1c0.2,0.2,0.3,0.3,0.5,0.5
		c1.7,2.1,3.2,4.1,4.9,6.2c0.3,0.4,0.6,0.8,1,1.2c1.4,1.1,2.7,2.1,4.1,3.2c0.2,0.2,0.4,0.3,0.7,0.4c2.1,0.7,4.1,1.4,6.2,2.1
		c0.2,0.3,0.5,0.6,0.7,0.9c0.2,0.3,0.4,0.6,0.6,0.9c0.3,0.6,0.6,1.1,0.9,1.7c0.8,2.2,1.4,4.3,2.2,6.5c0.2,0.3,0.3,0.6,0.4,1
		c0.2,0.9,0.2,1.8,0.5,2.6c0.5,0.7,0.7,2.3,2.2,1.3c0.3-0.2,0.6-0.4,0.9-0.6c0.4-0.5,0.7-1,1.1-1.5c0.4-0.2,0.9-0.4,1.3-0.6
		c1,1.5,2.1,3.1,3.2,4.6c0.3,0.7,0.7,1.4,1,2.1c0.4,1.1,0.9,2.2,1.3,3.3c0.7,1.2,1.5,2.3,2.3,3.5c0.5,0.2,1.1,0.6,1.3,0.5
		c1.1-0.9,1.9-1.8,2.9-2.7c0.3-0.2,0.5-0.4,0.8-0.7c0.6-0.6,1.2-1.4,1.8-2c0.3-0.2,0.6-0.5,0.9-0.7c1-0.6,2.1-0.9,2.9,0.4
		c0.1,0.3,0.2,0.7,0.3,0.9c0.3,1.4,0.5,2.7,0.8,4.2c0.1,0.3,0.2,0.7,0.3,0.9c0.3,1.4,0.5,2.7,0.8,4.2c0.1,0.3,0.2,0.7,0.3,0.9
		c-0.1,0.2-0.2,0.5-0.3,0.6c0.7,5.1,1.5,10.1,2.3,15.3c0.1,0.8,0,1.6,0.1,2.4c-0.1,0.2-0.1,0.6-0.1,0.9l0.1,0.1l-0.1,0.1
		c-0.1,0.9,0,1.9-0.1,2.7c-0.1,0.2,0,0.4,0,0.6c0,0.6-0.1,1.1-0.1,1.7s-0.1,1.1-0.1,1.6c-0.2,1.3-0.4,2.7-0.5,4
		c-0.1,0.4,0,0.7-0.1,1.1c-0.1,0.4-0.1,0.6-0.1,1c-0.1,0.2,0,0.6-0.1,0.9c-0.1,0.5-0.2,0.8-0.2,1.3c-0.1,0.4-0.2,0.7-0.2,1.1
		c-0.3,1.7-0.5,3.3-0.7,5c-0.1,0.2,0,0.5-0.1,0.9c-0.2,1.6-0.5,3.2-0.7,4.6c-0.1,0.6-0.1,1.2-0.3,1.8c0,0.7-0.2,1.6-0.3,2.3
		c-0.1,0.2-0.1,0.4-0.1,0.6c0,0.6-0.1,1.1-0.1,1.7c-0.1,0.4,0,0.7-0.1,1.2c-0.1,3.1,0,6.3-0.1,9.4c0,0.4,0.1,0.8,0.2,1.2
		c0.3,1.6,0.7,3,1,4.6c0.3,0.7,0.7,1.4,1,2.1c1,1.6,2,3.2,3,4.9"/>
	<path class="st4" d="M428.4,244.1c-0.6,0-1.3-0.2-1.8,0.1c-6.2,4.1-13.2,6.4-20.5,7.6c-6.4,1-12.8,0.4-19-0.8
		c-1.7-0.4-3.3-0.4-4.9-0.5c-3.1-0.3-5.1,1.1-6.2,3.6c-1.6,3.9-4.5,6.3-8,8.2c-5,1-10.2,1.2-14.5,4.4c-1.5,1-2.2,2.1-1.7,3.9l0,0.1
		c-0.5,1.6-1,3.4-1.5,5.1l0,0.1c-1.2,2.6-2.4,5.2-3.8,7.8c-1.4,2.7-3,5.4-4.4,8c-0.7,1.2-1.5,2.3-2.3,3.5l0,0.1
		c-0.5,0.8-1.2,1.5-1.7,2.1c-3.1,2.4-6,4.9-9.1,7.5c-0.3,0.3-0.5,0.5-0.8,0.8c-3.1,1.7-6.2,3.5-9.3,5.1c-1.8,0.8-3.7,1.3-5.6,1.9
		c-1.2,0.4-2.5,0.7-3.7,1c-0.9,0.1-1.9,0-2.8,0.1c-2.7,0.4-5.3,0.8-8,1.2c-1.2,0.1-2.2,0.4-3.3,0.6c-1.2-0.1-2.4-0.3-3.6-0.2
		c-6.2,0.6-12.5,2-18.3-1.7c-0.6-0.8-1-1.6-1.6-2.4c-0.7-1.8-1.5-3.6-2.2-5.4c0.1-0.1,0.1-0.1,0.2-0.2c0.1-0.2,0.2-0.3,0.3-0.6l0,0
		c0.6-1.5,1.2-3,1.9-4.5c-0.3-0.9-0.6-2-0.8-2.9c-0.2-0.7-0.4-1.4-0.6-2c-0.1-0.7-0.1-1.3-0.2-1.9c-0.2-1.5,0-3.3-0.4-4.7
		c-2-5.7-3.3-11.4-3.2-17.4c0-4.1,0.9-8.3,1.3-12.5c0.1-0.2,0.1-0.5,0.2-0.7c0-0.1,0.1-0.4,0.1-0.5l0,0c0.2-0.3,0.4-0.5,0.6-0.9
		c1.5-2.6,3-5.1,4.4-7.5c0.4-0.2,0.9-0.3,1.3-0.6c2.2-2.4,4-5.1,6.5-7.1c3.4-2.6,7.1-4.9,10.9-6.7c3.2-1.4,6.7-2,10.2-3l0,0
		c0.7-0.1,1.3-0.2,2-0.3c0.1,0,0.3-0.1,0.4,0c2.1,0.2,4.1,0.6,6.1,0.6c2.3,0.2,4.8,0.2,7.2,0.4l0,0c1.7,0.4,3.2,0.7,4.9,1.1l0,0
		c1.9,0.8,4,1.5,6,2.5c2.4,1,4.9,2.1,7.3,3.4c2.8,1.5,5.5,3.3,8.3,4.9l0,0c1.3,0.9,2.6,2,3.9,2.9c3.7,2.6,8.1,3.7,12.3,0.6
		c1.1-0.8,2.2-1.5,3.4-2.1c3.5-2.2,5-5.4,4.2-9.3c-1.2-6.9-2.4-13.7-3.8-20.5c0.1-0.2,0.3-0.6,0.3-0.8c0.2-9.6,2.6-18.7,8.2-26.5
		c2.8-3.9,6.1-7.4,9.5-10.7c2.9-2.7,6.4-4.8,9.5-7.3c0.3-0.1,0.6-0.3,0.7-0.3c4.7-0.9,9.5-1.9,14.1-2.9c0.9-0.2,1.8-0.3,2.7-0.5
		c5.5-0.4,10.9,0.1,15.9,2.2c5.6,2.4,10.6,6,15.1,10c2.8,2.5,5.4,5.1,8.4,7.3c1.4,1.1,3.4,1.4,5.2,1.9c1.4,0.4,2.8,0.8,4.2,1.2
		c0.5,0.1,1,0.5,1.2,0.9c1.2,2.9,2.3,5.8,3.4,8.7c0.6,1.9-0.5,3.3-1.5,4.7c-4.9,5.8-8.3,12.6-12.3,18.9c-2.7,4.2-5.8,8.1-9.2,11.6
		c-3.4,3.4-7.4,6.2-11.1,9.3l-0.1,0.1L428.4,244.1z M402.1,243.8L402.1,243.8c0.6,0,1.1,0,1.6,0.1l0.1,0c3.3,1.1,6.4,0.3,9.5-0.9
		c2-0.6,4.3-0.8,6.2-1.8c6.5-3.7,12.8-7.3,17-13.9c2.9-4.5,5.4-9.1,6-14.5c1.6-2.1,1-4.5,0.9-6.8l0-0.1c-0.1-0.3,0-0.5-0.1-0.8
		c0-0.7,0.3-1.4,0.2-2.1c-0.8-5.4-2-10.6-5.1-15.3c-6.1-9-14.8-14-25.4-14.7c-9.1-0.7-17.6,1.7-25.1,7.4c-5.6,4.1-9.9,9.3-12.6,15.5
		c-4.9,10.8-4.9,21.7,1,32.2c2.9,5.2,7.5,8.7,12.3,11.7c3.7,2.3,7.9,3.8,12.4,3.8C401.3,243.7,401.6,243.8,402.1,243.8z M341.4,277
		c0.2-0.8,0.8-1.8,0.7-2.6c-0.4-2.1,1.3-4.2,0-6.3c-0.2-8.8-3.6-16.2-10.1-22.2c-5.4-5.1-11.9-8.1-19.2-8.8
		c-6.7-0.8-13.2,0.6-19.4,3.3c-7.5,3.2-13,8.6-17.3,15.1c-3.6,5.2-5.2,11.5-5.7,17.9c-0.5,7.8,1.4,15,6.1,21.3
		c3.4,4.5,7.8,7.9,12.7,10.5c6.1,3.1,12.3,3.6,19,2.5c3.3-0.5,6.8-0.8,9.7-2.2c6.5-3.3,12.4-7.4,16.8-13.5
		C338.1,287.2,340.5,282.5,341.4,277z"/>
	<path class="st5" d="M301.8,232c-3.5,1-7,1.4-10.2,3c-3.9,1.8-7.6,4.1-10.9,6.7c-2.4,2-4.3,4.7-6.5,7.1c-0.3,0.3-0.9,0.4-1.3,0.6
		c-0.3-0.6-0.6-1.1-0.9-1.7c3.9-1.6,5.5-5.5,8.7-7.8c2.1-1.5,4.5-2.8,6.6-4.3c2.1-1.5,5.6-0.8,6.9-3.7c0.3-0.6,1.2-0.7,2.1-0.8
		c-0.4,0.5-0.8,0.9-1.2,1.5c0.2,0.2,0.3,0.3,0.5,0.5c1.1-1,2.1-2,3.6-3.3c-0.2,1-0.4,1.4-0.5,1.9C299.6,231.8,300.7,231.9,301.8,232
		z"/>
	<path class="st6" d="M267.5,259.2c-0.4,4.2-1.2,8.3-1.3,12.5c-0.2,6,1.3,11.7,3.2,17.4c0.5,1.5,0.3,3.2,0.4,4.7
		c-0.8-2.9-1.8-5.8-2.5-8.8c-0.8-3.6-1.3-7.1-1.9-10.7l0,0c-0.3-1.1-0.6-2.2-0.9-3.2c-0.2-0.8-0.3-1.4-0.5-2.6
		c0.5,0.4,0.9,0.6,1.2,0.8c0.5-2.7,0.8-5.5,1.3-8.1C266.7,260.4,267.2,259.8,267.5,259.2z"/>
	<path class="st5" d="M409.5,167c-0.9,0.2-1.8,0.3-2.7,0.5c-4.7,0.9-9.5,1.9-14.1,2.9c1.7-0.8,3.5-1.5,5.2-2.4
		c0.6-0.3,1.1-0.9,1.4-1.2c2.9-0.1,5.8-0.2,8.7-0.3c-0.4-2.8-0.7-5.7-1.1-8.4c0-0.4,0.3-0.7,0.4-1.2c0.4,2.3,0.7,4.8,1.2,7.2
		C408.5,165.1,409,166.1,409.5,167z"/>
	<path class="st5" d="M297,316.2c-0.7-0.2-1.4-0.4-2.1-0.6c1.1-0.3,2.2-0.5,3.3-0.6c2.7-0.4,5.3-0.8,8-1.2c0.9-0.2,1.9-0.1,2.8-0.1
		c0.1-0.1,0.1-0.1,0.3-0.2c0,0,0.1,0,0.1-0.1c-2.3,0.7-4.5,1.5-6.7,2.1c-1.1,0.4-2.4,0.5-3.5,0.6l0,0
		C298.4,316.3,297.7,316.3,297,316.2z"/>
	<path class="st4" d="M188.9,103.1c5.2,3.2,10.2,6.3,15.4,9.5c0.5,0.2,0.8,0.5,1.2,0.9c-4.5-2.8-9-5.5-13.5-8.4
		C191,104.4,189.9,103.8,188.9,103.1z"/>
	<path class="st4" d="M228.7,166.7c3,4.7,6,9.5,9,14.2C234.7,176.1,231.8,171.4,228.7,166.7z"/>
	<path class="st5" d="M367,358.3c-1-1-2.2-1.9-3-3c-2.1-3.1-4-6.4-6-9.6C361,349.9,364.1,354.1,367,358.3z"/>
	<path class="st5" d="M367.9,101.8c-0.1,0-0.4,0-0.4-0.1c-3.7-4.1-7-8.5-8.5-14c1.2,2,2.2,4.1,3.5,6.2
		C364.2,96.5,366.1,99.1,367.9,101.8z"/>
	<path class="st5" d="M508.7,313.4c-0.7-5.1-1.6-10.1-2.3-15.3c-0.1-0.1,0.2-0.3,0.3-0.6C508.1,302.7,509,308,508.7,313.4z"/>
	<path class="st5" d="M355.1,322c0.8,0.7,1.7,1.4,2.7,2.1c2.7,1.9,5.4,3.8,8.1,5.7c0.3,0.2,0.6,0.6,0.9,0.8
		C362.1,328.7,358.4,325.6,355.1,322z"/>
	<path class="st5" d="M429.2,314.7c1,0,2,0,3,0c4,0.8,4.8-0.1,4.4-3.9c0-0.4,0.2-0.7,0.2-1.1c1.5,4.5,0.2,6.2-4.4,5.7
		C431.5,315.3,430.3,314.9,429.2,314.7z"/>
	<path class="st5" d="M376.5,371.6c-2.3-3.2-4.5-6.3-6.8-9.4C371.9,365.3,374.2,368.4,376.5,371.6z"/>
	<path class="st5" d="M327.8,305.8c0.3-0.3,0.5-0.5,0.8-0.8c1.5,1.7,3.5,3.3,2.3,5.9c-0.9,1.9-2.3,3.7-3.5,5.5
		c0.8-1.4,1.6-2.8,2.3-4.2C331.2,309,330.7,307.6,327.8,305.8z"/>
	<path class="st5" d="M324.4,319.6c-2.1,3-5,5-8.8,5.6C318.6,323.2,321.5,321.5,324.4,319.6z"/>
	<path class="st5" d="M439.1,285.8c1.8,2.5,4.2,4.8,4.4,8.3C442,291.3,440.5,288.5,439.1,285.8z"/>
	<path class="st5" d="M349.2,323.3c-0.5-2.4-1-4.9-1.4-7.2c-0.1-0.3,1.1-1,1.4-0.8c0.6,0.3,0.9,1.1,1.3,1.5c-0.5-0.2-1-0.4-1.9-0.7
		C348.8,318.7,348.9,321,349.2,323.3z"/>
	<path class="st5" d="M356.2,342.7c-1.6-2.5-4-4.5-4-7.8C353.5,337.6,354.9,340.1,356.2,342.7z"/>
	<path class="st6" d="M271.5,300.6c-0.6,1.5-1.2,3-1.9,4.5c-0.1-0.5-2.1-0.3-0.5-1.5c0-0.1,0-0.5-0.1-0.5c-1.2-0.4-1.4-1.2-0.6-1.9
		c0.3-0.3,1.5,0.1,2.3,0.2C271,301.2,271.3,300.9,271.5,300.6z"/>
	<path class="st5" d="M463.3,259.2c-1.7-2.1-3.2-4.1-4.9-6.2C460.1,255,461.7,257.1,463.3,259.2z"/>
	<path class="st5" d="M424.9,345.3c0.6,3.1,1.1,6.1,1.7,9.3C426,351.5,425.4,348.4,424.9,345.3z"/>
	<path class="st5" d="M313.5,330.3c1.2,1.8,2.5,3.6,3.6,5.3c0.2,0.3-0.1,1-0.1,1.5C315.8,334.9,314.6,332.6,313.5,330.3z"/>
	<path class="st5" d="M504.4,360.3c0.1-3.1,0-6.3,0.1-9.4C504.5,353.9,504.5,357.2,504.4,360.3z"/>
	<path class="st5" d="M421,339c2.2,0.9,3.6,3.3,3.6,5.7C423.4,342.8,422.2,340.9,421,339z"/>
	<path class="st4" d="M261.4,232.7c1.4,2,2.8,3.8,4.3,5.6C264.3,236.5,262.8,234.7,261.4,232.7z"/>
	<path class="st5" d="M425.3,321.5c-2.5-1.7-4.9-3.5-7.4-5.2C420.4,318,422.8,319.8,425.3,321.5z"/>
	<path class="st5" d="M433.1,277.8c2.5,1.1,3.2,3.5,4.4,5.6C436.1,281.5,434.6,279.6,433.1,277.8z"/>
	<path class="st4" d="M210.8,121.7c-2.4,0.5-4.8,0.9-7.2,1.3C206,122.6,208.3,122.1,210.8,121.7z"/>
	<path class="st5" d="M325.7,23.3c-0.5-2.1-1.2-4.3-1.7-6.4c-0.2-0.8,0-1.6,0-2.4C324.6,17.4,325.2,20.3,325.7,23.3z"/>
	<path class="st5" d="M420.2,287.2c1.2-0.2,2.3-0.4,3.5-0.7c1.6-0.4,3.2-0.9,4.8-1.4C426.3,287.6,423.2,287,420.2,287.2z"/>
	<path class="st5" d="M389.7,136.1c-2.5-1.2-3.8-3.2-3.9-6C387.1,132.1,388.4,134.2,389.7,136.1z"/>
	<path class="st5" d="M479.5,275.9c-0.8-2.2-1.4-4.3-2.2-6.5C478,271.7,478.7,273.7,479.5,275.9z"/>
	<path class="st5" d="M458,329c0.9,2,1.9,3.9,2.8,5.9C459.9,333,458.9,331,458,329z"/>
	<path class="st5" d="M432.6,331c-1.2-1.9-2.3-3.7-3.5-5.6C430.3,327.3,431.5,329.2,432.6,331z"/>
	<path class="st4" d="M254.4,222.4c1.1,1.8,2.2,3.5,3.3,5.3C256.7,225.9,255.5,224.2,254.4,222.4z"/>
	<path class="st5" d="M475,266c-2.1-0.7-4.1-1.4-6.2-2.1C470.9,264.7,473.1,265.3,475,266z"/>
	<path class="st4" d="M152.6,68.3c2,1.1,3.9,2.3,5.9,3.3C156.4,70.6,154.6,69.4,152.6,68.3z"/>
	<path class="st5" d="M468,346.3c1.3,1.7,2.5,3.2,3.9,4.9C470.7,349.6,469.4,348,468,346.3z"/>
	<path class="st5" d="M489,282.7c-1-1.5-2.1-3.1-3.2-4.6C488.3,278.5,488.4,280.7,489,282.7z"/>
	<path class="st5" d="M373.6,332.9c2.1,0.3,4.1,0.8,6.1,1.1C377.7,333.7,375.6,333.4,373.6,332.9z"/>
	<path class="st5" d="M350.7,330.8c-0.5-2.2-0.9-4.5-1.4-6.8C349.8,326.2,350.2,328.6,350.7,330.8z"/>
	<path class="st5" d="M324,13.8c-0.5-2.4-0.9-4.6-1.3-6.9C323.1,9.2,323.5,11.4,324,13.8z"/>
	<path class="st5" d="M319.9,358.5c2.3,1,3,2.8,2.2,4.9C321.4,361.7,320.6,360.2,319.9,358.5z"/>
	<path class="st5" d="M485.8,363.8c2,1.2,4.1,2.4,6.1,3.6C489.9,366.2,487.8,365,485.8,363.8z"/>
	<path class="st6" d="M269.3,305.9c0.7,1.8,1.5,3.6,2.2,5.4c-1-0.4-2-0.6-2.1-2.2c0-1-1.1-2-1.7-2.9
		C268.1,306.1,268.7,306,269.3,305.9z"/>
	<path class="st5" d="M382.4,334.3c2.1,0.1,4.4,0.1,6.5,0.2C386.8,334.4,384.7,334.4,382.4,334.3z"/>
	<path class="st5" d="M497.8,289.3c-1,0.9-1.8,2-2.9,2.7c-0.1,0.1-0.8-0.3-1.3-0.5C494.9,290.8,496.3,290.1,497.8,289.3z"/>
	<path class="st5" d="M424.2,291.4c-1.5-0.7-3-1.6-4.5-2.4c-0.2-0.2,0.1-1,0.2-1.6c0.5,0.6,0.8,1.4,1.3,1.9
		C422.2,290.2,423.2,290.6,424.2,291.4z"/>
	<path class="st5" d="M435.9,343c-0.3-2.1-0.7-4.3-1-6.4C435.3,338.7,435.5,340.9,435.9,343z"/>
	<path class="st5" d="M317.3,338c1.2,2.3,0.4,4-1.3,5.6C316.5,341.7,316.9,339.9,317.3,338z"/>
	<path class="st4" d="M131.4,54.2c1.4,0.9,3,1.9,4.4,2.9c0.1,0,0.1,0,0.2,0.2c0,0,0,0.1-0.1,0.1C134.5,56.3,132.9,55.3,131.4,54.2z"
		/>
	<path class="st5" d="M504.1,286.3c-0.9-1.2-1.9-0.9-2.9-0.4c0.5-0.6,1.2-1.4,1.7-2c0.2,0.1,0.5,0.1,0.7,0.2
		C503.8,284.9,503.9,285.7,504.1,286.3z"/>
	<path class="st5" d="M509.9,372.9c-1-1.6-2-3.2-3-4.9C507.8,369.7,508.8,371.3,509.9,372.9"/>
	<path class="st5" d="M444.7,296.5c0.7,1.5,1.3,3.1,2,4.5C446.1,299.5,445.4,298,444.7,296.5z"/>
	<path class="st5" d="M482.7,280.6c-1.5,1-1.8-0.4-2.2-1.3c-0.5-0.7-0.4-1.7-0.5-2.6C480.7,278.1,481.7,279.4,482.7,280.6z"/>
	<path class="st5" d="M397.2,334.1c1.9-0.1,3.9-0.1,5.8-0.1C401.1,333.9,399.1,334,397.2,334.1z"/>
	<path class="st5" d="M427.6,273.9c1.5,1,3.1,1.8,4.6,2.8C430.7,275.8,429.2,274.8,427.6,273.9z"/>
	<path class="st5" d="M429.2,253.6c-0.2-1.9-0.4-3.8-0.6-5.8C428.8,249.7,429,251.7,429.2,253.6z"/>
	<path class="st4" d="M199.7,125.3c0.9,1.1,1.8,2.2,2.7,3.2C201.5,127.5,200.6,126.4,199.7,125.3z"/>
	<path class="st5" d="M457.9,252.5c-1.4,0.1-2.8,0-4.2,0.1C455.1,252,456.6,251.1,457.9,252.5z"/>
	<path class="st5" d="M506.2,337.8c0.3-1.7,0.5-3.3,0.7-5C506.7,334.6,506.4,336.1,506.2,337.8z"/>
	<path class="st5" d="M418.6,313.7c1.6,0,3.3,0,5,0C421.9,313.7,420.2,313.7,418.6,313.7z"/>
	<path class="st5" d="M479,358.6c1.3,0.9,2.5,1.9,3.8,2.8C481.4,360.4,480.1,359.5,479,358.6z"/>
	<path class="st5" d="M390.8,334.4c1.8-0.1,3.6-0.2,5.3-0.3C394.4,334.2,392.6,334.3,390.8,334.4z"/>
	<path class="st5" d="M424.2,313.7c1.6,0.3,3.3,0.6,4.8,1C427.3,314.3,425.7,314,424.2,313.7z"/>
	<path class="st5" d="M472.8,352.3c1,1.1,2,2.1,3,3.2C474.9,354.4,473.8,353.4,472.8,352.3z"/>
	<path class="st5" d="M505.6,365.9c-0.3-1.6-0.7-3-1-4.6C504.9,362.9,505.3,364.4,505.6,365.9z"/>
	<path class="st4" d="M252.8,213.3c-0.1,1.4-0.1,2.6-0.1,4C252.8,215.9,252.8,214.5,252.8,213.3z"/>
	<path class="st4" d="M173.9,93.6c1.2,0.8,2.5,1.7,3.7,2.5C176.4,95.3,175,94.5,173.9,93.6z"/>
	<path class="st5" d="M468.2,263.5c-1.4-1.1-2.7-2.1-4.1-3.2C465.5,261.5,466.9,262.4,468.2,263.5z"/>
	<path class="st5" d="M315.6,353.4c1,1.1,1.9,2.2,2.9,3.2C317.5,355.4,316.6,354.4,315.6,353.4z"/>
	<path class="st5" d="M455.6,323.6c0.5,1.2,1,2.5,1.5,3.7C456.5,326.1,456.1,324.8,455.6,323.6z"/>
	<path class="st5" d="M394.7,139.4c-1.9,0.1-3.3-0.9-4.3-2.5C391.8,137.7,393.3,138.6,394.7,139.4z"/>
	<path class="st4" d="M233.5,156.9c0.4,0.1,0.6,0.3,0.9,0.3c-0.2,0.2-0.4,0.8-0.5,0.8c-0.7,0-1.3-0.2-2.1-0.3
		C232.4,157.4,233,157.1,233.5,156.9z"/>
	<path class="st5" d="M505.5,343.3c0.2-1.6,0.5-3.2,0.7-4.6C505.9,340.3,505.7,341.7,505.5,343.3z"/>
	<path class="st5" d="M505.2,291.5c-0.3-1.4-0.5-2.7-0.8-4.2C504.7,288.7,504.9,290,505.2,291.5z"/>
	<path class="st5" d="M430,297.2c-0.8-0.8-1.6-1.7-2.4-2.6C428.4,295.6,429.2,296.4,430,297.2z"/>
	<path class="st5" d="M329.3,38.7c-0.4-1.5-0.7-3-1.1-4.5C328.6,35.6,328.9,37.1,329.3,38.7z"/>
	<path class="st5" d="M443.5,256.8c-1.8,0.1-3.6,0.3-5.4,0.4C439.9,257.1,441.7,256.9,443.5,256.8z"/>
	<path class="st4" d="M179.2,97c1.2,0.8,2.3,1.4,3.5,2.2C181.5,98.6,180.3,97.8,179.2,97z"/>
	<path class="st5" d="M315.2,344.4c-0.6,1.1-1.4,2.3-2,3.4C313.9,346.7,314.6,345.6,315.2,344.4z"/>
	<path class="st4" d="M119,44.5c1,0.7,1.8,1.4,2.8,2.1C120.8,45.9,119.9,45.2,119,44.5z"/>
	<path class="st5" d="M436.4,308.5c-0.4-1.1-0.9-2.2-1.3-3.3C435.5,306.3,436,307.4,436.4,308.5z"/>
	<path class="st5" d="M506.3,296.6c-0.3-1.4-0.5-2.7-0.8-4.2C505.8,293.7,506.1,295.2,506.3,296.6z"/>
	<path class="st5" d="M327.2,30.4c-0.3-1.4-0.5-2.7-0.8-4.2C326.8,27.6,326.9,29,327.2,30.4z"/>
	<path class="st5" d="M314,325.9c-0.4,1-0.8,2.1-1.2,3.1C312,327.6,312.3,326.4,314,325.9z"/>
	<path class="st5" d="M447.3,302.3c0.4,1.1,0.9,2.2,1.3,3.3C448.2,304.5,447.8,303.4,447.3,302.3z"/>
	<path class="st5" d="M491.3,288.1c-0.4-1.1-0.9-2.2-1.3-3.3C490.4,285.8,490.9,286.9,491.3,288.1z"/>
	<path class="st4" d="M225.8,158.8c0.2,1.2,0.4,2.3,0.6,3.5C226.2,161.1,225.9,159.9,225.8,158.8z"/>
	<path class="st4" d="M174,81.8c-0.5,1.6-1.6,0.6-2.5,0.6C172.3,82.3,173.2,82.1,174,81.8z"/>
	<path class="st5" d="M452.1,314.7c0.4,1.1,0.9,2.2,1.3,3.3C452.9,317,452.4,315.9,452.1,314.7z"/>
	<path class="st4" d="M184.3,100.2c1,0.6,2,1.3,3,1.9C186.4,101.5,185.3,100.9,184.3,100.2z"/>
	<path class="st4" d="M125.3,49.6c1,0.6,2,1.3,2.8,1.9C127.3,50.9,126.3,50.3,125.3,49.6z"/>
	<path class="st5" d="M507.6,327.6c0.2-1.3,0.4-2.7,0.5-4C508,325,507.8,326.3,507.6,327.6z"/>
	<path class="st5" d="M492.2,367.6c1.3,0.5,2.4,1,3.7,1.6C494.8,368.6,493.5,368.1,492.2,367.6z"/>
	<path class="st5" d="M411.9,334.8c1.3,0.4,2.6,0.7,3.9,1.1C414.5,335.5,413.2,335.2,411.9,334.8z"/>
	<path class="st5" d="M453.7,318.9c0.4,1,0.7,1.9,1.1,2.9C454.4,321,454,319.9,453.7,318.9z"/>
	<path class="st5" d="M351.7,318.2c0.7,0.8,1.4,1.4,2.3,2.3C353.1,319.8,352.4,319,351.7,318.2z"/>
	<path class="st5" d="M384.9,128c-0.4-1.1-0.9-2.3-1.2-3.4C384,125.8,384.4,126.9,384.9,128z"/>
	<path class="st5" d="M382.9,123.4c-0.4-1.1-0.9-2.2-1.3-3.3C382,121.2,382.5,122.3,382.9,123.4z"/>
	<path class="st5" d="M402.2,144.2c-1.1-0.9-2.1-1.7-3.2-2.5C400,142.5,401.1,143.3,402.2,144.2z"/>
	<path class="st5" d="M427.2,277.2c-0.8-0.9-2.1-1.6-1.3-3.2C426.3,275.2,426.7,276.1,427.2,277.2z"/>
	<path class="st5" d="M374.7,109.1c-0.7-0.8-1.4-1.4-2.3-2.3C373.3,107.6,374,108.4,374.7,109.1z"/>
	<path class="st4" d="M251.2,202.2c0.2,0.7,0.4,1.4,0.8,2.2C251.6,203.6,251.4,202.9,251.2,202.2z"/>
	<path class="st4" d="M204.2,130.6c0.5,0.5,1.2,1,1.6,1.6C205.3,131.7,204.7,131.2,204.2,130.6z"/>
	<path class="st5" d="M355.9,81c-0.4-1.1-0.7-2.3-1.1-3.4C355.2,78.7,355.5,79.9,355.9,81z"/>
	<path class="st5" d="M450.5,310.4c0.4,1.1,0.8,2.2,1.1,3.3C451.2,312.7,450.9,311.6,450.5,310.4z"/>
	<path class="st5" d="M417.3,336.6c1,0.6,2,1.2,3,1.8C419.3,337.8,418.3,337.2,417.3,336.6z"/>
	<path class="st5" d="M476.3,356c0.6,0.6,1.4,1.2,2,1.8C477.6,357.2,477,356.6,476.3,356z"/>
	<path class="st5" d="M449.1,306.6c0.3,0.9,0.6,1.9,1,2.9C449.7,308.5,449.4,307.5,449.1,306.6z"/>
	<path class="st5" d="M357.7,85.3c-0.4-1-0.7-2-1.1-3C357,83.3,357.4,84.4,357.7,85.3z"/>
	<path class="st5" d="M371.2,105.4c-0.7-0.8-1.5-1.5-2.3-2.3C369.8,103.9,370.5,104.6,371.2,105.4z"/>
	<path class="st5" d="M434.6,336c-0.3-0.9-0.6-1.9-0.9-2.8C434,334.1,434.3,335,434.6,336z"/>
	<path class="st5" d="M345,43.4c-1.2-0.3-1.2-0.3-0.6-2.3C344.7,42,344.8,42.8,345,43.4z"/>
	<path class="st5" d="M449.4,255c-0.8,0.3-1.6,0.5-2.4,0.8C447.8,255.6,448.6,255.3,449.4,255z"/>
	<path class="st5" d="M500.3,286.6c-0.6,0.6-1.2,1.4-1.8,2C499.1,288,499.7,287.4,500.3,286.6z"/>
	<path class="st5" d="M435.6,257.2c-1.1-0.2-2.2-0.4-3.3-0.6C433.5,256.7,434.6,256.9,435.6,257.2z"/>
	<path class="st5" d="M321.7,3.2c-0.7-0.4-1.2-0.7-1.9-1.1c0.1-0.5,0.3-0.9,0.4-1.4c0.3-0.1,0.4,0,0.7-0.1
		C321.2,1.5,321.4,2.3,321.7,3.2z"/>
	<path class="st5" d="M344.1,40.4c-1.9-0.3-0.8-1.7-0.8-2.6C343.6,38.6,343.8,39.5,344.1,40.4z"/>
	<path class="st4" d="M207.4,114.8c0.6,0.5,1.4,1.1,2.1,1.5C208.7,115.8,208.1,115.3,207.4,114.8z"/>
	<path class="st5" d="M427,293.9c-0.7-0.7-1.6-1.4-2.3-2C425.4,292.5,426.3,293.2,427,293.9z"/>
	<path class="st5" d="M330.7,42.5c-0.3-0.8-0.5-1.7-0.8-2.6C330.1,40.7,330.4,41.7,330.7,42.5z"/>
	<path class="st4" d="M312.8,4.1c-0.1-0.5-0.4-1.2-0.5-1.7C312.5,2.9,312.6,3.4,312.8,4.1z"/>
	<path class="st4" d="M122.4,30.1c0.3,0.2,0.7,0.4,1,0.6c-0.4,0-0.8,0.2-1.2,0.2C122.4,30.7,122.5,30.4,122.4,30.1z"/>
	<path class="st5" d="M428,323.9c-0.6-0.6-1.4-1.2-2-1.8C426.7,322.8,427.4,323.4,428,323.9z"/>
	<path class="st4" d="M220.9,147c0.4,0.3,0.7,0.7,1.2,0.9C221.7,147.6,221.4,147.4,220.9,147z"/>
	<path class="st4" d="M145.4,63.9c0.5,0.4,1.2,0.8,1.7,1.1C146.6,64.6,146.1,64.3,145.4,63.9z"/>
	<path class="st4" d="M162.4,73.8c0.7,0.4,1.2,0.8,1.9,1.1C163.6,74.6,162.9,74.2,162.4,73.8z"/>
	<path class="st4" d="M141.3,61.2c0.5,0.4,1.2,0.8,1.7,1.1c-0.6-0.3-1.1-0.6-1.7-0.9c-0.1,0-0.1,0-0.2-0.2
		C141.1,61.3,141.1,61.3,141.3,61.2z"/>
	<path class="st5" d="M428.4,244.1l0.1-0.1l0.1-0.1c0,1.1-0.1,2.1-0.1,3.2C428.4,246.2,428.4,245.1,428.4,244.1z"/>
	<path class="st5" d="M508.5,319.7c0.1-0.9,0-1.9,0.1-2.7C508.5,317.8,508.5,318.7,508.5,319.7z"/>
	<path class="st4" d="M212.6,118.8c0.3,0.4,0.4,0.9,0.7,1.2C213,119.7,212.9,119.3,212.6,118.8z"/>
	<path class="st4" d="M316.1,11.5c-0.3-0.4-0.6-0.8-0.7-1.2C315.6,10.8,315.8,11.2,316.1,11.5z"/>
	<path class="st5" d="M429.6,282.9c-0.2-0.8-0.4-1.6-0.6-2.5C429.2,281.2,429.4,282.1,429.6,282.9z"/>
	<path class="st5" d="M351.7,333.9c-0.2-0.8-0.5-1.6-0.7-2.5C351.3,332.3,351.5,333.1,351.7,333.9z"/>
	<path class="st5" d="M405.8,151.3c-0.2-0.7-0.4-1.5-0.6-2.2C405.4,149.8,405.6,150.6,405.8,151.3z"/>
	<path class="st4" d="M314.2,7.9c-0.1-0.5-0.3-0.9-0.4-1.5C313.9,7,314.1,7.5,314.2,7.9z"/>
	<path class="st5" d="M345.9,46.7c-0.2-0.8-0.4-1.5-0.5-2.2C345.6,45.1,345.7,45.9,345.9,46.7z"/>
	<path class="st4" d="M207.6,134.4c0.4,0.3,0.8,0.5,1.2,0.9C208.3,134.9,207.9,134.6,207.6,134.4z"/>
	<path class="st4" d="M210.5,137.2c0.4,0.3,0.7,0.7,1.2,1C211.2,137.8,210.9,137.5,210.5,137.2z"/>
	<path class="st4" d="M213.2,139.8c0.4,0.3,0.8,0.5,1.2,0.9C213.9,140.4,213.5,140.1,213.2,139.8z"/>
	<path class="st4" d="M215.8,142.4c0.4,0.3,0.7,0.7,1.2,1C216.6,142.9,216.2,142.6,215.8,142.4z"/>
	<path class="st4" d="M218.5,144.9c0.4,0.3,0.8,0.5,1.2,0.9C219.3,145.4,218.8,145.2,218.5,144.9z"/>
	<path class="st4" d="M163,85.7c0.4,0.3,0.8,0.5,1.2,0.9C163.7,86.3,163.4,86,163,85.7z"/>
	<path class="st4" d="M253.1,208.8c0,0.6,0,1.1,0,1.8C253.1,209.9,253.1,209.3,253.1,208.8z"/>
	<path class="st5" d="M499.7,370.9c0.9,0.3,1.7,0.6,2.7,1C501.4,371.5,500.5,371.2,499.7,370.9z"/>
	<path class="st5" d="M326.6,317.2c-0.4,0.5-0.7,1-1.1,1.5C325.9,318.2,326.2,317.6,326.6,317.2z"/>
	<path class="st4" d="M166.6,81.9c-0.5-0.1-1-0.1-1.5-0.2C165.6,81.8,166.1,81.8,166.6,81.9z"/>
	<path class="st5" d="M379.1,115.7c-0.4-0.6-0.7-1.2-1.1-1.8C378.4,114.5,378.7,115.1,379.1,115.7z"/>
	<path class="st5" d="M446.1,256.1c-0.7,0.1-1.4,0.3-2.1,0.4C444.8,256.5,445.5,256.3,446.1,256.1z"/>
	<path class="st5" d="M505,372.8c-0.7-0.2-1.5-0.5-2.2-0.6C503.5,372.4,504.2,372.5,505,372.8"/>
	<path class="st5" d="M504.9,347.5c0-0.7,0.2-1.6,0.3-2.3C505,345.9,505,346.6,504.9,347.5z"/>
	<path class="st5" d="M351.2,66.7c-0.2-0.8-0.4-1.5-0.6-2.3C350.8,65.2,351,65.9,351.2,66.7z"/>
	<path class="st5" d="M353.1,72.8c-0.2-0.8-0.4-1.5-0.6-2.3C352.7,71.4,352.9,72.2,353.1,72.8z"/>
	<path class="st5" d="M354.3,76.4c-0.2-0.7-0.4-1.5-0.6-2.2C353.8,74.9,354.1,75.7,354.3,76.4z"/>
	<path class="st5" d="M313.2,347.9c0.1,0.7,0.1,1.3,0.2,1.9C313.4,349.3,313.3,348.6,313.2,347.9z"/>
	<path class="st5" d="M484.6,278.6c-0.4,0.5-0.7,1-1.1,1.5C483.9,279.7,484.2,279.1,484.6,278.6z"/>
	<path class="st5" d="M432.7,353.3c0.4-0.5,0.9-1.2,1.3-1.7C433.6,352.2,433.1,352.8,432.7,353.3z"/>
	<path class="st4" d="M167.3,89.2c0.3,0.2,0.7,0.4,1,0.6C168,89.6,167.6,89.4,167.3,89.2z"/>
	<path class="st4" d="M225.9,151.3c0.3,0.2,0.7,0.4,1,0.7C226.4,151.8,226.2,151.5,225.9,151.3z"/>
	<path class="st5" d="M352.2,69.8c-0.1-0.7-0.2-1.2-0.3-1.8C351.9,68.6,352,69.1,352.2,69.8z"/>
	<path class="st4" d="M223.3,149.2c0.3,0.2,0.7,0.4,1,0.6C224,149.6,223.7,149.4,223.3,149.2z"/>
	<path class="st4" d="M123.1,47.8c0.3,0.2,0.7,0.4,1,0.6C123.7,48.2,123.4,48,123.1,47.8z"/>
	<path class="st4" d="M253.1,218.8c0,0.4,0.2,0.8,0.2,1.2C253.3,219.6,253.3,219.2,253.1,218.8z"/>
	<path class="st5" d="M350.3,63.4c-0.1-0.7-0.4-1.2-0.5-1.9C350.1,62.3,350.2,62.9,350.3,63.4z"/>
	<path class="st5" d="M327.9,33.2c-0.1-0.7-0.2-1.2-0.3-1.8C327.7,31.9,327.8,32.6,327.9,33.2z"/>
	<path class="st5" d="M349.6,60.8c-0.1-0.7-0.2-1.2-0.5-1.9C349.3,59.5,349.5,60.1,349.6,60.8z"/>
	<path class="st5" d="M346.7,49.3c-0.1-0.7-0.2-1.2-0.3-1.8C346.5,48.2,346.6,48.8,346.7,49.3z"/>
	<path class="st5" d="M338.3,44.3c-0.4,0.5-0.7,1.1-1.1,1.6C337.7,45.4,338,44.9,338.3,44.3z"/>
	<path class="st5" d="M322.3,5.9c-0.1-0.7-0.2-1.2-0.3-1.8C322.1,4.7,322.2,5.3,322.3,5.9z"/>
	<path class="st4" d="M170.1,78.6c0.3,0.2,0.7,0.4,1,0.6C170.7,79,170.4,78.8,170.1,78.6z"/>
	<path class="st5" d="M409.9,334.3c0.7,0.2,1.3,0.3,2,0.5C411.2,334.6,410.6,334.5,409.9,334.3z"/>
	<path class="st6" d="M270.1,295.8c0.2,0.7,0.4,1.4,0.6,2C268.8,297.6,270.3,296.3,270.1,295.8z"/>
	<path class="st5" d="M508.3,321.9c0-0.6,0.1-1.1,0.1-1.7C508.4,320.8,508.4,321.4,508.3,321.9z"/>
	<path class="st5" d="M504.7,349.7c0-0.6,0.1-1.1,0.1-1.7C504.8,348.6,504.7,349,504.7,349.7z"/>
	<path class="st5" d="M407.8,334.1c0.6,0,1.2,0.1,1.7,0.1C409,334.2,408.4,334.2,407.8,334.1z"/>
	<path class="st5" d="M429.1,284.7c0.2-0.5,0.4-1,0.6-1.5C429.4,283.7,429.3,284.2,429.1,284.7z"/>
	<path class="st5" d="M326.1,25.3c0-0.5-0.2-0.9-0.2-1.4C326,24.3,326.1,24.8,326.1,25.3z"/>
	<path class="st4" d="M139.2,59.8c0.2,0.2,0.5,0.2,0.7,0.4c-0.2-0.1-0.5-0.1-0.7-0.2C139.3,60,139.3,59.9,139.2,59.8z"/>
	<path class="st5" d="M369.6,331.8c0.6,0.3,1,0.4,1.6,0.6C370.6,332.3,370.2,332,369.6,331.8z"/>
	<path class="st4" d="M137.2,58.4c0.2,0.2,0.5,0.2,0.8,0.4C137.7,58.6,137.4,58.6,137.2,58.4z"/>
	<path class="st4" d="M252.8,206.3c0.1,0.3,0,0.6,0.1,0.9C252.8,207,252.7,206.6,252.8,206.3z"/>
	<path class="st4" d="M228,153.1c0.2,0.2,0.5,0.2,0.7,0.4C228.4,153.4,228.2,153.3,228,153.1z"/>
	<path class="st5" d="M380.2,334.2c0.6,0,1.1,0.1,1.7,0.1C381.3,334.2,380.8,334.2,380.2,334.2z"/>
	<path class="st4" d="M169.4,82.3c-0.2-0.1-0.6-0.1-0.8-0.2C168.9,82.2,169.1,82.2,169.4,82.3z"/>
	<path class="st5" d="M319.6,3c-0.3,0.6-0.4,1.3-0.7,1.9C319.1,4.3,319.3,3.6,319.6,3z"/>
	<path class="st4" d="M129.4,52.6c0.2,0.2,0.5,0.2,0.8,0.4C129.9,53,129.7,52.8,129.4,52.6z"/>
	<path class="st4" d="M172.4,80.2c0.2,0.1,0.5,0.2,0.7,0.3C172.8,80.4,172.6,80.2,172.4,80.2z"/>
	<path class="st4" d="M229.9,154.6c0.2,0.1,0.5,0.2,0.7,0.3C230.4,154.8,230.1,154.6,229.9,154.6z"/>
	<path class="st4" d="M228.1,157.4c-0.2-0.1-0.5,0-0.9-0.1C227.7,157.3,227.9,157.4,228.1,157.4z"/>
	<path class="st5" d="M427.3,355.8c0.5,0.1,0.8,0.2,1.3,0.3C428.1,355.9,427.8,355.9,427.3,355.8z"/>
	<path class="st5" d="M483.4,362.1c0.5,0.4,1,0.6,1.5,1C484.4,362.7,483.9,362.4,483.4,362.1z"/>
	<path class="st5" d="M429.9,355.3c0.3-0.2,0.7-0.3,1-0.5C430.6,355,430.2,355.2,429.9,355.3z"/>
	<path class="st5" d="M347.5,52.5c-0.1-0.5-0.2-1.2-0.4-1.7C347.3,51.3,347.4,51.9,347.5,52.5z"/>
	<path class="st5" d="M334.6,47.4c-0.5-0.2-0.9-0.3-1.3-0.5C333.8,47.1,334.1,47.2,334.6,47.4z"/>
	<path class="st5" d="M406.7,154.4c-0.1-0.7-0.1-1.2-0.2-1.8C406.5,153.2,406.6,153.8,406.7,154.4z"/>
	<path class="st5" d="M348.9,58.4c-0.1-0.5-0.2-1.2-0.2-1.7C348.8,57.2,348.8,57.7,348.9,58.4z"/>
	<path class="st4" d="M246.1,193.7c0.1,0.1,0.2,0.3,0.3,0.4C246.3,194,246.2,193.8,246.1,193.7z"/>
	<path class="st5" d="M341.9,35.4c-0.4,0.3-0.8,0.6-1.2,0.9C341.1,35.9,341.5,35.6,341.9,35.4z"/>
	<path class="st5" d="M507.2,331.8c0.1-0.5,0.2-0.8,0.2-1.3C507.2,330.9,507.1,331.4,507.2,331.8z"/>
	<path class="st5" d="M368.1,331.2c0.3,0.2,0.7,0.3,1,0.5C368.8,331.5,368.5,331.3,368.1,331.2z"/>
	<path class="st4" d="M149.9,66.8c0.1,0,0.2,0.1,0.4,0.1l0,0.1c-0.1,0-0.2-0.1-0.4-0.1C149.9,66.9,149.9,66.9,149.9,66.8z"/>
	<path class="st4" d="M159.9,72.6c0.1,0,0.2,0.1,0.3,0.2C160.1,72.7,160,72.7,159.9,72.6z"/>
	<path class="st5" d="M435.1,348.7c0.1-0.2,0.1-0.6,0.2-0.8C435.2,348.3,435.2,348.5,435.1,348.7z"/>
	<path class="st4" d="M166.6,76.4c0.1,0,0.2,0.1,0.4,0.1l0,0.1c-0.1,0-0.2-0.1-0.4-0.1L166.6,76.4z"/>
	<path class="st4" d="M168.3,77.4c0.1,0,0.2,0.1,0.4,0.1l0,0.1c-0.1,0-0.2-0.1-0.4-0.1L168.3,77.4z"/>
	<path class="st4" d="M162.7,81.7c-0.1,0-0.3,0.1-0.4,0C162.6,81.6,162.7,81.7,162.7,81.7z"/>
	<path class="st4" d="M165.4,87.8c0.1,0,0.2,0.1,0.4,0.1l0,0.1C165.5,87.9,165.4,87.8,165.4,87.8z"/>
	<path class="st4" d="M170,91.1c0.1,0,0.2,0.1,0.4,0.1l0,0.1c-0.1,0-0.2-0.1-0.4-0.1C170,91.2,170,91.1,170,91.1z"/>
	<path class="st5" d="M508.6,316.7c0.1-0.2,0.1-0.6,0.1-0.9C508.7,316.1,508.6,316.3,508.6,316.7z"/>
	<path class="st4" d="M172,92.5c0.1,0,0.2,0.1,0.4,0.1l0,0.1c-0.1,0-0.2-0.1-0.4-0.1C172,92.5,172,92.5,172,92.5z"/>
	<path class="st5" d="M417.5,315.6c0.1-0.5,0.2-1,0.2-1.3C417.6,314.7,417.5,315.1,417.5,315.6z"/>
	<path class="st4" d="M317.9,7.6c0,0.1-0.1,0.2-0.1,0.4C317.9,7.9,317.9,7.8,317.9,7.6z"/>
	<path class="st5" d="M476.4,267.8c-0.2-0.3-0.4-0.6-0.6-0.9C476,267.2,476.2,267.5,476.4,267.8z"/>
	<path class="st5" d="M372.4,332.7c0.2,0.1,0.6,0.1,0.8,0.2C373,332.9,372.6,332.7,372.4,332.7z"/>
	<path class="st4" d="M200.7,123.9c-0.1,0.1-0.1,0.1-0.3,0.2C200.5,124.1,200.5,124,200.7,123.9z"/>
	<path class="st4" d="M211.1,117.6c0.1,0,0.2,0.1,0.3,0.2C211.3,117.7,211.2,117.6,211.1,117.6z"/>
	<path class="st5" d="M430,255.3c-0.2-0.3-0.3-0.4-0.5-0.7C429.7,254.9,429.9,255.1,430,255.3z"/>
	<path class="st5" d="M339.5,41.9c-0.2,0.5-0.4,0.8-0.5,1.3C339,42.7,339.3,42.3,339.5,41.9z"/>
	<path class="st5" d="M348.1,54.8c-0.1-0.3-0.1-0.7-0.1-0.9C348,54.2,348,54.5,348.1,54.8z"/>
	<path class="st4" d="M229.9,157.4c-0.1,0-0.2-0.1-0.4-0.1C229.6,157.4,229.8,157.4,229.9,157.4z"/>
	<path class="st5" d="M507.4,329.7c0.1-0.4,0.1-0.6,0.1-1C507.4,329.1,507.5,329.4,507.4,329.7z"/>
	<path class="st6" d="M276.8,317.8c-0.1,0-0.3,0.1-0.4,0c-0.1,0-0.1-0.3,0-0.4c0.1,0,0.3-0.1,0.4,0
		C276.7,317.5,276.7,317.7,276.8,317.8z"/>
	<path class="st6" d="M274.8,318.8c0-0.1-0.1-0.3,0-0.4c0-0.1,0.3-0.1,0.4,0c0,0.1,0.1,0.3,0,0.4S274.9,318.8,274.8,318.8z"/>
	<path class="st5" d="M498,370.3c0.2,0.1,0.6,0.3,0.8,0.3C498.6,370.5,498.4,370.3,498,370.3z"/>
	<path class="st6" d="M264.7,303c0-0.1-0.1-0.3,0-0.4c0-0.1,0.3-0.1,0.4,0c0,0.1,0.1,0.3,0,0.4C265.1,302.9,264.8,302.9,264.7,303z"
		/>
	<path class="st5" d="M396.2,140.1c-0.3-0.2-0.8-0.3-1.1-0.5C395.4,139.7,395.7,139.9,396.2,140.1z"/>
	<path class="st6" d="M265.5,274.3c-0.2-0.1-0.6-0.1-0.9-0.1c0-0.1,0-0.1,0.1-0.2C264.9,274,265.2,274.1,265.5,274.3L265.5,274.3z"
		/>
	<path class="st5" d="M398.3,141.3c-0.3-0.2-0.7-0.4-1-0.6C397.6,140.9,398,141.1,398.3,141.3z"/>
	<path class="st5" d="M407.1,156.8c0-0.4-0.1-0.9-0.1-1.3C407.1,155.9,407.1,156.3,407.1,156.8z"/>
	<path class="st6" d="M264.3,275.3c-0.1,0-0.1,0-0.2-0.2c0,0,0-0.1,0.1-0.2C264.1,275,264.2,275.1,264.3,275.3z"/>
	<path class="st6" d="M268.5,257c-0.2,0.3-0.4,0.5-0.6,0.9C268.1,257.6,268.3,257.4,268.5,257z"/>
	<path class="st6" d="M269.6,305.1c-0.1,0.2-0.2,0.3-0.3,0.6C269.5,305.4,269.6,305.2,269.6,305.1z"/>
	<path class="st6" d="M292.6,319.6c0,0.1,0,0.1-0.1,0.2"/>
	<path class="st3" d="M503.6,284.1c-0.2-0.1-0.5-0.1-0.7-0.2C503.1,284,503.3,284,503.6,284.1z"/>
	<path class="st6" d="M267.8,257.9c0,0.1-0.1,0.4-0.1,0.5C267.8,258.3,267.9,258.1,267.8,257.9z"/>
	<path class="st6" d="M367.6,189.3c0,0.7-0.1,1.5-0.2,2.2c-0.2,0.8-0.5,1.6-0.7,2.4l0,0c-0.3,0.6-0.5,1-0.6,1.6
		c-0.8,1.9-1.6,3.9-2.4,5.8c-0.2,0.5-0.4,0.8-0.5,1.3c-0.2,0.3-0.4,0.7-0.5,0.9c-2.4,5.6-2.4,5.5-8.4,4.3
		c-6.1-1.2-12.3-2.3-18.5-3.1c-2.7-0.4-3.5,0.9-4.3,3.4c-1.1,3.4-2.6,6.6-3.9,9.8c-1,2.2-2.3,4.1-3.3,6.3c-0.8,1.9,0.1,3.3,1.6,4.4
		c3,2.1,7.9,1.8,10.2-1c1.4-1.6,2.2-3.6,2.9-5.6c0.9-2.3,2.1-3.2,4.5-2.8c1.2,0.1,2.5,0.4,3.8,0.6c4,0.5,7.7-0.2,10.2-4
		c0.2-0.3,0.8-0.6,1.3-0.8c0.5,5.2-1.1,7.2-6,7.3c-1.2,0.1-2.4,0-3.5,0.1c-3.7,0.2-6.6,1.6-8.7,4.7c-0.9,1.2-1.8,2.4-2.8,3.5
		c-0.5,0.4-1,0.6-1.5,1c-1.2,0.2-2.2,0.5-3.4,0.7c-0.5,0-0.9,0.1-1.4-0.1c-0.9-0.1-1.6,0-2.5-0.1l0,0c0,0,0-0.1-0.1-0.1
		c-0.1,0-0.2-0.1-0.3-0.2c-0.2-0.1-0.4-0.1-0.6,0c-0.6-0.1-1.2-0.1-1.7-0.3l0,0c-0.1,0-0.2-0.2-0.3-0.2c-0.2-0.1-0.4-0.1-0.6-0.3
		c-0.1,0-0.1,0-0.2-0.1c-0.1,0-0.2-0.1-0.5-0.1l-0.1,0c-0.6-0.1-1.3-0.3-1.9-0.4c-0.1,0-0.4-0.1-0.5-0.1c-0.9-0.1-1.7-0.3-2.7-0.4
		l-0.2-0.1c-0.6,0-1.4-0.1-2-0.1c-0.2-0.1-0.6-0.1-0.8-0.2c-0.5-0.1-1-0.1-1.3-0.2c-1.2,0-2.6-0.1-3.9-0.1c-2.2,0.3-4.3,0.5-6.5,0.8
		c-0.4-0.1-0.7-0.3-1-0.4c-0.7-0.8-1.3-1.4-2-2.2c-2.2-9.3-4.3-18.7-6.5-27.9c-0.2-0.8-0.2-1.7-0.5-2.4c-2.2-6,1.2-11,3.1-16.2
		c2-5.6,5.7-9.9,10.6-13.2c4-2.7,7.8-5.9,12.8-6.4c9.2-0.9,17.9,1.3,25.4,6.6c4.7,3.3,8.5,7.8,12.8,11.7c1.7,1.5,3.5,2.9,5.2,4.6
		c1,1,2,2.2,2.9,3.3C367.5,188.5,367.6,188.8,367.6,189.3z M308.8,197.6c0.9-0.6,1.6-1.1,2.5-1.6c0.7-0.3,1.4-0.6,2.1-0.9
		c0.4,0,0.8-0.2,1.2-0.2c3.3,0.4,6.6,0.7,9.9,1.2c0.1,0,0.3-0.1,0.4,0c0.4,0,0.9,0.1,1.2,0c0.1,0,0.3-0.1,0.4,0
		c1.1-0.9,2.4-1.6,3-2.7c1.5-2.2,2.5-4.6,3.8-6.9c0.2-0.3,0.4-0.7,0.6-1c0.5-0.5,1.1-1,1.6-1.5c1.9-1.2,3.7-2.4,5.6-3.5
		c1-0.4,1.9-0.8,2.9-1.2c0.4-0.2,0.9-0.3,1.4-0.4c0.8-0.3,1.6-0.6,2.5-1.1c0.7-0.1,1.3-0.2,2.5-0.4c-0.8-0.7-1.2-1-1.5-1.3
		c-0.5-0.4-1-0.6-1.5-1c-0.1,0-0.2-0.1-0.4-0.1c-0.7-0.4-1.4-0.7-2.1-1.1c-0.3-0.2-0.7-0.4-1-0.6c-6.3-3.4-12.8-5.5-20.1-4.5
		c-4.3,0.7-8.8,1.2-12.2,4.4c-5.4,5.2-9.4,11.2-11.6,18.3c0,0.1-0.1,0.2-0.1,0.4c-0.2,1-0.4,1.9-0.6,2.9c0,0.6,0,1.1,0,1.8
		c0,0.6,0.1,1.2,0.1,1.8l-0.1,0.1c0.1,0.1,0.1,0.1,0.2,0.3c0.1,0.7,0.2,1.4,0.3,2.1c0.1,0.3,0,0.5,0.1,0.8c1.2,2.5,1.3,2.6,3.5,1
		c0.6-0.4,1.1-0.8,1.5-1.3c0.5-0.4,0.8-0.9,1.3-1.3C307.1,199,307.9,198.3,308.8,197.6z"/>
	<path class="st5" d="M391.8,170.7c-3.2,2.4-6.7,4.5-9.5,7.3c-3.5,3.2-6.8,6.8-9.5,10.7c-5.7,7.9-8.1,16.9-8.2,26.5
		c-0.1,0.2-0.1,0.6-0.3,0.8c-0.3-0.6-0.6-1.1-0.5-1.6c0.2-3.2,0.2-6.5,0.9-9.7c0.6-2.7,2-5.5,3-8.1c0.4-1.2,0.8-2.5,1.2-3.6l0,0
		c0.1-0.1,0.3-0.2,0.3-0.3c0.8-1.3-0.6-3.1,1.6-4.3c1.4-0.7,2.4-2.1,3.7-3.4c-1-0.2-1.6-0.5-2.5-0.7c-0.1-0.3,0-0.5-0.1-0.8
		c0.9-0.1,1.9-0.2,2.7-0.2c2.3-2,4.5-4,7-5.8c2.7-2.1,5.6-4.3,8.5-6.4C390.4,170.8,391.2,170.8,391.8,170.7z"/>
	<path class="st5" d="M304.6,230.7c2.2-0.3,4.3-0.5,6.5-0.8c-0.6,0.4-1.1,0.6-1.8,1c0.8,0.4,1.4,0.3,2.1,0.5
		c2.1,0.3,4.2,0.9,6.2,1.4c-2.4,0-4.9-0.1-7.2-0.4c-2.1-0.1-4.2-0.4-6.1-0.6C304.3,231.3,304.5,231,304.6,230.7z"/>
	<path class="st5" d="M366.6,194c0.2-0.8,0.5-1.6,0.7-2.4c0.4,0.5,0.9,0.8,1.3,1.3l0,0C368.1,193.2,367.4,193.7,366.6,194z"/>
	<path class="st5" d="M301.7,228.1c0.7,0.8,1.3,1.4,2,2.2C301.9,230.5,301,230.1,301.7,228.1z"/>
	<path class="st5" d="M369.5,184.3c0.3-0.2,0.7-0.5,1-0.6c0.1,0.1,0.2,0.2,0.3,0.3c-0.3,0.3-0.6,0.6-1,0.9
		C369.7,184.5,369.6,184.4,369.5,184.3z"/>
	<path class="st5" d="M303.9,231.9c-0.7,0.1-1.3,0.2-2,0.3C302.6,231.9,303.2,231.8,303.9,231.9z"/>
	<path class="st5" d="M370.6,187.1c0-0.1-0.1-0.3,0-0.4c0-0.1,0.3-0.1,0.4,0c0,0.1,0.1,0.3,0,0.4C371,187.1,370.7,187,370.6,187.1z"
		/>
	<path class="st5" d="M367.6,189.3c0-0.5-0.1-0.9-0.1-1.4C367.5,188.5,367.6,188.8,367.6,189.3z"/>
	<path class="st5" d="M339.4,295.3c0.8-1.2,1.6-2.3,2.3-3.5c1.6-2.7,3.1-5.3,4.4-8c1.3-2.6,2.4-5.2,3.8-7.8c0,0.7,0,1.6-0.3,2.3
		c-1.8,5.7-5,10.7-8.3,15.6C340.9,294.6,340,294.9,339.4,295.3z"/>
	<path class="st5" d="M351.4,270.8c-0.4-1.7,0.4-2.8,1.7-3.9c4.3-3.2,9.5-3.4,14.5-4.4c-2.4,2.3-5.8,1.7-8.5,2.7
		c-1.2,0.5-2.6,0.4-3.8,0.9c-1.4,0.6-2.7,1.3-2.8,3.1C352.5,269.8,351.8,270.2,351.4,270.8z"/>
	<path class="st5" d="M349.9,275.9c0.5-1.6,1-3.4,1.5-5.1C351.7,272.8,351.2,274.5,349.9,275.9z"/>
	<path class="st5" d="M337.5,297.5c0.5-0.8,1.2-1.5,1.7-2.1C338.7,296.1,338.2,296.9,337.5,297.5z"/>
	<path class="st7" d="M442.4,212.9c-0.6,5.4-3.1,10-6,14.5c-4.2,6.6-10.7,10.1-17,13.9c-1.7,1-4,1.2-6.2,1.8c-2,0-4.1,0.2-6.2,0.4
		c-1.2,0.1-2.2,0.4-3.4,0.5l-0.1,0c-0.5,0-1-0.1-1.5-0.1l-0.1,0c-0.4-0.1-0.8-0.2-1.2-0.3c-4.5,0-8.7-1.5-12.4-3.8
		c-4.9-3-9.4-6.5-12.3-11.7c-5.9-10.6-6-21.5-1-32.2c2.8-6.2,7.1-11.3,12.6-15.5c7.6-5.7,16-8.1,25.1-7.4
		c10.7,0.8,19.3,5.7,25.4,14.7c3.2,4.7,4.3,9.9,5.1,15.3c0.1,0.7-0.1,1.5-0.2,2.1c0.1,0.3,0,0.5,0.1,0.8l0,0.1
		C443.1,208.4,442.8,210.7,442.4,212.9z M429.6,207c-5.8,3.9-9.3,9.7-12.9,15.4c-0.6,0.9-0.5,2.9,0.1,3.7c1.1,1.2,2.9,1.3,4.5,0.1
		c6.1-4.2,10.5-9.5,13.6-16.3c0.5-1.1,0.6-3.3-0.1-4.2c-1.2-1.4-2.8-0.3-4.3,0.5C430.2,206.7,429.9,206.8,429.6,207z"/>
	<path class="st7" d="M341.4,277c-0.8,5.5-3.3,10.3-6.6,14.8c-4.4,6.2-10.4,10.2-16.8,13.5c-2.8,1.5-6.4,1.7-9.7,2.2
		c-6.5,1.2-13,0.7-19-2.5c-4.9-2.6-9.3-6-12.7-10.5c-4.8-6.4-6.6-13.5-6.1-21.3c0.4-6.4,2.1-12.7,5.7-17.9
		c4.3-6.4,9.8-11.8,17.3-15.1c6.3-2.7,12.6-4.1,19.4-3.3c7.3,0.9,13.8,3.7,19.2,8.8c6.4,6.1,9.9,13.4,10.1,22.2
		c-0.4,2.7-0.7,5.4-1.1,8.2C341,276.4,341.3,276.8,341.4,277z M316.8,290.6c6.6-4.4,11-9.9,14-16.5c0.7-1.5,1.8-3.6,0-4.9
		c-1.8-1.3-3.7,0.1-4.9,1.3c-3.4,3.3-6.8,6.4-9.8,10c-2.4,3.1-4,6.7-5.8,10.2c-0.3,0.6-0.1,1.5,0,2.3c0.8-0.1,1.5,0.1,2.2-0.3
		C313.9,291.9,315.6,291.1,316.8,290.6z"/>
	<path class="st7" d="M366.6,194c0.7-0.3,1.4-0.8,2-1.2c-0.4,1.2-0.7,2.5-1.2,3.6c-1,2.7-2.3,5.4-3,8.1c-0.7,3.1-0.7,6.5-0.9,9.7
		c0,0.5,0.4,1.1,0.5,1.6c1.2,6.8,2.6,13.6,3.8,20.5c0.7,4-0.7,7.2-4.2,9.3c-1.2,0.7-2.3,1.4-3.4,2.1c-4.2,3.1-8.6,2-12.3-0.6
		c-1.3-0.9-2.6-2-3.9-2.9l0,0c-3.4-2.3-6.6-4.7-10-6.8c-2.3-1.4-5.1-1.9-7.4-3.2c-1.4-0.7-2.5-1.6-4.1-0.7l0,0
		c-1.7-0.4-3.2-0.7-4.9-1.1l0,0c-2-0.5-4.2-0.9-6.2-1.4c-0.6-0.1-1.4-0.1-2.1-0.5c0.6-0.4,1.1-0.6,1.8-1c1.2,0,2.6,0.1,3.9,0.1
		c0.5,0.1,1,0.1,1.3,0.2c0.2,0.1,0.6,0.1,0.8,0.2c0.6,0,1.4,0.1,2,0.1l0.2,0.1c0.7,1.5,1.5,1.6,2.7,0.4c0.1,0,0.4,0.1,0.5,0.1
		c0.5,0.6,0.9,1.1,1.7,2c0.1-0.9,0.1-1.2,0.2-1.6l0.1,0c0.1,0,0.2,0.1,0.5,0.1c0.1,0,0.1,0,0.2,0.1c0.2,0.1,0.4,0.1,0.6,0.3
		c0.1,0,0.2,0.2,0.3,0.2c0.1,0.3,0,0.5,0.1,0.8c0.1,0,0.1-0.1,0.3-0.1c-0.1-0.3-0.2-0.4-0.3-0.7c0.6,0.1,1.2,0.1,1.7,0.3
		c0.2,0.1,0.4,0.1,0.6,0c0.1,0,0.2,0.1,0.3,0.2c0,0,0,0.1,0.1,0.1c-0.2,0.3-0.5,0.8-0.7,1.1c0.4,0.1,0.7,0.3,1,0.4
		c-0.1-0.5-0.2-0.9-0.3-1.4c0.9,0.1,1.6,0,2.5,0.1c0.5,0,0.9-0.1,1.4,0.1c1.2-0.2,2.2-0.5,3.4-0.7c1.1,0.6,1.7,0.4,1.5-1
		c0.9-1.2,1.9-2.3,2.8-3.5c2.1-3,5-4.5,8.7-4.7c1.2-0.1,2.4,0,3.5-0.1c4.8-0.3,6.5-2.1,6-7.3c-0.4,0.3-1,0.5-1.3,0.8
		c-2.5,3.8-6.1,4.4-10.2,4c-1.2-0.1-2.5-0.4-3.8-0.6c-2.4-0.4-3.6,0.6-4.5,2.8c-0.8,1.9-1.7,4-2.9,5.6c-2.4,2.7-7.2,3-10.2,1
		c-1.5-1.1-2.6-2.5-1.6-4.4c1-2.2,2.3-4.1,3.3-6.3c1.5-3.2,3-6.5,3.9-9.8c0.8-2.6,1.7-3.8,4.3-3.4c6.2,0.9,12.4,1.9,18.5,3.1
		c6,1.2,6,1.2,8.4-4.3c0.2-0.3,0.3-0.7,0.5-0.9c0.2-0.5,0.4-0.8,0.5-1.3c0.8-1.9,1.6-3.9,2.4-5.8C366.3,195.1,366.5,194.5,366.6,194
		L366.6,194z M362.1,213.7c0.1,0,0.3-0.1,0.4,0c0-0.1,0-0.4,0-0.4c-0.1,0-0.3,0.1-0.4,0C362,213.4,362,213.6,362.1,213.7z"/>
	<path class="st5" d="M322.6,233.8c1.6-0.9,2.8,0,4.1,0.7c2.4,1.2,5.1,1.8,7.4,3.2c3.4,2,6.6,4.5,10,6.8c-2.8-1.6-5.5-3.4-8.3-4.9
		c-2.3-1.3-4.8-2.2-7.3-3.4C326.6,235.5,324.6,234.6,322.6,233.8z"/>
	<path class="st5" d="M403.7,243.9c1.2-0.1,2.2-0.4,3.4-0.5c2-0.2,4.1-0.2,6.2-0.4C410.2,244.2,407.1,245,403.7,243.9z"/>
	<path class="st5" d="M341.4,277c-0.2-0.3-0.5-0.5-0.5-0.7c0.4-2.7,0.7-5.4,1.1-8.2c1.4,2.1-0.3,4.2,0,6.3
		C342.3,275.2,341.7,276.1,341.4,277z"/>
	<path class="st5" d="M442.4,212.9c0.3-2.3,0.5-4.5,0.9-6.8C443.5,208.5,444.1,210.9,442.4,212.9z"/>
	<path class="st5" d="M317.7,232.7c1.7,0.4,3.2,0.7,4.9,1.1C320.9,233.4,319.3,233.1,317.7,232.7z"/>
	<path class="st5" d="M344.3,244.4c1.3,0.9,2.6,2,3.9,2.9C346.9,246.4,345.6,245.5,344.3,244.4z"/>
	<path class="st5" d="M402.3,243.8c0.5,0,1,0.1,1.5,0.1C403.2,243.9,402.7,243.9,402.3,243.8z"/>
	<path class="st5" d="M400.9,243.6c0.4,0.1,0.8,0.2,1.2,0.3C401.6,243.8,401.3,243.7,400.9,243.6z"/>
	<path class="st5" d="M443.4,206c-0.1-0.3,0-0.5-0.1-0.8C443.2,205.5,443.3,205.7,443.4,206z"/>
	<path class="st7" d="M299.3,194.5c0.2-1,0.4-1.9,0.6-2.9c0-0.1,0.1-0.2,0.1-0.4c2.2-7.1,6.2-13.3,11.6-18.3
		c3.3-3.1,7.9-3.8,12.2-4.4c7.2-1,13.8,1,20.1,4.5c0.3,0.2,0.7,0.4,1,0.6c0.7,0.4,1.4,0.7,2.1,1.1c0.1,0,0.2,0.1,0.4,0.1
		c0.5,0.4,1,0.6,1.5,1c-0.4,0.5-0.6,1.1-1,1.7c-0.8,0.3-1.6,0.6-2.5,1.1c-0.4,0.2-0.9,0.3-1.5,0.4c-1,0.4-1.9,0.8-2.9,1.2
		c-1.9,1.2-3.7,2.4-5.6,3.5c-0.5,0.5-1.1,1-1.6,1.5c-0.2,0.3-0.4,0.7-0.6,1c-1.3,2.3-2.4,4.7-3.8,6.9c-0.7,1.1-2,1.8-3,2.7
		c-0.1,0-0.3,0.1-0.4,0c-0.4,0-0.9-0.1-1.2,0c-0.1,0-0.3,0.1-0.4,0c-3.3-0.4-6.6-0.7-9.9-1.2c-0.4,0-0.8,0.2-1.2,0.2
		c-0.7,0.3-1.4,0.6-2.1,0.9c-0.9,0.6-1.6,1.1-2.5,1.6c-0.8,0.7-1.7,1.4-2.5,2.1c-0.5,0.4-0.8,0.9-1.3,1.3c-0.5,0.4-1.1,0.9-1.5,1.3
		c-2.2,1.4-2.3,1.4-3.5-1c-0.1-0.3,0-0.5-0.1-0.8c-0.1-0.7-0.2-1.4-0.3-2.1l0.1-0.1c-0.1-0.1-0.1-0.1-0.2-0.3c0-0.6-0.1-1.2-0.1-1.8
		C299.3,195.6,299.3,195,299.3,194.5z"/>
	<path class="st4" d="M335.5,183.8c1.9-1.2,3.7-2.4,5.6-3.5C339.3,181.4,337.4,182.6,335.5,183.8z"/>
	<path class="st4" d="M347.9,177.5c0.4-0.5,0.6-1.1,1-1.7c0.3,0.3,0.8,0.5,1.5,1.3C349.1,177.3,348.6,177.4,347.9,177.5z"/>
	<path class="st4" d="M308.8,197.6c0.9-0.6,1.6-1.1,2.5-1.6C310.4,196.5,309.5,197,308.8,197.6z"/>
	<path class="st4" d="M304.9,201c0.5-0.4,0.8-0.9,1.3-1.3C305.8,200.1,305.4,200.6,304.9,201z"/>
	<path class="st5" d="M322,230.8c-1,1.2-2,1.2-2.7-0.4C320.3,230.5,321.2,230.7,322,230.8z"/>
	<path class="st4" d="M299.3,194.5c0,0.6,0,1.1,0,1.8C299.3,195.6,299.3,195,299.3,194.5z"/>
	<path class="st5" d="M324.4,231.3c-0.1,0.4-0.2,0.7-0.2,1.6c-0.7-0.9-1.2-1.4-1.7-2C323.1,231,323.7,231.2,324.4,231.3z"/>
	<path class="st4" d="M344,178.9c0.5-0.1,0.9-0.3,1.5-0.4C344.9,178.6,344.5,178.8,344,178.9z"/>
	<path class="st4" d="M313.4,195.1c0.4,0,0.8-0.2,1.2-0.2C314.2,194.9,313.8,195,313.4,195.1z"/>
	<path class="st4" d="M333.3,186.3c0.2-0.3,0.4-0.7,0.6-1C333.7,185.6,333.5,186,333.3,186.3z"/>
	<path class="st4" d="M344.9,173.6c-0.3-0.2-0.7-0.4-1-0.6C344.2,173.2,344.6,173.4,344.9,173.6z"/>
	<path class="st5" d="M337.6,230.8c0.2,1.3-0.4,1.7-1.5,1C336.6,231.4,337.1,231.1,337.6,230.8z"/>
	<path class="st4" d="M299.8,200.3c0.1,0.3,0,0.5,0.1,0.8C299.8,200.8,299.8,200.6,299.8,200.3z"/>
	<path class="st5" d="M319.2,230.4c-0.6,0-1.4-0.1-2-0.1C317.9,230.4,318.5,230.4,319.2,230.4z"/>
	<path class="st5" d="M366.6,194c-0.3,0.6-0.5,1-0.6,1.6C366.3,195.1,366.5,194.5,366.6,194z"/>
	<path class="st5" d="M363.6,201.5c-0.2,0.5-0.4,0.8-0.5,1.3C363.2,202.3,363.4,201.8,363.6,201.5z"/>
	<path class="st5" d="M316.4,230.2c-0.5-0.1-1-0.1-1.3-0.2C315.4,230.1,315.9,230.2,316.4,230.2z"/>
	<path class="st4" d="M300.1,191.3c0,0.1-0.1,0.2-0.1,0.4C300,191.5,300,191.4,300.1,191.3z"/>
	<path class="st5" d="M332.7,232.4c-0.5,0-0.9,0.1-1.4-0.1C331.8,232.5,332.3,232.5,332.7,232.4z"/>
	<path class="st4" d="M299.4,198c0.1,0.1,0.1,0.1,0.2,0.3l-0.1,0.1C299.4,198.2,299.4,198.1,299.4,198
		C299.3,198,299.4,198,299.4,198z"/>
	<path class="st4" d="M347.4,174.9c-0.1,0-0.2-0.1-0.4-0.1C347.2,174.7,347.3,174.8,347.4,174.9z"/>
	<path class="st4" d="M326,195.9c0.1,0,0.3-0.1,0.4,0C326.2,195.9,326.1,196,326,195.9z"/>
	<path class="st4" d="M324.4,196c0.1,0,0.3-0.1,0.4,0C324.6,195.9,324.4,196,324.4,196z"/>
	<path class="st5" d="M325.7,231.6c-0.2-0.1-0.4-0.1-0.6-0.3C325.4,231.5,325.5,231.6,325.7,231.6z"/>
	<path class="st5" d="M328.5,232.1c-0.2-0.1-0.4-0.1-0.6,0C328.1,232,328.3,232.1,328.5,232.1z"/>
	<path class="st5" d="M324.9,231.3c-0.1,0-0.2-0.1-0.5-0.1C324.7,231.4,324.8,231.4,324.9,231.3z"/>
	<path class="st6" d="M429.6,207c0.3-0.2,0.6-0.4,0.9-0.6c1.4-0.8,3-1.8,4.3-0.5c0.7,0.8,0.6,2.9,0.1,4.2c-3,6.6-7.5,12.1-13.6,16.3
		c-1.6,1.1-3.4,1.1-4.5-0.1c-0.6-0.8-0.7-2.7-0.1-3.7C420.1,216.7,423.7,210.9,429.6,207z"/>
	<path class="st6" d="M316.8,290.6c-1.1,0.5-2.8,1.4-4.5,2.1c-0.7,0.2-1.4,0.2-2.2,0.3c0-0.7-0.2-1.7,0-2.3
		c1.8-3.5,3.5-7.1,5.8-10.2c2.8-3.6,6.4-6.8,9.8-10c1.3-1.2,3.1-2.7,4.9-1.3c1.8,1.3,0.7,3.4,0,4.9
		C327.7,280.5,323.3,286.1,316.8,290.6z"/>
	<path class="st5" d="M328.9,232.5c0.1,0.5,0.2,0.9,0.3,1.4c-0.4-0.1-0.7-0.3-1-0.4C328.4,233.1,328.6,232.8,328.9,232.5
		C328.8,232.4,328.9,232.5,328.9,232.5z"/>
	<path class="st5" d="M362.1,213.7c0-0.1-0.1-0.3,0-0.4c0.1,0,0.3-0.1,0.4,0c0.1,0,0.1,0.3,0,0.4
		C362.3,213.8,362.2,213.7,362.1,213.7z"/>
	<path class="st5" d="M326.2,231.9c0.1,0.3,0.2,0.4,0.3,0.7c-0.1,0-0.1,0.1-0.3,0.1C326.2,232.4,326.1,232.1,326.2,231.9
		C326.1,231.8,326.2,231.9,326.2,231.9z"/>
</g>
</svg>
