<?xml version="1.0" encoding="UTF-8" standalone="no"?>
<!DOCTYPE svg PUBLIC "-//W3C//DTD SVG 1.1//EN" "http://www.w3.org/Graphics/SVG/1.1/DTD/svg11.dtd">
<svg width="100%" height="100%" viewBox="0 0 512 512" version="1.1" xmlns="http://www.w3.org/2000/svg" xmlns:xlink="http://www.w3.org/1999/xlink" xml:space="preserve" xmlns:serif="http://www.serif.com/" style="fill-rule:evenodd;clip-rule:evenodd;stroke-linejoin:round;stroke-miterlimit:2;">
    <g transform="matrix(0.8251,0,0,0.8251,-30.4694,112.108)">
        <circle cx="347.2" cy="174.4" r="303" style="fill:white;"/>
        <g>
            <g id="XMLID_1_">
                <clipPath id="_clip1">
                    <path d="M231.1,-125.8C233.7,-127.5 233.6,-127.4 235.4,-124.7C238.4,-120.3 241.6,-115.8 244.6,-111.4C245.3,-110.6 246,-109.7 246.6,-109C248.5,-107.1 248.8,-107 249.8,-108.3C250.7,-109.7 251.6,-109.6 252.3,-108.1C252.7,-107.2 253.2,-106.4 253.5,-105.6C253.5,-105.2 253.6,-104.8 253.6,-104.4C253.9,-103.8 254,-103.3 254.2,-102.8C254.2,-102.4 254.3,-102 254.3,-101.6C254.5,-100.7 254.7,-99.9 254.8,-99C255.2,-97.3 255.5,-95.6 256,-93.7C256.1,-93.2 256.3,-92.6 256.5,-92.1C256.6,-91.8 256.5,-91.6 256.6,-91.3C256.7,-90.8 256.9,-90.2 257.1,-89.7C257,-89.5 257.1,-89.2 257.1,-89C257.2,-88.5 257.4,-87.9 257.5,-87.4L257.4,-87.3C257.5,-87.2 257.5,-87.2 257.6,-87C257.8,-86.2 258.1,-85.3 258.3,-84.5C258.3,-84.1 258.4,-83.7 258.4,-83.3C258.7,-82.7 258.8,-82.2 259,-81.7C259.1,-81.2 259.2,-80.8 259.3,-80.3C259.5,-79.6 259.9,-78.9 260.1,-78.2C260.4,-77.6 260.5,-77 260.7,-76.4C262,-74.5 263.3,-72.4 264.6,-70.5L264.5,-70.4L264.6,-70.3C264.8,-70.2 265.1,-70.2 265.3,-70.3C265.7,-70.2 265.9,-70 266.2,-70C266.3,-70 266.4,-69.9 266.6,-69.9C267,-69.8 267.2,-69.9 267.6,-69.8C270,-69.8 270.2,-67.5 271.5,-66.3C271.9,-65.3 272.3,-64.4 272.9,-63.5C273,-63 273.2,-62.6 273.3,-62C273.5,-61.3 273.9,-60.6 274.1,-59.9C274.2,-59.4 274.2,-58.9 274.4,-58.5C274.7,-57.9 274.9,-57.4 275,-56.9C275.1,-56.4 275.3,-56 275.4,-55.4C275.6,-54.7 275.8,-54 276.1,-53.4C276.1,-53 276.2,-52.6 276.3,-52.2C276.5,-51.5 276.7,-50.8 277,-50.2C277.1,-49.7 277.2,-49.3 277.3,-48.8C277.6,-48.2 277.7,-47.7 277.9,-47.2C278,-46.7 278.2,-46.1 278.2,-45.8C278.4,-45.1 278.8,-44.4 279,-43.7C279.1,-43.2 279.4,-42.5 279.6,-41.8C280.5,-41.2 280,-38.5 282.3,-40.2C282.6,-40.9 282.9,-41.7 283.2,-42.5C283.8,-44.5 284.5,-46.5 285,-48.5C285.2,-48.8 285.5,-49.1 285.7,-49.5C286.2,-49.1 286.8,-48.8 287.3,-48.3C289,-45.7 290.5,-43.1 292.2,-40.4C293.1,-38.8 294,-37.2 294.9,-35.5C295.5,-34.2 296.1,-32.9 296.8,-31.6C297.5,-30.2 298.2,-28.9 299,-27.5C299.5,-26.3 300.1,-25.1 300.6,-23.9C301.2,-22.6 301.9,-21.5 302.5,-20.2C302.9,-19.2 303.3,-18.3 303.6,-17.3C304.2,-16 304.8,-14.9 305.4,-13.6C305.7,-12.8 306,-12 306.4,-11.1C306.9,-10.1 307.3,-9.1 307.9,-8.3C308.3,-7.3 308.7,-6.4 309,-5.4C309.4,-4.5 309.8,-3.7 310.2,-2.9C310.5,-2.1 310.8,-1.3 311.1,-0.3C311.5,0.6 311.9,1.4 312.3,2.2C312.4,2.7 312.7,3.4 312.8,3.9C313.1,4.7 313.4,5.5 313.8,6.3C313.9,6.8 314.1,7.2 314.2,7.8C314.5,8.6 315,9.5 315.3,10.3C315.6,10.7 315.9,11.1 316,11.5C316.7,10.3 317.2,9.1 317.8,7.9C317.8,7.8 317.9,7.7 317.9,7.5C318.2,6.6 318.6,5.6 318.8,4.7C319.1,4.1 319.2,3.4 319.5,2.8C319.6,2.6 319.6,2.2 319.8,2C320.5,2.4 321,2.7 321.7,3.1C321.8,3.4 322,3.7 322,4C322.1,4.7 322.2,5.2 322.3,5.8C322.4,6.1 322.5,6.5 322.6,6.7C323.1,9.1 323.5,11.3 323.9,13.6C324,13.9 324.1,14 324.1,14.3C324.1,15 324,16 324.1,16.7C324.6,18.8 325.2,20.9 325.8,23.1C325.9,23.2 326,23.5 325.9,23.6C325.9,24.1 326.1,24.5 326.1,25C326.2,25.3 326.2,25.7 326.4,25.9C326.7,27.3 326.9,28.6 327.2,30.1C327.3,30.4 327.3,30.8 327.5,31C327.6,31.7 327.7,32.2 327.8,32.8C327.9,33.1 328.1,33.4 328.1,33.7C328.5,35.2 328.8,36.7 329.2,38.2C329.4,38.6 329.5,39 329.8,39.5C330.1,40.3 330.3,41.2 330.6,42.1C331.5,43.6 332.3,45 333.3,46.3C333.8,46.5 334.2,46.6 334.6,46.8C335.5,46.4 336.3,45.8 337.3,45.4C337.7,44.9 338,44.3 338.4,43.8C338.6,43.3 338.7,43 338.9,42.5C339.1,42 339.3,41.7 339.4,41.2C339.8,39.3 340.3,37.4 340.7,35.5C341.1,35.2 341.5,34.9 341.9,34.6C342.3,35.5 342.8,36.2 343.2,37C343.3,37.9 342.1,39.3 344,39.6C344.1,39.9 344.3,40.2 344.3,40.4C343.7,42.4 343.7,42.4 344.9,42.7C345,43 345.2,43.3 345.2,43.5C345.4,44.3 345.6,45 345.7,45.7C345.8,46 346,46.3 346,46.5C346.1,47.2 346.2,47.7 346.3,48.3C346.5,48.7 346.6,49.2 346.7,49.7C346.8,50.2 346.9,50.9 347.1,51.4C347.3,51.8 347.4,52.3 347.7,52.8C347.8,53.1 347.8,53.5 347.8,53.7C348.1,54.3 348.2,54.9 348.4,55.5C348.5,56 348.6,56.7 348.6,57.2C348.7,57.3 348.8,57.6 348.9,57.8C349,58.5 349.1,59 349.4,59.7C349.5,60 349.5,60.4 349.7,60.6C349.8,61.3 350.1,61.8 350.2,62.5C350.3,62.8 350.3,63.2 350.5,63.4C350.7,64.2 350.9,64.9 351.1,65.7C351.3,66.1 351.4,66.5 351.7,67C351.8,67.7 351.9,68.2 352,68.8C352.1,69.1 352.3,69.4 352.3,69.6C352.5,70.4 352.7,71.1 352.9,71.9C353.1,72.3 353.2,72.7 353.5,73.2C353.7,73.9 353.9,74.7 354.1,75.4C354.3,75.8 354.4,76.2 354.7,76.7C355.1,77.8 355.4,79 355.8,80.1C356.1,80.5 356.2,81 356.5,81.4C356.9,82.4 357.2,83.3 357.6,84.4C358,85.3 358.4,86.1 358.8,86.8C360.3,92.3 363.6,96.7 367.3,100.8C367.4,100.8 367.5,100.9 367.7,100.9C368.1,101.4 368.5,101.8 368.9,102.3C369.6,103.1 370.4,103.8 371.2,104.6C371.6,105.1 372,105.5 372.4,106C373.1,106.8 373.8,107.4 374.7,108.3C375.8,109.9 376.9,111.5 378,113.2C378.4,113.8 378.7,114.4 379.1,115C379.9,116.4 380.7,117.9 381.6,119.3C382,120.4 382.5,121.5 382.9,122.6C383.1,123 383.3,123.5 383.5,123.9C383.9,125 384.4,126.2 384.7,127.3C385,128 385.4,128.7 385.7,129.4C385.7,132.2 387,134.2 389.6,135.4C389.8,135.6 390,135.9 390.3,136.1C391.3,137.7 392.7,138.7 394.6,138.6L394.8,138.7L394.9,138.8C395.2,139 395.7,139.1 396,139.3C396.5,139.5 396.8,139.7 397.2,140C397.5,140.2 397.9,140.4 398.2,140.6C398.4,140.8 398.7,140.8 398.9,141C400,141.9 401,142.7 402.1,143.5C403.1,145.1 404.1,146.8 405.2,148.5C405.4,149.2 405.6,150 405.8,150.7C406,151.1 406.2,151.7 406.4,152.1C406.5,152.8 406.5,153.3 406.6,153.9C406.6,154.3 406.8,154.6 406.9,155C406.9,155.4 407,155.9 407,156.3C407.1,156.3 407.1,156.4 407.1,156.6C406.9,156.9 406.7,157.4 406.7,157.8C407.1,160.6 407.5,163.4 407.8,166.2C404.9,166.3 402,166.4 399.1,166.5C398.8,166.8 398.4,167.3 397.7,167.7C396,168.6 394.3,169.3 392.5,170.1C392.2,170.2 391.9,170.4 391.8,170.4C391.1,170.5 390.3,170.4 389.8,170.7C387,172.7 384.1,174.8 381.3,177.1C378.9,178.9 376.7,181 374.3,182.9C373.5,183 372.6,183 371.6,183.1C371.7,183.4 371.6,183.6 371.7,183.9C372.4,184.1 373.2,184.4 374.2,184.6C372.9,185.8 372,187.4 370.5,188C368.4,189 369.8,191 368.9,192.3C368.9,192.4 368.7,192.5 368.6,192.6C368.2,192.1 367.7,191.8 367.3,191.3C367.3,190.6 367.4,189.8 367.5,189.1C367.5,188.6 367.4,188.2 367.4,187.7C366.4,186.6 365.5,185.4 364.5,184.4C362.9,182.8 361,181.4 359.3,179.8C355,175.8 351.1,171.4 346.5,168.1C339,162.8 330.4,160.6 321.1,161.5C316.1,162 312.3,165.2 308.3,167.9C303.5,171.2 299.7,175.5 297.7,181.1C295.8,186.3 292.4,191.3 294.6,197.3C294.9,198.1 294.9,198.9 295.1,199.7C297.3,209 299.4,218.4 301.6,227.6C300.9,229.6 301.9,230.1 303.6,229.8C304,229.9 304.3,230.1 304.6,230.2C304.4,230.5 304.3,230.9 304.1,231.2C304,231.2 303.8,231.3 303.7,231.2C303,231.3 302.4,231.4 301.7,231.5C300.6,231.4 299.5,231.1 298.3,231C298.4,230.5 298.5,230 298.8,229.1C297.4,230.4 296.3,231.4 295.2,232.4C295,232.2 294.9,232.1 294.7,231.9C295.1,231.4 295.5,231 295.9,230.4C295,230.5 294.1,230.6 293.8,231.2C292.5,234.3 289,233.4 286.9,234.9C284.8,236.4 282.4,237.7 280.3,239.2C277.1,241.5 275.5,245.5 271.6,247C269.5,243.9 267.4,240.8 265.3,237.7C263.8,235.9 262.5,233.9 261,232.1C259.8,230.3 258.5,228.7 257.3,226.9C256.2,225.1 255.1,223.4 254,221.6C253.7,220.8 253.2,220 252.9,219.2C252.9,218.8 252.7,218.4 252.7,218C252.6,217.5 252.4,216.9 252.2,216.4C252.3,215 252.3,213.8 252.3,212.4C252.4,211.5 252.5,210.6 252.5,209.7L252.5,207.9C252.4,207.4 252.2,206.8 252.1,206.3C252,206 252.1,205.7 252,205.4C251.8,204.7 251.4,204 251.2,203.3C251,202.6 250.8,201.9 250.4,201.1C248.8,198.3 247.2,195.7 245.6,193C245.5,192.9 245.4,192.7 245.3,192.6C242.5,188.3 239.7,184.1 237,179.8C234,175.1 231,170.3 228,165.6C227.2,164.2 226.4,162.6 225.6,161.2C225.4,160 225.2,158.9 225,157.7C225.5,157.2 226.1,156.7 226.6,156.3C226.8,156.4 227.1,156.3 227.5,156.4C228,156.4 228.4,156.3 228.9,156.3C229,156.3 229.1,156.4 229.3,156.4C229.9,156.4 230.6,156.6 231.3,156.6C232,156.8 232.7,156.9 233.4,156.9C233.5,156.9 233.8,156.4 233.9,156.1C233.5,156 233.3,155.8 233,155.8C232,155.1 231.1,154.4 230.1,153.8C229.9,153.7 229.6,153.6 229.4,153.5C229,153.2 228.6,152.8 228.1,152.5C227.9,152.3 227.6,152.3 227.4,152.1C227,151.8 226.6,151.3 226.2,150.9C225.9,150.7 225.5,150.5 225.2,150.2C224.7,149.7 224.2,149.2 223.7,148.7C223.4,148.5 223,148.3 222.7,148.1C222.3,147.6 221.9,147.3 221.5,146.8C221.1,146.5 220.8,146.1 220.3,145.9C219.9,145.4 219.5,145.1 219.1,144.6C218.7,144.3 218.3,144.1 217.9,143.7C217.4,143.2 216.9,142.6 216.4,142.1C216,141.8 215.7,141.4 215.2,141.1C214.7,140.6 214.2,140 213.7,139.5C213.3,139.2 212.9,139 212.5,138.6C212,138.1 211.5,137.5 211,137C210.6,136.7 210.3,136.3 209.8,136C209.2,135.4 208.6,134.7 208,134C207.6,133.7 207.2,133.5 206.8,133.1C206.2,132.3 205.6,131.7 205,130.9C204.5,130.4 203.8,129.9 203.4,129.3C202.8,128.5 202.2,127.9 201.6,127.1C200.7,126 199.8,124.9 198.9,123.9C199.1,123.4 199.3,123.1 199.6,122.7C199.7,122.6 199.7,122.6 199.9,122.5C200.8,122.2 201.8,121.8 202.9,121.5C205.3,121 207.7,120.6 210.1,120.2C211,119.6 211.9,119.1 212.6,118.6C212.3,118.2 212.2,117.7 211.9,117.4C211.5,117.1 211.1,116.6 210.8,116.3C210.7,116.3 210.6,116.2 210.5,116.1C210,115.7 209.3,115.2 208.8,114.8C208.2,114.3 207.4,113.7 206.7,113.3C206,112.9 205.4,112.4 204.7,112C204.4,111.7 204,111.3 203.5,111.1C198.3,107.9 193.3,104.8 188.1,101.6C187.6,101.2 187,101 186.6,100.6C185.6,100 184.6,99.3 183.6,98.7C183.1,98.3 182.5,98.1 181.9,97.7C180.7,96.9 179.6,96.3 178.4,95.5C177.9,95.1 177.3,94.9 176.7,94.5C175.5,93.7 174.2,92.8 173,92C172.5,91.6 172,91.4 171.5,91L171.5,90.9C171.4,90.9 171.3,90.8 171.1,90.8C170.6,90.4 170,90.1 169.4,89.7L169.4,89.6C169.3,89.6 169.2,89.5 169,89.5C168.5,89.1 167.8,88.6 167.3,88.2C167.4,89 167,88.8 166.7,88.6C166.2,88.2 165.5,87.7 165,87.3L165,87.2C164.9,87.2 164.8,87.1 164.6,87.1C164.2,86.8 163.8,86.3 163.5,86C163.1,85.7 162.7,85.5 162.3,85.1C161.8,83.9 159,82.9 161.8,81.1C161.9,81.1 162.1,81 162.2,81.1L164.5,81.1C165,81.2 165.5,81.2 166,81.3C166.6,81.3 167.3,81.5 168,81.5C168.2,81.6 168.6,81.6 168.8,81.7C169.5,81.7 170.1,81.9 170.9,81.9C171.8,82 172.9,83 173.4,81.3C173.1,80.9 172.7,80.4 172.4,80C172.2,79.9 171.9,79.8 171.7,79.7C171.3,79.4 170.9,79 170.4,78.7C170.1,78.5 169.7,78.3 169.4,78.1C169,77.8 168.4,77.5 168,77.2L168,77.1C167.9,77.1 167.8,77 167.6,77C167.1,76.8 166.6,76.4 166.2,76.2L166.2,76.1C166.1,76.1 166,76 165.8,76C165,75.6 164.3,75 163.4,74.6C162.7,74.2 162.2,73.8 161.5,73.5C160.8,73.1 160.1,72.8 159.4,72.4C159.3,72.4 159.2,72.3 159.1,72.2C158.6,71.8 158.1,71.6 157.6,71.2C155.7,70.1 153.7,68.9 151.7,67.9C150.9,67.5 150.1,67 149.2,66.6L149.2,66.5C149.1,66.5 149,66.4 148.8,66.4C147.9,65.8 147.1,65.3 146.2,64.7C145.7,64.3 145,63.9 144.5,63.6C143.6,63.1 142.8,62.6 142.1,62.2C141.6,61.8 140.9,61.4 140.4,61.1C140,60.8 139.6,60.4 139.1,60.1C138.9,59.9 138.6,59.9 138.4,59.7C138,59.4 137.6,59 137.1,58.7C136.9,58.5 136.6,58.5 136.3,58.3C135.9,58 135.5,57.6 134.9,57.2C134.9,57.2 134.9,57.1 135,57.1C134.9,57.1 134.9,57.1 134.8,56.9C133.4,56 131.8,55 130.4,54C130,53.7 129.6,53.3 129.2,52.8C129,52.6 128.7,52.6 128.4,52.4C128,52.1 127.6,51.7 127.2,51.2C126.2,50.6 125.4,49.9 124.4,49.3C124,49 123.6,48.5 123.2,48.1C122.9,47.9 122.5,47.7 122.2,47.5C121.8,47.2 121.4,46.7 121,46.3C120,45.6 119.2,44.9 118.2,44.2C117.8,43.9 117.4,43.4 117,43C116.7,42.8 116.3,42.6 116,42.4C115.5,41.9 115,41.4 114.5,40.9C114.2,40.7 113.8,40.5 113.5,40.3C113.1,39.8 112.7,39.5 112.3,39C111.9,38.7 111.5,38.3 111.1,38.1C110.6,37.6 110.1,37 109.6,36.5C109.2,36.2 108.8,36 108.4,35.6C107.7,34.4 106.8,33.1 106.1,31.9C107.4,31.6 108.8,31.1 110.2,30.8C111.2,30.8 112.1,30.7 113.1,30.6L116.5,30.6C117,30.6 117.5,30.7 118,30.7C118.2,30.8 118.5,30.8 118.9,30.8C119.8,30.7 120.8,30.7 121.7,30.7C122.1,30.7 122.5,30.5 122.9,30.5C122.6,30.3 122.2,30.1 121.9,29.9C121.4,29.7 120.9,29.3 120.5,29.1C120.4,29.1 120.3,28.9 120.2,28.9C119.7,28.5 119.2,28.3 118.7,27.9C118.2,27.5 117.5,27.1 117,26.8C116.5,26.4 115.9,26.2 115.3,25.8C114.8,25.4 114.1,25.1 113.5,24.8C112.4,24.2 111.4,23.5 110.3,22.8C110.2,22.8 110.1,22.6 110,22.6C109.5,22.4 109,22 108.6,21.8C108.5,21.8 108.4,21.7 108.3,21.6C107.8,21.4 107.3,21 106.9,20.8L106.9,20.7C106.8,20.7 106.7,20.6 106.5,20.6C105.9,20.3 105.5,20 104.9,19.7C104.5,19.4 104.1,19 103.7,18.8C103.2,18.4 102.6,18.2 102,17.8C101.4,17.4 100.8,17 100.3,16.7C99.6,16.3 99.1,15.8 98.5,15.4C98.3,15.3 98,15.2 97.8,15.1C97.4,14.8 97,14.3 96.6,13.9C96.3,12.8 94.3,12.4 95.7,10.8C96.4,10.6 97.1,10.2 97.6,10C97.7,9.9 97.9,9.8 98.1,9.6C98.2,9 98.3,8.5 98.5,7.9C97.9,6.9 97.2,5.9 96.6,4.8C96,4.2 95.4,3.4 94.8,2.8C94.6,3.2 94.2,3 94,2.8C93.5,2.3 93,1.8 92.6,1.4C92.3,1.2 91.9,1 91.6,0.8C91.2,0.5 90.8,-0 90.4,-0.4C90.1,-0.6 89.7,-0.8 89.4,-1C89,-1.3 88.6,-1.8 88.2,-2.2C87.9,-2.4 87.5,-2.6 87.2,-2.8C86.8,-3.3 86.4,-3.6 86,-4.1C85.6,-4.4 85.1,-4.7 84.8,-5C84.4,-5.5 84,-5.8 83.6,-6.3C83.2,-6.6 82.8,-7 82.4,-7.3C82,-7.8 81.6,-8.2 81.2,-8.6C80.7,-9 80.3,-9.4 79.7,-9.8C79.1,-10.4 78.5,-11.2 77.9,-11.8C77.4,-12.3 76.7,-12.8 76.2,-13.3C74.8,-15.4 73.5,-17.3 72,-19.4C71.6,-20 71.4,-20.8 70.9,-21.3C69.6,-22.8 70.1,-23.7 71.7,-24.8M369.5,184.3C369.6,184.4 369.7,184.6 369.9,184.8C370.2,184.5 370.5,184.2 370.9,183.9C370.8,183.8 370.7,183.7 370.6,183.6C370.2,183.8 369.8,184.1 369.5,184.3ZM370.6,187.1C370.7,187.1 370.9,187 371,187.1C371,187 370.9,186.8 371,186.7L370.6,186.7C370.5,186.8 370.6,187 370.6,187.1Z"/>
                </clipPath>
                <g clip-path="url(#_clip1)">
                    <g>
                        <path d="M412.7,-121C575.9,-84.4 678.6,77.7 641.9,241C605.3,404.3 443.2,506.9 279.9,470.3C116.6,433.7 14,271.5 50.7,108.3C87.3,-55 249.4,-157.7 412.7,-121Z" style="fill:rgb(5,5,5);fill-rule:nonzero;"/>
                    </g>
                </g>
            </g>
        </g>
        <path d="M505,372.8C504.3,372.6 503.5,372.3 502.8,372.2C502.7,372.2 502.5,372 502.3,372C501.4,371.7 500.6,371.4 499.6,371C499.4,370.9 499.1,370.8 498.8,370.7C498.6,370.6 498.2,370.4 498,370.4C497.3,370 496.5,369.7 495.9,369.3C494.6,368.8 493.5,368.3 492.2,367.7C492.1,367.8 492,367.6 491.9,367.5C489.9,366.3 487.8,365.1 485.8,363.9C485.5,363.7 485.1,363.5 484.8,363.2C484.3,362.8 483.8,362.6 483.3,362.2C483.1,362 482.8,361.7 482.6,361.5C481.3,360.6 480.1,359.6 478.8,358.7C478.6,358.4 478.4,358.2 478.2,357.9C477.6,357.3 476.8,356.7 476.2,356.1C476,355.9 475.9,355.8 475.7,355.6C474.7,354.5 473.7,353.5 472.7,352.4C472.4,352.1 472.1,351.6 471.8,351.3C470.5,349.6 469.3,348.1 467.9,346.4C465.5,342.6 463.1,338.8 460.7,335C459.8,333 458.8,331.1 457.9,329.1C457.5,328.5 457.3,328 456.9,327.4C456.4,326.2 455.9,324.9 455.4,323.7C455.1,323.1 454.9,322.6 454.5,322C454.1,321 453.8,320.1 453.4,319.1C453.2,318.8 453.1,318.5 453,318.1C452.6,317 452.1,315.9 451.7,314.8C451.5,314.5 451.4,314.2 451.3,313.8C450.9,312.7 450.5,311.6 450.2,310.5C450,310.2 449.9,309.8 449.7,309.5C449.4,308.6 449.1,307.6 448.7,306.6C448.5,306.3 448.4,305.9 448.2,305.6C447.8,304.5 447.3,303.4 446.9,302.3C446.7,301.9 446.5,301.4 446.3,301C445.6,299.5 445,297.9 444.3,296.5C443.9,295.6 443.4,294.9 443,294.1C442.8,290.7 440.4,288.4 438.6,285.8C438,284.9 437.6,284.2 437,283.3C435.8,281.2 435.1,278.7 432.6,277.7C432.3,277.4 432,276.9 431.7,276.6C430.2,275.6 428.6,274.8 427.1,273.8C426.6,273.8 425.9,273.9 425.4,273.9C424.5,275.5 426,276.2 426.7,277.1C427.3,278.1 427.9,279.2 428.5,280.3C428.7,281.1 428.9,281.9 429.1,282.8L429.2,282.9L429.1,283C428.9,283.5 428.7,284 428.5,284.5C428.4,284.6 428.2,284.8 428,284.9C426.4,285.4 424.8,285.8 423.2,286.3C422,286.5 420.8,286.8 419.7,287C419.7,287.1 419.5,287.2 419.4,287.2C419.3,287.8 419,288.6 419.2,288.8C420.6,289.6 422.2,290.5 423.7,291.2C423.9,291.4 424,291.5 424.2,291.7C424.9,292.4 425.8,293.1 426.5,293.7C426.7,294 426.9,294.2 427.1,294.5C427.9,295.3 428.7,296.2 429.5,297.1C431.2,299.7 432.8,302.4 434.6,305.1C435,306.2 435.5,307.3 435.9,308.4C436.1,308.8 436.3,309.3 436.5,309.7C436.4,310.1 436.2,310.4 436.3,310.8C436.7,314.8 435.8,315.4 431.9,314.7C430.9,314.5 429.9,314.6 428.9,314.7L428.8,314.8L428.7,314.7C427.1,314.4 425.4,314.1 423.9,313.7C423.7,313.6 423.5,313.6 423.3,313.7L418.3,313.7C418,313.9 417.7,314.1 417.4,314.3C417.3,314.8 417.2,315.3 417.2,315.6C417.4,315.9 417.5,316 417.7,316.3C420.2,318 422.6,319.8 425.1,321.5C425.3,321.7 425.6,322 425.8,322.2C426.4,322.8 427.2,323.4 427.8,324C428.2,324.5 428.6,325.1 429,325.5C430.2,327.4 431.3,329.2 432.5,331.1C432.8,331.8 433.2,332.5 433.5,333.2C433.8,334.1 434.1,335.1 434.4,336C434.5,336.3 434.6,336.4 434.6,336.7C434.9,338.8 435.3,341 435.6,343.1C435.5,344.7 435.2,346.4 435.1,348C435,348.2 435,348.6 434.9,348.8C434.6,349.7 434.1,350.6 433.8,351.7C433.4,352.2 432.9,352.9 432.5,353.4C431.9,353.9 431.3,354.4 430.7,354.9C430.4,355.1 430,355.2 429.7,355.4C429.3,355.7 428.8,355.8 428.4,356.1C427.9,356 427.6,355.9 427.1,355.8C426.8,355.4 426.6,355.1 426.4,354.6C425.8,351.5 425.3,348.5 424.7,345.3C424.6,345 424.5,344.9 424.4,344.6C424.4,342.2 423,339.9 420.8,338.9C420.6,338.7 420.3,338.4 420.1,338.2C419.1,337.6 418.1,337 417.1,336.4C416.6,336.2 416.1,335.9 415.6,335.7C414.3,335.3 413,335 411.7,334.6C411,334.4 410.4,334.3 409.7,334.1L409.6,334.2L409.5,334.1C408.9,334.1 408.3,334 407.8,334C406.2,333.9 404.6,333.9 403,333.8C401.1,333.9 399.1,333.9 397.2,333.9C396.9,334 396.5,334 396.3,334C394.5,334.1 392.7,334.2 391,334.3C390.4,334.3 389.8,334.3 389.1,334.4C387,334.3 384.7,334.3 382.6,334.2C382.5,334.2 382.2,334.1 382.1,334.2C381.5,334.2 381,334.1 380.4,334.1C380.3,334.1 380,334 379.9,334.1C377.8,333.8 375.8,333.3 373.8,333L373.7,333.1L373.6,333C373.4,332.9 373,332.9 372.8,332.8C372.4,332.7 372,332.6 371.6,332.5C371,332.2 370.6,332.1 370,331.9C369.9,331.9 369.7,331.7 369.5,331.7C369.2,331.5 368.8,331.4 368.5,331.2C368,331 367.6,330.9 367.2,330.7C366.9,330.4 366.6,330.1 366.3,329.9C363.6,328 360.9,326.1 358.2,324.2C357.4,323.5 356.4,322.8 355.5,322.1C355.1,321.6 354.7,321.2 354.3,320.6C353.6,319.8 352.9,319.2 352,318.3C351.6,317.8 351.2,317.4 350.8,316.8C350.4,316.2 350.1,315.5 349.5,315.3C349.3,315.1 348.1,315.9 348.1,316.1C348.4,318.6 349,320.9 349.5,323.3C349.6,323.6 349.7,323.7 349.7,324C350.2,326.2 350.6,328.5 351.1,330.8C351.2,331.1 351.3,331.2 351.4,331.5C351.6,332.3 351.9,333.1 352.1,334C352.3,334.3 352.4,334.7 352.5,335C352.5,338.3 354.9,340.4 356.5,342.8C357.1,343.8 357.7,344.7 358.4,345.7C360.4,348.9 362.4,352.1 364.4,355.3C365.1,356.5 366.3,357.4 367.4,358.3C368.2,359.6 369.1,360.8 369.9,362.1C372.2,365.3 374.4,368.4 376.7,371.5C378.3,374 379.8,376.6 381.5,379.1C382.4,380.8 383.1,382.6 384,384.3C384.2,384.7 384.4,385.2 384.6,385.6C384.9,386.4 385.1,387.3 385.4,388.2C385.6,388.5 385.7,388.8 385.8,389.2C386.4,393.6 387.2,398 387.9,402.3C388,402.6 387.9,402.8 388,403.2C388.2,405.9 388.2,408.5 388.3,411.3C388.4,411.6 388.3,411.8 388.4,412.1C388.3,412.5 388.4,412.7 388.3,413.1L388.3,414.9C388.3,415.4 388.2,415.8 388.2,416.3C388.2,416.9 388.2,417.5 388.1,418.3C388,419.3 387.9,420.1 387.8,421.1C387.8,421.7 387.7,422.2 387.7,422.8C387.6,423.4 387.5,424.1 387.4,424.7L387.5,424.8L387.4,424.9C387.1,426.6 386.8,428.3 386.5,430L386.6,430.1L386.5,430.2C386.3,430.9 386.2,431.6 386,432.2C385.9,432.6 385.8,433 385.6,433.4C384.9,434.2 384.1,435.1 383.4,436C383.3,436 383,435.9 382.9,435.9C382.3,435.4 381.6,434.9 381,434.3C380.5,433.7 380,433 379.6,432.3C378.8,431.5 378,430.7 377.1,429.9C376.9,429.7 376.8,429.6 376.6,429.4C375.5,428.5 374.5,427.7 373.4,426.9C373.1,426.7 372.7,426.5 372.4,426.3C370.3,424.8 368.3,423.3 366.2,422C362.8,420 359.2,418.2 355.4,416.3C352.6,414.9 349.7,413.8 346.7,412.5C346.4,412.3 346.2,412.1 345.8,411.9C345.5,411.7 345.2,411.6 344.9,411.4C344.7,411.2 344.6,411.2 344.4,411C343.4,410.3 342.5,409.4 341.4,408.8C339.1,407.4 336.9,406 334.5,404.8C334.3,404.6 334,404.3 333.8,404.1C333.3,403.7 332.8,403.4 332.3,403C332.1,402.8 331.8,402.5 331.6,402.3C330.8,401.5 330.1,400.6 329.3,399.8C328,398.8 326.6,397.8 325.3,396.8C325.1,396.5 324.9,396.3 324.6,396C324,395.4 323.4,394.8 322.6,394.2C322.3,393.8 321.9,393.4 321.6,393C320.8,392.2 320,391.4 319.2,390.4C318.9,390.1 318.6,389.6 318.3,389.3C317.4,387.7 316.6,386.2 315.6,384.7C314.6,383.1 314.7,382 316.4,381C316.6,381.1 316.9,381.1 317.1,381.2C318,381.5 318.8,381.8 319.8,382.2C320,382.3 320.4,382.5 320.6,382.5C321,382.6 321.2,382.6 321.6,382.7L321.7,382.6L321.8,382.7C323.6,383.5 324.5,382.9 324.6,380.9C324.5,380.6 324.6,380.4 324.5,380.1C324.5,379.6 324.5,379.1 324.4,378.7C324.2,378.3 324.1,377.8 323.8,377.3C323.2,375.9 322.5,374.6 322,373.2C321.1,371.6 320.2,370 319.3,368.5C319.4,366.9 318.8,365.1 320.8,364.2C321.4,363.8 321.9,363.6 322.5,363.2C323.5,361.2 322.6,359.3 320.3,358.3C319.8,357.7 319.3,357 318.9,356.3C317.9,355.2 317,354.1 316,353.1C315.3,351.9 314.5,350.8 313.8,349.6C313.7,348.9 313.7,348.3 313.6,347.7C314.2,346.6 315,345.4 315.6,344.3C315.9,344 316.1,343.7 316.4,343.4C318.1,341.9 318.9,340.1 317.7,337.8C317.5,337.5 317.4,337.2 317.3,336.8C317.3,336.3 317.5,335.7 317.4,335.3C316.3,333.5 315.1,331.8 313.8,330C313.6,329.6 313.4,329.1 313.2,328.7C313.6,327.7 314,326.6 314.4,325.6C315,325.3 315.5,325 316.1,324.7C319.9,324.2 322.7,322.3 324.9,319.1C325.2,318.8 325.7,318.5 326,318.2C326.4,317.7 326.7,317.2 327.1,316.7C327.3,316.5 327.6,316.2 327.8,316C329,314.1 330.4,312.4 331.3,310.5C332.5,307.9 330.5,306.3 329,304.6C332.1,302.2 335,299.7 338.1,297.1C338.6,296.3 339.3,295.6 339.8,295L339.8,294.9C340.5,294.4 341.4,294.1 341.8,293.5C345,288.6 348.3,283.7 350.1,277.9C350.3,277.2 350.3,276.3 350.4,275.6L350.4,275.5C351.8,274.1 352.2,272.4 351.9,270.4L351.9,270.3C352.3,269.8 353,269.4 353.1,268.8C353.4,267 354.7,266.3 355.9,265.7C357.1,265.2 358.5,265.2 359.7,264.8C362.6,263.8 365.9,264.4 368.2,262.1C371.8,260.1 374.7,257.8 376.2,253.9C377.3,251.3 379.4,249.8 382.4,250.3C384.1,250.6 385.7,250.5 387.3,250.8C393.7,252 400,252.5 406.3,251.6C413.7,250.5 420.6,248.2 426.8,244C427.2,243.7 428,243.9 428.6,243.9C428.6,244.9 428.8,245.9 428.8,246.8C428.7,247 428.8,247.2 428.8,247.4C429,249.3 429.2,251.2 429.4,253.2C429.6,253.5 429.7,253.9 429.9,254.2C430.1,254.5 430.2,254.6 430.4,254.9C431.2,255.3 432,255.8 432.8,256.1C433.9,256.3 435,256.5 436.1,256.7C437,256.8 437.7,256.8 438.6,256.8C440.4,256.7 442.2,256.5 444,256.4C444.3,256.3 444.4,256.2 444.7,256.2C445.4,256.1 446.1,255.9 446.8,255.8C447.1,255.7 447.3,255.7 447.5,255.6C448.3,255.3 449.1,255.1 449.9,254.8C451.3,254 452.8,253.2 454.2,252.3C455.6,252.2 457,252.3 458.4,252.2C458.6,252.4 458.7,252.5 458.9,252.7C460.6,254.8 462.1,256.8 463.8,258.9C464.1,259.3 464.4,259.7 464.8,260.1C466.2,261.2 467.5,262.2 468.9,263.3C469.1,263.5 469.3,263.6 469.6,263.7C471.7,264.4 473.7,265.1 475.8,265.8C476,266.1 476.3,266.4 476.5,266.7C476.7,267 476.9,267.3 477.1,267.6C477.4,268.2 477.7,268.7 478,269.3C478.8,271.5 479.4,273.6 480.2,275.8C480.4,276.1 480.5,276.4 480.6,276.8C480.8,277.7 480.8,278.6 481.1,279.4C481.6,280.1 481.8,281.7 483.3,280.7C483.6,280.5 483.9,280.3 484.2,280.1C484.6,279.6 484.9,279.1 485.3,278.6C485.7,278.4 486.2,278.2 486.6,278C487.6,279.5 488.7,281.1 489.8,282.6C490.1,283.3 490.5,284 490.8,284.7C491.2,285.8 491.7,286.9 492.1,288C492.8,289.2 493.6,290.3 494.4,291.5C494.9,291.7 495.5,292.1 495.7,292C496.8,291.1 497.6,290.2 498.6,289.3C498.9,289.1 499.1,288.9 499.4,288.6C500,288 500.6,287.2 501.2,286.6C501.5,286.4 501.8,286.1 502.1,285.9C503.1,285.3 504.2,285 505,286.3C505.1,286.6 505.2,287 505.3,287.2C505.6,288.6 505.8,289.9 506.1,291.4C506.2,291.7 506.3,292.1 506.4,292.3C506.7,293.7 506.9,295 507.2,296.5C507.3,296.8 507.4,297.2 507.5,297.4C507.4,297.6 507.3,297.9 507.2,298C507.9,303.1 508.7,308.1 509.5,313.3C509.6,314.1 509.5,314.9 509.6,315.7C509.5,315.9 509.5,316.3 509.5,316.6L509.6,316.7L509.5,316.8C509.4,317.7 509.5,318.7 509.4,319.5C509.3,319.7 509.4,319.9 509.4,320.1C509.4,320.7 509.3,321.2 509.3,321.8C509.3,322.4 509.2,322.9 509.2,323.4C509,324.7 508.8,326.1 508.7,327.4C508.6,327.8 508.7,328.1 508.6,328.5C508.5,328.9 508.5,329.1 508.5,329.5C508.4,329.7 508.5,330.1 508.4,330.4C508.3,330.9 508.2,331.2 508.2,331.7C508.1,332.1 508,332.4 508,332.8C507.7,334.5 507.5,336.1 507.3,337.8C507.2,338 507.3,338.3 507.2,338.7C507,340.3 506.7,341.9 506.5,343.3C506.4,343.9 506.4,344.5 506.2,345.1C506.2,345.8 506,346.7 505.9,347.4C505.8,347.6 505.8,347.8 505.8,348C505.8,348.6 505.7,349.1 505.7,349.7C505.6,350.1 505.7,350.4 505.6,350.9C505.5,354 505.6,357.2 505.5,360.3C505.5,360.7 505.6,361.1 505.7,361.5C506,363.1 506.4,364.5 506.7,366.1C507,366.8 507.4,367.5 507.7,368.2C508.7,369.8 509.7,371.4 510.7,373.1" style="fill:rgb(4,3,3);fill-rule:nonzero;"/>
        <path d="M428.4,244.1C427.8,244.1 427.1,243.9 426.6,244.2C420.4,248.3 413.4,250.6 406.1,251.8C399.7,252.8 393.3,252.2 387.1,251C385.4,250.6 383.8,250.6 382.2,250.5C379.1,250.2 377.1,251.6 376,254.1C374.4,258 371.5,260.4 368,262.3C363,263.3 357.8,263.5 353.5,266.7C352,267.7 351.3,268.8 351.8,270.6L351.8,270.7C351.3,272.3 350.8,274.1 350.3,275.8L350.3,275.9C349.1,278.5 347.9,281.1 346.5,283.7C345.1,286.4 343.5,289.1 342.1,291.7C341.4,292.9 340.6,294 339.8,295.2L339.8,295.3C339.3,296.1 338.6,296.8 338.1,297.4C335,299.8 332.1,302.3 329,304.9C328.7,305.2 328.5,305.4 328.2,305.7C325.1,307.4 322,309.2 318.9,310.8C317.1,311.6 315.2,312.1 313.3,312.7C312.1,313.1 310.8,313.4 309.6,313.7C308.7,313.8 307.7,313.7 306.8,313.8C304.1,314.2 301.5,314.6 298.8,315C297.6,315.1 296.6,315.4 295.5,315.6C294.3,315.5 293.1,315.3 291.9,315.4C285.7,316 279.4,317.4 273.6,313.7C273,312.9 272.6,312.1 272,311.3C271.3,309.5 270.5,307.7 269.8,305.9C269.9,305.8 269.9,305.8 270,305.7C270.1,305.5 270.2,305.4 270.3,305.1C270.9,303.6 271.5,302.1 272.2,300.6C271.9,299.7 271.6,298.6 271.4,297.7C271.2,297 271,296.3 270.8,295.7C270.7,295 270.7,294.4 270.6,293.8C270.4,292.3 270.6,290.5 270.2,289.1C268.2,283.4 266.9,277.7 267,271.7C267,267.6 267.9,263.4 268.3,259.2C268.4,259 268.4,258.7 268.5,258.5C268.5,258.4 268.6,258.1 268.6,258C268.8,257.7 269,257.5 269.2,257.1C270.7,254.5 272.2,252 273.6,249.6C274,249.4 274.5,249.3 274.9,249C277.1,246.6 278.9,243.9 281.4,241.9C284.8,239.3 288.5,237 292.3,235.2C295.5,233.8 299,233.2 302.5,232.2C303.2,232.1 303.8,232 304.5,231.9C304.6,231.9 304.8,231.8 304.9,231.9C307,232.1 309,232.5 311,232.5C313.3,232.7 315.8,232.7 318.2,232.9C319.9,233.3 321.4,233.6 323.1,234C325,234.8 327.1,235.5 329.1,236.5C331.5,237.5 334,238.6 336.4,239.9C339.2,241.4 341.9,243.2 344.7,244.8C346,245.7 347.3,246.8 348.6,247.7C352.3,250.3 356.7,251.4 360.9,248.3C362,247.5 363.1,246.8 364.3,246.2C367.8,244 369.3,240.8 368.5,236.9C367.3,230 366.1,223.2 364.7,216.4C364.8,216.2 365,215.8 365,215.6C365.2,206 367.6,196.9 373.2,189.1C376,185.2 379.3,181.7 382.7,178.4C385.6,175.7 389.1,173.6 392.2,171.1C392.5,171 392.8,170.8 392.9,170.8C397.6,169.9 402.4,168.9 407,167.9C407.9,167.7 408.8,167.6 409.7,167.4C415.2,167 420.6,167.5 425.6,169.6C431.2,172 436.2,175.6 440.7,179.6C443.5,182.1 446.1,184.7 449.1,186.9C450.5,188 452.5,188.3 454.3,188.8C455.7,189.2 457.1,189.6 458.5,190C459,190.1 459.5,190.5 459.7,190.9C460.9,193.8 462,196.7 463.1,199.6C463.7,201.5 462.6,202.9 461.6,204.3C456.7,210.1 453.3,216.9 449.3,223.2C446.6,227.4 443.5,231.3 440.1,234.8C436.7,238.2 432.7,241 429,244.1L428.9,244.2L428.4,244.1ZM402.1,243.8C402.7,243.8 403.2,243.8 403.7,243.9L403.8,243.9C407.1,245 410.2,244.2 413.3,243C415.3,242.4 417.6,242.2 419.5,241.2C426,237.5 432.3,233.9 436.5,227.3C439.4,222.8 441.9,218.2 442.5,212.8C444.1,210.7 443.5,208.3 443.4,206L443.4,205.9C443.3,205.6 443.4,205.4 443.3,205.1C443.3,204.4 443.6,203.7 443.5,203C442.7,197.6 441.5,192.4 438.4,187.7C432.3,178.7 423.6,173.7 413,173C403.9,172.3 395.4,174.7 387.9,180.4C382.3,184.5 378,189.7 375.3,195.9C370.4,206.7 370.4,217.6 376.3,228.1C379.2,233.3 383.8,236.8 388.6,239.8C392.3,242.1 396.5,243.6 401,243.6C401.3,243.7 401.6,243.8 402.1,243.8ZM341.4,277C341.6,276.2 342.2,275.2 342.1,274.4C341.7,272.3 343.4,270.2 342.1,268.1C341.9,259.3 338.5,251.9 332,245.9C326.6,240.8 320.1,237.8 312.8,237.1C306.1,236.3 299.6,237.7 293.4,240.4C285.9,243.6 280.4,249 276.1,255.5C272.5,260.7 270.9,267 270.4,273.4C269.9,281.2 271.8,288.4 276.5,294.7C279.9,299.2 284.3,302.6 289.2,305.2C295.3,308.3 301.5,308.8 308.2,307.7C311.5,307.2 315,306.9 317.9,305.5C324.4,302.2 330.3,298.1 334.7,292C338.1,287.2 340.5,282.5 341.4,277Z" style="fill:rgb(232,150,11);fill-rule:nonzero;"/>
        <path d="M301.8,232C298.3,233 294.8,233.4 291.6,235C287.7,236.8 284,239.1 280.7,241.7C278.3,243.7 276.4,246.4 274.2,248.8C273.9,249.1 273.3,249.2 272.9,249.4C272.6,248.8 272.3,248.3 272,247.7C275.9,246.1 277.5,242.2 280.7,239.9C282.8,238.4 285.2,237.1 287.3,235.6C289.4,234.1 292.9,234.8 294.2,231.9C294.5,231.3 295.4,231.2 296.3,231.1C295.9,231.6 295.5,232 295.1,232.6C295.3,232.8 295.4,232.9 295.6,233.1C296.7,232.1 297.7,231.1 299.2,229.8C299,230.8 298.8,231.2 298.7,231.7C299.6,231.8 300.7,231.9 301.8,232Z" style="fill:rgb(50,14,15);fill-rule:nonzero;"/>
        <path d="M267.5,259.2C267.1,263.4 266.3,267.5 266.2,271.7C266,277.7 267.5,283.4 269.4,289.1C269.9,290.6 269.7,292.3 269.8,293.8C269,290.9 268,288 267.3,285C266.5,281.4 266,277.9 265.4,274.3C265.1,273.2 264.8,272.1 264.5,271.1C264.3,270.3 264.2,269.7 264,268.5C264.5,268.9 264.9,269.1 265.2,269.3C265.7,266.6 266,263.8 266.5,261.2C266.7,260.4 267.2,259.8 267.5,259.2Z" style="fill:rgb(246,246,246);fill-rule:nonzero;"/>
        <path d="M409.5,167C408.6,167.2 407.7,167.3 406.8,167.5C402.1,168.4 397.3,169.4 392.7,170.4C394.4,169.6 396.2,168.9 397.9,168C398.5,167.7 399,167.1 399.3,166.8C402.2,166.7 405.1,166.6 408,166.5C407.6,163.7 407.3,160.8 406.9,158.1C406.9,157.7 407.2,157.4 407.3,156.9C407.7,159.2 408,161.7 408.5,164.1C408.5,165.1 409,166.1 409.5,167Z" style="fill:rgb(50,14,15);fill-rule:nonzero;"/>
        <path d="M297,316.2C296.3,316 295.6,315.8 294.9,315.6C296,315.3 297.1,315.1 298.2,315C300.9,314.6 303.5,314.2 306.2,313.8C307.1,313.6 308.1,313.7 309,313.7C309.1,313.6 309.1,313.6 309.3,313.5C309.3,313.5 309.4,313.5 309.4,313.4C307.1,314.1 304.9,314.9 302.7,315.5C301.6,315.9 300.3,316 299.2,316.1C298.4,316.3 297.7,316.3 297,316.2Z" style="fill:rgb(50,14,15);fill-rule:nonzero;"/>
        <path d="M188.9,103.1C194.1,106.3 199.1,109.4 204.3,112.6C204.8,112.8 205.1,113.1 205.5,113.5C201,110.7 196.5,108 192,105.1C191,104.4 189.9,103.8 188.9,103.1Z" style="fill:rgb(232,150,11);fill-rule:nonzero;"/>
        <path d="M228.7,166.7C231.7,171.4 234.7,176.2 237.7,180.9C234.7,176.1 231.8,171.4 228.7,166.7Z" style="fill:rgb(232,150,11);fill-rule:nonzero;"/>
        <path d="M367,358.3C366,357.3 364.8,356.4 364,355.3C361.9,352.2 360,348.9 358,345.7C361,349.9 364.1,354.1 367,358.3Z" style="fill:rgb(50,14,15);fill-rule:nonzero;"/>
        <path d="M367.9,101.8C367.8,101.8 367.5,101.8 367.5,101.7C363.8,97.6 360.5,93.2 359,87.7C360.2,89.7 361.2,91.8 362.5,93.9C364.2,96.5 366.1,99.1 367.9,101.8Z" style="fill:rgb(50,14,15);fill-rule:nonzero;"/>
        <path d="M508.7,313.4C508,308.3 507.1,303.3 506.4,298.1C506.3,298 506.6,297.8 506.7,297.5C508.1,302.7 509,308 508.7,313.4Z" style="fill:rgb(50,14,15);fill-rule:nonzero;"/>
        <path d="M355.1,322C355.9,322.7 356.8,323.4 357.8,324.1C360.5,326 363.2,327.9 365.9,329.8C366.2,330 366.5,330.4 366.8,330.6C362.1,328.7 358.4,325.6 355.1,322Z" style="fill:rgb(50,14,15);fill-rule:nonzero;"/>
        <path d="M429.2,314.7L432.2,314.7C436.2,315.5 437,314.6 436.6,310.8C436.6,310.4 436.8,310.1 436.8,309.7C438.3,314.2 437,315.9 432.4,315.4C431.5,315.3 430.3,314.9 429.2,314.7Z" style="fill:rgb(50,14,15);fill-rule:nonzero;"/>
        <path d="M376.5,371.6C374.2,368.4 372,365.3 369.7,362.2C371.9,365.3 374.2,368.4 376.5,371.6Z" style="fill:rgb(50,14,15);fill-rule:nonzero;"/>
        <path d="M327.8,305.8C328.1,305.5 328.3,305.3 328.6,305C330.1,306.7 332.1,308.3 330.9,310.9C330,312.8 328.6,314.6 327.4,316.4C328.2,315 329,313.6 329.7,312.2C331.2,309 330.7,307.6 327.8,305.8Z" style="fill:rgb(50,14,15);fill-rule:nonzero;"/>
        <path d="M324.4,319.6C322.3,322.6 319.4,324.6 315.6,325.2C318.6,323.2 321.5,321.5 324.4,319.6Z" style="fill:rgb(50,14,15);fill-rule:nonzero;"/>
        <path d="M439.1,285.8C440.9,288.3 443.3,290.6 443.5,294.1C442,291.3 440.5,288.5 439.1,285.8Z" style="fill:rgb(50,14,15);fill-rule:nonzero;"/>
        <path d="M349.2,323.3C348.7,320.9 348.2,318.4 347.8,316.1C347.7,315.8 348.9,315.1 349.2,315.3C349.8,315.6 350.1,316.4 350.5,316.8C350,316.6 349.5,316.4 348.6,316.1C348.8,318.7 348.9,321 349.2,323.3Z" style="fill:rgb(50,14,15);fill-rule:nonzero;"/>
        <path d="M356.2,342.7C354.6,340.2 352.2,338.2 352.2,334.9C353.5,337.6 354.9,340.1 356.2,342.7Z" style="fill:rgb(50,14,15);fill-rule:nonzero;"/>
        <path d="M271.5,300.6C270.9,302.1 270.3,303.6 269.6,305.1C269.5,304.6 267.5,304.8 269.1,303.6C269.1,303.5 269.1,303.1 269,303.1C267.8,302.7 267.6,301.9 268.4,301.2C268.7,300.9 269.9,301.3 270.7,301.4C271,301.2 271.3,300.9 271.5,300.6Z" style="fill:rgb(246,246,246);fill-rule:nonzero;"/>
        <path d="M463.3,259.2C461.6,257.1 460.1,255.1 458.4,253C460.1,255 461.7,257.1 463.3,259.2Z" style="fill:rgb(50,14,15);fill-rule:nonzero;"/>
        <path d="M424.9,345.3C425.5,348.4 426,351.4 426.6,354.6C426,351.5 425.4,348.4 424.9,345.3Z" style="fill:rgb(50,14,15);fill-rule:nonzero;"/>
        <path d="M313.5,330.3C314.7,332.1 316,333.9 317.1,335.6C317.3,335.9 317,336.6 317,337.1C315.8,334.9 314.6,332.6 313.5,330.3Z" style="fill:rgb(50,14,15);fill-rule:nonzero;"/>
        <path d="M504.4,360.3C504.5,357.2 504.4,354 504.5,350.9C504.5,353.9 504.5,357.2 504.4,360.3Z" style="fill:rgb(50,14,15);fill-rule:nonzero;"/>
        <path d="M421,339C423.2,339.9 424.6,342.3 424.6,344.7C423.4,342.8 422.2,340.9 421,339Z" style="fill:rgb(50,14,15);fill-rule:nonzero;"/>
        <path d="M261.4,232.7C262.8,234.7 264.2,236.5 265.7,238.3C264.3,236.5 262.8,234.7 261.4,232.7Z" style="fill:rgb(232,150,11);fill-rule:nonzero;"/>
        <path d="M425.3,321.5C422.8,319.8 420.4,318 417.9,316.3C420.4,318 422.8,319.8 425.3,321.5Z" style="fill:rgb(50,14,15);fill-rule:nonzero;"/>
        <path d="M433.1,277.8C435.6,278.9 436.3,281.3 437.5,283.4C436.1,281.5 434.6,279.6 433.1,277.8Z" style="fill:rgb(50,14,15);fill-rule:nonzero;"/>
        <path d="M210.8,121.7C208.4,122.2 206,122.6 203.6,123C206,122.6 208.3,122.1 210.8,121.7Z" style="fill:rgb(232,150,11);fill-rule:nonzero;"/>
        <path d="M325.7,23.3C325.2,21.2 324.5,19 324,16.9C323.8,16.1 324,15.3 324,14.5C324.6,17.4 325.2,20.3 325.7,23.3Z" style="fill:rgb(50,14,15);fill-rule:nonzero;"/>
        <path d="M420.2,287.2C421.4,287 422.5,286.8 423.7,286.5C425.3,286.1 426.9,285.6 428.5,285.1C426.3,287.6 423.2,287 420.2,287.2Z" style="fill:rgb(50,14,15);fill-rule:nonzero;"/>
        <path d="M389.7,136.1C387.2,134.9 385.9,132.9 385.8,130.1C387.1,132.1 388.4,134.2 389.7,136.1Z" style="fill:rgb(50,14,15);fill-rule:nonzero;"/>
        <path d="M479.5,275.9C478.7,273.7 478.1,271.6 477.3,269.4C478,271.7 478.7,273.7 479.5,275.9Z" style="fill:rgb(50,14,15);fill-rule:nonzero;"/>
        <path d="M458,329C458.9,331 459.9,332.9 460.8,334.9C459.9,333 458.9,331 458,329Z" style="fill:rgb(50,14,15);fill-rule:nonzero;"/>
        <path d="M432.6,331C431.4,329.1 430.3,327.3 429.1,325.4C430.3,327.3 431.5,329.2 432.6,331Z" style="fill:rgb(50,14,15);fill-rule:nonzero;"/>
        <path d="M254.4,222.4C255.5,224.2 256.6,225.9 257.7,227.7C256.7,225.9 255.5,224.2 254.4,222.4Z" style="fill:rgb(232,150,11);fill-rule:nonzero;"/>
        <path d="M475,266C472.9,265.3 470.9,264.6 468.8,263.9C470.9,264.7 473.1,265.3 475,266Z" style="fill:rgb(50,14,15);fill-rule:nonzero;"/>
        <path d="M152.6,68.3C154.6,69.4 156.5,70.6 158.5,71.6C156.4,70.6 154.6,69.4 152.6,68.3Z" style="fill:rgb(232,150,11);fill-rule:nonzero;"/>
        <path d="M468,346.3C469.3,348 470.5,349.5 471.9,351.2C470.7,349.6 469.4,348 468,346.3Z" style="fill:rgb(50,14,15);fill-rule:nonzero;"/>
        <path d="M489,282.7C488,281.2 486.9,279.6 485.8,278.1C488.3,278.5 488.4,280.7 489,282.7Z" style="fill:rgb(50,14,15);fill-rule:nonzero;"/>
        <path d="M373.6,332.9C375.7,333.2 377.7,333.7 379.7,334C377.7,333.7 375.6,333.4 373.6,332.9Z" style="fill:rgb(50,14,15);fill-rule:nonzero;"/>
        <path d="M350.7,330.8C350.2,328.6 349.8,326.3 349.3,324C349.8,326.2 350.2,328.6 350.7,330.8Z" style="fill:rgb(50,14,15);fill-rule:nonzero;"/>
        <path d="M324,13.8C323.5,11.4 323.1,9.2 322.7,6.9C323.1,9.2 323.5,11.4 324,13.8Z" style="fill:rgb(50,14,15);fill-rule:nonzero;"/>
        <path d="M319.9,358.5C322.2,359.5 322.9,361.3 322.1,363.4C321.4,361.7 320.6,360.2 319.9,358.5Z" style="fill:rgb(50,14,15);fill-rule:nonzero;"/>
        <path d="M485.8,363.8C487.8,365 489.9,366.2 491.9,367.4C489.9,366.2 487.8,365 485.8,363.8Z" style="fill:rgb(50,14,15);fill-rule:nonzero;"/>
        <path d="M269.3,305.9C270,307.7 270.8,309.5 271.5,311.3C270.5,310.9 269.5,310.7 269.4,309.1C269.4,308.1 268.3,307.1 267.7,306.2C268.1,306.1 268.7,306 269.3,305.9Z" style="fill:rgb(246,246,246);fill-rule:nonzero;"/>
        <path d="M382.4,334.3C384.5,334.4 386.8,334.4 388.9,334.5C386.8,334.4 384.7,334.4 382.4,334.3Z" style="fill:rgb(50,14,15);fill-rule:nonzero;"/>
        <path d="M497.8,289.3C496.8,290.2 496,291.3 494.9,292C494.8,292.1 494.1,291.7 493.6,291.5C494.9,290.8 496.3,290.1 497.8,289.3Z" style="fill:rgb(50,14,15);fill-rule:nonzero;"/>
        <path d="M424.2,291.4C422.7,290.7 421.2,289.8 419.7,289C419.5,288.8 419.8,288 419.9,287.4C420.4,288 420.7,288.8 421.2,289.3C422.2,290.2 423.2,290.6 424.2,291.4Z" style="fill:rgb(50,14,15);fill-rule:nonzero;"/>
        <path d="M435.9,343C435.6,340.9 435.2,338.7 434.9,336.6C435.3,338.7 435.5,340.9 435.9,343Z" style="fill:rgb(50,14,15);fill-rule:nonzero;"/>
        <path d="M317.3,338C318.5,340.3 317.7,342 316,343.6C316.5,341.7 316.9,339.9 317.3,338Z" style="fill:rgb(50,14,15);fill-rule:nonzero;"/>
        <path d="M131.4,54.2C132.8,55.1 134.4,56.1 135.8,57.1C135.9,57.1 135.9,57.1 136,57.3C136,57.3 136,57.4 135.9,57.4C134.5,56.3 132.9,55.3 131.4,54.2Z" style="fill:rgb(232,150,11);fill-rule:nonzero;"/>
        <path d="M504.1,286.3C503.2,285.1 502.2,285.4 501.2,285.9C501.7,285.3 502.4,284.5 502.9,283.9C503.1,284 503.4,284 503.6,284.1C503.8,284.9 503.9,285.7 504.1,286.3Z" style="fill:rgb(50,14,15);fill-rule:nonzero;"/>
        <path d="M509.9,372.9C508.9,371.3 507.9,369.7 506.9,368C507.8,369.7 508.8,371.3 509.9,372.9" style="fill:rgb(50,14,15);fill-rule:nonzero;"/>
        <path d="M444.7,296.5C445.4,298 446,299.6 446.7,301C446.1,299.5 445.4,298 444.7,296.5Z" style="fill:rgb(50,14,15);fill-rule:nonzero;"/>
        <path d="M482.7,280.6C481.2,281.6 480.9,280.2 480.5,279.3C480,278.6 480.1,277.6 480,276.7C480.7,278.1 481.7,279.4 482.7,280.6Z" style="fill:rgb(50,14,15);fill-rule:nonzero;"/>
        <path d="M397.2,334.1C399.1,334 401.1,334 403,334C401.1,333.9 399.1,334 397.2,334.1Z" style="fill:rgb(50,14,15);fill-rule:nonzero;"/>
        <path d="M427.6,273.9C429.1,274.9 430.7,275.7 432.2,276.7C430.7,275.8 429.2,274.8 427.6,273.9Z" style="fill:rgb(50,14,15);fill-rule:nonzero;"/>
        <path d="M429.2,253.6C429,251.7 428.8,249.8 428.6,247.8C428.8,249.7 429,251.7 429.2,253.6Z" style="fill:rgb(50,14,15);fill-rule:nonzero;"/>
        <path d="M199.7,125.3C200.6,126.4 201.5,127.5 202.4,128.5C201.5,127.5 200.6,126.4 199.7,125.3Z" style="fill:rgb(232,150,11);fill-rule:nonzero;"/>
        <path d="M457.9,252.5C456.5,252.6 455.1,252.5 453.7,252.6C455.1,252 456.6,251.1 457.9,252.5Z" style="fill:rgb(50,14,15);fill-rule:nonzero;"/>
        <path d="M506.2,337.8C506.5,336.1 506.7,334.5 506.9,332.8C506.7,334.6 506.4,336.1 506.2,337.8Z" style="fill:rgb(50,14,15);fill-rule:nonzero;"/>
        <path d="M418.6,313.7L423.6,313.7L418.6,313.7Z" style="fill:rgb(50,14,15);fill-rule:nonzero;"/>
        <path d="M479,358.6C480.3,359.5 481.5,360.5 482.8,361.4C481.4,360.4 480.1,359.5 479,358.6Z" style="fill:rgb(50,14,15);fill-rule:nonzero;"/>
        <path d="M390.8,334.4C392.6,334.3 394.4,334.2 396.1,334.1C394.4,334.2 392.6,334.3 390.8,334.4Z" style="fill:rgb(50,14,15);fill-rule:nonzero;"/>
        <path d="M424.2,313.7C425.8,314 427.5,314.3 429,314.7C427.3,314.3 425.7,314 424.2,313.7Z" style="fill:rgb(50,14,15);fill-rule:nonzero;"/>
        <path d="M472.8,352.3C473.8,353.4 474.8,354.4 475.8,355.5C474.9,354.4 473.8,353.4 472.8,352.3Z" style="fill:rgb(50,14,15);fill-rule:nonzero;"/>
        <path d="M505.6,365.9C505.3,364.3 504.9,362.9 504.6,361.3C504.9,362.9 505.3,364.4 505.6,365.9Z" style="fill:rgb(50,14,15);fill-rule:nonzero;"/>
        <path d="M252.8,213.3C252.7,214.7 252.7,215.9 252.7,217.3C252.8,215.9 252.8,214.5 252.8,213.3Z" style="fill:rgb(232,150,11);fill-rule:nonzero;"/>
        <path d="M173.9,93.6C175.1,94.4 176.4,95.3 177.6,96.1C176.4,95.3 175,94.5 173.9,93.6Z" style="fill:rgb(232,150,11);fill-rule:nonzero;"/>
        <path d="M468.2,263.5C466.8,262.4 465.5,261.4 464.1,260.3C465.5,261.5 466.9,262.4 468.2,263.5Z" style="fill:rgb(50,14,15);fill-rule:nonzero;"/>
        <path d="M315.6,353.4C316.6,354.5 317.5,355.6 318.5,356.6C317.5,355.4 316.6,354.4 315.6,353.4Z" style="fill:rgb(50,14,15);fill-rule:nonzero;"/>
        <path d="M455.6,323.6C456.1,324.8 456.6,326.1 457.1,327.3C456.5,326.1 456.1,324.8 455.6,323.6Z" style="fill:rgb(50,14,15);fill-rule:nonzero;"/>
        <path d="M394.7,139.4C392.8,139.5 391.4,138.5 390.4,136.9C391.8,137.7 393.3,138.6 394.7,139.4Z" style="fill:rgb(50,14,15);fill-rule:nonzero;"/>
        <path d="M233.5,156.9C233.9,157 234.1,157.2 234.4,157.2C234.2,157.4 234,158 233.9,158C233.2,158 232.6,157.8 231.8,157.7C232.4,157.4 233,157.1 233.5,156.9Z" style="fill:rgb(232,150,11);fill-rule:nonzero;"/>
        <path d="M505.5,343.3C505.7,341.7 506,340.1 506.2,338.7C505.9,340.3 505.7,341.7 505.5,343.3Z" style="fill:rgb(50,14,15);fill-rule:nonzero;"/>
        <path d="M505.2,291.5C504.9,290.1 504.7,288.8 504.4,287.3C504.7,288.7 504.9,290 505.2,291.5Z" style="fill:rgb(50,14,15);fill-rule:nonzero;"/>
        <path d="M430,297.2C429.2,296.4 428.4,295.5 427.6,294.6C428.4,295.6 429.2,296.4 430,297.2Z" style="fill:rgb(50,14,15);fill-rule:nonzero;"/>
        <path d="M329.3,38.7C328.9,37.2 328.6,35.7 328.2,34.2C328.6,35.6 328.9,37.1 329.3,38.7Z" style="fill:rgb(50,14,15);fill-rule:nonzero;"/>
        <path d="M443.5,256.8C441.7,256.9 439.9,257.1 438.1,257.2C439.9,257.1 441.7,256.9 443.5,256.8Z" style="fill:rgb(50,14,15);fill-rule:nonzero;"/>
        <path d="M179.2,97C180.4,97.8 181.5,98.4 182.7,99.2C181.5,98.6 180.3,97.8 179.2,97Z" style="fill:rgb(232,150,11);fill-rule:nonzero;"/>
        <path d="M315.2,344.4C314.6,345.5 313.8,346.7 313.2,347.8C313.9,346.7 314.6,345.6 315.2,344.4Z" style="fill:rgb(50,14,15);fill-rule:nonzero;"/>
        <path d="M119,44.5C120,45.2 120.8,45.9 121.8,46.6C120.8,45.9 119.9,45.2 119,44.5Z" style="fill:rgb(232,150,11);fill-rule:nonzero;"/>
        <path d="M436.4,308.5C436,307.4 435.5,306.3 435.1,305.2C435.5,306.3 436,307.4 436.4,308.5Z" style="fill:rgb(50,14,15);fill-rule:nonzero;"/>
        <path d="M506.3,296.6C506,295.2 505.8,293.9 505.5,292.4C505.8,293.7 506.1,295.2 506.3,296.6Z" style="fill:rgb(50,14,15);fill-rule:nonzero;"/>
        <path d="M327.2,30.4C326.9,29 326.7,27.7 326.4,26.2C326.8,27.6 326.9,29 327.2,30.4Z" style="fill:rgb(50,14,15);fill-rule:nonzero;"/>
        <path d="M314,325.9C313.6,326.9 313.2,328 312.8,329C312,327.6 312.3,326.4 314,325.9Z" style="fill:rgb(50,14,15);fill-rule:nonzero;"/>
        <path d="M447.3,302.3C447.7,303.4 448.2,304.5 448.6,305.6C448.2,304.5 447.8,303.4 447.3,302.3Z" style="fill:rgb(50,14,15);fill-rule:nonzero;"/>
        <path d="M491.3,288.1C490.9,287 490.4,285.9 490,284.8C490.4,285.8 490.9,286.9 491.3,288.1Z" style="fill:rgb(50,14,15);fill-rule:nonzero;"/>
        <path d="M225.8,158.8C226,160 226.2,161.1 226.4,162.3C226.2,161.1 225.9,159.9 225.8,158.8Z" style="fill:rgb(232,150,11);fill-rule:nonzero;"/>
        <path d="M174,81.8C173.5,83.4 172.4,82.4 171.5,82.4C172.3,82.3 173.2,82.1 174,81.8Z" style="fill:rgb(232,150,11);fill-rule:nonzero;"/>
        <path d="M452.1,314.7C452.5,315.8 453,316.9 453.4,318C452.9,317 452.4,315.9 452.1,314.7Z" style="fill:rgb(50,14,15);fill-rule:nonzero;"/>
        <path d="M184.3,100.2C185.3,100.8 186.3,101.5 187.3,102.1C186.4,101.5 185.3,100.9 184.3,100.2Z" style="fill:rgb(232,150,11);fill-rule:nonzero;"/>
        <path d="M125.3,49.6C126.3,50.2 127.3,50.9 128.1,51.5C127.3,50.9 126.3,50.3 125.3,49.6Z" style="fill:rgb(232,150,11);fill-rule:nonzero;"/>
        <path d="M507.6,327.6C507.8,326.3 508,324.9 508.1,323.6C508,325 507.8,326.3 507.6,327.6Z" style="fill:rgb(50,14,15);fill-rule:nonzero;"/>
        <path d="M492.2,367.6C493.5,368.1 494.6,368.6 495.9,369.2C494.8,368.6 493.5,368.1 492.2,367.6Z" style="fill:rgb(50,14,15);fill-rule:nonzero;"/>
        <path d="M411.9,334.8C413.2,335.2 414.5,335.5 415.8,335.9C414.5,335.5 413.2,335.2 411.9,334.8Z" style="fill:rgb(50,14,15);fill-rule:nonzero;"/>
        <path d="M453.7,318.9C454.1,319.9 454.4,320.8 454.8,321.8C454.4,321 454,319.9 453.7,318.9Z" style="fill:rgb(50,14,15);fill-rule:nonzero;"/>
        <path d="M351.7,318.2C352.4,319 353.1,319.6 354,320.5C353.1,319.8 352.4,319 351.7,318.2Z" style="fill:rgb(50,14,15);fill-rule:nonzero;"/>
        <path d="M384.9,128C384.5,126.9 384,125.7 383.7,124.6C384,125.8 384.4,126.9 384.9,128Z" style="fill:rgb(50,14,15);fill-rule:nonzero;"/>
        <path d="M382.9,123.4C382.5,122.3 382,121.2 381.6,120.1C382,121.2 382.5,122.3 382.9,123.4Z" style="fill:rgb(50,14,15);fill-rule:nonzero;"/>
        <path d="M402.2,144.2C401.1,143.3 400.1,142.5 399,141.7C400,142.5 401.1,143.3 402.2,144.2Z" style="fill:rgb(50,14,15);fill-rule:nonzero;"/>
        <path d="M427.2,277.2C426.4,276.3 425.1,275.6 425.9,274C426.3,275.2 426.7,276.1 427.2,277.2Z" style="fill:rgb(50,14,15);fill-rule:nonzero;"/>
        <path d="M374.7,109.1C374,108.3 373.3,107.7 372.4,106.8C373.3,107.6 374,108.4 374.7,109.1Z" style="fill:rgb(50,14,15);fill-rule:nonzero;"/>
        <path d="M251.2,202.2C251.4,202.9 251.6,203.6 252,204.4C251.6,203.6 251.4,202.9 251.2,202.2Z" style="fill:rgb(232,150,11);fill-rule:nonzero;"/>
        <path d="M204.2,130.6C204.7,131.1 205.4,131.6 205.8,132.2C205.3,131.7 204.7,131.2 204.2,130.6Z" style="fill:rgb(232,150,11);fill-rule:nonzero;"/>
        <path d="M355.9,81C355.5,79.9 355.2,78.7 354.8,77.6C355.2,78.7 355.5,79.9 355.9,81Z" style="fill:rgb(50,14,15);fill-rule:nonzero;"/>
        <path d="M450.5,310.4C450.9,311.5 451.3,312.6 451.6,313.7C451.2,312.7 450.9,311.6 450.5,310.4Z" style="fill:rgb(50,14,15);fill-rule:nonzero;"/>
        <path d="M417.3,336.6C418.3,337.2 419.3,337.8 420.3,338.4C419.3,337.8 418.3,337.2 417.3,336.6Z" style="fill:rgb(50,14,15);fill-rule:nonzero;"/>
        <path d="M476.3,356C476.9,356.6 477.7,357.2 478.3,357.8C477.6,357.2 477,356.6 476.3,356Z" style="fill:rgb(50,14,15);fill-rule:nonzero;"/>
        <path d="M449.1,306.6C449.4,307.5 449.7,308.5 450.1,309.5C449.7,308.5 449.4,307.5 449.1,306.6Z" style="fill:rgb(50,14,15);fill-rule:nonzero;"/>
        <path d="M357.7,85.3C357.3,84.3 357,83.3 356.6,82.3C357,83.3 357.4,84.4 357.7,85.3Z" style="fill:rgb(50,14,15);fill-rule:nonzero;"/>
        <path d="M371.2,105.4C370.5,104.6 369.7,103.9 368.9,103.1C369.8,103.9 370.5,104.6 371.2,105.4Z" style="fill:rgb(50,14,15);fill-rule:nonzero;"/>
        <path d="M434.6,336C434.3,335.1 434,334.1 433.7,333.2C434,334.1 434.3,335 434.6,336Z" style="fill:rgb(50,14,15);fill-rule:nonzero;"/>
        <path d="M345,43.4C343.8,43.1 343.8,43.1 344.4,41.1C344.7,42 344.8,42.8 345,43.4Z" style="fill:rgb(50,14,15);fill-rule:nonzero;"/>
        <path d="M449.4,255C448.6,255.3 447.8,255.5 447,255.8C447.8,255.6 448.6,255.3 449.4,255Z" style="fill:rgb(50,14,15);fill-rule:nonzero;"/>
        <path d="M500.3,286.6C499.7,287.2 499.1,288 498.5,288.6C499.1,288 499.7,287.4 500.3,286.6Z" style="fill:rgb(50,14,15);fill-rule:nonzero;"/>
        <path d="M435.6,257.2C434.5,257 433.4,256.8 432.3,256.6C433.5,256.7 434.6,256.9 435.6,257.2Z" style="fill:rgb(50,14,15);fill-rule:nonzero;"/>
        <path d="M321.7,3.2C321,2.8 320.5,2.5 319.8,2.1C319.9,1.6 320.1,1.2 320.2,0.7C320.5,0.6 320.6,0.7 320.9,0.6C321.2,1.5 321.4,2.3 321.7,3.2Z" style="fill:rgb(50,14,15);fill-rule:nonzero;"/>
        <path d="M344.1,40.4C342.2,40.1 343.3,38.7 343.3,37.8C343.6,38.6 343.8,39.5 344.1,40.4Z" style="fill:rgb(50,14,15);fill-rule:nonzero;"/>
        <path d="M207.4,114.8C208,115.3 208.8,115.9 209.5,116.3C208.7,115.8 208.1,115.3 207.4,114.8Z" style="fill:rgb(232,150,11);fill-rule:nonzero;"/>
        <path d="M427,293.9C426.3,293.2 425.4,292.5 424.7,291.9C425.4,292.5 426.3,293.2 427,293.9Z" style="fill:rgb(50,14,15);fill-rule:nonzero;"/>
        <path d="M330.7,42.5C330.4,41.7 330.2,40.8 329.9,39.9C330.1,40.7 330.4,41.7 330.7,42.5Z" style="fill:rgb(50,14,15);fill-rule:nonzero;"/>
        <path d="M312.8,4.1C312.7,3.6 312.4,2.9 312.3,2.4C312.5,2.9 312.6,3.4 312.8,4.1Z" style="fill:rgb(232,150,11);fill-rule:nonzero;"/>
        <path d="M122.4,30.1C122.7,30.3 123.1,30.5 123.4,30.7C123,30.7 122.6,30.9 122.2,30.9C122.4,30.7 122.5,30.4 122.4,30.1Z" style="fill:rgb(232,150,11);fill-rule:nonzero;"/>
        <path d="M428,323.9C427.4,323.3 426.6,322.7 426,322.1C426.7,322.8 427.4,323.4 428,323.9Z" style="fill:rgb(50,14,15);fill-rule:nonzero;"/>
        <path d="M220.9,147C221.3,147.3 221.6,147.7 222.1,147.9C221.7,147.6 221.4,147.4 220.9,147Z" style="fill:rgb(232,150,11);fill-rule:nonzero;"/>
        <path d="M145.4,63.9C145.9,64.3 146.6,64.7 147.1,65C146.6,64.6 146.1,64.3 145.4,63.9Z" style="fill:rgb(232,150,11);fill-rule:nonzero;"/>
        <path d="M162.4,73.8C163.1,74.2 163.6,74.6 164.3,74.9C163.6,74.6 162.9,74.2 162.4,73.8Z" style="fill:rgb(232,150,11);fill-rule:nonzero;"/>
        <path d="M141.3,61.2C141.8,61.6 142.5,62 143,62.3C142.4,62 141.9,61.7 141.3,61.4C141.2,61.4 141.2,61.4 141.1,61.2C141.1,61.3 141.1,61.3 141.3,61.2Z" style="fill:rgb(232,150,11);fill-rule:nonzero;"/>
        <path d="M428.4,244.1L428.6,243.9C428.6,245 428.5,246 428.5,247.1C428.4,246.2 428.4,245.1 428.4,244.1Z" style="fill:rgb(50,14,15);fill-rule:nonzero;"/>
        <path d="M508.5,319.7C508.6,318.8 508.5,317.8 508.6,317C508.5,317.8 508.5,318.7 508.5,319.7Z" style="fill:rgb(50,14,15);fill-rule:nonzero;"/>
        <path d="M212.6,118.8C212.9,119.2 213,119.7 213.3,120C213,119.7 212.9,119.3 212.6,118.8Z" style="fill:rgb(232,150,11);fill-rule:nonzero;"/>
        <path d="M316.1,11.5C315.8,11.1 315.5,10.7 315.4,10.3C315.6,10.8 315.8,11.2 316.1,11.5Z" style="fill:rgb(232,150,11);fill-rule:nonzero;"/>
        <path d="M429.6,282.9C429.4,282.1 429.2,281.3 429,280.4C429.2,281.2 429.4,282.1 429.6,282.9Z" style="fill:rgb(50,14,15);fill-rule:nonzero;"/>
        <path d="M351.7,333.9C351.5,333.1 351.2,332.3 351,331.4C351.3,332.3 351.5,333.1 351.7,333.9Z" style="fill:rgb(50,14,15);fill-rule:nonzero;"/>
        <path d="M405.8,151.3C405.6,150.6 405.4,149.8 405.2,149.1C405.4,149.8 405.6,150.6 405.8,151.3Z" style="fill:rgb(50,14,15);fill-rule:nonzero;"/>
        <path d="M314.2,7.9C314.1,7.4 313.9,7 313.8,6.4C313.9,7 314.1,7.5 314.2,7.9Z" style="fill:rgb(232,150,11);fill-rule:nonzero;"/>
        <path d="M345.9,46.7C345.7,45.9 345.5,45.2 345.4,44.5C345.6,45.1 345.7,45.9 345.9,46.7Z" style="fill:rgb(50,14,15);fill-rule:nonzero;"/>
        <path d="M207.6,134.4C208,134.7 208.4,134.9 208.8,135.3C208.3,134.9 207.9,134.6 207.6,134.4Z" style="fill:rgb(232,150,11);fill-rule:nonzero;"/>
        <path d="M210.5,137.2C210.9,137.5 211.2,137.9 211.7,138.2C211.2,137.8 210.9,137.5 210.5,137.2Z" style="fill:rgb(232,150,11);fill-rule:nonzero;"/>
        <path d="M213.2,139.8C213.6,140.1 214,140.3 214.4,140.7C213.9,140.4 213.5,140.1 213.2,139.8Z" style="fill:rgb(232,150,11);fill-rule:nonzero;"/>
        <path d="M215.8,142.4C216.2,142.7 216.5,143.1 217,143.4C216.6,142.9 216.2,142.6 215.8,142.4Z" style="fill:rgb(232,150,11);fill-rule:nonzero;"/>
        <path d="M218.5,144.9C218.9,145.2 219.3,145.4 219.7,145.8C219.3,145.4 218.8,145.2 218.5,144.9Z" style="fill:rgb(232,150,11);fill-rule:nonzero;"/>
        <path d="M163,85.7C163.4,86 163.8,86.2 164.2,86.6C163.7,86.3 163.4,86 163,85.7Z" style="fill:rgb(232,150,11);fill-rule:nonzero;"/>
        <path d="M253.1,208.8L253.1,210.6L253.1,208.8Z" style="fill:rgb(232,150,11);fill-rule:nonzero;"/>
        <path d="M499.7,370.9C500.6,371.2 501.4,371.5 502.4,371.9C501.4,371.5 500.5,371.2 499.7,370.9Z" style="fill:rgb(50,14,15);fill-rule:nonzero;"/>
        <path d="M326.6,317.2C326.2,317.7 325.9,318.2 325.5,318.7C325.9,318.2 326.2,317.6 326.6,317.2Z" style="fill:rgb(50,14,15);fill-rule:nonzero;"/>
        <path d="M166.6,81.9C166.1,81.8 165.6,81.8 165.1,81.7C165.6,81.8 166.1,81.8 166.6,81.9Z" style="fill:rgb(232,150,11);fill-rule:nonzero;"/>
        <path d="M379.1,115.7C378.7,115.1 378.4,114.5 378,113.9C378.4,114.5 378.7,115.1 379.1,115.7Z" style="fill:rgb(50,14,15);fill-rule:nonzero;"/>
        <path d="M446.1,256.1C445.4,256.2 444.7,256.4 444,256.5C444.8,256.5 445.5,256.3 446.1,256.1Z" style="fill:rgb(50,14,15);fill-rule:nonzero;"/>
        <path d="M505,372.8C504.3,372.6 503.5,372.3 502.8,372.2C503.5,372.4 504.2,372.5 505,372.8" style="fill:rgb(50,14,15);fill-rule:nonzero;"/>
        <path d="M504.9,347.5C504.9,346.8 505.1,345.9 505.2,345.2C505,345.9 505,346.6 504.9,347.5Z" style="fill:rgb(50,14,15);fill-rule:nonzero;"/>
        <path d="M351.2,66.7C351,65.9 350.8,65.2 350.6,64.4C350.8,65.2 351,65.9 351.2,66.7Z" style="fill:rgb(50,14,15);fill-rule:nonzero;"/>
        <path d="M353.1,72.8C352.9,72 352.7,71.3 352.5,70.5C352.7,71.4 352.9,72.2 353.1,72.8Z" style="fill:rgb(50,14,15);fill-rule:nonzero;"/>
        <path d="M354.3,76.4C354.1,75.7 353.9,74.9 353.7,74.2C353.8,74.9 354.1,75.7 354.3,76.4Z" style="fill:rgb(50,14,15);fill-rule:nonzero;"/>
        <path d="M313.2,347.9C313.3,348.6 313.3,349.2 313.4,349.8C313.4,349.3 313.3,348.6 313.2,347.9Z" style="fill:rgb(50,14,15);fill-rule:nonzero;"/>
        <path d="M484.6,278.6C484.2,279.1 483.9,279.6 483.5,280.1C483.9,279.7 484.2,279.1 484.6,278.6Z" style="fill:rgb(50,14,15);fill-rule:nonzero;"/>
        <path d="M432.7,353.3C433.1,352.8 433.6,352.1 434,351.6C433.6,352.2 433.1,352.8 432.7,353.3Z" style="fill:rgb(50,14,15);fill-rule:nonzero;"/>
        <path d="M167.3,89.2C167.6,89.4 168,89.6 168.3,89.8C168,89.6 167.6,89.4 167.3,89.2Z" style="fill:rgb(232,150,11);fill-rule:nonzero;"/>
        <path d="M225.9,151.3C226.2,151.5 226.6,151.7 226.9,152C226.4,151.8 226.2,151.5 225.9,151.3Z" style="fill:rgb(232,150,11);fill-rule:nonzero;"/>
        <path d="M352.2,69.8C352.1,69.1 352,68.6 351.9,68C351.9,68.6 352,69.1 352.2,69.8Z" style="fill:rgb(50,14,15);fill-rule:nonzero;"/>
        <path d="M223.3,149.2C223.6,149.4 224,149.6 224.3,149.8C224,149.6 223.7,149.4 223.3,149.2Z" style="fill:rgb(232,150,11);fill-rule:nonzero;"/>
        <path d="M123.1,47.8C123.4,48 123.8,48.2 124.1,48.4C123.7,48.2 123.4,48 123.1,47.8Z" style="fill:rgb(232,150,11);fill-rule:nonzero;"/>
        <path d="M253.1,218.8C253.1,219.2 253.3,219.6 253.3,220C253.3,219.6 253.3,219.2 253.1,218.8Z" style="fill:rgb(232,150,11);fill-rule:nonzero;"/>
        <path d="M350.3,63.4C350.2,62.7 349.9,62.2 349.8,61.5C350.1,62.3 350.2,62.9 350.3,63.4Z" style="fill:rgb(50,14,15);fill-rule:nonzero;"/>
        <path d="M327.9,33.2C327.8,32.5 327.7,32 327.6,31.4C327.7,31.9 327.8,32.6 327.9,33.2Z" style="fill:rgb(50,14,15);fill-rule:nonzero;"/>
        <path d="M349.6,60.8C349.5,60.1 349.4,59.6 349.1,58.9C349.3,59.5 349.5,60.1 349.6,60.8Z" style="fill:rgb(50,14,15);fill-rule:nonzero;"/>
        <path d="M346.7,49.3C346.6,48.6 346.5,48.1 346.4,47.5C346.5,48.2 346.6,48.8 346.7,49.3Z" style="fill:rgb(50,14,15);fill-rule:nonzero;"/>
        <path d="M338.3,44.3C337.9,44.8 337.6,45.4 337.2,45.9C337.7,45.4 338,44.9 338.3,44.3Z" style="fill:rgb(50,14,15);fill-rule:nonzero;"/>
        <path d="M322.3,5.9C322.2,5.2 322.1,4.7 322,4.1C322.1,4.7 322.2,5.3 322.3,5.9Z" style="fill:rgb(50,14,15);fill-rule:nonzero;"/>
        <path d="M170.1,78.6C170.4,78.8 170.8,79 171.1,79.2C170.7,79 170.4,78.8 170.1,78.6Z" style="fill:rgb(232,150,11);fill-rule:nonzero;"/>
        <path d="M409.9,334.3C410.6,334.5 411.2,334.6 411.9,334.8C411.2,334.6 410.6,334.5 409.9,334.3Z" style="fill:rgb(50,14,15);fill-rule:nonzero;"/>
        <path d="M270.1,295.8C270.3,296.5 270.5,297.2 270.7,297.8C268.8,297.6 270.3,296.3 270.1,295.8Z" style="fill:rgb(246,246,246);fill-rule:nonzero;"/>
        <path d="M508.3,321.9C508.3,321.3 508.4,320.8 508.4,320.2C508.4,320.8 508.4,321.4 508.3,321.9Z" style="fill:rgb(50,14,15);fill-rule:nonzero;"/>
        <path d="M504.7,349.7C504.7,349.1 504.8,348.6 504.8,348C504.8,348.6 504.7,349 504.7,349.7Z" style="fill:rgb(50,14,15);fill-rule:nonzero;"/>
        <path d="M407.8,334.1C408.4,334.1 409,334.2 409.5,334.2C409,334.2 408.4,334.2 407.8,334.1Z" style="fill:rgb(50,14,15);fill-rule:nonzero;"/>
        <path d="M429.1,284.7C429.3,284.2 429.5,283.7 429.7,283.2C429.4,283.7 429.3,284.2 429.1,284.7Z" style="fill:rgb(50,14,15);fill-rule:nonzero;"/>
        <path d="M326.1,25.3C326.1,24.8 325.9,24.4 325.9,23.9C326,24.3 326.1,24.8 326.1,25.3Z" style="fill:rgb(50,14,15);fill-rule:nonzero;"/>
        <path d="M139.2,59.8C139.4,60 139.7,60 139.9,60.2C139.7,60.1 139.4,60.1 139.2,60C139.3,60 139.3,59.9 139.2,59.8Z" style="fill:rgb(232,150,11);fill-rule:nonzero;"/>
        <path d="M369.6,331.8C370.2,332.1 370.6,332.2 371.2,332.4C370.6,332.3 370.2,332 369.6,331.8Z" style="fill:rgb(50,14,15);fill-rule:nonzero;"/>
        <path d="M137.2,58.4C137.4,58.6 137.7,58.6 138,58.8C137.7,58.6 137.4,58.6 137.2,58.4Z" style="fill:rgb(232,150,11);fill-rule:nonzero;"/>
        <path d="M252.8,206.3C252.9,206.6 252.8,206.9 252.9,207.2C252.8,207 252.7,206.6 252.8,206.3Z" style="fill:rgb(232,150,11);fill-rule:nonzero;"/>
        <path d="M228,153.1C228.2,153.3 228.5,153.3 228.7,153.5C228.4,153.4 228.2,153.3 228,153.1Z" style="fill:rgb(232,150,11);fill-rule:nonzero;"/>
        <path d="M380.2,334.2C380.8,334.2 381.3,334.3 381.9,334.3C381.3,334.2 380.8,334.2 380.2,334.2Z" style="fill:rgb(50,14,15);fill-rule:nonzero;"/>
        <path d="M169.4,82.3C169.2,82.2 168.8,82.2 168.6,82.1C168.9,82.2 169.1,82.2 169.4,82.3Z" style="fill:rgb(232,150,11);fill-rule:nonzero;"/>
        <path d="M319.6,3C319.3,3.6 319.2,4.3 318.9,4.9C319.1,4.3 319.3,3.6 319.6,3Z" style="fill:rgb(50,14,15);fill-rule:nonzero;"/>
        <path d="M129.4,52.6C129.6,52.8 129.9,52.8 130.2,53C129.9,53 129.7,52.8 129.4,52.6Z" style="fill:rgb(232,150,11);fill-rule:nonzero;"/>
        <path d="M172.4,80.2C172.6,80.3 172.9,80.4 173.1,80.5C172.8,80.4 172.6,80.2 172.4,80.2Z" style="fill:rgb(232,150,11);fill-rule:nonzero;"/>
        <path d="M229.9,154.6C230.1,154.7 230.4,154.8 230.6,154.9C230.4,154.8 230.1,154.6 229.9,154.6Z" style="fill:rgb(232,150,11);fill-rule:nonzero;"/>
        <path d="M228.1,157.4C227.9,157.3 227.6,157.4 227.2,157.3C227.7,157.3 227.9,157.4 228.1,157.4Z" style="fill:rgb(232,150,11);fill-rule:nonzero;"/>
        <path d="M427.3,355.8C427.8,355.9 428.1,356 428.6,356.1C428.1,355.9 427.8,355.9 427.3,355.8Z" style="fill:rgb(50,14,15);fill-rule:nonzero;"/>
        <path d="M483.4,362.1C483.9,362.5 484.4,362.7 484.9,363.1C484.4,362.7 483.9,362.4 483.4,362.1Z" style="fill:rgb(50,14,15);fill-rule:nonzero;"/>
        <path d="M429.9,355.3C430.2,355.1 430.6,355 430.9,354.8C430.6,355 430.2,355.2 429.9,355.3Z" style="fill:rgb(50,14,15);fill-rule:nonzero;"/>
        <path d="M347.5,52.5C347.4,52 347.3,51.3 347.1,50.8C347.3,51.3 347.4,51.9 347.5,52.5Z" style="fill:rgb(50,14,15);fill-rule:nonzero;"/>
        <path d="M334.6,47.4C334.1,47.2 333.7,47.1 333.3,46.9C333.8,47.1 334.1,47.2 334.6,47.4Z" style="fill:rgb(50,14,15);fill-rule:nonzero;"/>
        <path d="M406.7,154.4C406.6,153.7 406.6,153.2 406.5,152.6C406.5,153.2 406.6,153.8 406.7,154.4Z" style="fill:rgb(50,14,15);fill-rule:nonzero;"/>
        <path d="M348.9,58.4C348.8,57.9 348.7,57.2 348.7,56.7C348.8,57.2 348.8,57.7 348.9,58.4Z" style="fill:rgb(50,14,15);fill-rule:nonzero;"/>
        <path d="M246.1,193.7C246.2,193.8 246.3,194 246.4,194.1C246.3,194 246.2,193.8 246.1,193.7Z" style="fill:rgb(232,150,11);fill-rule:nonzero;"/>
        <path d="M341.9,35.4C341.5,35.7 341.1,36 340.7,36.3C341.1,35.9 341.5,35.6 341.9,35.4Z" style="fill:rgb(50,14,15);fill-rule:nonzero;"/>
        <path d="M507.2,331.8C507.3,331.3 507.4,331 507.4,330.5C507.2,330.9 507.1,331.4 507.2,331.8Z" style="fill:rgb(50,14,15);fill-rule:nonzero;"/>
        <path d="M368.1,331.2C368.4,331.4 368.8,331.5 369.1,331.7C368.8,331.5 368.5,331.3 368.1,331.2Z" style="fill:rgb(50,14,15);fill-rule:nonzero;"/>
        <path d="M149.9,66.8C150,66.8 150.1,66.9 150.3,66.9L150.3,67C150.2,67 150.1,66.9 149.9,66.9L149.9,66.8Z" style="fill:rgb(232,150,11);fill-rule:nonzero;"/>
        <path d="M159.9,72.6C160,72.6 160.1,72.7 160.2,72.8C160.1,72.7 160,72.7 159.9,72.6Z" style="fill:rgb(232,150,11);fill-rule:nonzero;"/>
        <path d="M435.1,348.7C435.2,348.5 435.2,348.1 435.3,347.9C435.2,348.3 435.2,348.5 435.1,348.7Z" style="fill:rgb(50,14,15);fill-rule:nonzero;"/>
        <path d="M166.6,76.4C166.7,76.4 166.8,76.5 167,76.5L167,76.6C166.9,76.6 166.8,76.5 166.6,76.5L166.6,76.4Z" style="fill:rgb(232,150,11);fill-rule:nonzero;"/>
        <path d="M168.3,77.4C168.4,77.4 168.5,77.5 168.7,77.5L168.7,77.6C168.6,77.6 168.5,77.5 168.3,77.5L168.3,77.4Z" style="fill:rgb(232,150,11);fill-rule:nonzero;"/>
        <path d="M162.7,81.7C162.6,81.7 162.4,81.8 162.3,81.7C162.6,81.6 162.7,81.7 162.7,81.7Z" style="fill:rgb(232,150,11);fill-rule:nonzero;"/>
        <path d="M165.4,87.8C165.5,87.8 165.6,87.9 165.8,87.9L165.8,88C165.5,87.9 165.4,87.8 165.4,87.8Z" style="fill:rgb(232,150,11);fill-rule:nonzero;"/>
        <path d="M170,91.1C170.1,91.1 170.2,91.2 170.4,91.2L170.4,91.3C170.3,91.3 170.2,91.2 170,91.2L170,91.1Z" style="fill:rgb(232,150,11);fill-rule:nonzero;"/>
        <path d="M508.6,316.7C508.7,316.5 508.7,316.1 508.7,315.8C508.7,316.1 508.6,316.3 508.6,316.7Z" style="fill:rgb(50,14,15);fill-rule:nonzero;"/>
        <path d="M172,92.5C172.1,92.5 172.2,92.6 172.4,92.6L172.4,92.7C172.3,92.7 172.2,92.6 172,92.6L172,92.5Z" style="fill:rgb(232,150,11);fill-rule:nonzero;"/>
        <path d="M417.5,315.6C417.6,315.1 417.7,314.6 417.7,314.3C417.6,314.7 417.5,315.1 417.5,315.6Z" style="fill:rgb(50,14,15);fill-rule:nonzero;"/>
        <path d="M317.9,7.6C317.9,7.7 317.8,7.8 317.8,8C317.9,7.9 317.9,7.8 317.9,7.6Z" style="fill:rgb(232,150,11);fill-rule:nonzero;"/>
        <path d="M476.4,267.8C476.2,267.5 476,267.2 475.8,266.9C476,267.2 476.2,267.5 476.4,267.8Z" style="fill:rgb(50,14,15);fill-rule:nonzero;"/>
        <path d="M372.4,332.7C372.6,332.8 373,332.8 373.2,332.9C373,332.9 372.6,332.7 372.4,332.7Z" style="fill:rgb(50,14,15);fill-rule:nonzero;"/>
        <path d="M200.7,123.9C200.6,124 200.6,124 200.4,124.1C200.5,124.1 200.5,124 200.7,123.9Z" style="fill:rgb(232,150,11);fill-rule:nonzero;"/>
        <path d="M211.1,117.6C211.2,117.6 211.3,117.7 211.4,117.8C211.3,117.7 211.2,117.6 211.1,117.6Z" style="fill:rgb(232,150,11);fill-rule:nonzero;"/>
        <path d="M430,255.3C429.8,255 429.7,254.9 429.5,254.6C429.7,254.9 429.9,255.1 430,255.3Z" style="fill:rgb(50,14,15);fill-rule:nonzero;"/>
        <path d="M339.5,41.9C339.3,42.4 339.1,42.7 339,43.2C339,42.7 339.3,42.3 339.5,41.9Z" style="fill:rgb(50,14,15);fill-rule:nonzero;"/>
        <path d="M348.1,54.8C348,54.5 348,54.1 348,53.9C348,54.2 348,54.5 348.1,54.8Z" style="fill:rgb(50,14,15);fill-rule:nonzero;"/>
        <path d="M229.9,157.4C229.8,157.4 229.7,157.3 229.5,157.3C229.6,157.4 229.8,157.4 229.9,157.4Z" style="fill:rgb(232,150,11);fill-rule:nonzero;"/>
        <path d="M507.4,329.7C507.5,329.3 507.5,329.1 507.5,328.7C507.4,329.1 507.5,329.4 507.4,329.7Z" style="fill:rgb(50,14,15);fill-rule:nonzero;"/>
        <path d="M276.8,317.8C276.7,317.8 276.5,317.9 276.4,317.8C276.3,317.8 276.3,317.5 276.4,317.4C276.5,317.4 276.7,317.3 276.8,317.4C276.7,317.5 276.7,317.7 276.8,317.8Z" style="fill:rgb(246,246,246);fill-rule:nonzero;"/>
        <path d="M274.8,318.8C274.8,318.7 274.7,318.5 274.8,318.4C274.8,318.3 275.1,318.3 275.2,318.4C275.2,318.5 275.3,318.7 275.2,318.8C275.1,318.9 274.9,318.8 274.8,318.8Z" style="fill:rgb(246,246,246);fill-rule:nonzero;"/>
        <path d="M498,370.3C498.2,370.4 498.6,370.6 498.8,370.6C498.6,370.5 498.4,370.3 498,370.3Z" style="fill:rgb(50,14,15);fill-rule:nonzero;"/>
        <path d="M264.7,303C264.7,302.9 264.6,302.7 264.7,302.6C264.7,302.5 265,302.5 265.1,302.6C265.1,302.7 265.2,302.9 265.1,303C265.1,302.9 264.8,302.9 264.7,303Z" style="fill:rgb(246,246,246);fill-rule:nonzero;"/>
        <path d="M396.2,140.1C395.9,139.9 395.4,139.8 395.1,139.6C395.4,139.7 395.7,139.9 396.2,140.1Z" style="fill:rgb(50,14,15);fill-rule:nonzero;"/>
        <path d="M265.5,274.3C265.3,274.2 264.9,274.2 264.6,274.2C264.6,274.1 264.6,274.1 264.7,274C264.9,274 265.2,274.1 265.5,274.3Z" style="fill:rgb(246,246,246);fill-rule:nonzero;"/>
        <path d="M398.3,141.3C398,141.1 397.6,140.9 397.3,140.7C397.6,140.9 398,141.1 398.3,141.3Z" style="fill:rgb(50,14,15);fill-rule:nonzero;"/>
        <path d="M407.1,156.8C407.1,156.4 407,155.9 407,155.5C407.1,155.9 407.1,156.3 407.1,156.8Z" style="fill:rgb(50,14,15);fill-rule:nonzero;"/>
        <path d="M264.3,275.3C264.2,275.3 264.2,275.3 264.1,275.1C264.1,275.1 264.1,275 264.2,274.9C264.1,275 264.2,275.1 264.3,275.3Z" style="fill:rgb(246,246,246);fill-rule:nonzero;"/>
        <path d="M268.5,257C268.3,257.3 268.1,257.5 267.9,257.9C268.1,257.6 268.3,257.4 268.5,257Z" style="fill:rgb(246,246,246);fill-rule:nonzero;"/>
        <path d="M269.6,305.1C269.5,305.3 269.4,305.4 269.3,305.7C269.5,305.4 269.6,305.2 269.6,305.1Z" style="fill:rgb(246,246,246);fill-rule:nonzero;"/>
        <path d="M292.6,319.6C292.6,319.7 292.6,319.7 292.5,319.8" style="fill:rgb(246,246,246);fill-rule:nonzero;"/>
        <path d="M503.6,284.1C503.4,284 503.1,284 502.9,283.9C503.1,284 503.3,284 503.6,284.1Z" style="fill:rgb(4,3,3);fill-rule:nonzero;"/>
        <path d="M267.8,257.9C267.8,258 267.7,258.3 267.7,258.4C267.8,258.3 267.9,258.1 267.8,257.9Z" style="fill:rgb(246,246,246);fill-rule:nonzero;"/>
        <path d="M367.6,189.3C367.6,190 367.5,190.8 367.4,191.5C367.2,192.3 366.9,193.1 366.7,193.9C366.4,194.5 366.2,194.9 366.1,195.5C365.3,197.4 364.5,199.4 363.7,201.3C363.5,201.8 363.3,202.1 363.2,202.6C363,202.9 362.8,203.3 362.7,203.5C360.3,209.1 360.3,209 354.3,207.8C348.2,206.6 342,205.5 335.8,204.7C333.1,204.3 332.3,205.6 331.5,208.1C330.4,211.5 328.9,214.7 327.6,217.9C326.6,220.1 325.3,222 324.3,224.2C323.5,226.1 324.4,227.5 325.9,228.6C328.9,230.7 333.8,230.4 336.1,227.6C337.5,226 338.3,224 339,222C339.9,219.7 341.1,218.8 343.5,219.2C344.7,219.3 346,219.6 347.3,219.8C351.3,220.3 355,219.6 357.5,215.8C357.7,215.5 358.3,215.2 358.8,215C359.3,220.2 357.7,222.2 352.8,222.3C351.6,222.4 350.4,222.3 349.3,222.4C345.6,222.6 342.7,224 340.6,227.1C339.7,228.3 338.8,229.5 337.8,230.6C337.3,231 336.8,231.2 336.3,231.6C335.1,231.8 334.1,232.1 332.9,232.3C332.4,232.3 332,232.4 331.5,232.2C330.6,232.1 329.9,232.2 329,232.1C329,232.1 329,232 328.9,232C328.8,232 328.7,231.9 328.6,231.8C328.4,231.7 328.2,231.7 328,231.8C327.4,231.7 326.8,231.7 326.3,231.5C326.2,231.5 326.1,231.3 326,231.3C325.8,231.2 325.6,231.2 325.4,231C325.3,231 325.3,231 325.2,230.9C325.1,230.9 325,230.8 324.7,230.8L324.6,230.8C324,230.7 323.3,230.5 322.7,230.4C322.6,230.4 322.3,230.3 322.2,230.3C321.3,230.2 320.5,230 319.5,229.9L319.3,229.8C318.7,229.8 317.9,229.7 317.3,229.7C317.1,229.6 316.7,229.6 316.5,229.5C316,229.4 315.5,229.4 315.2,229.3C314,229.3 312.6,229.2 311.3,229.2C309.1,229.5 307,229.7 304.8,230C304.4,229.9 304.1,229.7 303.8,229.6C303.1,228.8 302.5,228.2 301.8,227.4C299.6,218.1 297.5,208.7 295.3,199.5C295.1,198.7 295.1,197.8 294.8,197.1C292.6,191.1 296,186.1 297.9,180.9C299.9,175.3 303.6,171 308.5,167.7C312.5,165 316.3,161.8 321.3,161.3C330.5,160.4 339.2,162.6 346.7,167.9C351.4,171.2 355.2,175.7 359.5,179.6C361.2,181.1 363,182.5 364.7,184.2C365.7,185.2 366.7,186.4 367.6,187.5C367.5,188.5 367.6,188.8 367.6,189.3ZM308.8,197.6C309.7,197 310.4,196.5 311.3,196C312,195.7 312.7,195.4 313.4,195.1C313.8,195.1 314.2,194.9 314.6,194.9C317.9,195.3 321.2,195.6 324.5,196.1C324.6,196.1 324.8,196 324.9,196.1C325.3,196.1 325.8,196.2 326.1,196.1C326.2,196.1 326.4,196 326.5,196.1C327.6,195.2 328.9,194.5 329.5,193.4C331,191.2 332,188.8 333.3,186.5C333.5,186.2 333.7,185.8 333.9,185.5C334.4,185 335,184.5 335.5,184C337.4,182.8 339.2,181.6 341.1,180.5C342.1,180.1 343,179.7 344,179.3C344.4,179.1 344.9,179 345.4,178.9C346.2,178.6 347,178.3 347.9,177.8C348.6,177.7 349.2,177.6 350.4,177.4C349.6,176.7 349.2,176.4 348.9,176.1C348.4,175.7 347.9,175.5 347.4,175.1C347.3,175.1 347.2,175 347,175C346.3,174.6 345.6,174.3 344.9,173.9C344.6,173.7 344.2,173.5 343.9,173.3C337.6,169.9 331.1,167.8 323.8,168.8C319.5,169.5 315,170 311.6,173.2C306.2,178.4 302.2,184.4 300,191.5C300,191.6 299.9,191.7 299.9,191.9C299.7,192.9 299.5,193.8 299.3,194.8L299.3,196.6C299.3,197.2 299.4,197.8 299.4,198.4L299.3,198.5C299.4,198.6 299.4,198.6 299.5,198.8C299.6,199.5 299.7,200.2 299.8,200.9C299.9,201.2 299.8,201.4 299.9,201.7C301.1,204.2 301.2,204.3 303.4,202.7C304,202.3 304.5,201.9 304.9,201.4C305.4,201 305.7,200.5 306.2,200.1C307.1,199 307.9,198.3 308.8,197.6Z" style="fill:rgb(246,246,246);fill-rule:nonzero;"/>
        <path d="M391.8,170.7C388.6,173.1 385.1,175.2 382.3,178C378.8,181.2 375.5,184.8 372.8,188.7C367.1,196.6 364.7,205.6 364.6,215.2C364.5,215.4 364.5,215.8 364.3,216C364,215.4 363.7,214.9 363.8,214.4C364,211.2 364,207.9 364.7,204.7C365.3,202 366.7,199.2 367.7,196.6C368.1,195.4 368.5,194.1 368.9,193C369,192.9 369.2,192.8 369.2,192.7C370,191.4 368.6,189.6 370.8,188.4C372.2,187.7 373.2,186.3 374.5,185C373.5,184.8 372.9,184.5 372,184.3C371.9,184 372,183.8 371.9,183.5C372.8,183.4 373.8,183.3 374.6,183.3C376.9,181.3 379.1,179.3 381.6,177.5C384.3,175.4 387.2,173.2 390.1,171.1C390.4,170.8 391.2,170.8 391.8,170.7Z" style="fill:rgb(50,14,15);fill-rule:nonzero;"/>
        <path d="M304.6,230.7C306.8,230.4 308.9,230.2 311.1,229.9C310.5,230.3 310,230.5 309.3,230.9C310.1,231.3 310.7,231.2 311.4,231.4C313.5,231.7 315.6,232.3 317.6,232.8C315.2,232.8 312.7,232.7 310.4,232.4C308.3,232.3 306.2,232 304.3,231.8C304.3,231.3 304.5,231 304.6,230.7Z" style="fill:rgb(50,14,15);fill-rule:nonzero;"/>
        <path d="M366.6,194C366.8,193.2 367.1,192.4 367.3,191.6C367.7,192.1 368.2,192.4 368.6,192.9C368.1,193.2 367.4,193.7 366.6,194Z" style="fill:rgb(50,14,15);fill-rule:nonzero;"/>
        <path d="M301.7,228.1C302.4,228.9 303,229.5 303.7,230.3C301.9,230.5 301,230.1 301.7,228.1Z" style="fill:rgb(50,14,15);fill-rule:nonzero;"/>
        <path d="M369.5,184.3C369.8,184.1 370.2,183.8 370.5,183.7C370.6,183.8 370.7,183.9 370.8,184C370.5,184.3 370.2,184.6 369.8,184.9C369.7,184.5 369.6,184.4 369.5,184.3Z" style="fill:rgb(50,14,15);fill-rule:nonzero;"/>
        <path d="M303.9,231.9C303.2,232 302.6,232.1 301.9,232.2C302.6,231.9 303.2,231.8 303.9,231.9Z" style="fill:rgb(50,14,15);fill-rule:nonzero;"/>
        <path d="M370.6,187.1C370.6,187 370.5,186.8 370.6,186.7C370.6,186.6 370.9,186.6 371,186.7C371,186.8 371.1,187 371,187.1C371,187.1 370.7,187 370.6,187.1Z" style="fill:rgb(50,14,15);fill-rule:nonzero;"/>
        <path d="M367.6,189.3C367.6,188.8 367.5,188.4 367.5,187.9C367.5,188.5 367.6,188.8 367.6,189.3Z" style="fill:rgb(50,14,15);fill-rule:nonzero;"/>
        <path d="M339.4,295.3C340.2,294.1 341,293 341.7,291.8C343.3,289.1 344.8,286.5 346.1,283.8C347.4,281.2 348.5,278.6 349.9,276C349.9,276.7 349.9,277.6 349.6,278.3C347.8,284 344.6,289 341.3,293.9C340.9,294.6 340,294.9 339.4,295.3Z" style="fill:rgb(50,14,15);fill-rule:nonzero;"/>
        <path d="M351.4,270.8C351,269.1 351.8,268 353.1,266.9C357.4,263.7 362.6,263.5 367.6,262.5C365.2,264.8 361.8,264.2 359.1,265.2C357.9,265.7 356.5,265.6 355.3,266.1C353.9,266.7 352.6,267.4 352.5,269.2C352.5,269.8 351.8,270.2 351.4,270.8Z" style="fill:rgb(50,14,15);fill-rule:nonzero;"/>
        <path d="M349.9,275.9C350.4,274.3 350.9,272.5 351.4,270.8C351.7,272.8 351.2,274.5 349.9,275.9Z" style="fill:rgb(50,14,15);fill-rule:nonzero;"/>
        <path d="M337.5,297.5C338,296.7 338.7,296 339.2,295.4C338.7,296.1 338.2,296.9 337.5,297.5Z" style="fill:rgb(50,14,15);fill-rule:nonzero;"/>
        <path d="M442.4,212.9C441.8,218.3 439.3,222.9 436.4,227.4C432.2,234 425.7,237.5 419.4,241.3C417.7,242.3 415.4,242.5 413.2,243.1C411.2,243.1 409.1,243.3 407,243.5C405.8,243.6 404.8,243.9 403.6,244L403.5,244C403,244 402.5,243.9 402,243.9L401.9,243.9C401.5,243.8 401.1,243.7 400.7,243.6C396.2,243.6 392,242.1 388.3,239.8C383.4,236.8 378.9,233.3 376,228.1C370.1,217.5 370,206.6 375,195.9C377.8,189.7 382.1,184.6 387.6,180.4C395.2,174.7 403.6,172.3 412.7,173C423.4,173.8 432,178.7 438.1,187.7C441.3,192.4 442.4,197.6 443.2,203C443.3,203.7 443.1,204.5 443,205.1C443.1,205.4 443,205.6 443.1,205.9L443.1,206C443.1,208.4 442.8,210.7 442.4,212.9ZM429.6,207C423.8,210.9 420.3,216.7 416.7,222.4C416.1,223.3 416.2,225.3 416.8,226.1C417.9,227.3 419.7,227.4 421.3,226.2C427.4,222 431.8,216.7 434.9,209.9C435.4,208.8 435.5,206.6 434.8,205.7C433.6,204.3 432,205.4 430.5,206.2C430.2,206.7 429.9,206.8 429.6,207Z" style="fill:rgb(7,3,3);fill-rule:nonzero;"/>
        <path d="M341.4,277C340.6,282.5 338.1,287.3 334.8,291.8C330.4,298 324.4,302 318,305.3C315.2,306.8 311.6,307 308.3,307.5C301.8,308.7 295.3,308.2 289.3,305C284.4,302.4 280,299 276.6,294.5C271.8,288.1 270,281 270.5,273.2C270.9,266.8 272.6,260.5 276.2,255.3C280.5,248.9 286,243.5 293.5,240.2C299.8,237.5 306.1,236.1 312.9,236.9C320.2,237.8 326.7,240.6 332.1,245.7C338.5,251.8 342,259.1 342.2,267.9C341.8,270.6 341.5,273.3 341.1,276.1C341,276.4 341.3,276.8 341.4,277ZM316.8,290.6C323.4,286.2 327.8,280.7 330.8,274.1C331.5,272.6 332.6,270.5 330.8,269.2C329,267.9 327.1,269.3 325.9,270.5C322.5,273.8 319.1,276.9 316.1,280.5C313.7,283.6 312.1,287.2 310.3,290.7C310,291.3 310.2,292.2 310.3,293C311.1,292.9 311.8,293.1 312.5,292.7C313.9,291.9 315.6,291.1 316.8,290.6Z" style="fill:rgb(7,3,3);fill-rule:nonzero;"/>
        <path d="M366.6,194C367.3,193.7 368,193.2 368.6,192.8C368.2,194 367.9,195.3 367.4,196.4C366.4,199.1 365.1,201.8 364.4,204.5C363.7,207.6 363.7,211 363.5,214.2C363.5,214.7 363.9,215.3 364,215.8C365.2,222.6 366.6,229.4 367.8,236.3C368.5,240.3 367.1,243.5 363.6,245.6C362.4,246.3 361.3,247 360.2,247.7C356,250.8 351.6,249.7 347.9,247.1C346.6,246.2 345.3,245.1 344,244.2C340.6,241.9 337.4,239.5 334,237.4C331.7,236 328.9,235.5 326.6,234.2C325.2,233.5 324.1,232.6 322.5,233.5C320.8,233.1 319.3,232.8 317.6,232.4C315.6,231.9 313.4,231.5 311.4,231C310.8,230.9 310,230.9 309.3,230.5C309.9,230.1 310.4,229.9 311.1,229.5C312.3,229.5 313.7,229.6 315,229.6C315.5,229.7 316,229.7 316.3,229.8C316.5,229.9 316.9,229.9 317.1,230C317.7,230 318.5,230.1 319.1,230.1L319.3,230.2C320,231.7 320.8,231.8 322,230.6C322.1,230.6 322.4,230.7 322.5,230.7C323,231.3 323.4,231.8 324.2,232.7C324.3,231.8 324.3,231.5 324.4,231.1L324.5,231.1C324.6,231.1 324.7,231.2 325,231.2C325.1,231.2 325.1,231.2 325.2,231.3C325.4,231.4 325.6,231.4 325.8,231.6C325.9,231.6 326,231.8 326.1,231.8C326.2,232.1 326.1,232.3 326.2,232.6C326.3,232.6 326.3,232.5 326.5,232.5C326.4,232.2 326.3,232.1 326.2,231.8C326.8,231.9 327.4,231.9 327.9,232.1C328.1,232.2 328.3,232.2 328.5,232.1C328.6,232.1 328.7,232.2 328.8,232.3C328.8,232.3 328.8,232.4 328.9,232.4C328.7,232.7 328.4,233.2 328.2,233.5C328.6,233.6 328.9,233.8 329.2,233.9C329.1,233.4 329,233 328.9,232.5C329.8,232.6 330.5,232.5 331.4,232.6C331.9,232.6 332.3,232.5 332.8,232.7C334,232.5 335,232.2 336.2,232C337.3,232.6 337.9,232.4 337.7,231C338.6,229.8 339.6,228.7 340.5,227.5C342.6,224.5 345.5,223 349.2,222.8C350.4,222.7 351.6,222.8 352.7,222.7C357.5,222.4 359.2,220.6 358.7,215.4C358.3,215.7 357.7,215.9 357.4,216.2C354.9,220 351.3,220.6 347.2,220.2C346,220.1 344.7,219.8 343.4,219.6C341,219.2 339.8,220.2 338.9,222.4C338.1,224.3 337.2,226.4 336,228C333.6,230.7 328.8,231 325.8,229C324.3,227.9 323.2,226.5 324.2,224.6C325.2,222.4 326.5,220.5 327.5,218.3C329,215.1 330.5,211.8 331.4,208.5C332.2,205.9 333.1,204.7 335.7,205.1C341.9,206 348.1,207 354.2,208.2C360.2,209.4 360.2,209.4 362.6,203.9C362.8,203.6 362.9,203.2 363.1,203C363.3,202.5 363.5,202.2 363.6,201.7C364.4,199.8 365.2,197.8 366,195.9C366.3,195.1 366.5,194.5 366.6,194ZM362.1,213.7C362.2,213.7 362.4,213.6 362.5,213.7L362.5,213.3C362.4,213.3 362.2,213.4 362.1,213.3C362,213.4 362,213.6 362.1,213.7Z" style="fill:rgb(7,3,3);fill-rule:nonzero;"/>
        <path d="M322.6,233.8C324.2,232.9 325.4,233.8 326.7,234.5C329.1,235.7 331.8,236.3 334.1,237.7C337.5,239.7 340.7,242.2 344.1,244.5C341.3,242.9 338.6,241.1 335.8,239.6C333.5,238.3 331,237.4 328.5,236.2C326.6,235.5 324.6,234.6 322.6,233.8Z" style="fill:rgb(50,14,15);fill-rule:nonzero;"/>
        <path d="M403.7,243.9C404.9,243.8 405.9,243.5 407.1,243.4C409.1,243.2 411.2,243.2 413.3,243C410.2,244.2 407.1,245 403.7,243.9Z" style="fill:rgb(50,14,15);fill-rule:nonzero;"/>
        <path d="M341.4,277C341.2,276.7 340.9,276.5 340.9,276.3C341.3,273.6 341.6,270.9 342,268.1C343.4,270.2 341.7,272.3 342,274.4C342.3,275.2 341.7,276.1 341.4,277Z" style="fill:rgb(50,14,15);fill-rule:nonzero;"/>
        <path d="M442.4,212.9C442.7,210.6 442.9,208.4 443.3,206.1C443.5,208.5 444.1,210.9 442.4,212.9Z" style="fill:rgb(50,14,15);fill-rule:nonzero;"/>
        <path d="M317.7,232.7C319.4,233.1 320.9,233.4 322.6,233.8C320.9,233.4 319.3,233.1 317.7,232.7Z" style="fill:rgb(50,14,15);fill-rule:nonzero;"/>
        <path d="M344.3,244.4C345.6,245.3 346.9,246.4 348.2,247.3C346.9,246.4 345.6,245.5 344.3,244.4Z" style="fill:rgb(50,14,15);fill-rule:nonzero;"/>
        <path d="M402.3,243.8C402.8,243.8 403.3,243.9 403.8,243.9C403.2,243.9 402.7,243.9 402.3,243.8Z" style="fill:rgb(50,14,15);fill-rule:nonzero;"/>
        <path d="M400.9,243.6C401.3,243.7 401.7,243.8 402.1,243.9C401.6,243.8 401.3,243.7 400.9,243.6Z" style="fill:rgb(50,14,15);fill-rule:nonzero;"/>
        <path d="M443.4,206C443.3,205.7 443.4,205.5 443.3,205.2C443.2,205.5 443.3,205.7 443.4,206Z" style="fill:rgb(50,14,15);fill-rule:nonzero;"/>
        <path d="M299.3,194.5C299.5,193.5 299.7,192.6 299.9,191.6C299.9,191.5 300,191.4 300,191.2C302.2,184.1 306.2,177.9 311.6,172.9C314.9,169.8 319.5,169.1 323.8,168.5C331,167.5 337.6,169.5 343.9,173C344.2,173.2 344.6,173.4 344.9,173.6C345.6,174 346.3,174.3 347,174.7C347.1,174.7 347.2,174.8 347.4,174.8C347.9,175.2 348.4,175.4 348.9,175.8C348.5,176.3 348.3,176.9 347.9,177.5C347.1,177.8 346.3,178.1 345.4,178.6C345,178.8 344.5,178.9 343.9,179C342.9,179.4 342,179.8 341,180.2C339.1,181.4 337.3,182.6 335.4,183.7C334.9,184.2 334.3,184.7 333.8,185.2C333.6,185.5 333.4,185.9 333.2,186.2C331.9,188.5 330.8,190.9 329.4,193.1C328.7,194.2 327.4,194.9 326.4,195.8C326.3,195.8 326.1,195.9 326,195.8C325.6,195.8 325.1,195.7 324.8,195.8C324.7,195.8 324.5,195.9 324.4,195.8C321.1,195.4 317.8,195.1 314.5,194.6C314.1,194.6 313.7,194.8 313.3,194.8C312.6,195.1 311.9,195.4 311.2,195.7C310.3,196.3 309.6,196.8 308.7,197.3C307.9,198 307,198.7 306.2,199.4C305.7,199.8 305.4,200.3 304.9,200.7C304.4,201.1 303.8,201.6 303.4,202C301.2,203.4 301.1,203.4 299.9,201C299.8,200.7 299.9,200.5 299.8,200.2C299.7,199.5 299.6,198.8 299.5,198.1L299.6,198C299.5,197.9 299.5,197.9 299.4,197.7C299.4,197.1 299.3,196.5 299.3,195.9L299.3,194.5Z" style="fill:rgb(7,3,3);fill-rule:nonzero;"/>
        <path d="M335.5,183.8C337.4,182.6 339.2,181.4 341.1,180.3C339.3,181.4 337.4,182.6 335.5,183.8Z" style="fill:rgb(232,150,11);fill-rule:nonzero;"/>
        <path d="M347.9,177.5C348.3,177 348.5,176.4 348.9,175.8C349.2,176.1 349.7,176.3 350.4,177.1C349.1,177.3 348.6,177.4 347.9,177.5Z" style="fill:rgb(232,150,11);fill-rule:nonzero;"/>
        <path d="M308.8,197.6C309.7,197 310.4,196.5 311.3,196C310.4,196.5 309.5,197 308.8,197.6Z" style="fill:rgb(232,150,11);fill-rule:nonzero;"/>
        <path d="M304.9,201C305.4,200.6 305.7,200.1 306.2,199.7C305.8,200.1 305.4,200.6 304.9,201Z" style="fill:rgb(232,150,11);fill-rule:nonzero;"/>
        <path d="M322,230.8C321,232 320,232 319.3,230.4C320.3,230.5 321.2,230.7 322,230.8Z" style="fill:rgb(50,14,15);fill-rule:nonzero;"/>
        <path d="M299.3,194.5L299.3,196.3L299.3,194.5Z" style="fill:rgb(232,150,11);fill-rule:nonzero;"/>
        <path d="M324.4,231.3C324.3,231.7 324.2,232 324.2,232.9C323.5,232 323,231.5 322.5,230.9C323.1,231 323.7,231.2 324.4,231.3Z" style="fill:rgb(50,14,15);fill-rule:nonzero;"/>
        <path d="M344,178.9C344.5,178.8 344.9,178.6 345.5,178.5C344.9,178.6 344.5,178.8 344,178.9Z" style="fill:rgb(232,150,11);fill-rule:nonzero;"/>
        <path d="M313.4,195.1C313.8,195.1 314.2,194.9 314.6,194.9C314.2,194.9 313.8,195 313.4,195.1Z" style="fill:rgb(232,150,11);fill-rule:nonzero;"/>
        <path d="M333.3,186.3C333.5,186 333.7,185.6 333.9,185.3C333.7,185.6 333.5,186 333.3,186.3Z" style="fill:rgb(232,150,11);fill-rule:nonzero;"/>
        <path d="M344.9,173.6C344.6,173.4 344.2,173.2 343.9,173C344.2,173.2 344.6,173.4 344.9,173.6Z" style="fill:rgb(232,150,11);fill-rule:nonzero;"/>
        <path d="M337.6,230.8C337.8,232.1 337.2,232.5 336.1,231.8C336.6,231.4 337.1,231.1 337.6,230.8Z" style="fill:rgb(50,14,15);fill-rule:nonzero;"/>
        <path d="M299.8,200.3C299.9,200.6 299.8,200.8 299.9,201.1C299.8,200.8 299.8,200.6 299.8,200.3Z" style="fill:rgb(232,150,11);fill-rule:nonzero;"/>
        <path d="M319.2,230.4C318.6,230.4 317.8,230.3 317.2,230.3C317.9,230.4 318.5,230.4 319.2,230.4Z" style="fill:rgb(50,14,15);fill-rule:nonzero;"/>
        <path d="M366.6,194C366.3,194.6 366.1,195 366,195.6C366.3,195.1 366.5,194.5 366.6,194Z" style="fill:rgb(50,14,15);fill-rule:nonzero;"/>
        <path d="M363.6,201.5C363.4,202 363.2,202.3 363.1,202.8C363.2,202.3 363.4,201.8 363.6,201.5Z" style="fill:rgb(50,14,15);fill-rule:nonzero;"/>
        <path d="M316.4,230.2C315.9,230.1 315.4,230.1 315.1,230C315.4,230.1 315.9,230.2 316.4,230.2Z" style="fill:rgb(50,14,15);fill-rule:nonzero;"/>
        <path d="M300.1,191.3C300.1,191.4 300,191.5 300,191.7C300,191.5 300,191.4 300.1,191.3Z" style="fill:rgb(232,150,11);fill-rule:nonzero;"/>
        <path d="M332.7,232.4C332.2,232.4 331.8,232.5 331.3,232.3C331.8,232.5 332.3,232.5 332.7,232.4Z" style="fill:rgb(50,14,15);fill-rule:nonzero;"/>
        <path d="M299.4,198C299.5,198.1 299.5,198.1 299.6,198.3L299.5,198.4C299.4,198.2 299.4,198.1 299.4,198C299.3,198 299.4,198 299.4,198Z" style="fill:rgb(232,150,11);fill-rule:nonzero;"/>
        <path d="M347.4,174.9C347.3,174.9 347.2,174.8 347,174.8C347.2,174.7 347.3,174.8 347.4,174.9Z" style="fill:rgb(232,150,11);fill-rule:nonzero;"/>
        <path d="M326,195.9C326.1,195.9 326.3,195.8 326.4,195.9C326.2,195.9 326.1,196 326,195.9Z" style="fill:rgb(232,150,11);fill-rule:nonzero;"/>
        <path d="M324.4,196C324.5,196 324.7,195.9 324.8,196C324.6,195.9 324.4,196 324.4,196Z" style="fill:rgb(232,150,11);fill-rule:nonzero;"/>
        <path d="M325.7,231.6C325.5,231.5 325.3,231.5 325.1,231.3C325.4,231.5 325.5,231.6 325.7,231.6Z" style="fill:rgb(50,14,15);fill-rule:nonzero;"/>
        <path d="M328.5,232.1C328.3,232 328.1,232 327.9,232.1C328.1,232 328.3,232.1 328.5,232.1Z" style="fill:rgb(50,14,15);fill-rule:nonzero;"/>
        <path d="M324.9,231.3C324.8,231.3 324.7,231.2 324.4,231.2C324.7,231.4 324.8,231.4 324.9,231.3Z" style="fill:rgb(50,14,15);fill-rule:nonzero;"/>
        <path d="M429.6,207C429.9,206.8 430.2,206.6 430.5,206.4C431.9,205.6 433.5,204.6 434.8,205.9C435.5,206.7 435.4,208.8 434.9,210.1C431.9,216.7 427.4,222.2 421.3,226.4C419.7,227.5 417.9,227.5 416.8,226.3C416.2,225.5 416.1,223.6 416.7,222.6C420.1,216.7 423.7,210.9 429.6,207Z" style="fill:rgb(246,246,246);fill-rule:nonzero;"/>
        <path d="M316.8,290.6C315.7,291.1 314,292 312.3,292.7C311.6,292.9 310.9,292.9 310.1,293C310.1,292.3 309.9,291.3 310.1,290.7C311.9,287.2 313.6,283.6 315.9,280.5C318.7,276.9 322.3,273.7 325.7,270.5C327,269.3 328.8,267.8 330.6,269.2C332.4,270.5 331.3,272.6 330.6,274.1C327.7,280.5 323.3,286.1 316.8,290.6Z" style="fill:rgb(246,246,246);fill-rule:nonzero;"/>
        <path d="M328.9,232.5C329,233 329.1,233.4 329.2,233.9C328.8,233.8 328.5,233.6 328.2,233.5C328.4,233.1 328.6,232.8 328.9,232.5C328.8,232.4 328.9,232.5 328.9,232.5Z" style="fill:rgb(50,14,15);fill-rule:nonzero;"/>
        <path d="M362.1,213.7C362.1,213.6 362,213.4 362.1,213.3C362.2,213.3 362.4,213.2 362.5,213.3C362.6,213.3 362.6,213.6 362.5,213.7C362.3,213.8 362.2,213.7 362.1,213.7Z" style="fill:rgb(50,14,15);fill-rule:nonzero;"/>
        <path d="M326.2,231.9C326.3,232.2 326.4,232.3 326.5,232.6C326.4,232.6 326.4,232.7 326.2,232.7C326.2,232.4 326.1,232.1 326.2,231.9C326.1,231.8 326.2,231.9 326.2,231.9Z" style="fill:rgb(50,14,15);fill-rule:nonzero;"/>
    </g>
</svg>
