<?xml version="1.0" encoding="utf-8"?>
<!-- Generator: Adobe Illustrator 21.1.0, SVG Export Plug-In . SVG Version: 6.00 Build 0)  -->
<svg version="1.1" id="Ebene_1" xmlns="http://www.w3.org/2000/svg" xmlns:xlink="http://www.w3.org/1999/xlink" x="0px" y="0px"
	 viewBox="0 0 286 286" style="enable-background:new 0 0 286 286;" xml:space="preserve">
<style type="text/css">
	.st0{fill:#FFFFFF;}
	.st1{fill:none;stroke:#FFFFFF;stroke-miterlimit:10;}
	.st2{fill:#FFFFFF;stroke:#FFFFFF;stroke-miterlimit:10;}
	.st3{stroke:#000000;stroke-miterlimit:10;}
</style>
<g>
	<g>
		<path class="st0" d="M111.7,207.5H227c6.6,0,12-5.4,12-12v-60.8c0-6.6-5.4-12-12-12H111.7c-6.6,0-12,5.4-12,12v60.8
			C99.7,202.1,105.1,207.5,111.7,207.5z"/>
	</g>
	<g>
		<path class="st1" d="M111.7,207.5H227c6.6,0,12-5.4,12-12v-60.8c0-6.6-5.4-12-12-12H111.7c-6.6,0-12,5.4-12,12v60.8
			C99.7,202.1,105.1,207.5,111.7,207.5z"/>
	</g>
</g>
<path class="st2" d="M230.1,226.5h3.5c3,0,5.5-2.5,5.5-5.5v-54.7c0-3-2.5-5.5-5.5-5.5h-3.5c-3,0-5.5,2.5-5.5,5.5V221
	C224.6,224,227.1,226.5,230.1,226.5z"/>
<path class="st2" d="M193.1,227.7l5.3,1.2c3,0.7,5.9-1.2,6.6-4.2l12.4-55c0.7-3-1.2-5.9-4.2-6.6L208,162c-3-0.7-5.9,1.2-6.6,4.2
	l-12.4,55C188.3,224.1,190.2,227.1,193.1,227.7z"/>
<path class="st2" d="M131.5,226.5h3.5c3,0,5.5-2.5,5.5-5.5v-44.2c0-3-2.5-5.5-5.5-5.5h-3.5c-3,0-5.5,2.5-5.5,5.5V221
	C126,224,128.4,226.5,131.5,226.5z"/>
<path class="st2" d="M105.2,226.5h3.5c3,0,5.5-2.5,5.5-5.5v-66.6c0-3-2.5-5.5-5.5-5.5h-3.5c-3,0-5.5,2.5-5.5,5.5V221
	C99.7,224,102.1,226.5,105.2,226.5z"/>
<path class="st3" d="M107,77.8"/>
<path class="st2" d="M69.4,125.3l11.8,14.5l24.7-11.2l17.1,25.2c6.1,9.1,18.5,11.5,27.6,5.4l4.1-2.8c9-6.1,11.4-18.5,5.2-27.6
	l-27.5-40.6c-6.1-9.1-18.5-11.5-27.6-5.4l-4.1,2.8c-1.9,1.3-3.6,2.9-4.9,4.7c-1.1,1.5-2.9,3.2-3.9,5.2L69.4,125.3z M97,101.6
	c0-5.8,4.7-10.5,10.5-10.5c5.8,0,10.5,4.7,10.5,10.5s-4.7,10.5-10.5,10.5C101.7,112.1,97,107.4,97,101.6z"/>
<circle class="st0" cx="104.9" cy="101.6" r="3.2"/>
<g>
	<path class="st2" d="M190.8,119.6c2.5-16.8,17-29.7,34.5-29.7V82c-21.8,0-39.9,16.4-42.4,37.6"/>
	<path class="st2" d="M165.7,96.7c10.6-22.3,33.3-37.8,59.6-37.8V51c-27.7,0-51.8,15.5-64.4,38.1"/>
	<path class="st2" d="M170.8,103.9c8.4-21.9,29.6-37.4,54.4-37.4v7.9c-23.6,0-43.2,17.7-48.6,39.7l-1.4-3.3
		c-1.1-1.7-2.1-3.4-3.2-5.1L170.8,103.9z"/>
</g>
<path class="st2" d="M158.8,120l-24.1-34.8c-4.4-6.4-11-10.1-17-9.9c-6.9,0.1-13.6,2.4-19.4,6.5L97,83.2l-5.3-22.4h36.8l-0.3,0.1
	c6-0.2,12.6,3.4,17,9.9l27.2,40.1c2,3,2.9,5.9,3.5,9.1H158.8z"/>
</svg>
