<?xml version="1.0" encoding="utf-8"?>
<!-- Generator: Adobe Illustrator 22.1.0, SVG Export Plug-In . SVG Version: 6.00 Build 0)  -->
<svg version="1.1" id="Ebene_1" xmlns="http://www.w3.org/2000/svg" xmlns:xlink="http://www.w3.org/1999/xlink" x="0px" y="0px"
	 viewBox="0 0 1719 3146.6" style="enable-background:new 0 0 1719 3146.6;" xml:space="preserve">
<style type="text/css">
	.st0{opacity:0.15;fill:#FFFFFF;enable-background:new    ;}
</style>
<path class="st0" d="M509.6,137.2c-16.3-7.4-46.8-41.1-27.9-76.8c10.1-19.1-3.8-41.8-21.6-54.6c-15.9-11.5-37.1-4.1-52.6,7
	c-21.9,15.5-28.8,40.7-13.8,57.3c57.4,63.8-4.6,85.5-50,106.2c-98.4,44.8-206.1,65.5-315.6,78c-25,2.9-32.4,8.6-25.8,31.6
	c10.7,37.5-3.8,80.7,75.1,80.3c79.9-0.3,126.2,48.5,208.3,73.3c17.5,5.3,39.7,6.7,55.6,1.2c73.2-25.5,68.7,38.7,71.5,74.2
	c10.3,131.9,8.8,230.3-0.7,362.8c-6,79.6,42.8,60.7,95.4,3.5c46.2-57.8,83.7-58.5,125.8-118.4c33-52.4-37.6-265.9-72.8-456.5
	c-14.2-67.4-0.6-67.4,54.9-52.8c58.3,14.9,158-79.8,157.4-105c-0.5-22-42.5-19.8-54.9-23.4c-30.5-8.9-42.2-15.1-75.8-14.4
	C609.6,111.4,576.1,164.1,509.6,137.2z"/>
<path class="st0" d="M723.1,1009.6c-20.5-58.3-23.7-99.3-38.2-152.5c-3.9-14.6-10.6-39.3-25.3-39.7c-22.8-0.7-80.1,57-107.4,91.2
	c-38.7,48.3-103,80.3-120.6,102.3c-15.7,18.8-19.2,92.3,16.2,102.8c95.9,28.4,105.2,41.8,186.2,99.9c4.5,3.2,57.7,48.3,91,47.4
	c29.9-0.8,99.8-33.3,102.4-54.1C828.5,1165.9,745,1093.5,723.1,1009.6z"/>
<path class="st0" d="M1472.6,1925.1c-2.9-30-32.8-132,9.7-139.6c49.8-8.9,107,67,133.5,94.8c44,46.1,86.9,85.6,90.7,147.8
	c3.9,65.8-1.7,134.1-13.7,199c-11.5,61.9-42.5,139.8-23.9,201.7c18.3,61,63.3,162.1,46.7,194.5c-83.8,163.9-105.8,300.9-119.1,443.4
	c-2.9,30.4-24.1,77.2-57.5,70.3c-41.8-8.6-41.6-128.6-42.5-142.3c-4.4-66.7-0.3-134.1-0.1-200.8c0.1-37.2,0.2-74.4-1.9-111.6
	c-1.2-21.5-8.9-57-9.8-81.8c-1.9-52.8-28.7-97.5-57.9-141.6c-39-58.9-74.9-97.8-102-161.8c-23-54.7,79.5-172.9,108.3-206.5
	C1477.2,2038.7,1478.9,1990,1472.6,1925.1z"/>
<path class="st0" d="M1031.7,1666.4c94.5-106.6,124.4-127.6,228-55c78.2,54.7,136.9,101.8,145.1,192.6
	c6.5,70.7,36.9,183.4-9.1,243.1c-20.1,26.1-41.6,51.5-56.6,74.7c-68.5,107.1-75.3,102.1-212.7,83.5
	c-115.9-15.7-118.7-43.1-158.9-139.6c-34.1-81.6-91.4-217.9-90.2-247.1C880.4,1745.3,979.9,1724.9,1031.7,1666.4z"/>
<path class="st0" d="M492.1,3004.7c-6.8,37-20.6,90.1,0.2,125.1c37.5,63,91.2-70.2,97.1-87.4c24.7-73.2,53.8-145.2,91.7-214.1
	c18.9-34.3,39.8-67.7,62.5-100.1c17.5-24.9,33.2-66.8,39.5-96.2c12.7-58.3,19.8-103.6,28.3-161.7c22.3-152.5,97.1-192.5,123.3-254.6
	c29.3-69.7-4.4-107-32.7-179.1c-8.1-20.6-38.2-114.7-73.8-168.8l0,0c-25.2-48.8-91.8-53.9-151.6-135.7
	c-22.6-30.9-53.2-20.7-156.7,39.8c-13.8,8-38.7,24.1-38.7,51.1c0,50.1,25.1,65.6,32.6,132.4c2,18,3.1,126.1,4.7,148.9
	c0.3,7.4,0.9,14.6,1.7,21.5c9.5,101.8,26.3,218.7,40.8,273.4c17.5,66.2,13.9,105.9,13,175.3c-1,72.4-20.3,151.2-36.4,222.5
	C522.1,2866.2,505,2934.9,492.1,3004.7z"/>
<path class="st0" d="M457.5,1170.2c47.4-9.4,137.9,70.5,167.8,95.4c47.8,39.8,57.2,52.3,98.8,40.7c32.8-9.1,57-17.8,83.7-30.4
	c64-30.2,76.4-16.4,109.1,22.9c68.3,82.2,94.8,115.3,171.5,191.4c32.8,25.3-16.8,72.1-90.2,138.8c-32.3,29.3-82.5,50.8-116.1,86
	c-21.5,22.5-38.8,49.9-59.4,55.2c-27.9,7.2-47.2-17.8-82.6-51.6c-18.6-17.7-32.3-49.1-68.2-58.8c-43.9-11.9-86.8,16.7-142.9,52
	c-61.7,38.8-69.4-77.3-74.6-158.2C440,1325.2,391.4,1183.3,457.5,1170.2z"/>
</svg>
