<?xml version="1.0" encoding="utf-8"?>
<!-- Generator: Adobe Illustrator 23.1.1, SVG Export Plug-In . SVG Version: 6.00 Build 0)  -->
<svg version="1.1" id="Ebene_1" xmlns="http://www.w3.org/2000/svg" xmlns:xlink="http://www.w3.org/1999/xlink" x="0px" y="0px"
	 viewBox="0 0 1006.1 1006.1" style="enable-background:new 0 0 1006.1 1006.1;" xml:space="preserve">
<style type="text/css">
	.st0{fill:none;}
	.st1{fill:#004990;}
	.st2{fill:#118ACB;}
	.st3{fill:url(#Neues_Musterfeld_1);}
	.st4{fill:#004990;stroke:#1D1D1B;stroke-miterlimit:10;}
	.st5{fill:#118ACB;stroke:#1D1D1B;stroke-miterlimit:10;}
	.st6{fill-rule:evenodd;clip-rule:evenodd;fill:#FFFFFF;}
	.st7{fill:#FFFFFF;}
</style>
<pattern  x="0.2" y="577" width="1006.1" height="1006.4" patternUnits="userSpaceOnUse" id="Neues_Musterfeld_1" viewBox="0 -1006.4 1006.1 1006.4" style="overflow:visible;">
	<g>
		<rect y="-1006.4" class="st0" width="1006.1" height="1006.4"/>
		<rect x="0.3" y="-1006.4" class="st1" width="503.2" height="503.2"/>
		<rect x="502.9" y="-1006.4" class="st2" width="503.2" height="503.2"/>
		
			<rect x="502.7" y="-503.2" transform="matrix(-1 -1.224647e-16 1.224647e-16 -1 1508.51 -503.1889)" class="st1" width="503.2" height="503.2"/>
		
			<rect y="-503.2" transform="matrix(-1 -1.224647e-16 1.224647e-16 -1 503.1889 -503.1889)" class="st2" width="503.2" height="503.2"/>
	</g>
</pattern>
<rect x="-4088.8" y="-798.2" class="st3" width="1898.5" height="1898.5"/>
<g>
	
		<rect x="501.9" y="503" transform="matrix(-1.836970e-16 1 -1 -1.836970e-16 1532.3495 0.9528)" class="st4" width="527.6" height="527.3"/>
	
		<rect x="-23.4" y="-24.3" transform="matrix(-1.836970e-16 1 -1 -1.836970e-16 479.7827 -0.9607)" class="st4" width="527.6" height="527.3"/>
	
		<rect x="-23.4" y="503" transform="matrix(-1.836970e-16 1 -1 -1.836970e-16 1007.0228 526.2794)" class="st5" width="527.6" height="527.3"/>
	
		<rect x="501.9" y="-24.3" transform="matrix(-1.836970e-16 1 -1 -1.836970e-16 1005.1093 -526.2874)" class="st5" width="527.6" height="527.3"/>
	<g>
		<rect x="495.2" y="-22.1" class="st6" width="15.8" height="131.6"/>
		<rect x="495.2" y="898.9" class="st6" width="15.8" height="131.6"/>
		<g>
			<rect x="897.8" y="496.3" class="st7" width="131.6" height="15.8"/>
		</g>
		<rect x="-23.2" y="496.3" class="st6" width="131.6" height="15.8"/>
	</g>
	<g>
		<path class="st7" d="M558.9,239.3C663.6,261.3,746,344,767.7,449l13,4c-21-114.9-111.4-205.5-226-226.8L558.9,239.3z"/>
		<path class="st7" d="M554.3,782.3C669,761.2,759.4,670.8,780.6,556l-13.1,4.2c-22,104.8-104.5,187.3-209.3,209.1L554.3,782.3z"/>
		<polygon class="st7" points="837.4,511.2 572.5,568.4 503.1,504.2 862.1,504.2 590,419.7 510,169.4 567.1,434.7 503.1,504.2 
			503.1,144.6 418.7,417.2 168.7,497.2 433.6,440.1 503.1,504.2 144,504.2 416.2,588.7 496.1,839 439,573.8 503.1,504.2 
			503.1,863.8 587.4,591.3 		"/>
		<path class="st7" d="M447.2,769.1c-104.7-22-187-104.7-208.8-209.6l-13-4c21,114.9,111.3,205.5,226,226.7L447.2,769.1z"/>
		<path class="st7" d="M238.6,448.3c22-104.8,104.5-187.3,209.3-209.1l4-13c-114.7,21-205.2,111.5-226.4,226.3L238.6,448.3z"/>
	</g>
</g>
</svg>
