<?xml version="1.0" encoding="utf-8"?>
<!-- Generator: Adobe Illustrator 23.1.1, SVG Export Plug-In . SVG Version: 6.00 Build 0)  -->
<svg version="1.1" id="Ebene_1" xmlns="http://www.w3.org/2000/svg" xmlns:xlink="http://www.w3.org/1999/xlink" x="0px" y="0px"
	 viewBox="0 0 286 286" style="enable-background:new 0 0 286 286;" xml:space="preserve">
<style type="text/css">
	.st0{fill-rule:evenodd;clip-rule:evenodd;fill:#FFFFFF;}
	.st1{fill:#FFFFFF;}
</style>
<g>
	<rect x="141.7" y="54.6" class="st0" width="2.7" height="22.1"/>
	<rect x="141.7" y="209.3" class="st0" width="2.7" height="22.1"/>
	<g>
		<rect x="209.3" y="141.7" class="st1" width="22.1" height="2.7"/>
	</g>
	<rect x="54.6" y="141.7" class="st0" width="22.1" height="2.7"/>
</g>
<g>
	<path class="st1" d="M152.4,98.5c17.6,3.7,31.4,17.6,35.1,35.2l2.2,0.7c-3.5-19.3-18.7-34.5-38-38.1L152.4,98.5z"/>
	<path class="st1" d="M151.6,189.7c19.3-3.5,34.4-18.7,38-38l-2.2,0.7c-3.7,17.6-17.6,31.5-35.1,35.1L151.6,189.7z"/>
	<polygon class="st1" points="199.1,144.2 154.7,153.8 143,143 203.3,143 157.6,128.8 144.2,86.8 153.8,131.3 143,143 143,82.6 
		128.8,128.4 86.9,141.8 131.3,132.2 143,143 82.7,143 128.4,157.2 141.8,199.2 132.2,154.7 143,143 143,203.4 157.2,157.6 	"/>
	<path class="st1" d="M133.6,187.5c-17.6-3.7-31.4-17.6-35.1-35.2l-2.2-0.7c3.5,19.3,18.7,34.5,38,38.1L133.6,187.5z"/>
	<path class="st1" d="M98.6,133.6c3.7-17.6,17.6-31.5,35.1-35.1l0.7-2.2c-19.3,3.5-34.5,18.7-38,38L98.6,133.6z"/>
</g>
</svg>
