<?xml version="1.0" encoding="utf-8"?>
<!-- Generator: Adobe Illustrator 23.1.1, SVG Export Plug-In . SVG Version: 6.00 Build 0)  -->
<svg version="1.1" id="Ebene_1" xmlns="http://www.w3.org/2000/svg" xmlns:xlink="http://www.w3.org/1999/xlink" x="0px" y="0px"
	 viewBox="0 0 113.4 113.4" style="enable-background:new 0 0 113.4 113.4;" xml:space="preserve">
<style type="text/css">
	.st0{fill-rule:evenodd;clip-rule:evenodd;fill:#FFFFFF;}
	.st1{fill-rule:evenodd;clip-rule:evenodd;fill:#1D1D1B;}
</style>
<rect x="0" class="st0" width="113.4" height="113.4"/>
<g>
	<path class="st1" d="M99.7,35c-0.1,0.2-3.5,5.2-10.6,5.2c-3.7,0-6.8-1.2-9.1-3.4c-2.2-2.2-3.5-5.3-3.5-8.6c0-3.1,1.1-6,3.2-8.2
		c2.3-2.5,5.8-3.8,9.8-3.8c3.5,0,6.6,1.3,8.9,3.6c2.2,2.2,3.4,5.1,3.4,8.2C101.9,29.9,101.7,32,99.7,35z M76.1,22.9
		c-0.5,0-0.6-0.4-0.9-1.6c-0.6-2.4-1.4-2.4-4.5-2.4l-2.8,0c0,1.3,0,3.5,0,5.9c0,5.1,0,11.4,0.2,12.4c0.1,0.4,1,0.7,1.5,0.8l0.9,0.1
		c0.9,0.1,1.3,0.2,1.5,0.5c0.2,0.3,0.2,0.7-0.1,0.9c-0.2,0.1-0.5,0.1-2.3,0.1c-1,0-2.1-0.1-3.5-0.1c-1.7,0-2.8,0.1-3.6,0.1
		c-0.9,0-1.4,0.1-1.9,0c-0.2-0.1-0.3-0.2-0.3-0.4c0-0.2,0-0.4,0.1-0.6c0.2-0.3,0.5-0.3,1.1-0.4c0.3,0,0.6-0.1,1-0.1
		c0.5-0.1,1.7-0.5,1.7-0.8c0.1-0.8,0.2-11.3,0.2-16.4l0-1.9l-4.2,0c-1.2,0-1.9,0.4-2.9,1.6c-0.2,0.3-0.8,1.2-1.3,1.7
		c-0.3,0.3-0.7,0.6-1,0.5c-0.1-0.1-0.4-0.2-0.3-0.7l1.5-5.9c0-0.2,0.2-0.6,0.6-0.6c0.4,0,0.5,0.1,0.8,0.7l0.1,0.3
		c0.3,0.4,0.5,0.8,2.4,0.8l14.4,0.1c0.1,0,0.2,0,0.2-0.1c0.6-1.1,0.9-1.8,1.3-1.8c0.3,0,0.7,0.2,0.7,1l0,5.8
		C76.7,22.7,76.5,22.9,76.1,22.9z M59,39.1c0,0.2-0.2,0.4-0.3,0.4c-0.3,0.1-0.9,0.1-2,0.1c-0.6,0-1.4-0.1-2.3-0.1
		c-0.7,0-1.4,0-2.1,0.1c-1.5,0-1.9,0.1-2.1-0.1c-0.2-0.2-0.3-0.5-0.2-0.8c0.2-0.4,0.4-0.4,1-0.5c0.3,0,0.6-0.1,1-0.1
		c0.2,0,0.7-0.1,0.8-0.3c0-0.3-0.9-2.6-2.1-5.8l-0.9-2.4c-3.7-0.2-6.1-0.1-6.9-0.1l-1,2.6L41.7,33l-1.6,4.4c-0.1,0.2-0.1,0.3,0,0.4
		c0.1,0.2,0.5,0.3,0.7,0.3c0.4,0.1,0.6,0.1,0.8,0.1c0.6,0.1,1,0.1,1.2,0.7c0.1,0.2,0.1,0.3,0,0.5c-0.1,0.1-0.2,0.2-0.4,0.2
		c-0.8,0.1-1.5,0-2.4,0c-0.5,0-1.3,0-2.1,0c-0.8,0-1.4,0-1.9,0c-1.2,0-1.4,0-1.6,0c-0.1-0.1-0.3-0.3-0.3-0.5c0-0.1,0-0.3,0.3-0.5
		c0.3-0.3,0.6-0.3,1.1-0.3c0.3,0,0.7-0.1,1.2-0.1c0.4-0.1,1.3-0.4,1.5-0.9c0.2-0.4,2.1-5.5,4-10.4l0.1-0.2c1.7-4.5,3.6-9.5,4.1-10.8
		l1.2-0.2c0.2,0.2,2.4,6,5.6,14.1c1.5,3.9,2.8,7.3,3,7.7c0.3,0.4,1,0.6,1.4,0.6c1,0.2,1.2,0.2,1.4,0.5C59,38.8,59,39,59,39.1z
		 M33.6,40c-0.2,0.2-0.2,0.2-0.2,0.2l-0.8,0.1c-3.2-3.1-10.2-10.8-14.5-15.5l-2.8-3c0,2.8,0,13.9,0.1,15.8c0.1,0.4,0.7,0.5,1,0.5
		c0.4,0.1,0.8,0.1,1,0.1c0.7,0.1,0.9,0.1,1.2,0.4c0.3,0.3,0.2,0.7,0,0.8c-0.2,0.2-0.6,0.2-2,0.1c-0.6,0-1.5-0.1-2.4,0
		c-0.8,0-1.6,0-2.2,0.1c-1.4,0-1.7,0.1-1.8,0c-0.1-0.1-0.2-0.2-0.2-0.3c0-0.1,0-0.3,0.2-0.5c0.2-0.3,0.5-0.3,1.1-0.4
		c0.3,0,0.6-0.1,1-0.1c0.5-0.1,1.1-0.4,1.1-0.6c0.2-1,0.1-12.4,0.1-16.7c0-1.1-0.1-1.5-0.2-1.7c-0.4-1-2-1.1-2.7-1.2
		c-0.2,0-0.3,0-0.3,0l-0.2-1l4.9-0.3c0.4,0.2,1.2,0.8,2,1.6l14.7,16.2c-0.1-4-0.5-12.9-0.6-15.7c-0.1-0.4-0.7-0.5-1-0.6
		c-0.5-0.1-0.8-0.1-1.1-0.1c-0.6-0.1-0.9-0.1-1.1-0.4c-0.3-0.3-0.2-0.7,0-0.8c0.2-0.2,0.6-0.2,2-0.1c0.7,0,1.5,0.1,2.4,0
		c0.8,0,1.6,0,2.2-0.1c1.4,0,1.7,0,1.8,0c0.1,0.1,0.2,0.2,0.2,0.3c0,0.1,0,0.3-0.2,0.5c-0.2,0.3-0.5,0.3-1.1,0.4
		c-0.3,0-0.6,0.1-1,0.1c-0.6,0.1-1.1,0.4-1.1,0.5c0,0.1,0.5,16.8,0.5,18.2L33.6,40L33.6,40z M0,0v55.8h55.8v-6.2h1.7l0,6.2h55.8V0H0
		z M43.7,27.8c0.8,0.1,3.2,0.2,5.6,0.1l-2.8-7.5L43.7,27.8z M89.1,17.7c-2.4,0-4.4,0.8-5.9,2.3c-2.2,2.2-3,5.6-3,8.1
		c0,2.4,0.8,6.1,3.2,8.4c1.5,1.5,3.3,2.2,5.4,2.2c3.1,0,5.4-1,6.9-3c1.4-1.8,2.1-4.3,2.1-7.6c0-3.5-0.9-6.2-2.8-8
		C93.1,18,90.5,17.7,89.1,17.7z"/>
	<path class="st1" d="M102.9,74.5c-0.2,0.3-0.5,0.3-1.1,0.4c-0.3,0-0.6,0.1-1,0.1c-0.6,0.1-1.1,0.4-1.1,0.5c0,0.1,0.5,16.8,0.5,18.2
		l0,3l-1,0.3C96,93.9,88.9,86.2,84.7,81.6l-2.8-3c0,2.8,0,13.9,0.1,15.8c0.1,0.4,0.7,0.5,1,0.5c0.5,0.1,0.8,0.1,1.1,0.1
		c0.6,0.1,0.9,0.1,1.1,0.4c0.3,0.3,0.2,0.7,0,0.8c-0.2,0.2-0.6,0.2-2,0.1c-0.7,0-1.5-0.1-2.4,0c-0.7,0-1.5,0-2.1,0.1
		c-1.5,0.1-1.8,0.1-1.9,0c-0.1-0.1-0.2-0.2-0.2-0.3c0-0.1,0-0.3,0.2-0.5c0.2-0.3,0.5-0.3,1.1-0.4c0.3,0,0.6-0.1,1-0.1
		c0.5-0.1,1.1-0.4,1.1-0.6c0.2-1.2,0.1-16.5,0.1-16.7c0-1.1-0.1-1.5-0.2-1.7c-0.4-1-2-1.1-2.7-1.2c-0.2,0-0.3,0-0.3,0l-0.2-1
		l4.9-0.3c0.4,0.2,1.2,0.8,2,1.6l14.7,16.2c-0.1-3.9-0.5-12.9-0.6-15.6c-0.1-0.5-0.7-0.6-1.1-0.7c-0.5-0.1-0.9-0.1-1.1-0.1
		c-0.6-0.1-0.9-0.1-1.1-0.4c-0.3-0.4-0.2-0.7,0-0.8c0.2-0.2,0.6-0.2,2-0.1c0.7,0,1.5,0.1,2.4,0c0.8,0,1.6,0,2.2-0.1
		c1.4,0,1.7,0,1.8,0c0.1,0.1,0.2,0.2,0.2,0.3C103.1,74.1,103.1,74.3,102.9,74.5z M76.6,95.9c0,0.2-0.2,0.4-0.3,0.4
		c-0.3,0.1-0.9,0.1-2,0.1c-0.6,0-1.4-0.1-2.3-0.1c-0.8,0-1.5,0-2.1,0c-1.5,0-1.9,0.1-2.1-0.1c-0.2-0.1-0.3-0.5-0.2-0.8
		c0.2-0.4,0.4-0.4,1-0.5c0.3,0,0.6-0.1,1-0.1c0.2,0,0.7-0.1,0.8-0.3c0-0.3-0.9-2.5-2.1-5.8l-0.9-2.4c-3.7-0.2-6.1-0.1-6.9-0.1
		l-1,2.8l-1.9,5c-0.1,0.2-0.1,0.3,0,0.4c0.1,0.2,0.5,0.3,0.7,0.3C58.8,95,59,95,59.2,95c0.6,0.1,1,0.1,1.2,0.7
		c0.1,0.2,0.1,0.3,0,0.5c-0.1,0.1-0.2,0.2-0.4,0.2c-0.8,0.1-1.5,0.1-2.4,0c-0.6,0-1.3,0-2,0c-0.8,0-1.4,0-2,0c-1.2,0-1.4,0-1.6,0
		c-0.1-0.1-0.3-0.3-0.3-0.5c0-0.1,0-0.3,0.3-0.5c0.3-0.3,0.6-0.3,1.2-0.3c0.3,0,0.7-0.1,1.2-0.1c0.4-0.1,1.3-0.4,1.5-0.9
		c0.2-0.4,2.2-5.8,4.1-10.7c1.6-4.2,3.6-9.5,4.1-10.7l1.2-0.2c0.2,0.2,2.5,6,5.6,14.2c1.5,3.9,2.8,7.3,2.9,7.7
		c0.3,0.4,1,0.6,1.4,0.6c1,0.2,1.2,0.2,1.4,0.5C76.6,95.6,76.7,95.8,76.6,95.9z M51.3,96.4c-0.2,0.1-0.5,0.1-2.3,0.1
		c-1,0-2.1-0.1-3.5-0.1c-1.7,0-2.9,0.1-3.6,0.1c-0.9,0-1.4,0.1-1.8,0c-0.2-0.1-0.3-0.2-0.3-0.4c-0.1-0.2,0-0.4,0.1-0.6
		c0.2-0.3,0.5-0.3,1.1-0.4c0.3,0,0.6-0.1,1-0.1c0.5-0.1,1.7-0.5,1.7-0.8c0.1-0.8,0.2-11.4,0.2-16.5l0-1.8l-4.2,0
		c-1.2,0-1.9,0.4-2.9,1.6c-0.2,0.3-0.8,1.1-1.3,1.7c-0.3,0.3-0.7,0.6-1,0.5c-0.1,0-0.4-0.2-0.3-0.7l1.5-5.9c0-0.2,0.2-0.6,0.6-0.6
		c0.4,0,0.5,0.1,0.8,0.7l0.1,0.3c0.3,0.4,0.5,0.8,2.4,0.8l14.4,0.1c0.1,0,0.2,0,0.2-0.1c0.6-1.1,0.9-1.8,1.3-1.8
		c0.3,0,0.7,0.2,0.7,1l0,5.8c0,0.4-0.3,0.6-0.7,0.6c-0.5,0-0.6-0.4-0.9-1.6c-0.6-2.4-1.4-2.4-4.5-2.4l-2.8,0c0,1.3,0,3.5,0,5.9
		c0,5.1,0,11.4,0.2,12.4c0.1,0.4,1,0.7,1.5,0.8c0.4,0.1,0.7,0.1,0.9,0.1c0.8,0.1,1.2,0.1,1.5,0.5C51.7,95.9,51.6,96.2,51.3,96.4z
		 M33.2,91.8C33.1,92,29.7,97,22.6,97c-3.7,0-6.8-1.2-9.1-3.4c-2.2-2.2-3.5-5.3-3.5-8.6c0-3.1,1.1-6,3.2-8.2
		c2.3-2.5,5.8-3.8,9.8-3.8c3.5,0,6.6,1.3,8.9,3.6c2.2,2.2,3.4,5.1,3.4,8.2C35.4,86.7,35.2,88.8,33.2,91.8z M57.5,57.5l0,6.2h-1.7
		v-6.2H0v55.8h113.4V57.5H57.5z M61.3,84.6c0.8,0.1,3.2,0.2,5.6,0.1l-2.8-7.5L61.3,84.6z M22.6,74.4c-2.4,0-4.4,0.8-5.9,2.3
		c-2.2,2.2-3,5.6-3,8.1c0,2.4,0.8,6.1,3.2,8.4c1.5,1.5,3.3,2.2,5.4,2.2c3.1,0,5.4-1,6.9-3c1.4-1.8,2.1-4.3,2.1-7.6
		c0-3.5-0.9-6.2-2.8-8C26.6,74.8,24,74.4,22.6,74.4z"/>
</g>
</svg>
