<?xml version="1.0" encoding="utf-8"?>
<!-- Generator: Adobe Illustrator 23.0.1, SVG Export Plug-In . SVG Version: 6.00 Build 0)  -->
<svg version="1.1" id="Ebene_1" xmlns="http://www.w3.org/2000/svg" xmlns:xlink="http://www.w3.org/1999/xlink" x="0px" y="0px"
	 viewBox="0 0 286 286" style="enable-background:new 0 0 286 286;" xml:space="preserve">
<style type="text/css">
	.st0{clip-path:url(#SVGID_2_);fill:#FFFFFF;}
	.st1{clip-path:url(#SVGID_4_);fill:#FFFFFF;}
</style>
<g>
	<g>
		<defs>
			<path id="SVGID_1_" d="M80.5,92.9h26.3l6.2,5.7H80.5V92.9z M35.8,179.8l-5.3-5.7l56.4,0l-6.2,5.7H35.8z M7.1,104.9H65l-2.5,2.3
				h-53L7.1,104.9z M2,104.9h1.3l2.3,2.3H2L2,104.9L2,104.9z M2,109.4h5.7l2.3,2.2H2V109.4z M11.5,109.4h48.9l-2.3,2.2H14
				L11.5,109.4z M2,113.6h10l2.5,2.3H2V113.6z M16.1,113.6H56l-2.3,2.3H18.4L16.1,113.6z M2,118h14.4l2.3,2.2H2V118z M20.6,118h31
				l-2.5,2.2H22.9L20.6,118z M2,137.7v-2.2l32,0l2.3,2.2H2z M2,131h27.6l2.2,2.3H2V131z M2,126.7h23.3l2.3,2.2H2V126.7z M29.4,126.7
				h13.2l-2.3,2.2h-8.6L29.4,126.7z M2,122.4h18.9l2.3,2.3H2V122.4z M25,122.4h22.1l-2.5,2.3H27.3L25,122.4z M5.1,102.8l-2.5-2.2
				l60.6,0l2.5,2.2H5.1z M67.5,100.6h4.2v2.2h-2L67.5,100.6z M5.7,96.3h53.1l2.5,2.3H3.5L5.7,96.3z M63.1,96.3l8.7,0v2.3h-6.2
				L63.1,96.3z M10.2,91.9h44.2l2.5,2.3H7.9L10.2,91.9z M58.8,91.9h12.9v2.3l-10.6,0L58.8,91.9z M14.6,87.5h35.3l2.5,2.3H12.3
				L14.6,87.5z M54.4,87.5h17.4v2.3H56.7L54.4,87.5z M19.1,83.1h26.4l2.5,2.5H16.8L19.1,83.1z M49.9,83.1h21.8v2.5H52.2L49.9,83.1z
				 M23.5,78.8h17.7l2.3,2.3l-22.3,0L23.5,78.8z M45.5,78.8l26.3,0l0,2.3H47.9L45.5,78.8z M27.9,74.5h8.9l2.3,2.3H25.5L27.9,74.5z
				 M41.2,74.5l30.6,0l0,2.3H43.5L41.2,74.5z M29.9,72.5l2.5-2.5l2.3,2.5H29.9z M36.8,70h34.9l0,2.5l-32.6,0L36.8,70L36.8,70z
				 M23.5,166.7l71.6,0l-6.2,5.6h-60L23.5,166.7z M16.8,159.3l86.1,0l-6.1,5.7H22.1L16.8,159.3z M10,151.9l100.9,0l-6.2,5.7H15.3
				L10,151.9z M3.3,144.6l109.7,0v5.6l-104.6,0L3.3,144.6z M56.8,137.2H113l0,5.5l-61.9,0L56.8,137.2z M64.4,129.8l48.6,0l0,5.7
				H58.6L64.4,129.8z M71.9,122.4H113v2.3v3.3H66.2L71.9,122.4z M79.5,115.1H113v5.6H73.7L79.5,115.1z M80.5,113.2v-5.7H113v5.7
				H80.5z M80.5,106v-5.7H113v5.7H80.5z M80.5,70.6l6.6,5.6l-6.6,0V70.6z M80.5,78l8.7,0l6.6,5.7H80.5V78z M80.5,85.4l17.3,0
				l6.7,5.7l-24.1,0L80.5,85.4z M167.4,154.2h-42.4l24.2-45.1h-19.4V96.3h40.6l-24.1,45.1h21.2V154.2z M271.1,96.3H284v57.9h-12.9
				v-23.4h-17.7v23.4h-12.9V96.3h12.9v22.8h17.7V96.3z M210.1,96.3l7.1,36.3l7.6-36.3h12.9l-13.5,57.9h-12.4l-7.5-32.8l-7.2,32.8
				h-12.4l-13.6-57.9h12.9l7.3,36.2l8-36.2H210.1z"/>
		</defs>
		<clipPath id="SVGID_2_">
			<use xlink:href="#SVGID_1_"  style="overflow:visible;"/>
		</clipPath>
		<rect x="-3" y="65" class="st0" width="292" height="119.8"/>
	</g>
	<g>
		<defs>
			<path id="SVGID_3_" d="M273,216.1V206h1.3v5l5-5h1.8l-4.2,4.1l4.4,6h-1.8L276,211l-1.7,1.6v3.5H273z M264.2,210.4h2.9
				c0.6,0,1.1-0.1,1.4-0.2c0.3-0.1,0.6-0.3,0.8-0.6c0.2-0.3,0.3-0.6,0.3-0.9c0-0.5-0.2-0.9-0.5-1.2c-0.3-0.3-0.9-0.5-1.6-0.5h-3.2
				V210.4z M262.9,216.1V206h4.5c0.9,0,1.6,0.1,2,0.3c0.5,0.2,0.8,0.5,1.1,1c0.3,0.5,0.4,1,0.4,1.5c0,0.7-0.2,1.3-0.7,1.8
				s-1.2,0.8-2.1,0.9c0.4,0.2,0.6,0.3,0.8,0.5c0.4,0.4,0.8,0.8,1.1,1.3l1.8,2.7h-1.7l-1.3-2.1c-0.4-0.6-0.7-1.1-1-1.4
				s-0.5-0.5-0.7-0.7c-0.2-0.1-0.4-0.2-0.6-0.3c-0.2,0-0.4,0-0.7,0h-1.5v4.5H262.9z M253.5,216.1V206h7.3v1.2h-6v3.1h5.6v1.2h-5.6
				v3.4h6.2v1.2H253.5z M242,216.1l-2.7-10.1h1.4l1.5,6.6c0.2,0.7,0.3,1.4,0.4,2.1c0.3-1.1,0.4-1.7,0.5-1.9l1.9-6.8h1.6l1.4,5.1
				c0.4,1.3,0.6,2.5,0.8,3.6c0.1-0.6,0.3-1.4,0.5-2.2l1.6-6.5h1.3l-2.8,10.1h-1.3l-2.1-7.7c-0.2-0.6-0.3-1-0.3-1.2
				c-0.1,0.5-0.2,0.9-0.3,1.2l-2.1,7.7H242z M231.4,214.9h2.2c0.7,0,1.2-0.1,1.6-0.2c0.4-0.1,0.7-0.3,0.9-0.5
				c0.3-0.3,0.6-0.7,0.7-1.3c0.2-0.5,0.3-1.2,0.3-1.9c0-1.1-0.2-1.9-0.5-2.4c-0.3-0.6-0.8-0.9-1.3-1.1c-0.4-0.1-0.9-0.2-1.7-0.2
				h-2.1V214.9z M230,216.1V206h3.5c0.8,0,1.4,0,1.8,0.1c0.6,0.1,1.1,0.4,1.5,0.7c0.5,0.4,0.9,1,1.2,1.7c0.3,0.7,0.4,1.5,0.4,2.4
				c0,0.8-0.1,1.4-0.3,2c-0.2,0.6-0.4,1.1-0.7,1.5c-0.3,0.4-0.6,0.7-0.9,0.9c-0.3,0.2-0.7,0.4-1.2,0.5c-0.5,0.1-1,0.2-1.6,0.2H230z
				 M219.8,216.1V206h1.4l5.3,7.9V206h1.3v10.1h-1.4l-5.3-7.9v7.9H219.8z M212.3,211.9h3.4l-1.1-2.8c-0.3-0.8-0.6-1.5-0.7-2.1
				c-0.1,0.6-0.3,1.3-0.5,1.9L212.3,211.9z M209.4,216.1l3.9-10.1h1.4l4.1,10.1h-1.5l-1.2-3.1h-4.2l-1.1,3.1H209.4z M200.3,216.1
				V206h1.3v4.1h5.2V206h1.3v10.1h-1.3v-4.8h-5.2v4.8H200.3z M186.2,212.1v-1.2l4.3,0v3.7c-0.7,0.5-1.3,0.9-2,1.2
				c-0.7,0.3-1.4,0.4-2.1,0.4c-1,0-1.9-0.2-2.7-0.6c-0.8-0.4-1.4-1-1.8-1.8c-0.4-0.8-0.6-1.7-0.6-2.7c0-1,0.2-1.9,0.6-2.7
				s1-1.5,1.8-1.9c0.8-0.4,1.7-0.6,2.7-0.6c0.7,0,1.4,0.1,2,0.4c0.6,0.2,1.1,0.6,1.4,1c0.3,0.4,0.6,1,0.8,1.7l-1.2,0.3
				c-0.2-0.5-0.3-0.9-0.6-1.2c-0.2-0.3-0.5-0.5-1-0.7c-0.4-0.2-0.9-0.3-1.4-0.3c-0.6,0-1.1,0.1-1.6,0.3c-0.4,0.2-0.8,0.4-1.1,0.7
				c-0.3,0.3-0.5,0.6-0.6,1c-0.3,0.6-0.4,1.3-0.4,2c0,0.9,0.2,1.7,0.5,2.3c0.3,0.6,0.8,1.1,1.4,1.3c0.6,0.3,1.2,0.4,1.9,0.4
				c0.6,0,1.1-0.1,1.7-0.3c0.6-0.2,1-0.5,1.3-0.7v-1.9H186.2z M171.3,216.1V206h1.4l5.3,7.9V206h1.3v10.1h-1.4l-5.3-7.9v7.9H171.3z
				 M167.8,206h1.3v5.8c0,1-0.1,1.8-0.3,2.4c-0.2,0.6-0.6,1.1-1.2,1.5c-0.6,0.4-1.4,0.6-2.4,0.6c-0.9,0-1.7-0.2-2.3-0.5
				c-0.6-0.3-1-0.8-1.3-1.4c-0.3-0.6-0.4-1.5-0.4-2.5V206h1.3v5.8c0,0.9,0.1,1.5,0.2,1.9s0.4,0.7,0.8,1c0.4,0.2,0.9,0.3,1.5,0.3
				c1,0,1.7-0.2,2.1-0.7c0.4-0.4,0.6-1.3,0.6-2.6V206z M152.3,214.9h2.2c0.7,0,1.2-0.1,1.6-0.2c0.4-0.1,0.7-0.3,0.9-0.5
				c0.3-0.3,0.6-0.7,0.7-1.3c0.2-0.5,0.3-1.2,0.3-1.9c0-1.1-0.2-1.9-0.5-2.4c-0.3-0.6-0.8-0.9-1.3-1.1c-0.4-0.1-0.9-0.2-1.7-0.2
				h-2.1V214.9z M151,216.1V206h3.5c0.8,0,1.4,0,1.8,0.1c0.6,0.1,1.1,0.4,1.5,0.7c0.5,0.4,0.9,1,1.2,1.7c0.3,0.7,0.4,1.5,0.4,2.4
				c0,0.8-0.1,1.4-0.3,2s-0.4,1.1-0.7,1.5c-0.3,0.4-0.6,0.7-0.9,0.9c-0.3,0.2-0.7,0.4-1.2,0.5c-0.5,0.1-1,0.2-1.6,0.2H151z
				 M143.1,216.1V206h1.3v8.9h5v1.2H143.1z M139.5,216.1V206h1.3v10.1H139.5z M131.1,214.9h2.5c0.4,0,0.7,0,0.9,0
				c0.3-0.1,0.6-0.1,0.8-0.3c0.2-0.1,0.4-0.3,0.5-0.6c0.1-0.2,0.2-0.5,0.2-0.8c0-0.4-0.1-0.7-0.3-1s-0.5-0.5-0.8-0.6
				s-0.8-0.2-1.5-0.2h-2.3V214.9z M131.1,210.2h2.2c0.6,0,1,0,1.3-0.1c0.3-0.1,0.6-0.3,0.8-0.5c0.2-0.2,0.3-0.5,0.3-0.9
				c0-0.3-0.1-0.6-0.2-0.9c-0.2-0.3-0.4-0.4-0.7-0.5s-0.8-0.1-1.5-0.1h-2V210.2z M129.8,216.1V206h3.8c0.8,0,1.4,0.1,1.9,0.3
				c0.5,0.2,0.8,0.5,1.1,0.9c0.3,0.4,0.4,0.9,0.4,1.3c0,0.4-0.1,0.8-0.4,1.2c-0.2,0.4-0.6,0.7-1.1,0.9c0.6,0.2,1.1,0.5,1.4,0.9
				c0.3,0.4,0.5,0.9,0.5,1.5c0,0.5-0.1,0.9-0.3,1.3c-0.2,0.4-0.4,0.7-0.7,0.9c-0.3,0.2-0.7,0.4-1.1,0.5c-0.4,0.1-1,0.2-1.6,0.2
				H129.8z M121,210.4h2.9c0.6,0,1.1-0.1,1.4-0.2c0.3-0.1,0.6-0.3,0.8-0.6c0.2-0.3,0.3-0.6,0.3-0.9c0-0.5-0.2-0.9-0.5-1.2
				c-0.3-0.3-0.9-0.5-1.6-0.5H121V210.4z M119.7,216.1V206h4.5c0.9,0,1.6,0.1,2,0.3c0.5,0.2,0.8,0.5,1.1,1c0.3,0.5,0.4,1,0.4,1.5
				c0,0.7-0.2,1.3-0.7,1.8c-0.5,0.5-1.2,0.8-2.1,0.9c0.4,0.2,0.6,0.3,0.8,0.5c0.4,0.4,0.8,0.8,1.1,1.3l1.8,2.7h-1.7l-1.3-2.1
				c-0.4-0.6-0.7-1.1-1-1.4c-0.3-0.3-0.5-0.5-0.7-0.7c-0.2-0.1-0.4-0.2-0.6-0.3c-0.2,0-0.4,0-0.7,0H121v4.5H119.7z M110.3,216.1V206
				h7.3v1.2h-6v3.1h5.6v1.2h-5.6v3.4h6.2v1.2H110.3z M104.2,216.1v-8.9h-3.3V206h8v1.2h-3.3v8.9H104.2z M98,216.1V206h1.3v10.1H98z
				 M88.4,216.1V206h7.3v1.2h-6v3.1h5.6v1.2h-5.6v3.4h6.2v1.2H88.4z M76.8,216.1L74.2,206h1.4l1.5,6.6c0.2,0.7,0.3,1.4,0.4,2.1
				c0.3-1.1,0.4-1.7,0.5-1.9l1.9-6.8h1.6l1.4,5.1c0.4,1.3,0.6,2.5,0.8,3.6c0.1-0.6,0.3-1.4,0.5-2.2l1.6-6.5h1.3l-2.8,10.1h-1.3
				l-2.1-7.7c-0.2-0.6-0.3-1-0.3-1.2c-0.1,0.5-0.2,0.9-0.3,1.2l-2.1,7.7H76.8z M62.8,216.1v-8.9h-3.3V206h8v1.2h-3.3v8.9H62.8z
				 M51.7,216.1V206h6.8v1.2H53v3.1h4.7v1.2H53v4.6H51.7z M41.4,216.1V206h1.4l5.3,7.9V206h1.3v10.1H48l-5.3-7.9v7.9H41.4z
				 M37.9,206h1.3v5.8c0,1-0.1,1.8-0.3,2.4c-0.2,0.6-0.6,1.1-1.2,1.5c-0.6,0.4-1.4,0.6-2.4,0.6c-0.9,0-1.7-0.2-2.3-0.5
				c-0.6-0.3-1-0.8-1.3-1.4c-0.3-0.6-0.4-1.5-0.4-2.5V206h1.3v5.8c0,0.9,0.1,1.5,0.2,1.9c0.2,0.4,0.4,0.7,0.8,1
				c0.4,0.2,0.9,0.3,1.5,0.3c1,0,1.7-0.2,2.1-0.7c0.4-0.4,0.6-1.3,0.6-2.6V206z M21.8,216.1V206h1.3v5l5-5H30l-4.2,4.1l4.4,6h-1.8
				l-3.6-5.1l-1.7,1.6v3.5H21.8z M18.3,206h1.3v5.8c0,1-0.1,1.8-0.3,2.4c-0.2,0.6-0.6,1.1-1.2,1.5c-0.6,0.4-1.4,0.6-2.4,0.6
				c-0.9,0-1.7-0.2-2.3-0.5c-0.6-0.3-1-0.8-1.3-1.4c-0.3-0.6-0.4-1.5-0.4-2.5V206H13v5.8c0,0.9,0.1,1.5,0.2,1.9
				c0.2,0.4,0.4,0.7,0.8,1c0.4,0.2,0.9,0.3,1.5,0.3c1,0,1.7-0.2,2.1-0.7c0.4-0.4,0.6-1.3,0.6-2.6V206z M2.3,216.1v-1.2l5.2-6.5
				c0.4-0.5,0.7-0.9,1-1.2H2.9V206h7.2v1.2l-5.7,7l-0.6,0.7h6.4v1.2H2.3z"/>
		</defs>
		<clipPath id="SVGID_4_">
			<use xlink:href="#SVGID_3_"  style="overflow:visible;"/>
		</clipPath>
		<rect x="-2.7" y="200.8" class="st1" width="289.1" height="20.4"/>
	</g>
</g>
</svg>
