<?xml version="1.0" encoding="utf-8"?>
<!-- Generator: Adobe Illustrator 22.1.0, SVG Export Plug-In . SVG Version: 6.00 Build 0)  -->
<svg version="1.1" id="Ebene_1" xmlns="http://www.w3.org/2000/svg" xmlns:xlink="http://www.w3.org/1999/xlink" x="0px" y="0px"
	 viewBox="0 0 40 40" style="enable-background:new 0 0 40 40;" xml:space="preserve">
<title>icon/star-filled-blue</title>
<desc>Created with Sketch.</desc>
<g id="path-1_1_">
	<g>
		<path d="M13.9,29.5c-0.3,0-0.6-0.1-0.8-0.2c-0.5-0.3-0.8-0.9-0.7-1.5l1.1-6.2L9,17.4c-0.4-0.4-0.6-1-0.4-1.6s0.7-0.9,1.3-1l6-1
			l2.8-5.6c0.3-0.5,0.8-0.8,1.3-0.8s1.1,0.3,1.3,0.8l2.8,5.6l6.1,0.9c0.5,0.1,1,0.4,1.2,0.9c0.2,0.5,0.1,1.2-0.2,1.6l-4.4,4.4
			l1.1,6.1c0.1,0.6-0.1,1.1-0.6,1.4c-0.4,0.4-1,0.4-1.6,0.2l-5.5-2.9l-5.5,2.9C14.4,29.5,14.2,29.5,13.9,29.5z M20,8.5
			c-0.1,0-0.3,0-0.5,0.3l-3,6l-6.6,1c-0.3,0-0.4,0.2-0.5,0.3c-0.1,0.2,0,0.4,0.1,0.5l4.9,4.6l-1.1,6.7c0,0.2,0.1,0.4,0.3,0.6
			c0.1,0,0.3,0.2,0.5,0l5.9-3.1l5.9,3.1c0.2,0.1,0.4,0,0.6-0.1c0.2-0.1,0.2-0.3,0.2-0.5l-1.1-6.6l4.8-4.7c0.1-0.1,0.1-0.4,0.1-0.6
			c0-0.1-0.1-0.3-0.4-0.3l-6.7-0.9l-3-6C20.3,8.5,20.1,8.5,20,8.5z"/>
	</g>
</g>
</svg>
