<?xml version="1.0" encoding="utf-8"?>
<!-- Generator: Adobe Illustrator 22.1.0, SVG Export Plug-In . SVG Version: 6.00 Build 0)  -->
<svg version="1.1" id="Ebene_1" xmlns="http://www.w3.org/2000/svg" xmlns:xlink="http://www.w3.org/1999/xlink" x="0px" y="0px"
	 viewBox="0 0 1719 3146.6" style="enable-background:new 0 0 1719 3146.6;" xml:space="preserve">
<style type="text/css">
	.st0{opacity:0.15;fill:#FFFFFF;enable-background:new    ;}
</style>
<path class="st0" d="M1077.1,110.7c-33.6-0.7-45.3,5.5-75.8,14.4c-12.4,3.6-54.4,1.4-54.9,23.4c-0.6,25.2,99.1,119.9,157.4,105
	c55.5-14.6,69.1-14.6,54.9,52.8c-35.2,190.6-105.8,404.1-72.8,456.5c42.1,59.9,79.6,60.6,125.8,118.4c52.6,57.2,101.4,76.1,95.4-3.5
	c-9.5-132.5-11-230.9-0.7-362.8c2.8-35.5-1.7-99.7,71.5-74.2c15.9,5.5,38.1,4.1,55.6-1.2c82.1-24.8,128.4-73.6,208.3-73.3
	c78.9,0.4,64.4-42.8,75.1-80.3c6.6-23-0.8-28.7-25.8-31.6c-109.5-12.5-217.2-33.2-315.6-78c-45.4-20.7-107.4-42.4-50-106.2
	c15-16.6,8.1-41.8-13.8-57.3c-15.5-11.1-36.7-18.5-52.6-7c-17.8,12.8-31.7,35.5-21.6,54.6c18.9,35.7-11.6,69.4-27.9,76.8
	C1143.1,164.1,1109.6,111.4,1077.1,110.7z"/>
<path class="st0" d="M891.8,1206.9c2.6,20.8,72.5,53.3,102.4,54.1c33.3,0.9,86.5-44.2,91-47.4c81-58.1,90.3-71.5,186.2-99.9
	c35.4-10.5,31.9-84,16.2-102.8c-17.6-22-81.9-54-120.6-102.3c-27.3-34.2-84.6-91.9-107.4-91.2c-14.7,0.4-21.4,25.1-25.3,39.7
	c-14.5,53.2-17.7,94.2-38.2,152.5C974.2,1093.5,890.7,1165.9,891.8,1206.9z"/>
<path class="st0" d="M286.1,2090.6c28.8,33.6,131.3,151.8,108.3,206.5c-27.1,64-63,102.9-102,161.8c-29.2,44.1-56,88.8-57.9,141.6
	c-0.9,24.8-8.6,60.3-9.8,81.8c-2.1,37.2-2,74.4-1.9,111.6c0.2,66.7,4.3,134.1-0.1,200.8c-0.9,13.7-0.7,133.7-42.5,142.3
	c-33.4,6.9-54.6-39.9-57.5-70.3c-13.3-142.5-35.3-279.5-119.1-443.4c-16.6-32.4,28.4-133.5,46.7-194.5
	c18.6-61.9-12.4-139.8-23.9-201.7c-12-64.9-17.6-133.2-13.7-199c3.8-62.2,46.7-101.7,90.7-147.8c26.5-27.8,83.7-103.7,133.5-94.8
	c42.5,7.6,12.6,109.6,9.7,139.6C240.3,1990,242,2038.7,286.1,2090.6z"/>
<path class="st0" d="M841.9,1818.6c1.2,29.2-56.1,165.5-90.2,247.1c-40.2,96.5-43,123.9-158.9,139.6
	c-137.4,18.6-144.2,23.6-212.7-83.5c-15-23.2-36.5-48.6-56.6-74.7c-46-59.7-15.6-172.4-9.1-243.1c8.2-90.8,66.9-137.9,145.1-192.6
	c103.6-72.6,133.5-51.6,228,55C739.3,1724.9,838.8,1745.3,841.9,1818.6z"/>
<path class="st0" d="M1181.6,2797c-16.1-71.3-35.4-150.1-36.4-222.5c-0.9-69.4-4.5-109.1,13-175.3c14.5-54.7,31.3-171.6,40.8-273.4
	c0.8-6.9,1.4-14.1,1.7-21.5c1.6-22.8,2.7-130.9,4.7-148.9c7.5-66.8,32.6-82.3,32.6-132.4c0-27-24.9-43.1-38.7-51.1
	c-103.5-60.5-134.1-70.7-156.7-39.8c-59.8,81.8-126.4,86.9-151.6,135.7l0,0c-35.6,54.1-65.7,148.2-73.8,168.8
	c-28.3,72.1-62,109.4-32.7,179.1c26.2,62.1,101,102.1,123.3,254.6c8.5,58.1,15.6,103.4,28.3,161.7c6.3,29.4,22,71.3,39.5,96.2
	c22.7,32.4,43.6,65.8,62.5,100.1c37.9,68.9,67,140.9,91.7,214.1c5.9,17.2,59.6,150.4,97.1,87.4c20.8-35,7-88.1,0.2-125.1
	C1214.2,2934.9,1197.1,2866.2,1181.6,2797z"/>
<path class="st0" d="M1264.8,1553.6c-5.2,80.9-12.9,197-74.6,158.2c-56.1-35.3-99-63.9-142.9-52c-35.9,9.7-49.6,41.1-68.2,58.8
	c-35.4,33.8-54.7,58.8-82.6,51.6c-20.6-5.3-37.9-32.7-59.4-55.2c-33.6-35.2-83.8-56.7-116.1-86c-73.4-66.7-123-113.5-90.2-138.8
	c76.7-76.1,103.2-109.2,171.5-191.4c32.7-39.3,45.1-53.1,109.1-22.9c26.7,12.6,50.9,21.3,83.7,30.4c41.6,11.6,51-0.9,98.8-40.7
	c29.9-24.9,120.4-104.8,167.8-95.4C1327.8,1183.3,1279.2,1325.2,1264.8,1553.6z"/>
</svg>
