<?xml version="1.0" encoding="utf-8"?>
<!-- Generator: Adobe Illustrator 24.1.2, SVG Export Plug-In . SVG Version: 6.00 Build 0)  -->
<svg version="1.1" id="Ebene_1" xmlns="http://www.w3.org/2000/svg" xmlns:xlink="http://www.w3.org/1999/xlink" x="0px" y="0px"
	 viewBox="0 0 1000 700.9" style="enable-background:new 0 0 1000 700.9;" xml:space="preserve">
<style type="text/css">
	.st0{display:none;}
	.st1{display:inline;}
	.st2{fill:#4A668B;}
	.st3{clip-path:url(#SVGID_1_);fill:#C35A1F;}
	.st4{clip-path:url(#SVGID_2_);fill:#D98708;}
	.st5{clip-path:url(#SVGID_3_);fill:#DBB956;}
	.st6{clip-path:url(#SVGID_4_);fill:#86B15E;}
	.st7{clip-path:url(#SVGID_5_);fill:#5F7E4F;}
</style>
<g id="Ebene_2_1_" class="st0">
	<g class="st1">
		<polyline class="st2" points="0,577 0,0 1000,0 1000,577 		"/>
	</g>
</g>
<g>
	<defs>
		<path id="SVGID_11_" d="M42.1,126.6c0,0,157.7,15.3,54.6,220.5C53,433.9,162.7,487.4,270.3,465c44.2-9.3,129.9-31.7,172.5-46.9
			c63.9-22.9,202.5-94.4,251.1-41.5c65,71,23.5,129.9,105.9,229.8c63.9,77,159.9,91.2,200.3,93.3V33.8C1000,15.3,984.7,0,966.2,0
			H62.3C43.7,0,28.5,15.3,28.5,33.8v92.2L42.1,126.6z"/>
	</defs>
	<clipPath id="SVGID_1_">
		<use xlink:href="#SVGID_11_"  style="overflow:visible;"/>
	</clipPath>
	<rect x="805.7" y="-129.9" class="st3" width="198.1" height="854.7"/>
</g>
<g>
	<defs>
		<path id="SVGID_13_" d="M42.1,126.6c0,0,157.7,15.3,54.6,220.5C53,433.9,162.7,487.4,270.3,465c44.2-9.3,129.9-31.7,172.5-46.9
			c63.9-22.9,202.5-94.4,251.1-41.5c65,71,23.5,129.9,105.9,229.8c63.9,77,159.9,91.2,200.3,93.3V33.8C1000,15.3,984.7,0,966.2,0
			H62.3C43.7,0,28.5,15.3,28.5,33.8v92.2L42.1,126.6z"/>
	</defs>
	<clipPath id="SVGID_2_">
		<use xlink:href="#SVGID_13_"  style="overflow:visible;"/>
	</clipPath>
	<rect x="610.3" y="-129.9" class="st4" width="198.1" height="854.7"/>
</g>
<g>
	<defs>
		<path id="SVGID_15_" d="M42.1,126.6c0,0,157.7,15.3,54.6,220.5C53,433.9,162.7,487.4,270.3,465c44.2-9.3,129.9-31.7,172.5-46.9
			c63.9-22.9,202.5-94.4,251.1-41.5c65,71,23.5,129.9,105.9,229.8c63.9,77,159.9,91.2,200.3,93.3V33.8C1000,15.3,984.7,0,966.2,0
			H62.3C43.7,0,28.5,15.3,28.5,33.8v92.2L42.1,126.6z"/>
	</defs>
	<clipPath id="SVGID_3_">
		<use xlink:href="#SVGID_15_"  style="overflow:visible;"/>
	</clipPath>
	<rect x="414.9" y="-129.9" class="st5" width="198.1" height="854.7"/>
</g>
<g>
	<defs>
		<path id="SVGID_17_" d="M42.1,126.6c0,0,157.7,15.3,54.6,220.5C53,433.9,162.7,487.4,270.3,465c44.2-9.3,129.9-31.7,172.5-46.9
			c63.9-22.9,202.5-94.4,251.1-41.5c65,71,23.5,129.9,105.9,229.8c63.9,77,159.9,91.2,200.3,93.3V33.8C1000,15.3,984.7,0,966.2,0
			H62.3C43.7,0,28.5,15.3,28.5,33.8v92.2L42.1,126.6z"/>
	</defs>
	<clipPath id="SVGID_4_">
		<use xlink:href="#SVGID_17_"  style="overflow:visible;"/>
	</clipPath>
	<rect x="219.5" y="-129.9" class="st6" width="198.1" height="854.7"/>
</g>
<g>
	<defs>
		<path id="SVGID_19_" d="M42.1,126.6c0,0,157.7,15.3,54.6,220.5C53,433.9,162.7,487.4,270.3,465c44.2-9.3,129.9-31.7,172.5-46.9
			c63.9-22.9,202.5-94.4,251.1-41.5c65,71,23.5,129.9,105.9,229.8c63.9,77,159.9,91.2,200.3,93.3V33.8C1000,15.3,984.7,0,966.2,0
			H62.3C43.7,0,28.5,15.3,28.5,33.8v92.2L42.1,126.6z"/>
	</defs>
	<clipPath id="SVGID_5_">
		<use xlink:href="#SVGID_19_"  style="overflow:visible;"/>
	</clipPath>
	<rect x="23.5" y="-129.9" class="st7" width="198.1" height="854.7"/>
</g>
</svg>
