<?xml version="1.0" encoding="utf-8"?>
<!-- Generator: Adobe Illustrator 23.1.1, SVG Export Plug-In . SVG Version: 6.00 Build 0)  -->
<svg version="1.1" id="Ebene_1" xmlns="http://www.w3.org/2000/svg" xmlns:xlink="http://www.w3.org/1999/xlink" x="0px" y="0px"
	 viewBox="0 0 357 313.9" style="enable-background:new 0 0 357 313.9;" xml:space="preserve">
<style type="text/css">
	.st0{fill:#FFFFFF;}
</style>
<path class="st0" d="M253.7,96.8c-2.1,0-3.8,1.7-3.8,3.8s1.7,3.8,3.8,3.8s3.8-1.7,3.8-3.8S255.8,96.8,253.7,96.8z"/>
<path class="st0" d="M167,118.8c-0.4,1.5,0.8,2.9,2.3,2.9h15.3c1.6,0,3-0.8,3.9-2l27.8-40.1c5.3-7.8,13.4-12.2,20.6-12
	c8.3,0.2,16.4,2.9,23.4,7.8c0.1,0.1,0.2,0.2,0.4,0.2c0.8,0.4,2.1-2,2.9-5.3l4.2-17.4c0.4-1.5-0.8-2.9-2.3-2.9h-35.6
	c-3.3,0-5.9,0-5.7,0.1c-7.2-0.2-15.3,4.2-20.6,12l-33,48.7C168.7,113.4,167.7,116,167,118.8z"/>
<path class="st0" d="M106.8,83c20.4,0.4,36.3,16.9,37.1,37.2c0,0.8,0.7,1.5,1.5,1.5l7.7-0.2c0.6,0,1.2-0.5,1.2-1.2
	c-0.6-25.7-21.4-46.5-47.1-47.1c-0.6,0-1.2,0.5-1.2,1.2v7.8C106,82.6,106.3,83,106.8,83z"/>
<path class="st0" d="M106.8,67.9c27.4,0.4,49.9,23,52.6,49.8c0.1,0.8,1.2,1,1.6,0.3l6.5-11.5c0.6-1,0.7-2.2,0.4-3.3
	c-7.8-26.4-32.2-45.9-61-46.3c-0.5,0-0.9,0.4-0.9,0.9V67C106,67.5,106.3,67.9,106.8,67.9z"/>
<path class="st0" d="M106.9,51.9c29.6,0.4,54.8,19.4,64.4,45.8c0.3,0.8,1.3,0.9,1.8,0.2l5.9-9.2c0.2-0.3,0.2-0.6,0.1-1
	C166.5,60.5,138.9,41.4,107,41c-0.5,0-1,0.4-1,1v9C106,51.5,106.4,51.9,106.9,51.9z"/>
<path class="st0" d="M293.7,125.2l-24-31.7c-0.2-0.2-0.3-0.5-0.5-0.8c-1.2-2.3-3.3-4.2-4.5-5.9c-1.6-2.2-3.6-4.1-5.9-5.7l-5-3.4
	c-10.9-7.4-26-4.5-33.4,6.5L192,126.1h-86.5c-8,0-14.6,6.6-14.6,14.6v73.8c0,0.1,0,0.2,0,0.3c0,0.1,0,0.2,0,0.3v31
	c0,3.3,2.7,6.1,6.1,6.1h5.4c3.3,0,6.1-2.7,6.1-6.1v-17h19.6l4.3,19.1c0.7,3.3,4,5.3,7.3,4.6l7.6-1.7c3.3-0.7,5.3-4,4.6-7.3
	l-3.3-14.7h62.1v17c0,3.3,2.7,6.1,6.1,6.1h6c3.3,0,6.1-2.7,6.1-6.1v-17h13.8v17c0,3.3,2.7,6.1,6.1,6.1h5.7c3.3,0,6.1-2.7,6.1-6.1
	v-31c0-0.6-0.1-1.2-0.2-1.7v-72.7c0-1.5-0.2-2.9-0.6-4.3l18.4,8.4c2.7,1.2,5.9,0.5,7.8-1.8l7.9-9.7
	C295.4,131,295.5,127.6,293.7,125.2z M144.7,200.7h-32.4v-45.4h31.8v10.9h-19.3v6.4h16.5v10.1h-16.5v7.2h19.9V200.7z M188.9,200.7
	h-13.4l-7.7-13.7l-7.7,13.7h-13.5l14.7-22.4l-15.2-23h13.5l8.3,14.3l8.3-14.3h13.4l-15.2,23L188.9,200.7z M205,200.7h-12.5v-45.4
	H205V200.7z M248.2,166.1h-13.1v34.6h-12.5v-34.6h-13.1v-10.9h38.7V166.1z M250.5,113.4c-7,0-12.8-5.7-12.8-12.8
	c0-7,5.7-12.8,12.8-12.8c7,0,12.8,5.7,12.8,12.8C263.3,107.6,257.6,113.4,250.5,113.4z"/>
</svg>
