<?xml version="1.0" encoding="utf-8"?>
<!-- Generator: Adobe Illustrator 23.0.1, SVG Export Plug-In . SVG Version: 6.00 Build 0)  -->
<svg version="1.0" id="news" xmlns="http://www.w3.org/2000/svg" xmlns:xlink="http://www.w3.org/1999/xlink" x="0px" y="0px"
	 viewBox="0 0 32 32" style="enable-background:new 0 0 32 32;" xml:space="preserve">
    <path style="fill: currentColor" d="M20,24c0,2.3-1.8,4.2-4,4.2s-4-1.9-4-4.2"/>
    <g id="XMLID_1_">
        <g>
            <path d="M9.7,6.5c1.1-1.8,3.2-2.7,6.2-2.7s5,0.9,6.2,2.7c0.9,1.3,1.2,3.1,1.3,5.5c0,0.5,0,1,0,2c0,0.8,0,1.1,0,1.6
                c0,2.7,1,5,3,7.1l1.4,1.6h-7.9c0,2.3-1.9,4-4.1,4s-4-1.8-4.1-4H4l1.4-1.6c2-2.1,3-4.4,3-7.1c0-0.4,0-0.7,0-1.6c0-0.9,0-1.4,0-2
                C8.5,9.6,8.8,7.8,9.7,6.5z"/>
        </g>
    </g>
    <line x1="11.8" y1="24.2" x2="20.1" y2="24.2"/>
</svg>
