<?xml version="1.0" encoding="UTF-8" standalone="no"?>
<!DOCTYPE svg PUBLIC "-//W3C//DTD SVG 1.1//EN" "http://www.w3.org/Graphics/SVG/1.1/DTD/svg11.dtd">
    <svg width="100%" height="100%" viewBox="0 0 100 100" version="1.1" xmlns="http://www.w3.org/2000/svg" xmlns:xlink="http://www.w3.org/1999/xlink" xml:space="preserve" xmlns:serif="http://www.serif.com/" style="fill-rule:evenodd;clip-rule:evenodd;stroke-linejoin:round;stroke-miterlimit:2;">
        <rect x="0" y="0" width="100" height="100" style="fill:none;fill-rule:nonzero;"/>
        <circle cx="50.068" cy="49.995" r="42.22" style="fill:#ebebeb;"/>
        <path d="M49.958,8.333c-23,0 -41.625,18.667 -41.625,41.667c0,23 18.625,41.667 41.625,41.667c23.042,-0 41.709,-18.667 41.709,-41.667c-0,-23 -18.667,-41.667 -41.709,-41.667Zm28.875,25l-12.291,0c-1.334,-5.208 -3.25,-10.208 -5.75,-14.833c7.666,2.625 14.041,7.958 18.041,14.833Zm-28.833,-16.5c3.458,5 6.167,10.542 7.958,16.5l-15.916,0c1.791,-5.958 4.5,-11.5 7.958,-16.5Zm-32.25,41.5c-0.667,-2.666 -1.083,-5.458 -1.083,-8.333c-0,-2.875 0.416,-5.667 1.083,-8.333l14.083,-0c-0.333,2.75 -0.583,5.5 -0.583,8.333c0,2.833 0.25,5.583 0.583,8.333l-14.083,0Zm3.417,8.334l12.291,-0c1.334,5.208 3.25,10.208 5.75,14.833c-7.666,-2.625 -14.041,-7.917 -18.041,-14.833Zm12.291,-33.334l-12.291,0c4,-6.916 10.375,-12.208 18.041,-14.833c-2.5,4.625 -4.416,9.625 -5.75,14.833Zm16.542,49.834c-3.458,-5 -6.167,-10.542 -7.958,-16.5l15.916,-0c-1.791,5.958 -4.5,11.5 -7.958,16.5Zm9.75,-24.834l-19.5,0c-0.375,-2.75 -0.667,-5.5 -0.667,-8.333c0,-2.833 0.292,-5.625 0.667,-8.333l19.5,-0c0.375,2.708 0.667,5.5 0.667,8.333c-0,2.833 -0.292,5.583 -0.667,8.333Zm1.042,23.167c2.5,-4.625 4.416,-9.625 5.75,-14.833l12.291,-0c-4,6.875 -10.375,12.208 -18.041,14.833Zm7.375,-23.167c0.333,-2.75 0.583,-5.5 0.583,-8.333c0,-2.833 -0.25,-5.583 -0.583,-8.333l14.083,-0c0.667,2.666 1.083,5.458 1.083,8.333c0,2.875 -0.416,5.667 -1.083,8.333l-14.083,0Z" 
            style="
                fill: rgba(0,0,0,.7);
                fill-rule:nonzero;"/>
    </svg>