<?xml version="1.0" encoding="utf-8"?>
<!-- Generator: Adobe Illustrator 22.1.0, SVG Export Plug-In . SVG Version: 6.00 Build 0)  -->
<svg version="1.1" id="Ebene_1" xmlns="http://www.w3.org/2000/svg" xmlns:xlink="http://www.w3.org/1999/xlink" x="0px" y="0px"
	 viewBox="0 0 2208 2208" style="enable-background:new 0 0 2208 2208;" xml:space="preserve">
<style type="text/css">
	.st0{fill:url(#SVGID_1_);}
	.st1{opacity:0.11;clip-path:url(#SVGID_3_);fill:#FFFFFF;}
</style>
<radialGradient id="SVGID_1_" cx="1.0065" cy="2208.0132" r="1.0001" gradientTransform="matrix(1633.1898 0 0 -1633.1898 -1637.0596 3606114.25)" gradientUnits="userSpaceOnUse">
	<stop  offset="0" style="stop-color:#EE7326"/>
	<stop  offset="0.3546" style="stop-color:#F38E15"/>
	<stop  offset="0.756" style="stop-color:#F7A706"/>
	<stop  offset="1" style="stop-color:#F9B000"/>
</radialGradient>
<rect x="0" y="0" class="st0" width="2208" height="2208"/>
<g>
	<defs>
		<rect id="SVGID_2_" width="2208" height="2208"/>
	</defs>
	<clipPath id="SVGID_3_">
		<use xlink:href="#SVGID_2_"  style="overflow:visible;"/>
	</clipPath>
	<path class="st1" d="M132-1686.5c-34.4-11.6-102.7-73.4-71.9-149.4c16.4-40.5-16.2-83.5-54.6-105.7c-34.4-19.9-75.6-0.7-104.7,24.8
		c-41,35.8-49.7,87.9-16.2,118.4c128.8,117.1,8.3,173.5-79.2,224.5c-189.4,110.4-402.6,174.2-620.8,221.9
		c-49.9,10.9-63.6,24-45.7,68.9c29.3,73.5,8.7,163.5,167.8,146.8c161.2-16.9,264.6,72.2,435.3,105.3c36.4,7.1,81.5,5.5,112.5-9
		C-3.2-1106.3,1-975.9,13.9-904.8c47.7,264.1,64.7,462.9,72.6,732.2C90.6-10.8,185.3-58.9,279.7-185c81.4-126,156.9-135,229.6-264.6
		c55.9-112.4-130.2-528.8-240.1-906.2c-42.4-133-14.9-135.9,100-117.8c120.6,18.2,302.4-193.2,296.2-243.9
		c-5.5-44.3-89.7-31.2-115.5-36c-63.4-11.7-88.3-21.9-155.8-13.6C328.6-1759,271.7-1645.8,132-1686.5z M741,30.1
		c-53.2-113.5-68-195.5-108.2-300c-10.9-28.6-29.4-77.1-59.1-75c-46.1,3.3-150,131.4-198.2,205.9C307.3-33.7,184.1,44,153.1,92.1
		c-27.9,41.1-19.8,190.1,53.7,204.1c199.3,37.8,220.8,63,396,163.5c9.7,5.6,126.3,85.7,193.2,77c60.2-7.8,194.6-87.6,195.5-130.1
		C985.4,324,802.2,195,741,30.1z M2440,1724.4c-12-59.9-93.1-259.6-9-283.6c98.6-28.1,229.7,113.4,288.8,164
		c98.3,84.1,192.9,155,213.1,279.8c21.4,132.1,23.9,270.9,12.9,404.4c-10.5,127.2-57.2,290.7-7.1,411.9
		c49.3,119.5,160.8,314.1,133.9,382.9c-135.7,347.7-152,628.8-149.9,918.9c0.4,61.9-32.8,160.6-101.7,153.6
		c-86-8.9-110.3-250.9-114.8-278.5c-22.4-133.7-28-270.4-41.2-405.2c-7.4-75.1-14.7-150.2-26.6-224.7
		c-6.9-43.1-29.6-113.2-36.5-163.1c-14.7-106.1-77.8-190.9-145.7-273.9c-90.8-110.9-171.2-182-238.8-305.7
		c-57.6-105.6,125.2-365.2,176.3-438.8C2472.5,1952.7,2466,1854,2440,1724.4z M1497.8,1292.4c168.9-234.4,225-282.8,448.8-157.6
		c168.9,94.4,297,177.4,332.2,359.1c27.5,141.4,111.8,362.5,31.3,492.3c-35.2,56.7-73.5,112.3-98.9,162.3
		c-116.4,230-131.1,221.4-412.1,211.9c-237.1-8-248.2-62.8-349.1-249.2c-85.4-157.8-229-421.1-232.5-480.2
		C1208.6,1482.5,1405.1,1420.9,1497.8,1292.4z M682,4102.8c-6.2,75.9-23.2,186.1,26,252.5c88.6,119.4,169.8-160.4,178-196.2
		c35-152.7,78.9-304,141.2-450.6c31.1-73,66.4-144.7,105.8-214.8c30.2-53.9,53.3-141.6,60.2-202.1c13.6-120.2,18.8-213.2,24.1-332
		c13.9-312.3,156.6-408.3,196.7-538.9c45-146.6-30.7-215.1-102.5-354.7c-20.5-39.9-100.5-223.6-183.4-325.5l0-0.1
		c-60.8-93.3-196.2-90.1-333.6-242.9c-51.9-57.7-111.6-30.9-308,112.2c-26.1,19-73.1,56.5-67.6,111c10.2,101,64.1,127.2,92.9,260.5
		c7.7,35.9,32,253.9,39.9,299.5c2.2,15,4.9,29.3,7.9,43.1c39.9,203.5,97.7,435.9,138,543.3c48.8,130.1,49.7,210.8,62,350.9
		c12.9,146.3-10.1,309.3-28,456.3C714.4,3817.4,693.8,3959.5,682,4102.8z M437.4-1372.9 M237.9,408.5
		c73.2-65.2,292.6,114,358.1,158.2c104.5,70.5,126,93.8,207.7,62c64.3-25,111.5-47.6,162.7-78.4c123.1-73.9,150.8-48.6,224.7,24
		c154.6,151.8,214.9,213.3,385.2,351.3c71.3,44.4-19.1,149-153.6,298.5c-59.1,65.8-156.1,119.3-216.7,197.2
		c-38.8,49.9-68.2,108.6-108.6,123.6c-54.7,20.3-98.9-26.2-177.3-87.2c-41-32-75.3-92.5-149.5-104.8c-90.9-15.1-287,124.8-393,207.4
		c-116.5,90.9-321.8-216.3-182.8-304.1C594.9,1003.7-157.1,760.3,237.9,408.5z M2205.6-557.1c32.1,92.6-103.1,296.6-144.9,363.7
		c-66.6,107.1-89,129.4-54.3,209.9c27.4,63.3,51.7,109.6,84.3,159.7c78.4,120.3,54.1,148.9-15.7,225.5
		c-146,160.2-205.2,222.6-336.8,397.9c-41.7,72.9-149.6-13.6-304-142.4c-67.9-56.6-125-151.6-205.1-209.2
		c-51.3-36.9-111.1-64.1-127.5-104c-22.3-54,22.5-99.8,80.6-180.4c30.4-42.2,89.6-78.6,99.2-153.3c11.7-91.4-57.7-169.7-144.3-272.5
		c-95.1-113,136-160.9,297.1-193.9C1889.5-549.1,2160.8-686.4,2205.6-557.1z M1112.6-77.8c-13.4,59.6-20.6,275.1-107.2,262.7
		c-101.5-14.5-163.6-197.1-197-267.4c-55.5-116.9-113-220.1-80.7-342.3C761.8-554.1,816-682,880.5-799.4
		c61.4-111.9,170.6-242.2,174.2-373.3c3.6-129.2-19-352.4,33.6-404.2c265.5-262.4,394.8-512.4,511-778.3
		c24.8-56.7,95.4-133.4,155.4-98.8c75,43.1-1.4,274.1-8.5,301.1c-33.9,131.2-84.5,258.4-127.3,386.9
		c-23.8,71.6-47.7,143.2-67.2,216.1c-11.3,42.2-19.1,115.5-33.1,163.9c-29.8,102.9-6.7,206.1,21.6,309.5
		c37.8,138.2,82.3,235.9,93.6,376.4c9.6,119.9-263,282.6-339.7,329C1175.9-299.7,1141.6-206.8,1112.6-77.8z M-152.4,2129
		c-76.7-46.4-349.3-209.1-339.7-329c11.4-140.5,55.9-238.2,93.6-376.4c28.3-103.5,51.4-206.6,21.6-309.5
		c-14-48.4-21.8-121.7-33.1-163.9c-19.5-72.9-43.3-144.5-67.2-216.1c-42.8-128.5-93.3-255.7-127.3-386.9c-7-27-83.4-258-8.5-301.1
		c60.1-34.5,130.6,42.1,155.4,98.8c116.2,265.9,245.5,516,511,778.3c52.5,51.9,30,275.1,33.6,404.2
		c3.6,131.1,112.8,261.4,174.2,373.3c64.4,117.5,118.6,245.3,152.9,374.6c32.3,122.2-25.3,225.5-80.7,342.3
		c-33.4,70.3-95.5,252.9-197,267.4c-86.6,12.3-93.8-203.1-107.3-262.7C0.2,2293.5-34.1,2200.6-152.4,2129z"/>
</g>
</svg>
