<?xml version="1.0" encoding="utf-8"?>
<!-- Generator: Adobe Illustrator 16.0.3, SVG Export Plug-In . SVG Version: 6.00 Build 0)  -->
<!DOCTYPE svg PUBLIC "-//W3C//DTD SVG 1.1//EN" "http://www.w3.org/Graphics/SVG/1.1/DTD/svg11.dtd">
<svg version="1.1" id="Ebene_1" xmlns="http://www.w3.org/2000/svg" xmlns:xlink="http://www.w3.org/1999/xlink" x="0px" y="0px"
	 width="841.89px" height="595.28px" viewBox="0 0 841.89 595.28" enable-background="new 0 0 841.89 595.28" xml:space="preserve">
<path fill="#003366" d="M384.72,344.823h-66.99c4.117,3.449,8.88,6.036,13.924,7.833h39.105
	C375.82,350.859,380.595,348.272,384.72,344.823"/>
<polygon fill="#003366" points="198.301,341.227 227.335,341.227 227.381,341.082 227.301,341.082 229.705,333.394 201.191,333.394 
	"/>
<polygon fill="#003366" points="196.971,344.823 194.079,352.656 223.66,352.656 226.18,344.823 "/>
<rect x="137" y="344.824" fill="#003366" width="27.723" height="7.833"/>
<rect x="137" y="333.393" fill="#003366" width="27.723" height="7.833"/>
<rect x="137" y="321.961" fill="#003366" width="27.723" height="7.833"/>
<rect x="137" y="310.535" fill="#003366" width="27.723" height="7.831"/>
<rect x="137" y="276.247" fill="#003366" width="27.723" height="7.832"/>
<rect x="137" y="264.816" fill="#003366" width="27.723" height="7.833"/>
<rect x="137" y="241.958" fill="#003366" width="84.728" height="7.833"/>
<rect x="137" y="253.386" fill="#003366" width="84.728" height="7.832"/>
<polygon fill="#003366" points="247.302,276.247 222.3,276.247 219.408,284.079 244.954,284.079 "/>
<polygon fill="#003366" points="232.073,249.791 266.584,249.791 263.625,241.958 234.967,241.958 "/>
<polygon fill="#003366" points="227.853,261.218 270.902,261.218 267.942,253.386 230.744,253.386 "/>
<polygon fill="#003366" points="250.836,272.648 275.221,272.648 272.261,264.815 226.523,264.815 223.63,272.648 248.379,272.648 
	249.452,269.059 249.762,269.059 "/>
<polygon fill="#003366" points="254.259,284.078 279.538,284.078 276.579,276.247 251.916,276.247 "/>
<polygon fill="#003366" points="257.679,295.507 283.856,295.507 280.898,287.675 255.336,287.675 "/>
<polygon fill="#003366" points="261.101,306.937 288.174,306.937 285.214,299.104 258.755,299.104 "/>
<polygon fill="#003366" points="206.742,318.367 292.493,318.367 289.533,310.536 209.637,310.536 "/>
<polygon fill="#003366" points="202.521,329.794 296.811,329.794 293.851,321.961 205.414,321.961 "/>
<polygon fill="#003366" points="272.118,341.227 301.132,341.227 298.17,333.394 269.562,333.394 "/>
<polygon fill="#003366" points="305.446,352.656 302.488,344.823 273.191,344.823 275.709,352.656 "/>
<rect x="304.275" y="241.958" fill="#003366" width="27.721" height="7.833"/>
<rect x="304.275" y="253.386" fill="#003366" width="27.721" height="7.832"/>
<rect x="304.275" y="264.816" fill="#003366" width="27.721" height="7.833"/>
<rect x="304.275" y="276.247" fill="#003366" width="27.721" height="7.832"/>
<rect x="304.275" y="287.675" fill="#003366" width="27.721" height="7.832"/>
<rect x="304.275" y="299.105" fill="#003366" width="27.721" height="7.831"/>
<path fill="#003366" d="M304.497,318.367h28.02c-0.351-2.027-0.52-4.194-0.52-6.475v-1.356h-27.721v3.689
	C304.275,315.664,304.383,317.016,304.497,318.367"/>
<path fill="#003366" d="M306.975,329.794h31.618c-2.462-1.971-4.134-4.647-5.182-7.833h-28.46
	C305.406,324.755,306.063,327.386,306.975,329.794"/>
<path fill="#003366" d="M393.918,333.394h-85.372c1.488,2.927,3.325,5.522,5.412,7.833h74.545
	C390.591,338.916,392.433,336.32,393.918,333.394"/>
<path fill="#003366" d="M397.518,321.961h-28.466c-1.05,3.186-2.736,5.861-5.211,7.833h31.648
	C396.403,327.386,397.058,324.755,397.518,321.961"/>
<rect x="370.469" y="241.958" fill="#003366" width="27.723" height="7.833"/>
<rect x="370.469" y="253.386" fill="#003366" width="27.723" height="7.832"/>
<rect x="370.469" y="264.816" fill="#003366" width="27.723" height="7.833"/>
<rect x="370.469" y="276.247" fill="#003366" width="27.723" height="7.832"/>
<rect x="370.469" y="287.675" fill="#003366" width="27.723" height="7.832"/>
<rect x="370.469" y="299.105" fill="#003366" width="27.723" height="7.831"/>
<path fill="#003366" d="M398.192,314.227v-3.691h-27.723v1.358c0,2.278-0.168,4.445-0.52,6.474h28.019
	C398.081,317.017,398.192,315.664,398.192,314.227"/>
<polygon fill="#003366" points="137,299.14 137,306.969 238.115,306.969 240.459,299.14 "/>
<polygon fill="#003366" points="137,287.644 137,295.475 241.536,295.475 243.879,287.644 "/>
<path fill="#003366" d="M689.201,352.54c-0.766,0.324-1.537,0.484-2.316,0.484c-1.23,0-2.338-0.213-3.318-0.641
	c-0.984-0.428-1.813-1.016-2.486-1.766c-0.676-0.75-1.193-1.633-1.553-2.645c-0.361-1.014-0.541-2.104-0.541-3.273
	c0-1.201,0.18-2.314,0.541-3.342c0.359-1.027,0.877-1.924,1.553-2.689c0.674-0.764,1.502-1.363,2.486-1.799
	c0.98-0.436,2.088-0.652,3.318-0.652c0.824,0,1.623,0.123,2.396,0.371c0.771,0.246,1.469,0.611,2.092,1.092
	c0.623,0.479,1.137,1.072,1.541,1.775c0.406,0.707,0.652,1.518,0.742,2.432h-3.375c-0.209-0.9-0.615-1.576-1.215-2.025
	s-1.326-0.676-2.182-0.676c-0.797,0-1.471,0.154-2.025,0.463c-0.557,0.307-1.006,0.719-1.35,1.236
	c-0.346,0.518-0.598,1.107-0.754,1.766c-0.158,0.662-0.236,1.344-0.236,2.049c0,0.674,0.078,1.33,0.236,1.969
	c0.156,0.637,0.408,1.211,0.754,1.721c0.344,0.51,0.793,0.92,1.35,1.227c0.555,0.309,1.229,0.461,2.025,0.461
	c1.17,0,2.072-0.297,2.711-0.889c0.637-0.592,1.008-1.451,1.113-2.576h-3.555v-2.633h6.75v8.686h-2.25l-0.359-1.822
	C690.664,351.651,689.967,352.22,689.201,352.54 M671.645,336.601c0.721,0,1.369,0.115,1.947,0.348
	c0.576,0.232,1.072,0.551,1.484,0.957c0.412,0.404,0.727,0.873,0.945,1.406c0.217,0.533,0.326,1.105,0.326,1.721
	c0,0.945-0.199,1.762-0.596,2.453c-0.398,0.689-1.047,1.215-1.947,1.574v0.045c0.436,0.121,0.795,0.305,1.08,0.551
	c0.285,0.248,0.518,0.541,0.697,0.879c0.18,0.336,0.311,0.709,0.395,1.113c0.082,0.404,0.139,0.809,0.168,1.215
	c0.016,0.256,0.029,0.555,0.047,0.9c0.014,0.346,0.039,0.697,0.076,1.057c0.039,0.361,0.1,0.701,0.182,1.025
	c0.082,0.32,0.205,0.596,0.371,0.82h-3.533c-0.195-0.51-0.314-1.117-0.359-1.822s-0.111-1.379-0.203-2.025
	c-0.121-0.84-0.375-1.455-0.764-1.846c-0.391-0.389-1.029-0.584-1.914-0.584h-3.531v6.277h-3.533v-16.064H671.645z M670.385,343.868
	c0.811,0,1.418-0.182,1.822-0.541c0.406-0.359,0.609-0.943,0.609-1.754c0-0.781-0.203-1.348-0.609-1.699
	c-0.404-0.354-1.012-0.529-1.822-0.529h-3.869v4.523H670.385z M659.297,336.601v2.969h-8.482v3.443h7.785v2.746h-7.785v3.936h8.662
	v2.971h-12.193v-16.064H659.297z M638.195,349.919c0.344,0,0.674-0.033,0.988-0.1c0.316-0.068,0.594-0.18,0.834-0.338
	c0.238-0.158,0.432-0.371,0.572-0.641c0.145-0.271,0.215-0.615,0.215-1.035c0-0.826-0.232-1.414-0.697-1.768
	c-0.467-0.352-1.08-0.527-1.846-0.527h-3.848v4.408H638.195z M638.443,336.601c0.764,0,1.461,0.066,2.092,0.201
	c0.629,0.135,1.17,0.357,1.619,0.664c0.449,0.309,0.799,0.717,1.047,1.227s0.371,1.141,0.371,1.889c0,0.811-0.184,1.486-0.553,2.025
	c-0.365,0.541-0.91,0.984-1.631,1.328c0.99,0.285,1.73,0.785,2.217,1.496c0.488,0.713,0.732,1.572,0.732,2.578
	c0,0.809-0.158,1.51-0.473,2.102c-0.316,0.594-0.74,1.078-1.271,1.451c-0.533,0.377-1.141,0.654-1.824,0.834
	c-0.682,0.18-1.383,0.27-2.102,0.27h-7.785v-16.064H638.443z M637.992,343.103c0.631,0,1.146-0.15,1.553-0.451
	c0.404-0.299,0.607-0.787,0.607-1.461c0-0.375-0.068-0.682-0.203-0.924c-0.135-0.238-0.314-0.426-0.539-0.563
	c-0.227-0.135-0.484-0.229-0.777-0.279c-0.293-0.055-0.596-0.08-0.91-0.08h-3.309v3.758H637.992z M616.771,336.601l6.705,10.775
	h0.045v-10.775h3.309v16.064h-3.533l-6.682-10.756h-0.045v10.756h-3.309v-16.064H616.771z M604.918,336.601
	c0.719,0,1.369,0.115,1.945,0.348c0.578,0.232,1.072,0.551,1.484,0.957c0.414,0.404,0.729,0.873,0.945,1.406
	s0.326,1.105,0.326,1.721c0,0.945-0.199,1.762-0.596,2.453c-0.396,0.689-1.047,1.215-1.945,1.574v0.045
	c0.434,0.121,0.795,0.305,1.08,0.551c0.285,0.248,0.516,0.541,0.695,0.879c0.182,0.336,0.313,0.709,0.395,1.113
	s0.139,0.809,0.17,1.215c0.014,0.256,0.029,0.555,0.045,0.9c0.014,0.346,0.041,0.697,0.078,1.057
	c0.037,0.361,0.098,0.701,0.18,1.025c0.082,0.32,0.207,0.596,0.371,0.82h-3.533c-0.193-0.51-0.314-1.117-0.359-1.822
	s-0.111-1.379-0.201-2.025c-0.121-0.84-0.375-1.455-0.766-1.846c-0.391-0.389-1.027-0.584-1.912-0.584h-3.533v6.277h-3.533v-16.064
	H604.918z M603.658,343.868c0.809,0,1.416-0.182,1.82-0.541c0.406-0.359,0.609-0.943,0.609-1.754c0-0.781-0.203-1.348-0.609-1.699
	c-0.404-0.354-1.012-0.529-1.82-0.529h-3.871v4.523H603.658z M590.803,351.438c-1.215,1.057-2.895,1.586-5.039,1.586
	c-2.176,0-3.859-0.525-5.051-1.574c-1.193-1.051-1.789-2.67-1.789-4.859v-9.99h3.531v9.99c0,0.434,0.039,0.861,0.113,1.281
	s0.232,0.791,0.473,1.113c0.24,0.324,0.574,0.586,1.002,0.789c0.426,0.201,1,0.303,1.721,0.303c1.26,0,2.129-0.281,2.609-0.844
	s0.721-1.443,0.721-2.643v-9.99h3.531v9.99C592.625,348.765,592.018,350.382,590.803,351.438 M589.611,334.8h-3.039v-2.633h3.039
	V334.8z M584.975,334.8h-3.037v-2.633h3.037V334.8z M565,336.601l6.705,10.775h0.045v-10.775h3.307v16.064h-3.531l-6.684-10.756
	h-0.045v10.756h-3.307v-16.064H565z M557.43,347.896h-6.771v-2.746h6.771V347.896z M536.592,336.601l6.705,10.775h0.045v-10.775
	h3.309v16.064h-3.533l-6.684-10.756h-0.045v10.756h-3.307v-16.064H536.592z M529.396,336.601v2.969h-8.482v3.443h7.785v2.746h-7.785
	v3.936h8.662v2.971h-12.195v-16.064H529.396z M509.215,352.54c-0.766,0.324-1.539,0.484-2.318,0.484
	c-1.23,0-2.336-0.213-3.318-0.641s-1.813-1.016-2.486-1.766c-0.676-0.75-1.191-1.633-1.553-2.645
	C499.18,346.96,499,345.87,499,344.7c0-1.201,0.18-2.314,0.539-3.342c0.361-1.027,0.877-1.924,1.553-2.689
	c0.674-0.764,1.504-1.363,2.486-1.799s2.088-0.652,3.318-0.652c0.824,0,1.623,0.123,2.396,0.371
	c0.773,0.246,1.471,0.611,2.092,1.092c0.623,0.479,1.137,1.072,1.541,1.775c0.406,0.707,0.654,1.518,0.744,2.432h-3.375
	c-0.211-0.9-0.615-1.576-1.215-2.025c-0.602-0.449-1.328-0.676-2.184-0.676c-0.795,0-1.471,0.154-2.025,0.463
	c-0.555,0.307-1.004,0.719-1.35,1.236s-0.596,1.107-0.754,1.766c-0.156,0.662-0.236,1.344-0.236,2.049
	c0,0.674,0.08,1.33,0.236,1.969c0.158,0.637,0.408,1.211,0.754,1.721s0.795,0.92,1.35,1.227c0.555,0.309,1.23,0.461,2.025,0.461
	c1.17,0,2.074-0.297,2.713-0.889c0.637-0.592,1.008-1.451,1.111-2.576h-3.555v-2.633h6.75v8.686h-2.25l-0.359-1.822
	C510.676,351.651,509.979,352.22,509.215,352.54 M485.994,336.601l6.705,10.775h0.045v-10.775h3.307v16.064h-3.531l-6.684-10.756
	h-0.045v10.756h-3.307v-16.064H485.994z M474.475,336.601l6.008,16.064h-3.668l-1.215-3.576h-6.008l-1.26,3.576h-3.555l6.074-16.064
	H474.475z M474.678,346.454l-2.025-5.895h-0.045l-2.094,5.895H474.678z M455.484,336.601v13.094h7.83v2.971h-11.361v-16.064H455.484
	z M444.059,336.601c0.719,0,1.367,0.115,1.945,0.348c0.576,0.232,1.072,0.551,1.484,0.957c0.414,0.404,0.729,0.873,0.945,1.406
	s0.326,1.105,0.326,1.721c0,0.945-0.199,1.762-0.596,2.453c-0.396,0.689-1.047,1.215-1.947,1.574v0.045
	c0.436,0.121,0.795,0.305,1.08,0.551c0.285,0.248,0.518,0.541,0.697,0.879c0.18,0.336,0.313,0.709,0.395,1.113
	s0.139,0.809,0.17,1.215c0.014,0.256,0.029,0.555,0.045,0.9c0.014,0.346,0.041,0.697,0.078,1.057
	c0.037,0.361,0.098,0.701,0.18,1.025c0.082,0.32,0.207,0.596,0.371,0.82h-3.533c-0.195-0.51-0.314-1.117-0.359-1.822
	s-0.111-1.379-0.203-2.025c-0.119-0.84-0.375-1.455-0.764-1.846c-0.391-0.389-1.029-0.584-1.914-0.584h-3.531v6.277h-3.533v-16.064
	H444.059z M442.797,343.868c0.811,0,1.418-0.182,1.822-0.541c0.406-0.359,0.609-0.943,0.609-1.754c0-0.781-0.203-1.348-0.609-1.699
	c-0.404-0.354-1.012-0.529-1.822-0.529h-3.869v4.523H442.797z M431.936,336.601v2.969h-8.482v3.443h7.785v2.746h-7.785v3.936h8.662
	v2.971h-12.196v-16.064H431.936z"/>
<path fill="#003366" d="M560.973,315.271V312.3h13.164v2.971h-4.814v13.094h-3.533v-13.094H560.973z M555.303,312.3l6.008,16.064
	h-3.668l-1.215-3.576h-6.006l-1.26,3.576h-3.557l6.076-16.064H555.303z M555.506,322.155l-2.025-5.896h-0.045l-2.092,5.896H555.506z
	 M557.283,310.499h-3.037v-2.633h3.037V310.499z M552.648,310.499h-3.039v-2.633h3.039V310.499z M532.691,315.271V312.3h13.162
	v2.971h-4.814v13.094h-3.533v-13.094H532.691z M529.855,328.364h-3.531V312.3h3.531V328.364z M513.432,324.405
	c0.195,0.375,0.453,0.678,0.777,0.912c0.322,0.23,0.701,0.404,1.135,0.516c0.436,0.113,0.885,0.17,1.35,0.17
	c0.316,0,0.652-0.025,1.014-0.08c0.359-0.051,0.697-0.152,1.012-0.303c0.316-0.15,0.578-0.357,0.787-0.619
	c0.211-0.262,0.316-0.596,0.316-1.002c0-0.434-0.139-0.787-0.416-1.057c-0.279-0.27-0.643-0.494-1.092-0.674
	c-0.449-0.182-0.961-0.34-1.529-0.475c-0.57-0.135-1.148-0.285-1.734-0.449c-0.6-0.15-1.184-0.334-1.754-0.551
	s-1.08-0.5-1.531-0.844c-0.449-0.346-0.813-0.777-1.09-1.293c-0.279-0.52-0.416-1.145-0.416-1.879c0-0.826,0.176-1.541,0.529-2.15
	c0.352-0.605,0.813-1.113,1.383-1.518c0.57-0.406,1.215-0.705,1.934-0.9c0.721-0.195,1.441-0.293,2.16-0.293
	c0.84,0,1.646,0.094,2.42,0.281s1.459,0.492,2.059,0.912s1.076,0.957,1.43,1.607c0.352,0.652,0.527,1.445,0.527,2.375h-3.42
	c-0.029-0.48-0.131-0.879-0.303-1.193c-0.174-0.314-0.402-0.563-0.688-0.742s-0.611-0.309-0.979-0.383s-0.768-0.111-1.203-0.111
	c-0.285,0-0.57,0.029-0.855,0.09s-0.543,0.164-0.775,0.314s-0.424,0.338-0.574,0.563s-0.225,0.51-0.225,0.855
	c0,0.314,0.061,0.568,0.18,0.764s0.355,0.375,0.709,0.541c0.352,0.164,0.84,0.33,1.463,0.494c0.621,0.166,1.436,0.375,2.439,0.631
	c0.301,0.059,0.717,0.168,1.25,0.326c0.531,0.158,1.061,0.408,1.586,0.754c0.525,0.344,0.979,0.807,1.361,1.383
	c0.383,0.578,0.574,1.316,0.574,2.217c0,0.734-0.143,1.418-0.428,2.049c-0.285,0.629-0.709,1.174-1.271,1.631
	s-1.26,0.813-2.092,1.068c-0.832,0.254-1.797,0.381-2.893,0.381c-0.885,0-1.744-0.107-2.576-0.324
	c-0.832-0.219-1.566-0.561-2.203-1.025c-0.639-0.465-1.145-1.057-1.52-1.777c-0.375-0.719-0.555-1.574-0.541-2.564h3.42
	C513.139,323.573,513.236,324.03,513.432,324.405 M502.498,312.3c0.719,0,1.367,0.117,1.945,0.35
	c0.576,0.232,1.072,0.551,1.484,0.955s0.729,0.875,0.945,1.406c0.217,0.533,0.326,1.107,0.326,1.723
	c0,0.943-0.199,1.762-0.596,2.451c-0.398,0.689-1.047,1.215-1.945,1.574v0.045c0.434,0.121,0.795,0.305,1.08,0.553
	c0.283,0.248,0.516,0.541,0.695,0.877c0.182,0.338,0.313,0.709,0.395,1.113c0.082,0.406,0.139,0.811,0.17,1.217
	c0.014,0.254,0.029,0.555,0.045,0.898c0.014,0.346,0.041,0.697,0.078,1.059c0.037,0.359,0.098,0.701,0.18,1.023
	s0.205,0.596,0.371,0.82h-3.533c-0.195-0.51-0.314-1.117-0.359-1.822s-0.111-1.379-0.201-2.023
	c-0.121-0.842-0.375-1.455-0.766-1.846s-1.027-0.586-1.914-0.586h-3.531v6.277h-3.533V312.3H502.498z M501.238,319.567
	c0.809,0,1.416-0.18,1.82-0.539c0.406-0.361,0.609-0.945,0.609-1.756c0-0.779-0.203-1.346-0.609-1.699
	c-0.404-0.352-1.012-0.529-1.82-0.529h-3.871v4.523H501.238z M490.375,312.3v2.971h-8.484v3.441h7.785v2.746h-7.785v3.938h8.664
	v2.969h-12.195V312.3H490.375z M466.436,328.364l-5.197-16.064h3.621l3.578,11.295h0.045l3.621-11.295h3.646l-5.332,16.064H466.436z
	 M458.688,328.364h-3.533V312.3h3.533V328.364z M441.16,312.3l6.705,10.777h0.045V312.3h3.307v16.064h-3.531l-6.684-10.754h-0.045
	v10.754h-3.307V312.3H441.16z M431.846,327.138c-1.215,1.059-2.895,1.586-5.041,1.586c-2.174,0-3.857-0.523-5.05-1.574
	s-1.789-2.67-1.789-4.859v-9.99h3.533v9.99c0,0.434,0.037,0.863,0.113,1.283c0.074,0.42,0.23,0.791,0.473,1.113
	c0.238,0.322,0.572,0.586,1,0.787c0.428,0.203,1.002,0.305,1.721,0.305c1.262,0,2.131-0.283,2.611-0.844
	c0.48-0.564,0.719-1.445,0.719-2.645v-9.99h3.533v9.99C433.668,324.464,433.061,326.081,431.846,327.138"/>
<path fill="#003366" d="M698.795,287.7c0.721,0,1.369,0.115,1.947,0.349c0.578,0.231,1.072,0.552,1.484,0.956
	s0.729,0.874,0.945,1.406c0.217,0.533,0.326,1.107,0.326,1.722c0,0.945-0.199,1.763-0.596,2.452
	c-0.398,0.689-1.047,1.215-1.947,1.574v0.046c0.436,0.12,0.795,0.304,1.08,0.551c0.285,0.248,0.518,0.54,0.699,0.878
	c0.18,0.337,0.311,0.709,0.393,1.114c0.082,0.403,0.139,0.81,0.168,1.215c0.016,0.255,0.031,0.556,0.045,0.899
	c0.016,0.346,0.041,0.697,0.08,1.058c0.037,0.36,0.096,0.701,0.18,1.024c0.082,0.322,0.205,0.596,0.371,0.82h-3.533
	c-0.193-0.51-0.314-1.117-0.359-1.822s-0.113-1.379-0.203-2.025c-0.119-0.839-0.375-1.454-0.764-1.844
	c-0.391-0.391-1.027-0.586-1.912-0.586h-3.533v6.277h-3.533V287.7H698.795z M697.535,294.968c0.811,0,1.418-0.18,1.824-0.54
	c0.404-0.36,0.605-0.944,0.605-1.755c0-0.779-0.201-1.348-0.605-1.699c-0.406-0.353-1.014-0.529-1.824-0.529h-3.869v4.523H697.535z
	 M686.785,287.7v2.97h-8.482v3.442h7.785v2.746h-7.785v3.937h8.662v2.97H674.77V287.7H686.785z M664.578,287.7
	c1.035,0,1.998,0.164,2.891,0.494s1.666,0.826,2.318,1.485c0.652,0.66,1.162,1.485,1.529,2.476s0.551,2.152,0.551,3.488
	c0,1.17-0.15,2.25-0.449,3.239c-0.301,0.99-0.754,1.845-1.361,2.565c-0.607,0.719-1.365,1.285-2.271,1.697
	c-0.908,0.414-1.979,0.619-3.207,0.619h-6.932V287.7H664.578z M664.33,300.795c0.51,0,1.006-0.082,1.486-0.247
	c0.479-0.165,0.906-0.439,1.281-0.822c0.375-0.382,0.674-0.881,0.9-1.496c0.225-0.615,0.338-1.365,0.338-2.25
	c0-0.81-0.08-1.541-0.236-2.193c-0.158-0.652-0.418-1.211-0.777-1.676s-0.836-0.821-1.428-1.069
	c-0.594-0.247-1.324-0.371-2.193-0.371h-2.521v10.125H664.33z M643.811,287.7l6.705,10.777h0.045V287.7h3.307v16.064h-3.531
	l-6.684-10.755h-0.045v10.755h-3.307V287.7H643.811z M632.193,287.7l6.008,16.064h-3.668l-1.215-3.576h-6.008l-1.26,3.576h-3.555
	l6.076-16.064H632.193z M632.396,297.555l-2.025-5.896h-0.045l-2.092,5.896H632.396z M606.363,287.7h4.096l3.15,5.13l3.262-5.13
	h3.871l-5.154,7.673l5.604,8.392h-4.207l-3.512-5.557l-3.576,5.557h-3.961l5.604-8.414L606.363,287.7z M603.641,287.7v2.97h-8.482
	v3.442h7.785v2.746h-7.785v3.937h8.664v2.97h-12.195V287.7H603.641z M580.971,287.7v13.095h7.83v2.97h-11.363V287.7H580.971z
	 M568.994,287.7l6.008,16.064h-3.668l-1.215-3.576h-6.008l-1.26,3.576h-3.555l6.074-16.064H568.994z M569.197,297.555l-2.025-5.896
	h-0.045l-2.092,5.896H569.197z M557.6,298.995h-6.771v-2.745h6.771V298.995z M536.785,287.7v6.164h6.502V287.7h3.533v16.064h-3.533
	v-6.93h-6.502v6.93h-3.533V287.7H536.785z M526.055,291.985c-0.209-0.336-0.473-0.633-0.787-0.887
	c-0.314-0.256-0.672-0.455-1.068-0.598c-0.398-0.143-0.814-0.213-1.248-0.213c-0.795,0-1.471,0.152-2.025,0.461
	c-0.555,0.307-1.006,0.72-1.35,1.236c-0.346,0.519-0.598,1.107-0.754,1.768c-0.158,0.66-0.236,1.342-0.236,2.047
	c0,0.676,0.078,1.331,0.236,1.969c0.156,0.637,0.408,1.211,0.754,1.721c0.344,0.511,0.795,0.92,1.35,1.227
	c0.555,0.309,1.23,0.462,2.025,0.462c1.08,0,1.924-0.329,2.529-0.989c0.609-0.66,0.98-1.531,1.115-2.61h3.42
	c-0.09,1.005-0.322,1.911-0.697,2.722s-0.871,1.5-1.486,2.07s-1.334,1.005-2.16,1.305c-0.824,0.301-1.73,0.449-2.721,0.449
	c-1.23,0-2.338-0.213-3.32-0.641s-1.811-1.016-2.486-1.766c-0.674-0.75-1.191-1.632-1.553-2.645
	c-0.359-1.012-0.539-2.104-0.539-3.273c0-1.199,0.18-2.314,0.539-3.341c0.361-1.028,0.879-1.925,1.553-2.688
	c0.676-0.766,1.504-1.365,2.486-1.801s2.09-0.652,3.32-0.652c0.885,0,1.721,0.127,2.508,0.383c0.787,0.255,1.492,0.625,2.115,1.113
	c0.623,0.487,1.137,1.092,1.541,1.812s0.66,1.545,0.766,2.476h-3.42C526.4,292.694,526.266,292.323,526.055,291.985
	 M511.953,303.765h-3.533V287.7h3.533V303.765z M500.156,287.7c0.719,0,1.369,0.115,1.945,0.349
	c0.578,0.231,1.072,0.552,1.486,0.956c0.412,0.404,0.727,0.874,0.945,1.406c0.217,0.533,0.326,1.107,0.326,1.722
	c0,0.945-0.199,1.763-0.598,2.452c-0.396,0.689-1.047,1.215-1.945,1.574v0.046c0.434,0.12,0.795,0.304,1.078,0.551
	c0.285,0.248,0.52,0.54,0.699,0.878c0.18,0.337,0.311,0.709,0.395,1.114c0.082,0.403,0.137,0.81,0.168,1.215
	c0.014,0.255,0.029,0.556,0.045,0.899c0.014,0.346,0.041,0.697,0.078,1.058s0.098,0.701,0.18,1.024
	c0.082,0.322,0.207,0.596,0.371,0.82h-3.531c-0.195-0.51-0.314-1.117-0.361-1.822c-0.045-0.705-0.111-1.379-0.201-2.025
	c-0.121-0.839-0.375-1.454-0.766-1.844c-0.391-0.391-1.027-0.586-1.912-0.586h-3.533v6.277h-3.531V287.7H500.156z M498.895,294.968
	c0.811,0,1.418-0.18,1.824-0.54c0.404-0.36,0.607-0.944,0.607-1.755c0-0.779-0.203-1.348-0.607-1.699
	c-0.406-0.353-1.014-0.529-1.824-0.529h-3.869v4.523H498.895z M481.336,287.7c1.035,0,2,0.164,2.893,0.494s1.664,0.826,2.316,1.485
	c0.654,0.66,1.162,1.485,1.531,2.476c0.367,0.99,0.551,2.152,0.551,3.488c0,1.17-0.15,2.25-0.451,3.239
	c-0.299,0.99-0.752,1.845-1.359,2.565c-0.607,0.719-1.365,1.285-2.273,1.697c-0.908,0.414-1.977,0.619-3.207,0.619h-6.93V287.7
	H481.336z M481.09,300.795c0.51,0,1.004-0.082,1.484-0.247s0.906-0.439,1.281-0.822c0.375-0.382,0.676-0.881,0.9-1.496
	s0.338-1.365,0.338-2.25c0-0.81-0.078-1.541-0.234-2.193c-0.158-0.652-0.418-1.211-0.777-1.676
	c-0.361-0.465-0.836-0.821-1.428-1.069c-0.594-0.247-1.324-0.371-2.195-0.371h-2.52v10.125H481.09z M470.947,287.7v2.97h-8.482
	v3.442h7.785v2.746h-7.785v3.937h8.662v2.97h-12.195V287.7H470.947z M454.881,303.765h-3.531V287.7h3.531V303.765z M442.748,287.7
	c0.719,0,1.369,0.115,1.945,0.349c0.578,0.231,1.074,0.552,1.484,0.956c0.414,0.404,0.729,0.874,0.945,1.406
	c0.219,0.533,0.328,1.107,0.328,1.722c0,0.945-0.199,1.763-0.598,2.452c-0.396,0.689-1.045,1.215-1.945,1.574v0.046
	c0.434,0.12,0.795,0.304,1.08,0.551c0.285,0.248,0.518,0.54,0.697,0.878c0.18,0.337,0.311,0.709,0.393,1.114
	c0.084,0.403,0.139,0.81,0.17,1.215c0.014,0.255,0.029,0.556,0.045,0.899c0.016,0.346,0.041,0.697,0.078,1.058
	s0.098,0.701,0.18,1.024c0.082,0.322,0.207,0.596,0.371,0.82h-3.531c-0.195-0.51-0.314-1.117-0.359-1.822s-0.113-1.379-0.203-2.025
	c-0.121-0.839-0.375-1.454-0.766-1.844c-0.391-0.391-1.027-0.586-1.912-0.586h-3.533v6.277h-3.531V287.7H442.748z M441.488,294.968
	c0.809,0,1.418-0.18,1.822-0.54s0.607-0.944,0.607-1.755c0-0.779-0.203-1.348-0.607-1.699c-0.404-0.353-1.014-0.529-1.822-0.529
	h-3.871v4.523H441.488z M431.215,287.7v2.97h-7.762v3.713h6.727v2.745h-6.727v6.637h-3.534V287.7H431.215z"/>
</svg>
