<?xml version="1.0" encoding="utf-8"?>
<!-- Generator: Adobe Illustrator 23.0.4, SVG Export Plug-In . SVG Version: 6.00 Build 0)  -->
<svg version="1.1" id="Ebene_1" xmlns="http://www.w3.org/2000/svg" xmlns:xlink="http://www.w3.org/1999/xlink" x="0px" y="0px"
	 viewBox="0 0 567 111.1" style="enable-background:new 0 0 567 111.1;" xml:space="preserve">
<style type="text/css">
	.st0{fill:#003366;}
</style>
<path class="st0" d="M247.7,102.9h-67c4.1,3.4,8.9,6,13.9,7.8h39.1C238.8,108.9,243.6,106.3,247.7,102.9"/>
<polygon class="st0" points="61.3,99.3 90.3,99.3 90.4,99.1 90.3,99.1 92.7,91.4 64.2,91.4 "/>
<polygon class="st0" points="60,102.9 57.1,110.7 86.7,110.7 89.2,102.9 "/>
<rect y="102.9" class="st0" width="27.7" height="7.8"/>
<rect y="91.4" class="st0" width="27.7" height="7.8"/>
<rect y="80" class="st0" width="27.7" height="7.8"/>
<rect y="68.6" class="st0" width="27.7" height="7.8"/>
<rect y="34.3" class="st0" width="27.7" height="7.8"/>
<rect y="22.9" class="st0" width="27.7" height="7.8"/>
<rect class="st0" width="84.7" height="7.8"/>
<rect y="11.4" class="st0" width="84.7" height="7.8"/>
<polygon class="st0" points="110.3,34.3 85.3,34.3 82.4,42.1 108,42.1 "/>
<polygon class="st0" points="95.1,7.8 129.6,7.8 126.6,0 98,0 "/>
<polygon class="st0" points="90.9,19.3 133.9,19.3 130.9,11.4 93.7,11.4 "/>
<polygon class="st0" points="113.8,30.7 138.2,30.7 135.3,22.9 89.5,22.9 86.6,30.7 111.4,30.7 112.5,27.1 112.8,27.1 "/>
<polygon class="st0" points="117.3,42.1 142.5,42.1 139.6,34.3 114.9,34.3 "/>
<polygon class="st0" points="120.7,53.5 146.9,53.5 143.9,45.7 118.3,45.7 "/>
<polygon class="st0" points="124.1,65 151.2,65 148.2,57.1 121.8,57.1 "/>
<polygon class="st0" points="69.7,76.4 155.5,76.4 152.5,68.6 72.6,68.6 "/>
<polygon class="st0" points="65.5,87.8 159.8,87.8 156.9,80 68.4,80 "/>
<polygon class="st0" points="135.1,99.3 164.1,99.3 161.2,91.4 132.6,91.4 "/>
<polygon class="st0" points="168.4,110.7 165.5,102.9 136.2,102.9 138.7,110.7 "/>
<rect x="167.3" class="st0" width="27.7" height="7.8"/>
<rect x="167.3" y="11.4" class="st0" width="27.7" height="7.8"/>
<rect x="167.3" y="22.9" class="st0" width="27.7" height="7.8"/>
<rect x="167.3" y="34.3" class="st0" width="27.7" height="7.8"/>
<rect x="167.3" y="45.7" class="st0" width="27.7" height="7.8"/>
<rect x="167.3" y="57.1" class="st0" width="27.7" height="7.8"/>
<path class="st0" d="M167.5,76.4h28c-0.4-2-0.5-4.2-0.5-6.5v-1.4h-27.7v3.7C167.3,73.7,167.4,75.1,167.5,76.4"/>
<path class="st0" d="M170,87.8h31.6c-2.5-2-4.1-4.6-5.2-7.8H168C168.4,82.8,169.1,85.4,170,87.8"/>
<path class="st0" d="M256.9,91.4h-85.4c1.5,2.9,3.3,5.5,5.4,7.8h74.5C253.6,97,255.4,94.4,256.9,91.4"/>
<path class="st0" d="M260.5,80h-28.5c-1,3.2-2.7,5.9-5.2,7.8h31.6C259.4,85.4,260.1,82.8,260.5,80"/>
<rect x="233.5" class="st0" width="27.7" height="7.8"/>
<rect x="233.5" y="11.4" class="st0" width="27.7" height="7.8"/>
<rect x="233.5" y="22.9" class="st0" width="27.7" height="7.8"/>
<rect x="233.5" y="34.3" class="st0" width="27.7" height="7.8"/>
<rect x="233.5" y="45.7" class="st0" width="27.7" height="7.8"/>
<rect x="233.5" y="57.1" class="st0" width="27.7" height="7.8"/>
<path class="st0" d="M261.2,72.3v-3.7h-27.7v1.4c0,2.3-0.2,4.4-0.5,6.5h28C261.1,75.1,261.2,73.7,261.2,72.3"/>
<polygon class="st0" points="0,57.2 0,65 101.1,65 103.5,57.2 "/>
<polygon class="st0" points="0,45.7 0,53.5 104.5,53.5 106.9,45.7 "/>
<path class="st0" d="M552.2,110.6c-0.8,0.3-1.5,0.5-2.3,0.5c-1.2,0-2.3-0.2-3.3-0.6c-1-0.4-1.8-1-2.5-1.8c-0.7-0.8-1.2-1.6-1.6-2.6
	c-0.4-1-0.5-2.1-0.5-3.3c0-1.2,0.2-2.3,0.5-3.3c0.4-1,0.9-1.9,1.6-2.7c0.7-0.8,1.5-1.4,2.5-1.8c1-0.4,2.1-0.7,3.3-0.7
	c0.8,0,1.6,0.1,2.4,0.4c0.8,0.2,1.5,0.6,2.1,1.1c0.6,0.5,1.1,1.1,1.5,1.8c0.4,0.7,0.7,1.5,0.7,2.4h-3.4c-0.2-0.9-0.6-1.6-1.2-2
	s-1.3-0.7-2.2-0.7c-0.8,0-1.5,0.2-2,0.5c-0.6,0.3-1,0.7-1.3,1.2c-0.3,0.5-0.6,1.1-0.8,1.8c-0.2,0.7-0.2,1.3-0.2,2
	c0,0.7,0.1,1.3,0.2,2c0.2,0.6,0.4,1.2,0.8,1.7c0.3,0.5,0.8,0.9,1.3,1.2c0.6,0.3,1.2,0.5,2,0.5c1.2,0,2.1-0.3,2.7-0.9
	c0.6-0.6,1-1.5,1.1-2.6h-3.6V102h6.8v8.7h-2.2l-0.4-1.8C553.7,109.7,553,110.3,552.2,110.6 M534.6,94.6c0.7,0,1.4,0.1,1.9,0.3
	c0.6,0.2,1.1,0.6,1.5,1c0.4,0.4,0.7,0.9,0.9,1.4c0.2,0.5,0.3,1.1,0.3,1.7c0,0.9-0.2,1.8-0.6,2.5c-0.4,0.7-1,1.2-1.9,1.6v0
	c0.4,0.1,0.8,0.3,1.1,0.6c0.3,0.2,0.5,0.5,0.7,0.9c0.2,0.3,0.3,0.7,0.4,1.1c0.1,0.4,0.1,0.8,0.2,1.2c0,0.3,0,0.6,0,0.9
	c0,0.3,0,0.7,0.1,1.1c0,0.4,0.1,0.7,0.2,1c0.1,0.3,0.2,0.6,0.4,0.8h-3.5c-0.2-0.5-0.3-1.1-0.4-1.8s-0.1-1.4-0.2-2
	c-0.1-0.8-0.4-1.5-0.8-1.8c-0.4-0.4-1-0.6-1.9-0.6h-3.5v6.3H526V94.6L534.6,94.6L534.6,94.6z M533.4,101.9c0.8,0,1.4-0.2,1.8-0.5
	c0.4-0.4,0.6-0.9,0.6-1.8c0-0.8-0.2-1.3-0.6-1.7c-0.4-0.4-1-0.5-1.8-0.5h-3.9v4.5L533.4,101.9L533.4,101.9z M522.3,94.6v3h-8.5v3.4
	h7.8v2.7h-7.8v3.9h8.7v3h-12.2V94.6L522.3,94.6L522.3,94.6z M501.2,108c0.3,0,0.7,0,1-0.1c0.3-0.1,0.6-0.2,0.8-0.3
	c0.2-0.2,0.4-0.4,0.6-0.6c0.1-0.3,0.2-0.6,0.2-1c0-0.8-0.2-1.4-0.7-1.8c-0.5-0.4-1.1-0.5-1.8-0.5h-3.8v4.4L501.2,108L501.2,108z
	 M501.4,94.6c0.8,0,1.5,0.1,2.1,0.2c0.6,0.1,1.2,0.4,1.6,0.7c0.4,0.3,0.8,0.7,1,1.2s0.4,1.1,0.4,1.9c0,0.8-0.2,1.5-0.6,2
	c-0.4,0.5-0.9,1-1.6,1.3c1,0.3,1.7,0.8,2.2,1.5c0.5,0.7,0.7,1.6,0.7,2.6c0,0.8-0.2,1.5-0.5,2.1c-0.3,0.6-0.7,1.1-1.3,1.5
	c-0.5,0.4-1.1,0.7-1.8,0.8c-0.7,0.2-1.4,0.3-2.1,0.3h-7.8V94.6L501.4,94.6L501.4,94.6z M501,101.1c0.6,0,1.1-0.1,1.6-0.5
	c0.4-0.3,0.6-0.8,0.6-1.5c0-0.4-0.1-0.7-0.2-0.9c-0.1-0.2-0.3-0.4-0.5-0.6c-0.2-0.1-0.5-0.2-0.8-0.3c-0.3-0.1-0.6-0.1-0.9-0.1h-3.3
	v3.8L501,101.1L501,101.1z M479.8,94.6l6.7,10.8h0V94.6h3.3v16.1h-3.5l-6.7-10.8h0v10.8h-3.3V94.6H479.8z M467.9,94.6
	c0.7,0,1.4,0.1,1.9,0.3c0.6,0.2,1.1,0.6,1.5,1c0.4,0.4,0.7,0.9,0.9,1.4s0.3,1.1,0.3,1.7c0,0.9-0.2,1.8-0.6,2.5
	c-0.4,0.7-1,1.2-1.9,1.6v0c0.4,0.1,0.8,0.3,1.1,0.6c0.3,0.2,0.5,0.5,0.7,0.9c0.2,0.3,0.3,0.7,0.4,1.1s0.1,0.8,0.2,1.2
	c0,0.3,0,0.6,0,0.9c0,0.3,0,0.7,0.1,1.1c0,0.4,0.1,0.7,0.2,1c0.1,0.3,0.2,0.6,0.4,0.8h-3.5c-0.2-0.5-0.3-1.1-0.4-1.8s-0.1-1.4-0.2-2
	c-0.1-0.8-0.4-1.5-0.8-1.8c-0.4-0.4-1-0.6-1.9-0.6h-3.5v6.3h-3.5V94.6L467.9,94.6L467.9,94.6z M466.7,101.9c0.8,0,1.4-0.2,1.8-0.5
	c0.4-0.4,0.6-0.9,0.6-1.8c0-0.8-0.2-1.3-0.6-1.7c-0.4-0.4-1-0.5-1.8-0.5h-3.9v4.5L466.7,101.9L466.7,101.9z M453.8,109.5
	c-1.2,1.1-2.9,1.6-5,1.6c-2.2,0-3.9-0.5-5.1-1.6c-1.2-1.1-1.8-2.7-1.8-4.9v-10h3.5v10c0,0.4,0,0.9,0.1,1.3s0.2,0.8,0.5,1.1
	c0.2,0.3,0.6,0.6,1,0.8c0.4,0.2,1,0.3,1.7,0.3c1.3,0,2.1-0.3,2.6-0.8s0.7-1.4,0.7-2.6v-10h3.5v10C455.6,106.8,455,108.4,453.8,109.5
	 M452.6,92.8h-3v-2.6h3V92.8z M448,92.8h-3v-2.6h3V92.8z M428,94.6l6.7,10.8h0V94.6h3.3v16.1h-3.5l-6.7-10.8h0v10.8h-3.3V94.6H428z
	 M420.4,105.9h-6.8v-2.7h6.8V105.9z M399.6,94.6l6.7,10.8h0V94.6h3.3v16.1h-3.5l-6.7-10.8h0v10.8h-3.3V94.6H399.6z M392.4,94.6v3
	h-8.5v3.4h7.8v2.7h-7.8v3.9h8.7v3h-12.2V94.6L392.4,94.6L392.4,94.6z M372.2,110.6c-0.8,0.3-1.5,0.5-2.3,0.5c-1.2,0-2.3-0.2-3.3-0.6
	s-1.8-1-2.5-1.8c-0.7-0.8-1.2-1.6-1.6-2.6c-0.4-1-0.5-2.1-0.5-3.3c0-1.2,0.2-2.3,0.5-3.3c0.4-1,0.9-1.9,1.6-2.7
	c0.7-0.8,1.5-1.4,2.5-1.8s2.1-0.7,3.3-0.7c0.8,0,1.6,0.1,2.4,0.4c0.8,0.2,1.5,0.6,2.1,1.1c0.6,0.5,1.1,1.1,1.5,1.8
	c0.4,0.7,0.7,1.5,0.7,2.4h-3.4c-0.2-0.9-0.6-1.6-1.2-2c-0.6-0.4-1.3-0.7-2.2-0.7c-0.8,0-1.5,0.2-2,0.5c-0.6,0.3-1,0.7-1.4,1.2
	s-0.6,1.1-0.8,1.8c-0.2,0.7-0.2,1.3-0.2,2c0,0.7,0.1,1.3,0.2,2c0.2,0.6,0.4,1.2,0.8,1.7s0.8,0.9,1.4,1.2c0.6,0.3,1.2,0.5,2,0.5
	c1.2,0,2.1-0.3,2.7-0.9c0.6-0.6,1-1.5,1.1-2.6h-3.6V102h6.8v8.7h-2.2l-0.4-1.8C373.7,109.7,373,110.3,372.2,110.6 M349,94.6
	l6.7,10.8h0V94.6h3.3v16.1h-3.5l-6.7-10.8h0v10.8h-3.3V94.6H349z M337.5,94.6l6,16.1h-3.7l-1.2-3.6h-6l-1.3,3.6h-3.6l6.1-16.1H337.5
	z M337.7,104.5l-2-5.9h0l-2.1,5.9H337.7z M318.5,94.6v13.1h7.8v3H315V94.6L318.5,94.6L318.5,94.6z M307.1,94.6
	c0.7,0,1.4,0.1,1.9,0.3c0.6,0.2,1.1,0.6,1.5,1c0.4,0.4,0.7,0.9,0.9,1.4s0.3,1.1,0.3,1.7c0,0.9-0.2,1.8-0.6,2.5
	c-0.4,0.7-1,1.2-1.9,1.6v0c0.4,0.1,0.8,0.3,1.1,0.6c0.3,0.2,0.5,0.5,0.7,0.9c0.2,0.3,0.3,0.7,0.4,1.1s0.1,0.8,0.2,1.2
	c0,0.3,0,0.6,0,0.9c0,0.3,0,0.7,0.1,1.1c0,0.4,0.1,0.7,0.2,1c0.1,0.3,0.2,0.6,0.4,0.8h-3.5c-0.2-0.5-0.3-1.1-0.4-1.8s-0.1-1.4-0.2-2
	c-0.1-0.8-0.4-1.5-0.8-1.8c-0.4-0.4-1-0.6-1.9-0.6h-3.5v6.3h-3.5V94.6L307.1,94.6L307.1,94.6z M305.8,101.9c0.8,0,1.4-0.2,1.8-0.5
	c0.4-0.4,0.6-0.9,0.6-1.8c0-0.8-0.2-1.3-0.6-1.7c-0.4-0.4-1-0.5-1.8-0.5h-3.9v4.5L305.8,101.9L305.8,101.9z M294.9,94.6v3h-8.5v3.4
	h7.8v2.7h-7.8v3.9h8.7v3h-12.2V94.6L294.9,94.6L294.9,94.6z"/>
<path class="st0" d="M424,73.3v-3h13.2v3h-4.8v13.1h-3.5V73.3H424z M418.3,70.3l6,16.1h-3.7l-1.2-3.6h-6l-1.3,3.6h-3.6l6.1-16.1
	H418.3z M418.5,80.2l-2-5.9h0l-2.1,5.9H418.5z M420.3,68.5h-3v-2.6h3V68.5z M415.6,68.5h-3v-2.6h3V68.5z M395.7,73.3v-3h13.2v3H404
	v13.1h-3.5V73.3H395.7z M392.9,86.4h-3.5V70.3h3.5V86.4z M376.4,82.4c0.2,0.4,0.5,0.7,0.8,0.9c0.3,0.2,0.7,0.4,1.1,0.5
	c0.4,0.1,0.9,0.2,1.3,0.2c0.3,0,0.7,0,1-0.1c0.4-0.1,0.7-0.2,1-0.3c0.3-0.1,0.6-0.4,0.8-0.6c0.2-0.3,0.3-0.6,0.3-1
	c0-0.4-0.1-0.8-0.4-1.1c-0.3-0.3-0.6-0.5-1.1-0.7c-0.4-0.2-1-0.3-1.5-0.5c-0.6-0.1-1.1-0.3-1.7-0.4c-0.6-0.1-1.2-0.3-1.8-0.6
	s-1.1-0.5-1.5-0.8c-0.4-0.3-0.8-0.8-1.1-1.3c-0.3-0.5-0.4-1.1-0.4-1.9c0-0.8,0.2-1.5,0.5-2.1c0.4-0.6,0.8-1.1,1.4-1.5
	c0.6-0.4,1.2-0.7,1.9-0.9c0.7-0.2,1.4-0.3,2.2-0.3c0.8,0,1.6,0.1,2.4,0.3s1.5,0.5,2.1,0.9s1.1,1,1.4,1.6c0.4,0.7,0.5,1.4,0.5,2.4
	h-3.4c0-0.5-0.1-0.9-0.3-1.2c-0.2-0.3-0.4-0.6-0.7-0.7s-0.6-0.3-1-0.4s-0.8-0.1-1.2-0.1c-0.3,0-0.6,0-0.9,0.1s-0.5,0.2-0.8,0.3
	s-0.4,0.3-0.6,0.6s-0.2,0.5-0.2,0.9c0,0.3,0.1,0.6,0.2,0.8s0.4,0.4,0.7,0.5c0.4,0.2,0.8,0.3,1.5,0.5c0.6,0.2,1.4,0.4,2.4,0.6
	c0.3,0.1,0.7,0.2,1.2,0.3c0.5,0.2,1.1,0.4,1.6,0.8c0.5,0.3,1,0.8,1.4,1.4c0.4,0.6,0.6,1.3,0.6,2.2c0,0.7-0.1,1.4-0.4,2
	c-0.3,0.6-0.7,1.2-1.3,1.6s-1.3,0.8-2.1,1.1c-0.8,0.3-1.8,0.4-2.9,0.4c-0.9,0-1.7-0.1-2.6-0.3c-0.8-0.2-1.6-0.6-2.2-1
	c-0.6-0.5-1.1-1.1-1.5-1.8c-0.4-0.7-0.6-1.6-0.5-2.6h3.4C376.1,81.6,376.2,82.1,376.4,82.4 M365.5,70.3c0.7,0,1.4,0.1,1.9,0.4
	c0.6,0.2,1.1,0.6,1.5,1s0.7,0.9,0.9,1.4c0.2,0.5,0.3,1.1,0.3,1.7c0,0.9-0.2,1.8-0.6,2.5c-0.4,0.7-1,1.2-1.9,1.6v0
	c0.4,0.1,0.8,0.3,1.1,0.6c0.3,0.2,0.5,0.5,0.7,0.9c0.2,0.3,0.3,0.7,0.4,1.1c0.1,0.4,0.1,0.8,0.2,1.2c0,0.3,0,0.6,0,0.9
	c0,0.3,0,0.7,0.1,1.1c0,0.4,0.1,0.7,0.2,1s0.2,0.6,0.4,0.8h-3.5c-0.2-0.5-0.3-1.1-0.4-1.8s-0.1-1.4-0.2-2c-0.1-0.8-0.4-1.5-0.8-1.8
	s-1-0.6-1.9-0.6h-3.5v6.3h-3.5V70.3H365.5z M364.2,77.6c0.8,0,1.4-0.2,1.8-0.5c0.4-0.4,0.6-0.9,0.6-1.8c0-0.8-0.2-1.3-0.6-1.7
	c-0.4-0.4-1-0.5-1.8-0.5h-3.9v4.5H364.2z M353.4,70.3v3h-8.5v3.4h7.8v2.7h-7.8v3.9h8.7v3h-12.2V70.3H353.4z M329.4,86.4l-5.2-16.1
	h3.6l3.6,11.3h0l3.6-11.3h3.6l-5.3,16.1H329.4z M321.7,86.4h-3.5V70.3h3.5V86.4z M304.2,70.3l6.7,10.8h0V70.3h3.3v16.1h-3.5
	L304,75.7h0v10.8h-3.3V70.3H304.2z M294.8,85.2c-1.2,1.1-2.9,1.6-5,1.6c-2.2,0-3.9-0.5-5-1.6s-1.8-2.7-1.8-4.9v-10h3.5v10
	c0,0.4,0,0.9,0.1,1.3c0.1,0.4,0.2,0.8,0.5,1.1c0.2,0.3,0.6,0.6,1,0.8c0.4,0.2,1,0.3,1.7,0.3c1.3,0,2.1-0.3,2.6-0.8
	c0.5-0.6,0.7-1.4,0.7-2.6v-10h3.5v10C296.7,82.5,296.1,84.1,294.8,85.2"/>
<path class="st0" d="M561.8,45.7c0.7,0,1.4,0.1,1.9,0.3c0.6,0.2,1.1,0.6,1.5,1s0.7,0.9,0.9,1.4c0.2,0.5,0.3,1.1,0.3,1.7
	c0,0.9-0.2,1.8-0.6,2.5c-0.4,0.7-1,1.2-1.9,1.6v0c0.4,0.1,0.8,0.3,1.1,0.6c0.3,0.2,0.5,0.5,0.7,0.9c0.2,0.3,0.3,0.7,0.4,1.1
	c0.1,0.4,0.1,0.8,0.2,1.2c0,0.3,0,0.6,0,0.9c0,0.3,0,0.7,0.1,1.1c0,0.4,0.1,0.7,0.2,1c0.1,0.3,0.2,0.6,0.4,0.8h-3.5
	c-0.2-0.5-0.3-1.1-0.4-1.8s-0.1-1.4-0.2-2c-0.1-0.8-0.4-1.5-0.8-1.8c-0.4-0.4-1-0.6-1.9-0.6h-3.5v6.3h-3.5V45.7H561.8z M560.5,53
	c0.8,0,1.4-0.2,1.8-0.5c0.4-0.4,0.6-0.9,0.6-1.8c0-0.8-0.2-1.3-0.6-1.7c-0.4-0.4-1-0.5-1.8-0.5h-3.9V53H560.5z M549.8,45.7v3h-8.5
	v3.4h7.8v2.7h-7.8v3.9h8.7v3h-12.2V45.7H549.8z M527.6,45.7c1,0,2,0.2,2.9,0.5s1.7,0.8,2.3,1.5c0.7,0.7,1.2,1.5,1.5,2.5
	s0.6,2.2,0.6,3.5c0,1.2-0.2,2.2-0.4,3.2c-0.3,1-0.8,1.8-1.4,2.6c-0.6,0.7-1.4,1.3-2.3,1.7c-0.9,0.4-2,0.6-3.2,0.6h-6.9V45.7H527.6z
	 M527.3,58.8c0.5,0,1-0.1,1.5-0.2c0.5-0.2,0.9-0.4,1.3-0.8c0.4-0.4,0.7-0.9,0.9-1.5c0.2-0.6,0.3-1.4,0.3-2.2c0-0.8-0.1-1.5-0.2-2.2
	c-0.2-0.7-0.4-1.2-0.8-1.7s-0.8-0.8-1.4-1.1c-0.6-0.2-1.3-0.4-2.2-0.4h-2.5v10.1L527.3,58.8L527.3,58.8z M506.8,45.7l6.7,10.8h0
	V45.7h3.3v16.1h-3.5l-6.7-10.8h0v10.8h-3.3V45.7H506.8z M495.2,45.7l6,16.1h-3.7l-1.2-3.6h-6l-1.3,3.6h-3.6l6.1-16.1H495.2z
	 M495.4,55.6l-2-5.9h0l-2.1,5.9H495.4z M469.4,45.7h4.1l3.2,5.1l3.3-5.1h3.9l-5.2,7.7l5.6,8.4H480l-3.5-5.6l-3.6,5.6h-4l5.6-8.4
	L469.4,45.7z M466.6,45.7v3h-8.5v3.4h7.8v2.7h-7.8v3.9h8.7v3h-12.2V45.7H466.6z M444,45.7v13.1h7.8v3h-11.4V45.7H444z M432,45.7
	l6,16.1h-3.7l-1.2-3.6h-6l-1.3,3.6h-3.6l6.1-16.1H432z M432.2,55.6l-2-5.9h0l-2.1,5.9H432.2z M420.6,57h-6.8v-2.7h6.8V57z
	 M399.8,45.7v6.2h6.5v-6.2h3.5v16.1h-3.5v-6.9h-6.5v6.9h-3.5V45.7H399.8z M389.1,50c-0.2-0.3-0.5-0.6-0.8-0.9
	c-0.3-0.3-0.7-0.5-1.1-0.6c-0.4-0.1-0.8-0.2-1.2-0.2c-0.8,0-1.5,0.2-2,0.5c-0.6,0.3-1,0.7-1.3,1.2c-0.3,0.5-0.6,1.1-0.8,1.8
	c-0.2,0.7-0.2,1.3-0.2,2c0,0.7,0.1,1.3,0.2,2c0.2,0.6,0.4,1.2,0.8,1.7c0.3,0.5,0.8,0.9,1.3,1.2c0.6,0.3,1.2,0.5,2,0.5
	c1.1,0,1.9-0.3,2.5-1c0.6-0.7,1-1.5,1.1-2.6h3.4c-0.1,1-0.3,1.9-0.7,2.7s-0.9,1.5-1.5,2.1s-1.3,1-2.2,1.3c-0.8,0.3-1.7,0.4-2.7,0.4
	c-1.2,0-2.3-0.2-3.3-0.6s-1.8-1-2.5-1.8c-0.7-0.8-1.2-1.6-1.6-2.6c-0.4-1-0.5-2.1-0.5-3.3c0-1.2,0.2-2.3,0.5-3.3
	c0.4-1,0.9-1.9,1.6-2.7c0.7-0.8,1.5-1.4,2.5-1.8s2.1-0.7,3.3-0.7c0.9,0,1.7,0.1,2.5,0.4c0.8,0.3,1.5,0.6,2.1,1.1
	c0.6,0.5,1.1,1.1,1.5,1.8s0.7,1.5,0.8,2.5h-3.4C389.4,50.7,389.3,50.4,389.1,50 M375,61.8h-3.5V45.7h3.5V61.8z M363.2,45.7
	c0.7,0,1.4,0.1,1.9,0.3c0.6,0.2,1.1,0.6,1.5,1c0.4,0.4,0.7,0.9,0.9,1.4c0.2,0.5,0.3,1.1,0.3,1.7c0,0.9-0.2,1.8-0.6,2.5
	c-0.4,0.7-1,1.2-1.9,1.6v0c0.4,0.1,0.8,0.3,1.1,0.6c0.3,0.2,0.5,0.5,0.7,0.9c0.2,0.3,0.3,0.7,0.4,1.1c0.1,0.4,0.1,0.8,0.2,1.2
	c0,0.3,0,0.6,0,0.9c0,0.3,0,0.7,0.1,1.1s0.1,0.7,0.2,1c0.1,0.3,0.2,0.6,0.4,0.8h-3.5c-0.2-0.5-0.3-1.1-0.4-1.8c0-0.7-0.1-1.4-0.2-2
	c-0.1-0.8-0.4-1.5-0.8-1.8c-0.4-0.4-1-0.6-1.9-0.6H358v6.3h-3.5V45.7H363.2z M361.9,53c0.8,0,1.4-0.2,1.8-0.5
	c0.4-0.4,0.6-0.9,0.6-1.8c0-0.8-0.2-1.3-0.6-1.7c-0.4-0.4-1-0.5-1.8-0.5H358V53H361.9z M344.3,45.7c1,0,2,0.2,2.9,0.5
	s1.7,0.8,2.3,1.5c0.7,0.7,1.2,1.5,1.5,2.5c0.4,1,0.6,2.2,0.6,3.5c0,1.2-0.1,2.2-0.5,3.2c-0.3,1-0.8,1.8-1.4,2.6
	c-0.6,0.7-1.4,1.3-2.3,1.7c-0.9,0.4-2,0.6-3.2,0.6h-6.9V45.7H344.3z M344.1,58.8c0.5,0,1-0.1,1.5-0.2s0.9-0.4,1.3-0.8
	c0.4-0.4,0.7-0.9,0.9-1.5s0.3-1.4,0.3-2.2c0-0.8-0.1-1.5-0.2-2.2c-0.2-0.7-0.4-1.2-0.8-1.7c-0.4-0.5-0.8-0.8-1.4-1.1
	c-0.6-0.2-1.3-0.4-2.2-0.4h-2.5v10.1L344.1,58.8L344.1,58.8z M333.9,45.7v3h-8.5v3.4h7.8v2.7h-7.8v3.9h8.7v3h-12.2V45.7H333.9z
	 M317.9,61.8h-3.5V45.7h3.5V61.8z M305.7,45.7c0.7,0,1.4,0.1,1.9,0.3c0.6,0.2,1.1,0.6,1.5,1c0.4,0.4,0.7,0.9,0.9,1.4
	c0.2,0.5,0.3,1.1,0.3,1.7c0,0.9-0.2,1.8-0.6,2.5c-0.4,0.7-1,1.2-1.9,1.6v0c0.4,0.1,0.8,0.3,1.1,0.6c0.3,0.2,0.5,0.5,0.7,0.9
	c0.2,0.3,0.3,0.7,0.4,1.1c0.1,0.4,0.1,0.8,0.2,1.2c0,0.3,0,0.6,0,0.9c0,0.3,0,0.7,0.1,1.1s0.1,0.7,0.2,1c0.1,0.3,0.2,0.6,0.4,0.8
	h-3.5c-0.2-0.5-0.3-1.1-0.4-1.8s-0.1-1.4-0.2-2c-0.1-0.8-0.4-1.5-0.8-1.8c-0.4-0.4-1-0.6-1.9-0.6h-3.5v6.3h-3.5V45.7H305.7z
	 M304.5,53c0.8,0,1.4-0.2,1.8-0.5s0.6-0.9,0.6-1.8c0-0.8-0.2-1.3-0.6-1.7c-0.4-0.4-1-0.5-1.8-0.5h-3.9V53H304.5z M294.2,45.7v3h-7.8
	v3.7h6.7v2.7h-6.7v6.6h-3.5V45.7H294.2z"/>
</svg>
