<?xml version="1.0" encoding="utf-8"?>
<!-- Generator: Adobe Illustrator 23.0.4, SVG Export Plug-In . SVG Version: 6.00 Build 0)  -->
<svg version="1.1" id="Ebene_1" xmlns="http://www.w3.org/2000/svg" xmlns:xlink="http://www.w3.org/1999/xlink" x="0px" y="0px"
	 viewBox="0 0 1000 972.8" style="enable-background:new 0 0 1000 972.8;" xml:space="preserve">
<style type="text/css">
	.st0{fill:#024275;}
</style>
<g id="IJpqbI.tif">
	<g>
		<path class="st0" d="M539.6,116.6c1.2,0.2,2.5,0.4,3.7,0.7c12.6,2.5,22.8,12.9,25.1,25.5c2.5,14.3-4.2,28-17.1,34.7
			c-3.8,2-7.9,3.1-12.1,3.4c-0.1,0-0.3,0.1-0.4,0.2c-1.4,0-2.8,0-4.2,0c-1-0.2-2-0.3-3-0.5c-12.8-1.9-23.6-12.2-26.2-25
			c-3.5-17.1,6.7-33.6,23.6-38c1.5-0.4,3-0.5,4.5-0.8c0.2,0,0.3-0.1,0.4-0.2C535.8,116.6,537.7,116.6,539.6,116.6z M562.2,148.8
			c0-14-11.4-25.4-25.4-25.4c-14,0-25.5,11.4-25.5,25.3c0,14.1,11.3,25.4,25,25.5C550.8,174.3,562.2,162.9,562.2,148.8z"/>
		<path class="st0" d="M354,149c2.1,0,4.2,0,6.4,0c12.6,0,25.2,0,37.8,0c0.3,0,0.7,0,1.1,0c0,1.9,0,3.8,0,5.7c-15.1,0-30.1,0-45.2,0
			C354,152.8,354,150.9,354,149z"/>
		<path class="st0" d="M479.9,167.8c0-10.2,0-20.2,0-30.3c3.2,0,6.3,0,9.4,0c0.7,0,1.5,0.3,2.2,0.6c2.2,0.9,3.6,2.4,3.6,4.9
			c0,6.4,0.1,12.7,0,19.1c-0.1,3.1-2.1,5.1-5.1,5.5c-1,0.1-2,0.2-3,0.2C484.6,167.8,482.3,167.8,479.9,167.8z M486.5,141.4
			c0,7.4,0,14.9,0,22.3c1.3,0,1.8-0.5,1.8-1.8c0-6.3,0-12.5,0-18.8C488.4,141.9,487.9,141.5,486.5,141.4z"/>
		<path class="st0" d="M463.3,137.5c2.3,0,4.4,0,6.6,0c0,0.3,0,0.6,0,0.9c0,8,0,15.9,0,23.9c0,2.2-0.9,3.8-2.9,4.7
			c-3.5,1.6-7,1.5-10.5-0.3c-1.4-0.7-2.2-2-2.2-3.6c0-8.4,0-16.8,0-25.2c0-0.1,0-0.2,0.1-0.3c2.2,0,4.3,0,6.6,0c0,0.3,0,0.6,0,1
			c0,8,0,16,0,23.9c0,1,0.3,1.4,1.2,1.4c0.6,0,1-0.3,1-1c0-0.2,0-0.5,0-0.7c0-7.9,0-15.7,0-23.6
			C463.3,138.2,463.3,137.9,463.3,137.5z"/>
		<path class="st0" d="M420.4,147.8c-2,0-4,0-6.1,0c0-1.8,0-3.5,0-5.3c0-0.6-0.1-1.1-0.8-1.2c-0.7-0.1-1.2,0.3-1.2,1
			c-0.2,2.4,0.2,4.5,2,6.3c1.7,1.6,3.2,3.2,4.8,4.9c1.3,1.4,2,3.1,1.9,5.1c-0.1,1.2,0,2.4,0,3.7c0,2.7-1.4,4.6-4,5.3
			c-2.4,0.7-4.9,0.7-7.3,0c-2.5-0.7-3.8-2.4-3.8-5c0-2.3,0-4.6,0-6.9c2,0,4,0,6.1,0c0,2.2,0,4.5,0,6.7c0,0.7,0.3,1.2,1,1.2
			c0.9,0.1,1.4-0.3,1.4-1.2c0-1.1,0.2-2.2,0-3.3c-0.2-1-0.6-2-1.2-2.7c-1.3-1.6-2.8-2.9-4.2-4.4c-0.2-0.2-0.3-0.3-0.5-0.5
			c-1.9-1.8-2.9-3.9-2.6-6.6c0.1-1.1,0-2.3,0.2-3.4c0.3-1.7,1.3-2.9,2.9-3.5c2.7-1.1,5.5-1.1,8.3-0.3c2,0.6,3.1,2.1,3.2,4.1
			C420.5,143.8,420.4,145.8,420.4,147.8z"/>
		<path class="st0" d="M440.9,167.8c-2.3,0-4.4,0-6.7,0c0-8.8,0-17.5,0-26.3c-1.3,0-2.5,0-3.7,0c0-1.3,0-2.6,0-4c4.7,0,9.3,0,14,0
			c0,1.3,0,2.6,0,3.9c-1.2,0-2.4,0-3.6,0C440.9,150.2,440.9,159,440.9,167.8z"/>
		<path class="st0" d="M593.9,167.8c-2.3,0-4.5,0-6.8,0c-1.4-5-2.8-10.1-4.3-15.1c-0.1,0-0.1,0-0.2,0c0,5,0,10,0,15.1
			c-1.9,0-3.7,0-5.5,0c0-10.1,0-20.1,0-30.2c2.5,0,5,0,7.5,0c1.2,4.2,2.3,8.4,3.5,12.6c0.1,0,0.1,0,0.2,0c0-4.2,0-8.4,0-12.6
			c1.9,0,3.7,0,5.6,0C593.9,147.6,593.9,157.6,593.9,167.8z"/>
		<path class="st0" d="M646,149c0,1.9,0,3.7,0,5.6c-15.1,0-30.1,0-45.2,0c0-1.9,0-3.7,0-5.6C615.9,149,630.9,149,646,149z"/>
	</g>
</g>
</svg>
