<?xml version="1.0" encoding="utf-8"?>
<!-- Generator: Adobe Illustrator 24.1.2, SVG Export Plug-In . SVG Version: 6.00 Build 0)  -->
<svg version="1.1" id="Ebene_1" xmlns="http://www.w3.org/2000/svg" xmlns:xlink="http://www.w3.org/1999/xlink" x="0px" y="0px"
	 viewBox="0 0 385.2 162.2" style="enable-background:new 0 0 385.2 162.2;" xml:space="preserve">
<style type="text/css">
	.st0{fill:#FFFFFF;}
</style>
<g id="IJpqbI.tif">
	<g>
		<path class="st0" d="M244.9,46.9c1.6,0.3,3.3,0.6,4.9,0.9c16.6,3.3,30.1,17.1,33.1,33.7c3.4,18.9-5.5,36.9-22.5,45.7
			c-5,2.6-10.4,4.1-16,4.5c-0.2,0-0.4,0.1-0.6,0.2c-1.8,0-3.7,0-5.5,0c-1.3-0.2-2.7-0.5-4-0.7c-16.9-2.5-31.1-16.1-34.6-32.9
			c-4.7-22.6,8.8-44.3,31.1-50.1c2-0.5,4-0.7,6-1.1c0.2,0,0.4-0.1,0.6-0.2C239.8,46.9,242.3,46.9,244.9,46.9z M274.6,89.3
			c0-18.5-15-33.5-33.5-33.5s-33.6,15-33.6,33.4c0,18.6,14.9,33.5,33,33.6C259.5,123,274.6,108,274.6,89.3z"/>
		<path class="st0" d="M0,89.6c2.8,0,5.6,0,8.4,0c16.6,0,33.2,0,49.8,0c0.5,0,0.9,0,1.4,0c0,2.5,0,5,0,7.6c-19.9,0-39.8,0-59.6,0
			C0,94.6,0,92.1,0,89.6z"/>
		<path class="st0" d="M166.1,114.4c0-13.4,0-26.6,0-39.9c4.2,0,8.3,0,12.4,0c1,0,1.9,0.4,2.9,0.8c2.9,1.1,4.7,3.2,4.7,6.5
			c0,8.4,0.1,16.8,0,25.1c-0.1,4-2.8,6.7-6.8,7.3c-1.3,0.2-2.7,0.2-4,0.2C172.2,114.4,169.2,114.4,166.1,114.4z M174.9,79.7
			c0,9.8,0,19.6,0,29.4c1.7,0,2.4-0.6,2.4-2.3c0-8.3,0-16.5,0-24.8C177.3,80.3,176.6,79.7,174.9,79.7z"/>
		<path class="st0" d="M144.2,74.5c3,0,5.8,0,8.8,0c0,0.4,0,0.8,0,1.2c0,10.5,0,21,0,31.5c0,3-1.2,5.1-3.8,6.2
			c-4.6,2.1-9.3,1.9-13.8-0.4c-1.9-1-2.8-2.7-2.9-4.8c0-11.1,0-22.2,0-33.3c0-0.1,0-0.2,0.1-0.4c2.9,0,5.7,0,8.7,0
			c0,0.4,0,0.8,0,1.3c0,10.5,0,21.1,0,31.6c0,1.4,0.4,1.9,1.6,1.8c0.8,0,1.3-0.4,1.3-1.3c0-0.3,0-0.6,0-0.9c0-10.4,0-20.7,0-31.1
			C144.2,75.4,144.2,75,144.2,74.5z"/>
		<path class="st0" d="M87.7,88c-2.7,0-5.3,0-8,0c0-2.3,0-4.6,0-6.9c0-0.8-0.1-1.5-1.1-1.6S77.1,80,77,80.9c-0.3,3.1,0.2,6,2.6,8.3
			c2.2,2.1,4.3,4.3,6.4,6.5c1.8,1.9,2.6,4.1,2.5,6.7c-0.1,1.6,0,3.2,0,4.8c0,3.5-1.9,6.1-5.3,7c-3.2,0.9-6.4,0.9-9.6,0
			c-3.3-0.9-5-3.1-5-6.6c0-3,0-6,0-9.1c2.7,0,5.3,0,8,0c0,3,0,5.9,0,8.8c0,1,0.3,1.5,1.3,1.6c1.2,0.1,1.8-0.4,1.9-1.6
			c0-1.5,0.2-2.9-0.1-4.4c-0.2-1.3-0.7-2.6-1.5-3.6c-1.7-2.1-3.7-3.9-5.5-5.8c-0.2-0.2-0.4-0.4-0.6-0.7c-2.5-2.3-3.9-5.1-3.4-8.7
			c0.2-1.5,0-3,0.2-4.4c0.3-2.2,1.7-3.8,3.8-4.6c3.6-1.4,7.3-1.5,10.9-0.3c2.6,0.8,4.1,2.7,4.2,5.4C87.8,82.8,87.7,85.4,87.7,88z"/>
		<path class="st0" d="M114.7,114.4c-3,0-5.8,0-8.8,0c0-11.5,0-23.1,0-34.7c-1.7,0-3.2,0-4.9,0c0-1.8,0-3.5,0-5.2
			c6.1,0,12.3,0,18.4,0c0,1.7,0,3.4,0,5.2c-1.6,0-3.1,0-4.8,0C114.7,91.3,114.7,102.8,114.7,114.4z"/>
		<path class="st0" d="M316.4,114.4c-3,0-6,0-9,0c-1.9-6.6-3.7-13.3-5.6-20c-0.1,0-0.2,0-0.3,0c0,6.6,0,13.2,0,19.9
			c-2.5,0-4.9,0-7.3,0c0-13.3,0-26.5,0-39.9c3.3,0,6.6,0,9.9,0c1.5,5.5,3.1,11.1,4.6,16.7c0.1,0,0.2,0,0.2,0c0-5.5,0-11.1,0-16.7
			c2.5,0,4.9,0,7.4,0C316.4,87.7,316.4,101,316.4,114.4z"/>
		<path class="st0" d="M385.2,89.7c0,2.5,0,4.9,0,7.4c-19.9,0-39.7,0-59.6,0c0-2.5,0-4.9,0-7.4C345.4,89.7,365.3,89.7,385.2,89.7z"
			/>
	</g>
</g>
</svg>
