<?xml version="1.0" encoding="utf-8"?>
<!-- Generator: Adobe Illustrator 23.0.4, SVG Export Plug-In . SVG Version: 6.00 Build 0)  -->
<svg version="1.1" id="Ebene_1" xmlns="http://www.w3.org/2000/svg" xmlns:xlink="http://www.w3.org/1999/xlink" x="0px" y="0px"
	 viewBox="0 0 286 286" style="enable-background:new 0 0 286 286;" xml:space="preserve">
<style type="text/css">
	.st0{fill:#FFFFFF;}
</style>
<g id="IJpqbI.tif_1_">
	<g>
		<path class="st0" d="M165.9,124.4c0.7,0.1,1.4,0.3,2.1,0.4c7.3,1.5,13.2,7.5,14.5,14.8c1.5,8.3-2.4,16.2-9.9,20
			c-2.2,1.1-4.5,1.8-7,2c-0.1,0-0.2,0.1-0.2,0.1c-0.8,0-1.6,0-2.4,0c-0.6-0.1-1.2-0.2-1.7-0.3c-7.4-1.1-13.7-7.1-15.2-14.4
			c-2-9.9,3.9-19.4,13.7-22c0.9-0.2,1.7-0.3,2.6-0.5c0.1,0,0.2-0.1,0.3-0.1C163.7,124.4,164.8,124.4,165.9,124.4z M179,143
			c0-8.1-6.6-14.7-14.7-14.7c-8.1,0-14.7,6.6-14.7,14.7c0,8.1,6.5,14.7,14.5,14.7C172.4,157.7,179,151.2,179,143z"/>
		<path class="st0" d="M58.6,143.1c1.2,0,2.4,0,3.7,0c7.3,0,14.6,0,21.8,0c0.2,0,0.4,0,0.6,0c0,1.1,0,2.2,0,3.3
			c-8.7,0-17.4,0-26.1,0C58.6,145.3,58.6,144.2,58.6,143.1z"/>
		<path class="st0" d="M131.4,154c0-5.9,0-11.7,0-17.5c1.8,0,3.6,0,5.4,0c0.4,0,0.9,0.2,1.3,0.3c1.3,0.5,2.1,1.4,2.1,2.8
			c0,3.7,0.1,7.3,0,11c0,1.8-1.2,2.9-3,3.2c-0.6,0.1-1.2,0.1-1.8,0.1C134.1,154,132.7,154,131.4,154z M135.2,138.8
			c0,4.3,0,8.6,0,12.9c0.8,0,1.1-0.3,1.1-1c0-3.6,0-7.2,0-10.9C136.3,139,136,138.8,135.2,138.8z"/>
		<path class="st0" d="M121.8,136.5c1.3,0,2.5,0,3.8,0c0,0.2,0,0.4,0,0.5c0,4.6,0,9.2,0,13.8c0,1.3-0.5,2.2-1.7,2.7
			c-2,0.9-4.1,0.8-6-0.2c-0.8-0.4-1.2-1.2-1.3-2.1c0-4.9,0-9.7,0-14.6c0,0,0-0.1,0-0.2c1.3,0,2.5,0,3.8,0c0,0.2,0,0.4,0,0.6
			c0,4.6,0,9.2,0,13.8c0,0.6,0.2,0.8,0.7,0.8c0.4,0,0.6-0.2,0.6-0.6c0-0.1,0-0.3,0-0.4c0-4.5,0-9.1,0-13.6
			C121.8,136.9,121.8,136.7,121.8,136.5z"/>
		<path class="st0" d="M97,142.4c-1.2,0-2.3,0-3.5,0c0-1,0-2,0-3c0-0.4-0.1-0.7-0.5-0.7c-0.4,0-0.7,0.2-0.7,0.6
			c-0.1,1.4,0.1,2.6,1.2,3.6c1,0.9,1.9,1.9,2.8,2.8c0.8,0.8,1.2,1.8,1.1,2.9c0,0.7,0,1.4,0,2.1c0,1.6-0.8,2.7-2.3,3.1
			c-1.4,0.4-2.8,0.4-4.2,0c-1.5-0.4-2.2-1.4-2.2-2.9c0-1.3,0-2.6,0-4c1.2,0,2.3,0,3.5,0c0,1.3,0,2.6,0,3.9c0,0.4,0.2,0.7,0.6,0.7
			c0.5,0.1,0.8-0.2,0.8-0.7c0-0.6,0.1-1.3,0-1.9c-0.1-0.6-0.3-1.2-0.7-1.6c-0.7-0.9-1.6-1.7-2.4-2.5c-0.1-0.1-0.2-0.2-0.3-0.3
			c-1.1-1-1.7-2.2-1.5-3.8c0.1-0.6,0-1.3,0.1-2c0.2-1,0.8-1.7,1.7-2c1.6-0.6,3.2-0.6,4.8-0.2c1.1,0.3,1.8,1.2,1.9,2.4
			C97.1,140.1,97,141.3,97,142.4z"/>
		<path class="st0" d="M108.8,154c-1.3,0-2.6,0-3.9,0c0-5.1,0-10.1,0-15.2c-0.7,0-1.4,0-2.1,0c0-0.8,0-1.5,0-2.3c2.7,0,5.4,0,8.1,0
			c0,0.7,0,1.5,0,2.3c-0.7,0-1.4,0-2.1,0C108.8,143.8,108.8,148.9,108.8,154z"/>
		<path class="st0" d="M197.3,154c-1.3,0-2.6,0-4,0c-0.8-2.9-1.6-5.8-2.5-8.7c0,0-0.1,0-0.1,0c0,2.9,0,5.8,0,8.7c-1.1,0-2.1,0-3.2,0
			c0-5.8,0-11.6,0-17.5c1.4,0,2.9,0,4.4,0c0.7,2.4,1.3,4.9,2,7.3c0,0,0.1,0,0.1,0c0-2.4,0-4.9,0-7.3c1.1,0,2.2,0,3.2,0
			C197.3,142.3,197.3,148.1,197.3,154z"/>
		<path class="st0" d="M227.4,143.1c0,1.1,0,2.2,0,3.2c-8.7,0-17.4,0-26.1,0c0-1.1,0-2.1,0-3.2C210,143.1,218.7,143.1,227.4,143.1z"
			/>
	</g>
</g>
</svg>
