<?xml version="1.0" encoding="utf-8"?>
<!-- Generator: Adobe Illustrator 23.0.1, SVG Export Plug-In . SVG Version: 6.00 Build 0)  -->
<svg version="1.0" id="Ebene_1" xmlns="http://www.w3.org/2000/svg" xmlns:xlink="http://www.w3.org/1999/xlink" x="0px" y="0px"
	 viewBox="0 0 1000 972.8" style="enable-background:new 0 0 1000 972.8;" xml:space="preserve">
<style type="text/css">
	.st0{opacity:0.1;}
	.st1{fill:#4A668B;}
	.st2{opacity:0.25;}
	.st3{opacity:0.5;}
	.st4{opacity:0.75;}
	.st5{clip-path:url(#SVGID_6_);}
	.st6{fill:#577FAA;}
	.st7{fill:#384F68;}
	.st8{fill:#577FAA;stroke:#384F68;stroke-width:3;stroke-miterlimit:10;}
</style>
<g>
	<g class="st0">
		<path class="st1" d="M-18.5,1244.6v-161.9h1072.1l228.2,114.1c0,0-411.9,30.3-533.4,104.8c-140.7,86.2-204.3,80.9-355.6,15.9
			c-142-61-258.9-7.9-364.9-181.8L-18.5,1244.6z"/>
	</g>
	<g class="st2">
		<path class="st1" d="M1727.7,1521.9c0,0-312.2-276.3-467.1-211c-169.8,71.7-309.2,130-402,96.9c-123-43.9-240.5-152.8-311.8-143.3
			c-139.2,18.6-234.2,229.6-354.3,156.6C78.9,1352,0.1,1257.9,0.1,1257.9v-98.2l1732.9-13.3L1727.7,1521.9z"/>
	</g>
	<g class="st3">
		<path class="st1" d="M1706.5,1256.5c0,0-284,136.7-448.5,171.2c-164.5,34.5-269.4-38.5-509.5-134c-193.2-76.8-237.1-67.4-360.9,0
			c-104.8,57.1-399.4,297.2-510.9,83.6c-70.3-134.9,82.3-171.2,82.3-171.2l142-111.5l1608.2-15.9L1706.5,1256.5z"/>
	</g>
	<g class="st4">
		<path class="st1" d="M1358.8,1503.4c0,0-397.6-400.3-548-325.1c-10.6,5.3-309.2-2.7-376.8-55.7
			c-23.2-18.2-228.2,175.2-287.9,230.9c-72.7,67.9-169.8,119.4-249.5,51.7c-101-85.9-156.6-131.4-156.6-131.4l15.9-175.2
			l1608.2-15.9L1358.8,1503.4z"/>
	</g>
	<g>
		<path class="st1" d="M1342.9,1328.2c0,0-92.9-110.1-257.4-75.6c-164.5,34.5-212.7,48.8-363.6-8c-144.6-54.4-245.2-32.3-351.6,19.9
			c-73,35.8-154.6,76.5-284-5.3c-65-41.1-126.1-34.5-126.1-34.5l8-200.4l1374.7-13.3V1328.2z"/>
	</g>
</g>
<path class="st1" d="M-762.2,1601.2c37,0,72.8-13.7,100.3-38.5c11.9,19.1,36.9,24.9,56,13.1c4.8-3,9-7,12.2-11.7
	c50.6,30.6,116.4,15.1,147.9-34.9c16.9,15.6,43.3,14.6,58.9-2.3c0.6-0.6,1.1-1.2,1.6-1.8c93.5,49.8,209.7,16.7,262.9-74.8
	c8.2,2.2,16.9,1.7,24.8-1.5c23.7,30.4,67.5,35.8,97.9,12.2c6.2-4.9,11.6-10.8,15.9-17.4c43.1,20.8,94.7,9.6,125.4-27.1
	c9.9,25.3,38.5,37.8,63.8,27.8c12.4-4.9,22.2-14.5,27.4-26.7c11.9,7.4,27.2,6.4,38-2.5c5.8,15.9,23.3,24.1,39.2,18.3
	c1.8-0.6,3.5-1.4,5.1-2.4c46,51.1,124.6,55.9,176.4,10.6c17.5,20.5,47,26,70.7,13c-5.7,21.4,7,43.3,28.4,49s43.3-7,49-28.4
	c14,6.6,30.6,0.6,37.2-13.4c0.1-0.1,0.1-0.2,0.2-0.4c34.6,31.1,87.8,28.3,118.9-6.2c7.1-7.8,12.6-17,16.3-26.8
	c18.9,22.4,50.9,28.3,76.6,14.1c49.5,63.3,141,74.5,204.3,25c14.3-11.2,26.4-25,35.7-40.6c18.5,14.8,45.5,12,60.6-6.2
	c40.5,24.6,93.1,13.2,119.9-25.9c7.8,5.1,16.8,7.8,26.1,7.8l0.6,0c19.5,38,66.2,53,104.2,33.5c0.6-0.3,1.1-0.6,1.7-0.9
	c65.5,68.7,170.2,82.1,250.9,32.2c11.1,9.2,25,14.3,39.5,14.2l1.8,0c7.8,48,53.1,80.6,101.1,72.7c48-7.8,80.6-53.1,72.7-101.1
	c-3.6-22.3-15.7-42.4-33.8-56l79.2-0.1l-0.5-382.8l-212.1,0.3l0.2,152.7c-71.4-84.9-198-95.9-282.9-24.6
	c-44.3,37.2-70.4,91.8-71.6,149.7c-12.7,3.1-24.5,9.4-34.1,18.4c-11-4.3-23.2-4.2-34.1,0c-18.7-45.6-70.8-67.3-116.3-48.6
	c-28.9,11.8-49.4,37.9-54.2,68.7c-12-79.5-86.2-134.2-165.7-122.2c-44.5,6.7-83.4,33.7-105.4,73l0-20.4l-374.1,0.5
	c-46.7-51.6-126.4-55.5-178-8.7c-15.5,14-27.2,31.7-34.2,51.4l-136.8-5c-27.6-50.5-90.9-69.1-141.5-41.5
	c-15.3,8.3-28.2,20.4-37.6,35l-79.4-2.9c-33.7-103.4-144.8-159.9-248.2-126.3c-75.6,24.6-129,92.3-135.3,171.5l-176.6,0.3
	c-63.6-53.5-158.6-45.2-212,18.4c-53.5,63.6-45.2,158.6,18.4,212C-831.9,1588.7-797.6,1601.2-762.2,1601.2L-762.2,1601.2z"/>
<g>
	<polyline class="st1" points="0,577 0,0 1000,0 1000,577 	"/>
</g>
<g>
	<g>
		<g>
			<defs>
				<rect id="SVGID_3_" x="27.8" y="222" width="159.2" height="111.4"/>
			</defs>
			<use xlink:href="#SVGID_3_"  style="overflow:visible;fill:#577FAA;"/>
			<clipPath id="SVGID_6_">
				<use xlink:href="#SVGID_3_"  style="overflow:visible;"/>
			</clipPath>
			<g class="st5">
				<rect x="29.3" y="223.5" class="st6" width="156.2" height="108.4"/>
				<path class="st7" d="M184,225v105.4H30.8V225H184 M187,222H27.8v111.4H187V222L187,222z"/>
			</g>
		</g>
		<g>
			<g id="SVGID_2_">
				<rect x="29.3" y="223.5" class="st6" width="156.2" height="108.4"/>
				<path class="st7" d="M184,225v105.4H30.8V225H184 M187,222H27.8v111.4H187V222L187,222z"/>
			</g>
		</g>
	</g>
	<g id="SVGID_1_">
		<rect x="29.3" y="223.5" class="st6" width="156.2" height="108.4"/>
		<path class="st7" d="M184,225v105.4H30.8V225H184 M187,222H27.8v111.4H187V222L187,222z"/>
	</g>
	<g>
		<path class="st6" d="M168.7,411.5c-2.6,0-4.5-1.3-5.8-3.9l-12.3-27.1H63.5l-12.3,27.1c-1.3,2.6-3.2,3.9-5.8,3.9
			c-0.7,0-1,0-1.3-0.4l-0.2-0.2l-0.3-0.1c-3.1-1.2-4.5-5-3.1-8.4l32-70.5h-43V319h156.2v12.9h-43l32,70.6c1.3,3.3-0.1,7.1-3.2,8.3
			l-0.3,0.1l-0.2,0.2C170.6,411.4,169.9,411.5,168.7,411.5z M69.3,368.3h75.5l-15.2-33.7c-0.1-1.4-0.9-1.8-2.4-2.6l-0.3-0.2H84.4
			v2.8L69.3,368.3z"/>
		<path class="st7" d="M184,320.5v9.9h-39.2h-4.7l1.9,4.2l31,68.4c0.5,1.2,0.5,2.6,0,3.9c-0.4,1.2-1.3,2.1-2.4,2.5l-0.6,0.2
			l-0.3,0.3c-0.3,0.1-1,0.1-1.2,0.1c-1.4,0-3.1-0.4-4.5-3.1l-11.9-26.2l-0.8-1.8h-1.9H64.4h-1.9l-0.8,1.8l-11.9,26.2
			c-1.4,2.7-3.1,3.1-4.5,3.1c-0.1,0-0.2,0-0.4,0l-0.3-0.3l-0.6-0.2c-1.1-0.4-1.9-1.3-2.4-2.5c-0.4-1.2-0.4-2.6,0-3.9l31-68.4
			l1.9-4.2H70H30.8v-9.9H184 M82.9,334.4l-14.1,31.2l-1.9,4.2h4.6h70.8h4.6l-1.9-4.2l-14.1-31.3c-0.3-2.1-1.6-2.7-3.2-3.5l-0.6-0.3
			h-0.7H85.9h-3v3V334.4 M187,317.5H27.8v15.9H70l-31,68.4c-1.6,4,0,8.8,4,10.3c0.8,0.8,1.6,0.8,2.4,0.8c3.2,0,5.6-1.6,7.2-4.8
			L64.4,382h85.2l11.9,26.3c1.6,3.2,4,4.8,7.2,4.8c0.8,0,2.4,0,3.2-0.8c4-1.6,5.6-6.4,4-10.3l-31-68.4H187V317.5L187,317.5z
			 M71.6,366.8L85.9,335c0-0.8,0-0.8,0-1.6h40.6c1.6,0.8,1.6,0.8,1.6,1.6l14.3,31.8H71.6L71.6,366.8z"/>
	</g>
</g>
<g>
	<g>
		<path class="st6" d="M859.6,388l-2.3-14.5l-14.1-3l-2.2-14.1l-14.1-3l-2.2-14.1l-13.3-2.8l-20.3-21.1l-0.9,0.2
			c-4,1.1-8.2,1.7-12.3,1.7c-12.3,0-23.9-5-32.4-14.1c-8.9-8.9-13.8-20.7-13.6-33.2c0.1-12.6,5.3-24.4,14.5-33.2
			c8.6-8.6,20.1-13.3,32.5-13.3c12.8,0,24.8,5,33.9,14.1c11.4,11.4,15.6,28.9,10.9,45.5l-0.2,0.8l70.4,72.6l-0.8,32.2L859.6,388z
			 M755.3,246.5c-3.6,3.1-5.6,7.6-5.6,12.4c0,4.8,2,9.3,5.6,12.4c3.4,3.4,7.9,5.3,12.5,5.3c4.6,0,9.1-1.9,12.6-5.5
			c3.5-3.5,5.4-8,5.4-12.6c0-4.7-2-9.2-5.9-13l-0.1-0.1l-0.1-0.1c-3.6-2.5-8.1-4-12.4-4C762.4,241.3,758.1,243.2,755.3,246.5z"/>
		<path class="st7" d="M778.5,225c12.4,0,24,4.9,32.8,13.7c10.9,10.9,15,28.2,10.5,44.1l-0.5,1.7l1.2,1.2l69.4,71.6l-0.8,30
			l-30.3-0.8l-1.9-12.2l-0.3-2l-2-0.4l-12.1-2.5l-1.9-12.1l-0.3-2l-2-0.4l-12.1-2.5l-1.9-12.1l-0.3-2l-2-0.4l-11.8-2.5L792.6,315
			l-1.2-1.3l-1.7,0.5c-3.9,1.1-7.9,1.7-11.9,1.7c-11.9,0-23.1-4.8-31.4-13.7l0,0l0,0c-8.6-8.6-13.3-20-13.2-32.1
			c0.1-12.2,5.1-23.6,14-32.1l0,0l0,0C755.5,229.6,766.6,225,778.5,225 M754.2,245.4c-3.9,3.4-6.1,8.3-6.1,13.5
			c0,5.2,2.2,10.1,6.1,13.5c3.8,3.7,8.6,5.7,13.5,5.7c5,0,9.9-2.1,13.7-5.9c3.8-3.8,5.9-8.6,5.9-13.7c0-5.1-2.2-10-6.4-14.1
			l-0.2-0.2l-0.2-0.1c-3.8-2.7-8.7-4.3-13.3-4.3C762,239.8,757.4,241.8,754.2,245.4 M778.5,222c-12.2,0-24.3,4.6-33.5,13.8
			c-9.5,9.1-14.8,21.2-14.9,34.2c-0.1,12.9,4.9,25.1,14,34.3c9,9.5,21,14.6,33.5,14.6c4.2,0,8.5-0.6,12.7-1.8l20,20.8l12.7,2.7
			l2.2,14.1l14.1,3l2.2,14.1l14.1,3l2.3,14.7l35.8,0.9L895,356l-70.2-72.5c4.8-17,0.5-35.2-11.3-47C803.8,226.9,791.1,222,778.5,222
			L778.5,222z M767.7,275.1c-4.1,0-8.1-1.6-11.5-4.9c-3.2-2.8-5.1-6.9-5.1-11.3c0-4.4,1.9-8.6,5.2-11.4c2.8-3.3,6.8-4.7,10.9-4.7
			c4.1,0,8.3,1.4,11.6,3.7c3.7,3.6,5.5,7.7,5.5,12c0,4.2-1.8,8.3-5,11.6C775.9,273.4,771.8,275.1,767.7,275.1L767.7,275.1z"/>
	</g>
</g>
<path class="st8" d="M215.3,503.8h151.7V397.6H215.3V503.8z M374.7,519H207.8c-4.2,0-7.6-3.4-7.6-7.6V367.3h53.1v15.2h121.4
	c4.2,0,7.6,3.4,7.6,7.6v121.4C382.3,515.6,378.9,519,374.7,519"/>
<g>
	<g>
		<path class="st6" d="M308.4,255.7c-3.3,0-3.4-3.1-3.4-3.4V85.5c0-4.2,3-7.3,3-7.3l42.1-42.1c3-3,7.3-3,7.3-3h117.7
			c3.2,0,3.4,2.8,3.4,3.4v215.8c0,3.3-3.1,3.4-3.4,3.4H308.4z"/>
		<path class="st7" d="M475.2,34.5c0.5,0,1.8,0,1.9,1.9v215.8c0,0.5,0,1.8-1.9,1.9H308.4c-0.5,0-1.8,0-1.9-1.9V85.5
			c0-3.5,2.6-6.2,2.6-6.3l42.1-42.1c2.5-2.5,6.2-2.6,6.3-2.6H475.2 M475.2,31.5H357.5c0,0-4.9,0-8.4,3.5L307,77.1
			c0,0-3.5,3.5-3.5,8.4v166.8c0,0,0,4.9,4.9,4.9h166.8c0,0,4.9,0,4.9-4.9V36.4C480.1,36.4,480.1,31.5,475.2,31.5L475.2,31.5z"/>
	</g>
	<g>
		<polygon class="st1" points="460.5,237.6 460.5,51.2 372.2,51.2 372.2,100.2 323.1,100.2 323.1,237.6 362.4,237.6 362.4,257.2 
			421.2,257.2 421.2,237.6 		"/>
	</g>
	<g>
		<polygon class="st6" points="341,271.8 375,271.8 375,212.6 408.6,212.6 408.6,271.8 442.6,271.8 391.8,315.8 		"/>
		<path class="st7" d="M407.1,214.1v56.2v3h3h28.5l-46.8,40.5L345,273.3h28.5h3v-3v-56.2H407.1 M410.1,211.1h-36.6v59.2h-36.6
			l54.9,47.5l54.9-47.5h-36.6V211.1L410.1,211.1z"/>
	</g>
</g>
<g>
	<path class="st8" d="M479.1,462.7c-11.8,0-22.3-3.9-30.2-9.2c-17.1,7.9-28.9,22.3-28.9,38.1v63h118.2v-63
		c0-15.8-11.8-30.2-28.9-38.1C501.4,458.8,490.9,462.7,479.1,462.7"/>
	<path class="st8" d="M438.4,399.7c0,24.9,18.4,44.6,40.7,44.6c22.3,0,40.7-19.7,40.7-44.6c0-24.9-18.4-44.6-40.7-44.6
		C456.8,355.1,438.4,374.8,438.4,399.7"/>
	<path class="st8" d="M754.8,444.4c22.3,0,40.7-19.7,40.7-44.6c0-24.9-18.4-44.6-40.7-44.6c-22.3,0-40.7,19.7-40.7,44.6
		C714.1,424.7,732.5,444.4,754.8,444.4"/>
	<path class="st8" d="M616.9,385.3c22.3,0,40.7-19.7,40.7-44.6S639.3,296,616.9,296s-40.7,19.7-40.7,44.6S594.6,385.3,616.9,385.3"
		/>
	<path class="st8" d="M616.9,403.7c-11.8,0-22.3-3.9-30.2-9.2c-17.1,7.9-28.9,22.3-28.9,38.1v63H676v-63c0-15.8-11.8-30.2-28.9-38.1
		C639.3,399.7,628.8,403.7,616.9,403.7"/>
	<path class="st8" d="M754.8,462.7c-11.8,0-22.3-3.9-30.2-9.2c-17.1,7.9-28.9,22.3-28.9,38.1v63h118.2v-63
		c0-15.8-11.8-30.2-28.9-38.1C777.1,458.8,766.6,462.7,754.8,462.7"/>
</g>
<path class="st8" d="M632,61c-51.9,0-94,42.1-94,94s42.1,94,94,94s94-42.1,94-94S683.9,61,632,61z M601.9,185.1
	c-9.8,17.3-10.5,14.3-13.5,3.8c-3.8-13.5-18-32.3-11.3-40.6c7.5-8.3,32.3-9.8,30.8,6C607.2,172.3,607.9,175.3,601.9,185.1z
	 M656.1,182.8c0-34.6-34.6-34.6-34.6-51.9s17.3,0,34.6-17.3c12-12,34.6,17.3,34.6,34.6S656.1,200.1,656.1,182.8z"/>
<g>
	<g>
		<path class="st6" d="M908.5,212.5c-0.3,0-0.6,0-0.8-0.1l-6.5-1.5c-1-0.2-1.8-0.8-2.3-1.7c-0.5-0.8-0.7-1.8-0.5-2.8l3.3-14.5h-56.9
			v16.2c0,2-1.6,3.7-3.7,3.7h-4.6c-2,0-3.7-1.6-3.7-3.7v-16.2h-15.6v16.2c0,2-1.6,3.7-3.7,3.7h-4.6c-2,0-3.7-1.6-3.7-3.7v-70.5
			c0-0.2,0-0.5,0.1-0.8l0-0.2v-19.2c0-1.1,0.2-2.3,0.5-3.4l1.1-3.3l-19.1,8.8c-0.5,0.2-1.1,0.4-1.7,0.4c-1.3,0-2.4-0.5-3.2-1.5
			l-6.7-8.3c-1.2-1.5-1.3-3.6-0.1-5.1l20.8-27.3l0.1-0.1c0,0,0-0.1,0.1-0.1c0.1-0.2,0.2-0.3,0.3-0.5c0.6-1,1.4-2,2.2-3
			c0.6-0.7,1.1-1.3,1.5-1.9c1.3-1.8,2.8-3.3,4.7-4.5l4.3-2.9c3.1-2.1,6.8-3.3,10.6-3.3c6.4,0,12.4,3.2,16,8.5l24.8,36.7h75.1
			c6,0,11,4.9,11,11v63.5c0,0.5,0,0.9-0.1,1.4l0,0.1v25.6c0,2-1.6,3.7-3.7,3.7h-4.6c-2,0-3.7-1.6-3.7-3.7v-16.2h-19.4l-4,17.7
			C911.7,211.3,910.2,212.5,908.5,212.5z M812,70.5c-6.9,0-12.5,5.6-12.5,12.5s5.6,12.5,12.5,12.5c6.9,0,12.5-5.6,12.5-12.5
			S818.9,70.5,812,70.5z"/>
		<path class="st7" d="M820.6,62.8c5.9,0,11.5,2.9,14.8,7.8l24.4,36.1l0.9,1.3h1.6h74.3c5.2,0,9.5,4.2,9.5,9.5v63.5
			c0,0.4,0,0.8-0.1,1.2l0,0.2v0.2v25.5c0,1.2-1,2.2-2.2,2.2h-4.6c-1.2,0-2.2-1-2.2-2.2v-14.7v-3h-3h-16.7h-2.4l-0.5,2.3l-3.7,16.5
			c-0.2,1-1.2,1.8-2.2,1.8c-0.2,0-0.3,0-0.5-0.1l-6.5-1.5c-1.2-0.3-2-1.5-1.7-2.7l2.9-12.7l0.8-3.7h-3.8h-53.5h-3v3v14.7
			c0,1.2-1,2.2-2.2,2.2h-4.6c-1.2,0-2.2-1-2.2-2.2v-14.7v-3h-3h-12.6h-3v3v14.7c0,1.2-1,2.2-2.2,2.2h-4.6c-1.2,0-2.2-1-2.2-2.2
			v-70.5c0-0.1,0-0.3,0-0.5l0.1-0.3v-0.3v-19c0-1,0.2-2,0.5-2.9l2.1-6.5l-6.2,2.9l-16,7.3c-0.4,0.2-0.8,0.2-1.2,0.2
			c-0.8,0-1.5-0.3-2-1l-6.8-8.3c-0.8-0.9-0.8-2.3,0-3.2l20.7-27.2l0.2-0.2l0.1-0.1l0,0c0.1-0.2,0.3-0.4,0.4-0.7
			c0.4-0.7,1-1.5,1.6-2.2c-1.4,2.2-2.2,4.7-2.2,7.5c0,7.7,6.3,14,14,14s14-6.3,14-14s-6.3-14-14-14c-3.9,0-7.4,1.6-9.9,4.1
			c0-0.1,0.1-0.1,0.1-0.2c1.2-1.7,2.6-3.1,4.3-4.2l4.3-2.9C813.7,63.9,817.1,62.8,820.6,62.8 M820.6,59.8c-4,0-8,1.1-11.5,3.5
			l-4.3,2.9c-2,1.3-3.7,3-5.1,4.9c-1,1.5-2.7,3.1-3.8,5.1c-0.1,0.2-0.3,0.4-0.4,0.7l-20.7,27.2c-1.6,2-1.6,4.9,0.1,7l6.7,8.3
			c1.1,1.4,2.7,2.1,4.4,2.1c0.8,0,1.6-0.2,2.4-0.5l16-7.3c-0.4,1.2-0.6,2.5-0.6,3.8v19c-0.1,0.3-0.1,0.7-0.1,1.1v70.5
			c0,2.9,2.4,5.2,5.2,5.2h4.6c2.9,0,5.2-2.4,5.2-5.2v-14.7h12.6v14.7c0,2.9,2.4,5.2,5.2,5.2h4.6c2.9,0,5.2-2.4,5.2-5.2v-14.7h53.5
			l-2.9,12.7c-0.7,2.8,1.1,5.6,3.9,6.3l6.5,1.5c0.4,0.1,0.8,0.1,1.2,0.1c2.4,0,4.5-1.7,5.1-4.1l3.7-16.5H934v14.7
			c0,2.9,2.4,5.2,5.2,5.2h4.6c2.9,0,5.2-2.4,5.2-5.2v-25.5c0.1-0.5,0.1-1.1,0.1-1.6v-63.5c0-6.9-5.6-12.5-12.5-12.5h-74.3L837.9,69
			C833.9,63,827.3,59.8,820.6,59.8L820.6,59.8z M812,94c-6.1,0-11-4.9-11-11c0-6.1,4.9-11,11-11s11,4.9,11,11S818.1,94,812,94
			L812,94z"/>
	</g>
	<g>
		<circle class="st6" cx="809.2" cy="83" r="3.3"/>
	</g>
	<g>
		<path class="st6" d="M868.7,99.7c-0.9,0-1.7-0.4-2.2-1.2l-23.9-34.5c-4.4-6.7-11.8-11-18.7-11l-0.3,0c-7.1,0.1-14.2,2.4-20.4,6.6
			c-0.3-0.6-0.7-1.6-1.1-3l-3.6-14.9c0-0.2,0-0.3,0.1-0.4c0.1-0.1,0.2-0.2,0.5-0.2c0,0,31.5,0,32,0l-0.2,0.2l3.8-0.1
			c0.2,0,0.3,0,0.5,0c5.8,0,11.9,3.7,16,9.7l28.3,41.9c1.4,2,2.2,4.1,2.8,6.5c0.1,0.2,0,0.4-0.1,0.5c-0.1,0.1-0.2,0.2-0.4,0.2
			L868.7,99.7z"/>
		<path class="st7" d="M827.5,42.6l-0.4,0.4l7.6-0.3c0.1,0,0.3,0,0.4,0c5.2,0,11,3.5,14.7,9l28.3,41.9c1,1.6,1.8,3.1,2.3,4.9
			l-11.7-0.3l0,0h0c-0.5,0-0.8-0.3-0.9-0.5l-23.9-34.5c-4.8-7.2-12.4-11.6-20-11.6c-0.1,0-0.2,0-0.3,0c-6.8,0.1-13.6,2.1-19.6,5.9
			c-0.1-0.3-0.2-0.7-0.3-1.1l-3.3-13.7H827.5 M829.7,39.6h-30.6c-1.3,0-2.4,1.2-2,2.5l3.6,14.9c0.6,2.6,1.6,4.5,2.3,4.5
			c0.1,0,0.1,0,0.2,0c0.1-0.1,0.2-0.1,0.3-0.2c6.1-4.3,12.9-6.6,20.1-6.7c0.1,0,0.2,0,0.3,0c6.1,0,13,3.7,17.5,10.3l23.9,34.5
			c0.8,1.1,2,1.8,3.4,1.8l13,0.3c1.3,0,2.4-1.3,2-2.6c-0.6-2.4-1.5-4.6-3-7l-28.3-41.9c-4.5-6.6-11.2-10.3-17.2-10.3
			c-0.2,0-0.3,0-0.5,0C834.7,39.6,832.6,39.6,829.7,39.6L829.7,39.6z"/>
	</g>
	<g>
		<path class="st6" d="M896.5,99.5c0.6-20.9,17.4-37.8,38.4-38.6v5.4c-17.6,0.8-31.8,15.2-32.6,33.2L896.5,99.5z"/>
		<path class="st7" d="M933.4,62.5v2.4c-8.4,0.7-16.1,4.3-22.1,10.3c-6,6.1-9.7,14.1-10.4,22.8l-2.9,0
			C899.3,79.1,914.4,64,933.4,62.5 M935.4,59.4c-22.1,0.6-40,18.4-40.4,40.4c-0.1,0.7,0.3,1.1,0.9,1.1l6.6,0.1
			c0.7,0,1.2-0.6,1.3-1.2c0.7-17.5,14.4-31.7,31.9-32c0.3,0,0.7-0.3,0.7-0.7v-6.7C936.4,59.9,935.9,59.4,935.4,59.4L935.4,59.4z"/>
	</g>
	<g>
		<path class="st6" d="M884.7,87.3c-0.3-0.4-0.3-1.1-0.2-1.7c6.7-22.6,26.9-38,50.3-38.6v6.4c-22.7,0.7-42.2,18.7-45.6,41.7
			L884.7,87.3z"/>
		<path class="st7" d="M933.3,48.6V52c-21.4,1.4-39.9,17.6-44.8,38.9l-2.5-4.3c0,0-0.1-0.3,0-0.6c3.1-10.5,9.7-19.9,18.4-26.6
			C912.8,52.9,922.7,49.1,933.3,48.6 M935.5,45.5c-24.8,0.3-45.7,17.1-52.5,39.8c-0.2,1-0.1,2,0.3,2.8l5.6,9.9
			c0.1,0.3,0.4,0.4,0.6,0.4c0.3,0,0.7-0.2,0.7-0.6c2.2-23,21.7-42.5,45.3-42.8c0.3,0,0.7-0.2,0.7-0.7v-8
			C936.3,45.8,935.9,45.5,935.5,45.5L935.5,45.5z"/>
	</g>
	<g>
		<path class="st6" d="M874.9,72.3c11-23.2,34.4-38.5,59.8-39v6.4c-24.6,0.6-46.7,16.2-55.6,39.2L874.9,72.3z"/>
		<path class="st7" d="M933.3,34.8v3.4c-23.7,1.1-44.9,15.8-54.4,37.4l-2.2-3.5c5.2-10.7,13.2-19.8,23.2-26.4
			C909.8,39.1,921.3,35.4,933.3,34.8 M935.4,31.8c-27.5,0.3-51.1,16.8-62,40.3c-0.1,0.2,0,0.6,0.2,0.9l5.1,7.9
			c0.1,0.2,0.4,0.4,0.7,0.4c0.3,0,0.7-0.2,0.8-0.6c8.2-22.7,29.9-39.1,55.4-39.4c0.4,0,0.8-0.3,0.8-0.8v-7.8
			C936.3,32.1,935.8,31.8,935.4,31.8L935.4,31.8z"/>
	</g>
</g>
<g>
	<path class="st6" d="M91.1,197.4c-0.7,0-2.2-0.3-2.2-2.2v-7.4c0-0.7,0.3-2.2,2.2-2.2h171.1c0.7,0,2.2,0.3,2.2,2.2v7.4
		c0,0.7-0.3,2.2-2.2,2.2H91.1z"/>
	<path class="st7" d="M262.2,187.1c0.8,0,0.8,0.3,0.8,0.7v7.4c0,0.7-0.4,0.7-0.7,0.7H91.1c-0.7,0-0.7-0.4-0.7-0.7v-7.4
		c0-0.8,0.3-0.8,0.7-0.8H262.2 M262.2,184.1H91.1c-3.7,0-3.7,3.7-3.7,3.7v7.4c0,3.7,3.7,3.7,3.7,3.7h171.1c3.7,0,3.7-3.7,3.7-3.7
		v-7.4C265.9,184.1,262.2,184.1,262.2,184.1L262.2,184.1z"/>
</g>
<g>
	<path class="st6" d="M102.3,175.1c-0.7,0-2.2-0.3-2.2-2.2v-7.4c0-0.7,0.3-2.2,2.2-2.2h13l-0.3-1.7c0-0.2,0-0.4,0-0.4l0-70
		c0-2,1.6-2.2,2.2-2.2h22.3c2.1,0,2.2,1.8,2.2,2.2V161c-0.1,0.1-0.1,0.3-0.1,0.5l-0.3,1.7h22.3l-0.3-1.7c0-0.2,0-0.4,0-0.4l0-70
		c0-2,1.6-2.2,2.2-2.2h22.3c2,0,2.2,1.6,2.2,2.2V161c-0.1,0.1-0.1,0.3-0.2,0.6l-0.2,1.7H212l-0.3-1.8c0-0.2-0.1-0.4-0.1-0.4l0-70
		c0-2.1,1.8-2.2,2.2-2.2h22.3c2,0,2.2,1.6,2.2,2.2V161c-0.1,0.1-0.1,0.3-0.2,0.6l-0.2,1.7h13c0.7,0,2.2,0.3,2.2,2.2v7.4
		c0,0.7-0.3,2.2-2.2,2.2H102.3z"/>
	<path class="st7" d="M236.2,90.4c0.4,0,0.7,0,0.7,0.8v69.6c-0.1,0.2-0.1,0.4-0.1,0.6l-0.4,3.4h3.4H251c0.8,0,0.8,0.3,0.8,0.7v7.4
		c0,0.8-0.3,0.8-0.7,0.8H102.3c-0.8,0-0.8-0.3-0.8-0.7v-7.4c0-0.8,0.3-0.8,0.7-0.8h11.2h3.5l-0.6-3.5c0-0.1,0-0.2,0-0.2v-70
		c0-0.4,0-0.7,0.8-0.7h22.3c0.4,0,0.7,0,0.7,0.8v69.6c0,0.1-0.1,0.3-0.1,0.5l-0.6,3.5h3.5h18.8h3.5l-0.6-3.5c0-0.1,0-0.2,0-0.2v-70
		c0-0.4,0-0.7,0.8-0.7h22.3c0.4,0,0.7,0,0.7,0.8v69.6c-0.1,0.2-0.1,0.4-0.1,0.6l-0.4,3.4h3.4h18.8h3.6l-0.6-3.5c0-0.1,0-0.2,0-0.2
		v-70c0-0.4,0-0.7,0.8-0.7H236.2 M236.2,87.4h-22.3c0,0-3.7,0-3.7,3.7v70c0,0,0,0.2,0.1,0.6h-18.8c0-0.2,0.2-0.3,0.2-0.6v-70
		c0,0,0-3.7-3.7-3.7h-22.3c0,0-3.7,0-3.7,3.7v70c0,0,0,0.2,0.1,0.6H143c0-0.2,0.2-0.3,0.2-0.6v-70c0,0,0-3.7-3.7-3.7h-22.3
		c0,0-3.7,0-3.7,3.7v70c0,0,0,0.2,0.1,0.6h-11.2c-3.7,0-3.7,3.7-3.7,3.7v7.4c0,3.7,3.7,3.7,3.7,3.7H251c3.7,0,3.7-3.7,3.7-3.7v-7.4
		c0-3.7-3.7-3.7-3.7-3.7h-11.3c0-0.2,0.2-0.3,0.2-0.6v-70C239.9,91.1,239.9,87.4,236.2,87.4L236.2,87.4z"/>
</g>
<g>
	<path class="st6" d="M94.8,78.4c-0.6,0-1.4-0.1-1.9-0.2c0.3-0.3,0.7-0.6,1.5-1.2l76.9-51.2c0,0,2.4-1.5,5.4-1.6h0.3
		c1.7,0,3.4,0.6,5,1.6L258.9,77c0.5,0.4,1.1,0.9,1.4,1.2c-0.4,0.1-0.9,0.1-1.9,0.1H94.8z"/>
	<path class="st7" d="M177,25.7c1.5,0,2.9,0.5,4.2,1.3L256,76.9l-158.7,0L172.1,27c0,0,2-1.3,4.6-1.3H177 M177.1,22.7h-0.3
		c-3.6,0.1-6.2,1.8-6.2,1.8L93.6,75.8c-6.2,4.1,1.2,4.1,1.2,4.1h163.6c7.4,0,1.2-4.1,1.2-4.1l-76.9-51.2
		C180.9,23.2,178.9,22.7,177.1,22.7L177.1,22.7z"/>
</g>
<g>
	<polygon class="st6" points="64.3,498.9 45.4,472.3 76.7,461.8 96.3,435.2 116,461.8 147.2,472.3 128.3,498.9 128,532 96.3,522.1 
		64.7,532 	"/>
	<path class="st7" d="M96.3,437.7l18.2,24.5l0.6,0.8l0.9,0.3l28.9,9.8l-17.5,24.5l-0.5,0.8l0,0.9l-0.3,30.6l-29.3-9.1l-0.9-0.3
		l-0.9,0.3l-29.3,9.1l-0.3-30.6l0-0.9l-0.5-0.8l-17.5-24.5l28.9-9.8l0.9-0.3l0.6-0.8L96.3,437.7 M96.3,432.7l-20.6,27.8l-32.8,11
		l19.8,27.8l0.4,34.7l33.1-10.3l33.1,10.3l0.4-34.7l19.8-27.8l-32.8-11L96.3,432.7L96.3,432.7z"/>
</g>
<g>
	<g>
		<path class="st6" d="M904.4,549.4L904.4,549.4c-0.9-1.2-9.1-14.2-17.3-29c-12.1-21.8-18-37-18-46.4c0-22.6,18.4-41,41-41
			c10.8,0,21,4.3,28.7,12.1c7.7,7.8,11.8,18,11.6,28.9c0,9.1-5.9,24.3-18,46.4c-8,15.3-16.4,27.9-17.3,29l-0.1,0.1l-0.1,0.1
			l-5.2,7.8L904.4,549.4z M910,449.6c-13.2,0-23.6,10.4-23.6,23.6c0,13.2,10.4,23.6,23.6,23.6c12.8,0,23.3-10.6,23.3-23.6
			C933.3,459.8,923.3,449.6,910,449.6z"/>
		<path class="st7" d="M910,434.5c10.4,0,20.2,4.1,27.6,11.6c7.4,7.5,11.3,17.3,11.2,27.8c0,8.9-5.8,23.8-17.8,45.7l0,0l0,0
			c-8,15.3-16,27.4-17,28.6l-0.1,0.1l-0.2,0.2l-3.9,5.9l-3.9-5.9l-0.2-0.2l-0.1-0.1c-1.1-1.7-9.2-14.5-17.1-28.8
			c-12-21.6-17.8-36.5-17.8-45.7c0-10.6,4.1-20.5,11.5-28S899.4,434.5,910,434.5 M910,498.4c13.7,0,24.8-11.3,24.8-25.1
			c0-14.3-10.7-25.1-24.8-25.1c-14.1,0-25.1,11-25.1,25.1C884.9,487.4,895.9,498.4,910,498.4 M910,431.5
			c-23.6,0-42.5,18.9-42.5,42.5c0,9.6,5.7,24.6,18.2,47.1c8.6,15.3,17.1,28.9,17.5,29.3l6.4,9.6l6.4-9.6c0.7-0.7,9.3-13.6,17.5-29.3
			c12.1-22.1,18.2-37.5,18.2-47.1C952.1,450.4,932.8,431.5,910,431.5L910,431.5z M910,495.4c-12.5,0-22.1-9.6-22.1-22.1
			c0-12.5,9.6-22.1,22.1-22.1s21.8,9.6,21.8,22.1C931.8,485.8,921.8,495.4,910,495.4L910,495.4z"/>
	</g>
</g>
</svg>
