<?xml version="1.0" encoding="utf-8"?>
<!-- Generator: Adobe Illustrator 22.0.1, SVG Export Plug-In . SVG Version: 6.00 Build 0)  -->
<svg version="1.1" id="Ebene_1" xmlns="http://www.w3.org/2000/svg" xmlns:xlink="http://www.w3.org/1999/xlink" x="0px" y="0px"
	 viewBox="0 0 32 32" style="enable-background:new 0 0 32 32;" xml:space="preserve">
<style type="text/css">
	.st0{clip-path:url(#SVGID_3_);fill:none;stroke:#FFFFFF;stroke-miterlimit:10;}
	.st1{fill:none;stroke:#FFFFFF;stroke-miterlimit:10;}
</style>
<g id="Ebene_2_1_">
</g>
<g>
	<defs>
		<rect id="SVGID_2_" x="6" y="4" width="20" height="14"/>
	</defs>
	<clipPath id="SVGID_3_">
		<use xlink:href="#SVGID_2_"  style="overflow:visible;"/>
	</clipPath>
	<rect x="6" y="4" class="st0" width="20" height="14"/>
	<use xlink:href="#SVGID_2_"  style="overflow:visible;fill:none;stroke:#FFFFFF;stroke-miterlimit:10;"/>
</g>
<rect id="SVGID_1_" x="6" y="4" class="st1" width="20" height="14"/>
<path class="st1" d="M26,16H6v2h5.3l-3.9,8.6c-0.2,0.5,0,1.1,0.5,1.3C8,28,8.1,28,8.2,28c0.4,0,0.7-0.2,0.9-0.6l1.5-3.3h10.7
	l1.5,3.3c0.2,0.4,0.5,0.6,0.9,0.6c0.1,0,0.3,0,0.4-0.1c0.5-0.2,0.7-0.8,0.5-1.3L20.7,18H26V16z M18.6,18.2l1.8,4h-8.9l1.8-4
	c0-0.1,0-0.1,0-0.2h5.1C18.6,18.1,18.6,18.1,18.6,18.2z"/>
</svg>
