<?xml version="1.0" encoding="utf-8"?>
<!-- Generator: Adobe Illustrator 22.0.0, SVG Export Plug-In . SVG Version: 6.00 Build 0)  -->
<svg version="1.1" xmlns="http://www.w3.org/2000/svg" xmlns:xlink="http://www.w3.org/1999/xlink" x="0px" y="0px"
	 viewBox="0 0 32 32" style="enable-background:new 0 0 32 32;" xml:space="preserve">
<style type="text/css">
	.st0{fill:none;}
	.st1{fill:none;stroke:#FFFFFF;stroke-miterlimit:10;}
	.st2{fill:none;stroke:url(#SVGID_1_);stroke-miterlimit:10;}
	.st3{fill:url(#SVGID_2_);}
	.st4{fill:url(#SVGID_3_);}
</style>
<g id="Layer_1">
	<rect class="st0" width="32" height="32"/>
	<polyline class="st1" points="17.8,16 24.2,10.1 26.3,9.2 28.1,6.4 28.1,6.4 27,5.3 24.1,6.9 23.1,8.9 16.7,14.9 	"/>
	<linearGradient id="SVGID_1_" gradientUnits="userSpaceOnUse" x1="3.7521" y1="22.2251" x2="16.1874" y2="22.2251">
		<stop  offset="0" style="stop-color:#FF8F1E"/>
		<stop  offset="1.000000e-02" style="stop-color:#FF8F1E"/>
		<stop  offset="1" style="stop-color:#E6700F"/>
	</linearGradient>
	<path class="st2" d="M13.8,16.6L5,24.2C4.1,25,4,26.3,4.8,27.1s2.1,0.8,2.9,0l8.1-8.3"/>
	<linearGradient id="SVGID_2_" gradientUnits="userSpaceOnUse" x1="-41.3067" y1="27.8365" x2="-30.1846" y2="39.7635">
		<stop  offset="0" style="stop-color:#FF8F1E"/>
		<stop  offset="1.000000e-02" style="stop-color:#FF8F1E"/>
		<stop  offset="1" style="stop-color:#E6700F"/>
	</linearGradient>
	<polygon class="st3" points="-35.3,22.3 -24.2,34.2 -36.2,45.3 -47.3,33.4 	"/>
	
		<linearGradient id="SVGID_3_" gradientUnits="userSpaceOnUse" x1="-586.7447" y1="308.322" x2="-585.7447" y2="308.322" gradientTransform="matrix(6.4594 -6.9268 6.9268 6.4594 1721.4778 -6070.7305)">
		<stop  offset="0" style="stop-color:#4C6486"/>
		<stop  offset="1.980000e-02" style="stop-color:#4C6486"/>
		<stop  offset="1" style="stop-color:#5A77A0"/>
	</linearGradient>
	<polygon class="st4" points="46.7,-17.6 69.6,-42.1 94.1,-19.2 71.3,5.3 	"/>
</g>
<g id="Ebene_2">
	<path class="st1" d="M23.9,26.1c-0.6-0.6-0.6-1.5-0.1-2.1c0.6-0.6,1.5-0.6,2.1-0.1c0.6,0.6,0.6,1.5,0.1,2.1
		c-0.3,0.3-0.7,0.5-1.1,0.5C24.6,26.5,24.2,26.3,23.9,26.1 M8.6,5C8,5,7.7,5.3,8.1,5.8C8.4,6.3,10,8.3,10,8.3s0,1.2-0.9,1.9
		C8.1,11,7,10.6,7,10.6S5.4,8.6,5.1,8.1C4.5,7.3,4,8.1,4,9.3v0.2c0,1,0.3,2.4,1.1,3.4c1,1.4,3.4,2.1,5.5,1.1L22,24.7
		c-0.1,0.9,0.2,1.8,0.9,2.4c1.2,1.1,3,1,4.1-0.1c1.1-1.2,1-3-0.1-4.1c-0.7-0.7-1.6-0.9-2.5-0.7L13,11.5c0.6-1.5,0.4-3.3-0.4-4.3
		C11.6,5.8,9.7,5,8.6,5L8.6,5z"/>
</g>
</svg>
