<?xml version="1.0" encoding="utf-8"?>
<!-- Generator: Adobe Illustrator 22.1.0, SVG Export Plug-In . SVG Version: 6.00 Build 0)  -->
<svg version="1.1" id="Ebene_1" xmlns="http://www.w3.org/2000/svg" xmlns:xlink="http://www.w3.org/1999/xlink" x="0px" y="0px"
	 viewBox="0 0 40 40" style="enable-background:new 0 0 40 40;" xml:space="preserve">
<title>icon/folder</title>
<desc>Created with Sketch.</desc>
<g>
	<path d="M21.6,9.5l1-0.4l0.6,1.4c3-0.7,6.2,0.9,7.2,3.8l0.2,0.6l-0.6,0.2c-3.6,1.4-4.5,1.7-5.7,2.1c-0.2,0.1-0.3,0.1-0.5,0.2
		c-0.9,0.3-1.6,0.5-4.1,1.2L19,18.9l-0.2-0.6c-0.9-2.5,0-5.1,2.1-6.7l-0.1,0.1L20.4,11l-8.1,4.4l3.1,11.9c0,0,0.1,0,0.1,0
		c3,0,5.7,1.3,5.7,3V31H9.8v-0.7c0-1.4,1.9-2.5,4.2-2.9l-3-11.4l-0.9,0.5l-0.7-1.2l1.2-0.7l-0.4-1.6l1.3-0.3L12,14l9.3-5L21.6,9.5z
		 M23,12c-2.3,0.8-3.5,3-3.1,5.2c1.9-0.6,2.6-0.7,3.4-1c0.2-0.1,0.3-0.1,0.5-0.2c1.1-0.4,1.9-0.7,5-1.8C27.7,12.3,25.3,11.3,23,12z"
		/>
</g>
</svg>
