<?xml version="1.0" encoding="utf-8"?>
<!-- Generator: Adobe Illustrator 22.0.0, SVG Export Plug-In . SVG Version: 6.00 Build 0)  -->
<svg version="1.1" xmlns="http://www.w3.org/2000/svg" xmlns:xlink="http://www.w3.org/1999/xlink" x="0px" y="0px"
	 viewBox="0 0 32 32" style="enable-background:new 0 0 32 32;" xml:space="preserve">
<style type="text/css">
	.st0{fill:none;}
	.st1{fill:none;stroke:url(#SVGID_1_);stroke-miterlimit:10;}
	.st2{fill:none;stroke:url(#SVGID_2_);stroke-miterlimit:10;}
</style>
<g id="Layer_1">
	<g>
		<rect x="5" y="5" class="st0" width="21.3" height="21.7"/>
		<linearGradient id="SVGID_1_" gradientUnits="userSpaceOnUse" x1="4.5551" y1="15.8461" x2="26.847" y2="15.8461">
			<stop  offset="0" style="stop-color:#FF8F1E"/>
			<stop  offset="1.000000e-02" style="stop-color:#FF8F1E"/>
			<stop  offset="1" style="stop-color:#E6700F"/>
		</linearGradient>
		<path class="st1" d="M16.7,12.9c0.7-2.1,0.3-4.5-1.3-6.1C13,4.4,9.2,4.4,6.9,6.7C4.5,9,4.4,12.8,6.8,15.2c1.6,1.7,3.9,2.2,6,1.5
			l2.8,2.9l1.9,0.4l0.3,1.9l1.9,0.4l0.3,1.9l1.9,0.4l0.3,1.9l3.9,0.1l0.1-3.9L16.7,12.9z"/>
		<linearGradient id="SVGID_2_" gradientUnits="userSpaceOnUse" x1="7.3687" y1="9.4327" x2="11.7276" y2="9.4327">
			<stop  offset="0" style="stop-color:#FF8F1E"/>
			<stop  offset="1.000000e-02" style="stop-color:#FF8F1E"/>
			<stop  offset="1" style="stop-color:#E6700F"/>
		</linearGradient>
		<path class="st2" d="M8.4,10.6c0.7,0.7,1.7,0.7,2.4,0c0.7-0.7,0.7-1.7,0-2.4C10.1,7.7,9,7.6,8.4,8.3C7.7,8.9,7.7,10,8.4,10.6"/>
		<rect x="2.5" y="2.5" class="st0" width="27" height="27"/>
	</g>
</g>
<g id="Ebene_2">
</g>
</svg>
