<?xml version="1.0" encoding="utf-8"?>
<!-- Generator: Adobe Illustrator 24.0.0, SVG Export Plug-In . SVG Version: 6.00 Build 0)  -->
<svg version="1.1" xmlns="http://www.w3.org/2000/svg" xmlns:xlink="http://www.w3.org/1999/xlink" x="0px" y="0px"
	 viewBox="0 0 1000 577" style="enable-background:new 0 0 1000 577;" xml:space="preserve">
<style type="text/css">
	.st0{display:none;}
	.st1{display:inline;}
	.st2{fill:#4A668B;}
	.st3{opacity:0.12;}
	.st4{fill:#FFFFFF;}
	.st5{fill:#5E5E5E;}
	.st6{opacity:0.12;fill:#FFFFFF;stroke:#606060;stroke-width:3;stroke-miterlimit:10;}
	.st7{fill:#FFFFFF;stroke:#606060;stroke-width:3;stroke-miterlimit:10;}
</style>
<g id="Ebene_2" class="st0">
	<g class="st1">
		<polyline class="st2" points="0,577 0,0 1000,0 1000,577 		"/>
	</g>
</g>
<g id="Ebene_1">
	<g class="st3">
		<g>
			<path class="st4" d="M859.6,388l-2.3-14.5l-14.1-3l-2.2-14.1l-14.1-3l-2.2-14.1l-13.3-2.8l-20.3-21.1l-0.9,0.2
				c-4,1.1-8.2,1.7-12.3,1.7c-12.3,0-23.9-5-32.4-14.1c-8.9-8.9-13.8-20.7-13.6-33.2c0.1-12.6,5.3-24.4,14.5-33.2
				c8.6-8.6,20.1-13.3,32.5-13.3c12.8,0,24.8,5,33.9,14.1c11.4,11.4,15.6,28.9,10.9,45.5l-0.2,0.8l70.4,72.6l-0.8,32.2L859.6,388z
				 M755.3,246.5c-3.6,3.1-5.6,7.6-5.6,12.4s2,9.3,5.6,12.4c3.4,3.4,7.9,5.3,12.5,5.3s9.1-1.9,12.6-5.5c3.5-3.5,5.4-8,5.4-12.6
				c0-4.7-2-9.2-5.9-13l-0.1-0.1l-0.1-0.1c-3.6-2.5-8.1-4-12.4-4C762.4,241.3,758.1,243.2,755.3,246.5z"/>
			<path class="st5" d="M778.5,225c12.4,0,24,4.9,32.8,13.7c10.9,10.9,15,28.2,10.5,44.1l-0.5,1.7l1.2,1.2l69.4,71.6l-0.8,30
				l-30.3-0.8l-1.9-12.2l-0.3-2l-2-0.4l-12.1-2.5l-1.9-12.1l-0.3-2l-2-0.4l-12.1-2.5l-1.9-12.1l-0.3-2l-2-0.4l-11.8-2.5L792.6,315
				l-1.2-1.3l-1.7,0.5c-3.9,1.1-7.9,1.7-11.9,1.7c-11.9,0-23.1-4.8-31.4-13.7l0,0l0,0c-8.6-8.6-13.3-20-13.2-32.1
				c0.1-12.2,5.1-23.6,14-32.1l0,0l0,0C755.5,229.6,766.6,225,778.5,225 M754.2,245.4c-3.9,3.4-6.1,8.3-6.1,13.5
				c0,5.2,2.2,10.1,6.1,13.5c3.8,3.7,8.6,5.7,13.5,5.7c5,0,9.9-2.1,13.7-5.9s5.9-8.6,5.9-13.7s-2.2-10-6.4-14.1l-0.2-0.2l-0.2-0.1
				c-3.8-2.7-8.7-4.3-13.3-4.3C762,239.8,757.4,241.8,754.2,245.4 M778.5,222c-12.2,0-24.3,4.6-33.5,13.8
				c-9.5,9.1-14.8,21.2-14.9,34.2c-0.1,12.9,4.9,25.1,14,34.3c9,9.5,21,14.6,33.5,14.6c4.2,0,8.5-0.6,12.7-1.8l20,20.8l12.7,2.7
				l2.2,14.1l14.1,3l2.2,14.1l14.1,3l2.3,14.7l35.8,0.9L895,356l-70.2-72.5c4.8-17,0.5-35.2-11.3-47
				C803.8,226.9,791.1,222,778.5,222L778.5,222z M767.7,275.1c-4.1,0-8.1-1.6-11.5-4.9c-3.2-2.8-5.1-6.9-5.1-11.3s1.9-8.6,5.2-11.4
				c2.8-3.3,6.8-4.7,10.9-4.7c4.1,0,8.3,1.4,11.6,3.7c3.7,3.6,5.5,7.7,5.5,12c0,4.2-1.8,8.3-5,11.6
				C775.9,273.4,771.8,275.1,767.7,275.1L767.7,275.1z"/>
		</g>
	</g>
	<path class="st6" d="M215.3,503.8H367V397.6H215.3V503.8z M374.7,519H207.8c-4.2,0-7.6-3.4-7.6-7.6V367.3h53.1v15.2h121.4
		c4.2,0,7.6,3.4,7.6,7.6v121.4C382.3,515.6,378.9,519,374.7,519"/>
	<g class="st3">
		<path class="st7" d="M323.1,237.6V100.2h49.1v-49h88.3v186.4h-39.3v16.5h54c1.9-0.1,1.9-1.4,1.9-1.9V36.4
			c-0.1-1.9-1.4-1.9-1.9-1.9H357.5c-0.1,0-3.8,0.1-6.3,2.6l-42.1,42.1c0,0.1-2.6,2.8-2.6,6.3v166.7c0.1,1.9,1.4,1.9,1.9,1.9h54
			v-16.5H323.1z"/>
		<line class="st7" x1="362.4" y1="254.1" x2="362.4" y2="255.7"/>
	</g>
	<g class="st3">
		<polygon class="st4" points="341,271.8 375,271.8 375,212.6 408.6,212.6 408.6,271.8 442.6,271.8 391.8,315.8 		"/>
		<path class="st5" d="M407.1,214.1v56.2v3h3h28.5l-46.8,40.5L345,273.3h28.5h3v-3v-56.2L407.1,214.1 M410.1,211.1h-36.6v59.2h-36.6
			l54.9,47.5l54.9-47.5h-36.6L410.1,211.1L410.1,211.1z"/>
	</g>
	<g class="st3">
		<path class="st7" d="M479.1,462.7c-11.8,0-22.3-3.9-30.2-9.2c-17.1,7.9-28.9,22.3-28.9,38.1v63h118.2v-63
			c0-15.8-11.8-30.2-28.9-38.1C501.4,458.8,490.9,462.7,479.1,462.7"/>
		<path class="st7" d="M438.4,399.7c0,24.9,18.4,44.6,40.7,44.6c22.3,0,40.7-19.7,40.7-44.6s-18.4-44.6-40.7-44.6
			C456.8,355.1,438.4,374.8,438.4,399.7"/>
		<path class="st7" d="M754.8,444.4c22.3,0,40.7-19.7,40.7-44.6s-18.4-44.6-40.7-44.6s-40.7,19.7-40.7,44.6
			C714.1,424.7,732.5,444.4,754.8,444.4"/>
		<path class="st7" d="M616.9,385.3c22.3,0,40.7-19.7,40.7-44.6S639.3,296,616.9,296s-40.7,19.7-40.7,44.6S594.6,385.3,616.9,385.3"
			/>
		<path class="st7" d="M616.9,403.7c-11.8,0-22.3-3.9-30.2-9.2c-17.1,7.9-28.9,22.3-28.9,38.1v63H676v-63
			c0-15.8-11.8-30.2-28.9-38.1C639.3,399.7,628.8,403.7,616.9,403.7"/>
		<path class="st7" d="M754.8,462.7c-11.8,0-22.3-3.9-30.2-9.2c-17.1,7.9-28.9,22.3-28.9,38.1v63h118.2v-63
			c0-15.8-11.8-30.2-28.9-38.1C777.1,458.8,766.6,462.7,754.8,462.7"/>
	</g>
	<path class="st6" d="M632,61c-51.9,0-94,42.1-94,94s42.1,94,94,94s94-42.1,94-94S683.9,61,632,61z M601.9,185.1
		c-9.8,17.3-10.5,14.3-13.5,3.8c-3.8-13.5-18-32.3-11.3-40.6c7.5-8.3,32.3-9.8,30.8,6C607.2,172.3,607.9,175.3,601.9,185.1z
		 M656.1,182.8c0-34.6-34.6-34.6-34.6-51.9s17.3,0,34.6-17.3c12-12,34.6,17.3,34.6,34.6S656.1,200.1,656.1,182.8z"/>
	<g class="st3">
		<g>
			<path class="st4" d="M908.5,212.5c-0.3,0-0.6,0-0.8-0.1l-6.5-1.5c-1-0.2-1.8-0.8-2.3-1.7c-0.5-0.8-0.7-1.8-0.5-2.8l3.3-14.5
				h-56.9v16.2c0,2-1.6,3.7-3.7,3.7h-4.6c-2,0-3.7-1.6-3.7-3.7v-16.2h-15.6v16.2c0,2-1.6,3.7-3.7,3.7h-4.6c-2,0-3.7-1.6-3.7-3.7
				v-70.5c0-0.2,0-0.5,0.1-0.8v-0.2v-19.2c0-1.1,0.2-2.3,0.5-3.4l1.1-3.3l-19.1,8.8c-0.5,0.2-1.1,0.4-1.7,0.4
				c-1.3,0-2.4-0.5-3.2-1.5l-6.7-8.3c-1.2-1.5-1.3-3.6-0.1-5.1l20.8-27.3l0.1-0.1c0,0,0-0.1,0.1-0.1c0.1-0.2,0.2-0.3,0.3-0.5
				c0.6-1,1.4-2,2.2-3c0.6-0.7,1.1-1.3,1.5-1.9c1.3-1.8,2.8-3.3,4.7-4.5l4.3-2.9c3.1-2.1,6.8-3.3,10.6-3.3c6.4,0,12.4,3.2,16,8.5
				l24.8,36.7h75.1c6,0,11,4.9,11,11v63.5c0,0.5,0,0.9-0.1,1.4v0.1v25.6c0,2-1.6,3.7-3.7,3.7h-4.6c-2,0-3.7-1.6-3.7-3.7V192h-19.4
				l-4,17.7C911.7,211.3,910.2,212.5,908.5,212.5z M812,70.5c-6.9,0-12.5,5.6-12.5,12.5s5.6,12.5,12.5,12.5s12.5-5.6,12.5-12.5
				S818.9,70.5,812,70.5z"/>
			<path class="st5" d="M820.6,62.8c5.9,0,11.5,2.9,14.8,7.8l24.4,36.1l0.9,1.3h1.6h74.3c5.2,0,9.5,4.2,9.5,9.5V181
				c0,0.4,0,0.8-0.1,1.2v0.2v0.2v25.5c0,1.2-1,2.2-2.2,2.2h-4.6c-1.2,0-2.2-1-2.2-2.2v-14.7v-3h-3h-16.7h-2.4l-0.5,2.3l-3.7,16.5
				c-0.2,1-1.2,1.8-2.2,1.8c-0.2,0-0.3,0-0.5-0.1l-6.5-1.5c-1.2-0.3-2-1.5-1.7-2.7l2.9-12.7l0.8-3.7h-3.8h-53.5h-3v3V208
				c0,1.2-1,2.2-2.2,2.2h-4.6c-1.2,0-2.2-1-2.2-2.2v-14.7v-3h-3h-12.6h-3v3V208c0,1.2-1,2.2-2.2,2.2h-4.6c-1.2,0-2.2-1-2.2-2.2
				v-70.5c0-0.1,0-0.3,0-0.5l0.1-0.3v-0.3v-19c0-1,0.2-2,0.5-2.9l2.1-6.5l-6.2,2.9l-16,7.3c-0.4,0.2-0.8,0.2-1.2,0.2
				c-0.8,0-1.5-0.3-2-1l-6.8-8.3c-0.8-0.9-0.8-2.3,0-3.2l20.7-27.2l0.2-0.2l0.1-0.1l0,0c0.1-0.2,0.3-0.4,0.4-0.7
				c0.4-0.7,1-1.5,1.6-2.2c-1.4,2.2-2.2,4.7-2.2,7.5c0,7.7,6.3,14,14,14s14-6.3,14-14s-6.3-14-14-14c-3.9,0-7.4,1.6-9.9,4.1
				c0-0.1,0.1-0.1,0.1-0.2c1.2-1.7,2.6-3.1,4.3-4.2l4.3-2.9C813.7,63.9,817.1,62.8,820.6,62.8 M820.6,59.8c-4,0-8,1.1-11.5,3.5
				l-4.3,2.9c-2,1.3-3.7,3-5.1,4.9c-1,1.5-2.7,3.1-3.8,5.1c-0.1,0.2-0.3,0.4-0.4,0.7l-20.7,27.2c-1.6,2-1.6,4.9,0.1,7l6.7,8.3
				c1.1,1.4,2.7,2.1,4.4,2.1c0.8,0,1.6-0.2,2.4-0.5l16-7.3c-0.4,1.2-0.6,2.5-0.6,3.8v19c-0.1,0.3-0.1,0.7-0.1,1.1v70.5
				c0,2.9,2.4,5.2,5.2,5.2h4.6c2.9,0,5.2-2.4,5.2-5.2v-14.7h12.6v14.7c0,2.9,2.4,5.2,5.2,5.2h4.6c2.9,0,5.2-2.4,5.2-5.2v-14.7h53.5
				l-2.9,12.7c-0.7,2.8,1.1,5.6,3.9,6.3l6.5,1.5c0.4,0.1,0.8,0.1,1.2,0.1c2.4,0,4.5-1.7,5.1-4.1l3.7-16.5H934v14.7
				c0,2.9,2.4,5.2,5.2,5.2h4.6c2.9,0,5.2-2.4,5.2-5.2v-25.5c0.1-0.5,0.1-1.1,0.1-1.6v-63.5c0-6.9-5.6-12.5-12.5-12.5h-74.3l-24.4-36
				C833.9,63,827.3,59.8,820.6,59.8L820.6,59.8z M812,94c-6.1,0-11-4.9-11-11s4.9-11,11-11s11,4.9,11,11S818.1,94,812,94L812,94z"/>
		</g>
		<g>
			<circle class="st4" cx="809.2" cy="83" r="3.3"/>
		</g>
		<g>
			<path class="st4" d="M868.7,99.7c-0.9,0-1.7-0.4-2.2-1.2L842.6,64c-4.4-6.7-11.8-11-18.7-11h-0.3c-7.1,0.1-14.2,2.4-20.4,6.6
				c-0.3-0.6-0.7-1.6-1.1-3l-3.6-14.9c0-0.2,0-0.3,0.1-0.4c0.1-0.1,0.2-0.2,0.5-0.2c0,0,31.5,0,32,0l-0.2,0.2l3.8-0.1
				c0.2,0,0.3,0,0.5,0c5.8,0,11.9,3.7,16,9.7l28.3,41.9c1.4,2,2.2,4.1,2.8,6.5c0.1,0.2,0,0.4-0.1,0.5s-0.2,0.2-0.4,0.2L868.7,99.7z"
				/>
			<path class="st5" d="M827.5,42.6l-0.4,0.4l7.6-0.3c0.1,0,0.3,0,0.4,0c5.2,0,11,3.5,14.7,9l28.3,41.9c1,1.6,1.8,3.1,2.3,4.9
				l-11.7-0.3l0,0l0,0c-0.5,0-0.8-0.3-0.9-0.5l-23.9-34.5c-4.8-7.2-12.4-11.6-20-11.6c-0.1,0-0.2,0-0.3,0
				c-6.8,0.1-13.6,2.1-19.6,5.9c-0.1-0.3-0.2-0.7-0.3-1.1l-3.3-13.7h27.1 M829.7,39.6h-30.6c-1.3,0-2.4,1.2-2,2.5l3.6,14.9
				c0.6,2.6,1.6,4.5,2.3,4.5c0.1,0,0.1,0,0.2,0c0.1-0.1,0.2-0.1,0.3-0.2c6.1-4.3,12.9-6.6,20.1-6.7c0.1,0,0.2,0,0.3,0
				c6.1,0,13,3.7,17.5,10.3l23.9,34.5c0.8,1.1,2,1.8,3.4,1.8l13,0.3c1.3,0,2.4-1.3,2-2.6c-0.6-2.4-1.5-4.6-3-7L852.4,50
				c-4.5-6.6-11.2-10.3-17.2-10.3c-0.2,0-0.3,0-0.5,0C834.7,39.6,832.6,39.6,829.7,39.6L829.7,39.6z"/>
		</g>
		<g>
			<path class="st4" d="M896.5,99.5c0.6-20.9,17.4-37.8,38.4-38.6v5.4c-17.6,0.8-31.8,15.2-32.6,33.2H896.5z"/>
			<path class="st5" d="M933.4,62.5v2.4c-8.4,0.7-16.1,4.3-22.1,10.3c-6,6.1-9.7,14.1-10.4,22.8H898C899.3,79.1,914.4,64,933.4,62.5
				 M935.4,59.4c-22.1,0.6-40,18.4-40.4,40.4c-0.1,0.7,0.3,1.1,0.9,1.1l6.6,0.1c0.7,0,1.2-0.6,1.3-1.2c0.7-17.5,14.4-31.7,31.9-32
				c0.3,0,0.7-0.3,0.7-0.7v-6.7C936.4,59.9,935.9,59.4,935.4,59.4L935.4,59.4z"/>
		</g>
		<g>
			<path class="st4" d="M884.7,87.3c-0.3-0.4-0.3-1.1-0.2-1.7c6.7-22.6,26.9-38,50.3-38.6v6.4c-22.7,0.7-42.2,18.7-45.6,41.7
				L884.7,87.3z"/>
			<path class="st5" d="M933.3,48.6V52c-21.4,1.4-39.9,17.6-44.8,38.9l-2.5-4.3c0,0-0.1-0.3,0-0.6c3.1-10.5,9.7-19.9,18.4-26.6
				C912.8,52.9,922.7,49.1,933.3,48.6 M935.5,45.5c-24.8,0.3-45.7,17.1-52.5,39.8c-0.2,1-0.1,2,0.3,2.8l5.6,9.9
				c0.1,0.3,0.4,0.4,0.6,0.4c0.3,0,0.7-0.2,0.7-0.6c2.2-23,21.7-42.5,45.3-42.8c0.3,0,0.7-0.2,0.7-0.7v-8
				C936.3,45.8,935.9,45.5,935.5,45.5L935.5,45.5z"/>
		</g>
		<g>
			<path class="st4" d="M874.9,72.3c11-23.2,34.4-38.5,59.8-39v6.4c-24.6,0.6-46.7,16.2-55.6,39.2L874.9,72.3z"/>
			<path class="st5" d="M933.3,34.8v3.4c-23.7,1.1-44.9,15.8-54.4,37.4l-2.2-3.5c5.2-10.7,13.2-19.8,23.2-26.4
				C909.8,39.1,921.3,35.4,933.3,34.8 M935.4,31.8c-27.5,0.3-51.1,16.8-62,40.3c-0.1,0.2,0,0.6,0.2,0.9l5.1,7.9
				c0.1,0.2,0.4,0.4,0.7,0.4s0.7-0.2,0.8-0.6c8.2-22.7,29.9-39.1,55.4-39.4c0.4,0,0.8-0.3,0.8-0.8v-7.8
				C936.3,32.1,935.8,31.8,935.4,31.8L935.4,31.8z"/>
		</g>
	</g>
	<g class="st3">
		<path class="st4" d="M91.1,197.4c-0.7,0-2.2-0.3-2.2-2.2v-7.4c0-0.7,0.3-2.2,2.2-2.2h171.1c0.7,0,2.2,0.3,2.2,2.2v7.4
			c0,0.7-0.3,2.2-2.2,2.2H91.1z"/>
		<path class="st5" d="M262.2,187.1c0.8,0,0.8,0.3,0.8,0.7v7.4c0,0.7-0.4,0.7-0.7,0.7H91.1c-0.7,0-0.7-0.4-0.7-0.7v-7.4
			c0-0.8,0.3-0.8,0.7-0.8h171.1 M262.2,184.1H91.1c-3.7,0-3.7,3.7-3.7,3.7v7.4c0,3.7,3.7,3.7,3.7,3.7h171.1c3.7,0,3.7-3.7,3.7-3.7
			v-7.4C265.9,184.1,262.2,184.1,262.2,184.1L262.2,184.1z"/>
	</g>
	<g class="st3">
		<path class="st4" d="M102.3,175.1c-0.7,0-2.2-0.3-2.2-2.2v-7.4c0-0.7,0.3-2.2,2.2-2.2h13l-0.3-1.7c0-0.2,0-0.4,0-0.4v-70
			c0-2,1.6-2.2,2.2-2.2h22.3c2.1,0,2.2,1.8,2.2,2.2V161c-0.1,0.1-0.1,0.3-0.1,0.5l-0.3,1.7h22.3l-0.3-1.7c0-0.2,0-0.4,0-0.4v-70
			c0-2,1.6-2.2,2.2-2.2h22.3c2,0,2.2,1.6,2.2,2.2V161c-0.1,0.1-0.1,0.3-0.2,0.6l-0.2,1.7H212l-0.3-1.8c0-0.2-0.1-0.4-0.1-0.4v-70
			c0-2.1,1.8-2.2,2.2-2.2h22.3c2,0,2.2,1.6,2.2,2.2V161c-0.1,0.1-0.1,0.3-0.2,0.6l-0.2,1.7h13c0.7,0,2.2,0.3,2.2,2.2v7.4
			c0,0.7-0.3,2.2-2.2,2.2L102.3,175.1L102.3,175.1z"/>
		<path class="st5" d="M236.2,90.4c0.4,0,0.7,0,0.7,0.8v69.6c-0.1,0.2-0.1,0.4-0.1,0.6l-0.4,3.4h3.4H251c0.8,0,0.8,0.3,0.8,0.7v7.4
			c0,0.8-0.3,0.8-0.7,0.8H102.3c-0.8,0-0.8-0.3-0.8-0.7v-7.4c0-0.8,0.3-0.8,0.7-0.8h11.2h3.5l-0.6-3.5c0-0.1,0-0.2,0-0.2v-70
			c0-0.4,0-0.7,0.8-0.7h22.3c0.4,0,0.7,0,0.7,0.8v69.6c0,0.1-0.1,0.3-0.1,0.5l-0.6,3.5h3.5h18.8h3.5l-0.6-3.5c0-0.1,0-0.2,0-0.2v-70
			c0-0.4,0-0.7,0.8-0.7h22.3c0.4,0,0.7,0,0.7,0.8v69.6c-0.1,0.2-0.1,0.4-0.1,0.6l-0.4,3.4h3.4h18.8h3.6l-0.6-3.5c0-0.1,0-0.2,0-0.2
			v-70c0-0.4,0-0.7,0.8-0.7L236.2,90.4 M236.2,87.4h-22.3c0,0-3.7,0-3.7,3.7v70c0,0,0,0.2,0.1,0.6h-18.8c0-0.2,0.2-0.3,0.2-0.6v-70
			c0,0,0-3.7-3.7-3.7h-22.3c0,0-3.7,0-3.7,3.7v70c0,0,0,0.2,0.1,0.6H143c0-0.2,0.2-0.3,0.2-0.6v-70c0,0,0-3.7-3.7-3.7h-22.3
			c0,0-3.7,0-3.7,3.7v70c0,0,0,0.2,0.1,0.6h-11.2c-3.7,0-3.7,3.7-3.7,3.7v7.4c0,3.7,3.7,3.7,3.7,3.7H251c3.7,0,3.7-3.7,3.7-3.7v-7.4
			c0-3.7-3.7-3.7-3.7-3.7h-11.3c0-0.2,0.2-0.3,0.2-0.6v-70C239.9,91.1,239.9,87.4,236.2,87.4L236.2,87.4z"/>
	</g>
	<g class="st3">
		<path class="st4" d="M94.8,78.4c-0.6,0-1.4-0.1-1.9-0.2c0.3-0.3,0.7-0.6,1.5-1.2l76.9-51.2c0,0,2.4-1.5,5.4-1.6h0.3
			c1.7,0,3.4,0.6,5,1.6L258.9,77c0.5,0.4,1.1,0.9,1.4,1.2c-0.4,0.1-0.9,0.1-1.9,0.1H94.8V78.4z"/>
		<path class="st5" d="M177,25.7c1.5,0,2.9,0.5,4.2,1.3L256,76.9H97.3L172.1,27c0,0,2-1.3,4.6-1.3H177 M177.1,22.7h-0.3
			c-3.6,0.1-6.2,1.8-6.2,1.8l-77,51.3c-6.2,4.1,1.2,4.1,1.2,4.1h163.6c7.4,0,1.2-4.1,1.2-4.1l-76.9-51.2
			C180.9,23.2,178.9,22.7,177.1,22.7L177.1,22.7z"/>
	</g>
	<g class="st3">
		<polygon class="st4" points="64.3,498.9 45.4,472.3 76.7,461.8 96.3,435.2 116,461.8 147.2,472.3 128.3,498.9 128,532 96.3,522.1 
			64.7,532 		"/>
		<path class="st5" d="M96.3,437.7l18.2,24.5l0.6,0.8l0.9,0.3l28.9,9.8l-17.5,24.5l-0.5,0.8v0.9l-0.3,30.6l-29.3-9.1l-0.9-0.3
			l-0.9,0.3l-29.3,9.1l-0.3-30.6v-0.9l-0.5-0.8l-17.5-24.5l28.9-9.8l0.9-0.3l0.6-0.8L96.3,437.7 M96.3,432.7l-20.6,27.8l-32.8,11
			l19.8,27.8l0.4,34.7l33.1-10.3l33.1,10.3l0.4-34.7l19.8-27.8l-32.8-11L96.3,432.7L96.3,432.7z"/>
	</g>
	<g class="st3">
		<g>
			<path class="st4" d="M904.4,549.4L904.4,549.4c-0.9-1.2-9.1-14.2-17.3-29c-12.1-21.8-18-37-18-46.4c0-22.6,18.4-41,41-41
				c10.8,0,21,4.3,28.7,12.1c7.7,7.8,11.8,18,11.6,28.9c0,9.1-5.9,24.3-18,46.4c-8,15.3-16.4,27.9-17.3,29l-0.1,0.1l-0.1,0.1
				l-5.2,7.8L904.4,549.4z M910,449.6c-13.2,0-23.6,10.4-23.6,23.6s10.4,23.6,23.6,23.6c12.8,0,23.3-10.6,23.3-23.6
				C933.3,459.8,923.3,449.6,910,449.6z"/>
			<path class="st5" d="M910,434.5c10.4,0,20.2,4.1,27.6,11.6c7.4,7.5,11.3,17.3,11.2,27.8c0,8.9-5.8,23.8-17.8,45.7l0,0l0,0
				c-8,15.3-16,27.4-17,28.6l-0.1,0.1l-0.2,0.2l-3.9,5.9l-3.9-5.9l-0.2-0.2l-0.1-0.1c-1.1-1.7-9.2-14.5-17.1-28.8
				c-12-21.6-17.8-36.5-17.8-45.7c0-10.6,4.1-20.5,11.5-28S899.4,434.5,910,434.5 M910,498.4c13.7,0,24.8-11.3,24.8-25.1
				c0-14.3-10.7-25.1-24.8-25.1s-25.1,11-25.1,25.1S895.9,498.4,910,498.4 M910,431.5c-23.6,0-42.5,18.9-42.5,42.5
				c0,9.6,5.7,24.6,18.2,47.1c8.6,15.3,17.1,28.9,17.5,29.3l6.4,9.6l6.4-9.6c0.7-0.7,9.3-13.6,17.5-29.3
				c12.1-22.1,18.2-37.5,18.2-47.1C952.1,450.4,932.8,431.5,910,431.5L910,431.5z M910,495.4c-12.5,0-22.1-9.6-22.1-22.1
				s9.6-22.1,22.1-22.1s21.8,9.6,21.8,22.1S921.8,495.4,910,495.4L910,495.4z"/>
		</g>
	</g>
	<g class="st3">
		<g>
			<path class="st4" d="M70.5,389.4l-3.3-14.7H51.1v13.4c0,1.7-1.4,3.1-3.1,3.1h-3.8c-1.7,0-3.1-1.4-3.1-3.1v-21.2v-0.1
				c-0.1-0.4-0.1-0.7-0.1-1.2V313c0-5.1,4.1-9.1,9.1-9.1h62.3l20.6-30.4c3-4.4,8-7.1,13.3-7.1c3.2,0,6.2,1,8.8,2.7l3.6,2.4
				c1.6,1,2.8,2.2,3.9,3.7c0.3,0.5,0.7,1,1.2,1.6c0.7,0.8,1.3,1.7,1.8,2.5c0.1,0.2,0.2,0.2,0.2,0.4c0.1,0,0.1,0.1,0.1,0.1l0.1,0.1
				l17.3,22.7c1,1.2,0.9,3-0.1,4.2l-5.6,6.9c-0.7,0.8-1.6,1.2-2.7,1.2c-0.5,0-1-0.2-1.4-0.3l-15.8-7.3l0.9,2.7
				c0.2,0.9,0.4,1.9,0.4,2.8v15.9v0.2c0.1,0.2,0.1,0.5,0.1,0.7V388c0,1.7-1.4,3.1-3.1,3.1h-3.8c-1.7,0-3.1-1.4-3.1-3.1v-13.4h-12.9
				V388c0,1.7-1.4,3.1-3.1,3.1h-3.8c-1.7,0-3.1-1.4-3.1-3.1v-13.4H79.1l2.7,12c0.2,0.8,0,1.7-0.4,2.3c-0.4,0.7-1.1,1.2-1.9,1.4
				l-5.4,1.2c-0.2,0.1-0.4,0.1-0.7,0.1C72.1,391.7,70.8,390.7,70.5,389.4z M143.2,284.3c0,5.7,4.6,10.4,10.4,10.4
				c5.7,0,10.4-4.6,10.4-10.4c0-5.7-4.6-10.4-10.4-10.4C147.8,273.9,143.2,278.5,143.2,284.3z"/>
			<path class="st5" d="M146.4,267.5c2.9,0,5.7,0.9,8.2,2.5l3.6,2.4c1.4,0.9,2.6,2.1,3.6,3.5c0,0.1,0.1,0.1,0.1,0.2
				c-2.1-2.1-5-3.4-8.2-3.4c-6.4,0-11.6,5.2-11.6,11.6c0,6.4,5.2,11.6,11.6,11.6c6.4,0,11.6-5.2,11.6-11.6c0-2.3-0.7-4.4-1.8-6.2
				c0.5,0.6,1,1.2,1.3,1.8c0.1,0.2,0.2,0.4,0.3,0.6l0,0l0.1,0.1l0.2,0.2l17.2,22.6c0.7,0.7,0.7,1.9,0,2.7l-5.6,6.9
				c-0.4,0.6-1,0.8-1.7,0.8c-0.3,0-0.7,0-1-0.2l-13.3-6.1l-5.1-2.4l1.7,5.4c0.2,0.7,0.4,1.6,0.4,2.4v15.8v0.2l0.1,0.2
				c0,0.2,0,0.3,0,0.4V388c0,1-0.8,1.8-1.8,1.8h-3.8c-1,0-1.8-0.8-1.8-1.8v-12.2v-2.5h-2.5h-10.5h-2.5v2.5V388c0,1-0.8,1.8-1.8,1.8
				h-3.8c-1,0-1.8-0.8-1.8-1.8v-12.2v-2.5h-2.5H80.8h-3.2l0.7,3.1l2.4,10.5c0.2,1-0.4,2-1.4,2.2l-5.4,1.2c-0.2,0.1-0.2,0.1-0.4,0.1
				c-0.8,0-1.7-0.7-1.8-1.5l-3.1-13.7l-0.4-1.9h-2H52.3h-2.5v2.5V388c0,1-0.8,1.8-1.8,1.8h-3.8c-1,0-1.8-0.8-1.8-1.8v-21.2v-0.2
				v-0.2c-0.1-0.3-0.1-0.7-0.1-1v-52.7c0-4.4,3.6-7.9,7.9-7.9h61.6h1.3l0.7-1.1l20.2-30C136.9,269.9,141.5,267.5,146.4,267.5
				 M146.4,265c-5.6,0-11,2.7-14.4,7.6l-20.2,29.9H50.2c-5.7,0-10.4,4.6-10.4,10.4v52.7c0,0.4,0,0.9,0.1,1.3V388
				c0,2.3,1.9,4.3,4.3,4.3H48c2.3,0,4.3-1.9,4.3-4.3v-12.2h13.9l3.1,13.7c0.5,2,2.2,3.4,4.2,3.4c0.3,0,0.7,0,1-0.1l5.4-1.2
				c2.3-0.6,3.8-2.9,3.2-5.2l-2.4-10.5h44.4V388c0,2.3,1.9,4.3,4.3,4.3h3.8c2.3,0,4.3-1.9,4.3-4.3v-12.2H148V388
				c0,2.3,1.9,4.3,4.3,4.3h3.8c2.3,0,4.3-1.9,4.3-4.3v-58.5c0-0.3,0-0.7-0.1-0.9v-15.8c0-1.1-0.2-2.2-0.5-3.2l13.3,6.1
				c0.7,0.2,1.3,0.4,2,0.4c1.4,0,2.7-0.6,3.7-1.7l5.6-6.9c1.4-1.7,1.4-4.1,0.1-5.8l-17.2-22.6c-0.1-0.2-0.2-0.4-0.3-0.6
				c-0.9-1.7-2.3-3-3.2-4.2c-1.2-1.6-2.6-3-4.2-4.1l-3.6-2.4C153.1,265.9,149.7,265,146.4,265L146.4,265z M153.6,293.4
				c-5.1,0-9.1-4.1-9.1-9.1s4.1-9.1,9.1-9.1c5.1,0,9.1,4.1,9.1,9.1S158.6,293.4,153.6,293.4L153.6,293.4z"/>
		</g>
		<g>
			<circle class="st4" cx="155.9" cy="284.3" r="2.7"/>
		</g>
		<g>
			<path class="st4" d="M95.7,298.4c-0.2,0-0.2-0.1-0.3-0.2c-0.1-0.1-0.2-0.2-0.1-0.4c0.5-2,1.2-3.7,2.3-5.4l23.5-34.8
				c3.4-5,8.5-8,13.3-8c0.2,0,0.2,0,0.4,0l3.2,0.1l-0.2-0.2c0.4,0,26.5,0,26.5,0c0.2,0,0.3,0.1,0.4,0.2c0.1,0.1,0.1,0.2,0.1,0.3
				l-3,12.4c-0.3,1.2-0.7,2-0.9,2.5c-5.1-3.5-11-5.4-16.9-5.5h-0.2c-5.7,0-11.9,3.6-15.5,9.1l-19.8,28.6c-0.4,0.7-1.1,1-1.8,1
				L95.7,298.4z"/>
			<path class="st5" d="M140.7,250.8h22.5l-2.7,11.4c-0.1,0.3-0.2,0.7-0.2,0.9c-5-3.2-10.6-4.8-16.3-4.9c-0.1,0-0.2,0-0.2,0
				c-6.3,0-12.6,3.7-16.6,9.6l-19.8,28.6c-0.1,0.2-0.3,0.4-0.7,0.4l0,0l0,0l-9.7,0.2c0.4-1.5,1.1-2.7,1.9-4.1l23.5-34.8
				c3.1-4.6,7.9-7.5,12.2-7.5c0.1,0,0.2,0,0.3,0l6.3,0.2L140.7,250.8 M138.9,248.2c-2.4,0-4.1,0-4.1,0.1c-0.2,0-0.2,0-0.4,0
				c-5,0-10.5,3.1-14.3,8.5l-23.5,34.8c-1.2,2-2,3.8-2.5,5.8c-0.3,1.1,0.6,2.2,1.7,2.2l10.8-0.2c1.2,0,2.2-0.6,2.8-1.5l19.8-28.6
				c3.7-5.5,9.5-8.5,14.5-8.5c0.1,0,0.2,0,0.2,0c6,0.1,11.6,2,16.7,5.6c0.1,0.1,0.2,0.1,0.2,0.2c0.1,0,0.1,0,0.2,0
				c0.6,0,1.4-1.6,1.9-3.7l3-12.4c0.3-1.1-0.6-2.1-1.7-2.1H138.9L138.9,248.2z"/>
		</g>
		<g>
			<path class="st4" d="M78.6,297.9c-0.7-14.9-12.4-26.9-27-27.5v-4.5c17.4,0.7,31.4,14.7,31.9,32H78.6z"/>
			<path class="st5" d="M52.8,267.2c15.8,1.2,28.3,13.8,29.4,29.5h-2.4c-0.6-7.2-3.7-13.9-8.6-18.9c-5-5-11.4-8-18.3-8.5V267.2
				 M51.2,264.7c-0.4,0-0.8,0.4-0.8,0.8v5.6c0,0.3,0.3,0.6,0.6,0.6c14.5,0.2,25.9,12,26.5,26.5c0.1,0.5,0.5,1,1.1,1l5.5-0.1
				c0.5,0,0.8-0.3,0.7-0.9C84.4,279.9,69.5,265.2,51.2,264.7L51.2,264.7z"/>
		</g>
		<g>
			<path class="st4" d="M89.5,294.3c-2.8-19.1-19-34-37.8-34.6v-5.3c19.4,0.5,36.2,13.3,41.7,32c0.1,0.5,0.1,1.1-0.2,1.4L89.5,294.3
				z"/>
			<path class="st5" d="M52.9,255.7c8.8,0.4,17,3.6,24,9c7.2,5.6,12.7,13.4,15.3,22.1c0.1,0.2,0,0.5,0,0.5l-2.1,3.6
				c-4.1-17.7-19.4-31.1-37.2-32.3V255.7 M51.1,253.1c-0.3,0-0.7,0.2-0.6,0.7v6.6c0,0.4,0.3,0.6,0.6,0.6
				c19.6,0.2,35.8,16.4,37.6,35.5c0,0.3,0.3,0.5,0.6,0.5c0.2,0,0.4-0.1,0.5-0.3l4.6-8.2c0.3-0.7,0.4-1.5,0.2-2.3
				C89,267.3,71.7,253.4,51.1,253.1L51.1,253.1z"/>
		</g>
		<g>
			<path class="st4" d="M97.9,280.9c-7.4-19.1-25.7-32-46.1-32.5V243c21.1,0.4,40.5,13.1,49.6,32.4L97.9,280.9z"/>
			<path class="st5" d="M52.9,244.3c10,0.5,19.5,3.6,27.7,9c8.3,5.5,14.9,13,19.2,21.9l-1.8,2.9c-7.9-17.9-25.5-30.1-45.1-31V244.3
				 M51.2,241.8c-0.3,0-0.7,0.2-0.8,0.7v6.5c0,0.4,0.3,0.7,0.7,0.7c21.2,0.2,39.2,13.9,46,32.7c0.1,0.3,0.4,0.5,0.7,0.5
				c0.2,0,0.5-0.2,0.6-0.3l4.2-6.6c0.2-0.2,0.2-0.6,0.2-0.7C93.6,255.7,74,242,51.2,241.8L51.2,241.8z"/>
		</g>
	</g>
</g>
</svg>
