<?xml version="1.0" encoding="utf-8"?>
<!-- Generator: Adobe Illustrator 23.0.1, SVG Export Plug-In . SVG Version: 6.00 Build 0)  -->
<svg version="1.1" id="Ebene_1" xmlns="http://www.w3.org/2000/svg" xmlns:xlink="http://www.w3.org/1999/xlink" x="0px" y="0px"
	 viewBox="0 0 180.4 110" style="enable-background:new 0 0 180.4 110;" xml:space="preserve">
<style type="text/css">
	.st0{filter:url(#Adobe_OpacityMaskFilter);}
	.st1{fill-rule:evenodd;clip-rule:evenodd;fill:#FFFFFF;}
	.st2{opacity:0.5;mask:url(#mask-2_1_);fill-rule:evenodd;clip-rule:evenodd;fill:#FFFFFF;enable-background:new    ;}
	.st3{fill-rule:evenodd;clip-rule:evenodd;fill:#004DA1;}
	.st4{filter:url(#Adobe_OpacityMaskFilter_1_);}
	.st5{opacity:0.5;mask:url(#mask-4_1_);fill-rule:evenodd;clip-rule:evenodd;fill:#FFFFFF;enable-background:new    ;}
	.st6{filter:url(#Adobe_OpacityMaskFilter_2_);}
	.st7{opacity:0.5;mask:url(#mask-6_1_);fill-rule:evenodd;clip-rule:evenodd;fill:#FFFFFF;enable-background:new    ;}
</style>
<title>icon/desktop_ZWH/stars</title>
<desc>Created with Sketch.</desc>
<g>
	<g id="Clip-2">
	</g>
	<defs>
		<filter id="Adobe_OpacityMaskFilter" filterUnits="userSpaceOnUse" x="78.3" y="33.4" width="102.1" height="78">
			<feColorMatrix  type="matrix" values="1 0 0 0 0  0 1 0 0 0  0 0 1 0 0  0 0 0 1 0"/>
		</filter>
	</defs>
	<mask maskUnits="userSpaceOnUse" x="78.3" y="33.4" width="102.1" height="78" id="mask-2_1_">
		<g class="st0">
			<polygon id="path-1_1_" class="st1" points="78.3,33.4 180.4,33.4 180.4,111.4 78.3,111.4 			"/>
		</g>
	</mask>
	<polygon id="Fill-1" class="st2" points="78.3,83.7 115.1,33.4 180.4,83 180.4,111.4 116.8,111.4 	"/>
	<path id="Fill-4" class="st3" d="M96.4,29.4c16,0,29,13,29,29c0,16-13,29-29,29s-29-13-29-29C67.4,42.3,80.4,29.4,96.4,29.4"/>
	<path id="Fill-6" class="st1" d="M94.4,51.9c-1.1-1.1-1.1-2.9,0-4c1.1-1.1,2.9-1.1,4,0c1.1,1.1,1.1,2.9,0,4
		C97.3,53,95.5,53,94.4,51.9z M99.3,69.7c0,1.6-1.3,2.8-2.8,2.8c-1.6,0-2.8-1.3-2.8-2.8V58.4c0-1.6,1.3-2.8,2.8-2.8
		c1.6,0,2.8,1.3,2.8,2.8V69.7z M96.4,85c14.7,0,26.7-11.9,26.7-26.7c0-14.7-11.9-26.7-26.7-26.7c-14.7,0-26.7,11.9-26.7,26.7
		C69.8,73.1,81.7,85,96.4,85z M96.4,89.5c-17.2,0-31.2-14-31.2-31.2c0-17.2,14-31.2,31.2-31.2c17.2,0,31.2,14,31.2,31.2
		C127.6,75.6,113.6,89.5,96.4,89.5z"/>
	<g id="Clip-9">
	</g>
	<defs>
		<filter id="Adobe_OpacityMaskFilter_1_" filterUnits="userSpaceOnUse" x="94.9" y="47.6" width="85.6" height="63.7">
			<feColorMatrix  type="matrix" values="1 0 0 0 0  0 1 0 0 0  0 0 1 0 0  0 0 0 1 0"/>
		</filter>
	</defs>
	<mask maskUnits="userSpaceOnUse" x="94.9" y="47.6" width="85.6" height="63.7" id="mask-4_1_">
		<g class="st4">
			<polygon id="path-3_1_" class="st1" points="94.9,47.6 180.4,47.6 180.4,111.4 94.9,111.4 			"/>
		</g>
	</mask>
	<polygon id="Fill-8" class="st5" points="94.9,52.2 98.1,47.6 180.4,110.4 180.4,111.4 172.5,111.4 	"/>
	<g id="Clip-12">
	</g>
	<defs>
		<filter id="Adobe_OpacityMaskFilter_2_" filterUnits="userSpaceOnUse" x="95.4" y="56.2" width="75.2" height="55.2">
			<feColorMatrix  type="matrix" values="1 0 0 0 0  0 1 0 0 0  0 0 1 0 0  0 0 0 1 0"/>
		</filter>
	</defs>
	<mask maskUnits="userSpaceOnUse" x="95.4" y="56.2" width="75.2" height="55.2" id="mask-6_1_">
		<g class="st6">
			<polygon id="path-5_1_" class="st1" points="95.4,56.2 170.5,56.2 170.5,111.4 95.4,111.4 			"/>
		</g>
	</mask>
	<polygon id="Fill-11" class="st7" points="95.4,72.4 98.1,56.2 170.5,111.4 147.3,111.4 	"/>
</g>
</svg>
