<?xml version="1.0" encoding="utf-8"?>
<!-- Generator: Adobe Illustrator 22.1.0, SVG Export Plug-In . SVG Version: 6.00 Build 0)  -->
<svg version="1.1" id="Ebene_1" xmlns="http://www.w3.org/2000/svg" xmlns:xlink="http://www.w3.org/1999/xlink" x="0px" y="0px"
	 viewBox="0 0 250 250" style="enable-background:new 0 0 250 250;" xml:space="preserve">
<style type="text/css">
	.st0{opacity:0.74;}
	.st1{fill:#E66E1E;}
</style>
<g>
	<g class="st0">
		<g>
			<path class="st1" d="M96.2,109c-18.4,0-33.3-16.3-33.3-36.2c0-20,14.9-36.2,33.3-36.2c18.4,0,33.3,16.3,33.3,36.2
				C129.5,92.7,114.5,109,96.2,109L96.2,109z M96.2,44.2C82.3,44.2,71,57,71,72.7c0,15.7,11.3,28.5,25.2,28.5
				c13.9,0,25.2-12.8,25.2-28.5C121.3,57,110.1,44.2,96.2,44.2L96.2,44.2z"/>
		</g>
		<g>
			<path class="st1" d="M135.7,213.5H55c-2.5,0-4.6-2-4.8-4.5l-4.6-48.6c-0.9-13.4,9.4-28.9,22.5-33.8c17-6.2,37.6-6.2,54.6,0
				c13.2,4.9,23.5,20.4,22.5,33.9l-4.6,48.6c-0.2,2.6-0.3,4.5-2.9,4.5H135.7z M57.6,205.6h75.5l4.6-46.3c0.6-8.7-6.6-21.3-17.1-25.3
				c-15.5-5.7-34.9-5.7-50.5,0c-10.4,3.9-17.6,16.6-17,25.3L57.6,205.6L57.6,205.6z"/>
		</g>
		<g>
			<path class="st1" d="M198,203.4h-36.4c-2.1,0-3.8-1.6-3.8-3.6c0-2,1.7-3.6,3.8-3.6h32.9l2.5-30.5c0.4-5-4.2-13.5-10.7-15.8
				c-8.8-3-15-3.7-24.5-3.8c-2.1,0-3.7-1.7-3.7-3.7c0-2,1.7-3.5,3.8-3.5c10.3,0.2,17.3,1,26.9,4.3c9.1,3.2,16.2,14.3,15.6,23.1
				l-2.7,33.9C201.6,201.9,200,203.4,198,203.4L198,203.4z"/>
		</g>
		<g>
			<path class="st1" d="M169.3,125.2c-14.4,0-26.2-12.7-26.2-28.3s11.7-28.3,26.2-28.3c14.4,0,26.2,12.7,26.2,28.3
				C195.4,112.5,183.7,125.2,169.3,125.2L169.3,125.2z M169.3,76c-10.1,0-18.3,9.4-18.3,20.9s8.2,20.9,18.3,20.9
				c10.1,0,18.3-9.4,18.3-20.9S179.4,76,169.3,76L169.3,76z"/>
		</g>
	</g>
</g>
</svg>
