<?xml version="1.0" encoding="utf-8"?>
<!-- Generator: Adobe Illustrator 22.1.0, SVG Export Plug-In . SVG Version: 6.00 Build 0)  -->
<svg version="1.1" id="Ebene_1" xmlns="http://www.w3.org/2000/svg" xmlns:xlink="http://www.w3.org/1999/xlink" x="0px" y="0px"
	 viewBox="0 0 250 250" style="enable-background:new 0 0 250 250;" xml:space="preserve">
<style type="text/css">
	.st0{opacity:0.74;}
	.st1{fill:#FFFFFF;}
</style>
<g class="st0">
	<g>
		<path class="st1" d="M174.6,153.5H158c-1.9,0-3.5-1.6-3.5-3.5c0-1.9,1.6-3.5,3.5-3.5h16.5c6.3,0,12.3-2.7,16.6-7.4
			c6.5-5.9,9.9-13.6,9.9-22c0-16.2-13.2-29.3-29.3-29.3c-3,0-6,0.5-9,1.4c-1,0.3-2.1,0.2-3-0.4c-0.9-0.6-1.4-1.5-1.6-2.6
			c-2-19.7-18.4-34.5-38.2-34.5c-21.1,0-38.3,17.2-38.3,38.3c0,2.5,0.3,5,0.8,7.5c0.2,1-0.1,2.1-0.7,2.9c-0.7,0.8-1.7,1.3-2.7,1.3
			h-7.8c-12.3,0-22.3,10-22.3,22.4c0,12.3,10,22.3,22.3,22.3h20.6c1.9,0,3.5,1.6,3.5,3.5c0,1.9-1.6,3.5-3.5,3.5H71.2
			c-16.2,0-29.3-13.1-29.3-29.3c0-16.2,13.2-29.3,29.3-29.3H75c-0.2-1.6-0.3-3.2-0.3-4.7c0-25,20.3-45.3,45.3-45.3
			c22,0,40.5,15.6,44.5,36.8c2.4-0.5,4.7-0.7,7.1-0.7c20,0,36.3,16.3,36.3,36.3c0,10.2-4.4,20-11.9,26.9
			C190.7,149.9,182.8,153.5,174.6,153.5L174.6,153.5z"/>
	</g>
	<g>
		<g>
			<path class="st1" d="M125,205.4c-0.7,0-1.4-0.2-2.1-0.7l-40.3-29.3c-1.6-1.1-1.9-3.3-0.8-4.9c1.1-1.6,3.3-1.9,4.9-0.8l38.2,27.8
				l38.2-27.8c1.5-1.1,3.7-0.8,4.9,0.8c1.1,1.6,0.8,3.7-0.8,4.9L127,204.7C126.4,205.1,125.7,205.4,125,205.4L125,205.4z"/>
		</g>
		<g>
			<path class="st1" d="M125,205.4c-1.9,0-3.5-1.6-3.5-3.5v-89.2c0-1.9,1.6-3.5,3.5-3.5c1.9,0,3.5,1.6,3.5,3.5v89.2
				C128.4,203.8,126.9,205.4,125,205.4L125,205.4z"/>
		</g>
	</g>
</g>
</svg>
