<?xml version="1.0" encoding="utf-8"?>
<!-- Generator: Adobe Illustrator 22.1.0, SVG Export Plug-In . SVG Version: 6.00 Build 0)  -->
<svg version="1.1" id="Ebene_1" xmlns="http://www.w3.org/2000/svg" xmlns:xlink="http://www.w3.org/1999/xlink" x="0px" y="0px"
	 viewBox="0 0 250 250" style="enable-background:new 0 0 250 250;" xml:space="preserve">
<style type="text/css">
	.st0{opacity:0.74;}
	.st1{fill:#FFFFFF;}
</style>
<g class="st0">
	<g>
		<path class="st1" d="M82,185c-33.1,0-60-26.9-60-60c0-33.1,26.9-60,60-60c22,0,42.5,12.4,52.8,31.7h65c15.5,0,28.2,12.7,28.2,28.2
			c0,14-10.5,26-24.4,27.8l-2.1,0.3l-1.5-1.5l-8.6-9.8l-11.3,12.8l-11.3-12.8l-9.7,11l-2.2,0.4h-22.1C124.4,172.6,104,185,82,185
			L82,185z M82,73.5c-28.4,0-51.5,23.1-51.5,51.5s23.1,51.5,51.5,51.5c20,0,37.8-11.2,46.4-29.3l1.1-2.4H155l13.8-15.7l11.3,12.8
			l11.3-12.8l13.2,15c8.7-2.2,15-10,15-19.1c0-10.9-8.9-19.8-19.7-19.8h-70.2l-1.1-2.4C119.7,84.7,102,73.5,82,73.5L82,73.5z"/>
	</g>
	<g>
		<path class="st1" d="M66.1,141.2c-8.9,0-16.2-7.3-16.2-16.2s7.3-16.2,16.2-16.2s16.2,7.3,16.2,16.2S75,141.2,66.1,141.2
			L66.1,141.2z M66.1,117.2c-4.3,0-7.8,3.5-7.8,7.8c0,4.3,3.5,7.8,7.8,7.8c4.3,0,7.8-3.5,7.8-7.8C73.9,120.7,70.4,117.2,66.1,117.2
			L66.1,117.2z"/>
	</g>
</g>
</svg>
