<?xml version="1.0" encoding="utf-8"?>
<!-- Generator: Adobe Illustrator 23.0.1, SVG Export Plug-In . SVG Version: 6.00 Build 0)  -->
<svg version="1.1" id="menu" xmlns="http://www.w3.org/2000/svg" xmlns:xlink="http://www.w3.org/1999/xlink" x="0px" y="0px"
	 viewBox="0 0 512 512" style="enable-background:new 0 0 512 512;" xml:space="preserve">
<path fill="var(--icon-stroke-color-strong, black)" d="M432,176H80c-8.8,0-16-7.2-16-16s7.2-16,16-16h352c8.8,0,16,7.2,16,16S440.8,176,432,176z"/>
<path style="fill: currentColor" d="M432,272H80c-8.8,0-16-7.2-16-16c0-8.8,7.2-16,16-16h352c8.8,0,16,7.2,16,16S440.8,272,432,272z"/>
<path fill="var(--icon-stroke-color-strong, black)" d="M432,368H80c-8.8,0-16-7.2-16-16s7.2-16,16-16h352c8.8,0,16,7.2,16,16S440.8,368,432,368z"/>
</svg>
