<?xml version="1.0" encoding="utf-8"?>
<!-- Generator: Adobe Illustrator 23.0.1, SVG Export Plug-In . SVG Version: 6.00 Build 0)  -->
<svg version="1.0" id="repository" xmlns="http://www.w3.org/2000/svg" xmlns:xlink="http://www.w3.org/1999/xlink" x="0px" y="0px"
	 viewBox="0 0 32 32" style="enable-background:new 0 0 32 32;" xml:space="preserve">
    <path style="fill: currentColor" d="M4.5,26C4,26,4,26.5,4,26.5v1C4,28,4.5,28,4.5,28h23c0.5,0,0.5-0.5,0.5-0.5v-1c0-0.5-0.5-0.5-0.5-0.5H4.5z"/>
    <path d="M21,13c0,0-0.5,0-0.5,0.5v9.4c0,0,0,0,0,0.1H18c0,0,0,0,0-0.1v-9.4c0,0,0-0.5-0.5-0.5h-3c0,0-0.5,0-0.5,0.5v9.4
        c0,0,0,0,0,0.1h-2.5c0,0,0,0,0-0.1v-9.4c0,0,0-0.5-0.5-0.5H8c0,0-0.5,0-0.5,0.5v9.4c0,0,0,0,0,0.1H6c-0.5,0-0.5,0.5-0.5,0.5v1
        C5.5,25,6,25,6,25h20c0.5,0,0.5-0.5,0.5-0.5v-1C26.5,23,26,23,26,23h-1.5c0,0,0,0,0-0.1v-9.4c0,0,0-0.5-0.5-0.5H21z"/>
    <path d="M16,4.3c-0.5,0-0.8,0.2-0.8,0.2L4.8,11.4C4,12,5,12,5,12h22c1,0,0.2-0.6,0.2-0.6L16.8,4.6
        C16.6,4.4,16.3,4.3,16,4.3C16.1,4.3,16,4.3,16,4.3z"/>
</svg>
