<?xml version="1.0" encoding="utf-8"?>
<!-- Generator: Adobe Illustrator 22.0.1, SVG Export Plug-In . SVG Version: 6.00 Build 0)  -->
<svg version="1.1" id="Ebene_1" xmlns="http://www.w3.org/2000/svg" xmlns:xlink="http://www.w3.org/1999/xlink" x="0px" y="0px"
	 viewBox="0 0 62 62" style="enable-background:new 0 0 62 62;" xml:space="preserve">
<style type="text/css">
	.st0{fill:#FFFFFF;}
</style>
<g>
	<polygon class="st0" points="36.1,42.5 34.4,47.3 37.7,47.3 	"/>
	<path class="st0" d="M0,0v62h62V0H0z M11.5,52.3H8.7V39.4h2.8V52.3z M23.1,52.3H14V39.4h2.8v10.5h6.3
		C23.1,49.9,23.1,52.3,23.1,52.3z M28.2,52.3h-2.8V39.4h2.8V52.3z M39.5,52.3l-1-2.9h-4.8l-1,2.9h-2.9l4.9-12.9h2.9l4.8,12.9
		C42.4,52.3,39.5,52.3,39.5,52.3z M49.3,52.6c-2.9,0-5.5-1.4-5.5-4.6l0,0l0,0l0,0h2.7c0,1.7,1.3,2.4,2.9,2.4c1,0,2.5-0.3,2.5-1.6
		c0-1.4-1.9-1.6-3.8-2.1c-1.9-0.5-3.8-1.2-3.8-3.7c0-2.6,2.5-3.9,4.8-3.9c2.7,0,5.2,1.2,5.2,4.2h-2.7c-0.1-1.6-1.2-2-2.5-2
		c-0.9,0-2,0.4-2,1.5c0,1,0.6,1.1,3.8,2c0.9,0.2,3.8,0.8,3.8,3.8C54.6,50.8,52.8,52.6,49.3,52.6z"/>
</g>
</svg>
